<svg id="svg-icon-reload" xmlns="http://www.w3.org/2000/svg" width="31" height="31" viewBox="0 0 31 31">
  <defs>
    <style>
      .cls-1 {
        fill: #fff;
        stroke: #ececec;
        stroke-linejoin: round;
        stroke-width: 1px;
      }

      .cls-2 {
        fill: #cfcfcf;
        fill-rule: evenodd;
      }
    </style>
  </defs>
  <rect id="bg" class="cls-1" x="0.5" y="0.5" width="30" height="30"/>
  <path id="reload" class="cls-2" d="M441.966,1571.67A7,7,0,1,1,433,1564.3v-0.8a1.5,1.5,0,0,1,1.5-1.5,1.566,1.566,0,0,1,.217.04l4.132,2.83a1.4,1.4,0,0,1,0,1.26l-4.132,2.83a1.566,1.566,0,0,1-.217.04,1.5,1.5,0,0,1-1.49-1.45A3.993,3.993,0,1,0,439,1571a1.626,1.626,0,0,1,3,0C442,1571.34,441.961,1571.71,441.966,1571.67Z" transform="translate(-419.5 -1554.5)"/>
</svg>
