<svg id="svg-icon-sale" xmlns="http://www.w3.org/2000/svg" width="34" height="15.031" viewBox="0 0 34 15.031">
  <defs>
    <style>
      .cls-1 {
        fill: #ff3f2b;
      }

      .cls-1, .cls-2 {
        fill-rule: evenodd;
      }

      .cls-2 {
        fill: #fff;
      }
    </style>
  </defs>
  <path id="bg" class="cls-1" d="M784.194,1006.87l-5.5,5.35a2.827,2.827,0,0,1-2.748.66,4.2,4.2,0,0,1-.946.12H755a4,4,0,0,1-4-4v-7a4,4,0,0,1,4-4h20a3.979,3.979,0,0,1,.9.11,2.808,2.808,0,0,1,2.795.643l5.5,5.347a2.614,2.614,0,0,1,.806,1.89C785,1006.67,784.731,1006.35,784.194,1006.87Z" transform="translate(-751 -997.969)"/>
  <path id="sale" class="cls-2" d="M756.925,1007.79a2.459,2.459,0,0,0,.357.69,1.56,1.56,0,0,0,.612.48,1.994,1.994,0,0,0,.867.18,1.828,1.828,0,0,0,1.281-.47,1.531,1.531,0,0,0,.527-1.21,2.819,2.819,0,0,0-.091-0.73,2.206,2.206,0,0,0-.276-0.63,3.948,3.948,0,0,0-.39-0.53c-0.139-.15-0.308-0.32-0.508-0.5-0.055-.05-0.147-0.12-0.278-0.23a2.978,2.978,0,0,1-.312-0.27,2.645,2.645,0,0,1-.256-0.27,1.162,1.162,0,0,1-.207-0.36,1.192,1.192,0,0,1-.068-0.41,0.764,0.764,0,0,1,.117-0.43,0.4,0.4,0,0,1,.351-0.19,0.356,0.356,0,0,1,.227.08,0.442,0.442,0,0,1,.139.21,1.435,1.435,0,0,1,.064.25,1.887,1.887,0,0,1,.02.27q0,0.06-.006.15c0,0.06-.006.11-0.006,0.14l1.469-.21v-0.11l0-.05a1.75,1.75,0,0,0-.524-1.28,1.7,1.7,0,0,0-1.269-.54,2.061,2.061,0,0,0-1.442.5,1.758,1.758,0,0,0-.543,1.36,2.136,2.136,0,0,0,.069.55,2.184,2.184,0,0,0,.164.45,2.027,2.027,0,0,0,.265.38,3.491,3.491,0,0,0,.295.32c0.083,0.08.2,0.17,0.336,0.29l0.441,0.38a2,2,0,0,1,.833,1.47,0.429,0.429,0,0,1-.422.53,0.35,0.35,0,0,1-.244-0.08,0.543,0.543,0,0,1-.161-0.21,1.221,1.221,0,0,1-.089-0.31,2.8,2.8,0,0,1-.041-0.36c-0.006-.11-0.008-0.24-0.008-0.38l-1.442.28A2.943,2.943,0,0,0,756.925,1007.79Zm6.78-3.78,0.356,2.61h-0.727Zm-0.742,4.99,0.274-1.5h0.918l0.289,1.5h1.4l-1.516-7.03h-1.258l-1.519,7.03h1.41Zm6.956,0v-0.98h-1.4v-6.05H767.1V1009h2.82Zm4.187,0v-0.98h-1.512v-2.16h1.071v-1h-1.071v-1.91h1.512v-0.98h-2.934V1009h2.934Z" transform="translate(-751 -997.969)"/>
</svg>
