<svg id="svg-icon-new" xmlns="http://www.w3.org/2000/svg" width="29" height="15.03" viewBox="0 0 29 15.03">
  <defs>
    <style>
      .cls-1 {
        fill: #68bf7b;
      }

      .cls-1, .cls-2 {
        fill-rule: evenodd;
      }

      .cls-2 {
        fill: #fff;
      }
    </style>
  </defs>
  <path id="bg" class="cls-1" d="M538.194,1246.87l-5.5,5.35a2.827,2.827,0,0,1-2.748.66,4.2,4.2,0,0,1-.946.12H514a4,4,0,0,1-4-4v-7a4,4,0,0,1,4-4h15a3.816,3.816,0,0,1,.9.11,2.811,2.811,0,0,1,2.795.64l5.5,5.35a2.614,2.614,0,0,1,.806,1.89C539,1246.67,538.731,1246.35,538.194,1246.87Z" transform="translate(-510 -1237.97)"/>
  <path id="New" class="cls-2" d="M516.37,1249v-3.9l1.539,3.9h0.984v-7.04h-1.18v3.68l-1.543-3.68h-1.023V1249h1.223Zm7.093,0v-0.98h-1.512v-2.16h1.07v-1h-1.07v-1.91h1.512v-0.98h-2.934V1249h2.934Zm3.159,0,0.578-4.6,0.59,4.6h1.215l0.984-7.03h-1.215l-0.457,4.63-0.59-4.63h-1.043l-0.6,4.65-0.438-4.65h-1.211l0.973,7.03h1.215Z" transform="translate(-510 -1237.97)"/>
</svg>
