<?xml version="1.0" encoding="utf-8"?>
<!-- Generator: Adobe Illustrator 16.0.0, SVG Export Plug-In . SVG Version: 6.00 Build 0)  -->
<!DOCTYPE svg PUBLIC "-//W3C//DTD SVG 1.1//EN" "http://www.w3.org/Graphics/SVG/1.1/DTD/svg11.dtd">
<svg version="1.1" xmlns="http://www.w3.org/2000/svg" xmlns:xlink="http://www.w3.org/1999/xlink" x="0px" y="0px"
	 width="16.001px" height="16px" viewBox="0 0 16.001 16" enable-background="new 0 0 16.001 16" xml:space="preserve">
<g id="Background_xA0_Image_1_">
</g>
<g id="Row_5_1_">
</g>
<g id="Row_4_1_">
	<g id="alpha">
		<g>
			<path fill="#212121" d="M14,12l-1.684-3.618l3.685-4.801l-1.646-1.162L11.28,6.424C10.227,4.649,8.238,2,5.502,2
				C2.465,2,0,4.687,0,8s2.465,6,5.502,6c2.39,0,4.261-2.023,5.4-3.722l1.288,2.686C12.378,13.332,13.043,14,14,14
				c1.215,0,2-0.947,2-2C16,11.869,14.203,12,14,12z M5.565,12c-1.824,0-3.542-1.791-3.542-4s1.718-4,3.542-4
				c2.488,0,4.237,4.053,4.237,4C9.803,7.99,8.085,12,5.565,12z"/>
		</g>
	</g>
</g>
<g id="Row_3_1_">
</g>
<g id="Row_2_1_">
</g>
<g id="Row_1_1_">
</g>
</svg>
