<?xml version="1.0" encoding="utf-8"?>
<!-- Generator: Adobe Illustrator 16.0.0, SVG Export Plug-In . SVG Version: 6.00 Build 0)  -->
<!DOCTYPE svg PUBLIC "-//W3C//DTD SVG 1.1//EN" "http://www.w3.org/Graphics/SVG/1.1/DTD/svg11.dtd">
<svg version="1.1" xmlns="http://www.w3.org/2000/svg" xmlns:xlink="http://www.w3.org/1999/xlink" x="0px" y="0px" width="16px"
	 height="16px" viewBox="0 0 16 16" enable-background="new 0 0 16 16" xml:space="preserve">
<g id="Background_xA0_Image_1_">
</g>
<g id="Row_5_1_">
</g>
<g id="Row_4_1_">
</g>
<g id="Row_3_1_">
	<g id="approximative">
		<g>
			<path fill-rule="evenodd" clip-rule="evenodd" fill="#212121" d="M15,10c0-0.001-1.791-1-4-1c-2.408,0-4.053,2-6,2
				c-2.209,0-4-0.905-4-1c-0.428-0.188-1-0.115-1,0.438S0.219,11.594,1,12c0,0.032,1.791,1,4,1c3.213,0,4.014-2,6-2
				c2.209,0,4,0.999,4,1c0.615,0.219,1,0.053,1-0.5S15.584,10.313,15,10z M1,6c0,0.032,1.791,1,4,1c3.213,0,4.014-2,6-2
				c2.209,0,4,0.999,4,1c0.615,0.219,1,0.053,1-0.5S15.584,4.313,15,4c0-0.001-1.791-1-4-1C8.592,3,6.947,5,5,5C2.791,5,1,4.095,1,4
				C0.572,3.813,0,3.885,0,4.438S0.219,5.594,1,6z"/>
		</g>
	</g>
</g>
<g id="Row_2_1_">
</g>
<g id="Row_1_1_">
</g>
</svg>
