<?xml version="1.0" encoding="utf-8"?>
<!-- Generator: Adobe Illustrator 16.0.0, SVG Export Plug-In . SVG Version: 6.00 Build 0)  -->
<!DOCTYPE svg PUBLIC "-//W3C//DTD SVG 1.1//EN" "http://www.w3.org/Graphics/SVG/1.1/DTD/svg11.dtd">
<svg version="1.1" xmlns="http://www.w3.org/2000/svg" xmlns:xlink="http://www.w3.org/1999/xlink" x="0px" y="0px" width="16px"
	 height="16px" viewBox="0 0 16 16" enable-background="new 0 0 16 16" xml:space="preserve">
<g id="Background_xA0_Image_1_">
</g>
<g id="Row_5_1_">
	<g id="atom">
		<g>
			<path fill="#212121" d="M14.718,4.358c-0.562-1.039-1.904-1.448-3.582-1.288C10.403,1.209,9.276,0,8,0
				C6.722,0,5.587,1.203,4.854,3.069C3.182,2.911,1.843,3.321,1.281,4.358C0.696,5.441,1.096,6.962,2.166,8.492
				c-1.069,1.536-1.471,3.064-0.885,4.149c0.609,1.125,2.137,1.506,4.013,1.227C6.006,15.186,6.953,16,8,16
				c1.048,0,1.998-0.813,2.712-2.131c1.873,0.278,3.398-0.104,4.006-1.228c0.586-1.083,0.186-2.603-0.885-4.133
				C14.903,6.972,15.305,5.443,14.718,4.358z M2.961,5.395c0.195-0.36,0.681-0.507,1.347-0.471C4.21,5.391,4.137,5.881,4.086,6.388
				C3.838,6.604,3.599,6.821,3.377,7.045C2.928,6.376,2.748,5.788,2.961,5.395z M2.961,11.605c-0.214-0.396-0.037-0.988,0.414-1.662
				c0.271,0.274,0.563,0.544,0.873,0.808c0.083,0.456,0.193,0.885,0.314,1.297C3.768,12.139,3.18,12.01,2.961,11.605z M8,2
				c0.496,0,0.945,0.411,1.294,1.311c-0.427,0.129-0.86,0.288-1.303,0.478C7.559,3.604,7.129,3.438,6.709,3.312
				C7.058,2.418,7.505,2,8,2z M8,14.243c-0.496,0-0.945-0.411-1.294-1.311c0.427-0.129,0.86-0.288,1.303-0.478
				c0.433,0.184,0.862,0.351,1.282,0.477C8.942,13.825,8.495,14.243,8,14.243z M9.914,9.665C9.613,9.879,9.3,10.09,8.97,10.293
				c-0.321,0.198-0.64,0.377-0.955,0.544c-0.325-0.169-0.651-0.339-0.984-0.544C6.701,10.09,6.388,9.88,6.088,9.666
				C6.036,9.134,6,8.582,6,8c0-0.216,0.018-0.415,0.025-0.624C6.344,7.147,6.679,6.923,7.03,6.707
				c0.32-0.197,0.638-0.376,0.952-0.543C8.31,6.335,8.636,6.501,8.97,6.707C9.323,6.925,9.66,7.15,9.979,7.38
				C9.986,7.587,10,7.787,10,8C10,8.582,9.967,9.136,9.914,9.665z M13.039,11.605c-0.218,0.402-0.803,0.532-1.594,0.444
				c0.12-0.408,0.218-0.844,0.301-1.293c0.31-0.263,0.604-0.526,0.875-0.8C13.069,10.625,13.251,11.213,13.039,11.605z
				 M12.621,7.063c-0.224-0.227-0.452-0.451-0.702-0.67c-0.052-0.512-0.134-0.999-0.232-1.469c0.669-0.037,1.156,0.108,1.353,0.471
				C13.254,5.791,13.075,6.386,12.621,7.063z"/>
		</g>
	</g>
</g>
<g id="Row_4_1_">
</g>
<g id="Row_3_1_">
</g>
<g id="Row_2_1_">
</g>
<g id="Row_1_1_">
</g>
</svg>
