<?xml version="1.0" encoding="utf-8"?>
<!-- Generator: Adobe Illustrator 16.0.0, SVG Export Plug-In . SVG Version: 6.00 Build 0)  -->
<!DOCTYPE svg PUBLIC "-//W3C//DTD SVG 1.1//EN" "http://www.w3.org/Graphics/SVG/1.1/DTD/svg11.dtd">
<svg version="1.1" xmlns="http://www.w3.org/2000/svg" xmlns:xlink="http://www.w3.org/1999/xlink" x="0px" y="0px" width="16px"
	 height="16px" viewBox="0 0 16 16" enable-background="new 0 0 16 16" xml:space="preserve">
<g id="Background_xA0_Image_1_">
</g>
<g id="Row_5_1_">
</g>
<g id="Row_4_1_">
	<g id="beta">
		<g>
			<path fill="#212121" d="M10.07,5.163C10.641,4.617,11,3.853,11,3c0-1.657-1.343-3-3-3C5.333,0,4,2,4,2v13c0,0.553,0.447,1,1,1
				s1-0.447,1-1v-2.931C6.631,12.674,7.589,13,9,13c2.209,0,4-1.791,4-4C13,7.164,11.756,5.634,10.07,5.163z M6,3
				c0-0.367,0.547-1,2-1c0.484,0,1,0.516,1,1c0,1.422-0.375,2-1,2H6V3z M9,11c-1.163,0-2.249-0.252-3-0.673V7h3c1.448,0,2,1.239,2,2
				C11,10.104,10.104,11,9,11z"/>
		</g>
	</g>
</g>
<g id="Row_3_1_">
</g>
<g id="Row_2_1_">
</g>
<g id="Row_1_1_">
</g>
</svg>
