<?xml version="1.0" encoding="utf-8"?>
<!-- Generator: Adobe Illustrator 16.0.0, SVG Export Plug-In . SVG Version: 6.00 Build 0)  -->
<!DOCTYPE svg PUBLIC "-//W3C//DTD SVG 1.1//EN" "http://www.w3.org/Graphics/SVG/1.1/DTD/svg11.dtd">
<svg version="1.1" xmlns="http://www.w3.org/2000/svg" xmlns:xlink="http://www.w3.org/1999/xlink" x="0px" y="0px" width="16px"
	 height="16px" viewBox="0 0 16 16" enable-background="new 0 0 16 16" xml:space="preserve">
<g id="Background_xA0_Image_1_">
</g>
<g id="Row_5_1_">
</g>
<g id="Row_4_1_">
</g>
<g id="Row_3_1_">
</g>
<g id="Row_2_1_">
	<g id="comet">
		<g>
			<path fill="#212121" d="M12.002,0C9.794,0,8.004,1.793,8.004,4.004c0,2.212,1.79,4.005,3.998,4.005S16,6.216,16,4.004
				C16,1.793,14.21,0,12.002,0z M12.002,6.007c-1.104,0-1.999-0.896-1.999-2.002c0-1.105,0.896-2.002,1.999-2.002
				c1.104,0,1.999,0.897,1.999,2.002C14.001,5.11,13.106,6.007,12.002,6.007z M7.69,9.303c-0.423-0.423-1.109-0.423-1.532,0
				l-3.834,3.841c-0.423,0.423-0.423,1.111,0,1.536c0.423,0.423,1.109,0.423,1.533,0l3.833-3.84
				C8.114,10.416,8.114,9.727,7.69,9.303z M4.145,10.183l2.585-2.604c0.356-0.359,0.356-0.941,0-1.301s-0.936-0.36-1.293,0
				L2.852,8.88c-0.355,0.36-0.935,0.36-1.292,0c-0.356-0.36-0.936-0.36-1.292,0s-0.356,0.942,0,1.302
				C1.338,11.261,3.073,11.261,4.145,10.183z M10.425,9.257l-2.615,2.59c-1.083,1.073-1.083,2.812,0,3.885
				c0.361,0.358,0.946,0.358,1.307,0c0.361-0.358,0.361-0.938,0-1.294c-0.36-0.358-0.36-0.938,0-1.295l2.615-2.589
				c0.361-0.358,0.361-0.938,0-1.295C11.37,8.9,10.785,8.9,10.425,9.257z"/>
		</g>
	</g>
</g>
<g id="Row_1_1_">
</g>
</svg>
