<?xml version="1.0" encoding="utf-8"?>
<!-- Generator: Adobe Illustrator 16.0.0, SVG Export Plug-In . SVG Version: 6.00 Build 0)  -->
<!DOCTYPE svg PUBLIC "-//W3C//DTD SVG 1.1//EN" "http://www.w3.org/Graphics/SVG/1.1/DTD/svg11.dtd">
<svg version="1.1" xmlns="http://www.w3.org/2000/svg" xmlns:xlink="http://www.w3.org/1999/xlink" x="0px" y="0px" width="16px"
	 height="16px" viewBox="0 0 16 16" enable-background="new 0 0 16 16" xml:space="preserve">
<g id="Background_xA0_Image_1_">
</g>
<g id="Row_5_1_">
	<g id="conical_flask">
		<g>
			<path fill="#212121" d="M15.861,14.521l0.013-0.007L11,5.741V2c0.553,0,1-0.447,1-1s-0.447-1-1-1H5C4.447,0,4,0.447,4,1
				s0.447,1,1,1v3.741l-4.874,8.773l0.013,0.007C0.059,14.666,0,14.823,0,15c0,0.553,0.447,1,1,1h14c0.553,0,1-0.447,1-1
				C16,14.823,15.941,14.666,15.861,14.521z M2.699,14l4.175-7.515L6.861,6.479C6.941,6.334,7,6.177,7,6V2h2v4
				c0,0.177,0.059,0.334,0.139,0.479L9.126,6.485L13.301,14H2.699z"/>
		</g>
	</g>
</g>
<g id="Row_4_1_">
</g>
<g id="Row_3_1_">
</g>
<g id="Row_2_1_">
</g>
<g id="Row_1_1_">
</g>
</svg>
