<?xml version="1.0" encoding="utf-8"?>
<!-- Generator: Adobe Illustrator 16.0.0, SVG Export Plug-In . SVG Version: 6.00 Build 0)  -->
<!DOCTYPE svg PUBLIC "-//W3C//DTD SVG 1.1//EN" "http://www.w3.org/Graphics/SVG/1.1/DTD/svg11.dtd">
<svg version="1.1" xmlns="http://www.w3.org/2000/svg" xmlns:xlink="http://www.w3.org/1999/xlink" x="0px" y="0px" width="16px"
	 height="16px" viewBox="0 0 16 16" enable-background="new 0 0 16 16" xml:space="preserve">
<g id="Background_xA0_Image_1_">
</g>
<g id="Row_5_1_">
</g>
<g id="Row_4_1_">
	<g id="delta">
		<g>
			<path fill="#212121" d="M14.918,14.606L14.918,14.606L8.922,0.612C8.921,0.611,8.921,0.61,8.921,0.609L8.919,0.606H8.918
				C8.766,0.25,8.412,0,8,0S7.234,0.25,7.081,0.606L7.079,0.609c0,0.001,0,0.002-0.001,0.003L1.081,14.606
				C1.029,14.728,1,14.86,1,15c0,0.553,0.447,1,1,1h12c0.553,0,1-0.447,1-1C15,14.86,14.971,14.728,14.918,14.606z M3.517,14
				L8,3.538L12.483,14H3.517z"/>
		</g>
	</g>
</g>
<g id="Row_3_1_">
</g>
<g id="Row_2_1_">
</g>
<g id="Row_1_1_">
</g>
</svg>
