<?xml version="1.0" encoding="utf-8"?>
<!-- Generator: Adobe Illustrator 16.0.0, SVG Export Plug-In . SVG Version: 6.00 Build 0)  -->
<!DOCTYPE svg PUBLIC "-//W3C//DTD SVG 1.1//EN" "http://www.w3.org/Graphics/SVG/1.1/DTD/svg11.dtd">
<svg version="1.1" xmlns="http://www.w3.org/2000/svg" xmlns:xlink="http://www.w3.org/1999/xlink" x="0px" y="0px" width="16px"
	 height="16px" viewBox="0 0 16 16" enable-background="new 0 0 16 16" xml:space="preserve">
<g id="Background_xA0_Image_1_">
</g>
<g id="Row_5_1_">
</g>
<g id="Row_4_1_">
</g>
<g id="Row_3_1_">
</g>
<g id="Row_2_1_">
</g>
<g id="Row_1_1_">
	<g id="diamond">
		<g>
			<path fill="#212121" d="M15.707,5.293l-3-3C12.526,2.112,12.276,2,12,2H4C3.724,2,3.474,2.112,3.293,2.293l-3,3
				C0.112,5.474,0,5.724,0,6s0.112,0.526,0.293,0.707l7,7C7.474,13.888,7.724,14,8,14s0.526-0.112,0.707-0.293l7-7
				C15.888,6.526,16,6.276,16,6S15.888,5.474,15.707,5.293z M7.193,4h1.613L9.14,5H6.86L7.193,4z M4.414,4H6.14L5.807,5H3.414
				L4.414,4z M3.414,7h2.352l0.94,3.292L3.414,7z M8,11.18L6.806,7h2.389L8,11.18z M9.294,10.292L10.234,7h2.352L9.294,10.292z
				 M10.193,5L9.86,4h1.726l1,1H10.193z"/>
		</g>
	</g>
</g>
</svg>
