<?xml version="1.0" encoding="utf-8"?>
<!-- Generator: Adobe Illustrator 16.0.0, SVG Export Plug-In . SVG Version: 6.00 Build 0)  -->
<!DOCTYPE svg PUBLIC "-//W3C//DTD SVG 1.1//EN" "http://www.w3.org/Graphics/SVG/1.1/DTD/svg11.dtd">
<svg version="1.1" xmlns="http://www.w3.org/2000/svg" xmlns:xlink="http://www.w3.org/1999/xlink" x="0px" y="0px" width="16px"
	 height="16px" viewBox="0 0 16 16" enable-background="new 0 0 16 16" xml:space="preserve">
<g id="Background_xA0_Image_1_">
</g>
<g id="Row_5_1_">
	<g id="florence_flask">
		<g>
			<path fill="#212121" d="M11,5.842V2c0.553,0,1-0.447,1-1s-0.447-1-1-1H5C4.447,0,4,0.447,4,1s0.447,1,1,1v3.842
				C3.213,6.877,2,8.786,2,11c0,2.09,1.07,3.926,2.69,5h6.619c1.62-1.074,2.69-2.91,2.69-5C14,8.786,12.787,6.877,11,5.842z
				 M10.62,14H5.38C4.541,13.267,4,12.201,4,11c0-1.473,0.806-2.745,1.991-3.439c0.003,0,0.006,0.003,0.009,0.002
				c0.459-0.188,1-0.447,1-1V2h2v4.563c0,0.553,0.572,0.844,1,1c0.003,0.001,0.006-0.002,0.009-0.002C11.194,8.255,12,9.527,12,11
				C12,12.201,11.459,13.267,10.62,14z"/>
		</g>
	</g>
</g>
<g id="Row_4_1_">
</g>
<g id="Row_3_1_">
</g>
<g id="Row_2_1_">
</g>
<g id="Row_1_1_">
</g>
</svg>
