<?xml version="1.0" encoding="utf-8"?>
<!-- Generator: Adobe Illustrator 16.0.0, SVG Export Plug-In . SVG Version: 6.00 Build 0)  -->
<!DOCTYPE svg PUBLIC "-//W3C//DTD SVG 1.1//EN" "http://www.w3.org/Graphics/SVG/1.1/DTD/svg11.dtd">
<svg version="1.1" xmlns="http://www.w3.org/2000/svg" xmlns:xlink="http://www.w3.org/1999/xlink" x="0px" y="0px" width="16px"
	 height="16px" viewBox="0 0 16 16" enable-background="new 0 0 16 16" xml:space="preserve">
<g id="Background_xA0_Image_1_">
</g>
<g id="Row_5_1_">
</g>
<g id="Row_4_1_">
	<g id="gamma">
		<g>
			<path fill="#212121" d="M12.962,0.966C12.943,0.43,12.532,0,12.019,0H3.475C3.212,0,3,0.224,3,0.5S3.212,1,3.475,1
				C4,1,4.424,1.447,4.424,2v13c0,0.553,0.424,1,0.949,1s0.949-0.447,0.949-1V2h4.747c0.524,0,0.949,0.447,0.949,1
				c0,0.276,0.212,0.5,0.475,0.5s0.475-0.224,0.475-0.5V1C13.02,0.996,13.003,0.981,12.962,0.966z"/>
		</g>
	</g>
</g>
<g id="Row_3_1_">
</g>
<g id="Row_2_1_">
</g>
<g id="Row_1_1_">
</g>
</svg>
