<?xml version="1.0" encoding="utf-8"?>
<!-- Generator: Adobe Illustrator 16.0.0, SVG Export Plug-In . SVG Version: 6.00 Build 0)  -->
<!DOCTYPE svg PUBLIC "-//W3C//DTD SVG 1.1//EN" "http://www.w3.org/Graphics/SVG/1.1/DTD/svg11.dtd">
<svg version="1.1" xmlns="http://www.w3.org/2000/svg" xmlns:xlink="http://www.w3.org/1999/xlink" x="0px" y="0px" width="16px"
	 height="16px" viewBox="0 0 16 16" enable-background="new 0 0 16 16" xml:space="preserve">
<g id="Background_xA0_Image_1_">
</g>
<g id="Row_5_1_">
</g>
<g id="Row_4_1_">
	<g id="glasses">
		<g>
			<path fill="#212121" d="M15.121,0.879C14.578,0.336,13.828,0,13,0h-0.5C12.224,0,12,0.224,12,0.5V1c0,0.553,0.447,1,1,1
				s1,0.447,1,1v7.817C13.469,10.325,12.783,10,12,10c-1.305,0-2.403,0.838-2.816,2H6.816C6.403,10.838,5.305,10,4,10
				c-0.783,0-1.469,0.325-2,0.817V3c0-0.553,0.447-1,1-1s1-0.447,1-1V0.5C4,0.224,3.776,0,3.5,0H3C1.343,0,0,1.343,0,3v10
				c0,0.553,0.447,1,1,1h0.184C1.597,15.162,2.695,16,4,16c1.317,0,2.424-0.854,2.827-2.035C6.886,13.976,6.938,14,7,14h2
				c0.062,0,0.114-0.024,0.173-0.035C9.576,15.146,10.683,16,12,16c1.305,0,2.403-0.838,2.816-2H15c0.553,0,1-0.447,1-1V3
				C16,2.172,15.664,1.422,15.121,0.879z M4,14c-0.553,0-1-0.447-1-1s0.447-1,1-1s1,0.447,1,1S4.553,14,4,14z M12,14
				c-0.553,0-1-0.447-1-1s0.447-1,1-1s1,0.447,1,1S12.553,14,12,14z"/>
		</g>
	</g>
</g>
<g id="Row_3_1_">
</g>
<g id="Row_2_1_">
</g>
<g id="Row_1_1_">
</g>
</svg>
