<?xml version="1.0" encoding="utf-8"?>
<!-- Generator: Adobe Illustrator 16.0.0, SVG Export Plug-In . SVG Version: 6.00 Build 0)  -->
<!DOCTYPE svg PUBLIC "-//W3C//DTD SVG 1.1//EN" "http://www.w3.org/Graphics/SVG/1.1/DTD/svg11.dtd">
<svg version="1.1" xmlns="http://www.w3.org/2000/svg" xmlns:xlink="http://www.w3.org/1999/xlink" x="0px" y="0px" width="16px"
	 height="16px" viewBox="0 0 16 16" enable-background="new 0 0 16 16" xml:space="preserve">
<g id="Background_xA0_Image_1_">
</g>
<g id="Row_5_1_">
</g>
<g id="Row_4_1_">
</g>
<g id="Row_3_1_">
	<g id="infinity">
		<g>
			<path fill-rule="evenodd" clip-rule="evenodd" fill="#212121" d="M12,4C9.935,4,9.012,5.835,8,7C6.988,5.834,6.071,4,4,4
				C1.791,4,0,5.791,0,8s1.791,4,4,4c2.034,0,2.988-1.835,4-3c1.012,1.166,1.897,3,4,3c2.209,0,4-1.791,4-4S14.209,4,12,4z M4,10
				c-1.104,0-2-0.896-2-2s0.896-2,2-2s2.469,1.864,2.469,2C6.469,8.073,5.104,10,4,10z M12,10c-1.104,0-2.5-1.864-2.5-2
				c0-0.073,1.396-2,2.5-2s2,0.896,2,2S13.104,10,12,10z"/>
		</g>
	</g>
</g>
<g id="Row_2_1_">
</g>
<g id="Row_1_1_">
</g>
</svg>
