<?xml version="1.0" encoding="utf-8"?>
<!-- Generator: Adobe Illustrator 16.0.0, SVG Export Plug-In . SVG Version: 6.00 Build 0)  -->
<!DOCTYPE svg PUBLIC "-//W3C//DTD SVG 1.1//EN" "http://www.w3.org/Graphics/SVG/1.1/DTD/svg11.dtd">
<svg version="1.1" xmlns="http://www.w3.org/2000/svg" xmlns:xlink="http://www.w3.org/1999/xlink" x="0px" y="0px" width="16px"
	 height="16px" viewBox="0 0 16 16" enable-background="new 0 0 16 16" xml:space="preserve">
<g id="Background_xA0_Image_1_">
</g>
<g id="Row_5_1_">
</g>
<g id="Row_4_1_">
	<g id="lambda">
		<g>
			<path fill="#212121" d="M13.933,14.667l0.009-0.003l-5-14L8.933,0.667C8.795,0.28,8.435,0,8,0C7.447,0,7,0.447,7,1
				c0,0.118,0.029,0.228,0.067,0.333L7.059,1.336l0.689,1.932L2.105,14.553l0.009,0.005C2.047,14.692,2,14.839,2,15
				c0,0.553,0.447,1,1,1c0.391,0,0.721-0.23,0.886-0.558l0.009,0.005l4.785-9.57l3.379,9.459l0.009-0.003
				C12.205,15.72,12.565,16,13,16c0.553,0,1-0.447,1-1C14,14.882,13.971,14.772,13.933,14.667z"/>
		</g>
	</g>
</g>
<g id="Row_3_1_">
</g>
<g id="Row_2_1_">
</g>
<g id="Row_1_1_">
</g>
</svg>
