<?xml version="1.0" encoding="utf-8"?>
<!-- Generator: Adobe Illustrator 16.0.0, SVG Export Plug-In . SVG Version: 6.00 Build 0)  -->
<!DOCTYPE svg PUBLIC "-//W3C//DTD SVG 1.1//EN" "http://www.w3.org/Graphics/SVG/1.1/DTD/svg11.dtd">
<svg version="1.1" xmlns="http://www.w3.org/2000/svg" xmlns:xlink="http://www.w3.org/1999/xlink" x="0px" y="0px" width="16px"
	 height="16px" viewBox="0 0 16 16" enable-background="new 0 0 16 16" xml:space="preserve">
<g id="Background_xA0_Image_1_">
</g>
<g id="Row_5_1_">
</g>
<g id="Row_4_1_">
</g>
<g id="Row_3_1_">
</g>
<g id="Row_2_1_">
	<g id="magnet">
		<g>
			<path fill="#212121" d="M14,1h-4v2h4V1z M3,4h2V3h1V1H5V0H3v1H2v2h1V4z M14,5h-4C9.447,5,9,5.447,9,6v3c0,0.553-0.447,1-1,1
				S7,9.553,7,9V6c0-0.553-0.447-1-1-1H2C1.447,5,1,5.447,1,6v3c0,3.866,3.134,7,7,7s7-3.134,7-7V6C15,5.447,14.553,5,14,5z M13,9
				c0,2.762-2.238,5-5,5s-5-2.238-5-5V7h2v2c0,1.657,1.343,3,3,3s3-1.343,3-3V7h2V9z"/>
		</g>
	</g>
</g>
<g id="Row_1_1_">
</g>
</svg>
