<?xml version="1.0" encoding="utf-8"?>
<!-- Generator: Adobe Illustrator 16.0.0, SVG Export Plug-In . SVG Version: 6.00 Build 0)  -->
<!DOCTYPE svg PUBLIC "-//W3C//DTD SVG 1.1//EN" "http://www.w3.org/Graphics/SVG/1.1/DTD/svg11.dtd">
<svg version="1.1" xmlns="http://www.w3.org/2000/svg" xmlns:xlink="http://www.w3.org/1999/xlink" x="0px" y="0px" width="16px"
	 height="16px" viewBox="0 0 16 16" enable-background="new 0 0 16 16" xml:space="preserve">
<g id="Background_xA0_Image_1_">
</g>
<g id="Row_5_1_">
</g>
<g id="Row_4_1_">
	<g id="molecule_links">
		<g>
			<path fill="#212121" d="M4.997,4.003c1.105,0,2.001-0.896,2.001-2.001C6.998,0.896,6.103,0,4.997,0c-1.104,0-2,0.896-2,2.002
				C2.997,3.106,3.893,4.003,4.997,4.003z M9.998,10.008H8.431l-2.458-1.88c0.006-0.042,0.025-0.079,0.025-0.122V6.005
				c0-0.554-0.448-1.001-1.001-1.001s-1,0.447-1,1.001v1.378L0,10.438L1.717,16h5.561l1.232-3.991h1.488
				c0.554,0,1.001-0.447,1.001-1.001C10.999,10.455,10.552,10.008,9.998,10.008z M5.791,14.004H3.203l-0.892-2.809l2.186-1.691
				l2.187,1.691L5.791,14.004z M14,8.006c-1.105,0-2.001,0.896-2.001,2.002c0,1.104,0.896,2.001,2.001,2.001
				c1.104,0,2-0.896,2-2.001C16,8.902,15.104,8.006,14,8.006z"/>
		</g>
	</g>
</g>
<g id="Row_3_1_">
</g>
<g id="Row_2_1_">
</g>
<g id="Row_1_1_">
</g>
</svg>
