<?xml version="1.0" encoding="utf-8"?>
<!-- Generator: Adobe Illustrator 16.0.0, SVG Export Plug-In . SVG Version: 6.00 Build 0)  -->
<!DOCTYPE svg PUBLIC "-//W3C//DTD SVG 1.1//EN" "http://www.w3.org/Graphics/SVG/1.1/DTD/svg11.dtd">
<svg version="1.1" xmlns="http://www.w3.org/2000/svg" xmlns:xlink="http://www.w3.org/1999/xlink" x="0px" y="0px" width="16px"
	 height="16px" viewBox="0 0 16 16" enable-background="new 0 0 16 16" xml:space="preserve">
<g id="Background_xA0_Image_1_">
</g>
<g id="Row_5_1_">
</g>
<g id="Row_4_1_">
</g>
<g id="Row_3_1_">
</g>
<g id="Row_2_1_">
	<g id="moon_1_">
		<g>
			<path fill-rule="evenodd" clip-rule="evenodd" fill="#212121" d="M5,7C4.447,7,4,7.447,4,8s0.447,1,1,1s1-0.447,1-1S5.553,7,5,7z
				 M11,5.5C11,4.119,9.881,3,8.5,3S6,4.119,6,5.5S7.119,8,8.5,8S11,6.881,11,5.5z M8.5,6C8.224,6,8,5.776,8,5.5S8.224,5,8.5,5
				S9,5.224,9,5.5S8.776,6,8.5,6z M8,0C3.582,0,0,3.582,0,8s3.582,8,8,8s8-3.582,8-8S12.418,0,8,0z M8,14c-3.313,0-6-2.687-6-6
				s2.687-6,6-6s6,2.687,6,6S11.313,14,8,14z M11,9c-0.553,0-1,0.447-1,1s0.447,1,1,1s1-0.447,1-1S11.553,9,11,9z"/>
		</g>
	</g>
</g>
<g id="Row_1_1_">
</g>
</svg>
