<?xml version="1.0" encoding="utf-8"?>
<!-- Generator: Adobe Illustrator 16.0.0, SVG Export Plug-In . SVG Version: 6.00 Build 0)  -->
<!DOCTYPE svg PUBLIC "-//W3C//DTD SVG 1.1//EN" "http://www.w3.org/Graphics/SVG/1.1/DTD/svg11.dtd">
<svg version="1.1" xmlns="http://www.w3.org/2000/svg" xmlns:xlink="http://www.w3.org/1999/xlink" x="0px" y="0px" width="16px"
	 height="16px" viewBox="0 0 16 16" enable-background="new 0 0 16 16" xml:space="preserve">
<g id="Background_xA0_Image_1_">
</g>
<g id="Row_5_1_">
</g>
<g id="Row_4_1_">
	<g id="mu">
		<g>
			<path fill="#212121" d="M12,0c-0.553,0-1,0.447-1,1v5c0,1.657-1.343,3-3,3S5,7.657,5,6V1c0-0.553-0.447-1-1-1S3,0.447,3,1v14
				c0,0.553,0.447,1,1,1s1-0.447,1-1V9.978C5.838,10.61,6.869,11,8,11s2.162-0.39,3-1.022V11c0,0.553,0.447,1,1,1s1-0.447,1-1V1
				C13,0.447,12.553,0,12,0z"/>
		</g>
	</g>
</g>
<g id="Row_3_1_">
</g>
<g id="Row_2_1_">
</g>
<g id="Row_1_1_">
</g>
</svg>
