<?xml version="1.0" encoding="utf-8"?>
<!-- Generator: Adobe Illustrator 16.0.0, SVG Export Plug-In . SVG Version: 6.00 Build 0)  -->
<!DOCTYPE svg PUBLIC "-//W3C//DTD SVG 1.1//EN" "http://www.w3.org/Graphics/SVG/1.1/DTD/svg11.dtd">
<svg version="1.1" xmlns="http://www.w3.org/2000/svg" xmlns:xlink="http://www.w3.org/1999/xlink" x="0px" y="0px" width="16px"
	 height="16px" viewBox="0 0 16 16" enable-background="new 0 0 16 16" xml:space="preserve">
<g id="Background_xA0_Image_1_">
</g>
<g id="Row_5_1_">
</g>
<g id="Row_4_1_">
</g>
<g id="Row_3_1_">
	<g id="omega">
		<g>
			<path fill="#212121" d="M15,13h-1.95C14.249,11.66,15,9.87,15,8c0-3.866-3.134-7-7-7S1,4.134,1,8c0,1.87,0.751,3.66,1.95,5H1
				c-0.553,0-1,0.447-1,1s0.447,1,1,1h5c0.553,0,1-0.447,1-1s-0.447-1-1-1c-1.765-0.772-3-2.951-3-5c0-2.762,2.238-5,5-5
				s5,2.238,5,5c0,2.049-1.235,4.228-3,5c-0.553,0-1,0.447-1,1s0.447,1,1,1h5c0.553,0,1-0.447,1-1S15.553,13,15,13z"/>
		</g>
	</g>
</g>
<g id="Row_2_1_">
</g>
<g id="Row_1_1_">
</g>
</svg>
