<?xml version="1.0" encoding="utf-8"?>
<!-- Generator: Adobe Illustrator 16.0.0, SVG Export Plug-In . SVG Version: 6.00 Build 0)  -->
<!DOCTYPE svg PUBLIC "-//W3C//DTD SVG 1.1//EN" "http://www.w3.org/Graphics/SVG/1.1/DTD/svg11.dtd">
<svg version="1.1" xmlns="http://www.w3.org/2000/svg" xmlns:xlink="http://www.w3.org/1999/xlink" x="0px" y="0px" width="16px"
	 height="16px" viewBox="0 0 16 16" enable-background="new 0 0 16 16" xml:space="preserve">
<g id="Background_xA0_Image_1_">
</g>
<g id="Row_5_1_">
	<g id="paper">
		<g>
			<path fill-rule="evenodd" clip-rule="evenodd" fill="#212121" d="M13.707,4.293l-4-4C9.707,0.293,9.546,0,9,0H3
				C2.447,0,2,0.447,2,1v14c0,0.553,0.447,1,1,1h10c0.553,0,1-0.447,1-1V5C14,4.454,13.707,4.293,13.707,4.293z M9.719,2.719
				l1.5,1.531h-1.5V2.719z M12,14H4V2h4v3c0,0.553,0.447,1,1,1h3V14z M10.5,11h-2C8.224,11,8,11.224,8,11.5S8.224,12,8.5,12h2
				c0.276,0,0.5-0.224,0.5-0.5S10.776,11,10.5,11z M9,9.5C9,9.224,8.776,9,8.5,9h-3C5.224,9,5,9.224,5,9.5S5.224,10,5.5,10h3
				C8.776,10,9,9.776,9,9.5z M5,7.5C5,7.776,5.224,8,5.5,8h5C10.776,8,11,7.776,11,7.5S10.776,7,10.5,7h-5C5.224,7,5,7.224,5,7.5z"
				/>
		</g>
	</g>
</g>
<g id="Row_4_1_">
</g>
<g id="Row_3_1_">
</g>
<g id="Row_2_1_">
</g>
<g id="Row_1_1_">
</g>
</svg>
