<?xml version="1.0" encoding="utf-8"?>
<!-- Generator: Adobe Illustrator 16.0.0, SVG Export Plug-In . SVG Version: 6.00 Build 0)  -->
<!DOCTYPE svg PUBLIC "-//W3C//DTD SVG 1.1//EN" "http://www.w3.org/Graphics/SVG/1.1/DTD/svg11.dtd">
<svg version="1.1" xmlns="http://www.w3.org/2000/svg" xmlns:xlink="http://www.w3.org/1999/xlink" x="0px" y="0px" width="16px"
	 height="16px" viewBox="0 0 16 16" enable-background="new 0 0 16 16" xml:space="preserve">
<g id="Background_xA0_Image_1_">
</g>
<g id="Row_5_1_">
</g>
<g id="Row_4_1_">
</g>
<g id="Row_3_1_">
	<g id="radical">
		<g>
			<path fill="#212121" d="M15,0h-3c-0.456,0-0.825,0.312-0.945,0.729l-0.017-0.004l-3.48,12.182L3.769,8.359L3.758,8.368
				C3.574,8.148,3.309,8,3,8H1C0.447,8,0,8.447,0,9s0.447,1,1,1h1.531l4.7,5.641l0.011-0.009C7.426,15.852,7.691,16,8,16
				c0.456,0,0.825-0.312,0.945-0.729l0.017,0.004L12.754,2H15c0.553,0,1-0.447,1-1S15.553,0,15,0z"/>
		</g>
	</g>
</g>
<g id="Row_2_1_">
</g>
<g id="Row_1_1_">
</g>
</svg>
