<?xml version="1.0" encoding="utf-8"?>
<!-- Generator: Adobe Illustrator 16.0.0, SVG Export Plug-In . SVG Version: 6.00 Build 0)  -->
<!DOCTYPE svg PUBLIC "-//W3C//DTD SVG 1.1//EN" "http://www.w3.org/Graphics/SVG/1.1/DTD/svg11.dtd">
<svg version="1.1" xmlns="http://www.w3.org/2000/svg" xmlns:xlink="http://www.w3.org/1999/xlink" x="0px" y="0px" width="16px"
	 height="16px" viewBox="0 0 16 16" enable-background="new 0 0 16 16" xml:space="preserve">
<g id="Background_xA0_Image_1_">
</g>
<g id="Row_5_1_">
</g>
<g id="Row_4_1_">
</g>
<g id="Row_3_1_">
</g>
<g id="Row_2_1_">
	<g id="radio">
		<g>
			<path fill="#212121" d="M13.007,3.007c0.553,0,1.001-0.447,1.001-1s-0.448-1-1.001-1s-1.001,0.447-1.001,1
				S12.454,3.007,13.007,3.007z M12.006,14.001H9.821c-0.413-1.162-1.513-1.999-2.818-1.999c-1.305,0-2.404,0.837-2.817,1.999H2
				c-0.553,0-1,0.447-1,1s0.447,1,1,1h10.006c0.554,0,1.001-0.447,1.001-1S12.56,14.001,12.006,14.001z M6.003,15
				c0-0.552,0.447-1,1-1c0.554,0,1.001,0.447,1.001,1H6.003z M14.693,7.665l-7.39-7.36c-0.409-0.406-1.07-0.406-1.478,0
				C3.692,2.428,3.421,5.699,5.002,8.12v1.884c0,0.552,0.447,1,1.001,1c0.541,0,0.976-0.432,0.993-0.967
				c2.416,1.471,5.607,1.183,7.697-0.899C15.102,8.73,15.102,8.071,14.693,7.665z M7.304,7.665C6.109,6.476,5.694,3.38,6.564,2.512
				l5.912,5.889C11.605,9.268,8.497,8.854,7.304,7.665z"/>
		</g>
	</g>
</g>
<g id="Row_1_1_">
</g>
</svg>
