<?xml version="1.0" encoding="utf-8"?>
<!-- Generator: Adobe Illustrator 16.0.0, SVG Export Plug-In . SVG Version: 6.00 Build 0)  -->
<!DOCTYPE svg PUBLIC "-//W3C//DTD SVG 1.1//EN" "http://www.w3.org/Graphics/SVG/1.1/DTD/svg11.dtd">
<svg version="1.1" xmlns="http://www.w3.org/2000/svg" xmlns:xlink="http://www.w3.org/1999/xlink" x="0px" y="0px"
	 width="16.007px" height="16.007px" viewBox="0 0 16.007 16.007" enable-background="new 0 0 16.007 16.007" xml:space="preserve">
<g id="Background_xA0_Image_1_">
</g>
<g id="Row_5_1_">
	<g id="satelite">
		<g>
			<path fill="#212121" d="M3.866,6.435c0.393-0.395,0.393-1.033,0-1.428l-2.141-2.14c-0.393-0.395-1.033-0.395-1.426,0
				c-0.395,0.395-0.395,1.033,0,1.428l2.14,2.14C2.833,6.829,3.472,6.829,3.866,6.435z M15.004,2.003c0.552,0,1-0.447,1-1
				s-0.447-0.999-1-0.999c-0.553,0-1,0.446-1,0.999S14.451,2.003,15.004,2.003z M9.287,9.573L6.433,6.721
				c-0.394-0.394-1.033-0.394-1.427,0L2.153,9.573c-0.395,0.395-0.395,1.033,0,1.428l2.854,2.853c0.394,0.395,1.033,0.395,1.427,0
				l2.854-2.853C9.68,10.606,9.68,9.968,9.287,9.573z M5.72,11.714l-1.427-1.427L5.72,8.86l1.426,1.427L5.72,11.714z M11,12.141
				c-0.394-0.394-1.033-0.394-1.427,0c-0.395,0.395-0.395,1.033,0,1.428l2.14,2.14c0.394,0.394,1.033,0.394,1.427,0
				c0.394-0.394,0.394-1.033,0-1.427L11,12.141z M10,0.3c-0.394-0.394-1.033-0.394-1.427,0c-1.97,1.971-1.97,5.164,0,7.134
				c1.97,1.97,5.164,1.97,7.133,0c0.395-0.395,0.395-1.032,0-1.427L10,0.3z M10,6.007C8.818,4.824,8.728,2.998,9.287,2.439
				l4.28,4.281C13.076,7.211,11.181,7.188,10,6.007z"/>
		</g>
	</g>
</g>
<g id="Row_4_1_">
</g>
<g id="Row_3_1_">
</g>
<g id="Row_2_1_">
</g>
<g id="Row_1_1_">
</g>
</svg>
