<?xml version="1.0" encoding="utf-8"?>
<!-- Generator: Adobe Illustrator 16.0.0, SVG Export Plug-In . SVG Version: 6.00 Build 0)  -->
<!DOCTYPE svg PUBLIC "-//W3C//DTD SVG 1.1//EN" "http://www.w3.org/Graphics/SVG/1.1/DTD/svg11.dtd">
<svg version="1.1" xmlns="http://www.w3.org/2000/svg" xmlns:xlink="http://www.w3.org/1999/xlink" x="0px" y="0px" width="16px"
	 height="16px" viewBox="0 0 16 16" enable-background="new 0 0 16 16" xml:space="preserve">
<g id="Background_xA0_Image_1_">
</g>
<g id="Row_5_1_">
</g>
<g id="Row_4_1_">
</g>
<g id="Row_3_1_">
</g>
<g id="Row_2_1_">
</g>
<g id="Row_1_1_">
	<g id="space_suit_helmet">
		<g>
			<path fill="#212121" d="M15,14V7c0-3.866-3.134-7-7-7S1,3.134,1,7v7c-0.553,0-1,0.447-1,1s0.447,1,1,1h14c0.553,0,1-0.447,1-1
				S15.553,14,15,14z M13,14H3V7c0-2.762,2.238-5,5-5c2.049,0,3.806,1.235,4.578,3H8C6.343,5,5,6.343,5,8s1.343,3,3,3l5,0.833V14z
				 M13,9.833L8,9C7.447,9,7,8.553,7,8s0.447-1,1-1h5V9.833z"/>
		</g>
	</g>
</g>
</svg>
