<?xml version="1.0" encoding="utf-8"?>
<!-- Generator: Adobe Illustrator 16.0.0, SVG Export Plug-In . SVG Version: 6.00 Build 0)  -->
<!DOCTYPE svg PUBLIC "-//W3C//DTD SVG 1.1//EN" "http://www.w3.org/Graphics/SVG/1.1/DTD/svg11.dtd">
<svg version="1.1" xmlns="http://www.w3.org/2000/svg" xmlns:xlink="http://www.w3.org/1999/xlink" x="0px" y="0px" width="16px"
	 height="16px" viewBox="0 0 16 16" enable-background="new 0 0 16 16" xml:space="preserve">
<g id="Background_xA0_Image_1_">
</g>
<g id="Row_5_1_">
</g>
<g id="Row_4_1_">
</g>
<g id="Row_3_1_">
	<g id="stundent_cap">
		<g>
			<path fill="#212121" d="M15.391,5.079c-0.001,0-0.002,0-0.003-0.001L8.394,2.081C8.394,2.081,8.287,2,8,2
				C7.86,2,7.728,2.029,7.606,2.081L0.612,5.078C0.611,5.079,0.61,5.079,0.609,5.079C0.609,5.079,0,5.227,0,6
				c0,0.371,0.211,0.682,0.512,0.854L2,7.723V11c0,1.657,2.687,3,6,3s6-1.343,6-3V7.723l1.488-0.868C15.789,6.682,16,6.371,16,6
				C16,5.258,15.391,5.079,15.391,5.079z M12,11c0,0.553-1.791,1-4,1s-4-0.447-4-1V8.866l3.512,1.988C7.658,10.938,7.819,11,8,11
				c0.362,0,0.496-0.132,0.496-0.132L12,8.866V11z M8,9L3,6l5-2l5,2L8,9z"/>
		</g>
	</g>
</g>
<g id="Row_2_1_">
</g>
<g id="Row_1_1_">
</g>
</svg>
