<?xml version="1.0" encoding="utf-8"?>
<!-- Generator: Adobe Illustrator 16.0.0, SVG Export Plug-In . SVG Version: 6.00 Build 0)  -->
<!DOCTYPE svg PUBLIC "-//W3C//DTD SVG 1.1//EN" "http://www.w3.org/Graphics/SVG/1.1/DTD/svg11.dtd">
<svg version="1.1" xmlns="http://www.w3.org/2000/svg" xmlns:xlink="http://www.w3.org/1999/xlink" x="0px" y="0px" width="16px"
	 height="16px" viewBox="0 0 16 16" enable-background="new 0 0 16 16" xml:space="preserve">
<g id="Background_xA0_Image_1_">
</g>
<g id="Row_5_1_">
</g>
<g id="Row_4_1_">
	<g id="thermometer">
		<g>
			<path fill="#212121" d="M11,9.383V3c0-1.657-1.343-3-3-3S5,1.343,5,3v6.383c-0.617,0.7-1,1.609-1,2.617c0,2.209,1.791,4,4,4
				s4-1.791,4-4C12,10.992,11.617,10.083,11,9.383z M7,3c0-0.553,0.447-1,1-1s1,0.447,1,1v2H7V3z M8,14c-1.104,0-2-0.896-2-2
				c0-0.738,0.404-1.376,1-1.723V6h2v4.277c0.596,0.347,1,0.984,1,1.723C10,13.104,9.104,14,8,14z"/>
		</g>
	</g>
</g>
<g id="Row_3_1_">
</g>
<g id="Row_2_1_">
</g>
<g id="Row_1_1_">
</g>
</svg>
