<svg id="svg-icon-hit" xmlns="http://www.w3.org/2000/svg" width="29" height="15.031" viewBox="0 0 29 15.031">
  <defs>
    <style>
      .cls-1 {
        fill: #ffc12b;
      }

      .cls-1, .cls-2 {
        fill-rule: evenodd;
      }

      .cls-2 {
        fill: #fff;
      }
    </style>
  </defs>
  <path id="bg" class="cls-1" d="M298.194,1006.87l-5.5,5.35a2.827,2.827,0,0,1-2.748.66,4.2,4.2,0,0,1-.946.12H274a4,4,0,0,1-4-4v-7a4,4,0,0,1,4-4h15a3.979,3.979,0,0,1,.9.11,2.808,2.808,0,0,1,2.8.643l5.5,5.347a2.614,2.614,0,0,1,.806,1.89C299,1006.67,298.731,1006.35,298.194,1006.87Z" transform="translate(-270 -997.969)"/>
  <path id="Hit" class="cls-2" d="M278.17,1009v-3.14h1.02V1009h1.43v-7.03h-1.43v2.88h-1.02v-2.88h-1.421V1009h1.421Zm5.507,0v-7.03h-1.421V1009h1.421Zm3.726,0v-5.97h1.012v-1.06H284.95v1.06h1.031V1009H287.4Z" transform="translate(-270 -997.969)"/>
</svg>
