<?xml version="1.0" encoding="utf-8"?>
<!-- Generator: Adobe Illustrator 16.0.0, SVG Export Plug-In . SVG Version: 6.00 Build 0)  -->
<!DOCTYPE svg PUBLIC "-//W3C//DTD SVG 1.1//EN" "http://www.w3.org/Graphics/SVG/1.1/DTD/svg11.dtd">
<svg version="1.1" xmlns="http://www.w3.org/2000/svg" xmlns:xlink="http://www.w3.org/1999/xlink" x="0px" y="0px" width="16px"
	 height="16px" viewBox="0 0 16 16" enable-background="new 0 0 16 16" xml:space="preserve">
<g id="Background_xA0_Image_1_">
</g>
<g id="Row_5_1_">
</g>
<g id="Row_4_1_">
</g>
<g id="Row_3_1_">
</g>
<g id="Row_2_1_">
	<g id="airplane">
		<g>
			<path fill="#212121" d="M12.126,5.269l3.481-3.482c0.384-0.384,0.384-1.008,0-1.393c-0.385-0.385-1.008-0.385-1.393,0
				l-3.481,3.481L2.68,0L1.983,0.697c-0.385,0.384-0.385,1.008,0,1.393l5.269,5.267l-3.481,3.481L2.378,9.446
				c-0.385-0.385-1.009-0.385-1.394,0l-0.696,0.696c-0.384,0.385-0.384,1.008,0,1.393c0,0,2.708,1.454,2.718,1.464
				c0.05,0.05,1.46,2.713,1.46,2.713c0.386,0.385,1.008,0.385,1.394,0l0.695-0.696c0.385-0.384,0.385-1.008,0-1.392L5.162,12.23
				l3.481-3.48l5.268,5.267c0.385,0.384,1.008,0.384,1.393,0L16,13.32L12.126,5.269z M6.296,3.713l4.085,1.911l1.91,4.084
				L6.296,3.713z"/>
		</g>
	</g>
</g>
<g id="Row_1_1_">
</g>
</svg>
