<?xml version="1.0" encoding="utf-8"?>
<!-- Generator: Adobe Illustrator 16.0.0, SVG Export Plug-In . SVG Version: 6.00 Build 0)  -->
<!DOCTYPE svg PUBLIC "-//W3C//DTD SVG 1.1//EN" "http://www.w3.org/Graphics/SVG/1.1/DTD/svg11.dtd">
<svg version="1.1" xmlns="http://www.w3.org/2000/svg" xmlns:xlink="http://www.w3.org/1999/xlink" x="0px" y="0px" width="16px"
	 height="16px" viewBox="0 0 16 16" enable-background="new 0 0 16 16" xml:space="preserve">
<g id="Background_xA0_Image_1_">
</g>
<g id="Row_5_1_">
</g>
<g id="Row_4_1_">
</g>
<g id="Row_3_1_">
</g>
<g id="Row_2_1_">
</g>
<g id="Row_1_1_">
	<g id="bicycle">
		<g>
			<path fill="#212121" d="M3,8c-1.657,0-3,1.343-3,3s1.343,3,3,3s3-1.343,3-3S4.657,8,3,8z M3,12c-0.553,0-1-0.447-1-1s0.447-1,1-1
				s1,0.447,1,1S3.553,12,3,12z M13,8c-1.657,0-3,1.343-3,3s1.343,3,3,3s3-1.343,3-3S14.657,8,13,8z M13,12c-0.553,0-1-0.447-1-1
				s0.447-1,1-1s1,0.447,1,1S13.553,12,13,12z M8.832,8.445L7.868,7H11c0.276,0,0.526-0.112,0.707-0.293l2-2
				C13.888,4.526,14,4.276,14,4c0-0.553-0.447-1-1-1c-0.276,0-0.526,0.112-0.707,0.293L10.586,5H6.535L5.868,4H6
				c0.553,0,1-0.447,1-1S6.553,2,6,2H4C3.447,2,3,2.447,3,3c0,0.205,0.077,0.386,0.184,0.545l-0.016,0.01l4,6l0.016-0.01
				C7.362,9.813,7.653,10,8,10c0.553,0,1-0.447,1-1c0-0.205-0.077-0.386-0.184-0.545L8.832,8.445z"/>
		</g>
	</g>
</g>
</svg>
