<?xml version="1.0" encoding="utf-8"?>
<!-- Generator: Adobe Illustrator 16.0.0, SVG Export Plug-In . SVG Version: 6.00 Build 0)  -->
<!DOCTYPE svg PUBLIC "-//W3C//DTD SVG 1.1//EN" "http://www.w3.org/Graphics/SVG/1.1/DTD/svg11.dtd">
<svg version="1.1" xmlns="http://www.w3.org/2000/svg" xmlns:xlink="http://www.w3.org/1999/xlink" x="0px" y="0px" width="16px"
	 height="16px" viewBox="0 0 16 16" enable-background="new 0 0 16 16" xml:space="preserve">
<g id="Background_xA0_Image_1_">
</g>
<g id="Row_5_1_">
</g>
<g id="Row_4_1_">
</g>
<g id="Row_3_1_">
</g>
<g id="Row_2_1_">
	<g id="boot">
		<g>
			<path fill="#212121" d="M15,0H9C8.447,0,8,0.447,8,1v5c0,1.657-1.343,3-3,3c-2.762,0-5,2.238-5,5v1c0,0.553,0.447,1,1,1h14
				c0.553,0,1-0.447,1-1V1C16,0.447,15.553,0,15,0z M4,14H2c0-1.305,0.838-2.403,2-2.816V14z M14,14h-1.816
				c0.302-0.849,0.968-1.515,1.816-1.816V14z M14,10.101c-1.959,0.397-3.502,1.94-3.899,3.899H6v-3.119
				c0.246-0.054,0.488-0.118,0.721-0.204l0.385,0.771l0.009-0.005C7.279,11.77,7.609,12,8,12c0.553,0,1-0.447,1-1
				c0-0.161-0.047-0.308-0.114-0.442l0.009-0.005L8.43,9.623c0.307-0.291,0.573-0.62,0.799-0.98l0.064,0.064
				C9.474,8.888,9.724,9,10,9c0.553,0,1-0.447,1-1c0-0.276-0.112-0.526-0.293-0.707L9.946,6.532C9.966,6.354,10,6.183,10,6h4V10.101
				z M14,4h-4V2h4V4z"/>
		</g>
	</g>
</g>
<g id="Row_1_1_">
</g>
</svg>
