<?xml version="1.0" encoding="utf-8"?>
<!-- Generator: Adobe Illustrator 16.0.0, SVG Export Plug-In . SVG Version: 6.00 Build 0)  -->
<!DOCTYPE svg PUBLIC "-//W3C//DTD SVG 1.1//EN" "http://www.w3.org/Graphics/SVG/1.1/DTD/svg11.dtd">
<svg version="1.1" xmlns="http://www.w3.org/2000/svg" xmlns:xlink="http://www.w3.org/1999/xlink" x="0px" y="0px" width="16px"
	 height="16px" viewBox="0 0 16 16" enable-background="new 0 0 16 16" xml:space="preserve">
<g id="Background_xA0_Image_1_">
</g>
<g id="Row_5_1_">
</g>
<g id="Row_4_1_">
</g>
<g id="Row_3_1_">
</g>
<g id="Row_2_1_">
	<g id="captain_hat">
		<g>
			<path fill="#212121" d="M8,6C7.447,6,7,6.447,7,7s0.447,1,1,1s1-0.447,1-1S8.553,6,8,6z M15.816,7.545
				C15.923,7.386,16,7.205,16,7c0-2.209-3.582-4-8-4S0,4.791,0,7c0,0.205,0.077,0.386,0.184,0.545l-0.016,0.01l1.148,1.723
				C1.123,9.459,1,9.714,1,10c0,2.209,3.442,4,7,4c3.595,0,7-1.791,7-4c0-0.286-0.123-0.541-0.316-0.723l1.148-1.723L15.816,7.545z
				 M8,12c-2.215,0-3.129-0.404-4.168-1h8.336C11.129,11.596,10.215,12,8,12z M12.465,9h-8.93L2.063,6.792C2.38,5.786,4.9,5,8,5
				s5.62,0.786,5.937,1.792L12.465,9z"/>
		</g>
	</g>
</g>
<g id="Row_1_1_">
</g>
</svg>
