<?xml version="1.0" encoding="utf-8"?>
<!-- Generator: Adobe Illustrator 16.0.0, SVG Export Plug-In . SVG Version: 6.00 Build 0)  -->
<!DOCTYPE svg PUBLIC "-//W3C//DTD SVG 1.1//EN" "http://www.w3.org/Graphics/SVG/1.1/DTD/svg11.dtd">
<svg version="1.1" xmlns="http://www.w3.org/2000/svg" xmlns:xlink="http://www.w3.org/1999/xlink" x="0px" y="0px" width="16px"
	 height="16px" viewBox="0 0 16 16" enable-background="new 0 0 16 16" xml:space="preserve">
<g id="Background_xA0_Image_1_">
</g>
<g id="Row_5_1_">
	<g id="compass">
		<g>
			<path fill="#212121" d="M10.816,7.455l0.016-0.01l-2-3l-0.016,0.01C8.638,4.188,8.347,4,8,4S7.362,4.188,7.184,4.455l-0.016-0.01
				l-2,3l0.016,0.01C5.077,7.614,5,7.795,5,8s0.077,0.386,0.184,0.545l-0.016,0.01l2,3l0.016-0.01C7.362,11.813,7.653,12,8,12
				s0.638-0.188,0.816-0.455l0.016,0.01l2-3l-0.016-0.01C10.923,8.386,11,8.205,11,8S10.923,7.614,10.816,7.455z M8,9.197L7.202,8
				L8,6.803L8.798,8L8,9.197z M8,0C3.582,0,0,3.582,0,8s3.582,8,8,8s8-3.582,8-8S12.418,0,8,0z M8,14c-3.313,0-6-2.687-6-6
				s2.687-6,6-6s6,2.687,6,6S11.313,14,8,14z"/>
		</g>
	</g>
</g>
<g id="Row_4_1_">
</g>
<g id="Row_3_1_">
</g>
<g id="Row_2_1_">
</g>
<g id="Row_1_1_">
</g>
</svg>
