<?xml version="1.0" encoding="utf-8"?>
<!-- Generator: Adobe Illustrator 16.0.0, SVG Export Plug-In . SVG Version: 6.00 Build 0)  -->
<!DOCTYPE svg PUBLIC "-//W3C//DTD SVG 1.1//EN" "http://www.w3.org/Graphics/SVG/1.1/DTD/svg11.dtd">
<svg version="1.1" xmlns="http://www.w3.org/2000/svg" xmlns:xlink="http://www.w3.org/1999/xlink" x="0px" y="0px" width="16px"
	 height="16px" viewBox="0 0 16 16" enable-background="new 0 0 16 16" xml:space="preserve">
<g id="Background_xA0_Image_1_">
</g>
<g id="Row_5_1_">
	<g id="compass_1_">
		<g>
			<path fill="#212121" d="M15.868,14.532l0.013-0.007l-1.311-2.433c0.446-0.123,0.895-0.242,1.331-0.388L15.27,9.809
				c-0.547,0.183-1.104,0.343-1.668,0.485L9,1.748V1c0-0.553-0.447-1-1-1S7,0.447,7,1v0.748l-4.602,8.546
				C1.834,10.151,1.277,9.991,0.73,9.809l-0.632,1.896c0.437,0.146,0.885,0.265,1.331,0.388l-1.311,2.433l0.013,0.007
				C0.055,14.674,0,14.828,0,15c0,0.553,0.447,1,1,1c0.38,0,0.699-0.22,0.868-0.532l0.013,0.006l1.568-2.913
				C4.926,12.838,6.442,13,8,13s3.074-0.162,4.551-0.439l1.568,2.913l0.013-0.006C14.301,15.78,14.62,16,15,16c0.553,0,1-0.447,1-1
				C16,14.828,15.945,14.674,15.868,14.532z M8,11c-1.211,0-2.396-0.104-3.556-0.288L8,4.109l3.556,6.603
				C10.396,10.896,9.211,11,8,11z"/>
		</g>
	</g>
</g>
<g id="Row_4_1_">
</g>
<g id="Row_3_1_">
</g>
<g id="Row_2_1_">
</g>
<g id="Row_1_1_">
</g>
</svg>
