<?xml version="1.0" encoding="utf-8"?>
<!-- Generator: Adobe Illustrator 16.0.0, SVG Export Plug-In . SVG Version: 6.00 Build 0)  -->
<!DOCTYPE svg PUBLIC "-//W3C//DTD SVG 1.1//EN" "http://www.w3.org/Graphics/SVG/1.1/DTD/svg11.dtd">
<svg version="1.1" xmlns="http://www.w3.org/2000/svg" xmlns:xlink="http://www.w3.org/1999/xlink" x="0px" y="0px" width="16px"
	 height="16px" viewBox="0 0 16 16" enable-background="new 0 0 16 16" xml:space="preserve">
<g id="Background_xA0_Image_1_">
</g>
<g id="Row_5_1_">
</g>
<g id="Row_4_1_">
</g>
<g id="Row_3_1_">
</g>
<g id="Row_2_1_">
	<g id="door_tag">
		<g>
			<path fill="#212121" d="M8,0C6.343,0,5,1.343,5,3c0,0.553,0.447,1,1,1s1-0.447,1-1s0.447-1,1-1s1,0.447,1,1S8.084,4,8,4L6,5
				C5.447,5,5,5.447,5,6v9c0,0.553,0.447,1,1,1h4c0.553,0,1-0.447,1-1V6c0,0,0-2.979,0-3C11,1.343,9.657,0,8,0z M9,14H7V7l2-1V14z"
				/>
		</g>
	</g>
</g>
<g id="Row_1_1_">
</g>
</svg>
