<?xml version="1.0" encoding="utf-8"?>
<!-- Generator: Adobe Illustrator 16.0.0, SVG Export Plug-In . SVG Version: 6.00 Build 0)  -->
<!DOCTYPE svg PUBLIC "-//W3C//DTD SVG 1.1//EN" "http://www.w3.org/Graphics/SVG/1.1/DTD/svg11.dtd">
<svg version="1.1" xmlns="http://www.w3.org/2000/svg" xmlns:xlink="http://www.w3.org/1999/xlink" x="0px" y="0px" width="16px"
	 height="16px" viewBox="0 0 16 16" enable-background="new 0 0 16 16" xml:space="preserve">
<g id="Background_xA0_Image_1_">
</g>
<g id="Row_5_1_">
</g>
<g id="Row_4_1_">
</g>
<g id="Row_3_1_">
	<g id="globe">
		<g>
			<path fill="#212121" d="M8,0C3.582,0,0,3.582,0,8s3.582,8,8,8s8-3.582,8-8S12.418,0,8,0z M6.625,2.173
				C6.638,2.177,6.65,2.18,6.663,2.184C5.143,3.205,3.782,4.819,3.577,7h-1.49C2.488,4.619,4.295,2.722,6.625,2.173z M6.625,13.827
				C4.295,13.278,2.488,11.381,2.087,9h1.49c0.205,2.181,1.565,3.795,3.086,4.816C6.65,13.82,6.638,13.823,6.625,13.827z M7,12.685
				C6.474,11.858,5.699,10.12,5.586,9H7V12.685z M7,7H5.586C5.699,5.88,6.474,4.11,7,3.284V7z M9.375,2.173
				c2.33,0.549,4.137,2.446,4.538,4.827h-1.521c-0.203-2.178-1.526-3.794-3.042-4.816C9.358,2.181,9.365,2.176,9.375,2.173z M9,3.26
				C9.528,4.093,10.271,5.872,10.383,7H9V3.26z M9,9h1.383C10.271,10.128,9.528,11.876,9,12.709V9z M9.375,13.827
				c-0.01-0.003-0.017-0.008-0.025-0.011c1.516-1.022,2.839-2.639,3.042-4.816h1.521C13.512,11.381,11.705,13.278,9.375,13.827z"/>
		</g>
	</g>
</g>
<g id="Row_2_1_">
</g>
<g id="Row_1_1_">
</g>
</svg>
