<?xml version="1.0" encoding="utf-8"?>
<!-- Generator: Adobe Illustrator 16.0.0, SVG Export Plug-In . SVG Version: 6.00 Build 0)  -->
<!DOCTYPE svg PUBLIC "-//W3C//DTD SVG 1.1//EN" "http://www.w3.org/Graphics/SVG/1.1/DTD/svg11.dtd">
<svg version="1.1" xmlns="http://www.w3.org/2000/svg" xmlns:xlink="http://www.w3.org/1999/xlink" x="0px" y="0px" width="16px"
	 height="16px" viewBox="0 0 16 16" enable-background="new 0 0 16 16" xml:space="preserve">
<g id="Background_xA0_Image_1_">
</g>
<g id="Row_5_1_">
</g>
<g id="Row_4_1_">
	<g id="hook">
		<g>
			<path fill="#212121" d="M10.5,0c-1.104,0-2,0.896-2,2c0,0.738,0.404,1.376,1,1.723V12c0,1.104-0.896,2-2,2s-2-0.896-2-2v-0.382
				l0.553,0.276l0.005-0.009C6.192,11.953,6.339,12,6.5,12c0.552,0,1-0.447,1-1c0-0.391-0.23-0.721-0.558-0.886l0.005-0.009l-2-1
				L4.942,9.114C4.808,9.047,4.661,9,4.5,9c-0.553,0-1,0.447-1,1v2c0,2.209,1.791,4,4,4s4-1.791,4-4V3.723
				c0.596-0.347,1-0.984,1-1.723C12.5,0.896,11.604,0,10.5,0z"/>
		</g>
	</g>
</g>
<g id="Row_3_1_">
</g>
<g id="Row_2_1_">
</g>
<g id="Row_1_1_">
</g>
</svg>
