<?xml version="1.0" encoding="utf-8"?>
<!-- Generator: Adobe Illustrator 16.0.0, SVG Export Plug-In . SVG Version: 6.00 Build 0)  -->
<!DOCTYPE svg PUBLIC "-//W3C//DTD SVG 1.1//EN" "http://www.w3.org/Graphics/SVG/1.1/DTD/svg11.dtd">
<svg version="1.1" xmlns="http://www.w3.org/2000/svg" xmlns:xlink="http://www.w3.org/1999/xlink" x="0px" y="0px" width="16px"
	 height="16px" viewBox="0 0 16 16" enable-background="new 0 0 16 16" xml:space="preserve">
<g id="Background_xA0_Image_1_">
</g>
<g id="Row_5_1_">
</g>
<g id="Row_4_1_">
</g>
<g id="Row_3_1_">
	<g id="india_flag">
		<g>
			<path fill="#212121" d="M11,8c0.552,0,1-0.447,1-1s-0.448-1-1-1c-0.553,0-1,0.447-1,1S10.447,8,11,8z M15,0c-0.553,0-1,0.447-1,1
				L0.664,6.059l0.003,0.009C0.28,6.205,0,6.565,0,7c0,0.456,0.312,0.825,0.729,0.945L0.726,7.962L14,13v2c0,0.553,0.447,1,1,1
				c0.552,0,1-0.447,1-1V1C16,0.447,15.552,0,15,0z M14,10.808L4,7l10-3.808V10.808z"/>
		</g>
	</g>
</g>
<g id="Row_2_1_">
</g>
<g id="Row_1_1_">
</g>
</svg>
