<?xml version="1.0" encoding="utf-8"?>
<!-- Generator: Adobe Illustrator 16.0.0, SVG Export Plug-In . SVG Version: 6.00 Build 0)  -->
<!DOCTYPE svg PUBLIC "-//W3C//DTD SVG 1.1//EN" "http://www.w3.org/Graphics/SVG/1.1/DTD/svg11.dtd">
<svg version="1.1" xmlns="http://www.w3.org/2000/svg" xmlns:xlink="http://www.w3.org/1999/xlink" x="0px" y="0px" width="16px"
	 height="16px" viewBox="0 0 16 16" enable-background="new 0 0 16 16" xml:space="preserve">
<g id="Background_xA0_Image_1_">
</g>
<g id="Row_5_1_">
</g>
<g id="Row_4_1_">
</g>
<g id="Row_3_1_">
</g>
<g id="Row_2_1_">
</g>
<g id="Row_1_1_">
	<g id="metro">
		<g>
			<path fill="#212121" d="M10,5C9.724,5,9.474,5.112,9.293,5.293L8,6.586L6.707,5.293C6.526,5.112,6.276,5,6,5C5.447,5,5,5.447,5,6
				v4c0,0.553,0.447,1,1,1s1-0.447,1-1V8.414l0.293,0.293C7.474,8.888,7.724,9,8,9s0.526-0.112,0.707-0.293L9,8.414V10
				c0,0.553,0.447,1,1,1s1-0.447,1-1V6C11,5.447,10.553,5,10,5z M8,0C3.582,0,0,3.582,0,8s3.582,8,8,8s8-3.582,8-8S12.418,0,8,0z
				 M8,14c-3.313,0-6-2.687-6-6s2.687-6,6-6s6,2.687,6,6S11.313,14,8,14z"/>
		</g>
	</g>
</g>
</svg>
