<?xml version="1.0" encoding="utf-8"?>
<!-- Generator: Adobe Illustrator 16.0.0, SVG Export Plug-In . SVG Version: 6.00 Build 0)  -->
<!DOCTYPE svg PUBLIC "-//W3C//DTD SVG 1.1//EN" "http://www.w3.org/Graphics/SVG/1.1/DTD/svg11.dtd">
<svg version="1.1" xmlns="http://www.w3.org/2000/svg" xmlns:xlink="http://www.w3.org/1999/xlink" x="0px" y="0px" width="16px"
	 height="16px" viewBox="0 0 16 16" enable-background="new 0 0 16 16" xml:space="preserve">
<g id="Background_xA0_Image_1_">
</g>
<g id="Row_5_1_">
</g>
<g id="Row_4_1_">
</g>
<g id="Row_3_1_">
</g>
<g id="Row_2_1_">
</g>
<g id="Row_1_1_">
	<g id="painting">
		<g>
			<path fill="#212121" d="M15.65,5.291c-0.156-0.264-0.355-0.452-0.654-0.617c-2.439-0.639-3.763,1.041-4.363,0.026
				c-0.413-0.699,0.296-1.472-0.641-3.057C9.529,0.862,7.608,0.707,5.917,1.661C5.843,1.701,3.729,2.894,3.729,2.894
				c-3.261,2.263-4.641,5.97-3.096,8.582c1.675,2.833,6.168,3.361,10.036,1.18c0.443-0.249,1.423-0.801,1.751-0.986
				C15.079,10.171,16.768,7.178,15.65,5.291z M9.658,10.947c-2.901,1.635-6.157,1.43-7.274-0.458
				c-1.116-1.888,0.33-4.743,3.23-6.379c0.57-0.321,1.606-0.931,2.783-1.034c0.005,0.901,0.068,1.941,0.487,2.65
				c1.104,1.867,2.602,1.303,4.981,0.671C13.785,8.85,11.847,9.713,9.658,10.947z M4.504,8.154C4.021,8.427,3.855,9.03,4.135,9.502
				c0.279,0.473,0.897,0.634,1.381,0.361c0.483-0.272,0.649-0.876,0.37-1.348C5.606,8.044,4.988,7.881,4.504,8.154z M9.49,8.134
				C9.006,7.857,8.388,8.022,8.108,8.502c-0.279,0.479-0.113,1.092,0.37,1.37c0.483,0.276,1.102,0.112,1.381-0.368
				S9.973,8.412,9.49,8.134z"/>
		</g>
	</g>
</g>
</svg>
