<?xml version="1.0" encoding="utf-8"?>
<!-- Generator: Adobe Illustrator 16.0.0, SVG Export Plug-In . SVG Version: 6.00 Build 0)  -->
<!DOCTYPE svg PUBLIC "-//W3C//DTD SVG 1.1//EN" "http://www.w3.org/Graphics/SVG/1.1/DTD/svg11.dtd">
<svg version="1.1" xmlns="http://www.w3.org/2000/svg" xmlns:xlink="http://www.w3.org/1999/xlink" x="0px" y="0px" width="16px"
	 height="16px" viewBox="0 0 16 16" enable-background="new 0 0 16 16" xml:space="preserve">
<g id="Background_xA0_Image_1_">
</g>
<g id="Row_5_1_">
</g>
<g id="Row_4_1_">
</g>
<g id="Row_3_1_">
</g>
<g id="Row_2_1_">
	<g id="pamphlet_2_">
		<g>
			<path fill="#212121" d="M15.506,3.157l0.009-0.015l-5-3l-0.009,0.015C10.355,0.066,10.188,0,10,0C9.774,0,9.577,0.088,9.41,0.214
				L9.4,0.2L5.938,2.797L1.515,0.143L1.506,0.157C1.355,0.066,1.188,0,1,0C0.447,0,0,0.447,0,1v11c0,0.363,0.204,0.668,0.494,0.843
				l-0.009,0.015l5,3l0.009-0.015C5.645,15.934,5.812,16,6,16c0.226,0,0.423-0.088,0.59-0.214L6.6,15.8l3.463-2.597l4.423,2.654
				l0.009-0.015C14.645,15.934,14.812,16,15,16c0.553,0,1-0.447,1-1V4C16,3.637,15.796,3.332,15.506,3.157z M5,13.233l-3-1.8V2.767
				l3,1.8V13.233z M9,11.5L7,13V4.5L9,3V11.5z M14,13.233l-3-1.8V2.767l3,1.8V13.233z"/>
		</g>
	</g>
</g>
<g id="Row_1_1_">
</g>
</svg>
