<?xml version="1.0" encoding="utf-8"?>
<!-- Generator: Adobe Illustrator 16.0.0, SVG Export Plug-In . SVG Version: 6.00 Build 0)  -->
<!DOCTYPE svg PUBLIC "-//W3C//DTD SVG 1.1//EN" "http://www.w3.org/Graphics/SVG/1.1/DTD/svg11.dtd">
<svg version="1.1" xmlns="http://www.w3.org/2000/svg" xmlns:xlink="http://www.w3.org/1999/xlink" x="0px" y="0px" width="14px"
	 height="16px" viewBox="0 0 14 16" enable-background="new 0 0 14 16" xml:space="preserve">
<g id="Background_xA0_Image_1_">
</g>
<g id="Row_5_1_">
</g>
<g id="Row_4_1_">
</g>
<g id="Row_3_1_">
	<g id="pirate_skull">
		<g>
			<path fill="#212121" d="M13,8.101V7c0-3.965-2.002-7-6-7S1,3.067,1,7v1.101C0.42,8.309,0,8.849,0,9.5C0,10.668,1,11,1,11h1
				c1.001,0,1,2,1,2v2c0,0.553,0.447,1,1,1s1-0.447,1-1c0,0.553,0.447,1,1,1s1-0.447,1-1c0,0.553,0.447,1,1,1c0.552,0,1-0.447,1-1
				c0,0.553,0.447,1,1,1c0.552,0,1-0.447,1-1v-2c0,0,0-2,1-2c0.005,0,1,0,1,0s1-0.332,1-1.5C14,8.849,13.58,8.309,13,8.101z M5,12.5
				C5,12.776,4.776,13,4.5,13S4,12.776,4,12.5v-1C4,11.224,4.224,11,4.5,11S5,11.224,5,11.5V12.5z M5,10H4c-0.553,0-1-0.447-1-1
				s0.447-1,1-1h1c0.553,0,1,0.447,1,1S5.553,10,5,10z M8,12.5C8,12.776,7.776,13,7.5,13S7,12.776,7,12.5C7,12.776,6.776,13,6.5,13
				S6,12.776,6,12.5v-1C6,11.224,6.224,11,6.5,11C6.353,11,7,10.938,7,11.5C7,11.224,7.224,11,7.5,11C7.353,11,8,10.938,8,11.5V12.5
				z M10,12.5c0,0.276-0.224,0.5-0.5,0.5S9,12.776,9,12.5v-1C9,11.224,9.224,11,9.5,11s0.5,0.224,0.5,0.5V12.5z M10,10H9
				c-0.553,0-1-0.447-1-1s0.447-1,1-1h1c0.552,0,1,0.447,1,1S10.552,10,10,10z M9,6C7.854,6,7,6.791,7,7.344C7,6.791,5.959,6,5,6H3
				c0-2.209,1.791-4,4-4s4,1.791,4,4H9z"/>
		</g>
	</g>
</g>
<g id="Row_2_1_">
</g>
<g id="Row_1_1_">
</g>
</svg>
