<?xml version="1.0" encoding="utf-8"?>
<!-- Generator: Adobe Illustrator 16.0.0, SVG Export Plug-In . SVG Version: 6.00 Build 0)  -->
<!DOCTYPE svg PUBLIC "-//W3C//DTD SVG 1.1//EN" "http://www.w3.org/Graphics/SVG/1.1/DTD/svg11.dtd">
<svg version="1.1" xmlns="http://www.w3.org/2000/svg" xmlns:xlink="http://www.w3.org/1999/xlink" x="0px" y="0px" width="16px"
	 height="16px" viewBox="0 0 16 16" enable-background="new 0 0 16 16" xml:space="preserve">
<g id="Background_xA0_Image_1_">
</g>
<g id="Row_5_1_">
	<g id="possitioning">
		<g>
			<path fill="#212121" d="M8,0C3.582,0,0,3.582,0,8s3.582,8,8,8s8-3.582,8-8S12.418,0,8,0z M9,13.899V12c0-0.553-0.447-1-1-1
				s-1,0.447-1,1v1.899C4.491,13.476,2.514,11.506,2.091,9H4c0.553,0,1-0.447,1-1S4.553,7,4,7H2.091
				C2.514,4.493,4.491,2.524,7,2.101V4c0,0.553,0.447,1,1,1s1-0.447,1-1V2.101C11.509,2.524,13.486,4.493,13.909,7H12
				c-0.553,0-1,0.447-1,1s0.447,1,1,1h1.909C13.486,11.506,11.509,13.476,9,13.899z"/>
		</g>
	</g>
</g>
<g id="Row_4_1_">
</g>
<g id="Row_3_1_">
</g>
<g id="Row_2_1_">
</g>
<g id="Row_1_1_">
</g>
</svg>
