<?xml version="1.0" encoding="utf-8"?>
<!-- Generator: Adobe Illustrator 16.0.0, SVG Export Plug-In . SVG Version: 6.00 Build 0)  -->
<!DOCTYPE svg PUBLIC "-//W3C//DTD SVG 1.1//EN" "http://www.w3.org/Graphics/SVG/1.1/DTD/svg11.dtd">
<svg version="1.1" xmlns="http://www.w3.org/2000/svg" xmlns:xlink="http://www.w3.org/1999/xlink" x="0px" y="0px" width="16px"
	 height="16px" viewBox="0 0 16 16" enable-background="new 0 0 16 16" xml:space="preserve">
<g id="Background_xA0_Image_1_">
</g>
<g id="Row_5_1_">
	<g id="sextant">
		<g>
			<path fill="#212121" d="M15,9.531c-0.134,0-0.261,0.027-0.377,0.075l-0.001-0.003c-0.184,0.076-0.399,0.141-0.595,0.213L10.127,4
				H12c0.553,0,1-0.447,1-1s-0.447-1-1-1h-2c0-1.104-0.896-2-2-2S6,0.896,6,2c0,0.451,0.154,0.862,0.406,1.196L1.745,9.747
				C1.652,9.711,1.544,9.682,1.454,9.646C1.317,9.574,1.164,9.531,1,9.531c-0.553,0-1,0.447-1,1c0,0.406,0.243,0.754,0.59,0.91
				l-0.004,0.012C2.418,12.208,4.811,12.787,7,12.936V15c0,0.553,0.447,1,1,1h2c0.553,0,1-0.447,1-1s-0.447-1-1-1H9v-1.064
				c2.174-0.148,4.532-0.723,6.361-1.474C15.734,11.316,16,10.956,16,10.531C16,9.979,15.552,9.531,15,9.531z M7,10.935
				c-1.074-0.082-2.186-0.279-3.258-0.56L7,5.797V10.935z M9,10.934v-5.03l3.035,4.525C11.03,10.682,10.002,10.856,9,10.934z"/>
		</g>
	</g>
</g>
<g id="Row_4_1_">
</g>
<g id="Row_3_1_">
</g>
<g id="Row_2_1_">
</g>
<g id="Row_1_1_">
</g>
</svg>
