<?xml version="1.0" encoding="utf-8"?>
<!-- Generator: Adobe Illustrator 16.0.0, SVG Export Plug-In . SVG Version: 6.00 Build 0)  -->
<!DOCTYPE svg PUBLIC "-//W3C//DTD SVG 1.1//EN" "http://www.w3.org/Graphics/SVG/1.1/DTD/svg11.dtd">
<svg version="1.1" xmlns="http://www.w3.org/2000/svg" xmlns:xlink="http://www.w3.org/1999/xlink" x="0px" y="0px" width="16px"
	 height="16px" viewBox="0 0 16 16" enable-background="new 0 0 16 16" xml:space="preserve">
<g id="Background_xA0_Image_1_">
</g>
<g id="Row_5_1_">
</g>
<g id="Row_4_1_">
</g>
<g id="Row_3_1_">
</g>
<g id="Row_2_1_">
	<g id="signs">
		<g>
			<path fill="#212121" d="M15.707,1.012l-1-0.719C14.62,0.293,14.276,0,14,0H2C1.447,0,1,0.447,1,1v1c0,0.553,0.447,1,1,1h5v3H2
				C1.724,6,1.317,6.269,1.293,6.293l-1,0.719C0.293,7.012,0,7.265,0,7.5c0,0.253,0.156,0.339,0.293,0.488l1,0.719
				C1.349,8.763,1.724,9,2,9h5v6c0,0.553,0.447,1,1,1s1-0.447,1-1V9h5c0.553,0,1-0.447,1-1V7c0-0.553-0.447-1-1-1H9V3h5
				c0.276,0,0.62-0.293,0.707-0.293l1-0.75c0,0,0.293-0.099,0.293-0.488C16,1.192,15.906,1.161,15.707,1.012z"/>
		</g>
	</g>
</g>
<g id="Row_1_1_">
</g>
</svg>
