<?xml version="1.0" encoding="utf-8"?>
<!-- Generator: Adobe Illustrator 16.0.0, SVG Export Plug-In . SVG Version: 6.00 Build 0)  -->
<!DOCTYPE svg PUBLIC "-//W3C//DTD SVG 1.1//EN" "http://www.w3.org/Graphics/SVG/1.1/DTD/svg11.dtd">
<svg version="1.1" xmlns="http://www.w3.org/2000/svg" xmlns:xlink="http://www.w3.org/1999/xlink" x="0px" y="0px" width="16px"
	 height="16px" viewBox="0 0 16 16" enable-background="new 0 0 16 16" xml:space="preserve">
<g id="Background_xA0_Image_1_">
</g>
<g id="Row_5_1_">
	<g id="sunset">
		<g>
			<path fill="#212121" d="M0.789,5.647l1.027,0.299C2.384,6.11,2.968,5.87,3.12,5.256c0.152-0.614-0.123-1.122-0.69-1.287
				L1.402,3.672C0.833,3.507,0.188,3.747,0.037,4.361C-0.116,4.977,0.221,5.483,0.789,5.647z M10.463,2.819
				c0.456,0.285,1.039,0.116,1.303-0.378l0.476-0.894c0.263-0.493,0.107-1.124-0.349-1.409s-1.039-0.116-1.303,0.378L10.115,1.41
				C9.852,1.903,10.008,2.534,10.463,2.819z M14.184,5.946l1.027-0.299c0.568-0.164,0.905-0.671,0.752-1.286
				c-0.152-0.614-0.797-0.854-1.365-0.689L13.57,3.969c-0.567,0.165-0.842,0.673-0.69,1.287C13.032,5.87,13.616,6.11,14.184,5.946z
				 M4.233,2.441c0.263,0.494,0.847,0.663,1.303,0.378C5.992,2.534,6.148,1.903,5.885,1.41L5.408,0.517
				C5.145,0.022,4.562-0.146,4.106,0.139S3.494,1.055,3.757,1.548L4.233,2.441z M14.985,8.005h-2.994
				c0-2.208-1.788-3.998-3.992-3.998s-3.992,1.79-3.992,3.998H1.015c-0.551,0-0.998,0.447-0.998,0.999c0,0.553,0.446,1,0.998,1
				h13.971c0.55,0,0.998-0.447,0.998-1C15.983,8.452,15.536,8.005,14.985,8.005z M6.004,8.005c0-1.104,0.894-1.999,1.996-1.999
				s1.996,0.896,1.996,1.999H6.004z M11.992,11.003H4.008c-0.551,0-0.998,0.447-0.998,1c0,0.552,0.446,0.999,0.998,0.999h7.983
				c0.551,0,0.998-0.447,0.998-0.999C12.989,11.45,12.543,11.003,11.992,11.003z M8.998,14.001H7.002c-0.551,0-0.998,0.447-0.998,1
				C6.004,15.553,6.451,16,7.002,16h1.996c0.551,0,0.998-0.447,0.998-0.999C9.996,14.448,9.549,14.001,8.998,14.001z"/>
		</g>
	</g>
</g>
<g id="Row_4_1_">
</g>
<g id="Row_3_1_">
</g>
<g id="Row_2_1_">
</g>
<g id="Row_1_1_">
</g>
</svg>
