<?xml version="1.0" encoding="utf-8"?>
<!-- Generator: Adobe Illustrator 16.0.0, SVG Export Plug-In . SVG Version: 6.00 Build 0)  -->
<!DOCTYPE svg PUBLIC "-//W3C//DTD SVG 1.1//EN" "http://www.w3.org/Graphics/SVG/1.1/DTD/svg11.dtd">
<svg version="1.1" xmlns="http://www.w3.org/2000/svg" xmlns:xlink="http://www.w3.org/1999/xlink" x="0px" y="0px" width="16px"
	 height="16px" viewBox="0 0 16 16" enable-background="new 0 0 16 16" xml:space="preserve">
<g id="Background_xA0_Image_1_">
</g>
<g id="Row_5_1_">
</g>
<g id="Row_4_1_">
</g>
<g id="Row_3_1_">
</g>
<g id="Row_2_1_">
	<g id="ticket">
		<g>
			<path fill="#212121" d="M16,5V4c0-0.553-0.447-1-1-1H1C0.447,3,0,3.447,0,4v1c1.179,0.644,2,1.407,2,3s-0.821,2.356-2,3v1
				c0,0.553,0.447,1,1,1h14c0.553,0,1-0.447,1-1v-1c-1.18-0.644-2-1.407-2-3S14.82,5.644,16,5z M13,11H3c0.609-0.73,1-1.713,1-3
				c0-0.98-0.536-2.364-1-3h10c-0.464,0.636-1,2.02-1,3C12,8.923,12.396,10.361,13,11z"/>
		</g>
	</g>
</g>
<g id="Row_1_1_">
</g>
</svg>
