<?xml version="1.0" encoding="utf-8"?>
<!-- Generator: Adobe Illustrator 16.0.0, SVG Export Plug-In . SVG Version: 6.00 Build 0)  -->
<!DOCTYPE svg PUBLIC "-//W3C//DTD SVG 1.1//EN" "http://www.w3.org/Graphics/SVG/1.1/DTD/svg11.dtd">
<svg version="1.1" xmlns="http://www.w3.org/2000/svg" xmlns:xlink="http://www.w3.org/1999/xlink" x="0px" y="0px" width="16px"
	 height="16px" viewBox="0 0 16 16" enable-background="new 0 0 16 16" xml:space="preserve">
<g id="Background_xA0_Image_1_">
</g>
<g id="Row_5_1_">
</g>
<g id="Row_4_1_">
</g>
<g id="Row_3_1_">
</g>
<g id="Row_2_1_">
</g>
<g id="Row_1_1_">
	<g id="train_station">
		<g>
			<path fill="#212121" d="M15.59,13.214L15.6,13.2L15,12.75V2c0-0.553-0.447-1-1-1h-3c-0.553,0-1,0.447-1,1s0.447,1,1,1h2v8.25
				L8,7.5V5c0-2.209-1.791-4-4-4S0,2.791,0,5v5c0,0.457,0.313,0.827,0.732,0.946L0.03,13.758l0.018,0.004C0.028,13.84,0,13.916,0,14
				c0,0.553,0.447,1,1,1c0.468,0,0.843-0.328,0.952-0.762l0.018,0.004L2.781,11h2.438l0.812,3.242l0.018-0.004
				C6.157,14.672,6.532,15,7,15c0.553,0,1-0.447,1-1c0-0.084-0.028-0.16-0.048-0.238l0.018-0.004l-0.702-2.812
				C7.687,10.827,8,10.457,8,10l6.4,4.8l0.01-0.014C14.577,14.912,14.774,15,15,15c0.553,0,1-0.447,1-1
				C16,13.673,15.833,13.396,15.59,13.214z M6,9H2V7h4V9z M2,5c0-1.104,0.896-2,2-2s2,0.896,2,2H2z"/>
		</g>
	</g>
</g>
</svg>
