<?xml version="1.0" encoding="utf-8"?>
<!-- Generator: Adobe Illustrator 16.0.0, SVG Export Plug-In . SVG Version: 6.00 Build 0)  -->
<!DOCTYPE svg PUBLIC "-//W3C//DTD SVG 1.1//EN" "http://www.w3.org/Graphics/SVG/1.1/DTD/svg11.dtd">
<svg version="1.1" xmlns="http://www.w3.org/2000/svg" xmlns:xlink="http://www.w3.org/1999/xlink" x="0px" y="0px" width="16px"
	 height="16px" viewBox="0 0 16 16" enable-background="new 0 0 16 16" xml:space="preserve">
<g id="Background_xA0_Image_1_">
</g>
<g id="Row_5_1_">
</g>
<g id="Row_4_1_">
	<g id="umbrella">
		<g>
			<path fill="#212121" d="M15.707,1.707C15.888,1.526,16,1.276,16,1c0-0.553-0.447-1-1-1c-0.276,0-0.526,0.112-0.707,0.293
				L12.87,1.716C9.718-0.729,5.179-0.542,2.282,2.349c-0.393,0.392-0.393,1.025,0,1.417L6.556,8.03l-6.263,6.263
				C0.112,14.474,0,14.724,0,15c0,0.553,0.447,1,1,1c0.276,0,0.526-0.112,0.707-0.293l6.265-6.265l4.254,4.245
				c0.393,0.392,1.028,0.392,1.421,0c2.895-2.889,3.085-7.413,0.639-10.559L15.707,1.707z M12.872,11.498L4.477,3.121
				c2.354-1.673,5.638-1.462,7.749,0.645S14.548,9.149,12.872,11.498z"/>
		</g>
	</g>
</g>
<g id="Row_3_1_">
</g>
<g id="Row_2_1_">
</g>
<g id="Row_1_1_">
</g>
</svg>
