<?xml version="1.0" encoding="utf-8"?>
<!-- Generator: Adobe Illustrator 16.0.0, SVG Export Plug-In . SVG Version: 6.00 Build 0)  -->
<!DOCTYPE svg PUBLIC "-//W3C//DTD SVG 1.1//EN" "http://www.w3.org/Graphics/SVG/1.1/DTD/svg11.dtd">
<svg version="1.1" xmlns="http://www.w3.org/2000/svg" xmlns:xlink="http://www.w3.org/1999/xlink" x="0px" y="0px" width="16px"
	 height="16px" viewBox="0 0 16 16" enable-background="new 0 0 16 16" xml:space="preserve">
<g id="Background_xA0_Image_1_">
</g>
<g id="Row_5_1_">
</g>
<g id="Row_4_1_">
	<g id="wave">
		<g>
			<path fill="#212121" d="M8,12c-0.553,0-1-0.448-1-1c0-0.205,0.077-0.386,0.184-0.545c0,0,0.16-0.147,0.16-0.549
				c0-0.553-0.447-1-1-1c-0.65,0-0.839,0.431-0.839,0.431C5.187,9.813,5,10.385,5,11c0,1.657,1.343,3,3,3c0.553,0,1-0.447,1-1
				S8.553,12,8,12z M12,9c-1.657,0-3-1.343-3-3c0-0.848,0.124-1.705,0.661-2.262C9.865,3.555,10,3.296,10,3c0-0.553-0.447-1-1-1
				C5.134,2,2,5.134,2,9c0,1.104-0.896,2-2,2v2c2.209,0,4-1.791,4-4c0-2.121,1.326-3.923,3.19-4.649C7.069,4.881,7,5.435,7,6
				c0,2.762,2.238,5,5,5h4V9H12z"/>
		</g>
	</g>
</g>
<g id="Row_3_1_">
</g>
<g id="Row_2_1_">
</g>
<g id="Row_1_1_">
</g>
</svg>
