<?xml version="1.0" encoding="utf-8"?>
<!-- Generator: Adobe Illustrator 16.0.0, SVG Export Plug-In . SVG Version: 6.00 Build 0)  -->
<!DOCTYPE svg PUBLIC "-//W3C//DTD SVG 1.1//EN" "http://www.w3.org/Graphics/SVG/1.1/DTD/svg11.dtd">
<svg version="1.1" xmlns="http://www.w3.org/2000/svg" xmlns:xlink="http://www.w3.org/1999/xlink" x="0px" y="0px" width="16px"
	 height="16px" viewBox="0 0 16 16" enable-background="new 0 0 16 16" xml:space="preserve">
<g id="Layer_0_xA0_Image_1_">
</g>
<g id="Row_5_1_">
</g>
<g id="Row_4_1_">
</g>
<g id="Row_3_1_">
</g>
<g id="Row_2_1_">
</g>
<g id="Row_1_1_">
	<g id="certificate">
		<g>
			<path fill="#212121" d="M10,4C7.791,4,6,5.791,6,8c0,1.006,0.386,1.912,1,2.615V15c0,0.553,0.447,1,1,1
				c0.276,0,0.526-0.112,0.707-0.293L10,14.414l1.293,1.293C11.474,15.888,11.724,16,12,16c0.553,0,1-0.447,1-1v-4.385
				C13.613,9.912,14,9.006,14,8C14,5.791,12.209,4,10,4z M11,14l-1-1l-1,1v-2.142C9.321,11.941,9.652,12,10,12s0.679-0.059,1-0.142
				V14z M10,10c-1.104,0-2-0.896-2-2s0.896-2,2-2s2,0.896,2,2S11.104,10,10,10z M15,0H1C0.447,0,0,0.447,0,1v11c0,0.553,0.447,1,1,1
				h4c0.553,0,1-0.447,1-1s-0.447-1-1-1H2V2h12v2c0,0.553,0.447,1,1,1s1-0.447,1-1V1C16,0.447,15.553,0,15,0z"/>
		</g>
	</g>
</g>
</svg>
