<?xml version="1.0" encoding="utf-8"?>
<!-- Generator: Adobe Illustrator 16.0.0, SVG Export Plug-In . SVG Version: 6.00 Build 0)  -->
<!DOCTYPE svg PUBLIC "-//W3C//DTD SVG 1.1//EN" "http://www.w3.org/Graphics/SVG/1.1/DTD/svg11.dtd">
<svg version="1.1" xmlns="http://www.w3.org/2000/svg" xmlns:xlink="http://www.w3.org/1999/xlink" x="0px" y="0px" width="16px"
	 height="16px" viewBox="0 0 16 16" enable-background="new 0 0 16 16" xml:space="preserve">
<g id="Layer_0_xA0_Image_1_">
</g>
<g id="Row_5_1_">
</g>
<g id="Row_4_1_">
</g>
<g id="Row_3_1_">
	<g id="clerk">
		<g>
			<path fill="#212121" d="M4,10c-0.183,0-0.345,0.063-0.492,0.148C1.479,10.798,0,12.761,0,15c0,0.553,0.447,1,1,1s1-0.447,1-1
				c0-1.305,0.838-2.587,2-3c0.553,0,1-0.447,1-1S4.553,10,4,10z M9,10H7c-0.553,0-1,0.447-1,1c0,0.276,0.112,0.526,0.293,0.707l1,1
				C7.474,12.888,7.724,13,8,13s0.526-0.112,0.707-0.293l1-1C9.888,11.526,10,11.276,10,11C10,10.447,9.553,10,9,10z M8,14
				c-0.553,0-1,0.447-1,1s0.447,1,1,1s1-0.447,1-1S8.553,14,8,14z M12.492,10.148C12.345,10.063,12.183,10,12,10
				c-0.553,0-1,0.447-1,1s0.447,1,1,1c1.162,0.413,2,1.695,2,3c0,0.553,0.447,1,1,1s1-0.447,1-1
				C16,12.761,14.521,10.798,12.492,10.148z M11,3c0-1.657-1.343-3-3-3S5,1.343,5,3v2c0,1.657,1.343,3,3,3s3-1.343,3-3V3z M9,5
				c0,0.553-0.447,1-1,1S7,5.553,7,5V3c0-0.553,0.447-1,1-1s1,0.447,1,1V5z"/>
		</g>
	</g>
</g>
<g id="Row_2_1_">
</g>
<g id="Row_1_1_">
</g>
</svg>
