<?xml version="1.0" encoding="utf-8"?>
<!-- Generator: Adobe Illustrator 16.0.0, SVG Export Plug-In . SVG Version: 6.00 Build 0)  -->
<!DOCTYPE svg PUBLIC "-//W3C//DTD SVG 1.1//EN" "http://www.w3.org/Graphics/SVG/1.1/DTD/svg11.dtd">
<svg version="1.1" xmlns="http://www.w3.org/2000/svg" xmlns:xlink="http://www.w3.org/1999/xlink" x="0px" y="0px" width="16px"
	 height="16px" viewBox="0 0 16 16" enable-background="new 0 0 16 16" xml:space="preserve">
<g id="Layer_0_xA0_Image_1_">
</g>
<g id="Row_5_1_">
</g>
<g id="Row_4_1_">
</g>
<g id="Row_3_1_">
	<g id="contract">
		<g>
			<path fill="#212121" d="M13,0H6C4.343,0,3,1.343,3,3v8H1c-0.553,0-1,0.447-1,1v1c0,1.657,1.343,3,3,3h7c1.657,0,3-1.343,3-3V5h2
				c0.553,0,1-0.447,1-1V3C16,1.343,14.657,0,13,0z M3,14c-0.553,0-1-0.447-1-1h1V14z M11,13c0,0.553-0.447,1-1,1H5V3
				c0-0.553,0.447-1,1-1s1,0.447,1,1v1c0,0.553,0.447,1,1,1h3V13z M9,3c0-0.353-0.072-0.686-0.184-1H13c0.553,0,1,0.447,1,1H9z"/>
		</g>
	</g>
</g>
<g id="Row_2_1_">
</g>
<g id="Row_1_1_">
</g>
</svg>
