<?xml version="1.0" encoding="utf-8"?>
<!-- Generator: Adobe Illustrator 16.0.0, SVG Export Plug-In . SVG Version: 6.00 Build 0)  -->
<!DOCTYPE svg PUBLIC "-//W3C//DTD SVG 1.1//EN" "http://www.w3.org/Graphics/SVG/1.1/DTD/svg11.dtd">
<svg version="1.1" xmlns="http://www.w3.org/2000/svg" xmlns:xlink="http://www.w3.org/1999/xlink" x="0px" y="0px" width="16px"
	 height="16px" viewBox="0 0 16 16" enable-background="new 0 0 16 16" xml:space="preserve">
<g id="Layer_0_xA0_Image_1_">
</g>
<g id="Row_5_1_">
	<g id="currency">
		<g>
			<path fill="#212121" d="M8,5c0.553,0,1,0.447,1,1h2c0-1.657-1.343-3-3-3S5,4.343,5,6s1.343,3,3,3c0.553,0,1,0.447,1,1
				s-0.447,1-1,1s-1-0.447-1-1H5c0,1.657,1.343,3,3,3s3-1.343,3-3S9.657,7,8,7C7.447,7,7,6.553,7,6S7.447,5,8,5z M8,0
				C3.582,0,0,3.582,0,8s3.582,8,8,8s8-3.582,8-8S12.418,0,8,0z M8,14c-3.313,0-6-2.687-6-6s2.687-6,6-6s6,2.687,6,6S11.313,14,8,14
				z"/>
		</g>
	</g>
</g>
<g id="Row_4_1_">
</g>
<g id="Row_3_1_">
</g>
<g id="Row_2_1_">
</g>
<g id="Row_1_1_">
</g>
</svg>
