<?xml version="1.0" encoding="utf-8"?>
<!-- Generator: Adobe Illustrator 16.0.0, SVG Export Plug-In . SVG Version: 6.00 Build 0)  -->
<!DOCTYPE svg PUBLIC "-//W3C//DTD SVG 1.1//EN" "http://www.w3.org/Graphics/SVG/1.1/DTD/svg11.dtd">
<svg version="1.1" xmlns="http://www.w3.org/2000/svg" xmlns:xlink="http://www.w3.org/1999/xlink" x="0px" y="0px" width="16px"
	 height="16px" viewBox="0 0 16 16" enable-background="new 0 0 16 16" xml:space="preserve">
<g id="Layer_0_xA0_Image_1_">
</g>
<g id="Row_5_1_">
	<g id="document">
		<g>
			<path fill="#212121" d="M13.707,4.293l-4-4C9.526,0.112,9.276,0,9,0H3C2.447,0,2,0.447,2,1v14c0,0.553,0.447,1,1,1h10
				c0.553,0,1-0.447,1-1V5C14,4.724,13.888,4.474,13.707,4.293z M10,3.414L10.586,4H10V3.414z M12,14H4V2h4v3c0,0.553,0.447,1,1,1h3
				V14z M7,10c-0.553,0-1,0.447-1,1s0.447,1,1,1h2c0.553,0,1-0.447,1-1s-0.447-1-1-1H7z"/>
		</g>
	</g>
</g>
<g id="Row_4_1_">
</g>
<g id="Row_3_1_">
</g>
<g id="Row_2_1_">
</g>
<g id="Row_1_1_">
</g>
</svg>
