<?xml version="1.0" encoding="utf-8"?>
<!-- Generator: Adobe Illustrator 16.0.0, SVG Export Plug-In . SVG Version: 6.00 Build 0)  -->
<!DOCTYPE svg PUBLIC "-//W3C//DTD SVG 1.1//EN" "http://www.w3.org/Graphics/SVG/1.1/DTD/svg11.dtd">
<svg version="1.1" xmlns="http://www.w3.org/2000/svg" xmlns:xlink="http://www.w3.org/1999/xlink" x="0px" y="0px" width="16px"
	 height="16px" viewBox="0 0 16 16" enable-background="new 0 0 16 16" xml:space="preserve">
<g id="Layer_0_xA0_Image_1_">
</g>
<g id="Row_5_1_">
</g>
<g id="Row_4_1_">
</g>
<g id="Row_3_1_">
</g>
<g id="Row_2_1_">
</g>
<g id="Row_1_1_">
	<g id="dress_code_tie">
		<g>
			<path fill="#212121" d="M3.442,1.114l0.005-0.009l-2-1L1.442,0.114C1.308,0.047,1.161,0,1,0C0.447,0,0,0.447,0,1
				c0,0.391,0.23,0.721,0.558,0.886L0.553,1.895l2,1l0.005-0.009C2.692,2.953,2.839,3,3,3c0.553,0,1-0.447,1-1
				C4,1.609,3.77,1.279,3.442,1.114z M10,0H6C5.447,0,5,0.447,5,1c0,0.11,0.029,0.213,0.063,0.313L5.052,1.316l1,3l0.012-0.004
				C6.195,4.709,6.559,5,7,5h2c0.441,0,0.805-0.291,0.937-0.688l0.012,0.004l1-3l-0.012-0.004C10.97,1.213,11,1.11,11,1
				C11,0.447,10.553,0,10,0z M8.279,3H7.721L7.388,2h1.225L8.279,3z M16,1c0-0.553-0.447-1-1-1c-0.161,0-0.308,0.047-0.442,0.114
				l-0.005-0.009l-2,1l0.005,0.009C12.23,1.279,12,1.609,12,2c0,0.553,0.447,1,1,1c0.161,0,0.308-0.047,0.442-0.114l0.005,0.009l2-1
				l-0.005-0.009C15.77,1.721,16,1.391,16,1z M10.948,12.684l-2-6L8.937,6.688C8.805,6.291,8.441,6,8,6S7.195,6.291,7.063,6.688
				L7.052,6.684l-2,6l0.012,0.004C5.029,12.787,5,12.89,5,13c0,0.276,0.112,0.526,0.293,0.707l2,2C7.474,15.888,7.724,16,8,16
				s0.526-0.112,0.707-0.293l2-2C10.888,13.526,11,13.276,11,13c0-0.11-0.03-0.213-0.063-0.313L10.948,12.684z M8,13.586
				l-0.855-0.856L8,10.162l0.855,2.567L8,13.586z"/>
		</g>
	</g>
</g>
</svg>
