<?xml version="1.0" encoding="utf-8"?>
<!-- Generator: Adobe Illustrator 16.0.0, SVG Export Plug-In . SVG Version: 6.00 Build 0)  -->
<!DOCTYPE svg PUBLIC "-//W3C//DTD SVG 1.1//EN" "http://www.w3.org/Graphics/SVG/1.1/DTD/svg11.dtd">
<svg version="1.1" xmlns="http://www.w3.org/2000/svg" xmlns:xlink="http://www.w3.org/1999/xlink" x="0px" y="0px" width="16px"
	 height="16px" viewBox="0 0 16 16" enable-background="new 0 0 16 16" xml:space="preserve">
<g id="Layer_0_xA0_Image_1_">
</g>
<g id="Row_5_1_">
</g>
<g id="Row_4_1_">
	<g id="euro">
		<g>
			<path fill="#212121" d="M14,12c-0.297,0-0.557,0.136-0.74,0.341C12.177,13.401,10.636,14,9,14c-2.215,0-4.129-1.214-5.168-3H8
				c0.553,0,1-0.447,1-1S8.553,9,8,9H3.101C3.046,8.673,3,8.343,3,8s0.046-0.673,0.101-1H8c0.553,0,1-0.447,1-1S8.553,5,8,5H3.832
				C4.871,3.214,6.785,2,9,2c1.636,0,3.177,0.599,4.26,1.659C13.443,3.864,13.703,4,14,4c0.553,0,1-0.447,1-1
				c0-0.276-0.112-0.526-0.293-0.707L14.72,2.28C13.271,0.833,11.209,0,9,0C5.597,0,2.696,2.129,1.541,5.126
				C1.224,5.293,1,5.616,1,6c0,0.182,0.062,0.344,0.146,0.49C1.054,6.979,1,7.483,1,8s0.054,1.021,0.146,1.51
				C1.062,9.656,1,9.818,1,10c0,0.384,0.224,0.707,0.541,0.874C2.696,13.87,5.597,16,9,16c2.209,0,4.271-0.833,5.72-2.28
				l-0.013-0.013C14.888,13.526,15,13.276,15,13C15,12.447,14.553,12,14,12z"/>
		</g>
	</g>
</g>
<g id="Row_3_1_">
</g>
<g id="Row_2_1_">
</g>
<g id="Row_1_1_">
</g>
</svg>
