<?xml version="1.0" encoding="utf-8"?>
<!-- Generator: Adobe Illustrator 16.0.0, SVG Export Plug-In . SVG Version: 6.00 Build 0)  -->
<!DOCTYPE svg PUBLIC "-//W3C//DTD SVG 1.1//EN" "http://www.w3.org/Graphics/SVG/1.1/DTD/svg11.dtd">
<svg version="1.1" xmlns="http://www.w3.org/2000/svg" xmlns:xlink="http://www.w3.org/1999/xlink" x="0px" y="0px" width="16px"
	 height="16px" viewBox="0 0 16 16" enable-background="new 0 0 16 16" xml:space="preserve">
<g id="Layer_0_xA0_Image_1_">
</g>
<g id="Row_5_1_">
</g>
<g id="Row_4_1_">
</g>
<g id="Row_3_1_">
</g>
<g id="Row_2_1_">
</g>
<g id="Row_1_1_">
	<g id="exchange">
		<g>
			<path fill="#212121" d="M6,3H3.414l0.293-0.293C3.888,2.526,4,2.276,4,2c0-0.553-0.447-1-1-1C2.724,1,2.474,1.112,2.293,1.293
				l-2,2C0.112,3.474,0,3.724,0,4s0.112,0.526,0.293,0.707l2,2C2.474,6.888,2.724,7,3,7c0.553,0,1-0.447,1-1
				c0-0.276-0.112-0.526-0.293-0.707L3.414,5H6c0.553,0,1-0.447,1-1S6.553,3,6,3z M4.707,9.293C4.526,9.112,4.276,9,4,9
				c-0.553,0-1,0.447-1,1c0,0.276,0.112,0.526,0.293,0.707L3.586,11H1c-0.553,0-1,0.447-1,1s0.447,1,1,1h2.586l-0.293,0.293
				C3.112,13.474,3,13.724,3,14c0,0.553,0.447,1,1,1c0.276,0,0.526-0.112,0.707-0.293l2-2C6.888,12.526,7,12.276,7,12
				s-0.112-0.526-0.293-0.707L4.707,9.293z M12,7c-1.104,0-2-0.447-2-1s0.896-1,2-1s2,0.447,2,1s0.447,1,1,1s1-0.447,1-1
				c0-1.402-1.268-2.671-3-3V2c0-0.553-0.447-1-1-1s-1,0.447-1,1v1C9.268,3.329,8,4.598,8,6c0,1.657,1.791,3,4,3
				c1.104,0,2,0.447,2,1s-0.896,1-2,1s-2-0.447-2-1S9.553,9,9,9s-1,0.447-1,1c0,1.402,1.268,2.671,3,3v1c0,0.553,0.447,1,1,1
				s1-0.447,1-1v-1c1.732-0.329,3-1.598,3-3C16,8.343,14.209,7,12,7z"/>
		</g>
	</g>
</g>
</svg>
