<?xml version="1.0" encoding="utf-8"?>
<!-- Generator: Adobe Illustrator 16.0.0, SVG Export Plug-In . SVG Version: 6.00 Build 0)  -->
<!DOCTYPE svg PUBLIC "-//W3C//DTD SVG 1.1//EN" "http://www.w3.org/Graphics/SVG/1.1/DTD/svg11.dtd">
<svg version="1.1" xmlns="http://www.w3.org/2000/svg" xmlns:xlink="http://www.w3.org/1999/xlink" x="0px" y="0px" width="16px"
	 height="16px" viewBox="0 0 16 16" enable-background="new 0 0 16 16" xml:space="preserve">
<g id="Layer_0_xA0_Image_1_">
</g>
<g id="Row_5_1_">
</g>
<g id="Row_4_1_">
	<g id="fast_sending">
		<g>
			<path fill="#212121" d="M1.001,7h1c0.553,0,1.001-0.447,1.001-1S2.554,5,2.001,5h-1C0.447,5,0,5.447,0,6S0.447,7,1.001,7z
				 M1.001,3h4.002c0.553,0,1-0.447,1-1s-0.447-1-1-1H1.001C0.447,1,0,1.447,0,2S0.447,3,1.001,3z M1.001,13C0.447,13,0,13.447,0,14
				s0.447,1,1.001,1c0.553,0,1-0.447,1-1S1.554,13,1.001,13z M3.002,9H1.001C0.447,9,0,9.447,0,10s0.447,1,1.001,1h2.001
				c0.553,0,1-0.447,1-1S3.555,9,3.002,9z M15.705,7.989L10,2.272c-0.394-0.395-1.032-0.395-1.426,0L4.296,6.56
				c-0.394,0.395-0.394,1.034,0,1.43L10,13.705c0.394,0.395,1.032,0.395,1.427,0l4.278-4.287
				C16.099,9.023,16.099,8.384,15.705,7.989z M10.713,11.562L6.435,7.274l2.853-2.858l4.278,4.287L10.713,11.562z M9.287,8.703
				c0.395,0.395,1.032,0.395,1.426,0s0.394-1.034,0-1.429s-1.031-0.395-1.426,0S8.893,8.309,9.287,8.703z M7.004,13H5.003
				c-0.554,0-1.001,0.447-1.001,1s0.447,1,1.001,1h2.001c0.553,0,1-0.447,1-1S7.557,13,7.004,13z"/>
		</g>
	</g>
</g>
<g id="Row_3_1_">
</g>
<g id="Row_2_1_">
</g>
<g id="Row_1_1_">
</g>
</svg>
