<?xml version="1.0" encoding="utf-8"?>
<!-- Generator: Adobe Illustrator 16.0.0, SVG Export Plug-In . SVG Version: 6.00 Build 0)  -->
<!DOCTYPE svg PUBLIC "-//W3C//DTD SVG 1.1//EN" "http://www.w3.org/Graphics/SVG/1.1/DTD/svg11.dtd">
<svg version="1.1" xmlns="http://www.w3.org/2000/svg" xmlns:xlink="http://www.w3.org/1999/xlink" x="0px" y="0px" width="16px"
	 height="16px" viewBox="0 0 16 16" enable-background="new 0 0 16 16" xml:space="preserve">
<g id="Layer_0_xA0_Image_1_">
</g>
<g id="Row_5_1_">
</g>
<g id="Row_4_1_">
	<g id="gavel">
		<g>
			<path fill="#212121" d="M15.698,6.863c-0.403-0.403-1.055-0.403-1.458,0L9.138,1.761c0.403-0.403,0.403-1.056,0-1.458
				c-0.402-0.403-1.055-0.403-1.458,0L3.309,4.677c-0.403,0.402-0.403,1.055,0,1.458c0.401,0.401,1.055,0.401,1.457,0l1.844,1.843
				l-6.316,6.317C0.112,14.476,0,14.726,0,15.001C0,15.554,0.446,16,0.999,16c0.276,0,0.525-0.112,0.706-0.293L8.021,9.39
				l1.847,1.848c-0.403,0.402-0.403,1.055,0,1.458c0.402,0.401,1.055,0.401,1.457,0l4.373-4.374
				C16.101,7.918,16.101,7.266,15.698,6.863z M11.325,9.779L6.223,4.677l1.458-1.458l5.102,5.103L11.325,9.779z"/>
		</g>
	</g>
</g>
<g id="Row_3_1_">
</g>
<g id="Row_2_1_">
</g>
<g id="Row_1_1_">
</g>
</svg>
