<?xml version="1.0" encoding="utf-8"?>
<!-- Generator: Adobe Illustrator 16.0.0, SVG Export Plug-In . SVG Version: 6.00 Build 0)  -->
<!DOCTYPE svg PUBLIC "-//W3C//DTD SVG 1.1//EN" "http://www.w3.org/Graphics/SVG/1.1/DTD/svg11.dtd">
<svg version="1.1" xmlns="http://www.w3.org/2000/svg" xmlns:xlink="http://www.w3.org/1999/xlink" x="0px" y="0px" width="16px"
	 height="16px" viewBox="0 0 16 16" enable-background="new 0 0 16 16" xml:space="preserve">
<g id="Layer_0_xA0_Image_1_">
</g>
<g id="Row_5_1_">
	<g id="graph_2_2_">
		<g>
			<path fill="#212121" d="M5,12c0.412,0,0.766-0.25,0.918-0.606h0.001l0.002-0.003c0-0.001,0-0.002,0.001-0.003l2.227-5.196
				l1.994,3.323l0.015-0.009C10.332,9.796,10.637,10,11,10c0.412,0,0.766-0.25,0.918-0.606h0.001l0.002-0.003
				c0-0.001,0-0.002,0.001-0.003l2.997-6.994h-0.001C14.971,2.272,15,2.14,15,2c0-0.553-0.447-1-1-1
				c-0.412,0-0.766,0.25-0.919,0.606l-0.002,0.003c0,0.001,0,0.002-0.001,0.003l-2.227,5.196L8.857,3.485L8.843,3.494
				C8.668,3.204,8.363,3,8,3C7.588,3,7.234,3.25,7.081,3.606L7.079,3.609c0,0.001,0,0.002-0.001,0.003l-2.997,6.994
				C4.029,10.728,4,10.86,4,11C4,11.553,4.447,12,5,12z M15,14H2V1c0-0.553-0.447-1-1-1S0,0.447,0,1v14c0,0.553,0.447,1,1,1h14
				c0.553,0,1-0.447,1-1S15.553,14,15,14z"/>
		</g>
	</g>
</g>
<g id="Row_4_1_">
</g>
<g id="Row_3_1_">
</g>
<g id="Row_2_1_">
</g>
<g id="Row_1_1_">
</g>
</svg>
