<?xml version="1.0" encoding="utf-8"?>
<!-- Generator: Adobe Illustrator 16.0.0, SVG Export Plug-In . SVG Version: 6.00 Build 0)  -->
<!DOCTYPE svg PUBLIC "-//W3C//DTD SVG 1.1//EN" "http://www.w3.org/Graphics/SVG/1.1/DTD/svg11.dtd">
<svg version="1.1" xmlns="http://www.w3.org/2000/svg" xmlns:xlink="http://www.w3.org/1999/xlink" x="0px" y="0px" width="16px"
	 height="16px" viewBox="0 0 16 16" enable-background="new 0 0 16 16" xml:space="preserve">
<g id="Layer_0_xA0_Image_1_">
</g>
<g id="Row_5_1_">
</g>
<g id="Row_4_1_">
</g>
<g id="Row_3_1_">
	<g id="graph">
		<g>
			<path fill="#212121" d="M10,12c0.553,0,1-0.447,1-1V3c0-0.553-0.447-1-1-1S9,2.447,9,3v8C9,11.553,9.447,12,10,12z M14,12
				c0.553,0,1-0.447,1-1V1c0-0.553-0.447-1-1-1s-1,0.447-1,1v10C13,11.553,13.447,12,14,12z M2,12c0.553,0,1-0.447,1-1V7
				c0-0.553-0.447-1-1-1S1,6.447,1,7v4C1,11.553,1.447,12,2,12z M6,12c0.553,0,1-0.447,1-1V5c0-0.553-0.447-1-1-1S5,4.447,5,5v6
				C5,11.553,5.447,12,6,12z M15,14H1c-0.553,0-1,0.447-1,1s0.447,1,1,1h14c0.553,0,1-0.447,1-1S15.553,14,15,14z"/>
		</g>
	</g>
</g>
<g id="Row_2_1_">
</g>
<g id="Row_1_1_">
</g>
</svg>
