<?xml version="1.0" encoding="utf-8"?>
<!-- Generator: Adobe Illustrator 16.0.0, SVG Export Plug-In . SVG Version: 6.00 Build 0)  -->
<!DOCTYPE svg PUBLIC "-//W3C//DTD SVG 1.1//EN" "http://www.w3.org/Graphics/SVG/1.1/DTD/svg11.dtd">
<svg version="1.1" xmlns="http://www.w3.org/2000/svg" xmlns:xlink="http://www.w3.org/1999/xlink" x="0px" y="0px" width="16px"
	 height="16px" viewBox="0 0 16 16" enable-background="new 0 0 16 16" xml:space="preserve">
<g id="Layer_0_xA0_Image_1_">
</g>
<g id="Row_5_1_">
</g>
<g id="Row_4_1_">
</g>
<g id="Row_3_1_">
</g>
<g id="Row_2_1_">
	<g id="insurance">
		<g>
			<path fill="#212121" d="M15,5h-4V1c0-0.276-0.112-0.526-0.293-0.707S10.276,0,10,0H6C5.447,0,5,0.447,5,1v4H1
				C0.447,5,0,5.447,0,6v4c0,0.276,0.112,0.526,0.293,0.707S0.724,11,1,11h4v4c0,0.553,0.447,1,1,1h4c0.414,0,0.77-0.252,0.922-0.61
				C10.972,15.27,11,15.138,11,15v-4h4c0.138,0,0.27-0.028,0.39-0.078C15.748,10.77,16,10.414,16,10V6C16,5.447,15.553,5,15,5z
				 M14,9h-4c-0.553,0-1,0.447-1,1v4H7v-4c0-0.553-0.447-1-1-1H2V7h4c0.553,0,1-0.447,1-1V2h2v4c0,0.553,0.447,1,1,1h4V9z"/>
		</g>
	</g>
</g>
<g id="Row_1_1_">
</g>
</svg>
