<?xml version="1.0" encoding="utf-8"?>
<!-- Generator: Adobe Illustrator 16.0.0, SVG Export Plug-In . SVG Version: 6.00 Build 0)  -->
<!DOCTYPE svg PUBLIC "-//W3C//DTD SVG 1.1//EN" "http://www.w3.org/Graphics/SVG/1.1/DTD/svg11.dtd">
<svg version="1.1" xmlns="http://www.w3.org/2000/svg" xmlns:xlink="http://www.w3.org/1999/xlink" x="0px" y="0px" width="16px"
	 height="16px" viewBox="0 0 16 16" enable-background="new 0 0 16 16" xml:space="preserve">
<g id="Layer_0_xA0_Image_1_">
</g>
<g id="Row_5_1_">
</g>
<g id="Row_4_1_">
</g>
<g id="Row_3_1_">
</g>
<g id="Row_2_1_">
</g>
<g id="Row_1_1_">
	<g id="linked_accounts">
		<g>
			<path fill="#212121" d="M10,7C9.447,7,9,7.447,9,8v6H2V9h1c0.553,0,1-0.447,1-1S3.553,7,3,7H1C0.447,7,0,7.447,0,8v7
				c0,0.553,0.447,1,1,1h9c0.553,0,1-0.447,1-1V8C11,7.447,10.553,7,10,7z M15,0H6C5.447,0,5,0.447,5,1v7c0,0.553,0.447,1,1,1
				s1-0.447,1-1V2h7v5h-1c-0.553,0-1,0.447-1,1s0.447,1,1,1h2c0.553,0,1-0.447,1-1V1C16,0.447,15.553,0,15,0z"/>
		</g>
	</g>
</g>
</svg>
