<?xml version="1.0" encoding="utf-8"?>
<!-- Generator: Adobe Illustrator 16.0.0, SVG Export Plug-In . SVG Version: 6.00 Build 0)  -->
<!DOCTYPE svg PUBLIC "-//W3C//DTD SVG 1.1//EN" "http://www.w3.org/Graphics/SVG/1.1/DTD/svg11.dtd">
<svg version="1.1" xmlns="http://www.w3.org/2000/svg" xmlns:xlink="http://www.w3.org/1999/xlink" x="0px" y="0px" width="16px"
	 height="16px" viewBox="0 0 16 16" enable-background="new 0 0 16 16" xml:space="preserve">
<g id="Layer_0_xA0_Image_1_">
</g>
<g id="Row_5_1_">
</g>
<g id="Row_4_1_">
</g>
<g id="Row_3_1_">
</g>
<g id="Row_2_1_">
</g>
<g id="Row_1_1_">
	<g id="multiple_cards">
		<g>
			<path fill="#212121" d="M15.865,10.64l-0.718-1.209l0.816-3.017c0.146-0.54-0.178-1.095-0.723-1.24l-3.11-0.824L9.838,0.488
				C9.561,0.021,8.947-0.139,8.467,0.131L4.539,2.336L3.393,2.032C2.848,1.887,2.287,2.208,2.141,2.748L1.842,3.851L1.508,4.038
				C1.027,4.309,0.862,4.905,1.14,5.373l0.199,0.336L1.262,5.994H1.001c-0.553,0-1,0.447-1,1v3.94c0.001,0.014-0.002,0.028,0,0.042
				v4.017c0,0.552,0.447,1,1,1h6.945c0.087,0.008,0.172,0.015,0.259,0h4.799c0.553,0,1.001-0.447,1.001-1v-1.338l0.269-0.991
				l1.225-0.688C15.979,11.705,16.143,11.107,15.865,10.64z M8.601,2.311L9.378,3.62L7.268,3.06L8.601,2.311z M3.544,5.384
				l0.074-0.275l0.029-0.017l0.292-0.817L4.73,4.484l0.003-0.001L6.98,5.079l3.461,0.915H3.326L3.544,5.384z M12.004,13.992H2.001
				V7.993h10.003V13.992z"/>
		</g>
	</g>
</g>
</svg>
