<?xml version="1.0" encoding="utf-8"?>
<!-- Generator: Adobe Illustrator 16.0.0, SVG Export Plug-In . SVG Version: 6.00 Build 0)  -->
<!DOCTYPE svg PUBLIC "-//W3C//DTD SVG 1.1//EN" "http://www.w3.org/Graphics/SVG/1.1/DTD/svg11.dtd">
<svg version="1.1" xmlns="http://www.w3.org/2000/svg" xmlns:xlink="http://www.w3.org/1999/xlink" x="0px" y="0px" width="16px"
	 height="16px" viewBox="0 0 16 16" enable-background="new 0 0 16 16" xml:space="preserve">
<g id="Layer_0_xA0_Image_1_">
</g>
<g id="Row_5_1_">
</g>
<g id="Row_4_1_">
</g>
<g id="Row_3_1_">
	<g id="pamflet">
		<g>
			<path fill="#212121" d="M12,2h-1V1c0-0.553-0.447-1-1-1C9.89,0,9.787,0.029,9.688,0.063L9.684,0.052l-6,2l0.004,0.012
				C3.291,2.195,3,2.559,3,3v12c0,0.553,0.447,1,1,1h8c0.553,0,1-0.447,1-1V3C13,2.447,12.553,2,12,2z M11,14H5V4h6V14z M8,8
				c0.553,0,1-0.447,1-1S8.553,6,8,6S7,6.447,7,7S7.447,8,8,8z M7,11h2c0.553,0,1-0.447,1-1S9.553,9,9,9H7c-0.553,0-1,0.447-1,1
				S6.447,11,7,11z"/>
		</g>
	</g>
</g>
<g id="Row_2_1_">
</g>
<g id="Row_1_1_">
</g>
</svg>
