<?xml version="1.0" encoding="utf-8"?>
<!-- Generator: Adobe Illustrator 16.0.0, SVG Export Plug-In . SVG Version: 6.00 Build 0)  -->
<!DOCTYPE svg PUBLIC "-//W3C//DTD SVG 1.1//EN" "http://www.w3.org/Graphics/SVG/1.1/DTD/svg11.dtd">
<svg version="1.1" xmlns="http://www.w3.org/2000/svg" xmlns:xlink="http://www.w3.org/1999/xlink" x="0px" y="0px" width="16px"
	 height="16px" viewBox="0 0 16 16" enable-background="new 0 0 16 16" xml:space="preserve">
<g id="Layer_0_xA0_Image_1_">
</g>
<g id="Row_5_1_">
</g>
<g id="Row_4_1_">
	<g id="pie_chart">
		<g>
			<path fill="#212121" d="M13,8H8V3c0-0.553-0.447-1-1-1C3.134,2,0,5.134,0,9s3.134,7,7,7s7-3.134,7-7C14,8.447,13.553,8,13,8z
				 M7,14c-2.762,0-5-2.238-5-5c0-2.419,1.718-4.436,4-4.899V9c0,0.553,0.447,1,1,1h4.899C11.436,12.282,9.419,14,7,14z M10,0
				C9.447,0,9,0.447,9,1v5c0,0.553,0.447,1,1,1h5c0.553,0,1-0.447,1-1C16,2.687,13.313,0,10,0z M11,5V2.142
				C12.4,2.504,13.494,3.603,13.858,5H11z"/>
		</g>
	</g>
</g>
<g id="Row_3_1_">
</g>
<g id="Row_2_1_">
</g>
<g id="Row_1_1_">
</g>
</svg>
