<?xml version="1.0" encoding="utf-8"?>
<!-- Generator: Adobe Illustrator 16.0.0, SVG Export Plug-In . SVG Version: 6.00 Build 0)  -->
<!DOCTYPE svg PUBLIC "-//W3C//DTD SVG 1.1//EN" "http://www.w3.org/Graphics/SVG/1.1/DTD/svg11.dtd">
<svg version="1.1" xmlns="http://www.w3.org/2000/svg" xmlns:xlink="http://www.w3.org/1999/xlink" x="0px" y="0px" width="16px"
	 height="16px" viewBox="0 0 16 16" enable-background="new 0 0 16 16" xml:space="preserve">
<g id="Layer_0_xA0_Image_1_">
</g>
<g id="Row_5_1_">
</g>
<g id="Row_4_1_">
	<g id="pound">
		<g>
			<path fill="#212121" d="M13,14H6V9h3c0.553,0,1-0.447,1-1S9.553,7,9,7H6V5c0-1.657,1.343-3,3-3s3,1.343,3,3c0,0.553,0.447,1,1,1
				s1-0.447,1-1c0-2.762-2.238-5-5-5S4,2.238,4,5v2H3C2.447,7,2,7.447,2,8s0.447,1,1,1h1v6c0,0.553,0.447,1,1,1h8
				c0.553,0,1-0.447,1-1S13.553,14,13,14z"/>
		</g>
	</g>
</g>
<g id="Row_3_1_">
</g>
<g id="Row_2_1_">
</g>
<g id="Row_1_1_">
</g>
</svg>
