<?xml version="1.0" encoding="utf-8"?>
<!-- Generator: Adobe Illustrator 16.0.0, SVG Export Plug-In . SVG Version: 6.00 Build 0)  -->
<!DOCTYPE svg PUBLIC "-//W3C//DTD SVG 1.1//EN" "http://www.w3.org/Graphics/SVG/1.1/DTD/svg11.dtd">
<svg version="1.1" xmlns="http://www.w3.org/2000/svg" xmlns:xlink="http://www.w3.org/1999/xlink" x="0px" y="0px" width="16px"
	 height="16px" viewBox="0 0 16 16" enable-background="new 0 0 16 16" xml:space="preserve">
<g id="Layer_0_xA0_Image_1_">
</g>
<g id="Row_5_1_">
</g>
<g id="Row_4_1_">
</g>
<g id="Row_3_1_">
</g>
<g id="Row_2_1_">
	<g id="signature">
		<g>
			<path fill="#212121" d="M10.075,13.318c-0.29-0.027-0.564,0.078-0.768,0.27c-0.194-0.18-0.362-0.437-0.553-0.728
				c-0.174-0.267-0.372-0.569-0.621-0.851c-0.345-0.39-0.918-0.451-1.333-0.142c-0.097,0.072-0.183,0.152-0.258,0.237
				c-0.127-0.238-0.29-0.456-0.511-0.632c-0.305-0.244-0.705-0.279-1.037-0.121c-0.183-1.262-0.318-2.704-0.283-2.198
				C4.554,6.904,4.271,5.519,3.291,5.105c-0.239-0.104-0.87-0.272-1.539,0.338C0.55,6.541,0.244,8.579,0.053,10.404
				c-0.106,1.009-0.019,2.717-0.019,2.632c-0.003,0.576,0.446,1.046,1.002,1.049h0.006c0.555,0,1.004-0.463,1.007-1.038
				c0.001-0.062-0.072-1.672,0.006-2.418C2.126,9.958,2.25,8.779,2.563,7.904c0.386,2.769,0.798,5.945,0.798,5.945
				c0.098,0.545,0.23,1.292,0.719,1.824C4.274,15.886,4.54,16,4.812,16c0.117,0,0.236-0.021,0.351-0.065
				c0.268-0.104,0.476-0.316,0.581-0.58c0.207,0.23,0.469,0.416,0.812,0.516c0.515,0.154,1.054-0.143,1.226-0.667
				c0.021-0.062,0.038-0.123,0.054-0.187c0.107,0.111,0.226,0.219,0.356,0.32c0.251,0.193,1.133,0.795,1.973,0.4
				c0.477-0.223,0.777-0.699,0.825-1.304C11.034,13.861,10.626,13.371,10.075,13.318z M15.001,0c-0.421,0-0.777,0.262-0.925,0.63
				l-0.004-0.001l-3.989,9.985l-0.001,0.001c0,0-0.077,0.042-0.077,0.389c0,0.553,0.446,1,0.999,1c0.42,0,0.776-0.262,0.924-0.63
				l0.004,0.001l3.993-10.005C15.972,1.255,16,1.131,16,1C16,0.447,15.553,0,15.001,0z"/>
		</g>
	</g>
</g>
<g id="Row_1_1_">
</g>
</svg>
