<?xml version="1.0" encoding="utf-8"?>
<!-- Generator: Adobe Illustrator 16.0.0, SVG Export Plug-In . SVG Version: 6.00 Build 0)  -->
<!DOCTYPE svg PUBLIC "-//W3C//DTD SVG 1.1//EN" "http://www.w3.org/Graphics/SVG/1.1/DTD/svg11.dtd">
<svg version="1.1" xmlns="http://www.w3.org/2000/svg" xmlns:xlink="http://www.w3.org/1999/xlink" x="0px" y="0px" width="16px"
	 height="16px" viewBox="0 0 16 16" enable-background="new 0 0 16 16" xml:space="preserve">
<g id="Layer_0_xA0_Image_1_">
</g>
<g id="Row_5_1_">
</g>
<g id="Row_4_1_">
</g>
<g id="Row_3_1_">
</g>
<g id="Row_2_1_">
	<g id="sort_list">
		<g>
			<path fill="#212121" d="M1,4h10c0.553,0,1-0.447,1-1s-0.447-1-1-1H1C0.447,2,0,2.447,0,3S0.447,4,1,4z M7,10H1
				c-0.553,0-1,0.447-1,1s0.447,1,1,1h6c0.553,0,1-0.447,1-1S7.553,10,7,10z M9,6H1C0.447,6,0,6.447,0,7s0.447,1,1,1h8
				c0.553,0,1-0.447,1-1S9.553,6,9,6z M15,10c-0.276,0-0.526,0.112-0.707,0.293L14,10.586V6c0-0.553-0.447-1-1-1s-1,0.447-1,1v4.586
				l-0.293-0.293C11.526,10.112,11.276,10,11,10c-0.553,0-1,0.447-1,1c0,0.276,0.112,0.526,0.293,0.707l2,2
				C12.474,13.888,12.724,14,13,14s0.526-0.112,0.707-0.293l2-2C15.888,11.526,16,11.276,16,11C16,10.447,15.553,10,15,10z"/>
		</g>
	</g>
</g>
<g id="Row_1_1_">
</g>
</svg>
