<?xml version="1.0" encoding="utf-8"?>
<!-- Generator: Adobe Illustrator 16.0.0, SVG Export Plug-In . SVG Version: 6.00 Build 0)  -->
<!DOCTYPE svg PUBLIC "-//W3C//DTD SVG 1.1//EN" "http://www.w3.org/Graphics/SVG/1.1/DTD/svg11.dtd">
<svg version="1.1" xmlns="http://www.w3.org/2000/svg" xmlns:xlink="http://www.w3.org/1999/xlink" x="0px" y="0px" width="16px"
	 height="16px" viewBox="0 0 16 16" enable-background="new 0 0 16 16" xml:space="preserve">
<g id="Layer_0_xA0_Image_1_">
</g>
<g id="Row_5_1_">
</g>
<g id="Row_4_1_">
</g>
<g id="Row_3_1_">
	<g id="tie">
		<g>
			<path fill="#212121" d="M11.962,11.726L10.068,5.1l1.826-3.652l-0.009-0.005C11.953,1.308,12,1.161,12,1c0-0.553-0.447-1-1-1H5
				C4.447,0,4,0.447,4,1c0,0.161,0.047,0.308,0.114,0.442L4.105,1.447L5.932,5.1l-1.894,6.626l0.017,0.004
				C4.029,11.817,4,11.904,4,12c0,0.276,0.112,0.526,0.293,0.707l3,3C7.474,15.888,7.724,16,8,16s0.526-0.112,0.707-0.293l3-3
				C11.888,12.526,12,12.276,12,12c0-0.096-0.029-0.183-0.055-0.271L11.962,11.726z M9.382,2l-1,2H7.618l-1-2H9.382z M8,13.586
				l-1.877-1.877L7.754,6h0.492l1.631,5.709L8,13.586z"/>
		</g>
	</g>
</g>
<g id="Row_2_1_">
</g>
<g id="Row_1_1_">
</g>
</svg>
