<?xml version="1.0" encoding="utf-8"?>
<!-- Generator: Adobe Illustrator 16.0.0, SVG Export Plug-In . SVG Version: 6.00 Build 0)  -->
<!DOCTYPE svg PUBLIC "-//W3C//DTD SVG 1.1//EN" "http://www.w3.org/Graphics/SVG/1.1/DTD/svg11.dtd">
<svg version="1.1" xmlns="http://www.w3.org/2000/svg" xmlns:xlink="http://www.w3.org/1999/xlink" x="0px" y="0px" width="16px"
	 height="16px" viewBox="0 0 16 16" enable-background="new 0 0 16 16" xml:space="preserve">
<g id="Layer_0_xA0_Image_1_">
</g>
<g id="Row_5_1_">
</g>
<g id="Row_4_1_">
</g>
<g id="Row_3_1_">
	<g id="valuables">
		<g>
			<path fill="#212121" d="M16,6c0-0.226-0.088-0.423-0.214-0.59L15.8,5.4l-3-4l-0.014,0.01C12.604,1.167,12.327,1,12,1H4
				C3.673,1,3.396,1.167,3.214,1.41L3.2,1.4l-3,4l0.014,0.01C0.088,5.577,0,5.774,0,6c0,0.252,0.102,0.476,0.256,0.651L0.247,6.658
				l7,8l0.009-0.007C7.438,14.861,7.699,15,8,15c0.3,0,0.562-0.139,0.744-0.349l0.009,0.007l7-8l-0.009-0.007
				C15.898,6.476,16,6.252,16,6z M4.5,3h1.219l-0.5,2H3L4.5,3z M3.204,7h2.015l0.807,3.225L3.204,7z M8,9.877L7.281,7h1.438L8,9.877
				z M7.281,5l0.5-2h0.438l0.5,2H7.281z M9.975,10.225L10.781,7h2.015L9.975,10.225z M10.781,5l-0.5-2H11.5L13,5H10.781z"/>
		</g>
	</g>
</g>
<g id="Row_2_1_">
</g>
<g id="Row_1_1_">
</g>
</svg>
