<?xml version="1.0" encoding="utf-8"?>
<!-- Generator: Adobe Illustrator 16.0.0, SVG Export Plug-In . SVG Version: 6.00 Build 0)  -->
<!DOCTYPE svg PUBLIC "-//W3C//DTD SVG 1.1//EN" "http://www.w3.org/Graphics/SVG/1.1/DTD/svg11.dtd">
<svg version="1.1" xmlns="http://www.w3.org/2000/svg" xmlns:xlink="http://www.w3.org/1999/xlink" x="0px" y="0px" width="16px"
	 height="16px" viewBox="0 0 16 16" enable-background="new 0 0 16 16" xml:space="preserve">
<g id="Background_xA0_Image_1_">
</g>
<g id="Row_5_1_">
</g>
<g id="Row_4_1_">
</g>
<g id="Row_3_1_">
</g>
<g id="Row_2_1_">
	<g id="at">
		<g>
			<path fill="#212121" d="M8,0C3.582,0,0,3.582,0,8s3.582,8,8,8c1.286,0,2.498-0.312,3.574-0.851l-0.901-1.804
				C9.864,13.751,8.966,14,8,14c-3.313,0-6-2.687-6-6s2.687-6,6-6c5.676,0,5.994,6,5.994,6C13.994,8.011,14,7.989,14,8
				c0,0.828-0.672,1.5-1.5,1.5c-1.013,0-1.381-0.89-1.5-1.506V6c0-0.553-0.447-1-1-1C9.721,5,9.469,5.116,9.287,5.301
				C8.896,5.113,8.463,5,8,5C6.343,5,5,6.343,5,8s1.343,3,3,3c0.713,0,1.358-0.259,1.873-0.674c0.642,0.718,1.574,1.174,2.627,1.174
				c1.933,0,3.5-1.567,3.5-3.5C16,3.582,12.418,0,8,0z M8,9C7.447,9,7,8.553,7,8s0.447-1,1-1s1,0.447,1,1S8.553,9,8,9z"/>
		</g>
	</g>
</g>
<g id="Row_1_1_">
</g>
</svg>
