<?xml version="1.0" encoding="utf-8"?>
<!-- Generator: Adobe Illustrator 16.0.0, SVG Export Plug-In . SVG Version: 6.00 Build 0)  -->
<!DOCTYPE svg PUBLIC "-//W3C//DTD SVG 1.1//EN" "http://www.w3.org/Graphics/SVG/1.1/DTD/svg11.dtd">
<svg version="1.1" xmlns="http://www.w3.org/2000/svg" xmlns:xlink="http://www.w3.org/1999/xlink" x="0px" y="0px" width="16px"
	 height="16px" viewBox="0 0 16 16" enable-background="new 0 0 16 16" xml:space="preserve">
<g id="Background_xA0_Image_1_">
</g>
<g id="Row_5_1_">
	<g id="beaker">
		<g>
			<path fill-rule="evenodd" clip-rule="evenodd" fill="#212121" d="M6.5,8h1C7.776,8,8,7.776,8,7.5S7.776,7,7.5,7h-1
				C6.224,7,6,7.224,6,7.5S6.224,8,6.5,8z M6.5,5h3C9.776,5,10,4.776,10,4.5S9.776,4,9.5,4h-3C6.224,4,6,4.224,6,4.5S6.224,5,6.5,5z
				 M0,0l2,4v11c0,0.553,0.447,1,1,1h12c0.553,0,1-0.447,1-1V0H0z M14,14H4V2h10V14z M6.5,11h3c0.276,0,0.5-0.224,0.5-0.5
				S9.776,10,9.5,10h-3C6.224,10,6,10.224,6,10.5S6.224,11,6.5,11z"/>
		</g>
	</g>
</g>
<g id="Row_4_1_">
</g>
<g id="Row_3_1_">
</g>
<g id="Row_2_1_">
</g>
<g id="Row_1_1_">
</g>
</svg>
