<?xml version="1.0" encoding="utf-8"?>
<!-- Generator: Adobe Illustrator 16.0.0, SVG Export Plug-In . SVG Version: 6.00 Build 0)  -->
<!DOCTYPE svg PUBLIC "-//W3C//DTD SVG 1.1//EN" "http://www.w3.org/Graphics/SVG/1.1/DTD/svg11.dtd">
<svg version="1.1" xmlns="http://www.w3.org/2000/svg" xmlns:xlink="http://www.w3.org/1999/xlink" x="0px" y="0px" width="16px"
	 height="16px" viewBox="0 0 16 16" enable-background="new 0 0 16 16" xml:space="preserve">
<g id="Background_xA0_Image_1_">
</g>
<g id="Row_5_1_">
</g>
<g id="Row_4_1_">
</g>
<g id="Row_3_1_">
</g>
<g id="Row_2_1_">
	<g id="chip">
		<g>
			<path fill-rule="evenodd" clip-rule="evenodd" fill="#212121" d="M15,9c0.553,0,1-0.447,1-1s-0.447-1-1-1h-1V5h1
				c0.553,0,1-0.447,1-1s-0.447-1-1-1h-1c0-0.553-0.447-1-1-1V1c0-0.553-0.447-1-1-1s-1,0.447-1,1v1H9V1c0-0.553-0.447-1-1-1
				S7,0.447,7,1v1H5V1c0-0.553-0.447-1-1-1S3,0.447,3,1v1C2.447,2,2,2.447,2,3H1C0.447,3,0,3.447,0,4s0.447,1,1,1h1v2H1
				C0.447,7,0,7.447,0,8s0.447,1,1,1h1v2H1c-0.553,0-1,0.447-1,1s0.447,1,1,1h1c0,0.553,0.447,1,1,1v1c0,0.553,0.447,1,1,1
				s1-0.447,1-1v-1h2v1c0,0.553,0.447,1,1,1s1-0.447,1-1v-1h2v1c0,0.553,0.447,1,1,1s1-0.447,1-1v-1c0.553,0,1-0.447,1-1h1
				c0.553,0,1-0.447,1-1s-0.447-1-1-1h-1V9H15z M12,12H4V4h8V12z M10,6H6v4h4V6z"/>
		</g>
	</g>
</g>
<g id="Row_1_1_">
</g>
</svg>
