<?xml version="1.0" encoding="utf-8"?>
<!-- Generator: Adobe Illustrator 16.0.0, SVG Export Plug-In . SVG Version: 6.00 Build 0)  -->
<!DOCTYPE svg PUBLIC "-//W3C//DTD SVG 1.1//EN" "http://www.w3.org/Graphics/SVG/1.1/DTD/svg11.dtd">
<svg version="1.1" xmlns="http://www.w3.org/2000/svg" xmlns:xlink="http://www.w3.org/1999/xlink" x="0px" y="0px" width="16px"
	 height="16px" viewBox="0 0 16 16" enable-background="new 0 0 16 16" xml:space="preserve">
<g id="Background_xA0_Image_1_">
</g>
<g id="Row_5_1_">
</g>
<g id="Row_4_1_">
</g>
<g id="Row_3_1_">
</g>
<g id="Row_2_1_">
</g>
<g id="Row_1_1_">
	<g id="crystals">
		<g>
			<path fill="#212121" d="M1,4v1c0,0.553,0.447,1,1,1s1-0.447,1-1V4c0.553,0,1-0.447,1-1S3.553,2,3,2c0-0.553-0.447-1-1-1
				S1,1.447,1,2C0.447,2,0,2.447,0,3S0.447,4,1,4z M15.707,7.293l-3-3C12.526,4.112,12.276,4,12,4s-0.526,0.112-0.707,0.293
				L11,4.586V3c0-0.276-0.112-0.526-0.293-0.707l-2-2C8.526,0.112,8.276,0,8,0S7.474,0.112,7.293,0.293l-2,2
				C5.112,2.474,5,2.724,5,3v3.586L4.707,6.293C4.526,6.112,4.276,6,4,6S3.474,6.112,3.293,6.293l-3,3C0.112,9.474,0,9.724,0,10v6h2
				v-5.586l2-2l1,1V16h2V3.414l1-1l1,1v3.172L8.293,7.293C8.112,7.474,8,7.724,8,8v8h2V8.414l2-2l2,2V16h2V8
				C16,7.724,15.888,7.474,15.707,7.293z"/>
		</g>
	</g>
</g>
</svg>
