<?xml version="1.0" encoding="utf-8"?>
<!-- Generator: Adobe Illustrator 16.0.0, SVG Export Plug-In . SVG Version: 6.00 Build 0)  -->
<!DOCTYPE svg PUBLIC "-//W3C//DTD SVG 1.1//EN" "http://www.w3.org/Graphics/SVG/1.1/DTD/svg11.dtd">
<svg version="1.1" xmlns="http://www.w3.org/2000/svg" xmlns:xlink="http://www.w3.org/1999/xlink" x="0px" y="0px" width="16px"
	 height="16px" viewBox="0 0 16 16" enable-background="new 0 0 16 16" xml:space="preserve">
<g id="Background_xA0_Image_1_">
</g>
<g id="Row_5_1_">
</g>
<g id="Row_4_1_">
</g>
<g id="Row_3_1_">
</g>
<g id="Row_2_1_">
	<g id="cubesat">
		<g>
			<path fill="#212121" d="M15.57,14.201l0.011-0.015l-5.648-4.035l2.515-1.257l-0.005-0.009c0.037-0.019,0.067-0.047,0.102-0.069
				l0.011,0.016l3-2l-0.01-0.016C15.813,6.638,16,6.347,16,6c0-0.553-0.447-1-1-1c-0.205,0-0.386,0.077-0.545,0.184l-0.01-0.016
				L13,6.132V3c0-0.391-0.23-0.721-0.558-0.886l0.005-0.009l-4-2L8.442,0.114C8.308,0.047,8.161,0,8,0S7.692,0.047,7.558,0.114
				L7.553,0.105l-4,2l0.005,0.009C3.23,2.279,3,2.609,3,3v5c0,0.391,0.23,0.721,0.558,0.886L3.553,8.895l0.603,0.301l-3.78,3.023
				l0.01,0.012C0.156,12.414,0,12.684,0,13c0,0.553,0.447,1,1,1c0.236,0,0.444-0.094,0.615-0.231l0.01,0.013l4.5-3.601l1.357,0.679
				l6.937,4.954l0.011-0.015C14.593,15.916,14.783,16,15,16c0.553,0,1-0.447,1-1C16,14.665,15.824,14.383,15.57,14.201z M7,8.382
				l-2-1V4.618l2,1V8.382z M6.236,3L8,2.118L9.764,3L8,3.882L6.236,3z M9,5.618l2-1v2.764l-2,1V5.618z"/>
		</g>
	</g>
</g>
<g id="Row_1_1_">
</g>
</svg>
