<?xml version="1.0" encoding="utf-8"?>
<!-- Generator: Adobe Illustrator 16.0.0, SVG Export Plug-In . SVG Version: 6.00 Build 0)  -->
<!DOCTYPE svg PUBLIC "-//W3C//DTD SVG 1.1//EN" "http://www.w3.org/Graphics/SVG/1.1/DTD/svg11.dtd">
<svg version="1.1" xmlns="http://www.w3.org/2000/svg" xmlns:xlink="http://www.w3.org/1999/xlink" x="0px" y="0px" width="16px"
	 height="16px" viewBox="0 0 16 16" enable-background="new 0 0 16 16" xml:space="preserve">
<g id="Background_xA0_Image_1_">
</g>
<g id="Row_5_1_">
</g>
<g id="Row_4_1_">
	<g id="DNA">
		<g>
			<path fill="#212121" d="M8,9c2.533,0,5-2.483,5-5V1c0-0.553-0.447-1-1-1c-0.938,0-1,0.734-1,0.734l-6,1.5V1c0-0.553-0.447-1-1-1
				S3,0.447,3,1v3c0,1.079,0.47,2.14,1.188,3.014C4.609,6.5,5.113,6.061,5.675,5.72C5.54,5.551,5.429,5.369,5.33,5.183L11,3.766V4
				c0,1.459-1.541,3-3,3c-2.49,0-5,2.51-5,5v3c0,0.553,0.447,1,1,1c0.681,0,1-0.734,1-0.734l6-1.5V15c0,0.553,0.447,1,1,1
				s1-0.447,1-1v-3c0-1.062-0.472-2.114-1.188-2.986c-0.418,0.508-0.918,0.941-1.477,1.276c0.131,0.166,0.24,0.344,0.337,0.526
				L5,12.234V12C5,10.51,6.572,9,8,9z M5.024,4.229C5.016,4.152,5,4.076,5,4V3.266l6-1.5v0.969L5.024,4.229z M10.976,11.771
				C10.984,11.848,11,11.924,11,12v0.734l-6,1.5v-0.969L10.976,11.771z"/>
		</g>
	</g>
</g>
<g id="Row_3_1_">
</g>
<g id="Row_2_1_">
</g>
<g id="Row_1_1_">
</g>
</svg>
