<?xml version="1.0" encoding="utf-8"?>
<!-- Generator: Adobe Illustrator 16.0.0, SVG Export Plug-In . SVG Version: 6.00 Build 0)  -->
<!DOCTYPE svg PUBLIC "-//W3C//DTD SVG 1.1//EN" "http://www.w3.org/Graphics/SVG/1.1/DTD/svg11.dtd">
<svg version="1.1" xmlns="http://www.w3.org/2000/svg" xmlns:xlink="http://www.w3.org/1999/xlink" x="0px" y="0px"
	 width="16.001px" height="16.001px" viewBox="0 0 16.001 16.001" enable-background="new 0 0 16.001 16.001" xml:space="preserve">
<g id="Background_xA0_Image_1_">
</g>
<g id="Row_5_1_">
</g>
<g id="Row_4_1_">
</g>
<g id="Row_3_1_">
</g>
<g id="Row_2_1_">
</g>
<g id="Row_1_1_">
	<g id="eyedropper">
		<g>
			<path fill="#212121" d="M15.141,0.86c-1.148-1.147-3.009-1.147-4.156,0l-0.693,0.692c-0.382-0.382-1.002-0.382-1.385,0
				c-0.383,0.383-0.383,1.003,0,1.386L2.364,9.479c-0.902,0.903-1.08,2.242-0.563,3.334l-1.515,1.516
				c-0.383,0.382-0.383,1.002,0,1.385c0.382,0.383,1.002,0.383,1.385,0l1.516-1.516c1.091,0.519,2.43,0.341,3.333-0.563l6.542-6.541
				c0.382,0.383,1.002,0.383,1.385,0s0.383-1.003,0-1.386l0.693-0.692C16.288,3.869,16.288,2.008,15.141,0.86z M5.136,12.251
				c-0.383,0.382-1.003,0.382-1.386,0c-0.383-0.383-0.383-1.003,0-1.386l6.541-6.541l1.386,1.385L5.136,12.251z M13.755,3.631
				l-1.386,1.386l-1.385-1.386l1.385-1.385c0.383-0.383,1.003-0.383,1.386,0C14.138,2.628,14.138,3.249,13.755,3.631z"/>
		</g>
	</g>
</g>
</svg>
