<?xml version="1.0" encoding="utf-8"?>
<!-- Generator: Adobe Illustrator 16.0.0, SVG Export Plug-In . SVG Version: 6.00 Build 0)  -->
<!DOCTYPE svg PUBLIC "-//W3C//DTD SVG 1.1//EN" "http://www.w3.org/Graphics/SVG/1.1/DTD/svg11.dtd">
<svg version="1.1" xmlns="http://www.w3.org/2000/svg" xmlns:xlink="http://www.w3.org/1999/xlink" x="0px" y="0px" width="16px"
	 height="16px" viewBox="0 0 16 16" enable-background="new 0 0 16 16" xml:space="preserve">
<g id="Background_xA0_Image_1_">
</g>
<g id="Row_5_1_">
</g>
<g id="Row_4_1_">
</g>
<g id="Row_3_1_">
</g>
<g id="Row_2_1_">
</g>
<g id="Row_1_1_">
	<g id="galaxy">
		<g>
			<path fill="#212121" d="M3.207,13.22c-1.842,0.094-2.148-1.243-2.707-1.243c-0.276,0-0.5,0.224-0.5,0.501
				c0,0.276,0.277,0.468,0.497,0.688c0.875,1.103,1.468,1.818,2.604,1.831c0.468,0.035,0.853-0.284,0.896-0.812
				C4.039,13.658,3.676,13.197,3.207,13.22z M4.476,4.904c0.462,0.248,0.972,0.039,1.304-0.351c0.497-0.583,2.744-1.533,4.908-1.533
				C10.661,3.021,11,2.796,11,2.52s-0.4-0.501-0.313-0.501c-2.694,0-5.548,0.104-6.579,1.639C3.823,4.083,4.015,4.658,4.476,4.904z
				 M11.493,11.158c-0.462-0.248-0.972-0.038-1.304,0.351c-0.497,0.583-2.744,1.533-4.908,1.533c0.026,0-0.313,0.224-0.313,0.501
				s0.399,0.501,0.313,0.501c2.694,0,5.548-0.104,6.579-1.639C12.146,11.98,11.954,11.405,11.493,11.158z M10,5.025
				c-2.762,0-4,1.346-4,3.006C6,8.47,6.285,8.832,6.677,8.968C6.462,9.008,6.235,9.034,6,9.034c-1.748,0-3-0.581-3-1.479
				C3,7.06,3.792,7.029,4.5,7.029C5.062,7.029,5,6.38,5,6.528c0-0.277-0.224-0.501-0.5-0.501C2.865,6.027,1,6.225,1,8.031
				c0,2.037,2.238,3.006,5,3.006s4-1.346,4-3.006c0-0.437-0.282-0.798-0.671-0.936C9.543,7.055,9.77,7.029,10,7.029
				c1.558,0,3,0.55,3,1.51c0,0.495-1.5,0.495-1.5,0.495c-0.276,0-0.5,0.224-0.5,0.501s0.224,0.501,0.5,0.501
				c1.646,0,3.5-0.32,3.5-2.004C15,6.089,12.762,5.025,10,5.025z M15.503,2.833c-0.875-1.103-1.468-1.818-2.604-1.831
				c-0.468-0.035-0.853,0.284-0.896,0.812c-0.043,0.528,0.32,0.989,0.789,0.966c1.842-0.094,2.305,1.243,2.707,1.243
				c0.276,0,0.5-0.224,0.5-0.501C16,3.246,15.723,3.054,15.503,2.833z"/>
		</g>
	</g>
</g>
</svg>
