<?xml version="1.0" encoding="utf-8"?>
<!-- Generator: Adobe Illustrator 16.0.0, SVG Export Plug-In . SVG Version: 6.00 Build 0)  -->
<!DOCTYPE svg PUBLIC "-//W3C//DTD SVG 1.1//EN" "http://www.w3.org/Graphics/SVG/1.1/DTD/svg11.dtd">
<svg version="1.1" xmlns="http://www.w3.org/2000/svg" xmlns:xlink="http://www.w3.org/1999/xlink" x="0px" y="0px" width="16px"
	 height="16px" viewBox="0 0 16 16" enable-background="new 0 0 16 16" xml:space="preserve">
<g id="Background_xA0_Image_1_">
</g>
<g id="Row_5_1_">
</g>
<g id="Row_4_1_">
</g>
<g id="Row_3_1_">
</g>
<g id="Row_2_1_">
	<g id="helmet">
		<g>
			<path fill="#212121" d="M14.585,4.269C13.701,1.545,11.4,0,7.992,0C4.597,0,2.29,1.546,1.402,4.271
				C0.547,6.896,1.346,9.981,1.184,9.099C1.857,12.758,4.272,16,7.992,16c3.296,0,5.558-2.547,6.503-5.671
				C15.211,7.959,15.095,5.842,14.585,4.269z M7.992,2c1.994,0,3.883,1.249,4.658,3.248C11.338,5.72,9.732,6,7.992,6
				C4.182,6,4.369,5.744,3.314,5.24C4.057,3.211,6.023,2,7.992,2z M7.992,14c-1.352,0-2.691-0.966-3.647-2.442
				C5.438,11.839,6.676,12,7.992,12s2.554-0.161,3.646-0.442C10.684,13.034,9.344,14,7.992,14z M12.677,9.236
				C11.36,9.715,9.745,10,7.992,10c-1.754,0-3.368-0.285-4.686-0.764c-0.182-0.672-0.299-1.38-0.312-2.118
				C4.365,7.668,6.099,8,7.992,8s3.627-0.332,4.997-0.882C12.977,7.856,12.859,8.564,12.677,9.236z"/>
		</g>
	</g>
</g>
<g id="Row_1_1_">
</g>
</svg>
