<?xml version="1.0" encoding="utf-8"?>
<!-- Generator: Adobe Illustrator 16.0.0, SVG Export Plug-In . SVG Version: 6.00 Build 0)  -->
<!DOCTYPE svg PUBLIC "-//W3C//DTD SVG 1.1//EN" "http://www.w3.org/Graphics/SVG/1.1/DTD/svg11.dtd">
<svg version="1.1" xmlns="http://www.w3.org/2000/svg" xmlns:xlink="http://www.w3.org/1999/xlink" x="0px" y="0px" width="16px"
	 height="16px" viewBox="0 0 16 16" enable-background="new 0 0 16 16" xml:space="preserve">
<g id="Background_xA0_Image_1_">
</g>
<g id="Row_5_1_">
</g>
<g id="Row_4_1_">
</g>
<g id="Row_3_1_">
</g>
<g id="Row_2_1_">
</g>
<g id="Row_1_1_">
	<g id="honeycomb">
		<g>
			<path fill="#212121" d="M12.002,6.647v-4.42L8,0L3.998,2.228v4.42L1,8.316v5.456L5.003,16L8,14.331L10.998,16L15,13.772V8.316
				L12.002,6.647z M7.004,12.723l-2.001,1.084l-2.001-1.084v-3.41l2.001-1.085l2.001,1.085V12.723z M5.999,6.635v-3.41L8,2.14
				l2.001,1.085v3.41L8,7.719L5.999,6.635z M13,12.723l-2.001,1.084l-1.993-1.08V9.309l1.993-1.081L13,9.313V12.723z"/>
		</g>
	</g>
</g>
</svg>
