<?xml version="1.0" encoding="utf-8"?>
<!-- Generator: Adobe Illustrator 16.0.0, SVG Export Plug-In . SVG Version: 6.00 Build 0)  -->
<!DOCTYPE svg PUBLIC "-//W3C//DTD SVG 1.1//EN" "http://www.w3.org/Graphics/SVG/1.1/DTD/svg11.dtd">
<svg version="1.1" xmlns="http://www.w3.org/2000/svg" xmlns:xlink="http://www.w3.org/1999/xlink" x="0px" y="0px" width="16px"
	 height="16px" viewBox="0 0 16 16" enable-background="new 0 0 16 16" xml:space="preserve">
<g id="Background_xA0_Image_1_">
</g>
<g id="Row_5_1_">
</g>
<g id="Row_4_1_">
</g>
<g id="Row_3_1_">
	<g id="lab_coat">
		<g>
			<path fill="#212121" d="M3.5,5C3.224,5,3,5.224,3,5.5v10C3,15.776,3.224,16,3.5,16S4,15.776,4,15.5v-10C4,5.224,3.776,5,3.5,5z
				 M11,0h-1c0,1.104-0.896,2-2,2S6,1.104,6,0H5C1.468,0,0,1.53,0,4v11c0,0.553,0.447,1,1,1s1-0.447,1-1V4c0-1.178,0.854-2,2.469-2
				c0,1.045,1.471,2,2.531,2v12h2V8h1c0.553,0,1-0.447,1-1s-0.447-1-1-1H9V4c1.04,0,2.531-1.009,2.531-2C13.146,2,14,2.791,14,4v11
				c0,0.553,0.447,1,1,1s1-0.447,1-1V4C16,1.562,14.407,0,11,0z M12.5,5C12.224,5,12,5.224,12,5.5v10c0,0.276,0.224,0.5,0.5,0.5
				s0.5-0.224,0.5-0.5v-10C13,5.224,12.776,5,12.5,5z"/>
		</g>
	</g>
</g>
<g id="Row_2_1_">
</g>
<g id="Row_1_1_">
</g>
</svg>
