<?xml version="1.0" encoding="utf-8"?>
<!-- Generator: Adobe Illustrator 16.0.0, SVG Export Plug-In . SVG Version: 6.00 Build 0)  -->
<!DOCTYPE svg PUBLIC "-//W3C//DTD SVG 1.1//EN" "http://www.w3.org/Graphics/SVG/1.1/DTD/svg11.dtd">
<svg version="1.1" xmlns="http://www.w3.org/2000/svg" xmlns:xlink="http://www.w3.org/1999/xlink" x="0px" y="0px" width="16px"
	 height="16px" viewBox="0 0 16 16" enable-background="new 0 0 16 16" xml:space="preserve">
<g id="Background_xA0_Image_1_">
</g>
<g id="Row_5_1_">
	<g id="light_bulb">
		<g>
			<path fill-rule="evenodd" clip-rule="evenodd" fill="#212121" d="M7,15c0,0.553,0.447,1,1,1s1-0.447,1-1c0.553,0,1-0.447,1-1
				v-0.908l-3.955,1.13C6.148,14.664,6.526,15,7,15z M6,12v1.194l4-1.143V12C10,11.977,6,11.993,6,12z M8,0C5.791,0,4,1.791,4,4
				c0,1.477,2,4.307,2,5v1c0,0.553,0.447,1,1,1h2c0.553,0,1-0.447,1-1V9c0-0.693,2-3.523,2-5C12,1.791,10.209,0,8,0z M8.469,8v1H7.5
				V8C7.5,7.185,6,4.738,6,4c0-1.104,0.896-2,2-2s2,0.896,2,2C10,4.738,8.469,7.122,8.469,8z"/>
		</g>
	</g>
</g>
<g id="Row_4_1_">
</g>
<g id="Row_3_1_">
</g>
<g id="Row_2_1_">
</g>
<g id="Row_1_1_">
</g>
</svg>
