<?xml version="1.0" encoding="utf-8"?>
<!-- Generator: Adobe Illustrator 16.0.0, SVG Export Plug-In . SVG Version: 6.00 Build 0)  -->
<!DOCTYPE svg PUBLIC "-//W3C//DTD SVG 1.1//EN" "http://www.w3.org/Graphics/SVG/1.1/DTD/svg11.dtd">
<svg version="1.1" xmlns="http://www.w3.org/2000/svg" xmlns:xlink="http://www.w3.org/1999/xlink" x="0px" y="0px" width="16px"
	 height="15.889px" viewBox="0 0 16 15.889" enable-background="new 0 0 16 15.889" xml:space="preserve">
<g id="Background_xA0_Image_1_">
</g>
<g id="Row_5_1_">
	<g id="microscope">
		<g>
			<path fill="#212121" d="M12,13.889H2v-7c0-0.553,0.447-1,1-1h1.672l3.596,3.596c0.391,0.391,1.023,0.391,1.414,0l1.414-1.414
				c0.391-0.391,0.391-1.023,0-1.414L4.732,0.292c-0.391-0.39-1.023-0.39-1.414,0L1.903,1.707c-0.39,0.391-0.39,1.023,0,1.414
				l0.798,0.798C1.187,4.07,0,5.334,0,6.889v8c0,0.138,0.028,0.27,0.078,0.39c0.152,0.358,0.508,0.61,0.922,0.61h11
				c0.553,0,1-0.447,1-1S12.553,13.889,12,13.889z M4.053,1.449l5.909,5.909L8.97,8.351L3.061,2.441L4.053,1.449z M15,10.889H9
				c-0.553,0-1,0.447-1,1s0.447,1,1,1h6c0.553,0,1-0.447,1-1S15.553,10.889,15,10.889z"/>
		</g>
	</g>
</g>
<g id="Row_4_1_">
</g>
<g id="Row_3_1_">
</g>
<g id="Row_2_1_">
</g>
<g id="Row_1_1_">
</g>
</svg>
