<?xml version="1.0" encoding="utf-8"?>
<!-- Generator: Adobe Illustrator 16.0.0, SVG Export Plug-In . SVG Version: 6.00 Build 0)  -->
<!DOCTYPE svg PUBLIC "-//W3C//DTD SVG 1.1//EN" "http://www.w3.org/Graphics/SVG/1.1/DTD/svg11.dtd">
<svg version="1.1" xmlns="http://www.w3.org/2000/svg" xmlns:xlink="http://www.w3.org/1999/xlink" x="0px" y="0px" width="16px"
	 height="16px" viewBox="0 0 16 16" enable-background="new 0 0 16 16" xml:space="preserve">
<g id="Background_xA0_Image_1_">
</g>
<g id="Row_5_1_">
</g>
<g id="Row_4_1_">
</g>
<g id="Row_3_1_">
	<g id="moon">
		<g>
			<path fill-rule="evenodd" clip-rule="evenodd" fill="#212121" d="M15,7c0,3.037-2.463,5-5.5,5S4,9.537,4,6.5S5.963,1,9,1
				c0.658,0,0.841-1-1-1C3.582,0,0,3.582,0,8s3.582,8,8,8s8-3.582,8-8C16,6.17,15,6.341,15,7z M2.525,4.816
				C0.725,8.957,5.983,15.806,12,13C6.271,16.76-0.42,10.604,2.525,4.816z"/>
		</g>
	</g>
</g>
<g id="Row_2_1_">
</g>
<g id="Row_1_1_">
</g>
</svg>
