<?xml version="1.0" encoding="utf-8"?>
<!-- Generator: Adobe Illustrator 16.0.0, SVG Export Plug-In . SVG Version: 6.00 Build 0)  -->
<!DOCTYPE svg PUBLIC "-//W3C//DTD SVG 1.1//EN" "http://www.w3.org/Graphics/SVG/1.1/DTD/svg11.dtd">
<svg version="1.1" xmlns="http://www.w3.org/2000/svg" xmlns:xlink="http://www.w3.org/1999/xlink" x="0px" y="0px" width="16px"
	 height="16px" viewBox="0 0 16 16" enable-background="new 0 0 16 16" xml:space="preserve">
<g id="Background_xA0_Image_1_">
</g>
<g id="Row_5_1_">
</g>
<g id="Row_4_1_">
</g>
<g id="Row_3_1_">
</g>
<g id="Row_2_1_">
</g>
<g id="Row_1_1_">
	<g id="open_flame">
		<g>
			<path fill="#212121" d="M8,7c2.003,0,3-1.992,3-3c0-2.008-2.56-2.525-3-4C6.81,0.693,5,2.523,5,4C5,5.008,5.997,7,8,7z
				 M7.625,2.406C7.798,2.854,9,3.203,9,4c0,0.444-0.499,1-1,1S7,4.288,7,4C7,3.578,7.39,2.636,7.625,2.406z M12,14h-1V9
				c0-0.553-0.447-1-1-1H6C5.447,8,5,8.447,5,9v5H4c-0.553,0-1,0.447-1,1s0.447,1,1,1h8c0.553,0,1-0.447,1-1S12.553,14,12,14z M9,14
				H7v-4h2V14z"/>
		</g>
	</g>
</g>
</svg>
