<?xml version="1.0" encoding="utf-8"?>
<!-- Generator: Adobe Illustrator 16.0.0, SVG Export Plug-In . SVG Version: 6.00 Build 0)  -->
<!DOCTYPE svg PUBLIC "-//W3C//DTD SVG 1.1//EN" "http://www.w3.org/Graphics/SVG/1.1/DTD/svg11.dtd">
<svg version="1.1" xmlns="http://www.w3.org/2000/svg" xmlns:xlink="http://www.w3.org/1999/xlink" x="0px" y="0px" width="16px"
	 height="16px" viewBox="0 0 16 16" enable-background="new 0 0 16 16" xml:space="preserve">
<g id="Background_xA0_Image_1_">
</g>
<g id="Row_5_1_">
</g>
<g id="Row_4_1_">
</g>
<g id="Row_3_1_">
	<g id="pi">
		<g>
			<path fill="#212121" d="M15,14c-0.553,0-1-0.447-1-1V2h1c0.553,0,1-0.447,1-1s-0.447-1-1-1H3C1.343,0,0,1.343,0,3
				c0,0.553,0.447,1,1,1s1-0.447,1-1s0.447-1,1-1h2c0,10.626-1,12.906-1,13c0,0.084,0.072,1,1,1c0.896,0,0.947-1,1-1
				c0,0.031,0.938-4.52,1-13h5v11c0,1.657,1.343,3,3,3c0.553,0,1-0.447,1-1S15.553,14,15,14z"/>
		</g>
	</g>
</g>
<g id="Row_2_1_">
</g>
<g id="Row_1_1_">
</g>
</svg>
