<?xml version="1.0" encoding="utf-8"?>
<!-- Generator: Adobe Illustrator 16.0.0, SVG Export Plug-In . SVG Version: 6.00 Build 0)  -->
<!DOCTYPE svg PUBLIC "-//W3C//DTD SVG 1.1//EN" "http://www.w3.org/Graphics/SVG/1.1/DTD/svg11.dtd">
<svg version="1.1" xmlns="http://www.w3.org/2000/svg" xmlns:xlink="http://www.w3.org/1999/xlink" x="0px" y="0px" width="16px"
	 height="16px" viewBox="0 0 16 16" enable-background="new 0 0 16 16" xml:space="preserve">
<g id="Background_xA0_Image_1_">
</g>
<g id="Row_5_1_">
</g>
<g id="Row_4_1_">
</g>
<g id="Row_3_1_">
	<g id="psi">
		<g>
			<path fill="#212121" d="M12,0c-0.553,0-1,0.447-1,1v3c0,1.861-0.277,3.412-2,3.858V1c0-0.553-0.447-1-1-1S7,0.447,7,1v6.858
				C5.277,7.412,5,5.861,5,4V1c0-0.553-0.447-1-1-1S3,0.447,3,1v3c0,2.971,1.165,5.421,4,5.899V15c0,0.553,0.447,1,1,1s1-0.447,1-1
				V9.899C11.835,9.421,13,6.971,13,4V1C13,0.447,12.553,0,12,0z"/>
		</g>
	</g>
</g>
<g id="Row_2_1_">
</g>
<g id="Row_1_1_">
</g>
</svg>
