<?xml version="1.0" encoding="utf-8"?>
<!-- Generator: Adobe Illustrator 16.0.0, SVG Export Plug-In . SVG Version: 6.00 Build 0)  -->
<!DOCTYPE svg PUBLIC "-//W3C//DTD SVG 1.1//EN" "http://www.w3.org/Graphics/SVG/1.1/DTD/svg11.dtd">
<svg version="1.1" xmlns="http://www.w3.org/2000/svg" xmlns:xlink="http://www.w3.org/1999/xlink" x="0px" y="0px" width="16px"
	 height="16px" viewBox="0 0 16 16" enable-background="new 0 0 16 16" xml:space="preserve">
<g id="Background_xA0_Image_1_">
</g>
<g id="Row_5_1_">
	<g id="rocket">
		<g>
			<path fill="#212121" d="M11.34,10.015c-0.205-0.003-0.405-0.013-0.601-0.021C10.904,9.228,11,8.552,11,8c0-2.215-1.512-6.961-3-8
				C6.512,1.039,5,5.785,5,8c0,0.541,0.093,1.232,0.252,1.98C5.01,9.986,4.946,9.969,4.688,9.969C3.4,9.969,3,11.119,3,12.5V15
				c0,0.553,0.224,1,0.5,1S4,15.553,4,15v-1c0-2.182,0.793-2.031,1.804-2.005C6.036,12.698,6.303,13.389,6.596,14h2.809
				c0.284-0.593,0.544-1.262,0.771-1.943c0.917-0.03,1.814-0.131,1.814,2.006L12,15c0,0.553,0.224,1,0.5,1s0.5-0.447,0.5-1v-2.438
				C13,11.182,12.542,10.032,11.34,10.015z M8.244,12H7.741C7.417,11.008,7,8.651,7,8c0-0.746,0.324-2.98,1-4.375
				C8.707,5.02,9,7.285,9,8C9,8.637,8.579,10.995,8.244,12z"/>
		</g>
	</g>
</g>
<g id="Row_4_1_">
</g>
<g id="Row_3_1_">
</g>
<g id="Row_2_1_">
</g>
<g id="Row_1_1_">
</g>
</svg>
