<?xml version="1.0" encoding="utf-8"?>
<!-- Generator: Adobe Illustrator 16.0.0, SVG Export Plug-In . SVG Version: 6.00 Build 0)  -->
<!DOCTYPE svg PUBLIC "-//W3C//DTD SVG 1.1//EN" "http://www.w3.org/Graphics/SVG/1.1/DTD/svg11.dtd">
<svg version="1.1" xmlns="http://www.w3.org/2000/svg" xmlns:xlink="http://www.w3.org/1999/xlink" x="0px" y="0px" width="16px"
	 height="16px" viewBox="0 0 16 16" enable-background="new 0 0 16 16" xml:space="preserve">
<g id="Background_xA0_Image_1_">
</g>
<g id="Row_5_1_">
</g>
<g id="Row_4_1_">
</g>
<g id="Row_3_1_">
	<g id="saturn">
		<g>
			<path fill="#212121" d="M15.231,9.473c-0.008-0.02-0.021-0.035-0.031-0.055c-0.021-0.032-0.039-0.078-0.06-0.107
				c-0.001,0.004-0.004,0.006-0.005,0.01c-0.178-0.275-0.473-0.47-0.825-0.47c-0.551,0-0.998,0.446-0.998,0.999
				c0,0.189,0.066,0.355,0.158,0.507c0.615,1.312,0.915,2.697,0.249,3.364c-1.185,1.187-4.707-0.416-7.866-3.58
				C2.692,6.977,1.091,3.45,2.276,2.263c0.679-0.68,2.321-0.17,3.466,0.375c0.004-0.006,0.006-0.012,0.01-0.018
				c0.12,0.052,0.251,0.08,0.39,0.08c0.552,0,0.998-0.447,0.998-0.999c0-0.35-0.19-0.605-0.46-0.756
				c0.013-0.004,0.02-0.01,0.032-0.013C4.695,0.066,2.269-0.594,0.846,0.832c-1.975,1.977-0.375,6.786,3.576,10.741
				c3.949,3.955,8.752,5.558,10.727,3.581C16.517,13.783,16.002,10.728,15.231,9.473z M11.573,10.141c1.58-1.583,1.58-4.147,0-5.729
				c-1.58-1.582-4.141-1.582-5.721,0c-1.58,1.583-1.58,4.146,0,5.729C7.432,11.723,9.993,11.723,11.573,10.141z M7.282,5.843
				c0.79-0.79,2.071-0.79,2.861,0c0.789,0.791,0.789,2.074,0,2.865c-0.79,0.791-2.071,0.791-2.861,0S6.492,6.634,7.282,5.843z"/>
		</g>
	</g>
</g>
<g id="Row_2_1_">
</g>
<g id="Row_1_1_">
</g>
</svg>
