<?xml version="1.0" encoding="utf-8"?>
<!-- Generator: Adobe Illustrator 16.0.0, SVG Export Plug-In . SVG Version: 6.00 Build 0)  -->
<!DOCTYPE svg PUBLIC "-//W3C//DTD SVG 1.1//EN" "http://www.w3.org/Graphics/SVG/1.1/DTD/svg11.dtd">
<svg version="1.1" xmlns="http://www.w3.org/2000/svg" xmlns:xlink="http://www.w3.org/1999/xlink" x="0px" y="0px" width="16px"
	 height="16px" viewBox="0 0 16 16" enable-background="new 0 0 16 16" xml:space="preserve">
<g id="Background_xA0_Image_1_">
</g>
<g id="Row_5_1_">
</g>
<g id="Row_4_1_">
</g>
<g id="Row_3_1_">
</g>
<g id="Row_2_1_">
</g>
<g id="Row_1_1_">
	<g id="scissors">
		<g>
			<path fill="#212121" d="M15.606,11.406c-0.812-1.462-2.607-1.962-4.012-1.119l0.979,1.765c0.469-0.282,1.067-0.115,1.337,0.373
				c0.271,0.487,0.11,1.111-0.357,1.392c-0.066,0.04-0.815,0.569-1.338-0.373L9.129,8.055c1.858-3.253,3.728-6.527,3.728-6.527
				c0.271-0.487,0.11-1.11-0.357-1.392c-0.467-0.281-1.064-0.114-1.334,0.374L7.99,6.066L4.808,0.51
				c-0.27-0.488-0.869-0.654-1.337-0.374C3.002,0.418,2.842,1.041,3.112,1.528c0,0,1.876,3.277,3.739,6.531l-3.075,5.385
				c-0.521,0.942-1.269,0.413-1.335,0.373c-0.467-0.281-0.627-0.904-0.357-1.392c0.27-0.488,0.867-0.654,1.334-0.373l0.977-1.765
				c-1.401-0.844-3.192-0.343-4.002,1.119c-0.809,1.462-0.329,3.331,1.072,4.176c1.39,0.837,3.166,0.393,4.003-1.119
				c-0.016,0.027,1.131-1.979,2.522-4.416c1.395,2.437,2.545,4.443,2.529,4.416c0.839,1.512,2.619,1.956,4.012,1.119
				C15.937,14.737,16.417,12.868,15.606,11.406z"/>
		</g>
	</g>
</g>
</svg>
