<?xml version="1.0" encoding="utf-8"?>
<!-- Generator: Adobe Illustrator 16.0.0, SVG Export Plug-In . SVG Version: 6.00 Build 0)  -->
<!DOCTYPE svg PUBLIC "-//W3C//DTD SVG 1.1//EN" "http://www.w3.org/Graphics/SVG/1.1/DTD/svg11.dtd">
<svg version="1.1" xmlns="http://www.w3.org/2000/svg" xmlns:xlink="http://www.w3.org/1999/xlink" x="0px" y="0px" width="16px"
	 height="15.999px" viewBox="0 0 16 15.999" enable-background="new 0 0 16 15.999" xml:space="preserve">
<g id="Background_xA0_Image_1_">
</g>
<g id="Row_5_1_">
</g>
<g id="Row_4_1_">
</g>
<g id="Row_3_1_">
</g>
<g id="Row_2_1_">
</g>
<g id="Row_1_1_">
	<g id="shots">
		<g>
			<path fill="#212121" d="M15.704,3.148l-2.854-2.854c-0.394-0.393-1.033-0.393-1.427,0c-0.393,0.395-0.393,1.033,0,1.427
				l0.714,0.714l-1.426,1.426L9.284,2.436c-0.395-0.395-1.033-0.395-1.427,0c-0.394,0.394-0.394,1.033,0,1.426L1.722,9.997
				c-0.394,0.394-0.394,1.033,0,1.427l0.713,0.713l-2.14,2.14c-0.395,0.393-0.395,1.033,0,1.426c0.395,0.394,1.033,0.394,1.426,0
				l2.141-2.14l0.714,0.714c0.393,0.393,1.033,0.393,1.426,0l6.134-6.135c0.395,0.395,1.033,0.395,1.427,0
				c0.394-0.395,0.394-1.033,0-1.427l-1.427-1.426l1.427-1.427l0.713,0.713c0.394,0.395,1.033,0.395,1.426,0
				C16.099,4.181,16.099,3.542,15.704,3.148z M5.289,12.137L3.863,10.71l5.421-5.421l1.427,1.426L5.289,12.137z"/>
		</g>
	</g>
</g>
</svg>
