<?xml version="1.0" encoding="utf-8"?>
<!-- Generator: Adobe Illustrator 16.0.0, SVG Export Plug-In . SVG Version: 6.00 Build 0)  -->
<!DOCTYPE svg PUBLIC "-//W3C//DTD SVG 1.1//EN" "http://www.w3.org/Graphics/SVG/1.1/DTD/svg11.dtd">
<svg version="1.1" xmlns="http://www.w3.org/2000/svg" xmlns:xlink="http://www.w3.org/1999/xlink" x="0px" y="0px" width="16px"
	 height="16px" viewBox="0 0 16 16" enable-background="new 0 0 16 16" xml:space="preserve">
<g id="Background_xA0_Image_1_">
</g>
<g id="Row_5_1_">
</g>
<g id="Row_4_1_">
</g>
<g id="Row_3_1_">
</g>
<g id="Row_2_1_">
</g>
<g id="Row_1_1_">
	<g id="shovel">
		<g>
			<path fill="#212121" d="M15.714,3.047l-2.762-2.761c-0.382-0.381-1-0.381-1.381,0c-0.381,0.381-0.381,0.999,0,1.38l0.69,0.69
				L4.666,9.949l-0.69-0.69c-0.381-0.381-1-0.381-1.381,0L0.523,11.33c-1.144,1.143-0.065,4.076,0,4.142
				c0.087,0.086,2.999,1.143,4.143,0L6.738,13.4c0.38-0.381,0.38-0.999,0-1.381L6.047,11.33l7.595-7.594l0.691,0.691
				c0.381,0.381,0.999,0.381,1.381,0C16.095,4.046,16.095,3.428,15.714,3.047z M3.285,14.091c-0.381,0.382-1.345,0.036-1.381,0
				s-0.382-0.999,0-1.38l1.381-1.38l1.381,1.38L3.285,14.091z"/>
		</g>
	</g>
</g>
</svg>
