<?xml version="1.0" encoding="utf-8"?>
<!-- Generator: Adobe Illustrator 16.0.0, SVG Export Plug-In . SVG Version: 6.00 Build 0)  -->
<!DOCTYPE svg PUBLIC "-//W3C//DTD SVG 1.1//EN" "http://www.w3.org/Graphics/SVG/1.1/DTD/svg11.dtd">
<svg version="1.1" xmlns="http://www.w3.org/2000/svg" xmlns:xlink="http://www.w3.org/1999/xlink" x="0px" y="0px" width="16px"
	 height="16px" viewBox="0 0 16 16" enable-background="new 0 0 16 16" xml:space="preserve">
<g id="Background_xA0_Image_1_">
</g>
<g id="Row_5_1_">
</g>
<g id="Row_4_1_">
</g>
<g id="Row_3_1_">
	<g id="summation">
		<g>
			<path fill="#212121" d="M13,3c0.553,0,1-0.447,1-1V1c0-0.553-0.447-1-1-1H3C2.447,0,2,0.447,2,1c0,0.181,0.062,0.342,0.146,0.488
				L2.132,1.496L5.849,8l-3.717,6.504l0.014,0.008C2.062,14.658,2,14.819,2,15c0,0.553,0.447,1,1,1h10c0.553,0,1-0.447,1-1v-1
				c0-0.553-0.447-1-1-1s-1,0.447-1,1H4.724l3.145-5.504L7.854,8.488C7.938,8.342,8,8.181,8,8c0-0.182-0.062-0.342-0.146-0.488
				l0.014-0.008L4.724,2H12C12,2.553,12.447,3,13,3z"/>
		</g>
	</g>
</g>
<g id="Row_2_1_">
</g>
<g id="Row_1_1_">
</g>
</svg>
