<?xml version="1.0" encoding="utf-8"?>
<!-- Generator: Adobe Illustrator 16.0.0, SVG Export Plug-In . SVG Version: 6.00 Build 0)  -->
<!DOCTYPE svg PUBLIC "-//W3C//DTD SVG 1.1//EN" "http://www.w3.org/Graphics/SVG/1.1/DTD/svg11.dtd">
<svg version="1.1" xmlns="http://www.w3.org/2000/svg" xmlns:xlink="http://www.w3.org/1999/xlink" x="0px" y="0px"
	 width="15.999px" height="16px" viewBox="0 0 15.999 16" enable-background="new 0 0 15.999 16" xml:space="preserve">
<g id="Background_xA0_Image_1_">
</g>
<g id="Row_5_1_">
</g>
<g id="Row_4_1_">
</g>
<g id="Row_3_1_">
	<g id="telescope">
		<g>
			<path fill-rule="evenodd" clip-rule="evenodd" fill="#212121" d="M8.703,9.291C8.521,9.109,8.271,8.997,7.995,8.997
				S7.469,9.109,7.287,9.291l-5.003,5.002C2.103,14.474,1.99,14.724,1.99,15c0,0.553,0.448,1,1.001,1
				c0.276,0,0.526-0.112,0.708-0.293l3.295-3.294V15c0,0.553,0.448,1,1.001,1s1.001-0.447,1.001-1v-2.587l3.295,3.294
				C12.473,15.888,12.723,16,12.999,16C13.552,16,14,15.553,14,15c0-0.276-0.112-0.526-0.294-0.707L8.703,9.291z M15.966,4.86
				l-1.017-4.077c-0.141-0.564-0.678-0.898-1.201-0.747L6.162,2.221c-0.523,0.151-0.834,0.73-0.694,1.293L0.727,4.879
				c-0.522,0.152-0.833,0.73-0.693,1.293l0.508,2.038C0.682,8.774,1.22,9.108,1.743,8.957l4.741-1.365
				c0.141,0.563,0.678,0.897,1.202,0.746l7.585-2.186C15.795,6.002,16.105,5.424,15.966,4.86z M7.662,6.112L7.524,5.615L2.068,7.257
				L1.802,6.293l5.455-1.643L7.128,4.184l6.252-1.773l0.534,1.929L7.662,6.112z"/>
		</g>
	</g>
</g>
<g id="Row_2_1_">
</g>
<g id="Row_1_1_">
</g>
</svg>
