<?xml version="1.0" encoding="utf-8"?>
<!-- Generator: Adobe Illustrator 16.0.0, SVG Export Plug-In . SVG Version: 6.00 Build 0)  -->
<!DOCTYPE svg PUBLIC "-//W3C//DTD SVG 1.1//EN" "http://www.w3.org/Graphics/SVG/1.1/DTD/svg11.dtd">
<svg version="1.1" xmlns="http://www.w3.org/2000/svg" xmlns:xlink="http://www.w3.org/1999/xlink" x="0px" y="0px" width="16px"
	 height="16px" viewBox="0 0 16 16" enable-background="new 0 0 16 16" xml:space="preserve">
<g id="Background_xA0_Image_1_">
</g>
<g id="Row_5_1_">
</g>
<g id="Row_4_1_">
	<g id="theta">
		<g>
			<path fill="#212121" d="M11,7H5C4.447,7,4,7.447,4,8s0.447,1,1,1h6c0.553,0,1-0.447,1-1S11.553,7,11,7z M8,0C4.134,0,1,3.582,1,8
				s3.134,8,7,8s7-3.582,7-8S11.866,0,8,0z M8,14c-2.762,0-5-2.687-5-6s2.238-6,5-6s5,2.687,5,6S10.762,14,8,14z"/>
		</g>
	</g>
</g>
<g id="Row_3_1_">
</g>
<g id="Row_2_1_">
</g>
<g id="Row_1_1_">
</g>
</svg>
