<?xml version="1.0" encoding="utf-8"?>
<!-- Generator: Adobe Illustrator 16.0.0, SVG Export Plug-In . SVG Version: 6.00 Build 0)  -->
<!DOCTYPE svg PUBLIC "-//W3C//DTD SVG 1.1//EN" "http://www.w3.org/Graphics/SVG/1.1/DTD/svg11.dtd">
<svg version="1.1" xmlns="http://www.w3.org/2000/svg" xmlns:xlink="http://www.w3.org/1999/xlink" x="0px" y="0px" width="16px"
	 height="16px" viewBox="0 0 16 16" enable-background="new 0 0 16 16" xml:space="preserve">
<g id="Background_xA0_Image_1_">
</g>
<g id="Row_5_1_">
</g>
<g id="Row_4_1_">
</g>
<g id="Row_3_1_">
</g>
<g id="Row_2_1_">
	<g id="toxic">
		<g>
			<path fill-rule="evenodd" clip-rule="evenodd" fill="#212121" d="M9.428,12.643l0.308,0.62c-0.563,0.369-1.007,0.618-1.72,0.618
				s-1.158-0.25-1.72-0.618l0.308-0.62c-0.438-0.139-0.851-0.338-1.231-0.587l-1.594,2.666C5.008,15.527,6.458,16,8.016,16
				s3.008-0.473,4.238-1.279l-1.594-2.666C10.279,12.305,9.866,12.504,9.428,12.643z M8.016,10.771c1.658,0,3.001-1.404,3.001-3.138
				c0-1.733-1.343-3.137-3.001-3.137S5.015,5.9,5.015,7.633C5.015,9.367,6.358,10.771,8.016,10.771z M8.016,6.587
				c0.553,0,1,0.468,1,1.046s-0.448,1.046-1,1.046s-1-0.468-1-1.046S7.463,6.587,8.016,6.587z M14.935,3.23
				c-0.78-1.411-1.896-2.487-3.178-3.198l-1.411,2.776c0.396,0.22,0.769,0.494,1.102,0.822l0.36-0.59
				c0.586,0.326,1.015,0.604,1.372,1.249c0.357,0.646,0.373,1.173,0.349,1.867l-0.668,0.03c0.104,0.467,0.146,0.94,0.13,1.41
				l3.005,0.109C16.046,6.19,15.713,4.641,14.935,3.23z M4.192,3.008l0.36,0.59c0.333-0.328,0.705-0.603,1.102-0.822L4.243,0
				C2.961,0.711,1.845,1.787,1.065,3.198c-0.778,1.411-1.111,2.96-1.06,4.476L3.01,7.564c-0.016-0.47,0.025-0.943,0.13-1.41
				l-0.668-0.03C2.448,5.43,2.464,4.903,2.821,4.257C3.177,3.611,3.606,3.333,4.192,3.008z"/>
		</g>
	</g>
</g>
<g id="Row_1_1_">
</g>
</svg>
