<?xml version="1.0" encoding="utf-8"?>
<!-- Generator: Adobe Illustrator 16.0.0, SVG Export Plug-In . SVG Version: 6.00 Build 0)  -->
<!DOCTYPE svg PUBLIC "-//W3C//DTD SVG 1.1//EN" "http://www.w3.org/Graphics/SVG/1.1/DTD/svg11.dtd">
<svg version="1.1" xmlns="http://www.w3.org/2000/svg" xmlns:xlink="http://www.w3.org/1999/xlink" x="0px" y="0px" width="16px"
	 height="16px" viewBox="0 0 16 16" enable-background="new 0 0 16 16" xml:space="preserve">
<g id="Background_xA0_Image_1_">
</g>
<g id="Row_5_1_">
	<g id="U_tube">
		<g>
			<path fill="#212121" d="M15,0h-4c-0.553,0-1,0.447-1,1v7c0,1.104-0.896,2-2,2S6,9.104,6,8V1c0-0.553-0.447-1-1-1H1
				C0.447,0,0,0.447,0,1v7c0,4.418,3.582,8,8,8s8-3.582,8-8V1C16,0.447,15.553,0,15,0z M14,8c0,3.313-2.687,6-6,6s-6-2.687-6-6V2h2
				v6c0,2.209,1.791,4,4,4s4-1.791,4-4V2h2V8z"/>
		</g>
	</g>
</g>
<g id="Row_4_1_">
</g>
<g id="Row_3_1_">
</g>
<g id="Row_2_1_">
</g>
<g id="Row_1_1_">
</g>
</svg>
