<?xml version="1.0" encoding="utf-8"?>
<!-- Generator: Adobe Illustrator 16.0.0, SVG Export Plug-In . SVG Version: 6.00 Build 0)  -->
<!DOCTYPE svg PUBLIC "-//W3C//DTD SVG 1.1//EN" "http://www.w3.org/Graphics/SVG/1.1/DTD/svg11.dtd">
<svg version="1.1" xmlns="http://www.w3.org/2000/svg" xmlns:xlink="http://www.w3.org/1999/xlink" x="0px" y="0px" width="16px"
	 height="16px" viewBox="0 0 16 16" enable-background="new 0 0 16 16" xml:space="preserve">
<g id="Layer_0_xA0_Image_1_">
</g>
<g id="Row_5_1_">
</g>
<g id="Row_4_1_">
	<g id="back">
		<g>
			<path fill="#212121" d="M1,0C0.447,0,0,0.447,0,1v14c0,0.553,0.447,1,1,1s1-0.447,1-1V1C2,0.447,1.553,0,1,0z M15,0
				c-0.394,0-0.537,0.156-0.537,0.156l-11,7l0.01,0.016C3.195,7.35,3,7.646,3,8c0,0.673,0.463,0.844,0.463,0.844l11,7
				c0,0,0.144,0.156,0.537,0.156c0.553,0,1-0.447,1-1V1C16,0.447,15.553,0,15,0z M14,13.179L5.862,8L14,2.821V13.179z"/>
		</g>
	</g>
</g>
<g id="Row_3_1_">
</g>
<g id="Row_2_1_">
</g>
<g id="Row_1_1_">
</g>
</svg>
