<?xml version="1.0" encoding="utf-8"?>
<!-- Generator: Adobe Illustrator 16.0.0, SVG Export Plug-In . SVG Version: 6.00 Build 0)  -->
<!DOCTYPE svg PUBLIC "-//W3C//DTD SVG 1.1//EN" "http://www.w3.org/Graphics/SVG/1.1/DTD/svg11.dtd">
<svg version="1.1" xmlns="http://www.w3.org/2000/svg" xmlns:xlink="http://www.w3.org/1999/xlink" x="0px" y="0px" width="16px"
	 height="16px" viewBox="0 0 16 16" enable-background="new 0 0 16 16" xml:space="preserve">
<g id="Layer_0_xA0_Image_1_">
</g>
<g id="Row_5_1_">
</g>
<g id="Row_4_1_">
</g>
<g id="Row_3_1_">
</g>
<g id="Row_2_1_">
</g>
<g id="Row_1_1_">
	<g id="camera_filters">
		<g>
			<path fill="#212121" d="M6,4c-3.313,0-6,2.687-6,6s2.687,6,6,6s6-2.687,6-6S9.313,4,6,4z M6,14c-2.209,0-4-1.791-4-4s1.791-4,4-4
				s4,1.791,4,4S8.209,14,6,14z M10,0C8.219,0,6.637,0.791,5.538,2.023C5.691,2.015,5.844,2,6,2c0.823,0,1.618,0.125,2.366,0.356
				C8.865,2.132,9.416,2,10,2c2.209,0,4,1.791,4,4c0,0.584-0.132,1.134-0.356,1.634C13.875,8.382,14,9.177,14,10
				c0,0.156-0.015,0.309-0.023,0.462C15.209,9.363,16,7.781,16,6C16,2.687,13.313,0,10,0z"/>
		</g>
	</g>
</g>
</svg>
