<?xml version="1.0" encoding="utf-8"?>
<!-- Generator: Adobe Illustrator 16.0.0, SVG Export Plug-In . SVG Version: 6.00 Build 0)  -->
<!DOCTYPE svg PUBLIC "-//W3C//DTD SVG 1.1//EN" "http://www.w3.org/Graphics/SVG/1.1/DTD/svg11.dtd">
<svg version="1.1" xmlns="http://www.w3.org/2000/svg" xmlns:xlink="http://www.w3.org/1999/xlink" x="0px" y="0px" width="16px"
	 height="16px" viewBox="0 0 16 16" enable-background="new 0 0 16 16" xml:space="preserve">
<g id="Layer_0_xA0_Image_1_">
</g>
<g id="Row_5_1_">
</g>
<g id="Row_4_1_">
</g>
<g id="Row_3_1_">
	<g id="clapperboard">
		<g>
			<path fill="#212121" d="M8,13.009c0.553,0,1-0.447,1-1s-0.447-1-1-1s-1,0.447-1,1S7.447,13.009,8,13.009z M14,5.009H3V4.775
				l10.24-2.854c0.549-0.141,0.875-0.679,0.729-1.202c-0.147-0.523-0.712-0.835-1.262-0.694L2,3.009
				c-0.488,0-0.877,0.357-0.964,0.82C1.029,3.86,1.021,3.889,1.018,3.92C1.015,3.951,1,3.978,1,4.009v11c0,0.553,0.447,1,1,1h12
				c0.553,0,1-0.447,1-1v-9C15,5.456,14.553,5.009,14,5.009z M13,14.009H3v-4h10V14.009z M13,8.009H3v-1h10V8.009z"/>
		</g>
	</g>
</g>
<g id="Row_2_1_">
</g>
<g id="Row_1_1_">
</g>
</svg>
