<?xml version="1.0" encoding="utf-8"?>
<!-- Generator: Adobe Illustrator 16.0.0, SVG Export Plug-In . SVG Version: 6.00 Build 0)  -->
<!DOCTYPE svg PUBLIC "-//W3C//DTD SVG 1.1//EN" "http://www.w3.org/Graphics/SVG/1.1/DTD/svg11.dtd">
<svg version="1.1" xmlns="http://www.w3.org/2000/svg" xmlns:xlink="http://www.w3.org/1999/xlink" x="0px" y="0px" width="16px"
	 height="16px" viewBox="0 0 16 16" enable-background="new 0 0 16 16" xml:space="preserve">
<g id="Layer_0_xA0_Image_1_">
</g>
<g id="Row_5_1_">
</g>
<g id="Row_4_1_">
</g>
<g id="Row_3_1_">
</g>
<g id="Row_2_1_">
</g>
<g id="Row_1_1_">
	<g id="color_wheel_RGB">
		<g>
			<path fill="#212121" d="M12.96,5.4C12.971,5.266,13,5.137,13,5c0-2.762-2.238-5-5-5S3,2.238,3,5c0,0.138,0.02,0.271,0.03,0.405
				C1.249,6.17,0,7.938,0,10c0,2.762,2.238,5,5,5c1.131,0,2.162-0.39,3-1.022C8.838,14.61,9.869,15,11,15c2.762,0,5-2.238,5-5
				C16,7.935,14.747,6.162,12.96,5.4z M5,13c-1.657,0-3-1.343-3-3c0-1.15,0.654-2.137,1.604-2.641C4.14,8.354,4.994,9.153,6.04,9.6
				C6.029,9.734,6,9.863,6,10c0,0.908,0.261,1.748,0.684,2.482C6.204,12.809,5.624,13,5,13z M5,5c0-1.657,1.343-3,3-3s3,1.343,3,3
				C9.868,5,8.835,5.387,8.003,6.025C7.165,5.391,6.132,5,5,5z M11,13c-0.624,0-1.204-0.191-1.684-0.518
				C9.739,11.748,10,10.908,10,10c0-0.14-0.03-0.271-0.041-0.408c1.038-0.45,1.892-1.244,2.427-2.237C13.341,7.855,14,8.846,14,10
				C14,11.657,12.657,13,11,13z"/>
		</g>
	</g>
</g>
</svg>
