<?xml version="1.0" encoding="utf-8"?>
<!-- Generator: Adobe Illustrator 16.0.0, SVG Export Plug-In . SVG Version: 6.00 Build 0)  -->
<!DOCTYPE svg PUBLIC "-//W3C//DTD SVG 1.1//EN" "http://www.w3.org/Graphics/SVG/1.1/DTD/svg11.dtd">
<svg version="1.1" xmlns="http://www.w3.org/2000/svg" xmlns:xlink="http://www.w3.org/1999/xlink" x="0px" y="0px" width="16px"
	 height="16px" viewBox="0 0 16 16" enable-background="new 0 0 16 16" xml:space="preserve">
<g id="Layer_0_xA0_Image_1_">
</g>
<g id="Row_5_1_">
</g>
<g id="Row_4_1_">
</g>
<g id="Row_3_1_">
	<g id="directing">
		<g>
			<path fill="#212121" d="M15,0c-0.073,0-0.137,0.026-0.205,0.041L14.79,0.022l-14,3l0.005,0.019C0.345,3.139,0,3.521,0,4v4
				c0,0.479,0.345,0.861,0.795,0.959L0.79,8.978l1.475,0.316l-0.18,0.699c-0.429,1.67,0.521,3.387,2.122,3.834l3.863,1.08
				c1.601,0.447,3.245-0.544,3.675-2.214l0.325-1.299l2.72,0.583l0.005-0.019C14.863,11.974,14.927,12,15,12c0.553,0,1-0.447,1-1V1
				C16,0.447,15.553,0,15,0z M9.813,12.153C9.67,12.71,9.121,13.04,8.588,12.892l-3.863-1.081c-0.533-0.148-0.851-0.721-0.707-1.277
				l0.21-0.819l5.881,1.261L9.813,12.153z M14,9.763L2,7.191V4.809l12-2.571V9.763z"/>
		</g>
	</g>
</g>
<g id="Row_2_1_">
</g>
<g id="Row_1_1_">
</g>
</svg>
