<?xml version="1.0" encoding="utf-8"?>
<!-- Generator: Adobe Illustrator 16.0.0, SVG Export Plug-In . SVG Version: 6.00 Build 0)  -->
<!DOCTYPE svg PUBLIC "-//W3C//DTD SVG 1.1//EN" "http://www.w3.org/Graphics/SVG/1.1/DTD/svg11.dtd">
<svg version="1.1" xmlns="http://www.w3.org/2000/svg" xmlns:xlink="http://www.w3.org/1999/xlink" x="0px" y="0px" width="16px"
	 height="16px" viewBox="0 0 16 16" enable-background="new 0 0 16 16" xml:space="preserve">
<g id="Layer_0_xA0_Image_1_">
</g>
<g id="Row_5_1_">
</g>
<g id="Row_4_1_">
</g>
<g id="Row_3_1_">
</g>
<g id="Row_2_1_">
	<g id="equaliser_buttons">
		<g>
			<path fill="#212121" d="M4,2.277V1c0-0.553-0.447-1-1-1S2,0.447,2,1v1.277C1.404,2.624,1,3.262,1,4s0.404,1.376,1,1.723V15
				c0,0.553,0.447,1,1,1s1-0.447,1-1V5.723C4.596,5.376,5,4.738,5,4S4.596,2.624,4,2.277z M14,6.277V1c0-0.553-0.447-1-1-1
				s-1,0.447-1,1v5.277C11.404,6.624,11,7.262,11,8s0.404,1.376,1,1.723V15c0,0.553,0.447,1,1,1s1-0.447,1-1V9.723
				C14.596,9.376,15,8.738,15,8S14.596,6.624,14,6.277z M9,10.277V1c0-0.553-0.447-1-1-1S7,0.447,7,1v9.277
				C6.404,10.624,6,11.262,6,12s0.404,1.376,1,1.723V15c0,0.553,0.447,1,1,1s1-0.447,1-1v-1.277c0.596-0.347,1-0.984,1-1.723
				S9.596,10.624,9,10.277z"/>
		</g>
	</g>
</g>
<g id="Row_1_1_">
</g>
</svg>
