<?xml version="1.0" encoding="utf-8"?>
<!-- Generator: Adobe Illustrator 16.0.0, SVG Export Plug-In . SVG Version: 6.00 Build 0)  -->
<!DOCTYPE svg PUBLIC "-//W3C//DTD SVG 1.1//EN" "http://www.w3.org/Graphics/SVG/1.1/DTD/svg11.dtd">
<svg version="1.1" xmlns="http://www.w3.org/2000/svg" xmlns:xlink="http://www.w3.org/1999/xlink" x="0px" y="0px" width="16px"
	 height="16px" viewBox="0 0 16 16" enable-background="new 0 0 16 16" xml:space="preserve">
<g id="Layer_0_xA0_Image_1_">
</g>
<g id="Row_5_1_">
</g>
<g id="Row_4_1_">
</g>
<g id="Row_3_1_">
</g>
<g id="Row_2_1_">
	<g id="export_from_camera">
		<g>
			<path fill="#212121" d="M13,13H2V5h2c0.391,0,0.721-0.23,0.886-0.558l0.009,0.005L5.618,3h2.764l0.724,1.447l0.009-0.005
				C9.279,4.77,9.609,5,10,5h3c0.553,0,1-0.447,1-1s-0.447-1-1-1h-2.382L9.895,1.553L9.886,1.558C9.721,1.23,9.391,1,9,1H5
				C4.609,1,4.279,1.23,4.114,1.558L4.105,1.553L3.382,3H1C0.447,3,0,3.447,0,4v10c0,0.553,0.447,1,1,1h12c0.553,0,1-0.447,1-1
				S13.553,13,13,13z M7,8c0.553,0,1-0.447,1-1S7.553,6,7,6C5.343,6,4,7.343,4,9s1.343,3,3,3c0.553,0,1-0.447,1-1s-0.447-1-1-1
				S6,9.553,6,9S6.447,8,7,8z M15.707,8.293l-2-2C13.526,6.112,13.276,6,13,6c-0.553,0-1,0.447-1,1c0,0.276,0.112,0.526,0.293,0.707
				L12.586,8H11c-0.553,0-1,0.447-1,1s0.447,1,1,1h1.586l-0.293,0.293C12.112,10.474,12,10.724,12,11c0,0.553,0.447,1,1,1
				c0.276,0,0.526-0.112,0.707-0.293l2-2C15.888,9.526,16,9.276,16,9S15.888,8.474,15.707,8.293z"/>
		</g>
	</g>
</g>
<g id="Row_1_1_">
</g>
</svg>
