<?xml version="1.0" encoding="utf-8"?>
<!-- Generator: Adobe Illustrator 16.0.0, SVG Export Plug-In . SVG Version: 6.00 Build 0)  -->
<!DOCTYPE svg PUBLIC "-//W3C//DTD SVG 1.1//EN" "http://www.w3.org/Graphics/SVG/1.1/DTD/svg11.dtd">
<svg version="1.1" xmlns="http://www.w3.org/2000/svg" xmlns:xlink="http://www.w3.org/1999/xlink" x="0px" y="0px" width="16px"
	 height="16px" viewBox="0 0 16 16" enable-background="new 0 0 16 16" xml:space="preserve">
<g id="Layer_0_xA0_Image_1_">
</g>
<g id="Row_5_1_">
</g>
<g id="Row_4_1_">
	<g id="fast_forward">
		<g>
			<path fill="#212121" d="M16,8c0-0.357-0.197-0.656-0.479-0.833l0.01-0.015l-8-5l-0.01,0.015C7.366,2.07,7.195,2,7,2
				C6.447,2,6,2.447,6,3c0,0.357,0.197,0.656,0.479,0.833L6.47,3.848L13.113,8L6.47,12.152l0.01,0.015C6.197,12.344,6,12.643,6,13
				c0,0.553,0.447,1,1,1c0.195,0,0.366-0.07,0.521-0.167l0.01,0.015l8-5l-0.01-0.015C15.803,8.656,16,8.357,16,8z M9.521,8.833
				C9.803,8.656,10,8.357,10,8S9.803,7.344,9.521,7.167l0.01-0.015l-8-5l-0.01,0.015C1.366,2.07,1.195,2,1,2C0.447,2,0,2.447,0,3v10
				c0,0.553,0.447,1,1,1c0.195,0,0.366-0.07,0.521-0.167l0.01,0.015l8-5L9.521,8.833z M2,11.195V4.805L7.113,8L2,11.195z"/>
		</g>
	</g>
</g>
<g id="Row_3_1_">
</g>
<g id="Row_2_1_">
</g>
<g id="Row_1_1_">
</g>
</svg>
