<?xml version="1.0" encoding="utf-8"?>
<!-- Generator: Adobe Illustrator 16.0.0, SVG Export Plug-In . SVG Version: 6.00 Build 0)  -->
<!DOCTYPE svg PUBLIC "-//W3C//DTD SVG 1.1//EN" "http://www.w3.org/Graphics/SVG/1.1/DTD/svg11.dtd">
<svg version="1.1" xmlns="http://www.w3.org/2000/svg" xmlns:xlink="http://www.w3.org/1999/xlink" x="0px" y="0px" width="16px"
	 height="16px" viewBox="0 0 16 16" enable-background="new 0 0 16 16" xml:space="preserve">
<g id="Layer_0_xA0_Image_1_">
</g>
<g id="Row_5_1_">
</g>
<g id="Row_4_1_">
</g>
<g id="Row_3_1_">
	<g id="film_camera">
		<g>
			<path fill="#212121" d="M15,6c-0.188,0-0.355,0.066-0.506,0.157l-0.009-0.015L11,8.233V8c0-0.553-0.447-1-1-1H1
				C0.447,7,0,7.447,0,8v6c0,0.553,0.447,1,1,1h9c0.553,0,1-0.447,1-1v-0.233l3.485,2.091l0.009-0.015
				C14.645,15.934,14.812,16,15,16c0.553,0,1-0.447,1-1V7C16,6.447,15.553,6,15,6z M9,13H2V9h7V13z M14,13.233l-3-1.8v-0.867l3-1.8
				V13.233z M3,6c0.553,0,1-0.447,1-1S3.553,4,3,4S2,4.447,2,5S2.447,6,3,6z M8,6c1.657,0,3-1.343,3-3S9.657,0,8,0S5,1.343,5,3
				S6.343,6,8,6z M8,2c0.553,0,1,0.447,1,1S8.553,4,8,4S7,3.553,7,3S7.447,2,8,2z"/>
		</g>
	</g>
</g>
<g id="Row_2_1_">
</g>
<g id="Row_1_1_">
</g>
</svg>
