<?xml version="1.0" encoding="utf-8"?>
<!-- Generator: Adobe Illustrator 16.0.0, SVG Export Plug-In . SVG Version: 6.00 Build 0)  -->
<!DOCTYPE svg PUBLIC "-//W3C//DTD SVG 1.1//EN" "http://www.w3.org/Graphics/SVG/1.1/DTD/svg11.dtd">
<svg version="1.1" xmlns="http://www.w3.org/2000/svg" xmlns:xlink="http://www.w3.org/1999/xlink" x="0px" y="0px" width="16px"
	 height="16px" viewBox="0 0 16 16" enable-background="new 0 0 16 16" xml:space="preserve">
<g id="Layer_0_xA0_Image_1_">
</g>
<g id="Row_5_1_">
</g>
<g id="Row_4_1_">
</g>
<g id="Row_3_1_">
	<g id="HD">
		<g>
			<path fill-rule="evenodd" clip-rule="evenodd" fill="#212121" d="M15,2H1C0.447,2,0,2.447,0,3v10c0,0.553,0.447,1,1,1h14
				c0.553,0,1-0.447,1-1V3C16,2.447,15.553,2,15,2z M14,12H2V4h12V12z M10,11c1.657,0,3-1.343,3-3s-1.343-3-3-3C9.447,5,9,5.447,9,6
				v4C9,10.553,9.447,11,10,11z M10.563,7c0.459,0,0.813,0.447,0.813,1s-0.385,1-0.813,1V7z M4,11c0.553,0,1-0.447,1-1V9h1v1
				c0,0.553,0.447,1,1,1s1-0.447,1-1V6c0-0.553-0.447-1-1-1S6,5.447,6,6v1H5V6c0-0.553-0.447-1-1-1S3,5.447,3,6v4
				C3,10.553,3.447,11,4,11z"/>
		</g>
	</g>
</g>
<g id="Row_2_1_">
</g>
<g id="Row_1_1_">
</g>
</svg>
