<?xml version="1.0" encoding="utf-8"?>
<!-- Generator: Adobe Illustrator 16.0.0, SVG Export Plug-In . SVG Version: 6.00 Build 0)  -->
<!DOCTYPE svg PUBLIC "-//W3C//DTD SVG 1.1//EN" "http://www.w3.org/Graphics/SVG/1.1/DTD/svg11.dtd">
<svg version="1.1" xmlns="http://www.w3.org/2000/svg" xmlns:xlink="http://www.w3.org/1999/xlink" x="0px" y="0px" width="16px"
	 height="16px" viewBox="0 0 16 16" enable-background="new 0 0 16 16" xml:space="preserve">
<g id="Layer_0_xA0_Image_1_">
</g>
<g id="Row_5_1_">
	<g id="headphones_large">
		<g>
			<path fill="#212121" d="M15,11V7c0-3.866-3.134-7-7-7S1,3.134,1,7v4c-0.553,0-1,0.447-1,1s0.447,1,1,1h1v1.5
				C2,15.328,2.672,16,3.5,16S5,15.328,5,14.5v-4C5,9.672,4.328,9,3.5,9C3.322,9,3.158,9.045,3,9.101V7c0-2.762,2.238-5,5-5
				s5,2.238,5,5v2.101C12.842,9.045,12.678,9,12.5,9C11.672,9,11,9.672,11,10.5v4c0,0.828,0.672,1.5,1.5,1.5s1.5-0.672,1.5-1.5V13h1
				c0.553,0,1-0.447,1-1S15.553,11,15,11z"/>
		</g>
	</g>
</g>
<g id="Row_4_1_">
</g>
<g id="Row_3_1_">
</g>
<g id="Row_2_1_">
</g>
<g id="Row_1_1_">
</g>
</svg>
