<?xml version="1.0" encoding="utf-8"?>
<!-- Generator: Adobe Illustrator 16.0.0, SVG Export Plug-In . SVG Version: 6.00 Build 0)  -->
<!DOCTYPE svg PUBLIC "-//W3C//DTD SVG 1.1//EN" "http://www.w3.org/Graphics/SVG/1.1/DTD/svg11.dtd">
<svg version="1.1" xmlns="http://www.w3.org/2000/svg" xmlns:xlink="http://www.w3.org/1999/xlink" x="0px" y="0px" width="16px"
	 height="16px" viewBox="0 0 16 16" enable-background="new 0 0 16 16" xml:space="preserve">
<g id="Layer_0_xA0_Image_1_">
</g>
<g id="Row_5_1_">
</g>
<g id="Row_4_1_">
</g>
<g id="Row_3_1_">
</g>
<g id="Row_2_1_">
</g>
<g id="Row_1_1_">
	<g id="lens_length">
		<g>
			<path fill="#212121" d="M15,14H1c-0.553,0-1,0.447-1,1s0.447,1,1,1h14c0.553,0,1-0.447,1-1S15.553,14,15,14z M15,0H7
				C6.724,0,6.474,0.112,6.293,0.293L3.586,3H1C0.447,3,0,3.447,0,4v4c0,0.553,0.447,1,1,1h2.586l2.707,2.707
				C6.474,11.888,6.724,12,7,12h8c0.553,0,1-0.447,1-1V1C16,0.447,15.553,0,15,0z M4,7H2V5h2V7z M8,10H7.414L5,7.586V4.414L7.414,2
				H8V10z M14,10H9V2h5V10z"/>
		</g>
	</g>
</g>
</svg>
