<?xml version="1.0" encoding="utf-8"?>
<!-- Generator: Adobe Illustrator 16.0.0, SVG Export Plug-In . SVG Version: 6.00 Build 0)  -->
<!DOCTYPE svg PUBLIC "-//W3C//DTD SVG 1.1//EN" "http://www.w3.org/Graphics/SVG/1.1/DTD/svg11.dtd">
<svg version="1.1" xmlns="http://www.w3.org/2000/svg" xmlns:xlink="http://www.w3.org/1999/xlink" x="0px" y="0px" width="16px"
	 height="16px" viewBox="0 0 16 16" enable-background="new 0 0 16 16" xml:space="preserve">
<g id="Layer_0_xA0_Image_1_">
</g>
<g id="Row_5_1_">
</g>
<g id="Row_4_1_">
</g>
<g id="Row_3_1_">
</g>
<g id="Row_2_1_">
</g>
<g id="Row_1_1_">
	<g id="lighting">
		<g>
			<path fill="#212121" d="M8,10c-0.553,0-1,0.447-1,1v3c0,0.553,0.447,1,1,1s1-0.447,1-1v-3C9,10.447,8.553,10,8,10z M3.251,9.288
				l-1.938,1.938c-0.405,0.405-0.405,1.063,0,1.469c0.406,0.406,1.063,0.406,1.47,0l1.938-1.938c0.405-0.405,0.405-1.063,0-1.469
				C4.314,8.882,3.657,8.882,3.251,9.288z M12.749,9.288c-0.406-0.406-1.063-0.406-1.47,0c-0.405,0.405-0.405,1.063,0,1.469
				l1.938,1.938c0.406,0.406,1.063,0.406,1.47,0c0.405-0.405,0.405-1.063,0-1.469L12.749,9.288z M13,2c0-0.553-0.447-1-1-1
				s-1,0.447-1,1H5c0-0.553-0.447-1-1-1S3,1.447,3,2C1.343,2,0,3.343,0,5s1.343,3,3,3h10c1.657,0,3-1.343,3-3S14.657,2,13,2z M13,6
				H3C2.447,6,2,5.553,2,5s0.447-1,1-1h10c0.553,0,1,0.447,1,1S13.553,6,13,6z"/>
		</g>
	</g>
</g>
</svg>
