<?xml version="1.0" encoding="utf-8"?>
<!-- Generator: Adobe Illustrator 16.0.0, SVG Export Plug-In . SVG Version: 6.00 Build 0)  -->
<!DOCTYPE svg PUBLIC "-//W3C//DTD SVG 1.1//EN" "http://www.w3.org/Graphics/SVG/1.1/DTD/svg11.dtd">
<svg version="1.1" xmlns="http://www.w3.org/2000/svg" xmlns:xlink="http://www.w3.org/1999/xlink" x="0px" y="0px" width="16px"
	 height="16px" viewBox="0 0 16 16" enable-background="new 0 0 16 16" xml:space="preserve">
<g id="Layer_0_xA0_Image_1_">
</g>
<g id="Row_5_1_">
</g>
<g id="Row_4_1_">
</g>
<g id="Row_3_1_">
</g>
<g id="Row_2_1_">
	<g id="macro">
		<g>
			<path fill="#212121" d="M14,10c-2.419,0-4.436,1.718-4.899,4H9V9.899C11.835,9.421,14,6.971,14,4V1c0-0.553-0.447-1-1-1
				c-2.09,0-3.926,0.714-5,1.794C6.926,0.714,5.09,0,3,0C2.447,0,2,0.447,2,1v3c0,2.971,2.165,5.421,5,5.899V14H6.899
				C6.436,11.718,4.419,10,2,10c-0.553,0-1,0.447-1,1c0,2.762,2.238,5,5,5h4c2.762,0,5-2.238,5-5C15,10.447,14.553,10,14,10z
				 M3.316,12.316c0.595,0.293,1.074,0.772,1.367,1.367C4.089,13.391,3.609,12.911,3.316,12.316z M4,4V2.07C5.723,2.294,7,3.069,7,4
				c0,0.553,0.447,1,1,1s1-0.447,1-1c0-0.931,1.277-1.706,3-1.93V4c0,2.209-1.791,4-4,4S4,6.209,4,4z M11.316,13.684
				c0.293-0.595,0.772-1.074,1.367-1.367C12.391,12.911,11.911,13.391,11.316,13.684z"/>
		</g>
	</g>
</g>
<g id="Row_1_1_">
</g>
</svg>
