<?xml version="1.0" encoding="utf-8"?>
<!-- Generator: Adobe Illustrator 16.0.0, SVG Export Plug-In . SVG Version: 6.00 Build 0)  -->
<!DOCTYPE svg PUBLIC "-//W3C//DTD SVG 1.1//EN" "http://www.w3.org/Graphics/SVG/1.1/DTD/svg11.dtd">
<svg version="1.1" xmlns="http://www.w3.org/2000/svg" xmlns:xlink="http://www.w3.org/1999/xlink" x="0px" y="0px" width="16px"
	 height="16px" viewBox="0 0 16 16" enable-background="new 0 0 16 16" xml:space="preserve">
<g id="Layer_0_xA0_Image_1_">
</g>
<g id="Row_5_1_">
	<g id="microphone">
		<g>
			<path fill="#212121" d="M8.5,5C8.224,5,8,5.224,8,5.5S8.224,6,8.5,6S9,5.776,9,5.5S8.776,5,8.5,5z M7.5,3C7.224,3,7,3.224,7,3.5
				S7.224,4,7.5,4S8,3.776,8,3.5S7.776,3,7.5,3z M12,8V4c0-2.209-1.791-4-4-4S4,1.791,4,4v4c0,1.861,1.277,3.412,3,3.858V14H5
				c-0.553,0-1,0.447-1,1s0.447,1,1,1h6c0.553,0,1-0.447,1-1s-0.447-1-1-1H9v-2.142C10.723,11.412,12,9.861,12,8z M6,4
				c0-1.104,0.896-2,2-2s2,0.896,2,2v3H6V4z M8,10c-0.738,0-1.376-0.404-1.723-1h3.445C9.376,9.596,8.738,10,8,10z"/>
		</g>
	</g>
</g>
<g id="Row_4_1_">
</g>
<g id="Row_3_1_">
</g>
<g id="Row_2_1_">
</g>
<g id="Row_1_1_">
</g>
</svg>
