<?xml version="1.0" encoding="utf-8"?>
<!-- Generator: Adobe Illustrator 16.0.0, SVG Export Plug-In . SVG Version: 6.00 Build 0)  -->
<!DOCTYPE svg PUBLIC "-//W3C//DTD SVG 1.1//EN" "http://www.w3.org/Graphics/SVG/1.1/DTD/svg11.dtd">
<svg version="1.1" xmlns="http://www.w3.org/2000/svg" xmlns:xlink="http://www.w3.org/1999/xlink" x="0px" y="0px" width="16px"
	 height="16px" viewBox="0 0 16 16" enable-background="new 0 0 16 16" xml:space="preserve">
<g id="Layer_0_xA0_Image_1_">
</g>
<g id="Row_5_1_">
	<g id="microphone_off">
		<g>
			<path fill="#212121" d="M6.502,5c-0.276,0-0.5,0.224-0.5,0.5S6.226,6,6.502,6s0.5-0.224,0.5-0.5S6.778,5,6.502,5z M5.502,3
				c-0.276,0-0.5,0.224-0.5,0.5S5.226,4,5.502,4s0.5-0.224,0.5-0.5S5.778,3,5.502,3z M12.359,13l1.357-1.357
				c0.375-0.375,0.375-0.983,0-1.357c-0.374-0.375-0.982-0.375-1.357,0l-1.357,1.357l-1.357-1.357c-0.375-0.375-0.983-0.375-1.357,0
				c-0.375,0.374-0.375,0.982,0,1.357L9.645,13l-1.357,1.357c-0.375,0.375-0.375,0.983,0,1.357c0.374,0.375,0.982,0.375,1.357,0
				l1.357-1.357l1.357,1.357c0.375,0.375,0.983,0.375,1.357,0c0.375-0.374,0.375-0.982,0-1.357L12.359,13z M7.002,11.858
				c0.152-0.039,0.297-0.098,0.441-0.154l-0.967-0.967c-0.213-0.213-0.326-0.476-0.395-0.748C6.055,9.99,6.03,10,6.002,10
				c-0.738,0-1.376-0.404-1.723-1h1.849c0.078-0.191,0.193-0.37,0.349-0.525c0.625-0.625,1.638-0.625,2.263,0l0.979,0.979
				C9.896,9.002,10.002,8.516,10.002,8V4c0-2.209-1.791-4-4-4s-4,1.791-4,4v4c0,1.861,1.277,3.412,3,3.858V14h-2
				c-0.553,0-1,0.447-1,1s0.447,1,1,1h3.083c0.068-0.269,0.182-0.527,0.392-0.737L7.739,14H7.002V11.858z M4.002,4
				c0-1.104,0.896-2,2-2s2,0.896,2,2v3h-4V4z"/>
		</g>
	</g>
</g>
<g id="Row_4_1_">
</g>
<g id="Row_3_1_">
</g>
<g id="Row_2_1_">
</g>
<g id="Row_1_1_">
</g>
</svg>
