<?xml version="1.0" encoding="utf-8"?>
<!-- Generator: Adobe Illustrator 16.0.0, SVG Export Plug-In . SVG Version: 6.00 Build 0)  -->
<!DOCTYPE svg PUBLIC "-//W3C//DTD SVG 1.1//EN" "http://www.w3.org/Graphics/SVG/1.1/DTD/svg11.dtd">
<svg version="1.1" xmlns="http://www.w3.org/2000/svg" xmlns:xlink="http://www.w3.org/1999/xlink" x="0px" y="0px" width="16px"
	 height="16px" viewBox="0 0 16 16" enable-background="new 0 0 16 16" xml:space="preserve">
<g id="Layer_0_xA0_Image_1_">
</g>
<g id="Row_5_1_">
</g>
<g id="Row_4_1_">
	<g id="play">
		<g>
			<path fill="#212121" d="M15,8c0-0.354-0.195-0.65-0.473-0.828l0.01-0.016l-11-7l-0.01,0.016C3.372,0.072,3.198,0,3,0
				C2.447,0,2,0.447,2,1v14c0,0.553,0.447,1,1,1c0.198,0,0.372-0.072,0.527-0.172l0.01,0.016l11-7l-0.01-0.016
				C14.805,8.65,15,8.354,15,8z M4,13.179V2.821L12.138,8L4,13.179z"/>
		</g>
	</g>
</g>
<g id="Row_3_1_">
</g>
<g id="Row_2_1_">
</g>
<g id="Row_1_1_">
</g>
</svg>
