<?xml version="1.0" encoding="utf-8"?>
<!-- Generator: Adobe Illustrator 16.0.0, SVG Export Plug-In . SVG Version: 6.00 Build 0)  -->
<!DOCTYPE svg PUBLIC "-//W3C//DTD SVG 1.1//EN" "http://www.w3.org/Graphics/SVG/1.1/DTD/svg11.dtd">
<svg version="1.1" xmlns="http://www.w3.org/2000/svg" xmlns:xlink="http://www.w3.org/1999/xlink" x="0px" y="0px" width="16px"
	 height="16px" viewBox="0 0 16 16" enable-background="new 0 0 16 16" xml:space="preserve">
<g id="Layer_0_xA0_Image_1_">
</g>
<g id="Row_5_1_">
	<g id="playlist">
		<g>
			<path fill="#212121" d="M1,6h6c0.553,0,1-0.447,1-1S7.553,4,7,4H1C0.447,4,0,4.447,0,5S0.447,6,1,6z M1,2h6c0.553,0,1-0.447,1-1
				S7.553,0,7,0H1C0.447,0,0,0.447,0,1S0.447,2,1,2z M8,9c0-0.553-0.447-1-1-1H1C0.447,8,0,8.447,0,9s0.447,1,1,1h6
				C7.553,10,8,9.553,8,9z M15.124,4.723l-4.433-4.43C10.511,0.112,10.261,0,9.985,0c-0.55,0-0.997,0.447-0.997,1v10.153
				C8.676,11.06,8.343,11,7.991,11C6.34,11,5,12.119,5,13.5S6.34,16,7.991,16c1.652,0,2.992-1.119,2.992-2.5V3.414l2.723,2.73
				c0,0,0.3,0.275,0.3,0.824c0,0.553-0.478,1-1.028,1s-0.997,0.447-0.997,1s0.446,1,0.997,1c1.651,0,3.022-1.343,3.022-3
				C16,6.141,15.665,5.266,15.124,4.723z M7.991,14c-0.551,0-0.997-0.224-0.997-0.5S7.44,13,7.991,13s0.997,0.224,0.997,0.5
				S8.542,14,7.991,14z"/>
		</g>
	</g>
</g>
<g id="Row_4_1_">
</g>
<g id="Row_3_1_">
</g>
<g id="Row_2_1_">
</g>
<g id="Row_1_1_">
</g>
</svg>
