<?xml version="1.0" encoding="utf-8"?>
<!-- Generator: Adobe Illustrator 16.0.0, SVG Export Plug-In . SVG Version: 6.00 Build 0)  -->
<!DOCTYPE svg PUBLIC "-//W3C//DTD SVG 1.1//EN" "http://www.w3.org/Graphics/SVG/1.1/DTD/svg11.dtd">
<svg version="1.1" xmlns="http://www.w3.org/2000/svg" xmlns:xlink="http://www.w3.org/1999/xlink" x="0px" y="0px" width="16px"
	 height="16px" viewBox="0 0 16 16" enable-background="new 0 0 16 16" xml:space="preserve">
<g id="Layer_0_xA0_Image_1_">
</g>
<g id="Row_5_1_">
</g>
<g id="Row_4_1_">
</g>
<g id="Row_3_1_">
</g>
<g id="Row_2_1_">
	<g id="polaroid_2">
		<g>
			<path fill-rule="evenodd" clip-rule="evenodd" fill="#212121" d="M4,9c0.276,0,0.526-0.112,0.707-0.293L7,6.414l2.293,2.293
				C9.474,8.888,9.724,9,10,9c0.553,0,1-0.447,1-1c0-0.169-0.053-0.32-0.126-0.46L11,7.414l0.293,0.293C11.474,7.888,11.724,8,12,8
				c0.553,0,1-0.447,1-1c0-0.276-0.112-0.526-0.293-0.707l-1-1C11.526,5.112,11.276,5,11,5s-0.526,0.112-0.707,0.293L9.5,6.086
				L7.707,4.293C7.526,4.112,7.276,4,7,4S6.474,4.112,6.293,4.293l-3,3C3.112,7.474,3,7.724,3,8C3,8.553,3.447,9,4,9z M15,0H1
				C0.447,0,0,0.447,0,1v14c0,0.553,0.447,1,1,1h14c0.553,0,1-0.447,1-1V1C16,0.447,15.553,0,15,0z M14,14H2v-2h12V14z M14,10H2V2
				h12V10z M9.5,4C9.776,4,10,3.776,10,3.5S9.776,3,9.5,3S9,3.224,9,3.5S9.224,4,9.5,4z"/>
		</g>
	</g>
</g>
<g id="Row_1_1_">
</g>
</svg>
