<?xml version="1.0" encoding="utf-8"?>
<!-- Generator: Adobe Illustrator 16.0.0, SVG Export Plug-In . SVG Version: 6.00 Build 0)  -->
<!DOCTYPE svg PUBLIC "-//W3C//DTD SVG 1.1//EN" "http://www.w3.org/Graphics/SVG/1.1/DTD/svg11.dtd">
<svg version="1.1" xmlns="http://www.w3.org/2000/svg" xmlns:xlink="http://www.w3.org/1999/xlink" x="0px" y="0px" width="16px"
	 height="16px" viewBox="0 0 16 16" enable-background="new 0 0 16 16" xml:space="preserve">
<g id="Layer_0_xA0_Image_1_">
</g>
<g id="Row_5_1_">
</g>
<g id="Row_4_1_">
</g>
<g id="Row_3_1_">
</g>
<g id="Row_2_1_">
	<g id="polaroid">
		<g>
			<path fill="#212121" d="M9,6c0.553,0,1-0.447,1-1S9.553,4,9,4S8,4.447,8,5S8.447,6,9,6z M4,12c0.276,0,0.526-0.112,0.707-0.293
				L7,9.414l2.293,2.293C9.474,11.888,9.724,12,10,12c0.553,0,1-0.447,1-1c0-0.169-0.053-0.32-0.126-0.46L11,10.414l0.293,0.293
				C11.474,10.888,11.724,11,12,11c0.553,0,1-0.447,1-1c0-0.276-0.112-0.526-0.293-0.707l-1-1C11.526,8.112,11.276,8,11,8
				s-0.526,0.112-0.707,0.293L9.5,9.086L7.707,7.293C7.526,7.112,7.276,7,7,7S6.474,7.112,6.293,7.293l-3,3
				C3.112,10.474,3,10.724,3,11C3,11.553,3.447,12,4,12z M15,0H1C0.447,0,0,0.447,0,1v14c0,0.553,0.447,1,1,1h14
				c0.553,0,1-0.447,1-1V1C16,0.447,15.553,0,15,0z M14,13H2V2h12V13z"/>
		</g>
	</g>
</g>
<g id="Row_1_1_">
</g>
</svg>
