<?xml version="1.0" encoding="utf-8"?>
<!-- Generator: Adobe Illustrator 16.0.0, SVG Export Plug-In . SVG Version: 6.00 Build 0)  -->
<!DOCTYPE svg PUBLIC "-//W3C//DTD SVG 1.1//EN" "http://www.w3.org/Graphics/SVG/1.1/DTD/svg11.dtd">
<svg version="1.1" xmlns="http://www.w3.org/2000/svg" xmlns:xlink="http://www.w3.org/1999/xlink" x="0px" y="0px" width="16px"
	 height="16px" viewBox="0 0 16 16" enable-background="new 0 0 16 16" xml:space="preserve">
<g id="Layer_0_xA0_Image_1_">
</g>
<g id="Row_5_1_">
</g>
<g id="Row_4_1_">
</g>
<g id="Row_3_1_">
</g>
<g id="Row_2_1_">
	<g id="single_picture">
		<g>
			<path fill="#212121" d="M4,11c0.276,0,0.526-0.112,0.707-0.293L7,8.414l2.293,2.293C9.474,10.888,9.724,11,10,11
				c0.553,0,1-0.447,1-1c0-0.169-0.053-0.32-0.126-0.46L11,9.414l0.293,0.293C11.474,9.888,11.724,10,12,10c0.553,0,1-0.447,1-1
				c0-0.276-0.112-0.526-0.293-0.707l-1-1C11.526,7.112,11.276,7,11,7s-0.526,0.112-0.707,0.293L9.5,8.086L7.707,6.293
				C7.526,6.112,7.276,6,7,6S6.474,6.112,6.293,6.293l-3,3C3.112,9.474,3,9.724,3,10C3,10.553,3.447,11,4,11z M9.5,6
				C9.776,6,10,5.776,10,5.5S9.776,5,9.5,5S9,5.224,9,5.5S9.224,6,9.5,6z M15,2H1C0.447,2,0,2.447,0,3v10c0,0.553,0.447,1,1,1h14
				c0.553,0,1-0.447,1-1V3C16,2.447,15.553,2,15,2z M14,12H2V4h12V12z"/>
		</g>
	</g>
</g>
<g id="Row_1_1_">
</g>
</svg>
