<?xml version="1.0" encoding="utf-8"?>
<!-- Generator: Adobe Illustrator 16.0.0, SVG Export Plug-In . SVG Version: 6.00 Build 0)  -->
<!DOCTYPE svg PUBLIC "-//W3C//DTD SVG 1.1//EN" "http://www.w3.org/Graphics/SVG/1.1/DTD/svg11.dtd">
<svg version="1.1" xmlns="http://www.w3.org/2000/svg" xmlns:xlink="http://www.w3.org/1999/xlink" x="0px" y="0px" width="16px"
	 height="16px" viewBox="0 0 16 16" enable-background="new 0 0 16 16" xml:space="preserve">
<g id="Layer_0_xA0_Image_1_">
</g>
<g id="Row_5_1_">
</g>
<g id="Row_4_1_">
</g>
<g id="Row_3_1_">
	<g id="tape">
		<g>
			<path fill="#212121" d="M15.187,2.58c-1.326-1.756-3.831-2.099-5.595-0.766L1.607,7.848c-1.765,1.333-2.119,3.838-0.793,5.594
				s3.831,2.1,5.595,0.767s2.119-3.837,0.793-5.594C6.763,8.032,6.188,7.621,5.559,7.359l2.482-1.877
				c0.08,0.677,0.318,1.343,0.758,1.925c1.326,1.757,3.831,2.1,5.595,0.767S16.513,4.337,15.187,2.58z M5.605,9.821
				c0.663,0.878,0.485,2.13-0.396,2.797c-0.882,0.666-2.135,0.495-2.798-0.384c-0.663-0.878-0.485-2.13,0.396-2.797
				C3.689,8.771,4.942,8.943,5.605,9.821z M13.193,6.584c-0.882,0.667-2.135,0.495-2.798-0.383C9.732,5.322,9.91,4.07,10.792,3.404
				c0.882-0.667,2.135-0.495,2.798,0.383S14.075,5.918,13.193,6.584z"/>
		</g>
	</g>
</g>
<g id="Row_2_1_">
</g>
<g id="Row_1_1_">
</g>
</svg>
