<?xml version="1.0" encoding="utf-8"?>
<!-- Generator: Adobe Illustrator 16.0.0, SVG Export Plug-In . SVG Version: 6.00 Build 0)  -->
<!DOCTYPE svg PUBLIC "-//W3C//DTD SVG 1.1//EN" "http://www.w3.org/Graphics/SVG/1.1/DTD/svg11.dtd">
<svg version="1.1" xmlns="http://www.w3.org/2000/svg" xmlns:xlink="http://www.w3.org/1999/xlink" x="0px" y="0px" width="16px"
	 height="16px" viewBox="0 0 16 16" enable-background="new 0 0 16 16" xml:space="preserve">
<g id="Layer_0_xA0_Image_1_">
</g>
<g id="Row_5_1_">
</g>
<g id="Row_4_1_">
</g>
<g id="Row_3_1_">
</g>
<g id="Row_2_1_">
	<g id="tripod">
		<g>
			<path fill="#212121" d="M13.861,12.521l0.013-0.007L9.699,5H10c0.553,0,1-0.447,1-1s-0.447-1-1-1V2c0-0.553-0.447-1-1-1H8V0.5
				C8,0.224,7.776,0,7.5,0S7,0.224,7,0.5V1C6.447,1,6,1.447,6,2v1C5.447,3,5,3.447,5,4s0.447,1,1,1h0.301l-4.175,7.515l0.013,0.007
				C2.059,12.666,2,12.823,2,13c0,0.553,0.447,1,1,1c0.375,0,0.69-0.216,0.861-0.521l0.013,0.007L7,7.859V15c0,0.553,0.447,1,1,1
				s1-0.447,1-1V7.859l3.126,5.626l0.013-0.007C12.31,13.784,12.625,14,13,14c0.553,0,1-0.447,1-1
				C14,12.823,13.941,12.666,13.861,12.521z"/>
		</g>
	</g>
</g>
<g id="Row_1_1_">
</g>
</svg>
