<?xml version="1.0" encoding="utf-8"?>
<!-- Generator: Adobe Illustrator 16.0.0, SVG Export Plug-In . SVG Version: 6.00 Build 0)  -->
<!DOCTYPE svg PUBLIC "-//W3C//DTD SVG 1.1//EN" "http://www.w3.org/Graphics/SVG/1.1/DTD/svg11.dtd">
<svg version="1.1" xmlns="http://www.w3.org/2000/svg" xmlns:xlink="http://www.w3.org/1999/xlink" x="0px" y="0px" width="16px"
	 height="16px" viewBox="0 0 16 16" enable-background="new 0 0 16 16" xml:space="preserve">
<g id="Layer_0_xA0_Image_1_">
</g>
<g id="Row_5_1_">
</g>
<g id="Row_4_1_">
</g>
<g id="Row_3_1_">
	<g id="TV">
		<g>
			<path fill-rule="evenodd" clip-rule="evenodd" fill="#212121" d="M12,13c0.553,0,1-0.447,1-1s-0.447-1-1-1s-1,0.447-1,1
				S11.447,13,12,13z M12,9c0.553,0,1-0.447,1-1s-0.447-1-1-1s-1,0.447-1,1S11.447,9,12,9z M9,7H3v6h6V7z M7,11H5V9h2V11z M15,4
				H9.618l1.276-2.553l-0.009-0.005C10.953,1.308,11,1.161,11,1c0-0.553-0.447-1-1-1C9.609,0,9.279,0.23,9.114,0.558L9.105,0.553
				L8,2.764L6.895,0.553L6.886,0.558C6.721,0.23,6.391,0,6,0C5.447,0,5,0.447,5,1c0,0.161,0.047,0.308,0.114,0.442L5.105,1.447
				L6.382,4H1C0.447,4,0,4.447,0,5v10c0,0.553,0.447,1,1,1h14c0.553,0,1-0.447,1-1V5C16,4.447,15.553,4,15,4z M14,14H2V6h12V14z"/>
		</g>
	</g>
</g>
<g id="Row_2_1_">
</g>
<g id="Row_1_1_">
</g>
</svg>
