<?xml version="1.0" encoding="utf-8"?>
<!-- Generator: Adobe Illustrator 16.0.0, SVG Export Plug-In . SVG Version: 6.00 Build 0)  -->
<!DOCTYPE svg PUBLIC "-//W3C//DTD SVG 1.1//EN" "http://www.w3.org/Graphics/SVG/1.1/DTD/svg11.dtd">
<svg version="1.1" xmlns="http://www.w3.org/2000/svg" xmlns:xlink="http://www.w3.org/1999/xlink" x="0px" y="0px" width="16px"
	 height="16px" viewBox="0 0 16 16" enable-background="new 0 0 16 16" xml:space="preserve">
<g id="Layer_0_xA0_Image_1_">
</g>
<g id="Row_5_1_">
	<g id="volume_3">
		<g>
			<path fill="#212121" d="M14.75,8l1.036-1.41C15.912,6.423,16,6.226,16,6c0-0.553-0.447-1-1-1c-0.327,0-0.604,0.167-0.786,0.41
				L13.5,6.333L12.786,5.41C12.604,5.167,12.327,5,12,5c-0.553,0-1,0.447-1,1c0,0.445,0.2,0.6,0.2,0.6L12.25,8L11.2,9.4
				c0,0-0.2,0.154-0.2,0.6c0,0.553,0.447,1,1,1c0.327,0,0.604-0.167,0.786-0.41L13.5,9.667l0.7,0.933c0,0,0.173,0.4,0.8,0.4
				c0.553,0,1-0.447,1-1c0-0.226-0.088-0.423-0.214-0.59L14.75,8z M9,0C8.724,0,8.474,0.112,8.293,0.293L3.659,4H1
				C0.447,4,0,4.447,0,5v6c0,0.553,0.447,1,1,1h2.659l4.634,3.707C8.474,15.888,8.724,16,9,16c0.553,0,1-0.447,1-1V1
				C10,0.447,9.553,0,9,0z M8,12.927l-3.293-2.634C4.707,10.293,4.546,10,4,10H2V6h2c0.276,0,0.526-0.112,0.707-0.293L8,3.073
				V12.927z"/>
		</g>
	</g>
</g>
<g id="Row_4_1_">
</g>
<g id="Row_3_1_">
</g>
<g id="Row_2_1_">
</g>
<g id="Row_1_1_">
</g>
</svg>
