<?xml version="1.0" encoding="utf-8"?>
<!-- Generator: Adobe Illustrator 16.0.0, SVG Export Plug-In . SVG Version: 6.00 Build 0)  -->
<!DOCTYPE svg PUBLIC "-//W3C//DTD SVG 1.1//EN" "http://www.w3.org/Graphics/SVG/1.1/DTD/svg11.dtd">
<svg version="1.1" xmlns="http://www.w3.org/2000/svg" xmlns:xlink="http://www.w3.org/1999/xlink" x="0px" y="0px"
	 width="16.001px" height="16px" viewBox="0 0 16.001 16" enable-background="new 0 0 16.001 16" xml:space="preserve">
<g id="Background_xA0_Image_1_">
</g>
<g id="Row_5_1_">
	<g id="add_tag">
		<g>
			<path fill="#212121" d="M14.966,3h-9.79C4.891,3,4.632,3.111,4.444,3.293l-4.142,4c0,0-0.303,0.16-0.303,0.708
				c0,0.275,0.115,0.526,0.303,0.707l4.142,4c0,0,0.168,0.292,0.731,0.292h9.79c0.571,0,1.035-0.446,1.035-0.999V4
				C16.001,3.447,15.537,3,14.966,3z M13.931,11.001H5.604l-3.105-3l3.105-3h8.326V11.001z M9,8.998c0,0.552,0.447,0.999,1,0.999
				s1-0.447,1-0.999c0.553,0,1-0.447,1-1s-0.447-1-1-1c0-0.553-0.447-0.999-1-0.999S9,6.445,9,6.998c-0.553,0-1,0.447-1,1
				S8.447,8.998,9,8.998z"/>
		</g>
	</g>
</g>
<g id="Row_4_1_">
</g>
<g id="Row_3_1_">
</g>
<g id="Row_2_1_">
</g>
<g id="Row_1_1_">
</g>
</svg>
