<?xml version="1.0" encoding="utf-8"?>
<!-- Generator: Adobe Illustrator 16.0.0, SVG Export Plug-In . SVG Version: 6.00 Build 0)  -->
<!DOCTYPE svg PUBLIC "-//W3C//DTD SVG 1.1//EN" "http://www.w3.org/Graphics/SVG/1.1/DTD/svg11.dtd">
<svg version="1.1" xmlns="http://www.w3.org/2000/svg" xmlns:xlink="http://www.w3.org/1999/xlink" x="0px" y="0px" width="16px"
	 height="16px" viewBox="0 0 16 16" enable-background="new 0 0 16 16" xml:space="preserve">
<g id="Background_xA0_Image_1_">
</g>
<g id="Row_5_1_">
</g>
<g id="Row_4_1_">
</g>
<g id="Row_3_1_">
</g>
<g id="Row_2_1_">
	<g id="at_2_">
		<g>
			<path fill="#212121" d="M8.084,0.084c-4.418,0-8,3.582-8,8s3.582,8,8,8c0.553,0,1-0.448,1-1c0-0.553-0.447-1-1-1
				c-3.313,0-6-2.687-6-6s2.687-6,6-6s6,2.687,6,6v1c0,0.552-0.447,1-1,1s-1-0.448-1-1v-4c0-0.553-0.447-1-1-1
				c-0.41,0-0.761,0.248-0.915,0.601C9.561,4.311,8.851,4.084,8.084,4.084c-2.209,0-4,1.791-4,4s1.791,4,4,4
				c1.052,0,2.001-0.414,2.715-1.078c0.55,0.654,1.364,1.078,2.285,1.078c1.657,0,3-1.343,3-3v-1
				C16.084,3.666,12.502,0.084,8.084,0.084z M8.084,10.084c-1.104,0-2-0.896-2-2s0.896-2,2-2s2,0.896,2,2S9.188,10.084,8.084,10.084
				z"/>
		</g>
	</g>
</g>
<g id="Row_1_1_">
</g>
</svg>
