<?xml version="1.0" encoding="utf-8"?>
<!-- Generator: Adobe Illustrator 16.0.0, SVG Export Plug-In . SVG Version: 6.00 Build 0)  -->
<!DOCTYPE svg PUBLIC "-//W3C//DTD SVG 1.1//EN" "http://www.w3.org/Graphics/SVG/1.1/DTD/svg11.dtd">
<svg version="1.1" xmlns="http://www.w3.org/2000/svg" xmlns:xlink="http://www.w3.org/1999/xlink" x="0px" y="0px" width="16px"
	 height="16px" viewBox="0 0 16 16" enable-background="new 0 0 16 16" xml:space="preserve">
<g id="Background_xA0_Image_1_">
</g>
<g id="Row_5_1_">
</g>
<g id="Row_4_1_">
</g>
<g id="Row_3_1_">
</g>
<g id="Row_2_1_">
</g>
<g id="Row_1_1_">
	<g id="attachment">
		<g>
			<path fill="#212121" d="M10.084,0.084c-2.762,0-5,2.238-5,5v4c0,1.657,1.343,3,3,3s3-1.343,3-3v-4c0-0.553-0.447-1-1-1
				s-1,0.447-1,1v4c0,0.553-0.447,1-1,1s-1-0.447-1-1v-4c0-1.657,1.343-3,3-3s3,1.343,3,3v4c0,2.762-2.238,5-5,5s-5-2.238-5-5v-6
				c0-0.553-0.447-1-1-1s-1,0.447-1,1v6c0,3.866,3.134,7,7,7s7-3.134,7-7v-4C15.084,2.322,12.846,0.084,10.084,0.084z"/>
		</g>
	</g>
</g>
</svg>
