<?xml version="1.0" encoding="utf-8"?>
<!-- Generator: Adobe Illustrator 16.0.0, SVG Export Plug-In . SVG Version: 6.00 Build 0)  -->
<!DOCTYPE svg PUBLIC "-//W3C//DTD SVG 1.1//EN" "http://www.w3.org/Graphics/SVG/1.1/DTD/svg11.dtd">
<svg version="1.1" xmlns="http://www.w3.org/2000/svg" xmlns:xlink="http://www.w3.org/1999/xlink" x="0px" y="0px" width="16px"
	 height="16px" viewBox="0 0 16 16" enable-background="new 0 0 16 16" xml:space="preserve">
<g id="Background_xA0_Image_1_">
</g>
<g id="Row_5_1_">
</g>
<g id="Row_4_1_">
</g>
<g id="Row_3_1_">
</g>
<g id="Row_2_1_">
	<g id="attachment_2_2_">
		<g>
			<path fill="#212121" d="M14.53,2.622c-2.646-2.65-5.886-1.598-8.533,1.053L1.89,7.79c-1.891,1.894-2.576,4.278-0.685,6.171
				c1.89,1.894,4.271,1.208,6.161-0.686l4.107-4.115c1.134-1.136,1.452-2.659,0.317-3.796c-1.134-1.136-2.606-0.768-3.74,0.368
				L5.313,8.475c-0.379,0.379-0.379,0.993,0,1.371c0.378,0.379,0.991,0.379,1.369,0L9.42,7.104c0.378-0.379,0.624-0.746,1.002-0.367
				c0.378,0.378,0.061,0.674-0.317,1.053l-4.107,4.115c-1.134,1.136-2.289,1.821-3.423,0.686c-1.134-1.137-0.45-2.293,0.685-3.429
				l4.108-4.114c1.89-1.894,3.903-2.947,5.794-1.054c1.89,1.894,0.888,3.96-1.002,5.853L9.42,12.59
				c-0.378,0.378-0.378,0.992,0,1.371s0.991,0.379,1.37,0l2.738-2.742C16.175,8.567,17.177,5.273,14.53,2.622z"/>
		</g>
	</g>
</g>
<g id="Row_1_1_">
</g>
</svg>
