<?xml version="1.0" encoding="utf-8"?>
<!-- Generator: Adobe Illustrator 16.0.0, SVG Export Plug-In . SVG Version: 6.00 Build 0)  -->
<!DOCTYPE svg PUBLIC "-//W3C//DTD SVG 1.1//EN" "http://www.w3.org/Graphics/SVG/1.1/DTD/svg11.dtd">
<svg version="1.1" xmlns="http://www.w3.org/2000/svg" xmlns:xlink="http://www.w3.org/1999/xlink" x="0px" y="0px" width="16px"
	 height="16px" viewBox="0 0 16 16" enable-background="new 0 0 16 16" xml:space="preserve">
<g id="Background_xA0_Image_1_">
</g>
<g id="Row_5_1_">
</g>
<g id="Row_4_1_">
</g>
<g id="Row_3_1_">
</g>
<g id="Row_2_1_">
	<g id="block_2_">
		<g>
			<path fill="#212121" d="M8.084,0.084c-4.418,0-8,3.582-8,8s3.582,8,8,8s8-3.582,8-8S12.502,0.084,8.084,0.084z M2.084,8.084
				c0-3.313,2.687-6,6-6c1.295,0,2.487,0.42,3.468,1.118l-8.35,8.35C2.504,10.571,2.084,9.379,2.084,8.084z M8.084,14.084
				c-1.295,0-2.487-0.42-3.468-1.118l8.35-8.35c0.698,0.98,1.118,2.172,1.118,3.468C14.084,11.397,11.397,14.084,8.084,14.084z"/>
		</g>
	</g>
</g>
<g id="Row_1_1_">
</g>
</svg>
