<?xml version="1.0" encoding="utf-8"?>
<!-- Generator: Adobe Illustrator 16.0.0, SVG Export Plug-In . SVG Version: 6.00 Build 0)  -->
<!DOCTYPE svg PUBLIC "-//W3C//DTD SVG 1.1//EN" "http://www.w3.org/Graphics/SVG/1.1/DTD/svg11.dtd">
<svg version="1.1" xmlns="http://www.w3.org/2000/svg" xmlns:xlink="http://www.w3.org/1999/xlink" x="0px" y="0px" width="16px"
	 height="16px" viewBox="0 0 16 16" enable-background="new 0 0 16 16" xml:space="preserve">
<g id="Background_xA0_Image_1_">
</g>
<g id="Row_5_1_">
</g>
<g id="Row_4_1_">
</g>
<g id="Row_3_1_">
	<g id="calls">
		<g>
			<path fill="#212121" d="M15.787,11.86l-2.87-2.869c-0.396-0.397-1.039-0.397-1.435,0l-1.941,1.94
				c-0.993-0.766-1.343-0.92-2.364-1.94C6.155,7.97,6.006,7.616,5.246,6.618l1.931-1.932c0.397-0.396,0.397-1.039,0-1.435
				l-2.869-2.87c-0.396-0.396-1.039-0.396-1.436,0c0,0-3.69,3.691-2.511,2.512c-0.99,0.99,0.7,4.289,4.664,8.25
				c3.962,3.963,7.26,5.654,8.25,4.664c0.657-0.657,2.512-2.512,2.512-2.512C16.184,12.899,16.184,12.257,15.787,11.86z
				 M3.231,5.762L2.154,3.968L3.59,2.534l1.436,1.435L3.231,5.762z M12.199,14.013l-1.793-1.076l1.793-1.794l1.435,1.436
				L12.199,14.013z"/>
		</g>
	</g>
</g>
<g id="Row_2_1_">
</g>
<g id="Row_1_1_">
</g>
</svg>
