<?xml version="1.0" encoding="utf-8"?>
<!-- Generator: Adobe Illustrator 16.0.0, SVG Export Plug-In . SVG Version: 6.00 Build 0)  -->
<!DOCTYPE svg PUBLIC "-//W3C//DTD SVG 1.1//EN" "http://www.w3.org/Graphics/SVG/1.1/DTD/svg11.dtd">
<svg version="1.1" xmlns="http://www.w3.org/2000/svg" xmlns:xlink="http://www.w3.org/1999/xlink" x="0px" y="0px" width="16px"
	 height="16px" viewBox="0 0 16 16" enable-background="new 0 0 16 16" xml:space="preserve">
<g id="Background_xA0_Image_1_">
</g>
<g id="Row_5_1_">
</g>
<g id="Row_4_1_">
	<g id="camera_2_">
		<g>
			<path fill="#212121" d="M12,5c0.553,0,1-0.447,1-1s-0.447-1-1-1s-1,0.447-1,1S11.447,5,12,5z M8,13c2.209,0,4-1.791,4-4
				s-1.791-4-4-4S4,6.791,4,9S5.791,13,8,13z M8,7c1.104,0,2,0.896,2,2s-0.896,2-2,2s-2-0.896-2-2S6.896,7,8,7z M15,0H1
				C0.447,0,0,0.447,0,1v14c0,0.552,0.447,1,1,1h14c0.553,0,1-0.448,1-1V1C16,0.447,15.553,0,15,0z M14,14H2V2h12V14z"/>
		</g>
	</g>
</g>
<g id="Row_3_1_">
</g>
<g id="Row_2_1_">
</g>
<g id="Row_1_1_">
</g>
</svg>
