<?xml version="1.0" encoding="utf-8"?>
<!-- Generator: Adobe Illustrator 16.0.0, SVG Export Plug-In . SVG Version: 6.00 Build 0)  -->
<!DOCTYPE svg PUBLIC "-//W3C//DTD SVG 1.1//EN" "http://www.w3.org/Graphics/SVG/1.1/DTD/svg11.dtd">
<svg version="1.1" xmlns="http://www.w3.org/2000/svg" xmlns:xlink="http://www.w3.org/1999/xlink" x="0px" y="0px" width="16px"
	 height="16px" viewBox="0 0 16 16" enable-background="new 0 0 16 16" xml:space="preserve">
<g id="Background_xA0_Image_1_">
</g>
<g id="Row_5_1_">
	<g id="chat">
		<g>
			<path fill="#212121" d="M13.084,0.084h-10c-1.657,0-3,1.343-3,3v6c0,1.657,1.343,3,3,3H8.67l3.707,3.707
				c0,0,0.161,0.293,0.707,0.293c0.553,0,1-0.448,1-1V11.9c1.162-0.413,2-1.512,2-2.816v-6C16.084,1.427,14.741,0.084,13.084,0.084z
				 M14.084,9.084c0,0.552-0.447,1-1,1h-1v2.586l-2.61-2.586h-6.39c-0.553,0-1-0.448-1-1v-6c0-0.553,0.447-1,1-1h10
				c0.553,0,1,0.447,1,1V9.084z"/>
		</g>
	</g>
</g>
<g id="Row_4_1_">
</g>
<g id="Row_3_1_">
</g>
<g id="Row_2_1_">
</g>
<g id="Row_1_1_">
</g>
</svg>
