<?xml version="1.0" encoding="utf-8"?>
<!-- Generator: Adobe Illustrator 16.0.0, SVG Export Plug-In . SVG Version: 6.00 Build 0)  -->
<!DOCTYPE svg PUBLIC "-//W3C//DTD SVG 1.1//EN" "http://www.w3.org/Graphics/SVG/1.1/DTD/svg11.dtd">
<svg version="1.1" xmlns="http://www.w3.org/2000/svg" xmlns:xlink="http://www.w3.org/1999/xlink" x="0px" y="0px"
	 width="15.998px" height="16px" viewBox="0 0 15.998 16" enable-background="new 0 0 15.998 16" xml:space="preserve">
<g id="Background_xA0_Image_1_">
</g>
<g id="Row_5_1_">
</g>
<g id="Row_4_1_">
</g>
<g id="Row_3_1_">
	<g id="code_tags">
		<g>
			<path fill="#212121" d="M3.785,5.367c-0.405-0.41-1.062-0.41-1.466,0L0.387,7.334c-0.404,0.41-0.404,1.074,0,1.484l1.933,1.967
				c0.404,0.41,1.061,0.41,1.466,0c0.403-0.409,0.403-1.073,0-1.483L2.584,8.076l1.201-1.226C4.188,6.44,4.188,5.776,3.785,5.367z
				 M15.779,7.368l-1.933-1.956c-0.404-0.408-1.061-0.408-1.466,0c-0.403,0.408-0.403,1.07,0,1.479l1.201,1.217l-1.201,1.217
				c-0.403,0.408-0.403,1.069,0,1.478c0.405,0.408,1.062,0.408,1.466,0l1.933-1.956C16.184,8.438,16.184,7.776,15.779,7.368z
				 M10.077,2.084c-0.362,0-0.666,0.204-0.841,0.494L9.222,2.569l-3.987,10c0,0-0.143,0.139-0.143,0.515c0,0.552,0.446,1,0.997,1
				c0.687,0,0.855-0.485,0.855-0.485l3.987-10c0,0,0.143-0.139,0.143-0.515C11.074,2.531,10.628,2.084,10.077,2.084z"/>
		</g>
	</g>
</g>
<g id="Row_2_1_">
</g>
<g id="Row_1_1_">
</g>
</svg>
