<?xml version="1.0" encoding="utf-8"?>
<!-- Generator: Adobe Illustrator 16.0.0, SVG Export Plug-In . SVG Version: 6.00 Build 0)  -->
<!DOCTYPE svg PUBLIC "-//W3C//DTD SVG 1.1//EN" "http://www.w3.org/Graphics/SVG/1.1/DTD/svg11.dtd">
<svg version="1.1" xmlns="http://www.w3.org/2000/svg" xmlns:xlink="http://www.w3.org/1999/xlink" x="0px" y="0px"
	 width="15.999px" height="16px" viewBox="0 0 15.999 16" enable-background="new 0 0 15.999 16" xml:space="preserve">
<g id="Background_xA0_Image_1_">
</g>
<g id="Row_5_1_">
</g>
<g id="Row_4_1_">
</g>
<g id="Row_3_1_">
</g>
<g id="Row_2_1_">
</g>
<g id="Row_1_1_">
	<g id="disable_notifications">
		<g>
			<path fill="#212121" d="M5.1,13.091c0.136-0.031,0.998-0.958,0.998-2.001v-0.758L4.101,8.331v1.759
				c0,0.97-0.342,3.001-1.997,3.001c-0.552,0-0.998,0.447-0.998,1c0,0.553,0.446,1,0.998,1h8.745l-1.997-2.001H5.1z M12.089,7.088
				c0-1.862-1.275-3.414-2.996-3.86V2.086c0-0.553-0.446-1-0.998-1s-0.998,0.448-0.998,1v0.797l4.992,5.002V7.088z M15.788,14.363
				L1.806,0.379c-0.394-0.394-1.032-0.394-1.427,0c-0.394,0.394-0.394,1.033,0,1.426l13.982,13.983c0.394,0.394,1.032,0.394,1.427,0
				C16.182,15.395,16.182,14.757,15.788,14.363z"/>
		</g>
	</g>
</g>
</svg>
