<?xml version="1.0" encoding="utf-8"?>
<!-- Generator: Adobe Illustrator 16.0.0, SVG Export Plug-In . SVG Version: 6.00 Build 0)  -->
<!DOCTYPE svg PUBLIC "-//W3C//DTD SVG 1.1//EN" "http://www.w3.org/Graphics/SVG/1.1/DTD/svg11.dtd">
<svg version="1.1" xmlns="http://www.w3.org/2000/svg" xmlns:xlink="http://www.w3.org/1999/xlink" x="0px" y="0px" width="16px"
	 height="16px" viewBox="0 0 16 16" enable-background="new 0 0 16 16" xml:space="preserve">
<g id="Background_xA0_Image_1_">
</g>
<g id="Row_5_1_">
</g>
<g id="Row_4_1_">
</g>
<g id="Row_3_1_">
</g>
<g id="Row_2_1_">
</g>
<g id="Row_1_1_">
	<g id="edit">
		<g>
			<path fill="#212121" d="M15.816,4.385l-4.077-4.092c-0.286-0.287-1.058-0.287-1.392,0.049l-9.97,10.007
				c0,0-0.293,0.162-0.293,0.711v4.019c0,0.555,0.448,1.005,1.001,1.005h12.013c0.553,0,1.001-0.45,1.001-1.005
				c0-0.555-0.448-1.004-1.001-1.004H7.506l8.262-8.292C16.133,5.416,16.224,4.794,15.816,4.385z M4.675,14.074H2.086v-2.599
				l5.975-5.997l2.597,2.591L4.675,14.074z M12.07,6.651l-2.597-2.59l1.651-1.657l2.588,2.598L12.07,6.651z"/>
		</g>
	</g>
</g>
</svg>
