<?xml version="1.0" encoding="utf-8"?>
<!-- Generator: Adobe Illustrator 16.0.0, SVG Export Plug-In . SVG Version: 6.00 Build 0)  -->
<!DOCTYPE svg PUBLIC "-//W3C//DTD SVG 1.1//EN" "http://www.w3.org/Graphics/SVG/1.1/DTD/svg11.dtd">
<svg version="1.1" xmlns="http://www.w3.org/2000/svg" xmlns:xlink="http://www.w3.org/1999/xlink" x="0px" y="0px" width="16px"
	 height="16px" viewBox="0 0 16 16" enable-background="new 0 0 16 16" xml:space="preserve">
<g id="Background_xA0_Image_1_">
</g>
<g id="Row_5_1_">
	<g id="favourite_users">
		<g>
			<path fill="#212121" d="M15.084,11.044l-2.702-0.761l-1.802-2.23l-1.802,2.23l-2.733,0.761l1.744,2.344l-0.056,2.691l2.847-0.809
				l2.846,0.809l-0.056-2.691L15.084,11.044z M11.501,13.866l-0.921-0.361l-0.921,0.361l0.019-1.038l-0.589-0.812l0.926-0.292
				l0.565-0.851l0.565,0.851l0.927,0.292l-0.589,0.812L11.501,13.866z M1.084,13.084v2c0,0.552,0.447,1,1,1c0.553,0,1-0.448,1-1v-2
				c0-0.553,0.447-1,1-1h1v-2h-1C2.426,10.084,1.084,11.427,1.084,13.084z M7.082,8.084c1.656,0,2.999-1.343,2.999-3v-2
				c0-1.657-1.342-3-2.999-3c-1.657,0-2.999,1.343-2.999,3v2C4.083,6.741,5.425,8.084,7.082,8.084z M6.082,3.084
				c0-0.553,0.447-1,1-1c0.552,0,1,0.447,1,1v2c0,0.552-0.447,1-1,1c-0.553,0-1-0.448-1-1V3.084z"/>
		</g>
	</g>
</g>
<g id="Row_4_1_">
</g>
<g id="Row_3_1_">
</g>
<g id="Row_2_1_">
</g>
<g id="Row_1_1_">
</g>
</svg>
