<?xml version="1.0" encoding="utf-8"?>
<!-- Generator: Adobe Illustrator 16.0.0, SVG Export Plug-In . SVG Version: 6.00 Build 0)  -->
<!DOCTYPE svg PUBLIC "-//W3C//DTD SVG 1.1//EN" "http://www.w3.org/Graphics/SVG/1.1/DTD/svg11.dtd">
<svg version="1.1" xmlns="http://www.w3.org/2000/svg" xmlns:xlink="http://www.w3.org/1999/xlink" x="0px" y="0px" width="16px"
	 height="16px" viewBox="0 0 16 16" enable-background="new 0 0 16 16" xml:space="preserve">
<g id="Background_xA0_Image_1_">
</g>
<g id="Row_5_1_">
	<g id="inbox">
		<g>
			<path fill="#212121" d="M15.979,7.637l-3-6c0,0-0.156-0.553-0.895-0.553h-8c-0.391,0-0.721,0.23-0.886,0.558L0.189,7.637
				c0,0-0.105,0.121-0.105,0.447v6c0,0.553,0.447,1,1,1h14c0.553,0,1-0.447,1-1v-6C16.084,7.758,15.979,7.637,15.979,7.637z
				 M4.702,3.084h6.764l2,4h-2.382c-0.553,0-1,0.447-1,1v1h-4v-1c0-0.553-0.447-1-1-1H2.702L4.702,3.084z M14.084,13.084h-12v-4h2v1
				c0,0.553,0.447,1,1,1h6c0.553,0,1-0.447,1-1v-1h2V13.084z"/>
		</g>
	</g>
</g>
<g id="Row_4_1_">
</g>
<g id="Row_3_1_">
</g>
<g id="Row_2_1_">
</g>
<g id="Row_1_1_">
</g>
</svg>
