<?xml version="1.0" encoding="utf-8"?>
<!-- Generator: Adobe Illustrator 16.0.0, SVG Export Plug-In . SVG Version: 6.00 Build 0)  -->
<!DOCTYPE svg PUBLIC "-//W3C//DTD SVG 1.1//EN" "http://www.w3.org/Graphics/SVG/1.1/DTD/svg11.dtd">
<svg version="1.1" xmlns="http://www.w3.org/2000/svg" xmlns:xlink="http://www.w3.org/1999/xlink" x="0px" y="0px" width="16px"
	 height="16px" viewBox="0 0 16 16" enable-background="new 0 0 16 16" xml:space="preserve">
<g id="Background_xA0_Image_1_">
</g>
<g id="Row_5_1_">
</g>
<g id="Row_4_1_">
</g>
<g id="Row_3_1_">
</g>
<g id="Row_2_1_">
	<g id="instant_messaging_2_">
		<g>
			<path fill="#212121" d="M9.084,1.084h-6c-1.657,0-3,1.343-3,3v2c0,1.305,0.838,2.403,2,2.816V4.084c0-0.553,0.447-1,1-1H11.9
				C11.487,1.921,10.389,1.084,9.084,1.084z M13.084,5.084h-6c-1.657,0-3,1.343-3,3v2c0,1.657,1.343,3,3,3h3.382l1.81,1.707
				c0,0,0.173,0.293,0.749,0.293c0.585,0,1.06-0.447,1.06-1V12.9c1.162-0.413,2-1.512,2-2.816v-2
				C16.084,6.427,14.741,5.084,13.084,5.084z M14.084,10.084c0,0.553-0.447,1-1,1h-6c-0.553,0-1-0.447-1-1v-2c0-0.553,0.447-1,1-1h6
				c0.553,0,1,0.447,1,1V10.084z"/>
		</g>
	</g>
</g>
<g id="Row_1_1_">
</g>
</svg>
