<?xml version="1.0" encoding="utf-8"?>
<!-- Generator: Adobe Illustrator 16.0.0, SVG Export Plug-In . SVG Version: 6.00 Build 0)  -->
<!DOCTYPE svg PUBLIC "-//W3C//DTD SVG 1.1//EN" "http://www.w3.org/Graphics/SVG/1.1/DTD/svg11.dtd">
<svg version="1.1" xmlns="http://www.w3.org/2000/svg" xmlns:xlink="http://www.w3.org/1999/xlink" x="0px" y="0px" width="16px"
	 height="16px" viewBox="0 0 16 16" enable-background="new 0 0 16 16" xml:space="preserve">
<g id="Background_xA0_Image_1_">
</g>
<g id="Row_5_1_">
	<g id="like_2">
		<g>
			<path fill="#212121" d="M15.084,12.084h-2v-4h2c0.553,0,1-0.448,1-1c0-0.553-0.447-1-1-1h-3c-0.553,0-1,0.447-1,1v0.391
				L9.896,6.881L9.045,1.892C8.953,1.435,8.568,1.084,8.084,1.084c-0.553,0-1,0.447-1,1v4.134L0.888,7.104l0.004,0.02
				C0.435,7.215,0.084,7.6,0.084,8.084c0,0.173,0.03,0.242,0.03,0.242l1.018,4.996c0.09,0.355,0.361,0.628,0.713,0.72l6.001,0.994
				c0.078,0.02,0.154,0.048,0.238,0.048c0.205,0,0.386-0.077,0.545-0.184l2.625-1.292c0.177,0.279,0.475,0.476,0.83,0.476h3
				c0.553,0,1-0.448,1-1C16.084,12.531,15.637,12.084,15.084,12.084z M11.084,11.475l-3.148,1.574l-5.007-0.835L2.271,8.923
				l5.656-0.808l3.157,1.578V11.475z"/>
		</g>
	</g>
</g>
<g id="Row_4_1_">
</g>
<g id="Row_3_1_">
</g>
<g id="Row_2_1_">
</g>
<g id="Row_1_1_">
</g>
</svg>
