<?xml version="1.0" encoding="utf-8"?>
<!-- Generator: Adobe Illustrator 16.0.0, SVG Export Plug-In . SVG Version: 6.00 Build 0)  -->
<!DOCTYPE svg PUBLIC "-//W3C//DTD SVG 1.1//EN" "http://www.w3.org/Graphics/SVG/1.1/DTD/svg11.dtd">
<svg version="1.1" xmlns="http://www.w3.org/2000/svg" xmlns:xlink="http://www.w3.org/1999/xlink" x="0px" y="0px" width="16px"
	 height="16px" viewBox="0 0 16 16" enable-background="new 0 0 16 16" xml:space="preserve">
<g id="Background_xA0_Image_1_">
</g>
<g id="Row_5_1_">
</g>
<g id="Row_4_1_">
</g>
<g id="Row_3_1_">
</g>
<g id="Row_2_1_">
	<g id="link_2_">
		<g>
			<path fill="#212121" d="M11.584,0.084c-2.485,0-4.5,2.015-4.5,4.5c0,2.737,0,5.786,0,7c0,1.381-1.119,2.5-2.5,2.5
				s-2.5-1.119-2.5-2.5s1.119-2.5,2.5-2.5c0.099,0,0.283,0,0.5,0c0.553,0,1-0.447,1-1s-0.447-1-1-1c-0.197,0-0.37,0-0.5,0
				c-2.485,0-4.5,2.015-4.5,4.5s2.015,4.5,4.5,4.5s4.5-2.015,4.5-4.5c0-2.613,0-6.202,0-7c0-1.381,1.119-2.5,2.5-2.5
				s2.5,1.119,2.5,2.5s-1.119,2.5-2.5,2.5c-0.099,0-0.283,0-0.5,0c-0.553,0-1,0.447-1,1s0.447,1,1,1c0.197,0,0.37,0,0.5,0
				c2.485,0,4.5-2.015,4.5-4.5S14.069,0.084,11.584,0.084z"/>
		</g>
	</g>
</g>
<g id="Row_1_1_">
</g>
</svg>
