<?xml version="1.0" encoding="utf-8"?>
<!-- Generator: Adobe Illustrator 16.0.0, SVG Export Plug-In . SVG Version: 6.00 Build 0)  -->
<!DOCTYPE svg PUBLIC "-//W3C//DTD SVG 1.1//EN" "http://www.w3.org/Graphics/SVG/1.1/DTD/svg11.dtd">
<svg version="1.1" xmlns="http://www.w3.org/2000/svg" xmlns:xlink="http://www.w3.org/1999/xlink" x="0px" y="0px" width="16px"
	 height="16px" viewBox="0 0 16 16" enable-background="new 0 0 16 16" xml:space="preserve">
<g id="Background_xA0_Image_1_">
</g>
<g id="Row_5_1_">
</g>
<g id="Row_4_1_">
</g>
<g id="Row_3_1_">
	<g id="message_read">
		<g>
			<path fill="#212121" d="M11.799,4.379c-0.382-0.388-1-0.388-1.381,0l-6.215,6.315L1.75,8.186c-0.381-0.387-0.999-0.387-1.381,0
				c-0.381,0.388-0.381,1.016,0,1.403l3.144,3.21c0.381,0.389,0.999,0.389,1.381,0l6.905-7.016
				C12.18,5.395,12.18,4.768,11.799,4.379z M15.799,6.377c-0.382-0.387-1-0.387-1.381,0l-6.215,6.315H8.202
				c-0.176-0.285-0.477-0.485-0.837-0.485c-0.553,0-1,0.446-1,0.999c0,0.288,0.125,0.542,0.319,0.724l0.828,0.868
				c0.381,0.388,0.999,0.388,1.381,0l6.905-7.016C16.18,7.394,16.18,6.766,15.799,6.377z"/>
		</g>
	</g>
</g>
<g id="Row_2_1_">
</g>
<g id="Row_1_1_">
</g>
</svg>
