<?xml version="1.0" encoding="utf-8"?>
<!-- Generator: Adobe Illustrator 16.0.0, SVG Export Plug-In . SVG Version: 6.00 Build 0)  -->
<!DOCTYPE svg PUBLIC "-//W3C//DTD SVG 1.1//EN" "http://www.w3.org/Graphics/SVG/1.1/DTD/svg11.dtd">
<svg version="1.1" xmlns="http://www.w3.org/2000/svg" xmlns:xlink="http://www.w3.org/1999/xlink" x="0px" y="0px" width="16px"
	 height="16px" viewBox="0 0 16 16" enable-background="new 0 0 16 16" xml:space="preserve">
<g id="Background_xA0_Image_1_">
</g>
<g id="Row_5_1_">
</g>
<g id="Row_4_1_">
</g>
<g id="Row_3_1_">
</g>
<g id="Row_2_1_">
	<g id="missed_call_2_">
		<g>
			<path fill="#212121" d="M15.084,4.084c-0.276,0-0.526,0.112-0.707,0.293L8.084,10.67L3.498,6.084h1.586c0.553,0,1-0.447,1-1
				s-0.447-1-1-1h-4c-0.553,0-1,0.447-1,1v4c0,0.553,0.447,1,1,1s1-0.447,1-1V7.498l5.293,5.293
				c0.181,0.181,0.431,0.293,0.707,0.293s0.526-0.112,0.707-0.293l7-7c0,0,0.293-0.161,0.293-0.707
				C16.084,4.531,15.637,4.084,15.084,4.084z"/>
		</g>
	</g>
</g>
<g id="Row_1_1_">
</g>
</svg>
