<?xml version="1.0" encoding="utf-8"?>
<!-- Generator: Adobe Illustrator 16.0.0, SVG Export Plug-In . SVG Version: 6.00 Build 0)  -->
<!DOCTYPE svg PUBLIC "-//W3C//DTD SVG 1.1//EN" "http://www.w3.org/Graphics/SVG/1.1/DTD/svg11.dtd">
<svg version="1.1" xmlns="http://www.w3.org/2000/svg" xmlns:xlink="http://www.w3.org/1999/xlink" x="0px" y="0px" width="16px"
	 height="16px" viewBox="0 0 16 16" enable-background="new 0 0 16 16" xml:space="preserve">
<g id="Background_xA0_Image_1_">
</g>
<g id="Row_5_1_">
</g>
<g id="Row_4_1_">
</g>
<g id="Row_3_1_">
</g>
<g id="Row_2_1_">
	<g id="new_mail_2_">
		<g>
			<path fill="#212121" d="M15.084,2.084h-14c-0.553,0-1,0.447-1,1v10c0,0.552,0.447,1,1,1h14c0.553,0,1-0.448,1-1v-10
				C16.084,2.531,15.637,2.084,15.084,2.084z M13.068,4.084L8.084,6.933L3.1,4.084H13.068z M2.084,5.807l3.095,1.769L2.084,10.67
				V5.807z M3.498,12.084l3.48-3.48l0.609,0.349c0,0,0.134,0.132,0.496,0.132c0.181,0,0.342-0.062,0.488-0.146l0.617-0.335
				l3.48,3.48H3.498z M14.084,10.67l-3.095-3.095l3.095-1.769V10.67z"/>
		</g>
	</g>
</g>
<g id="Row_1_1_">
</g>
</svg>
