<?xml version="1.0" encoding="utf-8"?>
<!-- Generator: Adobe Illustrator 16.0.0, SVG Export Plug-In . SVG Version: 6.00 Build 0)  -->
<!DOCTYPE svg PUBLIC "-//W3C//DTD SVG 1.1//EN" "http://www.w3.org/Graphics/SVG/1.1/DTD/svg11.dtd">
<svg version="1.1" xmlns="http://www.w3.org/2000/svg" xmlns:xlink="http://www.w3.org/1999/xlink" x="0px" y="0px" width="16px"
	 height="16px" viewBox="0 0 16 16" enable-background="new 0 0 16 16" xml:space="preserve">
<g id="Background_xA0_Image_1_">
</g>
<g id="Row_5_1_">
</g>
<g id="Row_4_1_">
</g>
<g id="Row_3_1_">
	<g id="new">
		<g>
			<path fill="#212121" d="M14.47,8.05l1.579-3.314l-3.473-1.191l-1.228-3.46L8.05,1.698L4.735,0.119l-1.19,3.473L0.084,4.819
				l1.614,3.299l-1.579,3.314l3.473,1.19l1.228,3.461l3.299-1.614l3.314,1.579l1.19-3.473l3.461-1.228L14.47,8.05z M10.921,10.892
				l-0.744,2.171l-2.071-0.987l-2.062,1.009l-0.768-2.163l-2.171-0.744l0.987-2.071L3.084,6.044l2.163-0.768l0.744-2.171
				l2.071,0.987l2.062-1.009l0.768,2.163l2.171,0.744l-0.987,2.071l1.009,2.062L10.921,10.892z"/>
		</g>
	</g>
</g>
<g id="Row_2_1_">
</g>
<g id="Row_1_1_">
</g>
</svg>
