<?xml version="1.0" encoding="utf-8"?>
<!-- Generator: Adobe Illustrator 16.0.0, SVG Export Plug-In . SVG Version: 6.00 Build 0)  -->
<!DOCTYPE svg PUBLIC "-//W3C//DTD SVG 1.1//EN" "http://www.w3.org/Graphics/SVG/1.1/DTD/svg11.dtd">
<svg version="1.1" xmlns="http://www.w3.org/2000/svg" xmlns:xlink="http://www.w3.org/1999/xlink" x="0px" y="0px" width="16px"
	 height="16px" viewBox="0 0 16 16" enable-background="new 0 0 16 16" xml:space="preserve">
<g id="Background_xA0_Image_1_">
</g>
<g id="Row_5_1_">
</g>
<g id="Row_4_1_">
	<g id="poll_2_">
		<g>
			<path fill="#212121" d="M12.084,13.084c0.553,0,1-0.447,1-1v-2c0-0.553-0.447-1-1-1s-1,0.447-1,1v2
				C11.084,12.637,11.531,13.084,12.084,13.084z M8.084,13.084c0.553,0,1-0.447,1-1v-8c0-0.553-0.447-1-1-1s-1,0.447-1,1v8
				C7.084,12.637,7.531,13.084,8.084,13.084z M15.084,0.084h-14c-0.553,0-1,0.447-1,1v14c0,0.552,0.447,1,1,1h14
				c0.553,0,1-0.448,1-1v-14C16.084,0.531,15.637,0.084,15.084,0.084z M14.084,14.084h-12v-12h12V14.084z M4.084,13.084
				c0.553,0,1-0.447,1-1v-4c0-0.553-0.447-1-1-1s-1,0.447-1,1v4C3.084,12.637,3.531,13.084,4.084,13.084z"/>
		</g>
	</g>
</g>
<g id="Row_3_1_">
</g>
<g id="Row_2_1_">
</g>
<g id="Row_1_1_">
</g>
</svg>
