<?xml version="1.0" encoding="utf-8"?>
<!-- Generator: Adobe Illustrator 16.0.0, SVG Export Plug-In . SVG Version: 6.00 Build 0)  -->
<!DOCTYPE svg PUBLIC "-//W3C//DTD SVG 1.1//EN" "http://www.w3.org/Graphics/SVG/1.1/DTD/svg11.dtd">
<svg version="1.1" xmlns="http://www.w3.org/2000/svg" xmlns:xlink="http://www.w3.org/1999/xlink" x="0px" y="0px" width="16px"
	 height="16px" viewBox="0 0 16 16" enable-background="new 0 0 16 16" xml:space="preserve">
<g id="Background_xA0_Image_1_">
</g>
<g id="Row_5_1_">
</g>
<g id="Row_4_1_">
</g>
<g id="Row_3_1_">
</g>
<g id="Row_2_1_">
</g>
<g id="Row_1_1_">
	<g id="privacy_x2F_anonymous">
		<g>
			<path fill="#212121" d="M16.021,10.771l0.012-0.004l-1.972-5.916c-0.121-1.547-1.399-2.768-2.977-2.768c-0.553,0-1,0.447-1,1
				s0.447,1,1,1s1,0.447,1,1l1.299,4h-3.299c-0.553,0-1,0.447-1,1h-2c0-0.553-0.447-1-1-1H2.785l1.299-4c0-0.553,0.447-1,1-1
				s1-0.447,1-1s-0.447-1-1-1c-1.577,0-2.855,1.221-2.977,2.768l-1.972,5.916l0.012,0.004c-0.034,0.1-0.063,0.202-0.063,0.313
				c0,0.553,0.447,1,1,1c0,1.657,1.343,3,3,3s3-1.343,3-3h2c0,1.657,1.343,3,3,3s3-1.343,3-3c0.553,0,1-0.447,1-1
				C16.084,10.974,16.054,10.871,16.021,10.771z M5.084,12.084c0,0.553-0.447,1-1,1s-1-0.447-1-1v-1h2V12.084z M13.084,12.084
				c0,0.553-0.447,1-1,1s-1-0.447-1-1v-1h2V12.084z"/>
		</g>
	</g>
</g>
</svg>
