<?xml version="1.0" encoding="utf-8"?>
<!-- Generator: Adobe Illustrator 16.0.0, SVG Export Plug-In . SVG Version: 6.00 Build 0)  -->
<!DOCTYPE svg PUBLIC "-//W3C//DTD SVG 1.1//EN" "http://www.w3.org/Graphics/SVG/1.1/DTD/svg11.dtd">
<svg version="1.1" xmlns="http://www.w3.org/2000/svg" xmlns:xlink="http://www.w3.org/1999/xlink" x="0px" y="0px" width="16px"
	 height="16px" viewBox="0 0 16 16" enable-background="new 0 0 16 16" xml:space="preserve">
<g id="Background_xA0_Image_1_">
</g>
<g id="Row_5_1_">
</g>
<g id="Row_4_1_">
</g>
<g id="Row_3_1_">
</g>
<g id="Row_2_1_">
</g>
<g id="Row_1_1_">
	<g id="refresh_feed">
		<g>
			<path fill="#212121" d="M2.084,8.084c0-3.313,2.687-6,6-6c1.225,0,2.36,0.37,3.31,1h-0.31c-0.553,0-1,0.447-1,1s0.447,1,1,1h3
				c0.553,0,1-0.447,1-1v-3c0-0.553-0.447-1-1-1s-1,0.447-1,1v0.761c-1.37-1.1-3.106-1.761-5-1.761c-4.418,0-8,3.582-8,8
				c0,0.553,0.447,1,1,1S2.084,8.637,2.084,8.084z M15.084,7.084c-0.553,0-1,0.447-1,1c0,3.313-2.687,6-6,6
				c-1.225,0-2.36-0.371-3.31-1h0.31c0.553,0,1-0.447,1-1s-0.447-1-1-1h-3c-0.553,0-1,0.447-1,1v3c0,0.553,0.447,1,1,1s1-0.447,1-1
				v-0.761c1.37,1.1,3.106,1.761,5,1.761c4.418,0,8-3.582,8-8C16.084,7.531,15.637,7.084,15.084,7.084z"/>
		</g>
	</g>
</g>
</svg>
