<?xml version="1.0" encoding="utf-8"?>
<!-- Generator: Adobe Illustrator 16.0.0, SVG Export Plug-In . SVG Version: 6.00 Build 0)  -->
<!DOCTYPE svg PUBLIC "-//W3C//DTD SVG 1.1//EN" "http://www.w3.org/Graphics/SVG/1.1/DTD/svg11.dtd">
<svg version="1.1" xmlns="http://www.w3.org/2000/svg" xmlns:xlink="http://www.w3.org/1999/xlink" x="0px" y="0px" width="16px"
	 height="16px" viewBox="0 0 16 16" enable-background="new 0 0 16 16" xml:space="preserve">
<g id="Background_xA0_Image_1_">
</g>
<g id="Row_5_1_">
</g>
<g id="Row_4_1_">
</g>
<g id="Row_3_1_">
</g>
<g id="Row_2_1_">
	<g id="send_2_">
		<g>
			<path fill="#212121" d="M15.084,3.084h-14c-0.553,0-1,0.447-1,1c0,0.445,0.2,0.6,0.2,0.6l2.8,3.733v4.667c0,0.552,0.447,1,1,1
				c0.24,0,0.452-0.096,0.624-0.237l11-9c0.225-0.184,0.376-0.45,0.376-0.763C16.084,3.531,15.637,3.084,15.084,3.084z M4.439,6.891
				L3.084,5.084h6.324L4.439,6.891z M5.084,10.974V8.784L9.9,7.033L5.084,10.974z"/>
		</g>
	</g>
</g>
<g id="Row_1_1_">
</g>
</svg>
