<?xml version="1.0" encoding="utf-8"?>
<!-- Generator: Adobe Illustrator 16.0.0, SVG Export Plug-In . SVG Version: 6.00 Build 0)  -->
<!DOCTYPE svg PUBLIC "-//W3C//DTD SVG 1.1//EN" "http://www.w3.org/Graphics/SVG/1.1/DTD/svg11.dtd">
<svg version="1.1" xmlns="http://www.w3.org/2000/svg" xmlns:xlink="http://www.w3.org/1999/xlink" x="0px" y="0px" width="16px"
	 height="16px" viewBox="0 0 16 16" enable-background="new 0 0 16 16" xml:space="preserve">
<g id="Background_xA0_Image_1_">
</g>
<g id="Row_5_1_">
</g>
<g id="Row_4_1_">
</g>
<g id="Row_3_1_">
</g>
<g id="Row_2_1_">
</g>
<g id="Row_1_1_">
	<g id="sent_folder">
		<g>
			<path fill="#212121" d="M15.084,2.084H7.498L5.791,0.377C5.61,0.196,5.36,0.084,5.084,0.084h-4c-0.553,0-1,0.447-1,1v14
				c0,0.553,0.447,1,1,1h5c0.553,0,1-0.447,1-1s-0.447-1-1-1h-4v-12H4.67l1.707,1.707c0,0,0.161,0.293,0.707,0.293h7v3
				c0,0.553,0.447,1,1,1s1-0.447,1-1v-4C16.084,2.531,15.637,2.084,15.084,2.084z M12.791,8.377c0,0-0.161-0.293-0.707-0.293
				c-0.553,0-1,0.447-1,1c0,0.276,0.112,0.526,0.293,0.707l1.293,1.293H7.084c-0.553,0-1,0.447-1,1s0.447,1,1,1h5.586l-1.293,1.293
				c-0.181,0.181-0.293,0.431-0.293,0.707c0,0.553,0.447,1,1,1c0.276,0,0.526-0.112,0.707-0.293l3-3c0,0,0.293-0.161,0.293-0.707
				c0-0.276-0.112-0.526-0.293-0.707L12.791,8.377z"/>
		</g>
	</g>
</g>
</svg>
