<?xml version="1.0" encoding="utf-8"?>
<!-- Generator: Adobe Illustrator 16.0.0, SVG Export Plug-In . SVG Version: 6.00 Build 0)  -->
<!DOCTYPE svg PUBLIC "-//W3C//DTD SVG 1.1//EN" "http://www.w3.org/Graphics/SVG/1.1/DTD/svg11.dtd">
<svg version="1.1" xmlns="http://www.w3.org/2000/svg" xmlns:xlink="http://www.w3.org/1999/xlink" x="0px" y="0px" width="16px"
	 height="16px" viewBox="0 0 16 16" enable-background="new 0 0 16 16" xml:space="preserve">
<g id="Background_xA0_Image_1_">
</g>
<g id="Row_5_1_">
</g>
<g id="Row_4_1_">
</g>
<g id="Row_3_1_">
</g>
<g id="Row_2_1_">
</g>
<g id="Row_1_1_">
	<g id="view_all_folders">
		<g>
			<path fill="#212121" d="M3.67,2.084l1.707,1.707c0,0,0.161,0.293,0.707,0.293h4v1c0,0.553,0.447,1,1,1s1-0.447,1-1v-2
				c0-0.553-0.447-1-1-1H6.498L4.791,0.377c0,0-0.161-0.293-0.707-0.293h-3c-0.553,0-1,0.447-1,1v10c0,0.553,0.447,1,1,1h1
				c0.553,0,1-0.447,1-1s-0.447-1-1-1v-8H3.67z M15.084,7.084h-4.586L8.791,5.377c0,0-0.161-0.293-0.707-0.293c0,0-3.03,0-3,0
				c-0.553,0-1,0.447-1,1v9c0,0.553,0.447,1,1,1h10c0.553,0,1-0.447,1-1v-7C16.084,7.531,15.637,7.084,15.084,7.084z M14.084,14.084
				h-8v-7H7.67l1.707,1.707c0,0,0.161,0.293,0.707,0.293h4V14.084z"/>
		</g>
	</g>
</g>
</svg>
