<?xml version="1.0" encoding="utf-8"?>
<!-- Generator: Adobe Illustrator 16.0.0, SVG Export Plug-In . SVG Version: 6.00 Build 0)  -->
<!DOCTYPE svg PUBLIC "-//W3C//DTD SVG 1.1//EN" "http://www.w3.org/Graphics/SVG/1.1/DTD/svg11.dtd">
<svg version="1.1" xmlns="http://www.w3.org/2000/svg" xmlns:xlink="http://www.w3.org/1999/xlink" x="0px" y="0px" width="16px"
	 height="15.999px" viewBox="0 0 16 15.999" enable-background="new 0 0 16 15.999" xml:space="preserve">
<g id="Background_xA0_Image_1_">
</g>
<g id="Row_5_1_">
</g>
<g id="Row_4_1_">
	<g id="back_2_">
		<g>
			<path fill="#212121" d="M15.002,7.016H3.315l5.413-5.388c0.375-0.372,0.375-0.977,0-1.349c-0.377-0.373-0.987-0.373-1.363,0
				L0.282,7.325c-0.376,0.372-0.376,0.977,0,1.349L0.288,8.68c0.022,0.025,0.045,0.047,0.069,0.069l7.008,6.971
				c0.376,0.373,0.986,0.373,1.363,0c0.375-0.372,0.375-0.977,0-1.349L3.345,9.014h11.657C15.554,9.014,16,8.565,16,8.015
				C16,7.463,15.554,7.016,15.002,7.016z"/>
		</g>
	</g>
</g>
<g id="Row_3_1_">
</g>
<g id="Row_2_1_">
</g>
<g id="Row_1_1_">
</g>
</svg>
