<?xml version="1.0" encoding="utf-8"?>
<!-- Generator: Adobe Illustrator 16.0.0, SVG Export Plug-In . SVG Version: 6.00 Build 0)  -->
<!DOCTYPE svg PUBLIC "-//W3C//DTD SVG 1.1//EN" "http://www.w3.org/Graphics/SVG/1.1/DTD/svg11.dtd">
<svg version="1.1" xmlns="http://www.w3.org/2000/svg" xmlns:xlink="http://www.w3.org/1999/xlink" x="0px" y="0px" width="16px"
	 height="16px" viewBox="0 0 16 16" enable-background="new 0 0 16 16" xml:space="preserve">
<g id="Background_xA0_Image_1_">
</g>
<g id="Row_5_1_">
</g>
<g id="Row_4_1_">
</g>
<g id="Row_3_1_">
</g>
<g id="Row_2_1_">
</g>
<g id="Row_1_1_">
	<g id="bluetooth">
		<g>
			<path fill="#212121" d="M13.664,11.253L10.005,8l3.659-3.253L13.658,4.74C13.864,4.557,14,4.298,14,4
				c0-0.327-0.167-0.604-0.41-0.786L13.6,3.2l-4-3L9.59,0.214C9.423,0.088,9.226,0,9,0C8.447,0,8,0.447,8,1v5.218L4.664,3.253
				L4.658,3.26C4.481,3.103,4.255,3,4,3C3.447,3,3,3.447,3,4c0,0.298,0.136,0.557,0.342,0.74L3.336,4.747L6.995,8l-3.659,3.253
				l0.006,0.007C3.136,11.443,3,11.702,3,12c0,0.553,0.447,1,1,1c0.255,0,0.481-0.103,0.658-0.26l0.006,0.007L8,9.782V15
				c0,0.553,0.447,1,1,1c0.226,0,0.423-0.088,0.59-0.214L9.6,15.8l4-3l-0.01-0.014C13.833,12.604,14,12.327,14,12
				c0-0.298-0.136-0.557-0.342-0.74L13.664,11.253z M10,3l1.421,1.065L10,5.329V3z M10,13v-2.329l1.421,1.264L10,13z"/>
		</g>
	</g>
</g>
</svg>
