<?xml version="1.0" encoding="utf-8"?>
<!-- Generator: Adobe Illustrator 16.0.0, SVG Export Plug-In . SVG Version: 6.00 Build 0)  -->
<!DOCTYPE svg PUBLIC "-//W3C//DTD SVG 1.1//EN" "http://www.w3.org/Graphics/SVG/1.1/DTD/svg11.dtd">
<svg version="1.1" xmlns="http://www.w3.org/2000/svg" xmlns:xlink="http://www.w3.org/1999/xlink" x="0px" y="0px" width="16px"
	 height="16px" viewBox="0 0 16 16" enable-background="new 0 0 16 16" xml:space="preserve">
<g id="Background_xA0_Image_1_">
</g>
<g id="Row_5_1_">
</g>
<g id="Row_4_1_">
</g>
<g id="Row_3_1_">
	<g id="camera">
		<g>
			<path fill="#212121" d="M15,3h-3V2c0-0.553-0.447-1-1-1H5C4.447,1,4,1.447,4,2v1H1C0.447,3,0,3.447,0,4v10c0,0.553,0.447,1,1,1
				h14c0.553,0,1-0.447,1-1V4C16,3.447,15.553,3,15,3z M14,13H8H2V5h3c0.553,0,1-0.447,1-1c0-0.929,0-1,0-1h4c0,0,0,0.071,0,1
				c0,0.553,0.447,1,1,1h3V13z M11,10c0-1.657-1.343-3-3-3s-3,1.343-3,3s1.343,3,3,3S11,11.657,11,10z M8,11c-0.553,0-1-0.447-1-1
				s0.447-1,1-1s1,0.447,1,1S8.553,11,8,11z"/>
		</g>
	</g>
</g>
<g id="Row_2_1_">
</g>
<g id="Row_1_1_">
</g>
</svg>
