<?xml version="1.0" encoding="utf-8"?>
<!-- Generator: Adobe Illustrator 16.0.0, SVG Export Plug-In . SVG Version: 6.00 Build 0)  -->
<!DOCTYPE svg PUBLIC "-//W3C//DTD SVG 1.1//EN" "http://www.w3.org/Graphics/SVG/1.1/DTD/svg11.dtd">
<svg version="1.1" xmlns="http://www.w3.org/2000/svg" xmlns:xlink="http://www.w3.org/1999/xlink" x="0px" y="0px" width="16px"
	 height="16px" viewBox="0 0 16 16" enable-background="new 0 0 16 16" xml:space="preserve">
<g id="Background_xA0_Image_1_">
</g>
<g id="Row_5_1_">
	<g id="cancel_1">
		<g>
			<path fill="#212121" d="M9.414,8l6.293-6.293C15.888,1.526,16,1.276,16,1c0-0.553-0.447-1-1-1c-0.276,0-0.526,0.112-0.707,0.293
				L8,6.586L1.707,0.293C1.526,0.112,1.276,0,1,0C0.447,0,0,0.447,0,1c0,0.276,0.112,0.526,0.293,0.707L6.586,8l-6.293,6.293
				C0.112,14.474,0,14.724,0,15c0,0.552,0.447,1,1,1c0.276,0,0.526-0.112,0.707-0.293L8,9.414l6.293,6.293
				C14.474,15.888,14.724,16,15,16c0.553,0,1-0.448,1-1c0-0.276-0.112-0.526-0.293-0.707L9.414,8z"/>
		</g>
	</g>
</g>
<g id="Row_4_1_">
</g>
<g id="Row_3_1_">
</g>
<g id="Row_2_1_">
</g>
<g id="Row_1_1_">
</g>
</svg>
