<?xml version="1.0" encoding="utf-8"?>
<!-- Generator: Adobe Illustrator 16.0.0, SVG Export Plug-In . SVG Version: 6.00 Build 0)  -->
<!DOCTYPE svg PUBLIC "-//W3C//DTD SVG 1.1//EN" "http://www.w3.org/Graphics/SVG/1.1/DTD/svg11.dtd">
<svg version="1.1" xmlns="http://www.w3.org/2000/svg" xmlns:xlink="http://www.w3.org/1999/xlink" x="0px" y="0px" width="16px"
	 height="16px" viewBox="0 0 16 16" enable-background="new 0 0 16 16" xml:space="preserve">
<g id="Background_xA0_Image_1_">
</g>
<g id="Row_5_1_">
</g>
<g id="Row_4_1_">
</g>
<g id="Row_3_1_">
</g>
<g id="Row_2_1_">
</g>
<g id="Row_1_1_">
	<g id="command">
		<g>
			<path fill="#212121" d="M12.531,9.003V9H11V7h1.531V6.997C14.449,6.979,16,5.422,16,3.5C16,1.567,14.433,0,12.5,0
				c-1.922,0-3.479,1.551-3.497,3.469H9V5H7V3.469H6.997C6.979,1.551,5.422,0,3.5,0C1.567,0,0,1.567,0,3.5
				c0,1.922,1.551,3.479,3.469,3.497V7H5v2H3.469v0.003C1.551,9.021,0,10.578,0,12.5C0,14.433,1.567,16,3.5,16
				c1.922,0,3.479-1.551,3.497-3.469H7V11h2v1.531h0.003C9.021,14.449,10.578,16,12.5,16c1.933,0,3.5-1.567,3.5-3.5
				C16,10.578,14.449,9.021,12.531,9.003z M11,3.486L11,3.486C11.009,2.664,11.676,2,12.5,2C13.328,2,14,2.672,14,3.5
				c0,0.824-0.664,1.491-1.486,1.499V5H11V3.486z M5,12.514L5,12.514C4.991,13.336,4.324,14,3.5,14C2.672,14,2,13.328,2,12.5
				c0-0.824,0.664-1.491,1.486-1.499V11H5V12.514z M5,5H3.486V4.999C2.664,4.991,2,4.324,2,3.5C2,2.672,2.672,2,3.5,2
				c0.824,0,1.491,0.664,1.499,1.486H5V5z M9,9H7V7h2V9z M12.5,14c-0.824,0-1.491-0.664-1.499-1.486H11V11h1.514v0.001
				C13.336,11.009,14,11.676,14,12.5C14,13.328,13.328,14,12.5,14z"/>
		</g>
	</g>
</g>
</svg>
