<?xml version="1.0" encoding="utf-8"?>
<!-- Generator: Adobe Illustrator 16.0.0, SVG Export Plug-In . SVG Version: 6.00 Build 0)  -->
<!DOCTYPE svg PUBLIC "-//W3C//DTD SVG 1.1//EN" "http://www.w3.org/Graphics/SVG/1.1/DTD/svg11.dtd">
<svg version="1.1" xmlns="http://www.w3.org/2000/svg" xmlns:xlink="http://www.w3.org/1999/xlink" x="0px" y="0px" width="16px"
	 height="16px" viewBox="0 0 16 16" enable-background="new 0 0 16 16" xml:space="preserve">
<g id="Background_xA0_Image_1_">
</g>
<g id="Row_5_1_">
</g>
<g id="Row_4_1_">
</g>
<g id="Row_3_1_">
</g>
<g id="Row_2_1_">
	<g id="eye">
		<g>
			<path fill="#212121" d="M8,7C7.448,7,7.001,7.447,7.001,8S7.448,9,8,9s0.999-0.447,0.999-1S8.552,7,8,7z M8,3
				C4.378,3,1.282,4.786,0,7.984C1.282,11.184,4.378,13,8,13s6.718-1.816,8-5.016C14.718,4.786,11.622,3,8,3z M8,11.016
				c-2.264,0-4.979-0.995-5.78-3.031c0.801-2.035,3.517-3,5.78-3s5.104,0.965,5.905,3C13.104,10.021,10.264,11.016,8,11.016z"/>
		</g>
	</g>
</g>
<g id="Row_1_1_">
</g>
</svg>
