<?xml version="1.0" encoding="utf-8"?>
<!-- Generator: Adobe Illustrator 16.0.0, SVG Export Plug-In . SVG Version: 6.00 Build 0)  -->
<!DOCTYPE svg PUBLIC "-//W3C//DTD SVG 1.1//EN" "http://www.w3.org/Graphics/SVG/1.1/DTD/svg11.dtd">
<svg version="1.1" xmlns="http://www.w3.org/2000/svg" xmlns:xlink="http://www.w3.org/1999/xlink" x="0px" y="0px" width="16px"
	 height="16px" viewBox="0 0 16 16" enable-background="new 0 0 16 16" xml:space="preserve">
<g id="Background_xA0_Image_1_">
</g>
<g id="Row_5_1_">
	<g id="flag">
		<g>
			<path fill="#212121" d="M15,2c-0.109,0-0.211,0.026-0.308,0.063c-0.049,0.016-0.094,0.031-0.139,0.055
				C13.819,2.398,13.621,3,12,3c-1.012,0-2.393-0.626-3.5-1.391C6.169,0,5,0,5,0C3.198,0,2.671,0.619,2,1c0-0.553-0.447-1-1-1
				S0,0.447,0,1v14c0,0.552,0.447,1,1,1s1-0.448,1-1V9c0.632-0.446,1.342-1,3-1c1.043,0,2.47,0.728,3.5,1.406
				C10.434,10.679,11.395,11,12,11c1.819,0,2.409-0.752,3-1l0.39-0.079C15.748,9.77,16,9.414,16,9V3C16,2.447,15.553,2,15,2z
				 M14,8.422C13.583,8.698,13.149,9,12,9c-1.012,0-2.393-0.626-3.5-1.391C6.169,6,5,6,5,6C3.198,6,2.671,6.619,2,7V3
				c0.632-0.446,1.342-1,3-1c1.043,0,2.47,0.728,3.5,1.406C10.434,4.679,11.395,5,12,5c0.938,0,1.547-0.2,2-0.429V8.422z"/>
		</g>
	</g>
</g>
<g id="Row_4_1_">
</g>
<g id="Row_3_1_">
</g>
<g id="Row_2_1_">
</g>
<g id="Row_1_1_">
</g>
</svg>
