<?xml version="1.0" encoding="utf-8"?>
<!-- Generator: Adobe Illustrator 16.0.0, SVG Export Plug-In . SVG Version: 6.00 Build 0)  -->
<!DOCTYPE svg PUBLIC "-//W3C//DTD SVG 1.1//EN" "http://www.w3.org/Graphics/SVG/1.1/DTD/svg11.dtd">
<svg version="1.1" xmlns="http://www.w3.org/2000/svg" xmlns:xlink="http://www.w3.org/1999/xlink" x="0px" y="0px" width="16px"
	 height="16px" viewBox="0 0 16 16" enable-background="new 0 0 16 16" xml:space="preserve">
<g id="Background_xA0_Image_1_">
</g>
<g id="Row_5_1_">
	<g id="heart">
		<g>
			<path fill="#212121" d="M14.863,2.114c-1.516-1.506-3.975-1.506-5.491,0L8,3.478L6.627,2.114c-1.516-1.506-3.974-1.506-5.49,0
				s-1.516,3.948,0,5.454l6.176,8.134c0.379,0.377,0.993,0.377,1.373,0l6.176-8.134C16.379,6.063,16.379,3.62,14.863,2.114z
				 M13.49,6.205L8,13.656L2.51,6.205c-0.759-0.754-0.759-1.975,0-2.728c0.758-0.754,1.986-0.754,2.745,0l2.059,2.045
				c0.379,0.377,0.993,0.377,1.373,0l2.058-2.045c0.758-0.754,1.987-0.754,2.746,0C14.248,4.23,14.248,5.451,13.49,6.205z"/>
		</g>
	</g>
</g>
<g id="Row_4_1_">
</g>
<g id="Row_3_1_">
</g>
<g id="Row_2_1_">
</g>
<g id="Row_1_1_">
</g>
</svg>
