<?xml version="1.0" encoding="utf-8"?>
<!-- Generator: Adobe Illustrator 16.0.0, SVG Export Plug-In . SVG Version: 6.00 Build 0)  -->
<!DOCTYPE svg PUBLIC "-//W3C//DTD SVG 1.1//EN" "http://www.w3.org/Graphics/SVG/1.1/DTD/svg11.dtd">
<svg version="1.1" xmlns="http://www.w3.org/2000/svg" xmlns:xlink="http://www.w3.org/1999/xlink" x="0px" y="0px" width="16px"
	 height="16.001px" viewBox="0 0 16 16.001" enable-background="new 0 0 16 16.001" xml:space="preserve">
<g id="Background_xA0_Image_1_">
</g>
<g id="Row_5_1_">
	<g id="home">
		<g>
			<path fill="#212121" d="M15.709,7.31L8.7,0.291c-0.386-0.388-1.014-0.388-1.401,0L2.326,5.27
				C2.301,5.293,2.278,5.315,2.255,5.342L0.291,7.31c-0.387,0.388-0.387,1.017,0,1.404c0.387,0.387,1.015,0.387,1.402,0l0.299-0.3
				v6.587c0,0.552,0.447,1,0.999,1h2.997c0.552,0,0.999-0.448,0.999-1v-3.998h1.998v3.998c0,0.552,0.447,1,0.999,1h2.997
				c0.552,0,0.999-0.448,0.999-1V8.385l0.329,0.329c0.387,0.387,1.015,0.387,1.402,0C16.097,8.326,16.097,7.697,15.709,7.31z
				 M11.981,14.002h-0.999v-3.998c0-0.553-0.447-1-0.999-1H5.987c-0.552,0-0.999,0.447-0.999,1v3.998H3.99V6.413L8,2.396
				l3.981,3.987V14.002z"/>
		</g>
	</g>
</g>
<g id="Row_4_1_">
</g>
<g id="Row_3_1_">
</g>
<g id="Row_2_1_">
</g>
<g id="Row_1_1_">
</g>
</svg>
