<?xml version="1.0" encoding="utf-8"?>
<!-- Generator: Adobe Illustrator 16.0.0, SVG Export Plug-In . SVG Version: 6.00 Build 0)  -->
<!DOCTYPE svg PUBLIC "-//W3C//DTD SVG 1.1//EN" "http://www.w3.org/Graphics/SVG/1.1/DTD/svg11.dtd">
<svg version="1.1" xmlns="http://www.w3.org/2000/svg" xmlns:xlink="http://www.w3.org/1999/xlink" x="0px" y="0px" width="16px"
	 height="16px" viewBox="0 0 16 16" enable-background="new 0 0 16 16" xml:space="preserve">
<g id="Background_xA0_Image_1_">
</g>
<g id="Row_5_1_">
</g>
<g id="Row_4_1_">
	<g id="lock">
		<g>
			<path fill="#212121" d="M8,12c0.553,0,1-0.448,1-1c0-0.553-0.447-1-1-1s-1,0.447-1,1C7,11.552,7.447,12,8,12z M12,6V4
				c0-2.209-1.791-4-4-4S4,1.791,4,4v2C3.447,6,3,6.447,3,7v8c0,0.552,0.447,1,1,1h8c0.553,0,1-0.448,1-1V7C13,6.447,12.553,6,12,6z
				 M6,4c0-1.104,0.896-2,2-2s2,0.896,2,2v2H6V4z M11,14H5V8h6V14z"/>
		</g>
	</g>
</g>
<g id="Row_3_1_">
</g>
<g id="Row_2_1_">
</g>
<g id="Row_1_1_">
</g>
</svg>
