<?xml version="1.0" encoding="utf-8"?>
<!-- Generator: Adobe Illustrator 16.0.0, SVG Export Plug-In . SVG Version: 6.00 Build 0)  -->
<!DOCTYPE svg PUBLIC "-//W3C//DTD SVG 1.1//EN" "http://www.w3.org/Graphics/SVG/1.1/DTD/svg11.dtd">
<svg version="1.1" xmlns="http://www.w3.org/2000/svg" xmlns:xlink="http://www.w3.org/1999/xlink" x="0px" y="0px" width="16px"
	 height="16px" viewBox="0 0 16 16" enable-background="new 0 0 16 16" xml:space="preserve">
<g id="Background_xA0_Image_1_">
</g>
<g id="Row_5_1_">
</g>
<g id="Row_4_1_">
</g>
<g id="Row_3_1_">
	<g id="microphone">
		<g>
			<path fill="#212121" d="M8,9c1.657,0,3-1.343,3-3V3c0-1.657-1.343-3-3-3S5,1.343,5,3v3C5,7.657,6.343,9,8,9z M7,3
				c0-0.553,0.447-1,1-1s1,0.447,1,1v3c0,0.553-0.447,1-1,1S7,6.553,7,6V3z M15,6c0-0.553-0.447-1-1-1s-1,0.447-1,1
				c0,2.762-2.238,5-5,5S3,8.762,3,6c0-0.553-0.447-1-1-1S1,5.447,1,6c0,3.523,2.612,6.41,6,6.899V14H5c-0.553,0-1,0.447-1,1
				s0.447,1,1,1h6c0.553,0,1-0.447,1-1s-0.447-1-1-1H9v-1.101C12.388,12.41,15,9.523,15,6z"/>
		</g>
	</g>
</g>
<g id="Row_2_1_">
</g>
<g id="Row_1_1_">
</g>
</svg>
