<?xml version="1.0" encoding="utf-8"?>
<!-- Generator: Adobe Illustrator 16.0.0, SVG Export Plug-In . SVG Version: 6.00 Build 0)  -->
<!DOCTYPE svg PUBLIC "-//W3C//DTD SVG 1.1//EN" "http://www.w3.org/Graphics/SVG/1.1/DTD/svg11.dtd">
<svg version="1.1" xmlns="http://www.w3.org/2000/svg" xmlns:xlink="http://www.w3.org/1999/xlink" x="0px" y="0px" width="16px"
	 height="16px" viewBox="0 0 16 16" enable-background="new 0 0 16 16" xml:space="preserve">
<g id="Background_xA0_Image_1_">
</g>
<g id="Row_5_1_">
</g>
<g id="Row_4_1_">
	<g id="music">
		<g>
			<path fill="#212121" d="M15,0H5C4.447,0,4,0.447,4,1v11.122C3.686,12.048,3.353,12,3,12c-1.657,0-3,0.896-3,2s1.343,2,3,2
				s3-0.896,3-2c0,0.309,0-8,0-8h8v6.122C13.686,12.048,13.353,12,13,12c-1.657,0-3,0.896-3,2s1.343,2,3,2s3-0.896,3-2
				c0,0.184,0-13,0-13C16,0.447,15.553,0,15,0z M14,4H6V2h8V4z"/>
		</g>
	</g>
</g>
<g id="Row_3_1_">
</g>
<g id="Row_2_1_">
</g>
<g id="Row_1_1_">
</g>
</svg>
