<?xml version="1.0" encoding="utf-8"?>
<!-- Generator: Adobe Illustrator 16.0.0, SVG Export Plug-In . SVG Version: 6.00 Build 0)  -->
<!DOCTYPE svg PUBLIC "-//W3C//DTD SVG 1.1//EN" "http://www.w3.org/Graphics/SVG/1.1/DTD/svg11.dtd">
<svg version="1.1" xmlns="http://www.w3.org/2000/svg" xmlns:xlink="http://www.w3.org/1999/xlink" x="0px" y="0px" width="16px"
	 height="16px" viewBox="0 0 16 16" enable-background="new 0 0 16 16" xml:space="preserve">
<g id="Background_xA0_Image_1_">
</g>
<g id="Row_5_1_">
</g>
<g id="Row_4_1_">
</g>
<g id="Row_3_1_">
	<g id="network">
		<g>
			<path fill="#212121" d="M15,14V8c0-0.553-0.447-1-1-1H9V2c0.553,0,1-0.447,1-1S9.553,0,9,0H7C6.447,0,6,0.447,6,1s0.447,1,1,1v5
				H2C1.447,7,1,7.447,1,8v6c-0.553,0-1,0.447-1,1s0.447,1,1,1h2c0.553,0,1-0.447,1-1c0-0.414-0.252-0.77-0.61-0.922
				C3.27,14.028,3.138,14,3,14V9h4v5c-0.553,0-1,0.447-1,1s0.447,1,1,1h2c0.553,0,1-0.447,1-1s-0.447-1-1-1V9h4v5
				c-0.138,0-0.27,0.028-0.39,0.078C12.252,14.23,12,14.586,12,15c0,0.553,0.447,1,1,1h2c0.553,0,1-0.447,1-1S15.553,14,15,14z"/>
		</g>
	</g>
</g>
<g id="Row_2_1_">
</g>
<g id="Row_1_1_">
</g>
</svg>
