<?xml version="1.0" encoding="utf-8"?>
<!-- Generator: Adobe Illustrator 16.0.0, SVG Export Plug-In . SVG Version: 6.00 Build 0)  -->
<!DOCTYPE svg PUBLIC "-//W3C//DTD SVG 1.1//EN" "http://www.w3.org/Graphics/SVG/1.1/DTD/svg11.dtd">
<svg version="1.1" xmlns="http://www.w3.org/2000/svg" xmlns:xlink="http://www.w3.org/1999/xlink" x="0px" y="0px" width="16px"
	 height="16px" viewBox="0 0 16 16" enable-background="new 0 0 16 16" xml:space="preserve">
<g id="Background_xA0_Image_1_">
</g>
<g id="Row_5_1_">
</g>
<g id="Row_4_1_">
</g>
<g id="Row_3_1_">
</g>
<g id="Row_2_1_">
	<g id="pie_chart">
		<g>
			<path fill="#212121" d="M8,0C3.582,0,0,3.582,0,8s3.582,8,8,8s8-3.582,8-8S12.418,0,8,0z M9,2.101
				C11.509,2.524,13.486,4.493,13.909,7H9V2.101z M8,14c-3.313,0-6-2.687-6-6c0-2.971,2.165-5.421,5-5.899V8
				c0,0.276,0.112,0.526,0.293,0.707l4.163,4.164C10.479,13.57,9.296,14,8,14z M12.866,11.451L10.414,9h3.485
				C13.746,9.906,13.374,10.731,12.866,11.451z"/>
		</g>
	</g>
</g>
<g id="Row_1_1_">
</g>
</svg>
