<?xml version="1.0" encoding="utf-8"?>
<!-- Generator: Adobe Illustrator 16.0.0, SVG Export Plug-In . SVG Version: 6.00 Build 0)  -->
<!DOCTYPE svg PUBLIC "-//W3C//DTD SVG 1.1//EN" "http://www.w3.org/Graphics/SVG/1.1/DTD/svg11.dtd">
<svg version="1.1" xmlns="http://www.w3.org/2000/svg" xmlns:xlink="http://www.w3.org/1999/xlink" x="0px" y="0px" width="16px"
	 height="16px" viewBox="0 0 16 16" enable-background="new 0 0 16 16" xml:space="preserve">
<g id="Background_xA0_Image_1_">
</g>
<g id="Row_5_1_">
</g>
<g id="Row_4_1_">
</g>
<g id="Row_3_1_">
</g>
<g id="Row_2_1_">
	<g id="pulse">
		<g>
			<path fill="#212121" d="M15,7h-2c-0.363,0-0.668,0.204-0.843,0.494l-0.015-0.009l-1.963,3.271L6.929,2.629L6.925,2.63
				C6.777,2.262,6.421,2,6,2C5.637,2,5.332,2.204,5.157,2.494L5.143,2.485L2.434,7H1C0.447,7,0,7.447,0,8s0.447,1,1,1h2
				c0.363,0,0.668-0.204,0.843-0.494l0.015,0.009L5.82,5.243l3.251,8.128l0.003-0.001C9.223,13.738,9.579,14,10,14
				c0.363,0,0.668-0.204,0.843-0.494l0.015,0.009L13.566,9H15c0.553,0,1-0.447,1-1S15.553,7,15,7z"/>
		</g>
	</g>
</g>
<g id="Row_1_1_">
</g>
</svg>
