<?xml version="1.0" encoding="utf-8"?>
<!-- Generator: Adobe Illustrator 16.0.0, SVG Export Plug-In . SVG Version: 6.00 Build 0)  -->
<!DOCTYPE svg PUBLIC "-//W3C//DTD SVG 1.1//EN" "http://www.w3.org/Graphics/SVG/1.1/DTD/svg11.dtd">
<svg version="1.1" xmlns="http://www.w3.org/2000/svg" xmlns:xlink="http://www.w3.org/1999/xlink" x="0px" y="0px" width="16px"
	 height="16px" viewBox="0 0 16 16" enable-background="new 0 0 16 16" xml:space="preserve">
<g id="Background_xA0_Image_1_">
</g>
<g id="Row_5_1_">
	<g id="retract">
		<g>
			<path fill="#212121" d="M5,10H1c-0.553,0-1,0.447-1,1c0,0.552,0.447,1,1,1h1.586l-2.293,2.293C0.112,14.474,0,14.724,0,15
				c0,0.552,0.447,1,1,1c0.276,0,0.526-0.112,0.707-0.293L4,13.414V15c0,0.552,0.447,1,1,1s1-0.448,1-1v-4C6,10.447,5.553,10,5,10z
				 M15,4h-1.586l2.293-2.293C15.888,1.526,16,1.276,16,1c0-0.553-0.447-1-1-1c-0.276,0-0.526,0.112-0.707,0.293L12,2.586V1
				c0-0.553-0.447-1-1-1s-1,0.447-1,1v4c0,0.552,0.447,1,1,1h4c0.553,0,1-0.448,1-1C16,4.447,15.553,4,15,4z"/>
		</g>
	</g>
</g>
<g id="Row_4_1_">
</g>
<g id="Row_3_1_">
</g>
<g id="Row_2_1_">
</g>
<g id="Row_1_1_">
</g>
</svg>
