<?xml version="1.0" encoding="utf-8"?>
<!-- Generator: Adobe Illustrator 16.0.0, SVG Export Plug-In . SVG Version: 6.00 Build 0)  -->
<!DOCTYPE svg PUBLIC "-//W3C//DTD SVG 1.1//EN" "http://www.w3.org/Graphics/SVG/1.1/DTD/svg11.dtd">
<svg version="1.1" xmlns="http://www.w3.org/2000/svg" xmlns:xlink="http://www.w3.org/1999/xlink" x="0px" y="0px" width="16px"
	 height="16px" viewBox="0 0 16 16" enable-background="new 0 0 16 16" xml:space="preserve">
<g id="Background_xA0_Image_1_">
</g>
<g id="Row_5_1_">
</g>
<g id="Row_4_1_">
</g>
<g id="Row_3_1_">
</g>
<g id="Row_2_1_">
</g>
<g id="Row_1_1_">
	<g id="share">
		<g>
			<path fill="#212121" d="M13,10c-0.821,0-1.564,0.331-2.106,0.866l-4.992-2.14C5.96,8.493,6,8.252,6,8S5.96,7.507,5.901,7.273
				l4.992-2.14C11.436,5.669,12.179,6,13,6c1.657,0,3-1.343,3-3s-1.343-3-3-3s-3,1.343-3,3c0,0.112,0.021,0.218,0.033,0.326
				L4.765,5.584C4.269,5.221,3.662,5,3,5C1.343,5,0,6.343,0,8s1.343,3,3,3c0.662,0,1.269-0.221,1.765-0.584l5.269,2.258
				C10.021,12.782,10,12.888,10,13c0,1.657,1.343,3,3,3s3-1.343,3-3S14.657,10,13,10z M13,2c0.553,0,1,0.447,1,1s-0.447,1-1,1
				s-1-0.447-1-1S12.447,2,13,2z M3,9C2.447,9,2,8.553,2,8s0.447-1,1-1s1,0.447,1,1S3.553,9,3,9z M13,14c-0.553,0-1-0.447-1-1
				s0.447-1,1-1s1,0.447,1,1S13.553,14,13,14z"/>
		</g>
	</g>
</g>
</svg>
