<?xml version="1.0" encoding="utf-8"?>
<!-- Generator: Adobe Illustrator 16.0.0, SVG Export Plug-In . SVG Version: 6.00 Build 0)  -->
<!DOCTYPE svg PUBLIC "-//W3C//DTD SVG 1.1//EN" "http://www.w3.org/Graphics/SVG/1.1/DTD/svg11.dtd">
<svg version="1.1" xmlns="http://www.w3.org/2000/svg" xmlns:xlink="http://www.w3.org/1999/xlink" x="0px" y="0px" width="16px"
	 height="16px" viewBox="0 0 16 16" enable-background="new 0 0 16 16" xml:space="preserve">
<g id="Background_xA0_Image_1_">
</g>
<g id="Row_5_1_">
</g>
<g id="Row_4_1_">
</g>
<g id="Row_3_1_">
</g>
<g id="Row_2_1_">
	<g id="signal">
		<g>
			<path fill="#212121" d="M6,8C5.447,8,5,8.447,5,9v6c0,0.553,0.447,1,1,1s1-0.447,1-1V9C7,8.447,6.553,8,6,8z M2,12
				c-0.553,0-1,0.447-1,1v2c0,0.553,0.447,1,1,1s1-0.447,1-1v-2C3,12.447,2.553,12,2,12z M14,0c-0.553,0-1,0.447-1,1v14
				c0,0.553,0.447,1,1,1s1-0.447,1-1V1C15,0.447,14.553,0,14,0z M10,4C9.447,4,9,4.447,9,5v10c0,0.553,0.447,1,1,1s1-0.447,1-1V5
				C11,4.447,10.553,4,10,4z"/>
		</g>
	</g>
</g>
<g id="Row_1_1_">
</g>
</svg>
