<?xml version="1.0" encoding="utf-8"?>
<!-- Generator: Adobe Illustrator 16.0.0, SVG Export Plug-In . SVG Version: 6.00 Build 0)  -->
<!DOCTYPE svg PUBLIC "-//W3C//DTD SVG 1.1//EN" "http://www.w3.org/Graphics/SVG/1.1/DTD/svg11.dtd">
<svg version="1.1" xmlns="http://www.w3.org/2000/svg" xmlns:xlink="http://www.w3.org/1999/xlink" x="0px" y="0px" width="16px"
	 height="16px" viewBox="0 0 16 16" enable-background="new 0 0 16 16" xml:space="preserve">
<g id="Background_xA0_Image_1_">
</g>
<g id="Row_5_1_">
</g>
<g id="Row_4_1_">
	<g id="speech_bubble">
		<g>
			<path fill="#212121" d="M16,7c0-3.313-3.582-6-8-6S0,3.687,0,7s3.582,6,8,6c0.809,0,1.578-0.104,2.309-0.277l1.984,1.984
				C12.474,14.888,12.724,15,13,15c0.553,0,1-0.448,1-1v-3c0-0.021-0.011-0.038-0.012-0.059C15.226,9.885,16,8.517,16,7z M12,9.962
				v1.663l-1.026-1.171C10.094,10.792,9.088,11,8,11c-3.313,0-6-1.791-6-4s2.687-4,6-4s6,1.791,6,4C14,8.18,13.219,9.229,12,9.962z"
				/>
		</g>
	</g>
</g>
<g id="Row_3_1_">
</g>
<g id="Row_2_1_">
</g>
<g id="Row_1_1_">
</g>
</svg>
