<?xml version="1.0" encoding="utf-8"?>
<!-- Generator: Adobe Illustrator 16.0.0, SVG Export Plug-In . SVG Version: 6.00 Build 0)  -->
<!DOCTYPE svg PUBLIC "-//W3C//DTD SVG 1.1//EN" "http://www.w3.org/Graphics/SVG/1.1/DTD/svg11.dtd">
<svg version="1.1" xmlns="http://www.w3.org/2000/svg" xmlns:xlink="http://www.w3.org/1999/xlink" x="0px" y="0px" width="16px"
	 height="16px" viewBox="0 0 16 16" enable-background="new 0 0 16 16" xml:space="preserve">
<g id="Background_xA0_Image_1_">
</g>
<g id="Row_5_1_">
</g>
<g id="Row_4_1_">
</g>
<g id="Row_3_1_">
	<g id="spiral">
		<g>
			<path fill="#212121" d="M7.22,1C3.238,1,0,4.438,0,8.662C0,12.157,2.678,15,5.971,15c2.741,0,4.971-2.367,4.971-5.277
				c0-2.442-1.872-4.429-4.172-4.429c-1.948,0-3.534,1.682-3.534,3.75c0,0.572,0.438,1.035,0.976,1.035s0.976-0.463,0.976-1.035
				c0-0.925,0.709-1.678,1.582-1.678c1.224,0,2.222,1.057,2.222,2.356c0,1.768-1.355,3.205-3.021,3.205
				c-2.217,0-4.021-1.914-4.021-4.266c0-3.083,2.364-5.591,5.269-5.591c3.766,0,6.83,3.252,6.83,7.25
				c0,0.572,0.436,1.034,0.976,1.034c0.539,0,0.975-0.462,0.975-1.034C16,5.181,12.062,1,7.22,1z"/>
		</g>
	</g>
</g>
<g id="Row_2_1_">
</g>
<g id="Row_1_1_">
</g>
</svg>
