<?xml version="1.0" encoding="utf-8"?>
<!-- Generator: Adobe Illustrator 16.0.0, SVG Export Plug-In . SVG Version: 6.00 Build 0)  -->
<!DOCTYPE svg PUBLIC "-//W3C//DTD SVG 1.1//EN" "http://www.w3.org/Graphics/SVG/1.1/DTD/svg11.dtd">
<svg version="1.1" xmlns="http://www.w3.org/2000/svg" xmlns:xlink="http://www.w3.org/1999/xlink" x="0px" y="0px" width="16px"
	 height="16px" viewBox="0 0 16 16" enable-background="new 0 0 16 16" xml:space="preserve">
<g id="Background_xA0_Image_1_">
</g>
<g id="Row_5_1_">
	<g id="stand-by">
		<g>
			<path fill="#212121" d="M8,9c0.553,0,1-0.448,1-1V1c0-0.553-0.447-1-1-1S7,0.447,7,1v7C7,8.552,7.447,9,8,9z M11.617,1.232
				C11.446,1.095,11.237,1,11,1c-0.553,0-1,0.447-1,1c0,0.552,0.447,1,1,1c1.505,0.477,3,2.785,3,5c0,3.313-2.687,6-6,6
				s-6-2.687-6-6c0-2.215,1.558-4.586,3-5c0.553,0,1-0.448,1-1c0-0.553-0.447-1-1-1C4.771,1,4.571,1.09,4.403,1.219
				C1.986,2.161,0,4.897,0,8c0,4.418,3.582,8,8,8s8-3.582,8-8C16,4.914,13.957,2.189,11.617,1.232z"/>
		</g>
	</g>
</g>
<g id="Row_4_1_">
</g>
<g id="Row_3_1_">
</g>
<g id="Row_2_1_">
</g>
<g id="Row_1_1_">
</g>
</svg>
