<?xml version="1.0" encoding="utf-8"?>
<!-- Generator: Adobe Illustrator 16.0.0, SVG Export Plug-In . SVG Version: 6.00 Build 0)  -->
<!DOCTYPE svg PUBLIC "-//W3C//DTD SVG 1.1//EN" "http://www.w3.org/Graphics/SVG/1.1/DTD/svg11.dtd">
<svg version="1.1" xmlns="http://www.w3.org/2000/svg" xmlns:xlink="http://www.w3.org/1999/xlink" x="0px" y="0px" width="16px"
	 height="16px" viewBox="0 0 16 16" enable-background="new 0 0 16 16" xml:space="preserve">
<g id="Background_xA0_Image_1_">
</g>
<g id="Row_5_1_">
</g>
<g id="Row_4_1_">
</g>
<g id="Row_3_1_">
</g>
<g id="Row_2_1_">
	<g id="sun">
		<g>
			<path fill="#212121" d="M3.758,5.172c0.39,0.391,1.023,0.391,1.414,0s0.391-1.024,0-1.414L3.758,2.343
				c-0.391-0.391-1.024-0.391-1.415,0s-0.391,1.024,0,1.415L3.758,5.172z M4,8c0-0.553-0.447-1-1-1H1C0.447,7,0,7.447,0,8
				s0.447,1,1,1h2C3.553,9,4,8.553,4,8z M8,4c0.553,0,1-0.447,1-1V1c0-0.553-0.447-1-1-1S7,0.447,7,1v2C7,3.553,7.447,4,8,4z
				 M12.242,5.172l1.415-1.414c0.39-0.391,0.39-1.024,0-1.415c-0.391-0.391-1.024-0.391-1.415,0l-1.414,1.415
				c-0.391,0.39-0.391,1.023,0,1.414S11.853,5.563,12.242,5.172z M3.758,10.828l-1.415,1.414c-0.391,0.391-0.391,1.024,0,1.415
				c0.391,0.39,1.024,0.39,1.415,0l1.414-1.415c0.391-0.39,0.391-1.023,0-1.414S4.147,10.438,3.758,10.828z M12.242,10.828
				c-0.39-0.391-1.023-0.391-1.414,0s-0.391,1.024,0,1.414l1.414,1.415c0.391,0.39,1.024,0.39,1.415,0
				c0.39-0.391,0.39-1.024,0-1.415L12.242,10.828z M15,7h-2c-0.553,0-1,0.447-1,1s0.447,1,1,1h2c0.553,0,1-0.447,1-1S15.553,7,15,7z
				 M8,12c-0.553,0-1,0.447-1,1v2c0,0.553,0.447,1,1,1s1-0.447,1-1v-2C9,12.447,8.553,12,8,12z M8,5C6.343,5,5,6.343,5,8
				s1.343,3,3,3s3-1.343,3-3S9.657,5,8,5z M8,9C7.447,9,7,8.553,7,8s0.447-1,1-1s1,0.447,1,1S8.553,9,8,9z"/>
		</g>
	</g>
</g>
<g id="Row_1_1_">
</g>
</svg>
