<?xml version="1.0" encoding="utf-8"?>
<!-- Generator: Adobe Illustrator 16.0.0, SVG Export Plug-In . SVG Version: 6.00 Build 0)  -->
<!DOCTYPE svg PUBLIC "-//W3C//DTD SVG 1.1//EN" "http://www.w3.org/Graphics/SVG/1.1/DTD/svg11.dtd">
<svg version="1.1" xmlns="http://www.w3.org/2000/svg" xmlns:xlink="http://www.w3.org/1999/xlink" x="0px" y="0px" width="16px"
	 height="16px" viewBox="0 0 16 16" enable-background="new 0 0 16 16" xml:space="preserve">
<g id="Background_xA0_Image_1_">
</g>
<g id="Row_5_1_">
</g>
<g id="Row_4_1_">
</g>
<g id="Row_3_1_">
</g>
<g id="Row_2_1_">
	<g id="tag">
		<g>
			<path fill="#212121" d="M15.702,9.214L6.789,0.286c-0.223-0.223-0.52-0.308-0.81-0.281H1.997C0.895,0.005,0,0.9,0,2.005v4.001
				h0.023C0.011,6.282,0.102,6.562,0.313,6.772l8.913,8.929c0.398,0.398,1.043,0.398,1.439,0l5.037-5.045
				C16.1,10.258,16.1,9.612,15.702,9.214z M10.138,13.665L1.997,5.398V2.005h3.411l8.26,8.123L10.138,13.665z M3.994,3.005
				c-0.552,0-0.998,0.447-0.998,1c0,0.553,0.446,1,0.998,1s0.999-0.447,0.999-1C4.993,3.453,4.546,3.005,3.994,3.005z"/>
		</g>
	</g>
</g>
<g id="Row_1_1_">
</g>
</svg>
