<?xml version="1.0" encoding="utf-8"?>
<!-- Generator: Adobe Illustrator 16.0.0, SVG Export Plug-In . SVG Version: 6.00 Build 0)  -->
<!DOCTYPE svg PUBLIC "-//W3C//DTD SVG 1.1//EN" "http://www.w3.org/Graphics/SVG/1.1/DTD/svg11.dtd">
<svg version="1.1" xmlns="http://www.w3.org/2000/svg" xmlns:xlink="http://www.w3.org/1999/xlink" x="0px" y="0px"
	 width="16.002px" height="16px" viewBox="0 0 16.002 16" enable-background="new 0 0 16.002 16" xml:space="preserve">
<g id="Background_xA0_Image_1_">
</g>
<g id="Row_5_1_">
</g>
<g id="Row_4_1_">
</g>
<g id="Row_3_1_">
	<g id="up">
		<g>
			<path fill="#212121" d="M1.673,8.709l6.328-6.195l6.328,6.195c0.383,0.407,1.003,0.407,1.386,0c0.382-0.406,0.382-1.065,0-1.472
				L8.693,0.305c-0.382-0.407-1.003-0.407-1.385,0L0.288,7.237c-0.382,0.407-0.382,1.066,0,1.472
				C0.67,9.116,1.291,9.116,1.673,8.709z M8.693,7.291c-0.382-0.406-1.003-0.406-1.385,0l-7.021,6.932
				c-0.382,0.406-0.382,1.066,0,1.473c0.383,0.406,1.003,0.406,1.386,0L8.001,9.5l6.328,6.195c0.383,0.406,1.003,0.406,1.386,0
				c0.382-0.406,0.382-1.066,0-1.473L8.693,7.291z"/>
		</g>
	</g>
</g>
<g id="Row_2_1_">
</g>
<g id="Row_1_1_">
</g>
</svg>
