<?xml version="1.0" encoding="utf-8"?>
<!-- Generator: Adobe Illustrator 16.0.0, SVG Export Plug-In . SVG Version: 6.00 Build 0)  -->
<!DOCTYPE svg PUBLIC "-//W3C//DTD SVG 1.1//EN" "http://www.w3.org/Graphics/SVG/1.1/DTD/svg11.dtd">
<svg version="1.1" xmlns="http://www.w3.org/2000/svg" xmlns:xlink="http://www.w3.org/1999/xlink" x="0px" y="0px" width="16px"
	 height="16px" viewBox="0 0 16 16" enable-background="new 0 0 16 16" xml:space="preserve">
<g id="Background_xA0_Image_1_">
</g>
<g id="Row_5_1_">
</g>
<g id="Row_4_1_">
</g>
<g id="Row_3_1_">
</g>
<g id="Row_2_1_">
	<g id="user_2_">
		<g>
			<path fill="#212121" d="M9,10H7c-2.762,0-5,2.238-5,5c0,0.553,0.447,1,1,1h10c0.553,0,1-0.447,1-1C14,12.238,11.762,10,9,10z
				 M4.184,14C4.597,12.838,5.695,12,7,12h2c1.305,0,2.403,0.838,2.816,2H4.184z M8,8c1.657,0,3-1.343,3-3V3c0-1.657-1.343-3-3-3
				S5,1.343,5,3v2C5,6.657,6.343,8,8,8z M7,3c0-0.553,0.447-1,1-1s1,0.447,1,1v2c0,0.553-0.447,1-1,1S7,5.553,7,5V3z"/>
		</g>
	</g>
</g>
<g id="Row_1_1_">
</g>
</svg>
