<?xml version="1.0" encoding="utf-8"?>
<!-- Generator: Adobe Illustrator 16.0.0, SVG Export Plug-In . SVG Version: 6.00 Build 0)  -->
<!DOCTYPE svg PUBLIC "-//W3C//DTD SVG 1.1//EN" "http://www.w3.org/Graphics/SVG/1.1/DTD/svg11.dtd">
<svg version="1.1" xmlns="http://www.w3.org/2000/svg" xmlns:xlink="http://www.w3.org/1999/xlink" x="0px" y="0px" width="16px"
	 height="16px" viewBox="0 0 16 16" enable-background="new 0 0 16 16" xml:space="preserve">
<g id="Background_xA0_Image_1_">
</g>
<g id="Row_5_1_">
</g>
<g id="Row_4_1_">
	<g id="water">
		<g>
			<path fill="#212121" d="M8.929,0.629L8.925,0.63C8.777,0.262,8.421,0,8,0S7.223,0.262,7.074,0.63L7.071,0.629
				C7.109,0.591,2,6.019,2,10c0,2.864,1.999,6,6,6c4.07,0,6-2.998,6-6C14,6.046,8.929,0.687,8.929,0.629z M8,14
				c-2.006,0-4-1.991-4-4c0-2.042,3.994-7,4-7c0.103,0,4,4.518,4,6.563C12,12.012,10.003,14,8,14z"/>
		</g>
	</g>
</g>
<g id="Row_3_1_">
</g>
<g id="Row_2_1_">
</g>
<g id="Row_1_1_">
</g>
</svg>
