<?xml version="1.0" encoding="utf-8"?>
<!-- Generator: Adobe Illustrator 16.0.0, SVG Export Plug-In . SVG Version: 6.00 Build 0)  -->
<!DOCTYPE svg PUBLIC "-//W3C//DTD SVG 1.1//EN" "http://www.w3.org/Graphics/SVG/1.1/DTD/svg11.dtd">
<svg version="1.1" xmlns="http://www.w3.org/2000/svg" xmlns:xlink="http://www.w3.org/1999/xlink" x="0px" y="0px" width="16px"
	 height="16px" viewBox="0 0 16 16" enable-background="new 0 0 16 16" xml:space="preserve">
<g id="Background_xA0_Image_1_">
</g>
<g id="Row_5_1_">
</g>
<g id="Row_4_1_">
</g>
<g id="Row_3_1_">
</g>
<g id="Row_2_1_">
	<g id="wave">
		<g>
			<path fill="#212121" d="M15,8h-3c-0.553,0-1,0.447-1,1v1c0,0.553-0.447,1-1,1s-1-0.447-1-1V6c0-1.657-1.343-3-3-3S3,4.343,3,6v2
				H1C0.447,8,0,8.447,0,9s0.447,1,1,1h3c0.553,0,1-0.447,1-1V6c0-0.553,0.447-1,1-1s1,0.447,1,1v4c0,1.657,1.343,3,3,3s3-1.343,3-3
				h2c0.553,0,1-0.447,1-1S15.553,8,15,8z"/>
		</g>
	</g>
</g>
<g id="Row_1_1_">
</g>
</svg>
