<?xml version="1.0" encoding="utf-8"?>
<!-- Generator: Adobe Illustrator 16.0.0, SVG Export Plug-In . SVG Version: 6.00 Build 0)  -->
<!DOCTYPE svg PUBLIC "-//W3C//DTD SVG 1.1//EN" "http://www.w3.org/Graphics/SVG/1.1/DTD/svg11.dtd">
<svg version="1.1" xmlns="http://www.w3.org/2000/svg" xmlns:xlink="http://www.w3.org/1999/xlink" x="0px" y="0px" width="16px"
	 height="16px" viewBox="0 0 16 16" enable-background="new 0 0 16 16" xml:space="preserve">
<g id="Layer_0_xA0_Image_1_">
</g>
<g id="Row_5_1_">
	<g id="banana">
		<g>
			<path fill="#212121" d="M15,3.874c-0.375,0-1,0.533-1,0.871c-0.057,0.435-0.42,1.031-1,1.031c-0.686,0-1.466-0.502-1.934-0.411
				c-0.569,0.112-1.042,0.409-1.371,0.701c-0.086,0.076-0.17,0.152-0.256,0.217c-1.031,0.779-1.965,0.42-3.668-0.68
				C5.383,5.352,4.989,5.072,4.743,4.74C4.707,4.689,4.656,4.576,4.607,4.469C4.475,4.171,4.292,3.763,3.903,3.442
				C2.918,2.63,1.745,3.156,1.042,3.305C0.535,3.495,0.003,4.15,0,4.745C-0.02,9.305,3.582,13,8,13c4.2,0,7.638-3.342,7.968-7.589
				C15.987,5.206,16,4.986,16,4.745C16,4.257,15.504,3.874,15,3.874z M8,10.937c-3.131,0-5.672-2.645-5.946-5.801
				c0.216-0.338,0.553-0.28,0.657-0.137C2.74,5.035,2.801,5.17,2.841,5.26c0.088,0.197,0.322,0.57,0.499,0.81
				C3.782,6.668,4.225,7.11,4.773,7.465c1.411,0.912,3.544,2.292,5.783,0.598c0.125-0.095,0.249-0.202,0.373-0.313
				c0.331-0.292,0.604-0.847,1.28-0.664c0.505,0.137,0.759,0.386,0.798,0.973C11.993,9.993,10.282,10.937,8,10.937z"/>
		</g>
	</g>
</g>
<g id="Row_4_1_">
</g>
<g id="Row_3_1_">
</g>
<g id="Row_2_1_">
</g>
<g id="Row_1_1_">
</g>
</svg>
