<?xml version="1.0" encoding="utf-8"?>
<!-- Generator: Adobe Illustrator 16.0.0, SVG Export Plug-In . SVG Version: 6.00 Build 0)  -->
<!DOCTYPE svg PUBLIC "-//W3C//DTD SVG 1.1//EN" "http://www.w3.org/Graphics/SVG/1.1/DTD/svg11.dtd">
<svg version="1.1" xmlns="http://www.w3.org/2000/svg" xmlns:xlink="http://www.w3.org/1999/xlink" x="0px" y="0px" width="16px"
	 height="16px" viewBox="0 0 16 16" enable-background="new 0 0 16 16" xml:space="preserve">
<g id="Layer_0_xA0_Image_1_">
</g>
<g id="Row_5_1_">
	<g id="cherries">
		<g>
			<path fill="#212121" d="M10.6,0c-0.287,0-0.517,0.207-0.575,0.477C9.319,0.715,6.393,1.809,5,4
				c-1.258,1.979-1.67,4.951-1.782,6.021C3.145,10.017,3.074,10,3,10c-1.657,0-3,1.343-3,3s1.343,3,3,3s3-1.343,3-3
				c0-0.777-0.304-1.479-0.789-2.013C5.272,9.604,5.542,7.25,6.618,5.618C7.627,4.09,8.985,3.194,10,2.688v7.496
				C8.838,10.597,8,11.695,8,13c0,1.657,1.343,3,3,3s3-1.343,3-3c0-1.305-0.838-2.403-2-2.816V5.165C12.858,5.717,13.984,6,15.4,6
				C15.731,6,16,5.731,16,5.4C16,1.774,14.207,0,10.6,0z M3,14c-0.553,0-1-0.447-1-1s0.447-1,1-1s1,0.447,1,1S3.553,14,3,14z M11,14
				c-0.553,0-1-0.447-1-1s0.447-1,1-1s1,0.447,1,1S11.553,14,11,14z M12,2c1.012,0,2,0.899,2,2C13.044,4,12,3.031,12,2z"/>
		</g>
	</g>
</g>
<g id="Row_4_1_">
</g>
<g id="Row_3_1_">
</g>
<g id="Row_2_1_">
</g>
<g id="Row_1_1_">
</g>
</svg>
