<?xml version="1.0" encoding="utf-8"?>
<!-- Generator: Adobe Illustrator 16.0.0, SVG Export Plug-In . SVG Version: 6.00 Build 0)  -->
<!DOCTYPE svg PUBLIC "-//W3C//DTD SVG 1.1//EN" "http://www.w3.org/Graphics/SVG/1.1/DTD/svg11.dtd">
<svg version="1.1" xmlns="http://www.w3.org/2000/svg" xmlns:xlink="http://www.w3.org/1999/xlink" x="0px" y="0px" width="16px"
	 height="16.002px" viewBox="0 0 16 16.002" enable-background="new 0 0 16 16.002" xml:space="preserve">
<g id="Layer_0_xA0_Image_1_">
</g>
<g id="Row_5_1_">
</g>
<g id="Row_4_1_">
</g>
<g id="Row_3_1_">
	<g id="fish">
		<g>
			<path fill="#212121" d="M15.596,9.22c-0.597-0.602-1.061-1.007-1.831-1.718c0.756-0.699,1.244-1.129,1.83-1.718
				C15.835,5.602,16,5.326,16,5.002c0-0.553-0.447-1-1-1c-0.355,0-0.652,0.196-0.83,0.475c-0.576,0.598-1.064,1.071-1.83,1.806
				c-1.629-1.278-3.466-2.28-5.414-2.28C4.351,4.002,1.016,5.001,0,6.981l0.004,1.021c1.008,1.937,4.347,3,6.923,3
				c1.948,0,3.784-1.002,5.414-2.28c0.78,0.748,1.245,1.198,1.832,1.809c0.178,0.277,0.475,0.472,0.828,0.472c0.553,0,1-0.447,1-1
				C16,9.678,15.835,9.402,15.596,9.22z M6.927,9.163c-1.58,0-4.279-0.215-4.913-1.652c0.603-1.396,3.333-1.67,4.913-1.67
				c1.426,0,2.78,0.71,4.01,1.661C9.708,8.453,8.354,9.163,6.927,9.163z"/>
		</g>
	</g>
</g>
<g id="Row_2_1_">
</g>
<g id="Row_1_1_">
</g>
</svg>
