<?xml version="1.0" encoding="utf-8"?>
<!-- Generator: Adobe Illustrator 16.0.0, SVG Export Plug-In . SVG Version: 6.00 Build 0)  -->
<!DOCTYPE svg PUBLIC "-//W3C//DTD SVG 1.1//EN" "http://www.w3.org/Graphics/SVG/1.1/DTD/svg11.dtd">
<svg version="1.1" xmlns="http://www.w3.org/2000/svg" xmlns:xlink="http://www.w3.org/1999/xlink" x="0px" y="0px" width="16px"
	 height="16px" viewBox="0 0 16 16" enable-background="new 0 0 16 16" xml:space="preserve">
<g id="Layer_0_xA0_Image_1_">
</g>
<g id="Row_5_1_">
</g>
<g id="Row_4_1_">
</g>
<g id="Row_3_1_">
</g>
<g id="Row_2_1_">
	<g id="flower_1">
		<g>
			<path fill="#212121" d="M11.954,4.085c-0.324-0.083-0.648-0.101-0.966-0.086c-0.024-0.708-0.311-1.41-0.873-1.951L7.984,0
				L5.853,2.048C5.291,2.589,5.006,3.29,4.98,3.998C4.672,3.986,4.359,4.004,4.045,4.085L1,4.865l0.816,2.913
				c0.231,0.826,0.803,1.476,1.53,1.857C3.134,10.047,3.003,10.506,3.003,11v3h2.998C6.354,14,6.688,13.931,7,13.816V15
				c0,0.552,0.447,1,1,1s1-0.448,1-1v-1.184C9.312,13.931,9.646,14,9.999,14h2.998v-3c0-0.494-0.131-0.953-0.343-1.364
				c0.727-0.382,1.299-1.031,1.53-1.857L15,4.865L11.954,4.085z M3.846,7.258L3.574,6.287l1.015-0.261
				c0.56-0.144,1.137,0.175,1.287,0.711S5.694,7.825,5.133,7.969C4.573,8.112,3.996,7.794,3.846,7.258z M6.001,12h-1v-1
				c0-0.553,0.447-1,1-1S7,10.447,7,11C7,11.552,6.554,12,6.001,12z M8.695,4.779c-0.392,0.377-1.029,0.377-1.421,0
				s-0.392-0.988,0-1.365l0.71-0.684l0.71,0.684C9.087,3.791,9.087,4.402,8.695,4.779z M10.998,12h-1C9.446,12,9,11.552,9,11
				c0-0.553,0.447-1,0.999-1s1,0.447,1,1V12z M12.154,7.258c-0.15,0.536-0.727,0.854-1.287,0.711
				c-0.561-0.144-0.894-0.695-0.744-1.231s0.727-0.854,1.287-0.711l1.015,0.261L12.154,7.258z"/>
		</g>
	</g>
</g>
<g id="Row_1_1_">
</g>
</svg>
