<?xml version="1.0" encoding="utf-8"?>
<!-- Generator: Adobe Illustrator 16.0.0, SVG Export Plug-In . SVG Version: 6.00 Build 0)  -->
<!DOCTYPE svg PUBLIC "-//W3C//DTD SVG 1.1//EN" "http://www.w3.org/Graphics/SVG/1.1/DTD/svg11.dtd">
<svg version="1.1" xmlns="http://www.w3.org/2000/svg" xmlns:xlink="http://www.w3.org/1999/xlink" x="0px" y="0px" width="16px"
	 height="16px" viewBox="0 0 16 16" enable-background="new 0 0 16 16" xml:space="preserve">
<g id="Layer_0_xA0_Image_1_">
</g>
<g id="Row_5_1_">
</g>
<g id="Row_4_1_">
</g>
<g id="Row_3_1_">
</g>
<g id="Row_2_1_">
</g>
<g id="Row_1_1_">
	<g id="fog_1">
		<g>
			<path fill="#212121" d="M8,8c0-0.553-0.447-1-1-1H1C0.447,7,0,7.447,0,8s0.447,1,1,1h6C7.553,9,8,8.553,8,8z M4,5h8
				c0.553,0,1-0.447,1-1s-0.447-1-1-1H4C3.447,3,3,3.447,3,4S3.447,5,4,5z M15,7h-4c-0.553,0-1,0.447-1,1s0.447,1,1,1h4
				c0.553,0,1-0.447,1-1S15.553,7,15,7z M13,11H5c-0.553,0-1,0.447-1,1c0,0.552,0.447,1,1,1h8c0.553,0,1-0.448,1-1
				C14,11.447,13.553,11,13,11z"/>
		</g>
	</g>
</g>
</svg>
