<?xml version="1.0" encoding="utf-8"?>
<!-- Generator: Adobe Illustrator 16.0.0, SVG Export Plug-In . SVG Version: 6.00 Build 0)  -->
<!DOCTYPE svg PUBLIC "-//W3C//DTD SVG 1.1//EN" "http://www.w3.org/Graphics/SVG/1.1/DTD/svg11.dtd">
<svg version="1.1" xmlns="http://www.w3.org/2000/svg" xmlns:xlink="http://www.w3.org/1999/xlink" x="0px" y="0px" width="16px"
	 height="16px" viewBox="0 0 16 16" enable-background="new 0 0 16 16" xml:space="preserve">
<g id="Layer_0_xA0_Image_1_">
</g>
<g id="Row_5_1_">
</g>
<g id="Row_4_1_">
</g>
<g id="Row_3_1_">
</g>
<g id="Row_2_1_">
</g>
<g id="Row_1_1_">
	<g id="fog_2">
		<g>
			<path fill="#212121" d="M15,12c-0.165,0-0.314,0.05-0.451,0.121C13.716,12.406,12.967,13,12,13c-2.395,0-3.491-1.34-4-1.758
				C7.515,10.844,6.395,10,4,10c-1.236,0-2.202,0.607-3,1c-0.49,0.25-1,0.447-1,1c0,0.552,0.447,1,1,1
				c0.161,0,0.308-0.047,0.442-0.114C2.295,12.602,3.026,12,4,12c2.395,0,3.481,1.362,4,1.738C8.549,14.137,9.605,15,12,15
				c1.223,0,2.292-0.582,3-1c0.396-0.219,1-0.447,1-1S15.553,12,15,12z M1,5c0.161,0,0.308-0.047,0.442-0.114
				C2.295,4.602,3.026,4,4,4c2.395,0,3.481,1.362,4,1.738C8.549,6.137,9.605,7,12,7c1.223,0,2.292-0.582,3-1
				c0.396-0.219,1-0.447,1-1s-0.447-1-1-1c-0.165,0-0.314,0.05-0.451,0.121C13.716,4.406,12.967,5,12,5C9.605,5,8.509,3.66,8,3.242
				C7.515,2.844,6.395,2,4,2C2.764,2,1.798,2.607,1,3C0.51,3.25,0,3.447,0,4S0.447,5,1,5z M15,8c-0.165,0-0.314,0.05-0.451,0.121
				C13.716,8.406,12.967,9,12,9C9.605,9,8.509,7.66,8,7.242C7.515,6.844,6.395,6,4,6C2.764,6,1.798,6.607,1,7C0.51,7.25,0,7.447,0,8
				s0.447,1,1,1c0.161,0,0.308-0.047,0.442-0.114C2.295,8.602,3.026,8,4,8c2.395,0,3.481,1.362,4,1.738C8.549,10.137,9.605,11,12,11
				c1.223,0,2.292-0.582,3-1c0.396-0.219,1-0.447,1-1S15.553,8,15,8z"/>
		</g>
	</g>
</g>
</svg>
