<?xml version="1.0" encoding="utf-8"?>
<!-- Generator: Adobe Illustrator 16.0.0, SVG Export Plug-In . SVG Version: 6.00 Build 0)  -->
<!DOCTYPE svg PUBLIC "-//W3C//DTD SVG 1.1//EN" "http://www.w3.org/Graphics/SVG/1.1/DTD/svg11.dtd">
<svg version="1.1" xmlns="http://www.w3.org/2000/svg" xmlns:xlink="http://www.w3.org/1999/xlink" x="0px" y="0px" width="16px"
	 height="16px" viewBox="0 0 16 16" enable-background="new 0 0 16 16" xml:space="preserve">
<g id="Layer_0_xA0_Image_1_">
</g>
<g id="Row_5_1_">
</g>
<g id="Row_4_1_">
</g>
<g id="Row_3_1_">
</g>
<g id="Row_2_1_">
</g>
<g id="Row_1_1_">
	<g id="hurricane">
		<g>
			<path fill="#212121" d="M11,12c-0.553,0-1,0.447-1,1s-0.896,1-2,1s-2-0.447-2-1s-0.447-1-1-1s-1,0.447-1,1c0,1.657,1.791,3,4,3
				s4-1.343,4-3C12,12.447,11.553,12,11,12z M14,7c-0.553,0-1,0.447-1,1s-1.791,1-4,1S5,8.553,5,8S4.553,7,4,7S3,7.447,3,8
				c0,1.657,2.687,3,6,3s6-1.343,6-3C15,7.447,14.553,7,14,7z M15,2c-0.553,0-1,0.447-1,1s-2.687,1-6,1S2,3.553,2,3s2.687-1,6-1
				c0.553,0,1-0.447,1-1S8.553,0,8,0C3.582,0,0,1.343,0,3s3.582,3,8,3c4.004,0,7.291-1.106,7.878-2.547C15.949,3.315,16,3.166,16,3
				C16,2.447,15.553,2,15,2z"/>
		</g>
	</g>
</g>
</svg>
