<?xml version="1.0" encoding="utf-8"?>
<!-- Generator: Adobe Illustrator 16.0.0, SVG Export Plug-In . SVG Version: 6.00 Build 0)  -->
<!DOCTYPE svg PUBLIC "-//W3C//DTD SVG 1.1//EN" "http://www.w3.org/Graphics/SVG/1.1/DTD/svg11.dtd">
<svg version="1.1" xmlns="http://www.w3.org/2000/svg" xmlns:xlink="http://www.w3.org/1999/xlink" x="0px" y="0px" width="16px"
	 height="16px" viewBox="0 0 16 16" enable-background="new 0 0 16 16" xml:space="preserve">
<g id="Layer_0_xA0_Image_1_">
</g>
<g id="Row_5_1_">
	<g id="leafs">
		<g>
			<path fill="#212121" d="M0.6,6C0.269,6,0,6.269,0,6.6C0,10.226,1.793,12,5.4,12C5.731,12,6,11.731,6,11.4C6,7.774,4.207,6,0.6,6z
				 M2,8c0.956,0,2,0.969,2,2C2.988,10,2,9.101,2,8z M15.1,4C9.689,4,7,6.661,7,12.1C7,12.597,7.403,13,7.9,13
				c5.41,0,8.1-2.661,8.1-8.1C16,4.403,15.597,4,15.1,4z M9,11c0-3,2.019-5,5-5C14,9.031,12.106,11,9,11z"/>
		</g>
	</g>
</g>
<g id="Row_4_1_">
</g>
<g id="Row_3_1_">
</g>
<g id="Row_2_1_">
</g>
<g id="Row_1_1_">
</g>
</svg>
