<?xml version="1.0" encoding="utf-8"?>
<!-- Generator: Adobe Illustrator 16.0.0, SVG Export Plug-In . SVG Version: 6.00 Build 0)  -->
<!DOCTYPE svg PUBLIC "-//W3C//DTD SVG 1.1//EN" "http://www.w3.org/Graphics/SVG/1.1/DTD/svg11.dtd">
<svg version="1.1" xmlns="http://www.w3.org/2000/svg" xmlns:xlink="http://www.w3.org/1999/xlink" x="0px" y="0px" width="16px"
	 height="16px" viewBox="0 0 16 16" enable-background="new 0 0 16 16" xml:space="preserve">
<g id="Layer_0_xA0_Image_1_">
</g>
<g id="Row_5_1_">
</g>
<g id="Row_4_1_">
	<g id="leaf_2">
		<g>
			<path fill="#212121" d="M15,0H6C2.687,0,0,2.687,0,6c0,2.215,1.214,4.128,3,5.168V15c0,0.553,0.447,1,1,1s1-0.447,1-1v-3.101
				C5.327,11.954,5.657,12,6,12c3.313,0,6-2.687,6-6c0-1.861,1.277-3.554,3-4c0.553,0,1-0.447,1-1S15.553,0,15,0z M10,6
				c0,2.209-1.791,4-4,4c-0.348,0-0.679-0.059-1-0.142V8c0-0.553,0.447-1,1-1s1-0.447,1-1S6.553,5,6,5C4.343,5,3,6.343,3,8v0.62
				C2.385,7.917,2,7.008,2,6c0-2.209,1.791-4,4-4h5.558C10.6,3.063,10,4.456,10,6z"/>
		</g>
	</g>
</g>
<g id="Row_3_1_">
</g>
<g id="Row_2_1_">
</g>
<g id="Row_1_1_">
</g>
</svg>
