<?xml version="1.0" encoding="utf-8"?>
<!-- Generator: Adobe Illustrator 16.0.0, SVG Export Plug-In . SVG Version: 6.00 Build 0)  -->
<!DOCTYPE svg PUBLIC "-//W3C//DTD SVG 1.1//EN" "http://www.w3.org/Graphics/SVG/1.1/DTD/svg11.dtd">
<svg version="1.1" xmlns="http://www.w3.org/2000/svg" xmlns:xlink="http://www.w3.org/1999/xlink" x="0px" y="0px" width="16px"
	 height="16px" viewBox="0 0 16 16" enable-background="new 0 0 16 16" xml:space="preserve">
<g id="Layer_0_xA0_Image_1_">
</g>
<g id="Row_5_1_">
</g>
<g id="Row_4_1_">
	<g id="leaf">
		<g>
			<path fill="#212121" d="M14,3c-0.11,0-0.213,0.029-0.313,0.063l-0.004-0.012l-2.316,0.771L8.8,0.4L8.786,0.41
				C8.604,0.167,8.327,0,8,0S7.396,0.167,7.214,0.41L7.2,0.4L4.633,3.823L2.316,3.052L2.313,3.063C2.213,3.029,2.11,3,2,3
				C1.447,3,1,3.447,1,4v3c0,3.523,2.612,6.41,6,6.899V15c0,0.553,0.447,1,1,1s1-0.447,1-1v-1.101c3.388-0.489,6-3.376,6-6.899V4
				C15,3.447,14.553,3,14,3z M13,7c0,2.419-1.718,4.436-4,4.899V8c0-0.553-0.447-1-1-1S7,7.447,7,8v3.899C4.718,11.436,3,9.419,3,7
				V5.388l1.684,0.561l0.004-0.012C4.787,5.97,4.89,6,5,6c0.327,0,0.604-0.167,0.786-0.41L5.8,5.6L8,2.667L10.2,5.6l0.014-0.01
				C10.396,5.833,10.673,6,11,6c0.11,0,0.213-0.03,0.313-0.063l0.004,0.012L13,5.388V7z"/>
		</g>
	</g>
</g>
<g id="Row_3_1_">
</g>
<g id="Row_2_1_">
</g>
<g id="Row_1_1_">
</g>
</svg>
