<?xml version="1.0" encoding="utf-8"?>
<!-- Generator: Adobe Illustrator 16.0.0, SVG Export Plug-In . SVG Version: 6.00 Build 0)  -->
<!DOCTYPE svg PUBLIC "-//W3C//DTD SVG 1.1//EN" "http://www.w3.org/Graphics/SVG/1.1/DTD/svg11.dtd">
<svg version="1.1" xmlns="http://www.w3.org/2000/svg" xmlns:xlink="http://www.w3.org/1999/xlink" x="0px" y="0px" width="16px"
	 height="16px" viewBox="0 0 16 16" enable-background="new 0 0 16 16" xml:space="preserve">
<g id="Layer_0_xA0_Image_1_">
</g>
<g id="Row_5_1_">
</g>
<g id="Row_4_1_">
</g>
<g id="Row_3_1_">
</g>
<g id="Row_2_1_">
	<g id="leaf_1">
		<g>
			<path fill="#212121" d="M15,0H6C2.687,0,0,2.687,0,6v9c0,0.553,0.447,1,1,1s1-0.447,1-1v-1c-0.031-3.198,4-4,4-4l4-1
				c2.595-0.563,6-3.687,6-7V1C16,0.447,15.553,0,15,0z M10,7L6,8C4.642,8.449,3.356,8.58,2.338,9.296C3.451,7.766,6.068,6,7,6
				c0.553,0,1-0.448,1-1c0-0.553-0.447-1-1-1C5.631,4,3.89,4.84,2,6.764V6c0-2.209,1.791-4,4-4h8C14,4.209,11.678,6.594,10,7z"/>
		</g>
	</g>
</g>
<g id="Row_1_1_">
</g>
</svg>
