<?xml version="1.0" encoding="utf-8"?>
<!-- Generator: Adobe Illustrator 16.0.0, SVG Export Plug-In . SVG Version: 6.00 Build 0)  -->
<!DOCTYPE svg PUBLIC "-//W3C//DTD SVG 1.1//EN" "http://www.w3.org/Graphics/SVG/1.1/DTD/svg11.dtd">
<svg version="1.1" xmlns="http://www.w3.org/2000/svg" xmlns:xlink="http://www.w3.org/1999/xlink" x="0px" y="0px" width="16px"
	 height="16px" viewBox="0 0 16 16" enable-background="new 0 0 16 16" xml:space="preserve">
<g id="Layer_0_xA0_Image_1_">
</g>
<g id="Row_5_1_">
</g>
<g id="Row_4_1_">
</g>
<g id="Row_3_1_">
</g>
<g id="Row_2_1_">
	<g id="leaf_2_1_">
		<g>
			<path fill="#212121" d="M8,0C7.854,0,3,4.687,3,8c0,2.959,1.354,4.61,4,4.933V15c0,0.553,0.447,1,1,1s1-0.447,1-1v-2.067
				c2.646-0.322,4-1.974,4-4.933C13,4.687,8.082,0,8,0z M9,10.886V8c0-0.553-0.447-1-1-1S7,7.447,7,8v2.886
				c-1.319-0.298-2-1.23-2-2.803C5,6.15,7.913,3,8,3c0.049,0,3,3.15,3,5.083C11,9.655,10.319,10.588,9,10.886z"/>
		</g>
	</g>
</g>
<g id="Row_1_1_">
</g>
</svg>
