<?xml version="1.0" encoding="utf-8"?>
<!-- Generator: Adobe Illustrator 16.0.0, SVG Export Plug-In . SVG Version: 6.00 Build 0)  -->
<!DOCTYPE svg PUBLIC "-//W3C//DTD SVG 1.1//EN" "http://www.w3.org/Graphics/SVG/1.1/DTD/svg11.dtd">
<svg version="1.1" xmlns="http://www.w3.org/2000/svg" xmlns:xlink="http://www.w3.org/1999/xlink" x="0px" y="0px"
	 width="15.999px" height="16px" viewBox="0 0 15.999 16" enable-background="new 0 0 15.999 16" xml:space="preserve">
<g id="Layer_0_xA0_Image_1_">
</g>
<g id="Row_5_1_">
	<g id="lemon">
		<g>
			<path fill="#212121" d="M15.188,11.837l-0.466-0.466c0.628-2.331-0.273-5.303-2.531-7.562c-2.26-2.26-5.231-3.16-7.563-2.533
				L4.163,0.812C3.149-0.204,1.576-0.276,0.649,0.65c-0.926,0.926-0.854,2.498,0.161,3.513l0.466,0.466
				C0.648,6.96,1.549,9.932,3.808,12.19c2.26,2.26,5.231,3.16,7.563,2.533l0.465,0.465c1.015,1.016,2.588,1.088,3.515,0.161
				C16.275,14.424,16.203,12.852,15.188,11.837z M13.94,13.943c-0.192,0.193-0.506,0.193-0.698,0l-1.795-1.798
				c-1.615,1.141-4.281,0.61-6.238-1.352c-1.957-1.961-2.486-4.632-1.35-6.25L2.065,2.746c-0.193-0.193-0.193-0.506,0-0.699
				c0.192-0.193,0.506-0.193,0.698,0l1.795,1.798c1.615-1.14,4.281-0.609,6.238,1.352s2.486,4.632,1.35,6.25l1.794,1.798
				C14.134,13.438,14.134,13.75,13.94,13.943z"/>
		</g>
	</g>
</g>
<g id="Row_4_1_">
</g>
<g id="Row_3_1_">
</g>
<g id="Row_2_1_">
</g>
<g id="Row_1_1_">
</g>
</svg>
