<?xml version="1.0" encoding="utf-8"?>
<!-- Generator: Adobe Illustrator 16.0.0, SVG Export Plug-In . SVG Version: 6.00 Build 0)  -->
<!DOCTYPE svg PUBLIC "-//W3C//DTD SVG 1.1//EN" "http://www.w3.org/Graphics/SVG/1.1/DTD/svg11.dtd">
<svg version="1.1" xmlns="http://www.w3.org/2000/svg" xmlns:xlink="http://www.w3.org/1999/xlink" x="0px" y="0px" width="16px"
	 height="16px" viewBox="0 0 16 16" enable-background="new 0 0 16 16" xml:space="preserve">
<g id="Layer_0_xA0_Image_1_">
</g>
<g id="Row_5_1_">
</g>
<g id="Row_4_1_">
</g>
<g id="Row_3_1_">
</g>
<g id="Row_2_1_">
	<g id="log">
		<g>
			<path fill="#212121" d="M13,6.005h-1.465L9.832,3.45L9.816,3.46C9.638,3.192,9.347,3.005,9,3.005c-0.553,0-1,0.447-1,1
				C8,4.21,8.077,4.391,8.184,4.55L8.168,4.56l0.964,1.445H3c-1.657,0-3,1.791-3,4s1.343,4,3,4h10c1.657,0,3-1.791,3-4
				S14.657,6.005,13,6.005z M3,12.005c-0.553,0-1-0.896-1-2s0.447-2,1-2s1,0.896,1,2S3.553,12.005,3,12.005z M13,12.005H5.584
				C5.842,11.414,6,10.737,6,10.005s-0.158-1.409-0.416-2H13c0.553,0,1,0.896,1,2S13.553,12.005,13,12.005z"/>
		</g>
	</g>
</g>
<g id="Row_1_1_">
</g>
</svg>
