<?xml version="1.0" encoding="utf-8"?>
<!-- Generator: Adobe Illustrator 16.0.0, SVG Export Plug-In . SVG Version: 6.00 Build 0)  -->
<!DOCTYPE svg PUBLIC "-//W3C//DTD SVG 1.1//EN" "http://www.w3.org/Graphics/SVG/1.1/DTD/svg11.dtd">
<svg version="1.1" xmlns="http://www.w3.org/2000/svg" xmlns:xlink="http://www.w3.org/1999/xlink" x="0px" y="0px" width="16px"
	 height="16px" viewBox="0 0 16 16" enable-background="new 0 0 16 16" xml:space="preserve">
<g id="Layer_0_xA0_Image_1_">
</g>
<g id="Row_5_1_">
	<g id="lotus">
		<g>
			<path fill="#212121" d="M15.824,11.276c-0.93-0.915-1.856-1.49-2.781-1.74c0.628-0.809,0.961-1.892,0.961-3.293
				c0-0.306-0.269-0.554-0.6-0.554c-1.281,0-2.322,0.217-3.147,0.633c0.271-1.383-0.32-2.765-1.833-4.16
				c-0.235-0.217-0.615-0.217-0.849,0C6.068,3.553,5.47,4.936,5.743,6.322C4.917,5.906,3.877,5.689,2.596,5.689
				c-0.332,0-0.6,0.248-0.6,0.554c0,1.402,0.333,2.485,0.962,3.293c-0.924,0.25-1.851,0.823-2.782,1.74
				c-0.234,0.231-0.234,0.604,0,0.836c2.536,2.497,5.043,2.521,7.592,0.044h0.465c2.535,2.464,5.043,2.466,7.592-0.044
				C16.059,11.881,16.059,11.508,15.824,11.276z M2.582,11.694c0.73-0.719,2.154-0.667,2.83,0
				C4.633,12.461,3.297,12.399,2.582,11.694z M3.997,7.537c0.957,0,2.001,0.895,2.001,1.848C4.986,9.385,3.997,8.554,3.997,7.537z
				 M8,6.996C7.27,6.322,7.324,5.008,8,4.383C8.779,5.103,8.716,6.335,8,6.996z M12.003,7.537c0,1.017-0.989,1.848-2.001,1.848
				C10.001,8.432,11.046,7.537,12.003,7.537z M10.588,11.694c0.73-0.719,2.154-0.667,2.83,0
				C12.639,12.461,11.303,12.399,10.588,11.694z"/>
		</g>
	</g>
</g>
<g id="Row_4_1_">
</g>
<g id="Row_3_1_">
</g>
<g id="Row_2_1_">
</g>
<g id="Row_1_1_">
</g>
</svg>
