<?xml version="1.0" encoding="utf-8"?>
<!-- Generator: Adobe Illustrator 16.0.0, SVG Export Plug-In . SVG Version: 6.00 Build 0)  -->
<!DOCTYPE svg PUBLIC "-//W3C//DTD SVG 1.1//EN" "http://www.w3.org/Graphics/SVG/1.1/DTD/svg11.dtd">
<svg version="1.1" xmlns="http://www.w3.org/2000/svg" xmlns:xlink="http://www.w3.org/1999/xlink" x="0px" y="0px" width="16px"
	 height="16px" viewBox="0 0 16 16" enable-background="new 0 0 16 16" xml:space="preserve">
<g id="Layer_0_xA0_Image_1_">
</g>
<g id="Row_5_1_">
</g>
<g id="Row_4_1_">
</g>
<g id="Row_3_1_">
</g>
<g id="Row_2_1_">
	<g id="mushroom">
		<g>
			<path fill="#212121" d="M8,0C3.582,0,0,2.687,0,6c0,1.326,2.641,1.771,5,1.922V13c0,1.657,1.343,3,3,3s3-1.343,3-3V7.922
				C13.359,7.771,16,7.326,16,6C16,2.687,12.418,0,8,0z M9,13c0,0.553-0.447,1-1,1s-1-0.447-1-1V7.995C7.389,8,7.733,8,8,8
				s0.611,0,1-0.005V13z M8,6C6.762,6,2,6.001,2,5c0-1.126,3.238-3,6-3s6,1.843,6,3C14,6.001,9.238,6,8,6z"/>
		</g>
	</g>
</g>
<g id="Row_1_1_">
</g>
</svg>
