<?xml version="1.0" encoding="utf-8"?>
<!-- Generator: Adobe Illustrator 16.0.0, SVG Export Plug-In . SVG Version: 6.00 Build 0)  -->
<!DOCTYPE svg PUBLIC "-//W3C//DTD SVG 1.1//EN" "http://www.w3.org/Graphics/SVG/1.1/DTD/svg11.dtd">
<svg version="1.1" xmlns="http://www.w3.org/2000/svg" xmlns:xlink="http://www.w3.org/1999/xlink" x="0px" y="0px" width="16px"
	 height="16px" viewBox="0 0 16 16" enable-background="new 0 0 16 16" xml:space="preserve">
<g id="Layer_0_xA0_Image_1_">
</g>
<g id="Row_5_1_">
</g>
<g id="Row_4_1_">
	<g id="pineapple">
		<g>
			<path fill="#212121" d="M9,5h2c0.553,0,1-0.447,1-1s-0.447-1-1-1H9.778c0.55-0.609,1.337-1,2.222-1c0.553,0,1-0.447,1-1
				s-0.447-1-1-1c-1.644,0-3.089,0.804-4,2.027C7.089,0.804,5.644,0,4,0C3.447,0,3,0.447,3,1s0.447,1,1,1
				c0.885,0,1.672,0.391,2.222,1H5C4.447,3,4,3.447,4,4s0.447,1,1,1h2c-2.282,0.463-4,2.581-4,5v2c0,2.762,2.238,4,5,4s5-1.238,5-4
				v-2C13,7.581,11.282,5.463,9,5z M11,11.454C11,13.212,9.657,14,8,14c-1.08,0-2.019-0.342-2.547-1.062
				c0.179,0.04,0.364,0.024,0.504-0.115l1.95-1.95l1.171,1.17c0.215,0.216,0.564,0.216,0.78,0c0.215-0.215,0.215-0.564,0-0.78
				l-1.171-1.17l1.171-1.171c0.215-0.215,0.215-0.564,0-0.78c-0.216-0.215-0.565-0.215-0.78,0L7.907,9.313l-1.17-1.171
				c-0.216-0.215-0.565-0.215-0.78,0c-0.216,0.216-0.216,0.565,0,0.78l1.17,1.171l-1.95,1.95c-0.037,0.037-0.059,0.081-0.083,0.125
				C5.038,11.948,5,11.716,5,11.454v-1.272C5,8.425,6.343,7,8,7s3,1.425,3,3.182V11.454z"/>
		</g>
	</g>
</g>
<g id="Row_3_1_">
</g>
<g id="Row_2_1_">
</g>
<g id="Row_1_1_">
</g>
</svg>
