<?xml version="1.0" encoding="utf-8"?>
<!-- Generator: Adobe Illustrator 16.0.0, SVG Export Plug-In . SVG Version: 6.00 Build 0)  -->
<!DOCTYPE svg PUBLIC "-//W3C//DTD SVG 1.1//EN" "http://www.w3.org/Graphics/SVG/1.1/DTD/svg11.dtd">
<svg version="1.1" xmlns="http://www.w3.org/2000/svg" xmlns:xlink="http://www.w3.org/1999/xlink" x="0px" y="0px" width="16px"
	 height="16px" viewBox="0 0 16 16" enable-background="new 0 0 16 16" xml:space="preserve">
<g id="Layer_0_xA0_Image_1_">
</g>
<g id="Row_5_1_">
</g>
<g id="Row_4_1_">
	<g id="plant_1">
		<g>
			<path fill-rule="evenodd" clip-rule="evenodd" fill="#212121" d="M8,7C7.447,7,7,7.447,7,8v7c0,0.553,0.447,1,1,1s1-0.447,1-1V8
				C9,7.447,8.553,7,8,7z M8,0C7.989,0,6,1.343,6,3s1.958,3,2,3c0.011,0,2-1.343,2-3S8.042,0,8,0z M2.093,5.092
				C2.065,5.118,1.674,7.223,2.73,8.278C3.786,9.335,5.91,8.923,5.917,8.916C5.943,8.89,6.335,6.785,5.279,5.729
				C4.224,4.673,2.1,5.085,2.093,5.092z M13.27,8.278c1.056-1.056,0.665-3.16,0.638-3.187c-0.007-0.007-2.131-0.419-3.186,0.638
				c-1.057,1.056-0.665,3.16-0.638,3.187C10.09,8.923,12.214,9.335,13.27,8.278z M14.907,10.092
				c-0.007-0.007-2.13-0.419-3.186,0.638c-1.056,1.056-0.665,3.16-0.637,3.187c0.007,0.007,2.13,0.419,3.186-0.638
				C15.326,12.223,14.934,10.118,14.907,10.092z M1.093,10.092c-0.027,0.026-0.419,2.131,0.638,3.187
				c1.055,1.057,3.179,0.645,3.186,0.638c0.026-0.026,0.419-2.131-0.637-3.187C3.224,9.673,1.1,10.085,1.093,10.092z"/>
		</g>
	</g>
</g>
<g id="Row_3_1_">
</g>
<g id="Row_2_1_">
</g>
<g id="Row_1_1_">
</g>
</svg>
