<?xml version="1.0" encoding="utf-8"?>
<!-- Generator: Adobe Illustrator 16.0.0, SVG Export Plug-In . SVG Version: 6.00 Build 0)  -->
<!DOCTYPE svg PUBLIC "-//W3C//DTD SVG 1.1//EN" "http://www.w3.org/Graphics/SVG/1.1/DTD/svg11.dtd">
<svg version="1.1" xmlns="http://www.w3.org/2000/svg" xmlns:xlink="http://www.w3.org/1999/xlink" x="0px" y="0px" width="16px"
	 height="16px" viewBox="0 0 16 16" enable-background="new 0 0 16 16" xml:space="preserve">
<g id="Layer_0_xA0_Image_1_">
</g>
<g id="Row_5_1_">
</g>
<g id="Row_4_1_">
</g>
<g id="Row_3_1_">
	<g id="planted_tree">
		<g>
			<path fill="#212121" d="M15,14H9V9.899c2.282-0.464,4-2.48,4-4.899c0-2.762-2.238-5-5-5S3,2.238,3,5c0,2.419,1.718,4.436,4,4.899
				V14H1c-0.553,0-1,0.447-1,1s0.447,1,1,1h14c0.553,0,1-0.447,1-1S15.553,14,15,14z M8,5C7.447,5,7,5.447,7,6v1.816
				C5.838,7.403,5,6.305,5,5c0-1.657,1.343-3,3-3s3,1.343,3,3c0,1.305-0.838,2.403-2,2.816V6C9,5.447,8.553,5,8,5z"/>
		</g>
	</g>
</g>
<g id="Row_2_1_">
</g>
<g id="Row_1_1_">
</g>
</svg>
