<?xml version="1.0" encoding="utf-8"?>
<!-- Generator: Adobe Illustrator 16.0.0, SVG Export Plug-In . SVG Version: 6.00 Build 0)  -->
<!DOCTYPE svg PUBLIC "-//W3C//DTD SVG 1.1//EN" "http://www.w3.org/Graphics/SVG/1.1/DTD/svg11.dtd">
<svg version="1.1" xmlns="http://www.w3.org/2000/svg" xmlns:xlink="http://www.w3.org/1999/xlink" x="0px" y="0px" width="16px"
	 height="16px" viewBox="0 0 16 16" enable-background="new 0 0 16 16" xml:space="preserve">
<g id="Layer_0_xA0_Image_1_">
</g>
<g id="Row_5_1_">
</g>
<g id="Row_4_1_">
</g>
<g id="Row_3_1_">
	<g id="planter">
		<g>
			<path fill="#212121" d="M15,0H1C0.447,0,0,0.447,0,1v4c0,0.552,0.447,1,1,1h0.18l1.84,9.196l0.02-0.004
				C3.131,15.649,3.516,16,4,16h8c0.484,0,0.869-0.351,0.961-0.808l0.02,0.004L14.819,6H15c0.553,0,1-0.448,1-1V1
				C16,0.447,15.553,0,15,0z M11.18,14h-6.36l-1.6-8h9.561L11.18,14z M14,4H2V2h12V4z"/>
		</g>
	</g>
</g>
<g id="Row_2_1_">
</g>
<g id="Row_1_1_">
</g>
</svg>
