<?xml version="1.0" encoding="utf-8"?>
<!-- Generator: Adobe Illustrator 16.0.0, SVG Export Plug-In . SVG Version: 6.00 Build 0)  -->
<!DOCTYPE svg PUBLIC "-//W3C//DTD SVG 1.1//EN" "http://www.w3.org/Graphics/SVG/1.1/DTD/svg11.dtd">
<svg version="1.1" xmlns="http://www.w3.org/2000/svg" xmlns:xlink="http://www.w3.org/1999/xlink" x="0px" y="0px" width="16px"
	 height="16px" viewBox="0 0 16 16" enable-background="new 0 0 16 16" xml:space="preserve">
<g id="Layer_0_xA0_Image_1_">
</g>
<g id="Row_5_1_">
	<g id="radish">
		<g>
			<path fill="#212121" d="M10.519,5.428C12.17,4.649,13,3.054,13,0.6C13,0.269,12.731,0,12.4,0C10.331,0,8.879,0.604,8,1.786
				C7.121,0.604,5.669,0,3.6,0C3.269,0,3,0.269,3,0.6c0,2.454,0.83,4.05,2.481,4.828C3.431,6.144,2,7.691,2,9.5
				c0,2.229,2.165,4.065,5,4.425V15c0,0.553,0.447,1,1,1s1-0.447,1-1v-1.075c2.835-0.359,5-2.196,5-4.425
				C14,7.691,12.569,6.144,10.519,5.428z M11,2c0,1.101-0.988,2-2,2C9,2.969,10.044,2,11,2z M5,2c0.956,0,2,0.969,2,2
				C5.988,4,5,3.101,5,2z M8,12c-2.209,0-4-1.119-4-2.5S5.791,7,8,7s4,1.119,4,2.5S10.209,12,8,12z"/>
		</g>
	</g>
</g>
<g id="Row_4_1_">
</g>
<g id="Row_3_1_">
</g>
<g id="Row_2_1_">
</g>
<g id="Row_1_1_">
</g>
</svg>
