<?xml version="1.0" encoding="utf-8"?>
<!-- Generator: Adobe Illustrator 16.0.0, SVG Export Plug-In . SVG Version: 6.00 Build 0)  -->
<!DOCTYPE svg PUBLIC "-//W3C//DTD SVG 1.1//EN" "http://www.w3.org/Graphics/SVG/1.1/DTD/svg11.dtd">
<svg version="1.1" xmlns="http://www.w3.org/2000/svg" xmlns:xlink="http://www.w3.org/1999/xlink" x="0px" y="0px"
	 width="15.999px" height="16px" viewBox="0 0 15.999 16" enable-background="new 0 0 15.999 16" xml:space="preserve">
<g id="Layer_0_xA0_Image_1_">
</g>
<g id="Row_5_1_">
</g>
<g id="Row_4_1_">
</g>
<g id="Row_3_1_">
</g>
<g id="Row_2_1_">
</g>
<g id="Row_1_1_">
	<g id="rain">
		<g>
			<path fill="#212121" d="M15.933,6.327c-0.14-0.878-0.903-1.636-1.595-1.998c-0.191-0.099-0.381-0.175-0.571-0.226
				c-0.056-1.497-0.842-2.844-2.179-3.609C10.056-0.385,8.155-0.074,6.751,1.29C6.345,1.683,6.132,2.073,6.002,2.447
				C5.165,2.25,4.234,2.412,3.521,2.79C2.466,3.35,1.862,4.297,1.825,5.31c-0.591,0.14-1.119,0.512-1.469,1.078
				C0.113,6.781-0.016,7.299,0.001,7.807C0.04,8.911,1.164,9.495,1.295,9.56c0.739,0.313,1.49,0.557,2.245,0.768l-1.496,4.356
				l0.012,0.004C2.021,14.787,1.991,14.89,1.991,15c0,0.553,0.462,1,1.03,1c0.455,0,0.828-0.291,0.965-0.688l0.012,0.004
				l1.561-4.547c0.322,0.052,0.646,0.097,0.969,0.129l-0.956,2.785c0,0-0.053,0.09-0.053,0.316c0,0.552,0.461,1,1.029,1
				c0.455,0,0.829-0.291,0.966-0.688l0.012,0.004l1.147-3.342c0.342-0.009,0.685-0.02,1.027-0.049l-1.29,3.758
				c0,0-0.053,0.09-0.053,0.316c0,0.553,0.462,1,1.029,1c0.455,0,0.829-0.291,0.966-0.688l1.64-4.744
				c0.775-0.171,1.548-0.376,2.315-0.654C14.011,10.021,16.426,9.428,15.933,6.327z M13.753,8.114
				C9.924,9.492,5.884,9.504,2.129,7.889C1.913,7.714,1.748,7.725,1.961,7.376C2.17,7.037,2.495,7.132,2.625,7.188
				C2.989,7.348,3.418,7.26,3.691,6.968c0.272-0.293,0.331-0.726,0.146-1.079c-0.343-0.654,0.067-1.17,0.566-1.435
				c0.492-0.261,1.238-0.308,1.565,0.038C6.209,4.744,6.566,4.844,6.9,4.753c0.328-0.09,0.578-0.352,0.661-0.68
				c0.016-0.136,0.222-1.16,0.501-1.432c0.626-0.606,1.632-0.869,2.589-0.514c1.054,0.393,1.413,1.581,1.17,2.732
				c-0.073,0.352,0.054,0.716,0.337,0.938c0.249,0.194,1.583-0.142,1.915,0.826C14.293,7.295,14.192,7.891,13.753,8.114z
				 M1.271,9.55C1.319,9.571,1.317,9.57,1.295,9.56C1.292,9.559,1.289,9.558,1.286,9.556C1.281,9.555,1.275,9.552,1.271,9.55z"/>
		</g>
	</g>
</g>
</svg>
