<?xml version="1.0" encoding="utf-8"?>
<!-- Generator: Adobe Illustrator 16.0.0, SVG Export Plug-In . SVG Version: 6.00 Build 0)  -->
<!DOCTYPE svg PUBLIC "-//W3C//DTD SVG 1.1//EN" "http://www.w3.org/Graphics/SVG/1.1/DTD/svg11.dtd">
<svg version="1.1" xmlns="http://www.w3.org/2000/svg" xmlns:xlink="http://www.w3.org/1999/xlink" x="0px" y="0px" width="16px"
	 height="16px" viewBox="0 0 16 16" enable-background="new 0 0 16 16" xml:space="preserve">
<g id="Layer_0_xA0_Image_1_">
</g>
<g id="Row_5_1_">
</g>
<g id="Row_4_1_">
	<g id="river">
		<g>
			<path fill="#212121" d="M13,12c-0.553,0-1-0.447-1-1s0.447-1,1-1c1.657,0,3-1.343,3-3s-1.343-3-3-3c-0.553,0-1-0.447-1-1
				s0.447-1,1-1s1-0.447,1-1s-0.447-1-1-1H3C1.343,0,0,1.343,0,3s1.343,3,3,3c0.553,0,1,0.447,1,1S3.553,8,3,8c-1.657,0-3,1.343-3,3
				s1.343,3,3,3c0.553,0,1,0.447,1,1s0.447,1,1,1h10c0.553,0,1-0.447,1-1C16,13.343,14.657,12,13,12z M5.816,14
				c-0.136-0.381-0.365-0.707-0.631-1H6c0.553,0,1-0.447,1-1s-0.447-1-1-1H2c0-0.553,0.447-1,1-1c1.657,0,3-1.343,3-3h1
				c0.553,0,1-0.447,1-1S7.553,5,7,5H5.222C4.672,4.391,3.885,4,3,4C2.447,4,2,3.553,2,3s0.447-1,1-1h7.184
				C10.072,2.314,10,2.647,10,3c0,1.657,1.343,3,3,3c0.553,0,1,0.447,1,1s-0.447,1-1,1c-0.221,0-0.435,0.027-0.642,0.072
				C12.247,8.029,12.127,8,12,8H9C8.447,8,8,8.447,8,9s0.447,1,1,1h1.184C10.072,10.314,10,10.647,10,11c0,1.657,1.343,3,3,3H5.816z
				"/>
		</g>
	</g>
</g>
<g id="Row_3_1_">
</g>
<g id="Row_2_1_">
</g>
<g id="Row_1_1_">
</g>
</svg>
