<?xml version="1.0" encoding="utf-8"?>
<!-- Generator: Adobe Illustrator 16.0.0, SVG Export Plug-In . SVG Version: 6.00 Build 0)  -->
<!DOCTYPE svg PUBLIC "-//W3C//DTD SVG 1.1//EN" "http://www.w3.org/Graphics/SVG/1.1/DTD/svg11.dtd">
<svg version="1.1" xmlns="http://www.w3.org/2000/svg" xmlns:xlink="http://www.w3.org/1999/xlink" x="0px" y="0px" width="16px"
	 height="16px" viewBox="0 0 16 16" enable-background="new 0 0 16 16" xml:space="preserve">
<g id="Layer_0_xA0_Image_1_">
</g>
<g id="Row_5_1_">
</g>
<g id="Row_4_1_">
</g>
<g id="Row_3_1_">
</g>
<g id="Row_2_1_">
</g>
<g id="Row_1_1_">
	<g id="snow">
		<g>
			<path fill="#212121" d="M15,7.009c0-0.548-0.447-0.991-1-0.991s-1,0.443-1,0.991h-1l-1.181-1.894
				c-0.253,0.37,0.547-0.911,0.547-0.911c0.479,0.274,1.09,0.111,1.366-0.363c0.275-0.474,0.112-1.08-0.366-1.354
				C12.643,2.013,12.479,1.406,12,1.132c-0.479-0.273-1.09-0.11-1.366,0.363c-0.479-0.273-1.09-0.111-1.366,0.363
				c-0.275,0.474-0.112,1.08,0.366,1.354L9.154,4.035H6.846L6.366,3.212c0.479-0.274,0.642-0.88,0.366-1.354
				C6.456,1.384,5.845,1.223,5.366,1.496C5.09,1.022,4.479,0.859,4,1.132C3.521,1.406,3.357,2.013,3.634,2.487
				c-0.479,0.274-0.642,0.88-0.366,1.354c0.276,0.474,0.888,0.637,1.366,0.363c0,0,0.8,1.281,0.547,0.911L4,7.009H3
				c0-0.548-0.447-0.991-1-0.991S1,6.461,1,7.009C0.447,7.009,0,7.452,0,8s0.447,0.991,1,0.991c0,0.548,0.447,0.991,1,0.991
				s1-0.443,1-0.991h1l1.108,1.99l-0.475,0.815c-0.479-0.274-1.09-0.111-1.366,0.363c-0.275,0.474-0.112,1.08,0.366,1.354
				C3.357,13.987,3.521,14.594,4,14.867c0.479,0.274,1.09,0.111,1.366-0.362c0.479,0.273,1.09,0.111,1.366-0.363
				c0.275-0.474,0.112-1.08-0.366-1.354l0.479-0.823h2.309l0.479,0.823c-0.479,0.274-0.642,0.88-0.366,1.354
				c0.276,0.474,0.888,0.636,1.366,0.363c0.276,0.474,0.888,0.636,1.366,0.362c0.479-0.273,0.643-0.88,0.366-1.354
				c0.479-0.274,0.642-0.88,0.366-1.354c-0.276-0.474-0.888-0.637-1.366-0.363l-0.5-0.859L12,8.991h1c0,0.548,0.447,0.991,1,0.991
				s1-0.443,1-0.991c0.553,0,1-0.443,1-0.991S15.553,7.009,15,7.009z M9,9.982H7L5.702,8L7,6.018h2L10.298,8L9,9.982z"/>
		</g>
	</g>
</g>
</svg>
