<?xml version="1.0" encoding="utf-8"?>
<!-- Generator: Adobe Illustrator 16.0.0, SVG Export Plug-In . SVG Version: 6.00 Build 0)  -->
<!DOCTYPE svg PUBLIC "-//W3C//DTD SVG 1.1//EN" "http://www.w3.org/Graphics/SVG/1.1/DTD/svg11.dtd">
<svg version="1.1" xmlns="http://www.w3.org/2000/svg" xmlns:xlink="http://www.w3.org/1999/xlink" x="0px" y="0px" width="16px"
	 height="16px" viewBox="0 0 16 16" enable-background="new 0 0 16 16" xml:space="preserve">
<g id="Layer_0_xA0_Image_1_">
</g>
<g id="Row_5_1_">
</g>
<g id="Row_4_1_">
	<g id="strawberry">
		<g>
			<path fill="#212121" d="M11,2c-0.418,0-0.806,0.129-1.127,0.349C9.777,2.071,9.636,1.808,9.414,1.586L8,0L6.586,1.586
				C6.364,1.808,6.223,2.071,6.127,2.349C5.806,2.129,5.418,2,5,2H3v2c0,0.809,0.482,1.502,1.174,1.816C5.091,4.716,6.455,4,8,4
				s2.909,0.716,3.826,1.816C12.518,5.502,13,4.809,13,4V2H11z M3.998,4.01v-1h1L3.998,4.01z M7.293,2.938L8,2.23l0.707,0.707H7.293
				z M11.971,4.01l-1-1h1V4.01z M8,6c-2.209,0-4,1.791-4,4s4.021,6,4,6c-0.041,0,4-3.791,4-6S10.209,6,8,6z M8,13
				c0.011,0-2-1.931-2-2.6C6,9.074,6.896,8,8,8s2,1.074,2,2.4C10,11.132,7.979,13,8,13z"/>
		</g>
	</g>
</g>
<g id="Row_3_1_">
</g>
<g id="Row_2_1_">
</g>
<g id="Row_1_1_">
</g>
</svg>
