<?xml version="1.0" encoding="utf-8"?>
<!-- Generator: Adobe Illustrator 16.0.0, SVG Export Plug-In . SVG Version: 6.00 Build 0)  -->
<!DOCTYPE svg PUBLIC "-//W3C//DTD SVG 1.1//EN" "http://www.w3.org/Graphics/SVG/1.1/DTD/svg11.dtd">
<svg version="1.1" xmlns="http://www.w3.org/2000/svg" xmlns:xlink="http://www.w3.org/1999/xlink" x="0px" y="0px" width="16px"
	 height="16px" viewBox="0 0 16 16" enable-background="new 0 0 16 16" xml:space="preserve">
<g id="Layer_0_xA0_Image_1_">
</g>
<g id="Row_5_1_">
</g>
<g id="Row_4_1_">
</g>
<g id="Row_3_1_">
</g>
<g id="Row_2_1_">
</g>
<g id="Row_1_1_">
	<g id="sunrise">
		<g>
			<path fill="#212121" d="M13.884,7.669l0.78-0.789c0.431-0.437,0.431-1.143,0-1.579c-0.431-0.436-1.13-0.436-1.561,0l-0.78,0.789
				c-0.431,0.437-0.431,1.144,0,1.579S13.453,8.104,13.884,7.669z M8,6c0.553,0,1-0.447,1-1V3c0-0.553-0.447-1-1-1S7,2.447,7,3v2
				C7,5.553,7.447,6,8,6z M2.128,7.669c0.436,0.436,1.142,0.436,1.577,0s0.436-1.143,0-1.579L2.916,5.301
				c-0.435-0.436-1.141-0.436-1.576,0c-0.436,0.437-0.436,1.143,0,1.579L2.128,7.669z M15,11h-3c0-2.209-1.791-4-4-4s-4,1.791-4,4H1
				c-0.553,0-1,0.447-1,1c0,0.552,0.447,1,1,1h14c0.553,0,1-0.448,1-1C16,11.447,15.553,11,15,11z M6,11c0-1.104,0.896-2,2-2
				s2,0.896,2,2H6z"/>
		</g>
	</g>
</g>
</svg>
