<?xml version="1.0" encoding="utf-8"?>
<!-- Generator: Adobe Illustrator 16.0.0, SVG Export Plug-In . SVG Version: 6.00 Build 0)  -->
<!DOCTYPE svg PUBLIC "-//W3C//DTD SVG 1.1//EN" "http://www.w3.org/Graphics/SVG/1.1/DTD/svg11.dtd">
<svg version="1.1" xmlns="http://www.w3.org/2000/svg" xmlns:xlink="http://www.w3.org/1999/xlink" x="0px" y="0px" width="16px"
	 height="16px" viewBox="0 0 16 16" enable-background="new 0 0 16 16" xml:space="preserve">
<g id="Layer_0_xA0_Image_1_">
</g>
<g id="Row_5_1_">
</g>
<g id="Row_4_1_">
</g>
<g id="Row_3_1_">
</g>
<g id="Row_2_1_">
</g>
<g id="Row_1_1_">
	<g id="thunderstorm">
		<g>
			<path fill="#212121" d="M11.499,10.122c-0.158-0.089-0.33-0.115-0.5-0.115V10H8.98l1.885-2.548
				c0.276-0.466,0.112-1.062-0.367-1.33c-0.479-0.27-1.091-0.109-1.367,0.356l-3.003,4.061c-0.276,0.466-0.112,1.062,0.367,1.33
				c0.158,0.089,0.329,0.115,0.5,0.115V12h2.387L8.13,14.539c-0.276,0.466-0.112,1.062,0.366,1.33
				c0.479,0.269,1.091,0.109,1.368-0.356l2.001-4.061C12.143,10.986,11.978,10.391,11.499,10.122z M15.934,6.327
				c-0.14-0.878-0.903-1.636-1.596-1.998c-0.191-0.099-0.381-0.175-0.57-0.226c-0.056-1.497-0.843-2.844-2.18-3.609
				C10.056-0.385,8.155-0.074,6.751,1.29c-0.406,0.393-0.62,0.783-0.749,1.157C5.165,2.25,4.234,2.412,3.521,2.79
				C2.465,3.35,1.862,4.297,1.825,5.31c-0.592,0.14-1.119,0.512-1.47,1.078C0.112,6.781,0.002,7.299,0,7.807
				c0,1.917,3.993,2.711,3.993,2.711c0.001,0,0.002,0,0.002,0c0.553,0,1-0.447,1-1c0-0.552-0.447-1-1-1
				c-0.013,0-0.024,0.007-0.036,0.008C3.344,8.35,2.731,8.147,2.129,7.889C1.913,7.714,1.748,7.725,1.961,7.376
				C2.17,7.037,2.494,7.132,2.624,7.188C2.99,7.348,3.418,7.26,3.69,6.968c0.272-0.293,0.332-0.726,0.146-1.079
				c-0.343-0.654,0.067-1.17,0.567-1.435c0.491-0.261,1.238-0.308,1.565,0.038C6.208,4.744,6.566,4.844,6.9,4.753
				c0.328-0.09,0.578-0.352,0.661-0.68c0.016-0.136,0.222-1.16,0.501-1.432c0.626-0.606,1.632-0.869,2.589-0.514
				c1.054,0.393,1.414,1.581,1.17,2.732c-0.073,0.352,0.054,0.716,0.338,0.938c0.249,0.194,1.583-0.142,1.914,0.826
				c0.22,0.671,0.119,1.267-0.319,1.49c-0.451,0.163-0.969,0.197-0.752,0.197c-0.552,0-1.001,0.447-1.001,1
				c0,0.551,0.448,0.998,0.999,0.999v0.012c-0.115,0.033,0.976-0.12,1.298-0.233C14.448,10.025,16.379,9.135,15.934,6.327z"/>
		</g>
	</g>
</g>
</svg>
