<?xml version="1.0" encoding="utf-8"?>
<!-- Generator: Adobe Illustrator 16.0.0, SVG Export Plug-In . SVG Version: 6.00 Build 0)  -->
<!DOCTYPE svg PUBLIC "-//W3C//DTD SVG 1.1//EN" "http://www.w3.org/Graphics/SVG/1.1/DTD/svg11.dtd">
<svg version="1.1" xmlns="http://www.w3.org/2000/svg" xmlns:xlink="http://www.w3.org/1999/xlink" x="0px" y="0px" width="16px"
	 height="16px" viewBox="0 0 16 16" enable-background="new 0 0 16 16" xml:space="preserve">
<g id="Layer_0_xA0_Image_1_">
</g>
<g id="Row_5_1_">
</g>
<g id="Row_4_1_">
</g>
<g id="Row_3_1_">
	<g id="tulip">
		<g>
			<path fill="#212121" d="M14,3c-0.896,0-1.745,0.179-2.528,0.487C11.472,2.322,8.061,0,8,0C7.962,0,4.536,2.323,4.536,3.49
				C3.751,3.18,2.898,3,2,3C1.447,3,1,3.447,1,4v5c0,3.866,3.134,7,7,7s7-3.134,7-7V4C15,3.447,14.553,3,14,3z M8,2.395
				c0.061,0,1.882,1.037,1.882,1.975C9.127,4.93,8.482,5.633,8,6.446C7.519,5.636,6.878,4.935,6.126,4.375
				C6.126,3.474,7.939,2.395,8,2.395z M13,9c0,2.762-2.238,5-5,5s-5-2.238-5-5V5.101C5.282,5.564,7,7.581,7,10c0,0.553,0.447,1,1,1
				s1-0.447,1-1c0-2.419,1.718-4.436,4-4.899V9z"/>
		</g>
	</g>
</g>
<g id="Row_2_1_">
</g>
<g id="Row_1_1_">
</g>
</svg>
