<?xml version="1.0" encoding="utf-8"?>
<!-- Generator: Adobe Illustrator 16.0.0, SVG Export Plug-In . SVG Version: 6.00 Build 0)  -->
<!DOCTYPE svg PUBLIC "-//W3C//DTD SVG 1.1//EN" "http://www.w3.org/Graphics/SVG/1.1/DTD/svg11.dtd">
<svg version="1.1" xmlns="http://www.w3.org/2000/svg" xmlns:xlink="http://www.w3.org/1999/xlink" x="0px" y="0px" width="16px"
	 height="16px" viewBox="0 0 16 16" enable-background="new 0 0 16 16" xml:space="preserve">
<g id="Layer_0_xA0_Image_1_">
</g>
<g id="Row_5_1_">
</g>
<g id="Row_4_1_">
	<g id="volcano">
		<g>
			<path fill="#212121" d="M10,5.99h1c0.69,0,2,0.448,2,1.001c0,0.491,0.466,1.001,1,1.001c0.503,0,1-0.542,1-1.001
				c0-0.011-0.004-0.021-0.004-0.032c-0.003-0.058-0.008-0.114-0.021-0.169c-0.128-1.01-1.181-1.801-2.475-1.801
				C11.644,4.989,10.565,5.419,10,5.99z M6.765,4.424c0.6-0.867,2.252-1.205,3.213-0.687c0.961,0.518,2.189,0.21,2.744-0.688
				s0.226-2.045-0.735-2.563c-0.02-0.01-0.04-0.015-0.06-0.024c-0.102-0.051-0.205-0.099-0.312-0.131
				C9.758-0.448,7.538,0.179,6.498,1.86C5.458,3.544,5.911,5.691,6,5.99C6.082,5.568,6.373,4.99,6.765,4.424z M15,13.998h-1
				c-2.209,0-4-2.794-4-5.005V7.992c0-0.554-0.447-1.001-1-1.001H5c-0.553,0-1,0.447-1,1.001v2.002c0,2.211-0.791,4.004-3,4.004
				c-0.553,0-1,0.447-1,1.001C0,15.552,0.447,16,1,16c3.313,0,5-2.689,5-6.006V8.993h2C8,12.31,10.687,16,14,16h1
				c0.553,0,1-0.448,1-1.001C16,14.445,15.553,13.998,15,13.998z"/>
		</g>
	</g>
</g>
<g id="Row_3_1_">
</g>
<g id="Row_2_1_">
</g>
<g id="Row_1_1_">
</g>
</svg>
