<?xml version="1.0" encoding="utf-8"?>
<!-- Generator: Adobe Illustrator 16.0.0, SVG Export Plug-In . SVG Version: 6.00 Build 0)  -->
<!DOCTYPE svg PUBLIC "-//W3C//DTD SVG 1.1//EN" "http://www.w3.org/Graphics/SVG/1.1/DTD/svg11.dtd">
<svg version="1.1" xmlns="http://www.w3.org/2000/svg" xmlns:xlink="http://www.w3.org/1999/xlink" x="0px" y="0px"
	 width="15.999px" height="16px" viewBox="0 0 15.999 16" enable-background="new 0 0 15.999 16" xml:space="preserve">
<g id="Layer_0_xA0_Image_1_">
</g>
<g id="Row_5_1_">
</g>
<g id="Row_4_1_">
</g>
<g id="Row_3_1_">
</g>
<g id="Row_2_1_">
	<g id="waves">
		<g>
			<path fill="#212121" d="M3.003,11.996c-0.552,0-0.998,0.448-0.998,1.001s-0.446,1.001-0.998,1.001s-0.998,0.448-0.998,1.001
				S0.455,16,1.007,16c1.654,0,2.994-1.344,2.994-3.003C4.001,12.444,3.555,11.996,3.003,11.996z M15.866,2.497
				c-1.37-2.387-4.404-3.206-6.776-1.827c-2.373,1.378-3.187,4.433-1.816,6.82C7.548,7.967,8.154,8.13,8.629,7.855
				c0.475-0.276,0.638-0.887,0.363-1.364C8.719,6.013,8.88,5.403,9.354,5.127c0.475-0.277,1.082-0.112,1.356,0.365
				c0.821,1.433,0.334,3.265-1.09,4.092C8.197,10.411,6.377,9.92,5.555,8.487C4.732,7.055,2.912,6.564,1.488,7.392
				c-1.424,0.827-1.911,2.659-1.09,4.091c0.273,0.478,0.881,0.641,1.355,0.365c0.475-0.275,0.638-0.886,0.364-1.364
				C1.843,10.007,2.006,9.396,2.48,9.121c0.475-0.275,1.082-0.112,1.355,0.366c1.37,2.387,4.405,3.206,6.777,1.827
				c2.373-1.378,3.187-4.432,1.815-6.82c-0.646-1.128-1.911-1.66-3.115-1.437c0.215-0.253,0.465-0.482,0.769-0.658
				c1.423-0.827,3.243-0.336,4.066,1.097c0.273,0.477,0.88,0.642,1.354,0.365C15.978,3.585,16.141,2.975,15.866,2.497z"/>
		</g>
	</g>
</g>
<g id="Row_1_1_">
</g>
</svg>
