<?xml version="1.0" encoding="utf-8"?>
<!-- Generator: Adobe Illustrator 16.0.0, SVG Export Plug-In . SVG Version: 6.00 Build 0)  -->
<!DOCTYPE svg PUBLIC "-//W3C//DTD SVG 1.1//EN" "http://www.w3.org/Graphics/SVG/1.1/DTD/svg11.dtd">
<svg version="1.1" xmlns="http://www.w3.org/2000/svg" xmlns:xlink="http://www.w3.org/1999/xlink" x="0px" y="0px" width="16px"
	 height="16px" viewBox="0 0 16 16" enable-background="new 0 0 16 16" xml:space="preserve">
<g id="Background_xA0_Image_1_">
</g>
<g id="Row_5_1_">
	<g id="bell">
		<g>
			<path fill="#212121" d="M15.363,13.073C14.34,12.444,14,11.011,14,9.026V6c0-3.615-3.041-6-6-6C4.979,0,2,2.322,2,6v3
				c0,2.209-0.697,3.656-1.563,4.156C0.438,13.156,0,13.404,0,14c0,0.553,0.447,1,1,1h6c0,0.553,0.447,1,1,1s1-0.447,1-1h6
				c0.553,0,1-0.447,1-1C16,13.276,15.296,13.047,15.363,13.073z M3,13c0.24,0.063,1-1.447,1-2V6c0-2.001,1.624-4,4-4
				c2.032,0,4,1.655,4,4v5c0,0.693,0.729,1.875,1,2H3z"/>
		</g>
	</g>
</g>
<g id="Row_4_1_">
</g>
<g id="Row_3_1_">
</g>
<g id="Row_2_1_">
</g>
<g id="Row_1_1_">
</g>
</svg>
