<?xml version="1.0" encoding="utf-8"?>
<!-- Generator: Adobe Illustrator 16.0.0, SVG Export Plug-In . SVG Version: 6.00 Build 0)  -->
<!DOCTYPE svg PUBLIC "-//W3C//DTD SVG 1.1//EN" "http://www.w3.org/Graphics/SVG/1.1/DTD/svg11.dtd">
<svg version="1.1" xmlns="http://www.w3.org/2000/svg" xmlns:xlink="http://www.w3.org/1999/xlink" x="0px" y="0px" width="16px"
	 height="16px" viewBox="0 0 16 16" enable-background="new 0 0 16 16" xml:space="preserve">
<g id="Background_xA0_Image_1_">
</g>
<g id="Row_5_1_">
</g>
<g id="Row_4_1_">
	<g id="benoculars">
		<g>
			<path fill="#212121" d="M14,9V5c0-0.553-0.447-1-1-1h-1V2c0.553,0,1-0.447,1-1s-0.447-1-1-1h-2C9.447,0,9,0.447,9,1s0.447,1,1,1
				v2C9.447,4,9,4.447,9,5H7c0-0.553-0.447-1-1-1V2c0.553,0,1-0.447,1-1S6.553,0,6,0H4C3.447,0,3,0.447,3,1s0.447,1,1,1v2H3
				C2.447,4,2,4.447,2,5v4c-0.553,0-1,0.447-1,1v5c0,0.553,0.447,1,1,1h4c0.553,0,1-0.447,1-1V7h2v8c0,0.553,0.447,1,1,1h4
				c0.553,0,1-0.447,1-1v-5C15,9.447,14.553,9,14,9z M5,14H3v-3h1V6h1V14z M13,14h-2V6h1v5h1V14z"/>
		</g>
	</g>
</g>
<g id="Row_3_1_">
</g>
<g id="Row_2_1_">
</g>
<g id="Row_1_1_">
</g>
</svg>
