<?xml version="1.0" encoding="utf-8"?>
<!-- Generator: Adobe Illustrator 16.0.0, SVG Export Plug-In . SVG Version: 6.00 Build 0)  -->
<!DOCTYPE svg PUBLIC "-//W3C//DTD SVG 1.1//EN" "http://www.w3.org/Graphics/SVG/1.1/DTD/svg11.dtd">
<svg version="1.1" xmlns="http://www.w3.org/2000/svg" xmlns:xlink="http://www.w3.org/1999/xlink" x="0px" y="0px" width="16px"
	 height="16px" viewBox="0 0 16 16" enable-background="new 0 0 16 16" xml:space="preserve">
<g id="Background_xA0_Image_1_">
</g>
<g id="Row_5_1_">
</g>
<g id="Row_4_1_">
	<g id="buoy">
		<g>
			<path fill="#212121" d="M13,12h-1V3c0-0.553-0.448-1-1-1H9V1c0-0.553-0.448-1-1-1C7.447,0,7,0.447,7,1v1H5C4.447,2,4,2.447,4,3v9
				H3c-0.553,0-1,0.447-1,1v2c0,0.553,0.447,1,1,1h10c0.552,0,1-0.447,1-1v-2C14,12.447,13.552,12,13,12z M9.382,4L8,6.764L6.618,4
				H9.382z M6,7.236L6.882,9L6,10.764V7.236z M6.618,14L8,11.236L9.382,14H6.618z M10,10.764L9.118,9L10,7.236V10.764z"/>
		</g>
	</g>
</g>
<g id="Row_3_1_">
</g>
<g id="Row_2_1_">
</g>
<g id="Row_1_1_">
</g>
</svg>
