<?xml version="1.0" encoding="utf-8"?>
<!-- Generator: Adobe Illustrator 16.0.0, SVG Export Plug-In . SVG Version: 6.00 Build 0)  -->
<!DOCTYPE svg PUBLIC "-//W3C//DTD SVG 1.1//EN" "http://www.w3.org/Graphics/SVG/1.1/DTD/svg11.dtd">
<svg version="1.1" xmlns="http://www.w3.org/2000/svg" xmlns:xlink="http://www.w3.org/1999/xlink" x="0px" y="0px" width="16px"
	 height="16px" viewBox="0 0 16 16" enable-background="new 0 0 16 16" xml:space="preserve">
<g id="Background_xA0_Image_1_">
</g>
<g id="Row_5_1_">
</g>
<g id="Row_4_1_">
</g>
<g id="Row_3_1_">
</g>
<g id="Row_2_1_">
	<g id="chamnagne_glass">
		<g>
			<path fill="#212121" d="M11,14H9v-3.194C10.976,9.941,11,6.229,11,1c0-0.553-0.447-1-1-1H6C5.447,0,5,0.447,5,1
				c0,5.21,0,8.947,2,9.81V14H5c-0.553,0-1,0.447-1,1s0.447,1,1,1h6c0.553,0,1-0.447,1-1S11.553,14,11,14z M8,9C7.166,9,7,7.553,7,6
				V2h2v4C9,7.49,8.865,9,8,9z"/>
		</g>
	</g>
</g>
<g id="Row_1_1_">
</g>
</svg>
