<?xml version="1.0" encoding="utf-8"?>
<!-- Generator: Adobe Illustrator 16.0.0, SVG Export Plug-In . SVG Version: 6.00 Build 0)  -->
<!DOCTYPE svg PUBLIC "-//W3C//DTD SVG 1.1//EN" "http://www.w3.org/Graphics/SVG/1.1/DTD/svg11.dtd">
<svg version="1.1" xmlns="http://www.w3.org/2000/svg" xmlns:xlink="http://www.w3.org/1999/xlink" x="0px" y="0px" width="16px"
	 height="16px" viewBox="0 0 16 16" enable-background="new 0 0 16 16" xml:space="preserve">
<g id="Background_xA0_Image_1_">
</g>
<g id="Row_5_1_">
</g>
<g id="Row_4_1_">
</g>
<g id="Row_3_1_">
</g>
<g id="Row_2_1_">
</g>
<g id="Row_1_1_">
	<g id="customs">
		<g>
			<path fill="#212121" d="M2,9c0-0.553-0.447-1-1-1S0,8.447,0,9v4c0,0.553,0.447,1,1,1s1-0.447,1-1V9z M7,14H3
				c-0.553,0-1,0.447-1,1s0.447,1,1,1h4c0.553,0,1-0.447,1-1S7.553,14,7,14z M10,2h5c0.553,0,1-0.447,1-1s-0.447-1-1-1h-5
				C9.447,0,9,0.447,9,1S9.447,2,10,2z M13,4c-0.553,0-1-0.447-1-1h-2c0,1.657,1.343,3,3,3s3-1.343,3-3h-2C14,3.553,13.553,4,13,4z
				 M12,10.053V9h0.921l1.75-2H11c-0.276,0-0.526,0.112-0.707,0.293l-4,4C6.112,11.474,6,11.724,6,12c0,0.553,0.447,1,1,1
				c0.276,0,0.526-0.112,0.707-0.293L10,10.414v1.925L12,10.053z M14,14h-2v-0.91l-1.938,2.216C10.192,15.706,10.556,16,11,16h4
				c0.553,0,1-0.447,1-1V8.519l-2,2.286V14z"/>
		</g>
	</g>
</g>
</svg>
