<?xml version="1.0" encoding="utf-8"?>
<!-- Generator: Adobe Illustrator 16.0.0, SVG Export Plug-In . SVG Version: 6.00 Build 0)  -->
<!DOCTYPE svg PUBLIC "-//W3C//DTD SVG 1.1//EN" "http://www.w3.org/Graphics/SVG/1.1/DTD/svg11.dtd">
<svg version="1.1" xmlns="http://www.w3.org/2000/svg" xmlns:xlink="http://www.w3.org/1999/xlink" x="0px" y="0px" width="16px"
	 height="16px" viewBox="0 0 16 16" enable-background="new 0 0 16 16" xml:space="preserve">
<g id="Background_xA0_Image_1_">
</g>
<g id="Row_5_1_">
</g>
<g id="Row_4_1_">
</g>
<g id="Row_3_1_">
	<g id="diver">
		<g>
			<path fill="#212121" d="M8,9c1.104,0,2-0.896,2-2S9.104,5,8,5S6,5.896,6,7S6.896,9,8,9z M11.126,12.101
				c0.838-0.522,1.543-1.243,2.042-2.101H14c0.553,0,1-0.447,1-1V5c0-0.553-0.447-1-1-1h-0.817C12.655,3.104,11.901,2.356,11,1.832
				V1c0-0.553-0.447-1-1-1H6C5.447,0,5,0.447,5,1v0.832C4.099,2.356,3.345,3.104,2.817,4H2C1.447,4,1,4.447,1,5v4
				c0,0.553,0.447,1,1,1h0.832c0.499,0.857,1.203,1.578,2.042,2.101C4.874,12.101,0,13.01,0,16h16
				C16,13.031,11.126,12.101,11.126,12.101z M4,7c0-2.209,1.791-4,4-4s4,1.791,4,4s-1.791,4-4,4S4,9.209,4,7z M2.989,14.531
				c0-0.325,2.675-1.384,5.011-1.344c2.148,0.037,4.979,1.019,4.979,1.344H2.989z"/>
		</g>
	</g>
</g>
<g id="Row_2_1_">
</g>
<g id="Row_1_1_">
</g>
</svg>
