<?xml version="1.0" encoding="utf-8"?>
<!-- Generator: Adobe Illustrator 16.0.0, SVG Export Plug-In . SVG Version: 6.00 Build 0)  -->
<!DOCTYPE svg PUBLIC "-//W3C//DTD SVG 1.1//EN" "http://www.w3.org/Graphics/SVG/1.1/DTD/svg11.dtd">
<svg version="1.1" xmlns="http://www.w3.org/2000/svg" xmlns:xlink="http://www.w3.org/1999/xlink" x="0px" y="0px" width="16px"
	 height="16px" viewBox="0 0 16 16" enable-background="new 0 0 16 16" xml:space="preserve">
<g id="Background_xA0_Image_1_">
</g>
<g id="Row_5_1_">
	<g id="earth">
		<g>
			<path fill="#212121" d="M10.5,10c-0.276,0-0.5,0.224-0.5,0.5s0.224,0.5,0.5,0.5s0.5-0.224,0.5-0.5S10.776,10,10.5,10z M7,7H6
				C5.447,7,5,7.447,5,8s0.447,1,1,1c0,0.553,0.447,1,1,1v1c0,0.553,0.447,1,1,1s1-0.447,1-1V9c0.552,0,1-0.447,1-1S9.552,7,9,7
				c0-0.553-0.447-1-1-1S7,6.447,7,7z M8,0C3.582,0,0,3.582,0,8s3.582,8,8,8s8-3.582,8-8S12.418,0,8,0z M8,14c-3.313,0-6-2.687-6-6
				s2.687-6,6-6c0.779,0,1.518,0.159,2.2,0.43C10.083,2.594,10,2.783,10,3v1H8c0-0.553-0.447-1-1-1S6,3.447,6,4C5.447,4,5,4.447,5,5
				c0,0.552,0.447,1,1,1h2h2c0,0.553,0.447,1,1,1v1c0,0.553,0.447,1,1,1h1c0.553,0,1-0.447,1-1C14,11.313,11.313,14,8,14z"/>
		</g>
	</g>
</g>
<g id="Row_4_1_">
</g>
<g id="Row_3_1_">
</g>
<g id="Row_2_1_">
</g>
<g id="Row_1_1_">
</g>
</svg>
