<?xml version="1.0" encoding="utf-8"?>
<!-- Generator: Adobe Illustrator 16.0.0, SVG Export Plug-In . SVG Version: 6.00 Build 0)  -->
<!DOCTYPE svg PUBLIC "-//W3C//DTD SVG 1.1//EN" "http://www.w3.org/Graphics/SVG/1.1/DTD/svg11.dtd">
<svg version="1.1" xmlns="http://www.w3.org/2000/svg" xmlns:xlink="http://www.w3.org/1999/xlink" x="0px" y="0px" width="16px"
	 height="16px" viewBox="0 0 16 16" enable-background="new 0 0 16 16" xml:space="preserve">
<g id="Background_xA0_Image_1_">
</g>
<g id="Row_5_1_">
</g>
<g id="Row_4_1_">
</g>
<g id="Row_3_1_">
</g>
<g id="Row_2_1_">
</g>
<g id="Row_1_1_">
	<g id="family">
		<g>
			<path fill="#212121" d="M2,2c0.553,0,1-0.447,1-1S2.553,0,2,0S1,0.447,1,1S1.447,2,2,2z M14,3c0.553,0,1-0.447,1-1s-0.447-1-1-1
				s-1,0.447-1,1S13.447,3,14,3z M8,7c0.553,0,1-0.447,1-1S8.553,5,8,5S7,5.447,7,6S7.447,7,8,7z M15,4h-2c-0.553,0-1,0.447-1,1v4
				c0,0.553,0.447,1,1,1v5c0,0.553,0.447,1,1,1s1-0.447,1-1v-5c0.553,0,1-0.447,1-1V5C16,4.447,15.553,4,15,4z M9,8H7
				C6.447,8,6,8.447,6,9v3c0,0.553,0.447,1,1,1v2c0,0.553,0.447,1,1,1s1-0.447,1-1v-2c0.553,0,1-0.447,1-1V9C10,8.447,9.553,8,9,8z
				 M3,3H1C0.447,3,0,3.447,0,4v5c0,0.553,0.447,1,1,1v5c0,0.553,0.447,1,1,1s1-0.447,1-1v-5c0.553,0,1-0.447,1-1V4
				C4,3.447,3.553,3,3,3z"/>
		</g>
	</g>
</g>
</svg>
