<?xml version="1.0" encoding="utf-8"?>
<!-- Generator: Adobe Illustrator 16.0.0, SVG Export Plug-In . SVG Version: 6.00 Build 0)  -->
<!DOCTYPE svg PUBLIC "-//W3C//DTD SVG 1.1//EN" "http://www.w3.org/Graphics/SVG/1.1/DTD/svg11.dtd">
<svg version="1.1" xmlns="http://www.w3.org/2000/svg" xmlns:xlink="http://www.w3.org/1999/xlink" x="0px" y="0px" width="16px"
	 height="16px" viewBox="0 0 16 16" enable-background="new 0 0 16 16" xml:space="preserve">
<g id="Background_xA0_Image_1_">
</g>
<g id="Row_5_1_">
</g>
<g id="Row_4_1_">
</g>
<g id="Row_3_1_">
</g>
<g id="Row_2_1_">
	<g id="fork">
		<g>
			<path fill="#212121" d="M11,0c-0.553,0-1,0.447-1,1v4c0,0.738-0.404,1.376-1,1.723V1c0-0.553-0.447-1-1-1S7,0.447,7,1v5.723
				C6.404,6.376,6,5.738,6,5V1c0-0.553-0.447-1-1-1S4,0.447,4,1v4c0,0.08,0.012,0.182,0.029,0.291C4.156,7.021,5.37,8.437,7,8.858
				V15c0,0.553,0.447,1,1,1s1-0.447,1-1V8.858c1.63-0.422,2.844-1.838,2.971-3.567C11.988,5.182,12,5.08,12,5V1
				C12,0.447,11.553,0,11,0z"/>
		</g>
	</g>
</g>
<g id="Row_1_1_">
</g>
</svg>
