<?xml version="1.0" encoding="utf-8"?>
<!-- Generator: Adobe Illustrator 16.0.0, SVG Export Plug-In . SVG Version: 6.00 Build 0)  -->
<!DOCTYPE svg PUBLIC "-//W3C//DTD SVG 1.1//EN" "http://www.w3.org/Graphics/SVG/1.1/DTD/svg11.dtd">
<svg version="1.1" xmlns="http://www.w3.org/2000/svg" xmlns:xlink="http://www.w3.org/1999/xlink" x="0px" y="0px" width="16px"
	 height="16px" viewBox="0 0 16 16" enable-background="new 0 0 16 16" xml:space="preserve">
<g id="Background_xA0_Image_1_">
</g>
<g id="Row_5_1_">
	<g id="four_propellers">
		<g>
			<path fill="#212121" d="M13,10L9,8l4-2c1.567-0.717,3-1.343,3-3s-1.343-3-3-3s-2.193,1.657-3,3L8,7L6,3C5.238,1.612,4.657,0,3,0
				S0,1.343,0,3s1.478,2.283,3,3l4,2l-4,2c-1.433,0.762-3,1.343-3,3s1.343,3,3,3s2.283-1.478,3-3l2-4l2,4c0.717,1.343,1.343,3,3,3
				s3-1.343,3-3S14.478,10.672,13,10z M12,3c0.224-0.418,0.447-1,1-1c0.552,0,1,0.447,1,1s-0.582,0.865-1,1l-2,1L12,3z M3,4
				C2.447,3.731,2,3.553,2,3s0.447-1,1-1s0.731,0.492,1,1l1,2L3,4z M4,13c-0.18,0.553-0.447,1-1,1s-1-0.447-1-1s0.492-0.731,1-1l2-1
				L4,13z M13,14c-0.553,0-0.82-0.492-1-1l-1-2l2,1c0.552,0.269,1,0.447,1,1S13.552,14,13,14z"/>
		</g>
	</g>
</g>
<g id="Row_4_1_">
</g>
<g id="Row_3_1_">
</g>
<g id="Row_2_1_">
</g>
<g id="Row_1_1_">
</g>
</svg>
