<?xml version="1.0" encoding="utf-8"?>
<!-- Generator: Adobe Illustrator 16.0.0, SVG Export Plug-In . SVG Version: 6.00 Build 0)  -->
<!DOCTYPE svg PUBLIC "-//W3C//DTD SVG 1.1//EN" "http://www.w3.org/Graphics/SVG/1.1/DTD/svg11.dtd">
<svg version="1.1" xmlns="http://www.w3.org/2000/svg" xmlns:xlink="http://www.w3.org/1999/xlink" x="0px" y="0px" width="16px"
	 height="16px" viewBox="0 0 16 16" enable-background="new 0 0 16 16" xml:space="preserve">
<g id="Background_xA0_Image_1_">
</g>
<g id="Row_5_1_">
</g>
<g id="Row_4_1_">
</g>
<g id="Row_3_1_">
</g>
<g id="Row_2_1_">
</g>
<g id="Row_1_1_">
	<g id="framed_photo">
		<g>
			<path fill="#212121" d="M15,2H1C0.447,2,0,2.447,0,3v10c0,0.553,0.447,1,1,1h14c0.553,0,1-0.447,1-1V3C16,2.447,15.553,2,15,2z
				 M3.414,12L5,10.414L6.586,12H3.414z M14,12H9.414l-1-1L11,8.414l3,3V12z M14,8.586l-2.293-2.293C11.526,6.112,11.276,6,11,6
				s-0.526,0.112-0.707,0.293L7,9.586L5.707,8.293C5.526,8.112,5.276,8,5,8S4.474,8.112,4.293,8.293L2,10.586V4h12V8.586z M7,7
				c0.553,0,1-0.447,1-1S7.553,5,7,5S6,5.447,6,6S6.447,7,7,7z"/>
		</g>
	</g>
</g>
</svg>
