<?xml version="1.0" encoding="utf-8"?>
<!-- Generator: Adobe Illustrator 16.0.0, SVG Export Plug-In . SVG Version: 6.00 Build 0)  -->
<!DOCTYPE svg PUBLIC "-//W3C//DTD SVG 1.1//EN" "http://www.w3.org/Graphics/SVG/1.1/DTD/svg11.dtd">
<svg version="1.1" xmlns="http://www.w3.org/2000/svg" xmlns:xlink="http://www.w3.org/1999/xlink" x="0px" y="0px" width="16px"
	 height="16px" viewBox="0 0 16 16" enable-background="new 0 0 16 16" xml:space="preserve">
<g id="Background_xA0_Image_1_">
</g>
<g id="Row_5_1_">
</g>
<g id="Row_4_1_">
</g>
<g id="Row_3_1_">
</g>
<g id="Row_2_1_">
</g>
<g id="Row_1_1_">
	<g id="hot_springs">
		<g>
			<path fill="#212121" d="M11.24,9.489C11.413,9.789,11.724,10,12.094,10c0.553,0,1-0.447,1-1c0-0.38-0.095-0.939-0.095-0.939
				c0-1.654,1.012-1.708,1.012-3.748c0-0.779,0.08-1.118-0.159-1.583C13.731,2.312,13.362,2,12.906,2c-0.553,0-1,0.447-1,1
				c0,0.187,0.125,0.574,0.125,0.574c0.063,0.211,0.081,0.673,0.086,0.81c0-0.009,0.002-0.015,0.002-0.024
				c0,0.088,0,0.079-0.002,0.024C12.104,6.02,11,5.977,11,8.124C11,9.061,11.24,9.489,11.24,9.489z M15,9c-0.553,0-1,0.447-1,1
				c0,1.657-2.687,3-6,3s-6-1.343-6-3c0-0.553-0.448-1-1-1c-0.553,0-1,0.447-1,1c0,2.762,3.582,5,8,5s8-2.238,8-5
				C16,9.447,15.553,9,15,9z M7.24,9.489C7.413,9.789,7.724,10,8.094,10c0.553,0,1-0.447,1-1c0-0.38-0.095-0.939-0.095-0.939
				c0-1.654,1.012-1.708,1.012-3.748c0-0.779,0.08-1.118-0.159-1.583C9.731,2.312,9.362,2,8.906,2c-0.553,0-1,0.447-1,1
				c0,0.187,0.125,0.574,0.125,0.574c0.063,0.211,0.081,0.673,0.086,0.81c0-0.009,0.002-0.015,0.002-0.024
				c0,0.088,0,0.079-0.002,0.024C8.104,6.02,7,5.977,7,8.124C7,9.061,7.24,9.489,7.24,9.489z M3.209,9.489
				C3.382,9.789,3.692,10,4.063,10c0.553,0,1-0.447,1-1c0-0.38-0.095-0.939-0.095-0.939c0-1.654,1.012-1.708,1.012-3.748
				c0-0.779,0.08-1.118-0.159-1.583C5.7,2.312,5.331,2,4.875,2c-0.553,0-1,0.447-1,1C3.875,3.187,4,3.574,4,3.574
				c0.063,0.211,0.081,0.673,0.086,0.81c0-0.009,0.002-0.015,0.002-0.024c0,0.088,0,0.079-0.002,0.024
				C4.073,6.02,2.969,5.977,2.969,8.124C2.969,9.061,3.209,9.489,3.209,9.489z"/>
		</g>
	</g>
</g>
</svg>
