<?xml version="1.0" encoding="utf-8"?>
<!-- Generator: Adobe Illustrator 16.0.0, SVG Export Plug-In . SVG Version: 6.00 Build 0)  -->
<!DOCTYPE svg PUBLIC "-//W3C//DTD SVG 1.1//EN" "http://www.w3.org/Graphics/SVG/1.1/DTD/svg11.dtd">
<svg version="1.1" xmlns="http://www.w3.org/2000/svg" xmlns:xlink="http://www.w3.org/1999/xlink" x="0px" y="0px" width="16px"
	 height="16px" viewBox="0 0 16 16" enable-background="new 0 0 16 16" xml:space="preserve">
<g id="Background_xA0_Image_1_">
</g>
<g id="Row_5_1_">
</g>
<g id="Row_4_1_">
</g>
<g id="Row_3_1_">
</g>
<g id="Row_2_1_">
</g>
<g id="Row_1_1_">
	<g id="hotel">
		<g>
			<path fill="#212121" d="M4,9h3V7H4V9z M4,5h3V3H4V5z M15,10V1c0-0.553-0.447-1-1-1H2C1.447,0,1,0.447,1,1v9c-0.553,0-1,0.447-1,1
				v4c0,0.553,0.447,1,1,1h14c0.553,0,1-0.447,1-1v-4C16,10.447,15.553,10,15,10z M3,2h10v8H3V2z M14,14H9v-1H7v1H2v-2h12V14z M9,9
				h3V7H9V9z M9,5h3V3H9V5z"/>
		</g>
	</g>
</g>
</svg>
