<?xml version="1.0" encoding="utf-8"?>
<!-- Generator: Adobe Illustrator 16.0.0, SVG Export Plug-In . SVG Version: 6.00 Build 0)  -->
<!DOCTYPE svg PUBLIC "-//W3C//DTD SVG 1.1//EN" "http://www.w3.org/Graphics/SVG/1.1/DTD/svg11.dtd">
<svg version="1.1" xmlns="http://www.w3.org/2000/svg" xmlns:xlink="http://www.w3.org/1999/xlink" x="0px" y="0px" width="16px"
	 height="16px" viewBox="0 0 16 16" enable-background="new 0 0 16 16" xml:space="preserve">
<g id="Background_xA0_Image_1_">
</g>
<g id="Row_5_1_">
</g>
<g id="Row_4_1_">
</g>
<g id="Row_3_1_">
	<g id="life_jacket">
		<g>
			<path fill="#212121" d="M15,6c-0.553,0-1-0.448-1-1V1c0-0.553-0.447-1-1-1H9c0,0.553-0.447,1-1,1S7,0.553,7,0H3
				C2.447,0,2,0.447,2,1v4c0,0.552-0.447,1-1,1S0,6.447,0,7v8c0,0.553,0.447,1,1,1h14c0.553,0,1-0.447,1-1V7C16,6.447,15.553,6,15,6
				z M7,14H2v-2h5V14z M7,11H2V9h5V11z M7,8H2V7.816C3.162,7.403,4,6.305,4,5V2h1.778C6.107,2.365,6.529,2.638,7,2.809V8z M14,14H9
				v-2h5V14z M14,11H9V9h5V11z M14,8H9V2.809C9.471,2.638,9.892,2.365,10.222,2H12v3c0,1.305,0.838,2.403,2,2.816V8z"/>
		</g>
	</g>
</g>
<g id="Row_2_1_">
</g>
<g id="Row_1_1_">
</g>
</svg>
