<?xml version="1.0" encoding="utf-8"?>
<!-- Generator: Adobe Illustrator 16.0.0, SVG Export Plug-In . SVG Version: 6.00 Build 0)  -->
<!DOCTYPE svg PUBLIC "-//W3C//DTD SVG 1.1//EN" "http://www.w3.org/Graphics/SVG/1.1/DTD/svg11.dtd">
<svg version="1.1" xmlns="http://www.w3.org/2000/svg" xmlns:xlink="http://www.w3.org/1999/xlink" x="0px" y="0px" width="16px"
	 height="16px" viewBox="0 0 16 16" enable-background="new 0 0 16 16" xml:space="preserve">
<g id="Background_xA0_Image_1_">
</g>
<g id="Row_5_1_">
</g>
<g id="Row_4_1_">
	<g id="lighthouse">
		<g>
			<path fill="#212121" d="M12.979,14.892L11.994,5.89l-0.016,0.002C11.922,5.393,11.514,5,11,5V4h1L8.644,0.25
				C8.469,0.1,8.248,0,8,0C7.528,0,7.313,0.25,7.313,0.25L4,4h1v1C4.486,5,4.078,5.393,4.021,5.892L4.006,5.89l-1,9
				C3.006,14.89,3,14.92,3,15c0,0.553,0.447,1,1,1h8c0.553,0,1-0.447,1-1C13,14.962,12.982,14.929,12.979,14.892z M7,3h2v2H7V3z
				 M10.104,7l0.206,1.854L6.8,7H10.104z M5.117,14l0.181-1.629L8.409,14H5.117z M5.535,10.237l0.173-1.552l4.87,2.57l0.191,1.723
				L5.535,10.237z"/>
		</g>
	</g>
</g>
<g id="Row_3_1_">
</g>
<g id="Row_2_1_">
</g>
<g id="Row_1_1_">
</g>
</svg>
