<?xml version="1.0" encoding="utf-8"?>
<!-- Generator: Adobe Illustrator 16.0.0, SVG Export Plug-In . SVG Version: 6.00 Build 0)  -->
<!DOCTYPE svg PUBLIC "-//W3C//DTD SVG 1.1//EN" "http://www.w3.org/Graphics/SVG/1.1/DTD/svg11.dtd">
<svg version="1.1" xmlns="http://www.w3.org/2000/svg" xmlns:xlink="http://www.w3.org/1999/xlink" x="0px" y="0px" width="16px"
	 height="16px" viewBox="0 0 16 16" enable-background="new 0 0 16 16" xml:space="preserve">
<g id="Background_xA0_Image_1_">
</g>
<g id="Row_5_1_">
</g>
<g id="Row_4_1_">
</g>
<g id="Row_3_1_">
</g>
<g id="Row_2_1_">
	<g id="martini_glass">
		<g>
			<path fill="#212121" d="M14.707,1.707C14.888,1.526,15,1.276,15,1c0-0.553-0.447-1-1-1H2C1.447,0,1,0.447,1,1
				c0,0.276,0.112,0.526,0.293,0.707L7,7.414V14H5c-0.553,0-1,0.447-1,1s0.447,1,1,1h6c0.553,0,1-0.447,1-1s-0.447-1-1-1H9V7.414
				L14.707,1.707z M8,5.586L4.414,2h7.172L8,5.586z"/>
		</g>
	</g>
</g>
<g id="Row_1_1_">
</g>
</svg>
