<?xml version="1.0" encoding="utf-8"?>
<!-- Generator: Adobe Illustrator 16.0.0, SVG Export Plug-In . SVG Version: 6.00 Build 0)  -->
<!DOCTYPE svg PUBLIC "-//W3C//DTD SVG 1.1//EN" "http://www.w3.org/Graphics/SVG/1.1/DTD/svg11.dtd">
<svg version="1.1" xmlns="http://www.w3.org/2000/svg" xmlns:xlink="http://www.w3.org/1999/xlink" x="0px" y="0px" width="16px"
	 height="16px" viewBox="0 0 16 16" enable-background="new 0 0 16 16" xml:space="preserve">
<g id="Background_xA0_Image_1_">
</g>
<g id="Row_5_1_">
</g>
<g id="Row_4_1_">
</g>
<g id="Row_3_1_">
</g>
<g id="Row_2_1_">
	<g id="museum">
		<g>
			<path fill="#212121" d="M2,8C1.447,8,1,8.447,1,9v6c0,0.553,0.447,1,1,1s1-0.447,1-1V9C3,8.447,2.553,8,2,8z M8,8
				c-1.657,0-3,1.343-3,3v4c0,0.553,0.447,1,1,1s1-0.447,1-1v-4c0-0.553,0.447-1,1-1s1,0.447,1,1v4c0,0.553,0.447,1,1,1s1-0.447,1-1
				v-4C11,9.343,9.657,8,8,8z M15.496,4.132L8.488,0.146C8.342,0.062,8.181,0,8,0C7.638,0,7.504,0.132,7.504,0.132l-7,4
				C0.504,4.132,0,4.298,0,5c0,0.553,0.447,1,1,1h14c0.553,0,1-0.447,1-1C16,4.298,15.496,4.132,15.496,4.132z M4.766,4L8,2.151
				L11.234,4H4.766z M14,8c-0.553,0-1,0.447-1,1v6c0,0.553,0.447,1,1,1s1-0.447,1-1V9C15,8.447,14.553,8,14,8z"/>
		</g>
	</g>
</g>
<g id="Row_1_1_">
</g>
</svg>
