<?xml version="1.0" encoding="utf-8"?>
<!-- Generator: Adobe Illustrator 16.0.0, SVG Export Plug-In . SVG Version: 6.00 Build 0)  -->
<!DOCTYPE svg PUBLIC "-//W3C//DTD SVG 1.1//EN" "http://www.w3.org/Graphics/SVG/1.1/DTD/svg11.dtd">
<svg version="1.1" xmlns="http://www.w3.org/2000/svg" xmlns:xlink="http://www.w3.org/1999/xlink" x="0px" y="0px" width="16px"
	 height="16px" viewBox="0 0 16 16" enable-background="new 0 0 16 16" xml:space="preserve">
<g id="Background_xA0_Image_1_">
</g>
<g id="Row_5_1_">
</g>
<g id="Row_4_1_">
</g>
<g id="Row_3_1_">
</g>
<g id="Row_2_1_">
</g>
<g id="Row_1_1_">
	<g id="palm_tree">
		<g>
			<path fill="#212121" d="M10,5.993c-0.533,0-0.96,0.421-0.989,0.947c-0.02,0.235,0.166,0.487,0.32,0.785
				c1.033,2.844,1.634,4.984,1.694,6.887c0.031-0.148,0.069-0.137,0.008,0.216c-0.002-0.072-0.006-0.144-0.008-0.216
				c-0.066,0.319-0.098,1.381,0.975,1.381c0.792,0,0.995-0.752,0.995-1.022c0,0-0.356-4.426-1.995-7.978
				C10.743,6.473,10.553,5.993,10,5.993z M9.904,2.978c-0.107,0-0.209,0.016-0.314,0.02c0.671-0.696,1.765-1.128,2.318-1.128
				c0.432,0,0.78-0.15,0.989-0.494c0.21-0.343,0.014-1.054-0.389-1.214c-1.269-0.507-3.68,0.228-4.936,2.287
				C7.445,2.658,7.338,2.87,7.244,3.083c-0.372-0.052-0.752-0.09-1.148-0.09C2.729,2.993,0,4.784,0,6.993c0,0.553,0.455,1,1.016,1
				c0.562,0,1.016-0.447,1.016-1c0-1.064,1.694-1.926,3.825-1.988C4.263,6.323,3.715,8.367,4.168,9.502
				c0.16,0.402,0.871,0.599,1.214,0.389c0.344-0.209,0.494-0.558,0.494-0.989c0-0.65,0.731-1.884,1.5-2.652
				c0.568-0.568,1.556-1.271,2.528-1.271c2.245,0,4.063,0.896,4.063,2c0,0.553,0.455,1,1.017,1c0.561,0,1.016-0.447,1.016-1
				C16,4.769,13.271,2.978,9.904,2.978z"/>
		</g>
	</g>
</g>
</svg>
