<?xml version="1.0" encoding="utf-8"?>
<!-- Generator: Adobe Illustrator 16.0.0, SVG Export Plug-In . SVG Version: 6.00 Build 0)  -->
<!DOCTYPE svg PUBLIC "-//W3C//DTD SVG 1.1//EN" "http://www.w3.org/Graphics/SVG/1.1/DTD/svg11.dtd">
<svg version="1.1" xmlns="http://www.w3.org/2000/svg" xmlns:xlink="http://www.w3.org/1999/xlink" x="0px" y="0px"
	 width="16.008px" height="16px" viewBox="0 0 16.008 16" enable-background="new 0 0 16.008 16" xml:space="preserve">
<g id="Background_xA0_Image_1_">
</g>
<g id="Row_5_1_">
</g>
<g id="Row_4_1_">
</g>
<g id="Row_3_1_">
	<g id="radar">
		<g>
			<path fill="#212121" d="M13.997,3c-0.028-0.603-0.59-0.963-0.339-0.738C12.219,0.864,10.165,0,8,0C3.584,0,0.004,3.582,0.004,8
				c0,0.553,0.447,1,1,1c0.551,0,0.999-0.447,0.999-1c0-3.313,2.686-6,5.997-6c1.273,0,2.506,0.403,3.502,1.082l-0.749,0.749
				C9.963,3.309,9.018,3,8,3C5.239,3,3.003,5.238,3.003,8c0,0.553,0.446,1,0.999,1s1-0.447,1-1c0-1.657,1.342-3,2.998-3
				c0.462,0,0.895,0.113,1.285,0.3L7.293,7.293C7.112,7.474,7.001,7.724,7.001,8c0,0.553,0.446,1,0.999,1
				c0.276,0,0.526-0.112,0.707-0.293l4.979-4.981C13.885,3.543,14.011,3.288,13.997,3z M14.966,13.492l0.734-0.734
				c0.405-0.406,0.405-1.063,0-1.47c-0.406-0.405-1.063-0.405-1.469,0l-0.734,0.735l-0.733-0.735c-0.406-0.405-1.063-0.405-1.47,0
				c-0.404,0.406-0.404,1.063,0,1.47l0.734,0.734l-0.734,0.734c-0.404,0.406-0.404,1.064,0,1.47c0.406,0.405,1.063,0.405,1.47,0
				l0.733-0.734l0.734,0.734c0.406,0.405,1.063,0.405,1.469,0c0.405-0.405,0.405-1.063,0-1.47L14.966,13.492z"/>
		</g>
	</g>
</g>
<g id="Row_2_1_">
</g>
<g id="Row_1_1_">
</g>
</svg>
