<?xml version="1.0" encoding="utf-8"?>
<!-- Generator: Adobe Illustrator 16.0.0, SVG Export Plug-In . SVG Version: 6.00 Build 0)  -->
<!DOCTYPE svg PUBLIC "-//W3C//DTD SVG 1.1//EN" "http://www.w3.org/Graphics/SVG/1.1/DTD/svg11.dtd">
<svg version="1.1" xmlns="http://www.w3.org/2000/svg" xmlns:xlink="http://www.w3.org/1999/xlink" x="0px" y="0px" width="16px"
	 height="16px" viewBox="0 0 16 16" enable-background="new 0 0 16 16" xml:space="preserve">
<g id="Background_xA0_Image_1_">
</g>
<g id="Row_5_1_">
	<g id="ship_window">
		<g>
			<path fill="#212121" d="M9,1C6.219,1,3.837,2.635,2.708,4.985H1c-0.553,0-1,0.447-1,1v4c0,0.553,0.447,1,1,1h1.691
				C3.814,13.352,6.206,15,9,15c3.866,0,7-3.134,7-7S12.866,1,9,1z M9,12.985c-2.239,0-4.357-1.83-4.876-4v-2
				c0.519-2.17,2.637-4,4.876-4c0.12,0,0.236,0.03,0.355,0.041L7.126,6.614C6.848,7.054,7.013,7.616,7.495,7.87
				c0.481,0.254,1.099,0.104,1.377-0.336l2.417-3.89c0.338,0.192,0.651,0.429,0.944,0.689c-0.029,0.034-0.067,0.057-0.092,0.095
				l-2.016,3.186c-0.278,0.439-0.113,1.002,0.369,1.256c0.481,0.254,1.099,0.104,1.377-0.336l1.624-2.567
				C13.813,6.597,14,7.282,14,7.985C14,10.563,11.577,12.985,9,12.985z"/>
		</g>
	</g>
</g>
<g id="Row_4_1_">
</g>
<g id="Row_3_1_">
</g>
<g id="Row_2_1_">
</g>
<g id="Row_1_1_">
</g>
</svg>
