<?xml version="1.0" encoding="utf-8"?>
<!-- Generator: Adobe Illustrator 16.0.0, SVG Export Plug-In . SVG Version: 6.00 Build 0)  -->
<!DOCTYPE svg PUBLIC "-//W3C//DTD SVG 1.1//EN" "http://www.w3.org/Graphics/SVG/1.1/DTD/svg11.dtd">
<svg version="1.1" xmlns="http://www.w3.org/2000/svg" xmlns:xlink="http://www.w3.org/1999/xlink" x="0px" y="0px" width="16px"
	 height="16px" viewBox="0 0 16 16" enable-background="new 0 0 16 16" xml:space="preserve">
<g id="Background_xA0_Image_1_">
</g>
<g id="Row_5_1_">
</g>
<g id="Row_4_1_">
	<g id="ship_wheel_2_">
		<g>
			<path fill="#212121" d="M15,7h-0.101c-0.171-1.181-0.638-2.259-1.317-3.168l0.075-0.074c0.39-0.391,0.39-1.024,0-1.415
				c-0.391-0.391-1.024-0.391-1.415,0l-0.074,0.075C11.259,1.738,10.181,1.271,9,1.101V1c0-0.553-0.447-1-1-1S7,0.447,7,1v0.101
				C5.819,1.271,4.741,1.738,3.832,2.418L3.758,2.343c-0.391-0.391-1.024-0.391-1.415,0s-0.391,1.024,0,1.415l0.075,0.074
				C1.738,4.741,1.271,5.819,1.101,7H1C0.447,7,0,7.447,0,8s0.447,1,1,1h0.101c0.171,1.181,0.638,2.259,1.317,3.168l-0.075,0.074
				c-0.391,0.391-0.391,1.024,0,1.415c0.391,0.39,1.024,0.39,1.415,0l0.074-0.075c0.909,0.68,1.987,1.146,3.168,1.317V15
				c0,0.553,0.447,1,1,1s1-0.447,1-1v-0.101c1.181-0.171,2.259-0.638,3.168-1.317l0.074,0.075c0.391,0.39,1.024,0.39,1.415,0
				c0.39-0.391,0.39-1.024,0-1.415l-0.075-0.074c0.68-0.909,1.146-1.987,1.317-3.168H15c0.553,0,1-0.447,1-1S15.553,7,15,7z
				 M9,3.101c0.638,0.13,1.224,0.391,1.748,0.737L9,5.586V3.101z M7,3.101v2.485L5.252,3.838C5.776,3.491,6.362,3.23,7,3.101z
				 M3.838,5.252L5.586,7H3.101C3.23,6.362,3.491,5.776,3.838,5.252z M3.101,9h2.485l-1.748,1.748C3.491,10.224,3.23,9.638,3.101,9z
				 M7,12.899c-0.638-0.13-1.224-0.391-1.748-0.737L7,10.414V12.899z M8,9C7.447,9,7,8.553,7,8s0.447-1,1-1s1,0.447,1,1S8.553,9,8,9
				z M9,12.899v-2.485l1.748,1.748C10.224,12.509,9.638,12.77,9,12.899z M12.162,10.748L10.414,9h2.485
				C12.77,9.638,12.509,10.224,12.162,10.748z M10.414,7l1.748-1.748C12.509,5.776,12.77,6.362,12.899,7H10.414z"/>
		</g>
	</g>
</g>
<g id="Row_3_1_">
</g>
<g id="Row_2_1_">
</g>
<g id="Row_1_1_">
</g>
</svg>
