<?xml version="1.0" encoding="utf-8"?>
<!-- Generator: Adobe Illustrator 16.0.0, SVG Export Plug-In . SVG Version: 6.00 Build 0)  -->
<!DOCTYPE svg PUBLIC "-//W3C//DTD SVG 1.1//EN" "http://www.w3.org/Graphics/SVG/1.1/DTD/svg11.dtd">
<svg version="1.1" xmlns="http://www.w3.org/2000/svg" xmlns:xlink="http://www.w3.org/1999/xlink" x="0px" y="0px" width="16px"
	 height="16px" viewBox="0 0 16 16" enable-background="new 0 0 16 16" xml:space="preserve">
<g id="Background_xA0_Image_1_">
</g>
<g id="Row_5_1_">
</g>
<g id="Row_4_1_">
	<g id="ship">
		<g>
			<path fill="#212121" d="M14.665,13.74c-0.17,0.158-0.405,0.256-0.665,0.256V14c-0.553,0-1-0.447-1-1s-0.447-1-1-1
				c-0.056,0-0.104,0.022-0.156,0.031L14,7c-0.666,0-1.352-0.107-2-0.271V3c0-0.347-0.188-0.638-0.455-0.816l0.01-0.016l-3-2
				l-0.01,0.016C8.386,0.077,8.205,0,8,0S7.614,0.077,7.455,0.184l-0.01-0.016l-3,2l0.01,0.016C4.188,2.362,4,2.653,4,3v3.739
				C3.353,6.897,2.668,7,2,7l2.156,5.031C4.104,12.022,4.056,12,4,12c-0.553,0-1,0.447-1,1s-0.447,1-1,1
				c-0.276,0-0.526-0.112-0.707-0.293L0,15c0.543,0.543,1.172,1,2,1c0.771,0,1.469-0.3,2-0.778C4.531,15.7,5.229,16,6,16
				s1.469-0.3,2-0.778C8.531,15.7,9.229,16,10,16s1.469-0.3,2-0.778C12.531,15.7,13.229,16,14,16c0.779,0,1.489-0.524,2-1
				L14.665,13.74z M6,3.535l2-1.333l2,1.333v2.41C9.481,5.642,9.107,5.311,9,5c0-0.553-0.447-1-1-1S7,4.447,7,5
				C6.883,5.329,6.511,5.663,6,5.964V3.535z M9,13H7L4.625,8.254C4.901,8.196,5.24,8.107,5.597,8L6,7.863
				c0.736-0.259,1.499-0.624,2-1.176c0.458,0.549,1.245,0.948,2,1.208L10.331,8c0.361,0.106,0.703,0.184,0.981,0.223L9,13z"/>
		</g>
	</g>
</g>
<g id="Row_3_1_">
</g>
<g id="Row_2_1_">
</g>
<g id="Row_1_1_">
</g>
</svg>
