<?xml version="1.0" encoding="utf-8"?>
<!-- Generator: Adobe Illustrator 16.0.0, SVG Export Plug-In . SVG Version: 6.00 Build 0)  -->
<!DOCTYPE svg PUBLIC "-//W3C//DTD SVG 1.1//EN" "http://www.w3.org/Graphics/SVG/1.1/DTD/svg11.dtd">
<svg version="1.1" xmlns="http://www.w3.org/2000/svg" xmlns:xlink="http://www.w3.org/1999/xlink" x="0px" y="0px" width="16px"
	 height="16px" viewBox="0 0 16 16" enable-background="new 0 0 16 16" xml:space="preserve">
<g id="Background_xA0_Image_1_">
</g>
<g id="Row_5_1_">
</g>
<g id="Row_4_1_">
	<g id="small_waves">
		<g>
			<path fill="#212121" d="M14,10.996V11c-0.553,0-1-0.447-1-1s-0.447-1-1-1s-1,0.447-1,1s-0.447,1-1,1s-1-0.447-1-1S8.553,9,8,9
				s-1,0.447-1,1s-0.447,1-1,1s-1-0.447-1-1S4.553,9,4,9s-1,0.447-1,1s-0.447,1-1,1c-0.276,0-0.526-0.112-0.707-0.293L0,12
				c0.543,0.543,1.172,1,2,1c0.771,0,1.469-0.3,2-0.778C4.531,12.7,5.229,13,6,13s1.469-0.3,2-0.778C8.531,12.7,9.229,13,10,13
				s1.469-0.3,2-0.778C12.531,12.7,13.229,13,14,13c0.779,0,1.489-0.524,2-1l-1.335-1.26C14.495,10.898,14.26,10.996,14,10.996z
				 M4,6.222C4.531,6.7,5.229,7,6,7s1.469-0.3,2-0.778C8.531,6.7,9.229,7,10,7s1.469-0.3,2-0.778C12.531,6.7,13.229,7,14,7
				c0.779,0,1.489-0.524,2-1l-1.335-1.26C14.495,4.898,14.26,4.996,14,4.996V5c-0.553,0-1-0.447-1-1s-0.447-1-1-1s-1,0.447-1,1
				s-0.447,1-1,1S9,4.553,9,4S8.553,3,8,3S7,3.447,7,4S6.553,5,6,5S5,4.553,5,4S4.553,3,4,3S3,3.447,3,4S2.553,5,2,5
				C1.724,5,1.474,4.888,1.293,4.707L0,6c0.543,0.543,1.172,1,2,1C2.771,7,3.469,6.7,4,6.222z"/>
		</g>
	</g>
</g>
<g id="Row_3_1_">
</g>
<g id="Row_2_1_">
</g>
<g id="Row_1_1_">
</g>
</svg>
