<?xml version="1.0" encoding="utf-8"?>
<!-- Generator: Adobe Illustrator 16.0.0, SVG Export Plug-In . SVG Version: 6.00 Build 0)  -->
<!DOCTYPE svg PUBLIC "-//W3C//DTD SVG 1.1//EN" "http://www.w3.org/Graphics/SVG/1.1/DTD/svg11.dtd">
<svg version="1.1" xmlns="http://www.w3.org/2000/svg" xmlns:xlink="http://www.w3.org/1999/xlink" x="0px" y="0px" width="16px"
	 height="16px" viewBox="0 0 16 16" enable-background="new 0 0 16 16" xml:space="preserve">
<g id="Background_xA0_Image_1_">
</g>
<g id="Row_5_1_">
</g>
<g id="Row_4_1_">
	<g id="snorkeling">
		<g>
			<path fill="#212121" d="M9.5,10c1.381,0,2.5-1.343,2.5-3c0-1.933-1.567-3-3.5-3h-5C1.567,4,0,5.067,0,7c0,1.657,1.119,3,2.5,3
				c1.225,0,2.344-0.458,2.688-1.25C5.407,8.243,5.447,8,6,8c0.552,0,0.568,0.255,0.813,0.75C7.188,9.511,8.119,10,9.5,10z M4.406,7
				c-0.276,0-0.5,0.224-0.5,0.5c0,0.013,0.007,0.024,0.008,0.037C3.761,7.781,3.505,8,3,8C2.447,8,2,7.553,2,7s0.447-1,1-1h6
				c0.553,0,1,0.447,1,1S9.553,8,9,8C8.492,8,8.152,7.755,8.025,7.528C8.026,7.519,8.031,7.51,8.031,7.5c0-0.276-0.224-0.5-0.5-0.5
				H4.406z M15,0c-0.553,0-1,0.447-1,1v11c0,1.104-0.896,2-2,2c-0.759,0-1.411-0.428-1.75-1.051C10.678,12.836,11,12.464,11,12
				c0-0.553-0.447-1-1-1H8c-0.553,0-1,0.447-1,1s0.447,1,1,1h0.142c0.446,1.723,1.997,3,3.858,3c2.209,0,4-1.791,4-4V1
				C16,0.447,15.553,0,15,0z"/>
		</g>
	</g>
</g>
<g id="Row_3_1_">
</g>
<g id="Row_2_1_">
</g>
<g id="Row_1_1_">
</g>
</svg>
