<?xml version="1.0" encoding="utf-8"?>
<!-- Generator: Adobe Illustrator 16.0.0, SVG Export Plug-In . SVG Version: 6.00 Build 0)  -->
<!DOCTYPE svg PUBLIC "-//W3C//DTD SVG 1.1//EN" "http://www.w3.org/Graphics/SVG/1.1/DTD/svg11.dtd">
<svg version="1.1" xmlns="http://www.w3.org/2000/svg" xmlns:xlink="http://www.w3.org/1999/xlink" x="0px" y="0px" width="16px"
	 height="16px" viewBox="0 0 16 16" enable-background="new 0 0 16 16" xml:space="preserve">
<g id="Background_xA0_Image_1_">
</g>
<g id="Row_5_1_">
</g>
<g id="Row_4_1_">
</g>
<g id="Row_3_1_">
	<g id="submarine">
		<g>
			<path fill="#212121" d="M5,9c-0.553,0-1,0.447-1,1s0.447,1,1,1s1-0.447,1-1S5.553,9,5,9z M8,9c-0.553,0-1,0.447-1,1s0.447,1,1,1
				s1-0.447,1-1S8.553,9,8,9z M12,6.101V5c0-0.553-0.447-1-1-1V1c0-0.553-0.447-1-1-1S9,0.447,9,1v3H7C6.447,4,6,4.447,6,5v1H5
				c-2.762,0-5,2.238-5,5s2.238,5,5,5h6c2.762,0,5-2.238,5-5C16,8.581,14.282,6.564,12,6.101z M11,14H5c-1.657,0-3-1.343-3-3
				s1.343-3,3-3h3V6h2v2h1c1.657,0,3,1.343,3,3S12.657,14,11,14z M11,9c-0.553,0-1,0.447-1,1s0.447,1,1,1s1-0.447,1-1S11.553,9,11,9
				z"/>
		</g>
	</g>
</g>
<g id="Row_2_1_">
</g>
<g id="Row_1_1_">
</g>
</svg>
