<?xml version="1.0" encoding="utf-8"?>
<!-- Generator: Adobe Illustrator 16.0.0, SVG Export Plug-In . SVG Version: 6.00 Build 0)  -->
<!DOCTYPE svg PUBLIC "-//W3C//DTD SVG 1.1//EN" "http://www.w3.org/Graphics/SVG/1.1/DTD/svg11.dtd">
<svg version="1.1" xmlns="http://www.w3.org/2000/svg" xmlns:xlink="http://www.w3.org/1999/xlink" x="0px" y="0px" width="16px"
	 height="16px" viewBox="0 0 16 16" enable-background="new 0 0 16 16" xml:space="preserve">
<g id="Background_xA0_Image_1_">
</g>
<g id="Row_5_1_">
</g>
<g id="Row_4_1_">
</g>
<g id="Row_3_1_">
</g>
<g id="Row_2_1_">
</g>
<g id="Row_1_1_">
	<g id="sunlight">
		<g>
			<path fill="#212121" d="M12.95,11.535c-0.391-0.391-1.024-0.391-1.415,0s-0.391,1.024,0,1.415l0.707,0.707
				c0.391,0.391,1.024,0.391,1.415,0c0.39-0.391,0.39-1.024,0-1.415L12.95,11.535z M3.05,11.535l-0.707,0.707
				c-0.391,0.391-0.391,1.024,0,1.415s1.024,0.391,1.415,0l0.707-0.707c0.391-0.391,0.391-1.024,0-1.415S3.44,11.145,3.05,11.535z
				 M3,8c0-0.553-0.447-1-1-1H1C0.447,7,0,7.447,0,8s0.447,1,1,1h1C2.553,9,3,8.553,3,8z M12.95,4.465l0.707-0.707
				c0.39-0.391,0.39-1.024,0-1.415c-0.391-0.391-1.024-0.391-1.415,0L11.535,3.05c-0.391,0.391-0.391,1.024,0,1.415
				S12.56,4.855,12.95,4.465z M8,3c0.553,0,1-0.447,1-1V1c0-0.553-0.447-1-1-1S7,0.447,7,1v1C7,2.553,7.447,3,8,3z M8,5
				C6.343,5,5,6.343,5,8s1.343,3,3,3s3-1.343,3-3S9.657,5,8,5z M8,9C7.447,9,7,8.553,7,8s0.447-1,1-1s1,0.447,1,1S8.553,9,8,9z
				 M15,7h-1c-0.553,0-1,0.447-1,1s0.447,1,1,1h1c0.553,0,1-0.447,1-1S15.553,7,15,7z M3.758,2.343
				c-0.391-0.391-1.024-0.391-1.415,0s-0.391,1.024,0,1.415L3.05,4.465c0.391,0.391,1.024,0.391,1.415,0s0.391-1.024,0-1.415
				L3.758,2.343z M8,13c-0.553,0-1,0.447-1,1v1c0,0.553,0.447,1,1,1s1-0.447,1-1v-1C9,13.447,8.553,13,8,13z"/>
		</g>
	</g>
</g>
</svg>
