<?xml version="1.0" encoding="utf-8"?>
<!-- Generator: Adobe Illustrator 16.0.0, SVG Export Plug-In . SVG Version: 6.00 Build 0)  -->
<!DOCTYPE svg PUBLIC "-//W3C//DTD SVG 1.1//EN" "http://www.w3.org/Graphics/SVG/1.1/DTD/svg11.dtd">
<svg version="1.1" xmlns="http://www.w3.org/2000/svg" xmlns:xlink="http://www.w3.org/1999/xlink" x="0px" y="0px" width="16px"
	 height="16px" viewBox="0 0 16 16" enable-background="new 0 0 16 16" xml:space="preserve">
<g id="Background_xA0_Image_1_">
</g>
<g id="Row_5_1_">
	<g id="three_propellers">
		<g>
			<path fill="#212121" d="M15.056,11.034l-6.034-2.55l2-5.486C11.526,1.701,9.676,0,8.016,0S4.47,1.45,5.009,2.998l2,5.484
				l-6.061,2.561c-1.404,0.687-1.115,2.95,0,4.076c1.115,1.125,3.501,1.223,4.036,0l3.021-5.115L7.994,9.993
				c0.008,0,0.014,0.004,0.021,0.004c0.005,0,0.01-0.003,0.015-0.003L8.026,9.998l3.011,5.094c0.534,1.218,2.909,1.12,4.019,0
				C16.166,13.971,16.455,11.717,15.056,11.034z M4.231,12.886c-0.156,0.328-0.495,1.103-1.106,1.103
				c-0.612,0-1.107-0.493-1.107-1.103c0-0.608,0.746-0.946,1.107-1.103l1.89-0.405L4.231,12.886z M8.724,3.704L8.016,5.41
				L7.307,3.704c-0.297-0.483-0.392-1.022,0-1.412c0.392-0.391,1.025-0.391,1.417,0C9.116,2.682,8.99,3.283,8.724,3.704z
				 M12.927,13.988c-0.618,0-0.931-0.712-1.119-1.103l-0.791-1.508l1.91,0.405c0.43,0.156,1.119,0.494,1.119,1.103
				C14.045,13.495,13.545,13.988,12.927,13.988z"/>
		</g>
	</g>
</g>
<g id="Row_4_1_">
</g>
<g id="Row_3_1_">
</g>
<g id="Row_2_1_">
</g>
<g id="Row_1_1_">
</g>
</svg>
