<?xml version="1.0" encoding="utf-8"?>
<!-- Generator: Adobe Illustrator 16.0.0, SVG Export Plug-In . SVG Version: 6.00 Build 0)  -->
<!DOCTYPE svg PUBLIC "-//W3C//DTD SVG 1.1//EN" "http://www.w3.org/Graphics/SVG/1.1/DTD/svg11.dtd">
<svg version="1.1" xmlns="http://www.w3.org/2000/svg" xmlns:xlink="http://www.w3.org/1999/xlink" x="0px" y="0px" width="16px"
	 height="16px" viewBox="0 0 16 16" enable-background="new 0 0 16 16" xml:space="preserve">
<g id="Background_xA0_Image_1_">
</g>
<g id="Row_5_1_">
</g>
<g id="Row_4_1_">
	<g id="underwater_goggles">
		<g>
			<path fill="#212121" d="M11,2H5C2.238,2,0,4.238,0,7c0,2.362,1.458,4.33,3.138,4.854C3.508,13.092,4.642,14,6,14h1
				c1.045,0,1.963-0.535,2.5-1.346C10.037,13.465,10.955,14,12,14h1c1.657,0,3-1.343,3-3c0,0,0-0.082,0-4C16,4.238,13.762,2,11,2z
				 M7,12H6c-0.553,0-1-0.447-1-1s0.447-1,1-1h1c0.553,0,1,0.447,1,1S7.553,12,7,12z M13,12h-1c-0.553,0-1-0.447-1-1s0.447-1,1-1h1
				c0.552,0,1,0.447,1,1S13.552,12,13,12z M14,8.184C13.686,8.072,13.353,8,13,8h-1c-1.045,0-1.963,0.535-2.5,1.346
				C8.963,8.535,8.045,8,7,8H6C4.778,8,3.73,8.733,3.263,9.781C2.528,9.34,2,8.264,2,7c0-1.657,1.343-3,3-3h6c1.657,0,3,1.343,3,3
				V8.184z"/>
		</g>
	</g>
</g>
<g id="Row_3_1_">
</g>
<g id="Row_2_1_">
</g>
<g id="Row_1_1_">
</g>
</svg>
