<?xml version="1.0" encoding="utf-8"?>
<!-- Generator: Adobe Illustrator 16.0.0, SVG Export Plug-In . SVG Version: 6.00 Build 0)  -->
<!DOCTYPE svg PUBLIC "-//W3C//DTD SVG 1.1//EN" "http://www.w3.org/Graphics/SVG/1.1/DTD/svg11.dtd">
<svg version="1.1" xmlns="http://www.w3.org/2000/svg" xmlns:xlink="http://www.w3.org/1999/xlink" x="0px" y="0px" width="16px"
	 height="16px" viewBox="0 0 16 16" enable-background="new 0 0 16 16" xml:space="preserve">
<g id="Layer_0_xA0_Image_1_">
</g>
<g id="Row_5_1_">
	<g id="beamed_note">
		<g>
			<path fill="#212121" d="M15,0c-0.035,0-0.064,0.017-0.098,0.02L14.9,0.005l-10,1L4.902,1.02C4.398,1.071,4,1.482,4,2v9.153
				C3.686,11.06,3.353,11,3,11c-1.657,0-3,1.119-3,2.5S1.343,16,3,16s3-1.119,3-2.5V6.905l8-0.8v5.048C13.686,11.06,13.353,11,13,11
				c-1.657,0-3,1.119-3,2.5s1.343,2.5,3,2.5s3-1.119,3-2.5V1C16,0.447,15.553,0,15,0z M3,14c-0.553,0-1-0.224-1-0.5S2.447,13,3,13
				s1,0.224,1,0.5S3.553,14,3,14z M13,14c-0.553,0-1-0.224-1-0.5s0.447-0.5,1-0.5s1,0.224,1,0.5S13.553,14,13,14z M14,4.095l-8,0.8
				V2.905l8-0.8V4.095z"/>
		</g>
	</g>
</g>
<g id="Row_4_1_">
</g>
<g id="Row_3_1_">
</g>
<g id="Row_2_1_">
</g>
<g id="Row_1_1_">
</g>
</svg>
