<?xml version="1.0" encoding="utf-8"?>
<!-- Generator: Adobe Illustrator 16.0.0, SVG Export Plug-In . SVG Version: 6.00 Build 0)  -->
<!DOCTYPE svg PUBLIC "-//W3C//DTD SVG 1.1//EN" "http://www.w3.org/Graphics/SVG/1.1/DTD/svg11.dtd">
<svg version="1.1" xmlns="http://www.w3.org/2000/svg" xmlns:xlink="http://www.w3.org/1999/xlink" x="0px" y="0px" width="16px"
	 height="16px" viewBox="0 0 16 16" enable-background="new 0 0 16 16" xml:space="preserve">
<g id="Layer_0_xA0_Image_1_">
</g>
<g id="Row_5_1_">
</g>
<g id="Row_4_1_">
</g>
<g id="Row_3_1_">
	<g id="camera">
		<g>
			<path fill="#212121" d="M15,3c-0.188,0-0.355,0.066-0.506,0.157l-0.009-0.015L11,5.233V5c0-0.553-0.447-1-1-1H1
				C0.447,4,0,4.447,0,5v6c0,0.553,0.447,1,1,1h9c0.553,0,1-0.447,1-1v-0.233l3.485,2.091l0.009-0.015
				C14.645,12.934,14.812,13,15,13c0.553,0,1-0.447,1-1V4C16,3.447,15.553,3,15,3z M9,10H2V6h7V10z M14,10.233l-3-1.8V7.566l3-1.8
				V10.233z"/>
		</g>
	</g>
</g>
<g id="Row_2_1_">
</g>
<g id="Row_1_1_">
</g>
</svg>
