<?xml version="1.0" encoding="utf-8"?>
<!-- Generator: Adobe Illustrator 16.0.0, SVG Export Plug-In . SVG Version: 6.00 Build 0)  -->
<!DOCTYPE svg PUBLIC "-//W3C//DTD SVG 1.1//EN" "http://www.w3.org/Graphics/SVG/1.1/DTD/svg11.dtd">
<svg version="1.1" xmlns="http://www.w3.org/2000/svg" xmlns:xlink="http://www.w3.org/1999/xlink" x="0px" y="0px" width="16px"
	 height="16px" viewBox="0 0 16 16" enable-background="new 0 0 16 16" xml:space="preserve">
<g id="Layer_0_xA0_Image_1_">
</g>
<g id="Row_5_1_">
</g>
<g id="Row_4_1_">
	<g id="equaliser">
		<g>
			<path fill="#212121" d="M2,8C1.447,8,1,8.447,1,9v6c0,0.553,0.447,1,1,1s1-0.447,1-1V9C3,8.447,2.553,8,2,8z M6,4
				C5.447,4,5,4.447,5,5v10c0,0.553,0.447,1,1,1s1-0.447,1-1V5C7,4.447,6.553,4,6,4z M14,0c-0.553,0-1,0.447-1,1v14
				c0,0.553,0.447,1,1,1s1-0.447,1-1V1C15,0.447,14.553,0,14,0z M10,12c-0.553,0-1,0.447-1,1v2c0,0.553,0.447,1,1,1s1-0.447,1-1v-2
				C11,12.447,10.553,12,10,12z"/>
		</g>
	</g>
</g>
<g id="Row_3_1_">
</g>
<g id="Row_2_1_">
</g>
<g id="Row_1_1_">
</g>
</svg>
