<?xml version="1.0" encoding="utf-8"?>
<!-- Generator: Adobe Illustrator 16.0.0, SVG Export Plug-In . SVG Version: 6.00 Build 0)  -->
<!DOCTYPE svg PUBLIC "-//W3C//DTD SVG 1.1//EN" "http://www.w3.org/Graphics/SVG/1.1/DTD/svg11.dtd">
<svg version="1.1" xmlns="http://www.w3.org/2000/svg" xmlns:xlink="http://www.w3.org/1999/xlink" x="0px" y="0px" width="16px"
	 height="16px" viewBox="0 0 16 16" enable-background="new 0 0 16 16" xml:space="preserve">
<g id="Layer_0_xA0_Image_1_">
</g>
<g id="Row_5_1_">
</g>
<g id="Row_4_1_">
</g>
<g id="Row_3_1_">
</g>
<g id="Row_2_1_">
	<g id="eye_view">
		<g>
			<path fill="#212121" d="M7,10c-0.553,0-1,0.447-1,1s0.447,1,1,1s1-0.447,1-1S7.553,10,7,10z M7,6c-3.489,0-7,4.027-7,5
				c0,0.98,3.438,5,7,5c3.416,0,7-4.027,7-5C14,9.996,10.489,6,7,6z M7,14c-2.035,0-5-2.817-5-3c0-0.209,3.007-3,5-3s5,2.71,5,3
				C12,11.239,8.952,14,7,14z M15,2c-0.612,0-1-0.45-1-1c0-0.553-0.447-1-1-1s-1,0.447-1,1c0,0.55-0.45,1-1,1c-0.553,0-1,0.447-1,1
				s0.447,1,1,1c0.581,0,1,0.419,1,1c0,0.553,0.447,1,1,1s1-0.447,1-1c0-0.581,0.481-1,1-1c0.553,0,1-0.447,1-1S15.553,2,15,2z"/>
		</g>
	</g>
</g>
<g id="Row_1_1_">
</g>
</svg>
