<?xml version="1.0" encoding="utf-8"?>
<!-- Generator: Adobe Illustrator 16.0.0, SVG Export Plug-In . SVG Version: 6.00 Build 0)  -->
<!DOCTYPE svg PUBLIC "-//W3C//DTD SVG 1.1//EN" "http://www.w3.org/Graphics/SVG/1.1/DTD/svg11.dtd">
<svg version="1.1" xmlns="http://www.w3.org/2000/svg" xmlns:xlink="http://www.w3.org/1999/xlink" x="0px" y="0px" width="16px"
	 height="16px" viewBox="0 0 16 16" enable-background="new 0 0 16 16" xml:space="preserve">
<g id="Layer_0_xA0_Image_1_">
</g>
<g id="Row_5_1_">
</g>
<g id="Row_4_1_">
</g>
<g id="Row_3_1_">
	<g id="film_2">
		<g>
			<path fill="#212121" d="M15,0c-2.762,0-5,2.238-5,5v0.558C8.937,4.6,7.544,4,6,4c-3.313,0-6,2.687-6,6s2.687,6,6,6s6-2.687,6-6V5
				c0-1.657,1.343-3,3-3c0.553,0,1-0.447,1-1S15.553,0,15,0z M6,6c0.74,0,1.425,0.215,2.021,0.565L6,8.586L3.979,6.565
				C4.575,6.215,5.26,6,6,6z M2,10c0-0.74,0.215-1.425,0.565-2.021L4.586,10l-2.021,2.021C2.215,11.425,2,10.74,2,10z M6,14
				c-0.74,0-1.425-0.215-2.021-0.565L6,11.414l2.021,2.021C7.425,13.785,6.74,14,6,14z M9.435,12.021L7.414,10l2.021-2.021
				C9.785,8.575,10,9.26,10,10S9.785,11.425,9.435,12.021z"/>
		</g>
	</g>
</g>
<g id="Row_2_1_">
</g>
<g id="Row_1_1_">
</g>
</svg>
