<?xml version="1.0" encoding="utf-8"?>
<!-- Generator: Adobe Illustrator 16.0.0, SVG Export Plug-In . SVG Version: 6.00 Build 0)  -->
<!DOCTYPE svg PUBLIC "-//W3C//DTD SVG 1.1//EN" "http://www.w3.org/Graphics/SVG/1.1/DTD/svg11.dtd">
<svg version="1.1" xmlns="http://www.w3.org/2000/svg" xmlns:xlink="http://www.w3.org/1999/xlink" x="0px" y="0px" width="16px"
	 height="16px" viewBox="0 0 16 16" enable-background="new 0 0 16 16" xml:space="preserve">
<g id="Layer_0_xA0_Image_1_">
</g>
<g id="Row_5_1_">
</g>
<g id="Row_4_1_">
</g>
<g id="Row_3_1_">
	<g id="film">
		<g>
			<path fill="#212121" d="M11.5,13h1c0.276,0,0.5-0.224,0.5-0.5S12.776,12,12.5,12h-1c-0.276,0-0.5,0.224-0.5,0.5
				S11.224,13,11.5,13z M8.5,12h-1C7.224,12,7,12.224,7,12.5S7.224,13,7.5,13h1C8.776,13,9,12.776,9,12.5S8.776,12,8.5,12z M11.5,4
				h1C12.776,4,13,3.776,13,3.5S12.776,3,12.5,3h-1C11.224,3,11,3.224,11,3.5S11.224,4,11.5,4z M7.5,4h1C8.776,4,9,3.776,9,3.5
				S8.776,3,8.5,3h-1C7.224,3,7,3.224,7,3.5S7.224,4,7.5,4z M15,0H1C0.447,0,0,0.447,0,1v14c0,0.553,0.447,1,1,1h14
				c0.553,0,1-0.447,1-1V1C16,0.447,15.553,0,15,0z M14,9h-1V7h1V9z M14,5h-2c-0.553,0-1,0.447-1,1v4c0,0.553,0.447,1,1,1h2v3H2V2
				h12V5z M3.5,13h1C4.776,13,5,12.776,5,12.5S4.776,12,4.5,12h-1C3.224,12,3,12.224,3,12.5S3.224,13,3.5,13z M4,11h5
				c0.553,0,1-0.447,1-1V6c0-0.553-0.447-1-1-1H4C3.447,5,3,5.447,3,6v4C3,10.553,3.447,11,4,11z M5,7h3v2H5V7z M3.5,4h1
				C4.776,4,5,3.776,5,3.5S4.776,3,4.5,3h-1C3.224,3,3,3.224,3,3.5S3.224,4,3.5,4z"/>
		</g>
	</g>
</g>
<g id="Row_2_1_">
</g>
<g id="Row_1_1_">
</g>
</svg>
