<?xml version="1.0" encoding="utf-8"?>
<!-- Generator: Adobe Illustrator 16.0.0, SVG Export Plug-In . SVG Version: 6.00 Build 0)  -->
<!DOCTYPE svg PUBLIC "-//W3C//DTD SVG 1.1//EN" "http://www.w3.org/Graphics/SVG/1.1/DTD/svg11.dtd">
<svg version="1.1" xmlns="http://www.w3.org/2000/svg" xmlns:xlink="http://www.w3.org/1999/xlink" x="0px" y="0px" width="16px"
	 height="16px" viewBox="0 0 16 16" enable-background="new 0 0 16 16" xml:space="preserve">
<g id="Layer_0_xA0_Image_1_">
</g>
<g id="Row_5_1_">
</g>
<g id="Row_4_1_">
</g>
<g id="Row_3_1_">
</g>
<g id="Row_2_1_">
	<g id="gopro">
		<g>
			<path fill="#212121" d="M4,7c0,0.553,0.447,1,1,1s1-0.447,1-1S5.553,6,5,6S4,6.447,4,7z M15,7c-0.553,0-1,0.447-1,1v2H2V3h4
				c0.553,0,1-0.447,1-1S6.553,1,6,1H1C0.447,1,0,1.447,0,2v9c0,0.553,0.447,1,1,1h5v1h1v1H6c-0.553,0-1,0.447-1,1s0.447,1,1,1h4
				c0.553,0,1-0.447,1-1s-0.447-1-1-1H9v-1h1v-1h5c0.553,0,1-0.447,1-1V8C16,7.447,15.553,7,15,7z M15,0H9C8.447,0,8,0.447,8,1v4
				c0,0.553,0.447,1,1,1h6c0.553,0,1-0.447,1-1V1C16,0.447,15.553,0,15,0z M14,4h-4V2h4V4z"/>
		</g>
	</g>
</g>
<g id="Row_1_1_">
</g>
</svg>
