<?xml version="1.0" encoding="utf-8"?>
<!-- Generator: Adobe Illustrator 16.0.0, SVG Export Plug-In . SVG Version: 6.00 Build 0)  -->
<!DOCTYPE svg PUBLIC "-//W3C//DTD SVG 1.1//EN" "http://www.w3.org/Graphics/SVG/1.1/DTD/svg11.dtd">
<svg version="1.1" xmlns="http://www.w3.org/2000/svg" xmlns:xlink="http://www.w3.org/1999/xlink" x="0px" y="0px" width="16px"
	 height="16px" viewBox="0 0 16 16" enable-background="new 0 0 16 16" xml:space="preserve">
<g id="Layer_0_xA0_Image_1_">
</g>
<g id="Row_5_1_">
</g>
<g id="Row_4_1_">
</g>
<g id="Row_3_1_">
</g>
<g id="Row_2_1_">
</g>
<g id="Row_1_1_">
	<g id="megaphone">
		<g>
			<path fill-rule="evenodd" clip-rule="evenodd" fill="#212121" d="M6,5C5.454,5,5.293,5.293,5.293,5.293L3.586,7H3
				c0-0.553-0.447-1-1-1S1,6.447,1,7C0.447,7,0,7.447,0,8s0.447,1,1,1h2.586l1.707,1.707C5.474,10.888,5.724,11,6,11
				c0.553,0,1-0.447,1-1V6C7,5.447,6.553,5,6,5z M2,10c-0.553,0-1,0.447-1,1v3c0,0.553,0.447,1,1,1s1-0.447,1-1v-3
				C3,10.447,2.553,10,2,10z M12.708,1.294c-0.002-0.002-0.004-0.003-0.006-0.004c-0.059-0.042-0.111-0.093-0.171-0.133
				l-0.009,0.012C12.368,1.071,12.196,1,12,1c-0.553,0-1,0.447-1,1c0,0.338,0.178,0.621,0.434,0.802l-0.013,0.021
				C13.031,3.898,14,5.918,14,8s-0.969,4.102-2.579,5.178l0.013,0.021C11.178,13.379,11,13.662,11,14c0,0.553,0.447,1,1,1
				c0.196,0,0.368-0.071,0.522-0.169l0.009,0.012c0.06-0.04,0.112-0.091,0.171-0.133c0.002-0.001,0.004-0.002,0.006-0.004
				C14.746,13.247,16,10.696,16,8S14.746,2.753,12.708,1.294z M10.562,5.142l-0.024,0.037C10.38,5.075,10.202,5,10,5
				C9.447,5,9,5.447,9,6c0,0.364,0.205,0.669,0.496,0.844C9.979,7.194,10,7.602,10,8c0,0.428-0.021,0.807-0.502,1.154
				C9.206,9.329,9,9.635,9,10c0,0.553,0.447,1,1,1c0.202,0,0.38-0.075,0.537-0.179l0.024,0.037C11.636,10.141,12,8.576,12,8
				C12,7.361,11.636,5.859,10.562,5.142z"/>
		</g>
	</g>
</g>
</svg>
