<?xml version="1.0" encoding="utf-8"?>
<!-- Generator: Adobe Illustrator 16.0.0, SVG Export Plug-In . SVG Version: 6.00 Build 0)  -->
<!DOCTYPE svg PUBLIC "-//W3C//DTD SVG 1.1//EN" "http://www.w3.org/Graphics/SVG/1.1/DTD/svg11.dtd">
<svg version="1.1" xmlns="http://www.w3.org/2000/svg" xmlns:xlink="http://www.w3.org/1999/xlink" x="0px" y="0px" width="16px"
	 height="16px" viewBox="0 0 16 16" enable-background="new 0 0 16 16" xml:space="preserve">
<g id="Layer_0_xA0_Image_1_">
</g>
<g id="Row_5_1_">
</g>
<g id="Row_4_1_">
</g>
<g id="Row_3_1_">
</g>
<g id="Row_2_1_">
	<g id="multiple_pictures">
		<g>
			<path fill="#212121" d="M15,2H5C4.447,2,4,2.447,4,3s0.447,1,1,1h9v5c0,0.553,0.447,1,1,1s1-0.447,1-1V3C16,2.447,15.553,2,15,2z
				 M11,6H1C0.447,6,0,6.447,0,7v6c0,0.553,0.447,1,1,1h10c0.553,0,1-0.447,1-1V7C12,6.447,11.553,6,11,6z M3.414,12L4,11.414
				L4.586,12H3.414z M10,11.586l-1.293-1.293C8.526,10.112,8.276,10,8,10s-0.526,0.112-0.707,0.293L6.5,11.086L4.707,9.293
				C4.526,9.112,4.276,9,4,9S3.474,9.112,3.293,9.293L2,10.586V8h8V11.586z"/>
		</g>
	</g>
</g>
<g id="Row_1_1_">
</g>
</svg>
