<?xml version="1.0" encoding="utf-8"?>
<!-- Generator: Adobe Illustrator 16.0.0, SVG Export Plug-In . SVG Version: 6.00 Build 0)  -->
<!DOCTYPE svg PUBLIC "-//W3C//DTD SVG 1.1//EN" "http://www.w3.org/Graphics/SVG/1.1/DTD/svg11.dtd">
<svg version="1.1" xmlns="http://www.w3.org/2000/svg" xmlns:xlink="http://www.w3.org/1999/xlink" x="0px" y="0px" width="16px"
	 height="16px" viewBox="0 0 16 16" enable-background="new 0 0 16 16" xml:space="preserve">
<g id="Layer_0_xA0_Image_1_">
</g>
<g id="Row_5_1_">
	<g id="note">
		<g>
			<path fill="#212121" d="M13.124,4.723l-4.433-4.43C8.511,0.112,8.261,0,7.986,0C7.436,0,6.988,0.447,6.988,1v10.153
				C6.676,11.06,6.343,11,5.991,11C4.339,11,3,12.119,3,13.5S4.339,16,5.991,16s2.992-1.119,2.992-2.5V3.414l2.723,2.73
				c0,0,0.3,0.275,0.3,0.824c0,0.553-0.478,1-1.028,1s-0.997,0.447-0.997,1s0.446,1,0.997,1c1.651,0,3.022-1.343,3.022-3
				C14,6.141,13.665,5.266,13.124,4.723z M5.991,14c-0.551,0-0.997-0.224-0.997-0.5S5.44,13,5.991,13s0.997,0.224,0.997,0.5
				S6.542,14,5.991,14z"/>
		</g>
	</g>
</g>
<g id="Row_4_1_">
</g>
<g id="Row_3_1_">
</g>
<g id="Row_2_1_">
</g>
<g id="Row_1_1_">
</g>
</svg>
