<?xml version="1.0" encoding="utf-8"?>
<!-- Generator: Adobe Illustrator 16.0.0, SVG Export Plug-In . SVG Version: 6.00 Build 0)  -->
<!DOCTYPE svg PUBLIC "-//W3C//DTD SVG 1.1//EN" "http://www.w3.org/Graphics/SVG/1.1/DTD/svg11.dtd">
<svg version="1.1" xmlns="http://www.w3.org/2000/svg" xmlns:xlink="http://www.w3.org/1999/xlink" x="0px" y="0px" width="16px"
	 height="16px" viewBox="0 0 16 16" enable-background="new 0 0 16 16" xml:space="preserve">
<g id="Layer_0_xA0_Image_1_">
</g>
<g id="Row_5_1_">
</g>
<g id="Row_4_1_">
</g>
<g id="Row_3_1_">
	<g id="projection">
		<g>
			<path fill="#212121" d="M7,9c0.205,0,0.386-0.077,0.545-0.184l3-2C10.813,6.638,11,6.347,11,6c0-0.66-0.445-0.832-0.445-0.832
				l-3-2C7.555,3.168,7.408,3,7,3C6.447,3,6,3.447,6,4v4C6,8.553,6.447,9,7,9z M8,5.868L8.197,6L8,6.132V5.868z M15,0H1
				C0.447,0,0,0.447,0,1s0.447,1,1,1h1v9c0,0.553,0.447,1,1,1h4v2c-0.553,0-1,0.447-1,1s0.447,1,1,1h2c0.553,0,1-0.447,1-1
				s-0.447-1-1-1v-2h4c0.553,0,1-0.447,1-1V2h1c0.553,0,1-0.447,1-1S15.553,0,15,0z M12,10H4V2h8V10z"/>
		</g>
	</g>
</g>
<g id="Row_2_1_">
</g>
<g id="Row_1_1_">
</g>
</svg>
