<?xml version="1.0" encoding="utf-8"?>
<!-- Generator: Adobe Illustrator 16.0.0, SVG Export Plug-In . SVG Version: 6.00 Build 0)  -->
<!DOCTYPE svg PUBLIC "-//W3C//DTD SVG 1.1//EN" "http://www.w3.org/Graphics/SVG/1.1/DTD/svg11.dtd">
<svg version="1.1" xmlns="http://www.w3.org/2000/svg" xmlns:xlink="http://www.w3.org/1999/xlink" x="0px" y="0px" width="16px"
	 height="16px" viewBox="0 0 16 16" enable-background="new 0 0 16 16" xml:space="preserve">
<g id="Layer_0_xA0_Image_1_">
</g>
<g id="Row_5_1_">
	<g id="radio">
		<g>
			<path fill="#212121" d="M11,11c0.553,0,1-0.447,1-1s-0.447-1-1-1s-1,0.447-1,1S10.447,11,11,11z M5,13c1.104,0,2-0.896,2-2
				S6.104,9,5,9s-2,0.896-2,2S3.896,13,5,13z M15,6H9.618l2.276-4.553l-0.009-0.005C11.953,1.308,12,1.161,12,1c0-0.553-0.447-1-1-1
				c-0.391,0-0.721,0.23-0.886,0.558l-0.009-0.005L7.789,5.186L3.769,0.359L3.758,0.368C3.574,0.148,3.309,0,3,0
				C2.447,0,2,0.447,2,1c0,0.243,0.098,0.458,0.242,0.632L2.231,1.641L5.865,6H1C0.447,6,0,6.447,0,7v8c0,0.553,0.447,1,1,1h14
				c0.553,0,1-0.447,1-1V7C16,6.447,15.553,6,15,6z M14,14H2V8h12V14z"/>
		</g>
	</g>
</g>
<g id="Row_4_1_">
</g>
<g id="Row_3_1_">
</g>
<g id="Row_2_1_">
</g>
<g id="Row_1_1_">
</g>
</svg>
