<?xml version="1.0" encoding="utf-8"?>
<!-- Generator: Adobe Illustrator 16.0.0, SVG Export Plug-In . SVG Version: 6.00 Build 0)  -->
<!DOCTYPE svg PUBLIC "-//W3C//DTD SVG 1.1//EN" "http://www.w3.org/Graphics/SVG/1.1/DTD/svg11.dtd">
<svg version="1.1" xmlns="http://www.w3.org/2000/svg" xmlns:xlink="http://www.w3.org/1999/xlink" x="0px" y="0px" width="16px"
	 height="16.007px" viewBox="0 0 16 16.007" enable-background="new 0 0 16 16.007" xml:space="preserve">
<g id="Layer_0_xA0_Image_1_">
</g>
<g id="Row_5_1_">
</g>
<g id="Row_4_1_">
	<g id="Ellipse_4">
		<g>
			<path fill="#212121" d="M2.892,11.115C2.337,10.206,2,9.149,2,8.007c0-2.498,1.539-4.611,3.711-5.511
				c0,0,0.727-0.122,0.727-0.958c0-0.553-0.447-1-1-1c-0.195,0-0.278,0.024-0.278,0.024C2.15,1.711,0,4.595,0,8.007
				c0,1.698,0.533,3.27,1.436,4.564l0.032-0.032c0.18,0.172,0.421,0.28,0.688,0.28c0.553,0,1-0.447,1-1
				C3.156,11.294,2.892,11.115,2.892,11.115z M5.375,9.632c0-0.527-0.234-0.766-0.234-0.766C5.058,8.593,5,8.308,5,8.007
				c0-1.122,0.638-2.063,1.55-2.575c0,0,0.7-0.172,0.7-0.987c0-0.553-0.447-1-1-1c-0.183,0-0.268,0.002-0.268,0.002
				C4.229,4.223,3,5.966,3,8.007c0,0.722,0.174,1.395,0.453,2.012c0.016,0.037,0.25,0.613,0.922,0.613
				C4.928,10.632,5.375,10.185,5.375,9.632z M11.096,0.683c-0.131-0.085-0.37-0.176-0.533-0.176c-0.553,0-1,0.447-1,1
				c0,0.829,0.727,0.989,0.727,0.989C12.461,3.396,14,5.509,14,8.007c0,1.14-0.335,2.192-0.887,3.1
				c-0.185,0.182-0.301,0.434-0.301,0.713c0,0.553,0.447,1,1,1c0.531,0,0.752-0.248,0.752-0.248C15.467,11.276,16,9.705,16,8.007
				C16,4.694,13.966,1.895,11.096,0.683z M11.937,14.655l-3-8L8.93,6.658C8.787,6.279,8.429,6.007,8,6.007S7.213,6.279,7.07,6.658
				L7.063,6.655l-3,8l0.007,0.003C4.029,14.768,4,14.883,4,15.007c0,0.553,0.447,1,1,1h6c0.553,0,1-0.447,1-1
				c0-0.124-0.029-0.239-0.07-0.349L11.937,14.655z M6.443,14.007L8,9.854l1.557,4.152H6.443z M10.018,3.446
				c0,0-0.085-0.002-0.268-0.002c-0.553,0-1,0.447-1,1c0,0.815,0.7,0.987,0.7,0.987C10.362,5.944,11,6.885,11,8.007
				c0,0.301-0.058,0.586-0.141,0.859c0,0-0.203,0.279-0.203,0.797c0,0.553,0.447,1,1,1c0.77,0,0.946-0.742,0.956-0.782
				C12.854,9.303,13,8.674,13,8.007C13,5.966,11.771,4.223,10.018,3.446z"/>
		</g>
	</g>
</g>
<g id="Row_3_1_">
</g>
<g id="Row_2_1_">
</g>
<g id="Row_1_1_">
</g>
</svg>
