<?xml version="1.0" encoding="utf-8"?>
<!-- Generator: Adobe Illustrator 16.0.0, SVG Export Plug-In . SVG Version: 6.00 Build 0)  -->
<!DOCTYPE svg PUBLIC "-//W3C//DTD SVG 1.1//EN" "http://www.w3.org/Graphics/SVG/1.1/DTD/svg11.dtd">
<svg version="1.1" xmlns="http://www.w3.org/2000/svg" xmlns:xlink="http://www.w3.org/1999/xlink" x="0px" y="0px" width="16px"
	 height="16px" viewBox="0 0 16 16" enable-background="new 0 0 16 16" xml:space="preserve">
<g id="Layer_0_xA0_Image_1_">
</g>
<g id="Row_5_1_">
</g>
<g id="Row_4_1_">
	<g id="rewind">
		<g>
			<path fill="#212121" d="M15,2c-0.195,0-0.367,0.07-0.521,0.167l-0.01-0.015l-8,5l0.01,0.015C6.197,7.344,6,7.643,6,8
				s0.197,0.656,0.479,0.833L6.47,8.848l8,5l0.01-0.015C14.633,13.93,14.805,14,15,14c0.553,0,1-0.447,1-1V3C16,2.447,15.553,2,15,2
				z M14,11.195L8.887,8L14,4.805V11.195z M9.521,12.167l0.01-0.015L2.887,8L9.53,3.848l-0.01-0.015C9.802,3.656,10,3.357,10,3
				c0-0.553-0.447-1-1-1C8.805,2,8.634,2.07,8.479,2.167L8.47,2.152l-8,5l0.01,0.015C0.197,7.344,0,7.643,0,8
				s0.197,0.656,0.479,0.833L0.47,8.848l8,5l0.01-0.015C8.634,13.93,8.805,14,9,14c0.553,0,1-0.447,1-1
				C10,12.643,9.802,12.344,9.521,12.167z"/>
		</g>
	</g>
</g>
<g id="Row_3_1_">
</g>
<g id="Row_2_1_">
</g>
<g id="Row_1_1_">
</g>
</svg>
