<?xml version="1.0" encoding="utf-8"?>
<!-- Generator: Adobe Illustrator 16.0.0, SVG Export Plug-In . SVG Version: 6.00 Build 0)  -->
<!DOCTYPE svg PUBLIC "-//W3C//DTD SVG 1.1//EN" "http://www.w3.org/Graphics/SVG/1.1/DTD/svg11.dtd">
<svg version="1.1" xmlns="http://www.w3.org/2000/svg" xmlns:xlink="http://www.w3.org/1999/xlink" x="0px" y="0px" width="16px"
	 height="16.007px" viewBox="0 0 16 16.007" enable-background="new 0 0 16 16.007" xml:space="preserve">
<g id="Layer_0_xA0_Image_1_">
</g>
<g id="Row_5_1_">
</g>
<g id="Row_4_1_">
	<g id="satelite_dish">
		<g>
			<path fill="#212121" d="M1.143,1.521l3,5l0.015-0.009C4.332,6.803,4.637,7.007,5,7.007c0.553,0,1-0.447,1-1
				c0-0.188-0.066-0.355-0.157-0.506l0.015-0.009l-0.942-1.57l1.57,0.942L6.494,4.85C6.645,4.94,6.812,5.007,7,5.007
				c0.553,0,1-0.447,1-1c0-0.363-0.204-0.668-0.494-0.843l0.009-0.015l-5-3L2.506,0.164C2.355,0.073,2.188,0.007,2,0.007
				c-0.553,0-1,0.447-1,1c0,0.189,0.06,0.36,0.154,0.508L1.143,1.521z M11.832,14.452l-1.502-2.253
				c0.596-0.312,1.167-0.687,1.667-1.188c2.646-2.65,2.646-6.948,0-9.6l-0.684-0.686c-0.96-0.962-2.671-0.935-4.47-0.111
				l1.186,0.678L8.012,1.321C8.26,1.471,8.467,1.677,8.634,1.91c0.569-0.139,1.034-0.091,1.312,0.187
				c0.756,0.758-0.163,2.907-2.053,4.8C6.004,8.79,3.86,9.711,3.104,8.954C2.829,8.679,2.782,8.216,2.916,7.651
				c-0.239-0.169-0.449-0.38-0.602-0.633L2.285,7.036l-0.67-1.172C0.803,7.66,0.779,9.366,1.736,10.325l0.684,0.686
				c1.306,1.309,3.011,1.965,4.721,1.981l-0.973,1.46l0.016,0.01C6.077,14.621,6,14.802,6,15.007c0,0.553,0.447,1,1,1h4
				c0.553,0,1-0.447,1-1c0-0.205-0.077-0.386-0.184-0.545L11.832,14.452z M5.451,10.723C6.71,10.3,8.059,9.474,9.261,8.269
				c1.203-1.206,2.027-2.557,2.449-3.819c0.677,1.738,0.319,3.787-1.081,5.19S7.185,11.4,5.451,10.723z M8.868,14.007L9,13.81
				l0.132,0.197H8.868z"/>
		</g>
	</g>
</g>
<g id="Row_3_1_">
</g>
<g id="Row_2_1_">
</g>
<g id="Row_1_1_">
</g>
</svg>
