<?xml version="1.0" encoding="utf-8"?>
<!-- Generator: Adobe Illustrator 16.0.0, SVG Export Plug-In . SVG Version: 6.00 Build 0)  -->
<!DOCTYPE svg PUBLIC "-//W3C//DTD SVG 1.1//EN" "http://www.w3.org/Graphics/SVG/1.1/DTD/svg11.dtd">
<svg version="1.1" xmlns="http://www.w3.org/2000/svg" xmlns:xlink="http://www.w3.org/1999/xlink" x="0px" y="0px" width="16px"
	 height="16px" viewBox="0 0 16 16" enable-background="new 0 0 16 16" xml:space="preserve">
<g id="Layer_0_xA0_Image_1_">
</g>
<g id="Row_5_1_">
</g>
<g id="Row_4_1_">
</g>
<g id="Row_3_1_">
</g>
<g id="Row_2_1_">
</g>
<g id="Row_1_1_">
	<g id="shutter">
		<g>
			<path fill="#212121" d="M11.993,14.917c1.828-1.062,3.203-2.818,3.744-4.917H9.154L11.993,14.917z M12.326,12.431l-0.5-0.866
				l1.153,0.002C12.89,11.919,12.665,12.235,12.326,12.431z M16,8c0-2.235-0.919-4.254-2.396-5.705L10.31,8H16z M14,6.469h-1.001
				l0.579-0.998C13.839,5.725,14,6.078,14,6.469z M11.997,1.077C10.82,0.396,9.458,0,8,0C7.259,0,6.553,0.126,5.872,0.314L9.154,6
				L11.997,1.077z M9.674,2.038l-0.5,0.866l-0.574-1C8.949,1.807,9.335,1.843,9.674,2.038z M4.003,14.923C5.18,15.604,6.542,16,8,16
				c0.741,0,1.447-0.126,2.128-0.314L6.846,10L4.003,14.923z M6.326,13.962l0.5-0.866l0.574,1
				C7.051,14.193,6.665,14.157,6.326,13.962z M4.007,1.083C2.179,2.145,0.804,3.901,0.262,6h6.584L4.007,1.083z M3.674,3.569
				l0.5,0.866L3.021,4.434C3.11,4.081,3.335,3.765,3.674,3.569z M0,8c0,2.235,0.919,4.254,2.396,5.705L5.69,8H0z M2,9.531h1.001
				l-0.58,0.998C2.161,10.275,2,9.922,2,9.531z"/>
		</g>
	</g>
</g>
</svg>
