<?xml version="1.0" encoding="utf-8"?>
<!-- Generator: Adobe Illustrator 16.0.0, SVG Export Plug-In . SVG Version: 6.00 Build 0)  -->
<!DOCTYPE svg PUBLIC "-//W3C//DTD SVG 1.1//EN" "http://www.w3.org/Graphics/SVG/1.1/DTD/svg11.dtd">
<svg version="1.1" xmlns="http://www.w3.org/2000/svg" xmlns:xlink="http://www.w3.org/1999/xlink" x="0px" y="0px" width="16px"
	 height="16px" viewBox="0 0 16 16" enable-background="new 0 0 16 16" xml:space="preserve">
<g id="Layer_0_xA0_Image_1_">
</g>
<g id="Row_5_1_">
</g>
<g id="Row_4_1_">
</g>
<g id="Row_3_1_">
	<g id="tape_1_">
		<g>
			<path fill="#212121" d="M1,3h14c0.553,0,1-0.447,1-1s-0.447-1-1-1H1C0.447,1,0,1.447,0,2S0.447,3,1,3z M15,13H1
				c-0.553,0-1,0.447-1,1s0.447,1,1,1h14c0.553,0,1-0.447,1-1S15.553,13,15,13z M12,11c1.657,0,3-1.343,3-3s-1.343-3-3-3H4
				C2.343,5,1,6.343,1,8s1.343,3,3,3s3-1.343,3-3c0-0.353-0.072-0.686-0.184-1h2.367C9.072,7.314,9,7.647,9,8
				C9,9.657,10.343,11,12,11z M12,7c0.553,0,1,0.447,1,1s-0.447,1-1,1s-1-0.447-1-1S11.447,7,12,7z M4,9C3.447,9,3,8.553,3,8
				s0.447-1,1-1s1,0.447,1,1S4.553,9,4,9z"/>
		</g>
	</g>
</g>
<g id="Row_2_1_">
</g>
<g id="Row_1_1_">
</g>
</svg>
