<?xml version="1.0" encoding="utf-8"?>
<!-- Generator: Adobe Illustrator 16.0.0, SVG Export Plug-In . SVG Version: 6.00 Build 0)  -->
<!DOCTYPE svg PUBLIC "-//W3C//DTD SVG 1.1//EN" "http://www.w3.org/Graphics/SVG/1.1/DTD/svg11.dtd">
<svg version="1.1" xmlns="http://www.w3.org/2000/svg" xmlns:xlink="http://www.w3.org/1999/xlink" x="0px" y="0px" width="16.01px"
	 height="16px" viewBox="0 0 16.01 16" enable-background="new 0 0 16.01 16" xml:space="preserve">
<g id="Layer_0_xA0_Image_1_">
</g>
<g id="Row_5_1_">
</g>
<g id="Row_4_1_">
</g>
<g id="Row_3_1_">
</g>
<g id="Row_2_1_">
</g>
<g id="Row_1_1_">
	<g id="touch_screen">
		<g>
			<path fill-rule="evenodd" clip-rule="evenodd" fill="#212121" d="M12.174,10.014L8.01,9.181V5c0-0.553-0.447-1-1-1s-1,0.447-1,1
				v7.027l-1.114-1.47C4.73,10.23,4.4,10,4.01,10c-0.553,0-1,0.447-1,1c0,0.326,0.105,0.447,0.105,0.447l3,4
				c0,0,0.156,0.553,0.895,0.553h4c0.468,0,0.843-0.328,0.952-0.762l1-4c0.02-0.078,0.048-0.154,0.048-0.238
				C13.01,10.11,12.174,10.014,12.174,10.014z M10.229,14H8.01v-2.78l2.775,0.555L10.229,14z M3.31,8.712
				C3.313,8.715,3.314,8.72,3.318,8.723L3.321,8.72C3.501,8.892,3.742,9,4.01,9c0.553,0,1-0.447,1-1c0-0.268-0.108-0.509-0.28-0.688
				l0.003-0.003C4.189,6.766,4.01,5.828,4.01,5c0-1.657,1.343-3,3-3s3,1.343,3,3c0,0.828-0.18,1.734-0.723,2.277l0.016,0.016
				C9.122,7.474,9.01,7.724,9.01,8c0,0.553,0.447,1,1,1c0.403,0,0.746-0.241,0.904-0.585C11.655,7.513,12.01,6.256,12.01,5
				c0-2.762-2.238-5-5-5s-5,2.238-5,5c0,1.357,0.396,2.764,1.269,3.671C3.29,8.684,3.297,8.699,3.31,8.712z"/>
		</g>
	</g>
</g>
</svg>
