<?xml version="1.0" encoding="utf-8"?>
<!-- Generator: Adobe Illustrator 16.0.0, SVG Export Plug-In . SVG Version: 6.00 Build 0)  -->
<!DOCTYPE svg PUBLIC "-//W3C//DTD SVG 1.1//EN" "http://www.w3.org/Graphics/SVG/1.1/DTD/svg11.dtd">
<svg version="1.1" xmlns="http://www.w3.org/2000/svg" xmlns:xlink="http://www.w3.org/1999/xlink" x="0px" y="0px" width="16px"
	 height="16px" viewBox="0 0 16 16" enable-background="new 0 0 16 16" xml:space="preserve">
<g id="Layer_0_xA0_Image_1_">
</g>
<g id="Row_5_1_">
</g>
<g id="Row_4_1_">
</g>
<g id="Row_3_1_">
</g>
<g id="Row_2_1_">
	<g id="usb_drive">
		<g>
			<path fill="#212121" d="M11,2v4h1v1H9V4h1L8,0L6,4h1v5H4V7.723C4.596,7.376,5,6.738,5,6c0-1.104-0.896-2-2-2S1,4.896,1,6
				c0,0.738,0.404,1.376,1,1.723V9c0,1.104,0.896,2,2,2h3v1.277C6.404,12.624,6,13.262,6,14c0,1.104,0.896,2,2,2s2-0.896,2-2
				c0-0.738-0.404-1.376-1-1.723V9h3c1.104,0,2-0.896,2-2V6h1V2H11z"/>
		</g>
	</g>
</g>
<g id="Row_1_1_">
</g>
</svg>
