<?xml version="1.0" encoding="utf-8"?>
<!-- Generator: Adobe Illustrator 16.0.0, SVG Export Plug-In . SVG Version: 6.00 Build 0)  -->
<!DOCTYPE svg PUBLIC "-//W3C//DTD SVG 1.1//EN" "http://www.w3.org/Graphics/SVG/1.1/DTD/svg11.dtd">
<svg version="1.1" xmlns="http://www.w3.org/2000/svg" xmlns:xlink="http://www.w3.org/1999/xlink" x="0px" y="0px" width="16px"
	 height="16px" viewBox="0 0 16 16" enable-background="new 0 0 16 16" xml:space="preserve">
<g id="Layer_0_xA0_Image_1_">
</g>
<g id="Row_5_1_">
</g>
<g id="Row_4_1_">
	<g id="vinyl">
		<g>
			<path fill="#212121" d="M11,8c0-1.657-1.343-3-3-3S5,6.343,5,8s1.343,3,3,3S11,9.657,11,8z M8,9C7.447,9,7,8.553,7,8s0.447-1,1-1
				s1,0.447,1,1S8.553,9,8,9z M14,2.721V1c0-0.553-0.447-1-1-1s-1,0.447-1,1v0.079C10.822,0.396,9.459,0,8,0C3.582,0,0,3.582,0,8
				s3.582,8,8,8s8-3.582,8-8C16,5.975,15.241,4.13,14,2.721z M8,14c-3.313,0-6-2.687-6-6s2.687-6,6-6c1.544,0,2.937,0.6,4,1.558
				v5.028l-2.707,2.707C9.112,11.474,9,11.724,9,12c0,0.553,0.447,1,1,1c0.276,0,0.526-0.112,0.707-0.293l3-3
				c0.013-0.013,0.019-0.031,0.03-0.045C13.014,12.161,10.733,14,8,14z"/>
		</g>
	</g>
</g>
<g id="Row_3_1_">
</g>
<g id="Row_2_1_">
</g>
<g id="Row_1_1_">
</g>
</svg>
