<?xml version="1.0" encoding="utf-8"?>
<!-- Generator: Adobe Illustrator 16.0.0, SVG Export Plug-In . SVG Version: 6.00 Build 0)  -->
<!DOCTYPE svg PUBLIC "-//W3C//DTD SVG 1.1//EN" "http://www.w3.org/Graphics/SVG/1.1/DTD/svg11.dtd">
<svg version="1.1" xmlns="http://www.w3.org/2000/svg" xmlns:xlink="http://www.w3.org/1999/xlink" x="0px" y="0px" width="16px"
	 height="16px" viewBox="0 0 16 16" enable-background="new 0 0 16 16" xml:space="preserve">
<g id="Layer_0_xA0_Image_1_">
</g>
<g id="Row_5_1_">
	<g id="volume_1">
		<g>
			<path fill="#212121" d="M9,0C8.724,0,8.474,0.112,8.293,0.293L3.659,4H1C0.447,4,0,4.447,0,5v6c0,0.553,0.447,1,1,1h2.659
				l4.634,3.707C8.474,15.888,8.724,16,9,16c0.553,0,1-0.447,1-1V1C10,0.447,9.553,0,9,0z M8,12.927l-3.293-2.634
				C4.526,10.112,4.276,10,4,10H2V6h2c0.276,0,0.526-0.112,0.707-0.293L8,3.073V12.927z M13.688,2.249L13.67,2.268
				C13.492,2.105,13.26,2,13,2c-0.553,0-1,0.447-1,1c0,0.298,0.137,0.558,0.344,0.741C13.385,4.825,14,6.381,14,8
				c0,1.657-0.609,3.188-1.695,4.273l0.007,0.007C12.121,12.462,12,12.716,12,13c0,0.553,0.447,1,1,1
				c0.285,0,0.539-0.122,0.722-0.314C15.168,12.238,16,10.208,16,8C16,5.791,15.136,3.697,13.688,2.249z"/>
		</g>
	</g>
</g>
<g id="Row_4_1_">
</g>
<g id="Row_3_1_">
</g>
<g id="Row_2_1_">
</g>
<g id="Row_1_1_">
</g>
</svg>
