<?xml version="1.0" encoding="utf-8"?>
<!-- Generator: Adobe Illustrator 16.0.0, SVG Export Plug-In . SVG Version: 6.00 Build 0)  -->
<!DOCTYPE svg PUBLIC "-//W3C//DTD SVG 1.1//EN" "http://www.w3.org/Graphics/SVG/1.1/DTD/svg11.dtd">
<svg version="1.1" xmlns="http://www.w3.org/2000/svg" xmlns:xlink="http://www.w3.org/1999/xlink" x="0px" y="0px" width="16px"
	 height="16px" viewBox="0 0 16 16" enable-background="new 0 0 16 16" xml:space="preserve">
<g id="Layer_0_xA0_Image_1_">
</g>
<g id="Row_5_1_">
</g>
<g id="Row_4_1_">
</g>
<g id="Row_3_1_">
</g>
<g id="Row_2_1_">
</g>
<g id="Row_1_1_">
	<g id="waves">
		<g>
			<path fill="#212121" d="M1,10c-0.553,0-1,0.447-1,1s0.447,1,1,1c1.657,0,3,1.343,3,3c0,0.553,0.447,1,1,1s1-0.447,1-1
				C6,12.238,3.762,10,1,10z M1,14c-0.553,0-1,0.447-1,1s0.447,1,1,1s1-0.447,1-1S1.553,14,1,14z M2,5H1C0.447,5,0,5.447,0,6
				s0.447,1,1,1h1c3.866,0,7,3.134,7,7v1c0,0.553,0.447,1,1,1s1-0.447,1-1v-1C11,9.029,6.971,5,2,5z M3,0H1C0.447,0,0,0.447,0,1
				s0.447,1,1,1h2c6.075,0,11,4.925,11,11v2c0,0.553,0.447,1,1,1s1-0.447,1-1v-2C16,5.82,10.18,0,3,0z"/>
		</g>
	</g>
</g>
</svg>
