<?xml version="1.0" encoding="utf-8"?>
<!-- Generator: Adobe Illustrator 16.0.0, SVG Export Plug-In . SVG Version: 6.00 Build 0)  -->
<!DOCTYPE svg PUBLIC "-//W3C//DTD SVG 1.1//EN" "http://www.w3.org/Graphics/SVG/1.1/DTD/svg11.dtd">
<svg version="1.1" xmlns="http://www.w3.org/2000/svg" xmlns:xlink="http://www.w3.org/1999/xlink" x="0px" y="0px" width="16px"
	 height="16px" viewBox="0 0 16 16" enable-background="new 0 0 16 16" xml:space="preserve">
<g id="Layer_0_xA0_Image_1_">
</g>
<g id="Row_5_1_">
</g>
<g id="Row_4_1_">
</g>
<g id="Row_3_1_">
	<g id="youtube_play_button">
		<g>
			<path fill="#212121" d="M10.545,7.184l0.01-0.016l-3-2l-0.01,0.016C7.386,5.077,7.205,5,7,5C6.447,5,6,5.447,6,6v4
				c0,0.553,0.447,1,1,1c0.205,0,0.386-0.077,0.545-0.184l0.01,0.016l3-2l-0.01-0.016C10.813,8.638,11,8.347,11,8
				S10.813,7.362,10.545,7.184z M8,8.132V7.868L8.197,8L8,8.132z M15.469,3.531c0-0.553-0.447-1-1-1C14.469,2.531,11.438,2,8,2
				C4.5,2,1.5,2.531,1.5,2.531c-0.553,0-1,0.447-1,1C0.5,3.531,0,5.969,0,8c0,1.97,0.5,4.438,0.5,4.438c0,0.553,0.447,1,1,1
				C1.5,13.438,4.469,14,8,14c3.5,0,6.469-0.563,6.469-0.563c0.553,0,1-0.447,1-1c0,0,0.531-2.469,0.531-4.438
				C16,6,15.469,3.531,15.469,3.531z M13.469,11.438c0,0-2.5,0.563-5.469,0.563c-3,0-5.5-0.563-5.5-0.563S2,9.5,2,8
				c0-1.531,0.5-3.469,0.5-3.469S5.063,4,8,4c2.969,0,5.469,0.531,5.469,0.531S14,6.5,14,8S13.469,11.438,13.469,11.438z"/>
		</g>
	</g>
</g>
<g id="Row_2_1_">
</g>
<g id="Row_1_1_">
</g>
</svg>
