<?xml version="1.0" encoding="utf-8"?>
<!-- Generator: Adobe Illustrator 16.0.0, SVG Export Plug-In . SVG Version: 6.00 Build 0)  -->
<!DOCTYPE svg PUBLIC "-//W3C//DTD SVG 1.1//EN" "http://www.w3.org/Graphics/SVG/1.1/DTD/svg11.dtd">
<svg version="1.1" xmlns="http://www.w3.org/2000/svg" xmlns:xlink="http://www.w3.org/1999/xlink" x="0px" y="0px" width="16px"
	 height="16px" viewBox="0 0 16 16" enable-background="new 0 0 16 16" xml:space="preserve">
<g id="Background_xA0_Image_1_">
</g>
<g id="Row_5_1_">
</g>
<g id="Row_4_1_">
	<g id="bookmark">
		<g>
			<path fill="#212121" d="M12,0H4C3.447,0,3,0.447,3,1v14c0,0.552,0.447,1,1,1c0.226,0,0.423-0.088,0.59-0.214L4.6,15.8L8,13.25
				l3.4,2.55l0.01-0.014C11.577,15.912,11.774,16,12,16c0.553,0,1-0.448,1-1V1C13,0.447,12.553,0,12,0z M11,13l-2.4-1.8l-0.01,0.014
				C8.423,11.088,8.226,11,8,11s-0.423,0.088-0.59,0.214L7.4,11.2L5,13V2h6V13z"/>
		</g>
	</g>
</g>
<g id="Row_3_1_">
</g>
<g id="Row_2_1_">
</g>
<g id="Row_1_1_">
</g>
</svg>
