<?xml version="1.0" encoding="utf-8"?>
<!-- Generator: Adobe Illustrator 16.0.0, SVG Export Plug-In . SVG Version: 6.00 Build 0)  -->
<!DOCTYPE svg PUBLIC "-//W3C//DTD SVG 1.1//EN" "http://www.w3.org/Graphics/SVG/1.1/DTD/svg11.dtd">
<svg version="1.1" xmlns="http://www.w3.org/2000/svg" xmlns:xlink="http://www.w3.org/1999/xlink" x="0px" y="0px" width="16px"
	 height="16px" viewBox="0 0 16 16" enable-background="new 0 0 16 16" xml:space="preserve">
<g id="Background_xA0_Image_1_">
</g>
<g id="Row_5_1_">
</g>
<g id="Row_4_1_">
</g>
<g id="Row_3_1_">
</g>
<g id="Row_2_1_">
</g>
<g id="Row_1_1_">
	<g id="calendar">
		<g>
			<path fill="#212121" d="M15,2h-3V1c0-0.553-0.447-1-1-1s-1,0.447-1,1v1H6V1c0-0.553-0.447-1-1-1S4,0.447,4,1v1H1
				C0.447,2,0,2.447,0,3v12c0,0.553,0.447,1,1,1h14c0.553,0,1-0.447,1-1V3C16,2.447,15.553,2,15,2z M14,14H2V8h12V14z M14,6H2V4h2
				c0,0.553,0.447,1,1,1s1-0.447,1-1h4c0,0.553,0.447,1,1,1s1-0.447,1-1h2V6z M5,12c0,0.553,0.447,1,1,1s1-0.447,1-1h2
				c0,0.553,0.447,1,1,1s1-0.447,1-1c0.553,0,1-0.447,1-1s-0.447-1-1-1c0-0.553-0.447-1-1-1s-1,0.447-1,1H7c0-0.553-0.447-1-1-1
				s-1,0.447-1,1c-0.553,0-1,0.447-1,1S4.447,12,5,12z"/>
		</g>
	</g>
</g>
</svg>
