<?xml version="1.0" encoding="utf-8"?>
<!-- Generator: Adobe Illustrator 16.0.0, SVG Export Plug-In . SVG Version: 6.00 Build 0)  -->
<!DOCTYPE svg PUBLIC "-//W3C//DTD SVG 1.1//EN" "http://www.w3.org/Graphics/SVG/1.1/DTD/svg11.dtd">
<svg version="1.1" xmlns="http://www.w3.org/2000/svg" xmlns:xlink="http://www.w3.org/1999/xlink" x="0px" y="0px" width="16px"
	 height="16px" viewBox="0 0 16 16" enable-background="new 0 0 16 16" xml:space="preserve">
<g id="Background_xA0_Image_1_">
</g>
<g id="Row_5_1_">
	<g id="cancel_2">
		<g>
			<path fill="#212121" d="M13.657,2.343c-3.125-3.124-8.189-3.124-11.314,0c-3.124,3.124-3.124,8.189,0,11.314
				c3.125,3.124,8.189,3.124,11.314,0C16.781,10.532,16.781,5.467,13.657,2.343z M12.242,12.242c-2.343,2.344-6.142,2.344-8.484,0
				c-2.344-2.343-2.344-6.142,0-8.485c2.343-2.343,6.142-2.343,8.484,0C14.586,6.101,14.586,9.899,12.242,12.242z M10.828,5.172
				c-0.391-0.391-1.023-0.391-1.414,0L8,6.586L6.586,5.172c-0.391-0.391-1.023-0.391-1.414,0s-0.391,1.023,0,1.414L6.586,8
				L5.172,9.414c-0.391,0.391-0.391,1.023,0,1.414s1.023,0.391,1.414,0L8,9.414l1.414,1.414c0.391,0.391,1.023,0.391,1.414,0
				s0.391-1.023,0-1.414L9.414,8l1.414-1.414C11.219,6.195,11.219,5.563,10.828,5.172z"/>
		</g>
	</g>
</g>
<g id="Row_4_1_">
</g>
<g id="Row_3_1_">
</g>
<g id="Row_2_1_">
</g>
<g id="Row_1_1_">
</g>
</svg>
