<?xml version="1.0" encoding="utf-8"?>
<!-- Generator: Adobe Illustrator 16.0.0, SVG Export Plug-In . SVG Version: 6.00 Build 0)  -->
<!DOCTYPE svg PUBLIC "-//W3C//DTD SVG 1.1//EN" "http://www.w3.org/Graphics/SVG/1.1/DTD/svg11.dtd">
<svg version="1.1" xmlns="http://www.w3.org/2000/svg" xmlns:xlink="http://www.w3.org/1999/xlink" x="0px" y="0px" width="16px"
	 height="16px" viewBox="0 0 16 16" enable-background="new 0 0 16 16" xml:space="preserve">
<g id="Background_xA0_Image_1_">
</g>
<g id="Row_5_1_">
</g>
<g id="Row_4_1_">
</g>
<g id="Row_3_1_">
</g>
<g id="Row_2_1_">
</g>
<g id="Row_1_1_">
	<g id="electricity">
		<g>
			<path fill="#212121" d="M13,8c0-0.553-0.447-1-1-1H5.943l3.87-5.419L9.799,1.57C9.916,1.407,10,1.217,10,1c0-0.553-0.447-1-1-1
				C8.665,0,8.383,0.176,8.201,0.43L8.187,0.419l-5,7L3.201,7.43C3.084,7.593,3,7.783,3,8c0,0.553,0.447,1,1,1h6.057l-3.87,5.419
				l0.015,0.011C6.084,14.593,6,14.783,6,15c0,0.553,0.447,1,1,1c0.335,0,0.617-0.176,0.799-0.43l0.015,0.011l5-7L12.799,8.57
				C12.916,8.407,13,8.217,13,8z"/>
		</g>
	</g>
</g>
</svg>
