<?xml version="1.0" encoding="utf-8"?>
<!-- Generator: Adobe Illustrator 16.0.0, SVG Export Plug-In . SVG Version: 6.00 Build 0)  -->
<!DOCTYPE svg PUBLIC "-//W3C//DTD SVG 1.1//EN" "http://www.w3.org/Graphics/SVG/1.1/DTD/svg11.dtd">
<svg version="1.1" xmlns="http://www.w3.org/2000/svg" xmlns:xlink="http://www.w3.org/1999/xlink" x="0px" y="0px" width="16px"
	 height="16px" viewBox="0 0 16 16" enable-background="new 0 0 16 16" xml:space="preserve">
<g id="Background_xA0_Image_1_">
</g>
<g id="Row_5_1_">
	<g id="expand">
		<g>
			<path fill="#212121" d="M6,11c0-0.553-0.447-1-1-1c-0.276,0-0.526,0.112-0.707,0.293L2,12.586V11c0-0.553-0.447-1-1-1
				s-1,0.447-1,1v4c0,0.552,0.447,1,1,1h4c0.553,0,1-0.448,1-1c0-0.553-0.447-1-1-1H3.414l2.293-2.293C5.888,11.526,6,11.276,6,11z
				 M15,0h-4c-0.553,0-1,0.447-1,1c0,0.552,0.447,1,1,1h1.586l-2.293,2.293C10.112,4.474,10,4.724,10,5c0,0.552,0.447,1,1,1
				c0.276,0,0.526-0.112,0.707-0.293L14,3.414V5c0,0.552,0.447,1,1,1s1-0.448,1-1V1C16,0.447,15.553,0,15,0z"/>
		</g>
	</g>
</g>
<g id="Row_4_1_">
</g>
<g id="Row_3_1_">
</g>
<g id="Row_2_1_">
</g>
<g id="Row_1_1_">
</g>
</svg>
