<?xml version="1.0" encoding="utf-8"?>
<!-- Generator: Adobe Illustrator 16.0.0, SVG Export Plug-In . SVG Version: 6.00 Build 0)  -->
<!DOCTYPE svg PUBLIC "-//W3C//DTD SVG 1.1//EN" "http://www.w3.org/Graphics/SVG/1.1/DTD/svg11.dtd">
<svg version="1.1" xmlns="http://www.w3.org/2000/svg" xmlns:xlink="http://www.w3.org/1999/xlink" x="0px" y="0px" width="16px"
	 height="16px" viewBox="0 0 16 16" enable-background="new 0 0 16 16" xml:space="preserve">
<g id="Background_xA0_Image_1_">
</g>
<g id="Row_5_1_">
</g>
<g id="Row_4_1_">
</g>
<g id="Row_3_1_">
</g>
<g id="Row_2_1_">
</g>
<g id="Row_1_1_">
	<g id="feather">
		<g>
			<path fill="#212121" d="M14.554,1.446c-1.928-1.928-5.053-1.928-6.981,0L3.288,5.735C2.922,6.101,3.009,7.01,3.009,7.01v4.586
				l-2.72,2.718c-0.386,0.386-0.386,1.011,0,1.397c0.386,0.385,1.011,0.385,1.396,0l2.716-2.714h4.606c0,0,0.933,0.05,1.262-0.279
				l4.284-4.289C16.481,6.5,16.481,3.375,14.554,1.446z M13.157,7.032l-4.149,3.969h-2.61l4.967-4.966
				c0.386-0.386,0.386-1.01,0-1.396c-0.385-0.386-1.011-0.386-1.396,0L5.009,9.597V7.01l3.96-4.167c1.156-1.157,3.032-1.157,4.188,0
				C14.314,4,14.314,5.876,13.157,7.032z"/>
		</g>
	</g>
</g>
</svg>
