<?xml version="1.0" encoding="utf-8"?>
<!-- Generator: Adobe Illustrator 16.0.0, SVG Export Plug-In . SVG Version: 6.00 Build 0)  -->
<!DOCTYPE svg PUBLIC "-//W3C//DTD SVG 1.1//EN" "http://www.w3.org/Graphics/SVG/1.1/DTD/svg11.dtd">
<svg version="1.1" xmlns="http://www.w3.org/2000/svg" xmlns:xlink="http://www.w3.org/1999/xlink" x="0px" y="0px" width="16px"
	 height="16px" viewBox="0 0 16 16" enable-background="new 0 0 16 16" xml:space="preserve">
<g id="Background_xA0_Image_1_">
</g>
<g id="Row_5_1_">
</g>
<g id="Row_4_1_">
</g>
<g id="Row_3_1_">
</g>
<g id="Row_2_1_">
	<g id="landscape">
		<g>
			<path fill="#212121" d="M5.991,4c0-1.657-1.341-3-2.996-3C1.341,1,0,2.343,0,4s1.341,3,2.995,3C4.65,7,5.991,5.657,5.991,4z
				 M1.997,4c0-0.553,0.446-1,0.998-1s0.999,0.447,0.999,1S3.547,5,2.995,5S1.997,4.553,1.997,4z M15.721,11.354L12.672,8.26
				c-0.371-0.377-0.976-0.377-1.349,0l-2.318,2.354L7.679,9.26c-0.371-0.376-0.976-0.376-1.349,0l-4.047,4.094
				c-0.372,0.377-0.372,0.987,0,1.364c0.373,0.377,0.978,0.377,1.35,0l3.372-3.411l1.06,1.088c0.047,0.117,0.117,0.229,0.211,0.323
				c0.199,0.202,0.466,0.287,0.728,0.272c0.261,0.015,0.526-0.07,0.726-0.272c0.094-0.094,0.164-0.203,0.21-0.319l2.06-2.092
				l2.374,2.411c0.372,0.377,0.976,0.377,1.349,0C16.093,12.341,16.093,11.73,15.721,11.354z"/>
		</g>
	</g>
</g>
<g id="Row_1_1_">
</g>
</svg>
