<?xml version="1.0" encoding="utf-8"?>
<!-- Generator: Adobe Illustrator 16.0.0, SVG Export Plug-In . SVG Version: 6.00 Build 0)  -->
<!DOCTYPE svg PUBLIC "-//W3C//DTD SVG 1.1//EN" "http://www.w3.org/Graphics/SVG/1.1/DTD/svg11.dtd">
<svg version="1.1" xmlns="http://www.w3.org/2000/svg" xmlns:xlink="http://www.w3.org/1999/xlink" x="0px" y="0px" width="16px"
	 height="16px" viewBox="0 0 16 16" enable-background="new 0 0 16 16" xml:space="preserve">
<g id="Background_xA0_Image_1_">
</g>
<g id="Row_5_1_">
</g>
<g id="Row_4_1_">
</g>
<g id="Row_3_1_">
</g>
<g id="Row_2_1_">
</g>
<g id="Row_1_1_">
	<g id="lightbulb">
		<g>
			<path fill="#212121" d="M8,0C5.238,0,3,2.066,3,4.615c0,2.233,3,4.563,3,6.462V12c0,0.553,0.447,1,1,1h2c0.553,0,1-0.447,1-1
				v-0.923c0-1.985,3-4.229,3-6.462C13,2.066,10.762,0,8,0z M9.125,8.308L8,10.154L6.844,8.308C6.844,8.264,5,6.061,5,4.687
				c0-1.568,1.343-2.841,3-2.841s3,1.272,3,2.841C11,6.061,9.125,8.211,9.125,8.308z M9,14H7c-0.553,0-1,0.447-1,1s0.447,1,1,1h2
				c0.553,0,1-0.447,1-1S9.553,14,9,14z"/>
		</g>
	</g>
</g>
</svg>
