<?xml version="1.0" encoding="utf-8"?>
<!-- Generator: Adobe Illustrator 16.0.0, SVG Export Plug-In . SVG Version: 6.00 Build 0)  -->
<!DOCTYPE svg PUBLIC "-//W3C//DTD SVG 1.1//EN" "http://www.w3.org/Graphics/SVG/1.1/DTD/svg11.dtd">
<svg version="1.1" xmlns="http://www.w3.org/2000/svg" xmlns:xlink="http://www.w3.org/1999/xlink" x="0px" y="0px" width="16px"
	 height="16px" viewBox="0 0 16 16" enable-background="new 0 0 16 16" xml:space="preserve">
<g id="Background_xA0_Image_1_">
</g>
<g id="Row_5_1_">
</g>
<g id="Row_4_1_">
</g>
<g id="Row_3_1_">
	<g id="link">
		<g>
			<path fill="#212121" d="M15.111,0.886c-1.166-1.164-3.069-1.199-4.271,0L5.855,5.854c-0.678,0.675-0.772,2.068,0,2.839
				c0.39,0.388,1.023,0.399,1.424,0c0.401-0.4,0.39-1.033,0-1.419c-0.027-0.029,0.713-0.71,0.713-0.71l4.271-4.259
				c0.401-0.399,1.035-0.387,1.424,0c0.39,0.388,0.401,1.021,0,1.42l-2.136,2.129c-0.401,0.4-0.39,1.031,0,1.419
				c0.389,0.388,1.022,0.4,1.424,0l2.136-2.129C16.314,3.945,16.278,2.049,15.111,0.886z M8.704,7.274
				c-0.395,0.415-0.394,1.028,0,1.419C8.768,8.758,7.98,9.392,7.992,9.402L3.72,13.661c-0.394,0.415-1.043,0.403-1.424,0
				c-0.382-0.403-0.394-1.005,0-1.42l2.136-2.129c0.394-0.415,0.382-1.017,0-1.419c-0.381-0.403-1.03-0.415-1.424,0l-2.136,2.129
				c-1.181,1.244-1.144,3.049,0,4.259c1.143,1.208,3.092,1.243,4.271,0l4.984-4.969c0.689-0.688,0.686-2.155,0-2.838
				C9.734,6.882,9.098,6.859,8.704,7.274z"/>
		</g>
	</g>
</g>
<g id="Row_2_1_">
</g>
<g id="Row_1_1_">
</g>
</svg>
