<?xml version="1.0" encoding="utf-8"?>
<!-- Generator: Adobe Illustrator 16.0.0, SVG Export Plug-In . SVG Version: 6.00 Build 0)  -->
<!DOCTYPE svg PUBLIC "-//W3C//DTD SVG 1.1//EN" "http://www.w3.org/Graphics/SVG/1.1/DTD/svg11.dtd">
<svg version="1.1" xmlns="http://www.w3.org/2000/svg" xmlns:xlink="http://www.w3.org/1999/xlink" x="0px" y="0px" width="16px"
	 height="16px" viewBox="0 0 16 16" enable-background="new 0 0 16 16" xml:space="preserve">
<g id="Background_xA0_Image_1_">
</g>
<g id="Row_5_1_">
</g>
<g id="Row_4_1_">
	<g id="location">
		<g>
			<path fill="#212121" d="M8,4C6.896,4,6,4.896,6,6s0.896,2,2,2s2-0.896,2-2S9.104,4,8,4z M8,0C3.93,0,2,2.997,2,6
				c0,3.954,5.071,9.313,5.071,9.371l0.003-0.001C7.223,15.738,7.579,16,8,16s0.777-0.262,0.925-0.63l0.004,0.001
				C8.891,15.409,14,9.981,14,6C14,3.135,12.001,0,8,0z M8,13c-0.103,0-4-4.955-4-7c0-2.025,1.898-4,4-4c2.009,0,4,1.924,4,4
				C12,8.042,8.006,13,8,13z"/>
		</g>
	</g>
</g>
<g id="Row_3_1_">
</g>
<g id="Row_2_1_">
</g>
<g id="Row_1_1_">
</g>
</svg>
