<?xml version="1.0" encoding="utf-8"?>
<!-- Generator: Adobe Illustrator 16.0.0, SVG Export Plug-In . SVG Version: 6.00 Build 0)  -->
<!DOCTYPE svg PUBLIC "-//W3C//DTD SVG 1.1//EN" "http://www.w3.org/Graphics/SVG/1.1/DTD/svg11.dtd">
<svg version="1.1" xmlns="http://www.w3.org/2000/svg" xmlns:xlink="http://www.w3.org/1999/xlink" x="0px" y="0px" width="16px"
	 height="16px" viewBox="0 0 16 16" enable-background="new 0 0 16 16" xml:space="preserve">
<g id="Background_xA0_Image_1_">
</g>
<g id="Row_5_1_">
	<g id="mail">
		<g>
			<path fill="#212121" d="M15,2H1C0.447,2,0,2.447,0,3v10c0,0.552,0.447,1,1,1h14c0.553,0,1-0.448,1-1V3C16,2.447,15.553,2,15,2z
				 M11.88,4L8,6.771L4.12,4H11.88z M14,12H2V4.943l5.419,3.87L7.43,8.799C7.593,8.916,7.783,9,8,9s0.407-0.084,0.57-0.201
				l0.011,0.015L14,4.943V12z"/>
		</g>
	</g>
</g>
<g id="Row_4_1_">
</g>
<g id="Row_3_1_">
</g>
<g id="Row_2_1_">
</g>
<g id="Row_1_1_">
</g>
</svg>
