<?xml version="1.0" encoding="utf-8"?>
<!-- Generator: Adobe Illustrator 16.0.0, SVG Export Plug-In . SVG Version: 6.00 Build 0)  -->
<!DOCTYPE svg PUBLIC "-//W3C//DTD SVG 1.1//EN" "http://www.w3.org/Graphics/SVG/1.1/DTD/svg11.dtd">
<svg version="1.1" xmlns="http://www.w3.org/2000/svg" xmlns:xlink="http://www.w3.org/1999/xlink" x="0px" y="0px" width="16px"
	 height="16px" viewBox="0 0 16 16" enable-background="new 0 0 16 16" xml:space="preserve">
<g id="Background_xA0_Image_1_">
</g>
<g id="Row_5_1_">
</g>
<g id="Row_4_1_">
</g>
<g id="Row_3_1_">
</g>
<g id="Row_2_1_">
</g>
<g id="Row_1_1_">
	<g id="paper_plane">
		<g>
			<path fill="#212121" d="M16,1c0-0.553-0.447-1-1-1c-0.161,0-0.308,0.047-0.442,0.114l-0.005-0.009l-14,7l0.005,0.009
				C0.23,7.279,0,7.609,0,8c0,0.553,0.447,1,1,1h6v6c0,0.553,0.447,1,1,1c0.391,0,0.721-0.23,0.886-0.558l0.009,0.005l7-14
				l-0.011-0.006C15.953,1.309,16,1.161,16,1z M9,10.764V8c0-0.553-0.447-1-1-1H5.236l7.527-3.764L9,10.764z"/>
		</g>
	</g>
</g>
</svg>
