<?xml version="1.0" encoding="utf-8"?>
<!-- Generator: Adobe Illustrator 16.0.0, SVG Export Plug-In . SVG Version: 6.00 Build 0)  -->
<!DOCTYPE svg PUBLIC "-//W3C//DTD SVG 1.1//EN" "http://www.w3.org/Graphics/SVG/1.1/DTD/svg11.dtd">
<svg version="1.1" xmlns="http://www.w3.org/2000/svg" xmlns:xlink="http://www.w3.org/1999/xlink" x="0px" y="0px" width="16px"
	 height="16px" viewBox="0 0 16 16" enable-background="new 0 0 16 16" xml:space="preserve">
<g id="Background_xA0_Image_1_">
</g>
<g id="Row_5_1_">
</g>
<g id="Row_4_1_">
</g>
<g id="Row_3_1_">
</g>
<g id="Row_2_1_">
</g>
<g id="Row_1_1_">
	<g id="printer">
		<g>
			<path fill="#212121" d="M15,3h-3V1c0-0.553-0.447-1-1-1H5C4.447,0,4,0.447,4,1v2H1C0.447,3,0,3.447,0,4v6c0,0.553,0.447,1,1,1h3
				v4c0,0.553,0.447,1,1,1h6c0.553,0,1-0.447,1-1v-4h3c0.553,0,1-0.447,1-1V4C16,3.447,15.553,3,15,3z M6,2h4v1H6V2z M10,14H6V9h4
				V14z M14,9h-2V8c0-0.553-0.447-1-1-1H5C4.447,7,4,7.447,4,8v1H2V5h12V9z"/>
		</g>
	</g>
</g>
</svg>
