<?xml version="1.0" encoding="utf-8"?>
<!-- Generator: Adobe Illustrator 16.0.0, SVG Export Plug-In . SVG Version: 6.00 Build 0)  -->
<!DOCTYPE svg PUBLIC "-//W3C//DTD SVG 1.1//EN" "http://www.w3.org/Graphics/SVG/1.1/DTD/svg11.dtd">
<svg version="1.1" xmlns="http://www.w3.org/2000/svg" xmlns:xlink="http://www.w3.org/1999/xlink" x="0px" y="0px" width="16px"
	 height="16px" viewBox="0 0 16 16" enable-background="new 0 0 16 16" xml:space="preserve">
<g id="Background_xA0_Image_1_">
</g>
<g id="Row_5_1_">
</g>
<g id="Row_4_1_">
</g>
<g id="Row_3_1_">
</g>
<g id="Row_2_1_">
	<g id="shuffle">
		<g>
			<path fill="#212121" d="M1,6h3.586l0.606,0.606l0.02-0.02C5.395,6.831,5.672,7,6,7c0.553,0,1-0.447,1-1
				c0-0.328-0.169-0.605-0.413-0.788l0.02-0.02L5.707,4.293C5.526,4.112,5.276,4,5,4H1C0.447,4,0,4.447,0,5S0.447,6,1,6z M15,6
				c0.553,0,1-0.447,1-1s-0.447-1-1-1h-4c-0.276,0-0.526,0.112-0.707,0.293L4.586,10H1c-0.553,0-1,0.447-1,1s0.447,1,1,1h4
				c0.276,0,0.526-0.112,0.707-0.293L11.414,6H15z M15,10h-3.586L10.85,9.435l-0.028,0.028C10.643,9.19,10.35,9,10,9
				c-0.553,0-1,0.447-1,1c0,0.35,0.19,0.643,0.463,0.821L9.435,10.85l0.858,0.857C10.474,11.888,10.724,12,11,12h4
				c0.553,0,1-0.447,1-1S15.553,10,15,10z"/>
		</g>
	</g>
</g>
<g id="Row_1_1_">
</g>
</svg>
