<?xml version="1.0" encoding="utf-8"?>
<!-- Generator: Adobe Illustrator 16.0.0, SVG Export Plug-In . SVG Version: 6.00 Build 0)  -->
<!DOCTYPE svg PUBLIC "-//W3C//DTD SVG 1.1//EN" "http://www.w3.org/Graphics/SVG/1.1/DTD/svg11.dtd">
<svg version="1.1" xmlns="http://www.w3.org/2000/svg" xmlns:xlink="http://www.w3.org/1999/xlink" x="0px" y="0px" width="16px"
	 height="16px" viewBox="0 0 16 16" enable-background="new 0 0 16 16" xml:space="preserve">
<g id="Background_xA0_Image_1_">
</g>
<g id="Row_5_1_">
</g>
<g id="Row_4_1_">
</g>
<g id="Row_3_1_">
</g>
<g id="Row_2_1_">
</g>
<g id="Row_1_1_">
	<g id="smiley">
		<g>
			<path fill="#212121" d="M5,7c0.553,0,1-0.447,1-1S5.553,5,5,5S4,5.447,4,6S4.447,7,5,7z M11,9c0,0-2.031,1-3,1c-1.031,0-3-1-3-1
				c-0.49-0.281-1,0.447-1,1s0.666,0.781,1,1c0,0,0.979,1,2.969,1C10.011,12,11,11,11,11c0.459-0.25,1-0.447,1-1S11.553,8.781,11,9z
				 M11,5c-0.553,0-1,0.447-1,1s0.447,1,1,1s1-0.447,1-1S11.553,5,11,5z M8,0C3.582,0,0,3.582,0,8s3.582,8,8,8s8-3.582,8-8
				S12.418,0,8,0z M8,14c-3.313,0-6-2.687-6-6s2.687-6,6-6s6,2.687,6,6S11.313,14,8,14z"/>
		</g>
	</g>
</g>
</svg>
