<?xml version="1.0" encoding="utf-8"?>
<!-- Generator: Adobe Illustrator 16.0.0, SVG Export Plug-In . SVG Version: 6.00 Build 0)  -->
<!DOCTYPE svg PUBLIC "-//W3C//DTD SVG 1.1//EN" "http://www.w3.org/Graphics/SVG/1.1/DTD/svg11.dtd">
<svg version="1.1" xmlns="http://www.w3.org/2000/svg" xmlns:xlink="http://www.w3.org/1999/xlink" x="0px" y="0px" width="16px"
	 height="16px" viewBox="0 0 16 16" enable-background="new 0 0 16 16" xml:space="preserve">
<g id="Background_xA0_Image_1_">
</g>
<g id="Row_5_1_">
	<g id="wi-fi">
		<g>
			<path fill="#212121" d="M8,13c-0.561,0-1.015,0.447-1.015,1c0,0.552,0.454,1,1.015,1s1.015-0.448,1.015-1
				C9.015,13.447,8.561,13,8,13z M4.528,10.369l1.154,1.706C6.24,11.423,7.066,11,8,11s1.76,0.423,2.318,1.075l1.154-1.706
				C10.563,9.525,9.347,9,8,9S5.437,9.525,4.528,10.369z M8,1C4.988,1,2.221,2.005,0,3.679l1.126,1.664C3.022,3.88,5.405,3,8,3
				s4.978,0.88,6.874,2.343L16,3.679C13.779,2.005,11.012,1,8,1z M2.253,7.008l1.148,1.696C4.644,7.656,6.236,7,8,7
				s3.356,0.656,4.599,1.704l1.148-1.696C12.177,5.754,10.179,5,8,5S3.823,5.754,2.253,7.008z"/>
		</g>
	</g>
</g>
<g id="Row_4_1_">
</g>
<g id="Row_3_1_">
</g>
<g id="Row_2_1_">
</g>
<g id="Row_1_1_">
</g>
</svg>
