<?xml version="1.0" encoding="utf-8"?>
<!-- Generator: Adobe Illustrator 16.0.0, SVG Export Plug-In . SVG Version: 6.00 Build 0)  -->
<!DOCTYPE svg PUBLIC "-//W3C//DTD SVG 1.1//EN" "http://www.w3.org/Graphics/SVG/1.1/DTD/svg11.dtd">
<svg version="1.1" xmlns="http://www.w3.org/2000/svg" xmlns:xlink="http://www.w3.org/1999/xlink" x="0px" y="0px"
	 width="16.003px" height="16px" viewBox="0 0 16.003 16" enable-background="new 0 0 16.003 16" xml:space="preserve">
<g id="Layer_0_xA0_Image_1_">
</g>
<g id="Row_5_1_">
</g>
<g id="Row_4_1_">
</g>
<g id="Row_3_1_">
</g>
<g id="Row_2_1_">
</g>
<g id="Row_1_1_">
	<g id="ahead_and_right_only">
		<g>
			<path fill="#212121" d="M13.71,9.293l-3-3C10.53,6.112,10.28,6,10.003,6c-0.553,0-1,0.447-1,1c0,0.276,0.112,0.526,0.293,0.707
				L10.589,9H7.003V3.414l1.293,1.293C8.477,4.888,8.727,5,9.003,5c0.553,0,1-0.447,1-1c0-0.276-0.112-0.526-0.293-0.707l-3-3
				C6.529,0.112,6.279,0,6.003,0S5.477,0.112,5.296,0.293l-3,3C2.115,3.474,2.003,3.724,2.003,4c0,0.553,0.447,1,1,1
				C3.279,5,3.529,4.888,3.71,4.707l1.293-1.293V15c0,0.553,0.447,1,1,1s1-0.447,1-1v-4h3.586l-1.293,1.293
				C9.116,12.474,9.003,12.724,9.003,13c0,0.553,0.447,1,1,1c0.276,0,0.526-0.112,0.707-0.293l3-3
				c0.181-0.181,0.293-0.431,0.293-0.707S13.891,9.474,13.71,9.293z"/>
		</g>
	</g>
</g>
</svg>
