<?xml version="1.0" encoding="utf-8"?>
<!-- Generator: Adobe Illustrator 16.0.0, SVG Export Plug-In . SVG Version: 6.00 Build 0)  -->
<!DOCTYPE svg PUBLIC "-//W3C//DTD SVG 1.1//EN" "http://www.w3.org/Graphics/SVG/1.1/DTD/svg11.dtd">
<svg version="1.1" xmlns="http://www.w3.org/2000/svg" xmlns:xlink="http://www.w3.org/1999/xlink" x="0px" y="0px" width="16px"
	 height="16px" viewBox="0 0 16 16" enable-background="new 0 0 16 16" xml:space="preserve">
<g id="Layer_0_xA0_Image_1_">
</g>
<g id="Row_5_1_">
</g>
<g id="Row_4_1_">
</g>
<g id="Row_3_1_">
</g>
<g id="Row_2_1_">
</g>
<g id="Row_1_1_">
	<g id="arc_de_triomphe">
		<g>
			<path fill="#212121" d="M15,4V3c0.553,0,1-0.447,1-1s-0.447-1-1-1c0-0.553-0.447-1-1-1H2C1.447,0,1,0.447,1,1
				C0.447,1,0,1.447,0,2s0.447,1,1,1v1C0.447,4,0,4.447,0,5s0.447,1,1,1v9c0,0.553,0.447,1,1,1h3c0.553,0,1-0.447,1-1v-5
				c0-1.104,0.896-2,2-2s2,0.896,2,2v5c0,0.553,0.447,1,1,1h3c0.553,0,1-0.447,1-1V6c0.553,0,1-0.447,1-1S15.553,4,15,4z M13,4h-2
				c-0.553,0-1,0.447-1,1s0.447,1,1,1h2v8h-1v-4c0-2.209-1.791-4-4-4s-4,1.791-4,4v4H3V6h2c0.553,0,1-0.447,1-1S5.553,4,5,4H3V3h10
				V4z"/>
		</g>
	</g>
</g>
</svg>
