<?xml version="1.0" encoding="utf-8"?>
<!-- Generator: Adobe Illustrator 16.0.0, SVG Export Plug-In . SVG Version: 6.00 Build 0)  -->
<!DOCTYPE svg PUBLIC "-//W3C//DTD SVG 1.1//EN" "http://www.w3.org/Graphics/SVG/1.1/DTD/svg11.dtd">
<svg version="1.1" xmlns="http://www.w3.org/2000/svg" xmlns:xlink="http://www.w3.org/1999/xlink" x="0px" y="0px"
	 width="16.001px" height="16px" viewBox="0 0 16.001 16" enable-background="new 0 0 16.001 16" xml:space="preserve">
<g id="Layer_0_xA0_Image_1_">
</g>
<g id="Row_5_1_">
</g>
<g id="Row_4_1_">
	<g id="attention">
		<g>
			<path fill="#212121" d="M7,6v1.001c0,0.553,0.447,1,1,1s1-0.447,1-1V6c0-0.553-0.447-1-1-1S7,5.447,7,6z M3.758,3.758
				c0.39-0.391,0.39-1.024,0-1.415c-0.391-0.391-1.024-0.391-1.415,0c-3.124,3.125-3.124,8.19,0,11.315
				c0.391,0.39,1.024,0.39,1.415,0c0.39-0.391,0.39-1.024,0-1.415C1.414,9.9,1.414,6.102,3.758,3.758z M13.657,2.343
				c-0.391-0.391-1.024-0.391-1.415,0c-0.39,0.391-0.39,1.024,0,1.415c2.344,2.344,2.344,6.143,0,8.485
				c-0.39,0.391-0.39,1.024,0,1.415c0.391,0.39,1.024,0.39,1.415,0C16.781,10.533,16.781,5.468,13.657,2.343z M9,10.001
				c0-0.553-0.447-1-1-1s-1,0.447-1,1s0.447,1,1,1S9,10.554,9,10.001z M8,3C5.238,3,3,5.238,3,8.001c0,2.762,2.238,5,5,5
				s5-2.238,5-5C13,5.238,10.762,3,8,3z M8,11.001c-1.657,0-3-1.343-3-3S6.343,5,8,5s3,1.344,3,3.001S9.657,11.001,8,11.001z"/>
		</g>
	</g>
</g>
<g id="Row_3_1_">
</g>
<g id="Row_2_1_">
</g>
<g id="Row_1_1_">
</g>
</svg>
