<?xml version="1.0" encoding="utf-8"?>
<!-- Generator: Adobe Illustrator 16.0.0, SVG Export Plug-In . SVG Version: 6.00 Build 0)  -->
<!DOCTYPE svg PUBLIC "-//W3C//DTD SVG 1.1//EN" "http://www.w3.org/Graphics/SVG/1.1/DTD/svg11.dtd">
<svg version="1.1" xmlns="http://www.w3.org/2000/svg" xmlns:xlink="http://www.w3.org/1999/xlink" x="0px" y="0px" width="16px"
	 height="16px" viewBox="0 0 16 16" enable-background="new 0 0 16 16" xml:space="preserve">
<g id="Layer_0_xA0_Image_1_">
</g>
<g id="Row_5_1_">
</g>
<g id="Row_4_1_">
</g>
<g id="Row_3_1_">
</g>
<g id="Row_2_1_">
	<g id="benoculars">
		<g>
			<path fill="#212121" d="M14,5h-0.323l-1.748-4.371L11.925,0.63C11.777,0.262,11.42,0,11,0H9C8.447,0,8,0.447,8,1
				c0-0.553-0.447-1-1-1H5C4.579,0,4.222,0.262,4.074,0.63L4.071,0.629L2.323,5H2C1.447,5,1,5.447,1,6v7c0,1.657,1.343,3,3,3
				s3-1.343,3-3v-3h2v3c0,1.657,1.343,3,3,3c1.657,0,3-1.343,3-3V6C15,5.447,14.553,5,14,5z M4,14c-0.553,0-1-0.447-1-1s0.447-1,1-1
				s1,0.447,1,1S4.552,14,4,14z M5,10.184C4.685,10.072,4.352,10,4,10s-0.686,0.072-1,0.184V7h2V10.184z M6,5H4.476l1.2-3H6V5z M9,8
				H7V6h2V8z M10,2h0.323l1.2,3H10V2z M12,14c-0.553,0-1-0.447-1-1s0.447-1,1-1c0.553,0,1,0.447,1,1S12.553,14,12,14z M13,10.184
				C12.686,10.072,12.353,10,12,10c-0.353,0-0.686,0.072-1,0.184V7h2V10.184z"/>
		</g>
	</g>
</g>
<g id="Row_1_1_">
</g>
</svg>
