<?xml version="1.0" encoding="utf-8"?>
<!-- Generator: Adobe Illustrator 16.0.0, SVG Export Plug-In . SVG Version: 6.00 Build 0)  -->
<!DOCTYPE svg PUBLIC "-//W3C//DTD SVG 1.1//EN" "http://www.w3.org/Graphics/SVG/1.1/DTD/svg11.dtd">
<svg version="1.1" xmlns="http://www.w3.org/2000/svg" xmlns:xlink="http://www.w3.org/1999/xlink" x="0px" y="0px" width="16px"
	 height="16px" viewBox="0 0 16 16" enable-background="new 0 0 16 16" xml:space="preserve">
<g id="Layer_0_xA0_Image_1_">
</g>
<g id="Row_5_1_">
	<g id="bicycle">
		<g>
			<path fill="#212121" d="M13.813,9.125L11.97,1.758l-0.018,0.004C11.843,1.328,11.468,1,11,1H9C8.447,1,8,1.447,8,2s0.447,1,1,1
				h1.219l0.5,2H4C3.447,5,3,5.447,3,6c0,0.236,0.094,0.444,0.23,0.615l-0.012,0.01l4,5l0.012-0.01C7.414,11.844,7.684,12,8,12
				c0.363,0,0.668-0.204,0.843-0.494l0.015,0.009l2.464-4.106l0.463,1.854C10.734,9.729,10,10.776,10,12c0,1.657,1.343,3,3,3
				s3-1.343,3-3C16,10.627,15.072,9.481,13.813,9.125z M7.883,9.252L6.081,7h3.152L7.883,9.252z M13,13c-0.553,0-1-0.447-1-1
				s0.447-1,1-1s1,0.447,1,1S13.553,13,13,13z M3,9c-1.657,0-3,1.343-3,3s1.343,3,3,3s3-1.343,3-3S4.657,9,3,9z M3,13
				c-0.553,0-1-0.447-1-1s0.447-1,1-1s1,0.447,1,1S3.553,13,3,13z"/>
		</g>
	</g>
</g>
<g id="Row_4_1_">
</g>
<g id="Row_3_1_">
</g>
<g id="Row_2_1_">
</g>
<g id="Row_1_1_">
</g>
</svg>
