<?xml version="1.0" encoding="utf-8"?>
<!-- Generator: Adobe Illustrator 16.0.0, SVG Export Plug-In . SVG Version: 6.00 Build 0)  -->
<!DOCTYPE svg PUBLIC "-//W3C//DTD SVG 1.1//EN" "http://www.w3.org/Graphics/SVG/1.1/DTD/svg11.dtd">
<svg version="1.1" xmlns="http://www.w3.org/2000/svg" xmlns:xlink="http://www.w3.org/1999/xlink" x="0px" y="0px" width="16px"
	 height="16px" viewBox="0 0 16 16" enable-background="new 0 0 16 16" xml:space="preserve">
<g id="Layer_0_xA0_Image_1_">
</g>
<g id="Row_5_1_">
</g>
<g id="Row_4_1_">
</g>
<g id="Row_3_1_">
</g>
<g id="Row_2_1_">
	<g id="bus">
		<g>
			<path fill="#212121" d="M13,1.5H3c-1.657,0-3,1.343-3,3v7c0,0.553,0.447,1,1,1h1c0,1.104,0.896,2,2,2s2-0.896,2-2h4
				c0,1.104,0.896,2,2,2s2-0.896,2-2h1c0.553,0,1-0.447,1-1v-7C16,2.843,14.657,1.5,13,1.5z M2,4.5c0-0.553,0.447-1,1-1h2v2H2V4.5z
				 M10,10.5H2v-3h8V10.5z M10,5.5H7v-2h3V5.5z M14,10.5h-2v-3h2V10.5z M14,5.5h-2v-2h1c0.553,0,1,0.447,1,1V5.5z"/>
		</g>
	</g>
</g>
<g id="Row_1_1_">
</g>
</svg>
