<?xml version="1.0" encoding="utf-8"?>
<!-- Generator: Adobe Illustrator 16.0.0, SVG Export Plug-In . SVG Version: 6.00 Build 0)  -->
<!DOCTYPE svg PUBLIC "-//W3C//DTD SVG 1.1//EN" "http://www.w3.org/Graphics/SVG/1.1/DTD/svg11.dtd">
<svg version="1.1" xmlns="http://www.w3.org/2000/svg" xmlns:xlink="http://www.w3.org/1999/xlink" x="0px" y="0px" width="16px"
	 height="16px" viewBox="0 0 16 16" enable-background="new 0 0 16 16" xml:space="preserve">
<g id="Layer_0_xA0_Image_1_">
</g>
<g id="Row_5_1_">
</g>
<g id="Row_4_1_">
</g>
<g id="Row_3_1_">
</g>
<g id="Row_2_1_">
	<g id="calendar_x2F_schedule">
		<g>
			<path fill="#212121" d="M12,12c0.553,0,1-0.447,1-1s-0.447-1-1-1c0,0-1,0.018-1,1S12,12,12,12z M8,12c0.553,0,1-0.447,1-1
				s-0.447-1-1-1s-1,0.447-1,1S7.447,12,8,12z M4,12c0.553,0,1-0.447,1-1s-0.447-1-1-1c0,0-1,0.018-1,1S4,12,4,12z M15,3h-2V2
				c0-0.553-0.447-1-1-1s-1,0.447-1,1v1H9V2c0-0.553-0.447-1-1-1S7,1.447,7,2v1H5V2c0-0.553-0.447-1-1-1S3,1.447,3,2v1H1
				C0.447,3,0,3.447,0,4v10c0,0.553,0.447,1,1,1h14c0.553,0,1-0.447,1-1V4C16,3.447,15.553,3,15,3z M14,13H2V9h12V13z M14,7H2V5h1
				c0,0.553,0.447,1,1,1s1-0.447,1-1h2c0,0.553,0.447,1,1,1s1-0.447,1-1h2c0,0.553,0.447,1,1,1s1-0.447,1-1h1V7z"/>
		</g>
	</g>
</g>
<g id="Row_1_1_">
</g>
</svg>
