<?xml version="1.0" encoding="utf-8"?>
<!-- Generator: Adobe Illustrator 16.0.0, SVG Export Plug-In . SVG Version: 6.00 Build 0)  -->
<!DOCTYPE svg PUBLIC "-//W3C//DTD SVG 1.1//EN" "http://www.w3.org/Graphics/SVG/1.1/DTD/svg11.dtd">
<svg version="1.1" xmlns="http://www.w3.org/2000/svg" xmlns:xlink="http://www.w3.org/1999/xlink" x="0px" y="0px" width="16px"
	 height="16px" viewBox="0 0 16 16" enable-background="new 0 0 16 16" xml:space="preserve">
<g id="Layer_0_xA0_Image_1_">
</g>
<g id="Row_5_1_">
</g>
<g id="Row_4_1_">
</g>
<g id="Row_3_1_">
</g>
<g id="Row_2_1_">
	<g id="car_front">
		<g>
			<path fill="#212121" d="M13,5V4c0-1.657-1.343-3-3-3H6C4.343,1,3,2.343,3,4v1C1.343,5,0,6.343,0,8v4c0,0.553,0.447,1,1,1h1v1
				c0,0.553,0.447,1,1,1s1-0.447,1-1v-1h8v1c0,0.553,0.447,1,1,1s1-0.447,1-1v-1h1c0.553,0,1-0.447,1-1V8C16,6.343,14.657,5,13,5z
				 M5,4c0-0.553,0.447-1,1-1h4c0.553,0,1,0.447,1,1v1H5V4z M14,11H2V8c0-0.553,0.447-1,1-1h10c0.553,0,1,0.447,1,1V11z M4,8
				C3.447,8,3,8.447,3,9s0.447,1,1,1s1-0.447,1-1S4.553,8,4,8z M12,8c-0.553,0-1,0.447-1,1s0.447,1,1,1s1-0.447,1-1S12.553,8,12,8z"
				/>
		</g>
	</g>
</g>
<g id="Row_1_1_">
</g>
</svg>
