<?xml version="1.0" encoding="utf-8"?>
<!-- Generator: Adobe Illustrator 16.0.0, SVG Export Plug-In . SVG Version: 6.00 Build 0)  -->
<!DOCTYPE svg PUBLIC "-//W3C//DTD SVG 1.1//EN" "http://www.w3.org/Graphics/SVG/1.1/DTD/svg11.dtd">
<svg version="1.1" xmlns="http://www.w3.org/2000/svg" xmlns:xlink="http://www.w3.org/1999/xlink" x="0px" y="0px" width="16px"
	 height="16px" viewBox="0 0 16 16" enable-background="new 0 0 16 16" xml:space="preserve">
<g id="Layer_0_xA0_Image_1_">
</g>
<g id="Row_5_1_">
</g>
<g id="Row_4_1_">
</g>
<g id="Row_3_1_">
</g>
<g id="Row_2_1_">
</g>
<g id="Row_1_1_">
	<g id="chrysler_building">
		<g>
			<path fill="#212121" d="M12,9.027V8c0-1.515-0.852-2.816-2.093-3.496L8.97,0.758L8.952,0.762C8.843,0.328,8.468,0,8,0
				S7.157,0.328,7.048,0.762L7.03,0.758L6.09,4.517C4.85,5.191,4,6.487,4,8v1.027C3.38,9.86,3,10.882,3,12v3c0,0.553,0.447,1,1,1h8
				c0.553,0,1-0.447,1-1v-3C13,10.882,12.62,9.86,12,9.027z M8,6c0.885,0,1.627,0.579,1.891,1.376C9.307,7.137,8.67,7,8,7
				S6.693,7.137,6.109,7.376C6.373,6.579,7.115,6,8,6z M11,14H9v-1c0-0.553-0.447-1-1-1s-1,0.447-1,1v1H5v-2c0-1.657,1.343-3,3-3
				s3,1.343,3,3V14z"/>
		</g>
	</g>
</g>
</svg>
