<?xml version="1.0" encoding="utf-8"?>
<!-- Generator: Adobe Illustrator 16.0.0, SVG Export Plug-In . SVG Version: 6.00 Build 0)  -->
<!DOCTYPE svg PUBLIC "-//W3C//DTD SVG 1.1//EN" "http://www.w3.org/Graphics/SVG/1.1/DTD/svg11.dtd">
<svg version="1.1" xmlns="http://www.w3.org/2000/svg" xmlns:xlink="http://www.w3.org/1999/xlink" x="0px" y="0px" width="16px"
	 height="16px" viewBox="0 0 16 16" enable-background="new 0 0 16 16" xml:space="preserve">
<g id="Layer_0_xA0_Image_1_">
</g>
<g id="Row_5_1_">
</g>
<g id="Row_4_1_">
</g>
<g id="Row_3_1_">
	<g id="compass_direction">
		<g>
			<path fill="#212121" d="M8,0C3.582,0,0,3.582,0,8s3.582,8,8,8s8-3.582,8-8S12.418,0,8,0z M8,14c-3.313,0-6-2.687-6-6s2.687-6,6-6
				s6,2.687,6,6S11.313,14,8,14z M10.645,4.065L10.645,4.065l-0.004,0.001c-0.001,0-0.002,0.001-0.002,0.001L3.622,6.874v0.001
				c-0.121,0.048-0.235,0.12-0.334,0.219C2.9,7.481,2.9,8.11,3.288,8.498C3.433,8.643,3.61,8.732,3.796,8.77l2.862,0.572
				l0.572,2.862c0.037,0.186,0.127,0.363,0.271,0.508c0.388,0.388,1.017,0.388,1.404,0c0.099-0.099,0.171-0.213,0.219-0.334h0.001
				l2.807-7.017c0,0,0.001-0.001,0.001-0.002l0.001-0.004c0.143-0.357,0.07-0.781-0.22-1.07C11.426,3.995,11.002,3.923,10.645,4.065
				z M8.522,8.539L8.476,8.304L8.449,8.309c-0.03-0.188-0.1-0.367-0.245-0.513S7.879,7.581,7.691,7.55l0.005-0.025L7.461,7.478
				L9.23,6.77L8.522,8.539z"/>
		</g>
	</g>
</g>
<g id="Row_2_1_">
</g>
<g id="Row_1_1_">
</g>
</svg>
