<?xml version="1.0" encoding="utf-8"?>
<!-- Generator: Adobe Illustrator 16.0.0, SVG Export Plug-In . SVG Version: 6.00 Build 0)  -->
<!DOCTYPE svg PUBLIC "-//W3C//DTD SVG 1.1//EN" "http://www.w3.org/Graphics/SVG/1.1/DTD/svg11.dtd">
<svg version="1.1" xmlns="http://www.w3.org/2000/svg" xmlns:xlink="http://www.w3.org/1999/xlink" x="0px" y="0px" width="16px"
	 height="16px" viewBox="0 0 16 16" enable-background="new 0 0 16 16" xml:space="preserve">
<g id="Layer_0_xA0_Image_1_">
</g>
<g id="Row_5_1_">
</g>
<g id="Row_4_1_">
</g>
<g id="Row_3_1_">
	<g id="compass">
		<g>
			<path fill="#212121" d="M8,0C3.582,0,0,3.582,0,8s3.582,8,8,8s8-3.582,8-8S12.418,0,8,0z M8,14c-3.313,0-6-2.687-6-6s2.687-6,6-6
				s6,2.687,6,6S11.313,14,8,14z M11.709,4.291c-0.29-0.291-0.705-0.364-1.07-0.244l-0.003-0.01L6.185,5.521l0.003,0.011
				c-0.15,0.05-0.294,0.123-0.413,0.243c-0.12,0.119-0.193,0.263-0.243,0.413L5.521,6.185l-1.483,4.451l0.01,0.003
				c-0.12,0.365-0.047,0.78,0.244,1.07c0.29,0.29,0.705,0.364,1.07,0.244l0.003,0.01l4.451-1.483l-0.003-0.011
				c0.15-0.05,0.294-0.123,0.413-0.243c0.12-0.12,0.193-0.263,0.243-0.413l0.011,0.003l1.483-4.451l-0.01-0.003
				C12.073,4.996,11.999,4.581,11.709,4.291z M8.654,8.654L6.691,9.309l0.654-1.963l1.963-0.654L8.654,8.654z"/>
		</g>
	</g>
</g>
<g id="Row_2_1_">
</g>
<g id="Row_1_1_">
</g>
</svg>
