<?xml version="1.0" encoding="utf-8"?>
<!-- Generator: Adobe Illustrator 16.0.0, SVG Export Plug-In . SVG Version: 6.00 Build 0)  -->
<!DOCTYPE svg PUBLIC "-//W3C//DTD SVG 1.1//EN" "http://www.w3.org/Graphics/SVG/1.1/DTD/svg11.dtd">
<svg version="1.1" xmlns="http://www.w3.org/2000/svg" xmlns:xlink="http://www.w3.org/1999/xlink" x="0px" y="0px" width="16px"
	 height="16.001px" viewBox="0 0 16 16.001" enable-background="new 0 0 16 16.001" xml:space="preserve">
<g id="Layer_0_xA0_Image_1_">
</g>
<g id="Row_5_1_">
</g>
<g id="Row_4_1_">
	<g id="directions">
		<g>
			<path fill="#212121" d="M13,6c0.276,0,0.526-0.112,0.707-0.293l2-2C15.888,3.526,16,3.276,16,3s-0.112-0.526-0.293-0.707l-2-2
				C13.526,0.112,13.276,0,13,0H3C2.447,0,2,0.447,2,1v4c0,0.553,0.447,1,1,1h4v1.001H3c-0.276,0-0.526,0.112-0.707,0.293l-2,2
				C0.112,9.475,0,9.725,0,10.001s0.112,0.526,0.293,0.707l2,2C2.474,12.889,2.724,13.001,3,13.001h4v2c0,0.553,0.447,1,1,1
				s1-0.447,1-1v-2h4c0.553,0,1-0.447,1-1v-4c0-0.553-0.447-1-1-1H9V6H13z M12,9.001v2H3.414l-1-1l1-1H12z M4,4V2h8.586l1,1l-1,1H4z
				"/>
		</g>
	</g>
</g>
<g id="Row_3_1_">
</g>
<g id="Row_2_1_">
</g>
<g id="Row_1_1_">
</g>
</svg>
