<?xml version="1.0" encoding="utf-8"?>
<!-- Generator: Adobe Illustrator 16.0.0, SVG Export Plug-In . SVG Version: 6.00 Build 0)  -->
<!DOCTYPE svg PUBLIC "-//W3C//DTD SVG 1.1//EN" "http://www.w3.org/Graphics/SVG/1.1/DTD/svg11.dtd">
<svg version="1.1" xmlns="http://www.w3.org/2000/svg" xmlns:xlink="http://www.w3.org/1999/xlink" x="0px" y="0px" width="16px"
	 height="16.001px" viewBox="0 0 16 16.001" enable-background="new 0 0 16 16.001" xml:space="preserve">
<g id="Layer_0_xA0_Image_1_">
</g>
<g id="Row_5_1_">
</g>
<g id="Row_4_1_">
	<g id="eiffel_tower">
		<g>
			<path fill="#212121" d="M11.935,12.001c0,0,1.065-0.034,1.065-1c0-0.553-0.447-1-1-1h-1.544c-0.366-0.64-0.683-1.313-0.917-2H10
				c0.553,0,1-0.447,1-1C11,6.447,10.553,6,10,6H9.073C9.031,5.661,9,5.325,9,5V4c0.553,0,1-0.447,1-1S9.553,2,9,2V1
				c0-0.553-0.447-1-1-1C7.447,0,7,0.447,7,1v1C6.447,2,6,2.447,6,3s0.447,1,1,1v1c0,0.325-0.03,0.661-0.073,1H6
				C5.447,6,5,6.447,5,7.001c0,0.553,0.447,1,1,1h0.461c-0.234,0.688-0.551,1.36-0.917,2H4c-0.553,0-1,0.447-1,1
				c0,0.966,1.065,1,1.065,1c-1.146,1.197-2.546,2-4.065,2v2h6c0,0,0.396-1,2-1c1.636,0,2,1,2,1h6v-2
				C14.481,14.001,13.082,13.198,11.935,12.001z M8,9.001c0.11,0.323,0.248,0.659,0.403,1H7.601C7.756,9.66,7.892,9.323,8,9.001z
				 M10.802,14.001c-0.763-0.594-1.79-1-2.802-1c-1.037,0-2.058,0.408-2.811,1H4.696c0.667-0.599,1.264-1.28,1.765-2h3.083
				c0.5,0.721,1.095,1.402,1.759,2H10.802z"/>
		</g>
	</g>
</g>
<g id="Row_3_1_">
</g>
<g id="Row_2_1_">
</g>
<g id="Row_1_1_">
</g>
</svg>
