<?xml version="1.0" encoding="utf-8"?>
<!-- Generator: Adobe Illustrator 16.0.0, SVG Export Plug-In . SVG Version: 6.00 Build 0)  -->
<!DOCTYPE svg PUBLIC "-//W3C//DTD SVG 1.1//EN" "http://www.w3.org/Graphics/SVG/1.1/DTD/svg11.dtd">
<svg version="1.1" xmlns="http://www.w3.org/2000/svg" xmlns:xlink="http://www.w3.org/1999/xlink" x="0px" y="0px" width="16px"
	 height="16px" viewBox="0 0 16 16" enable-background="new 0 0 16 16" xml:space="preserve">
<g id="Layer_0_xA0_Image_1_">
</g>
<g id="Row_5_1_">
</g>
<g id="Row_4_1_">
</g>
<g id="Row_3_1_">
	<g id="flag">
		<g>
			<path fill="#212121" d="M15.895,11.553L14.118,8l1.777-3.553l-0.009-0.005C15.954,4.308,16,4.161,16,4c0-0.553-0.447-1-1-1h-3
				c-0.553,0-1,0.447-1,1s0.447,1,1,1h1.382l-1.276,2.553l0.009,0.005C12.047,7.692,12,7.839,12,8s0.047,0.308,0.114,0.442
				l-0.009,0.005L13.382,11H8.868l0.964-1.445l-0.016-0.01C9.923,9.386,10,9.205,10,9V1c0-0.553-0.447-1-1-1H1C0.447,0,0,0.447,0,1
				v14c0,0.553,0.447,1,1,1s1-0.447,1-1v-5h5.132l-0.964,1.445l0.016,0.01C6.077,11.614,6,11.795,6,12c0,0.553,0.447,1,1,1h8
				c0.553,0,1-0.447,1-1c0-0.161-0.047-0.308-0.114-0.442L15.895,11.553z M8,8H2V2h6V8z"/>
		</g>
	</g>
</g>
<g id="Row_2_1_">
</g>
<g id="Row_1_1_">
</g>
</svg>
