<?xml version="1.0" encoding="utf-8"?>
<!-- Generator: Adobe Illustrator 16.0.0, SVG Export Plug-In . SVG Version: 6.00 Build 0)  -->
<!DOCTYPE svg PUBLIC "-//W3C//DTD SVG 1.1//EN" "http://www.w3.org/Graphics/SVG/1.1/DTD/svg11.dtd">
<svg version="1.1" xmlns="http://www.w3.org/2000/svg" xmlns:xlink="http://www.w3.org/1999/xlink" x="0px" y="0px" width="16px"
	 height="16.001px" viewBox="0 0 16 16.001" enable-background="new 0 0 16 16.001" xml:space="preserve">
<g id="Layer_0_xA0_Image_1_">
</g>
<g id="Row_5_1_">
</g>
<g id="Row_4_1_">
	<g id="gearbox">
		<g>
			<path fill="#212121" d="M9,12.278V9.001h5c0.553,0,1-0.447,1-1V3.723C15.596,3.376,16,2.738,16,2c0-1.104-0.896-2-2-2
				s-2,0.896-2,2c0,0.738,0.404,1.376,1,1.723v3.278H9V3.723C9.596,3.376,10,2.738,10,2c0-1.104-0.896-2-2-2S6,0.896,6,2
				c0,0.738,0.404,1.376,1,1.723v3.278H3V3.723C3.596,3.376,4,2.738,4,2c0-1.104-0.896-2-2-2S0,0.896,0,2
				c0,0.738,0.404,1.376,1,1.723v8.556c-0.596,0.347-1,0.984-1,1.723c0,1.104,0.896,2,2,2s2-0.896,2-2c0-0.738-0.404-1.376-1-1.723
				V9.001h4v3.277c-0.596,0.347-1,0.984-1,1.723c0,1.104,0.896,2,2,2s2-0.896,2-2C10,13.263,9.596,12.625,9,12.278z M16,11.501
				c0-0.828-0.672-1.5-1.5-1.5c0,0-2.593,0-2.5,0c-0.553,0-1,0.447-1,1v4c0,0.553,0.447,1,1,1s1-0.447,1-1v-0.586l1.293,1.293
				c0.181,0.181,0.431,0.293,0.707,0.293c0.553,0,1-0.447,1-1c0-0.276-0.112-0.526-0.293-0.707l-1.293-1.293
				C14.414,13.001,16,12.952,16,11.501z"/>
		</g>
	</g>
</g>
<g id="Row_3_1_">
</g>
<g id="Row_2_1_">
</g>
<g id="Row_1_1_">
</g>
</svg>
