<?xml version="1.0" encoding="utf-8"?>
<!-- Generator: Adobe Illustrator 16.0.0, SVG Export Plug-In . SVG Version: 6.00 Build 0)  -->
<!DOCTYPE svg PUBLIC "-//W3C//DTD SVG 1.1//EN" "http://www.w3.org/Graphics/SVG/1.1/DTD/svg11.dtd">
<svg version="1.1" xmlns="http://www.w3.org/2000/svg" xmlns:xlink="http://www.w3.org/1999/xlink" x="0px" y="0px" width="16px"
	 height="16px" viewBox="0 0 16 16" enable-background="new 0 0 16 16" xml:space="preserve">
<g id="Layer_0_xA0_Image_1_">
</g>
<g id="Row_5_1_">
</g>
<g id="Row_4_1_">
</g>
<g id="Row_3_1_">
	<g id="historic_bridge">
		<g>
			<path fill="#212121" d="M14.819,4.5H15c0.553,0,1-0.447,1-1s-0.447-1-1-1h-4c0-0.553-0.447-1-1-1H6c-0.553,0-1,0.447-1,1H1
				c-0.553,0-1,0.447-1,1s0.447,1,1,1h0.18l0.765,3.82C0.741,9.712,0,11.512,0,13.5c0,0.553,0.447,1,1,1s1-0.447,1-1
				c0-2.329,1.339-4.322,3.279-5.313C5.462,8.378,5.715,8.5,6,8.5h4c0.285,0,0.538-0.122,0.721-0.313
				C12.661,9.178,14,11.171,14,13.5c0,0.553,0.447,1,1,1c0.553,0,1-0.447,1-1c0-1.988-0.742-3.788-1.945-5.18L14.819,4.5z M5,6.11
				C4.534,6.3,4.1,6.545,3.683,6.813L3.22,4.5H5V6.11z M9,6.5H7v-3h2V6.5z M12.317,6.813C11.9,6.545,11.466,6.3,11,6.11V4.5h1.78
				L12.317,6.813z"/>
		</g>
	</g>
</g>
<g id="Row_2_1_">
</g>
<g id="Row_1_1_">
</g>
</svg>
