<?xml version="1.0" encoding="utf-8"?>
<!-- Generator: Adobe Illustrator 16.0.0, SVG Export Plug-In . SVG Version: 6.00 Build 0)  -->
<!DOCTYPE svg PUBLIC "-//W3C//DTD SVG 1.1//EN" "http://www.w3.org/Graphics/SVG/1.1/DTD/svg11.dtd">
<svg version="1.1" xmlns="http://www.w3.org/2000/svg" xmlns:xlink="http://www.w3.org/1999/xlink" x="0px" y="0px" width="16px"
	 height="16px" viewBox="0 0 16 16" enable-background="new 0 0 16 16" xml:space="preserve">
<g id="Layer_0_xA0_Image_1_">
</g>
<g id="Row_5_1_">
</g>
<g id="Row_4_1_">
</g>
<g id="Row_3_1_">
	<g id="monuments">
		<g>
			<path fill="#212121" d="M15,10h-3V9c0-0.553-0.448-1-1-1H5C4.447,8,4,8.447,4,9v1H1c-0.553,0-1,0.447-1,1v4c0,0.553,0.447,1,1,1
				h14c0.553,0,1-0.447,1-1v-4C16,10.447,15.553,10,15,10z M4,14H2v-2h2V14z M10,14H6v-4h4V14z M14,14h-2v-2h2V14z M5,7
				c0.553,0,1-0.447,1-1c0-1.104,0.896-2,2-2s2,0.896,2,2c0,0.553,0.447,1,1,1s1-0.447,1-1c0-1.861-1.278-3.412-3-3.858V1
				c0-0.553-0.447-1-1-1S7,0.447,7,1v1.142C5.277,2.588,4,4.139,4,6C4,6.553,4.447,7,5,7z"/>
		</g>
	</g>
</g>
<g id="Row_2_1_">
</g>
<g id="Row_1_1_">
</g>
</svg>
