<?xml version="1.0" encoding="utf-8"?>
<!-- Generator: Adobe Illustrator 16.0.0, SVG Export Plug-In . SVG Version: 6.00 Build 0)  -->
<!DOCTYPE svg PUBLIC "-//W3C//DTD SVG 1.1//EN" "http://www.w3.org/Graphics/SVG/1.1/DTD/svg11.dtd">
<svg version="1.1" xmlns="http://www.w3.org/2000/svg" xmlns:xlink="http://www.w3.org/1999/xlink" x="0px" y="0px" width="16px"
	 height="16px" viewBox="0 0 16 16" enable-background="new 0 0 16 16" xml:space="preserve">
<g id="Layer_0_xA0_Image_1_">
</g>
<g id="Row_5_1_">
</g>
<g id="Row_4_1_">
</g>
<g id="Row_3_1_">
</g>
<g id="Row_2_1_">
	<g id="piston">
		<g>
			<path fill="#212121" d="M9.986,13.836l-0.003-0.017c-0.009-0.104-0.025-0.206-0.051-0.306L8.986,7.836L8.968,7.839
				C8.888,7.366,8.495,7,8,7S7.112,7.366,7.032,7.839L7.014,7.836l-0.945,5.672c-0.023,0.092-0.037,0.187-0.047,0.283l-0.008,0.045
				h0.003C6.012,13.891,6,13.943,6,14c0,1.104,0.896,2,2,2s2-0.896,2-2C10,13.944,9.989,13.891,9.986,13.836L9.986,13.836z M10,0H6
				C5.447,0,5,0.447,5,1v4c0,0.553,0.447,1,1,1h1c0-0.553,0.447-1,1-1s1,0.447,1,1h1c0.553,0,1-0.447,1-1V1C11,0.447,10.553,0,10,0z
				 M9,3.184C8.686,3.072,8.353,3,8,3S7.314,3.072,7,3.184V2h2V3.184z"/>
		</g>
	</g>
</g>
<g id="Row_1_1_">
</g>
</svg>
