<?xml version="1.0" encoding="utf-8"?>
<!-- Generator: Adobe Illustrator 16.0.0, SVG Export Plug-In . SVG Version: 6.00 Build 0)  -->
<!DOCTYPE svg PUBLIC "-//W3C//DTD SVG 1.1//EN" "http://www.w3.org/Graphics/SVG/1.1/DTD/svg11.dtd">
<svg version="1.1" xmlns="http://www.w3.org/2000/svg" xmlns:xlink="http://www.w3.org/1999/xlink" x="0px" y="0px" width="16px"
	 height="16.001px" viewBox="0 0 16 16.001" enable-background="new 0 0 16 16.001" xml:space="preserve">
<g id="Layer_0_xA0_Image_1_">
</g>
<g id="Row_5_1_">
</g>
<g id="Row_4_1_">
	<g id="placed_pin">
		<g>
			<path fill="#212121" d="M9,4c0-0.553-0.447-1-1-1S7,3.447,7,4s0.447,1,1,1S9,4.553,9,4z M8.801,10.001C9.967,8.478,12,5.581,12,4
				c0-2.209-1.791-4-4-4S4,1.791,4,4c0,1.581,2.033,4.478,3.199,6.001c0,0-7.199,0.331-7.199,3c0,1.657,3.582,3,8,3s8-1.343,8-3
				C16,10.326,8.801,10.001,8.801,10.001z M6,4c0-1.104,0.896-2,2-2s2,0.896,2,2S7.979,8.001,8,8.001C8.073,8.001,6,5.104,6,4z
				 M8,14.001c-3.313,0-6-0.447-6-1s2.687-1,6-1s6,0.447,6,1S11.313,14.001,8,14.001z"/>
		</g>
	</g>
</g>
<g id="Row_3_1_">
</g>
<g id="Row_2_1_">
</g>
<g id="Row_1_1_">
</g>
</svg>
