<?xml version="1.0" encoding="utf-8"?>
<!-- Generator: Adobe Illustrator 16.0.0, SVG Export Plug-In . SVG Version: 6.00 Build 0)  -->
<!DOCTYPE svg PUBLIC "-//W3C//DTD SVG 1.1//EN" "http://www.w3.org/Graphics/SVG/1.1/DTD/svg11.dtd">
<svg version="1.1" xmlns="http://www.w3.org/2000/svg" xmlns:xlink="http://www.w3.org/1999/xlink" x="0px" y="0px" width="16px"
	 height="16px" viewBox="0 0 16 16" enable-background="new 0 0 16 16" xml:space="preserve">
<g id="Layer_0_xA0_Image_1_">
</g>
<g id="Row_5_1_">
	<g id="road">
		<g>
			<path fill="#212121" d="M15.945,14.729l0.017-0.004l-4-14l-0.017,0.004C11.825,0.312,11.456,0,11,0H5
				C4.544,0,4.175,0.312,4.055,0.729L4.038,0.726l-4,14l0.017,0.004C0.029,14.817,0,14.904,0,15c0,0.553,0.447,1,1,1h14
				c0.553,0,1-0.447,1-1C16,14.904,15.971,14.817,15.945,14.729z M2.326,14L5.754,2h4.492l3.428,12H2.326z M8,11
				c-0.553,0-1,0.447-1,1s0.447,1,1,1s1-0.447,1-1S8.553,11,8,11z M8,7C7.447,7,7,7.447,7,8s0.447,1,1,1s1-0.447,1-1S8.553,7,8,7z
				 M8,3C7.447,3,7,3.447,7,4s0.447,1,1,1s1-0.447,1-1S8.553,3,8,3z"/>
		</g>
	</g>
</g>
<g id="Row_4_1_">
</g>
<g id="Row_3_1_">
</g>
<g id="Row_2_1_">
</g>
<g id="Row_1_1_">
</g>
</svg>
