<?xml version="1.0" encoding="utf-8"?>
<!-- Generator: Adobe Illustrator 16.0.0, SVG Export Plug-In . SVG Version: 6.00 Build 0)  -->
<!DOCTYPE svg PUBLIC "-//W3C//DTD SVG 1.1//EN" "http://www.w3.org/Graphics/SVG/1.1/DTD/svg11.dtd">
<svg version="1.1" xmlns="http://www.w3.org/2000/svg" xmlns:xlink="http://www.w3.org/1999/xlink" x="0px" y="0px" width="16px"
	 height="16px" viewBox="0 0 16 16" enable-background="new 0 0 16 16" xml:space="preserve">
<g id="Layer_0_xA0_Image_1_">
</g>
<g id="Row_5_1_">
</g>
<g id="Row_4_1_">
</g>
<g id="Row_3_1_">
	<g id="sideways_train">
		<g>
			<path fill="#212121" d="M1,12.002h12c1.657,0,3-1.343,3-3c0-0.852-0.358-1.616-0.929-2.162l0.01-0.01L9.448,1.629
				C9.084,1.245,8.571,1.002,8,1.002H1c-0.553,0-1,0.447-1,1v9C0,11.555,0.447,12.002,1,12.002z M8,3.114
				c0.099,0.049,0.192,0.104,0.27,0.182l2.945,2.707H8V3.114z M2,3.002h4v4c0,0.553,0.447,1,1,1h6.389l0.318,0.293
				C13.888,8.476,14,8.726,14,9.002c0,0.553-0.447,1-1,1H2V3.002z M15,14.002H1c-0.553,0-1,0.447-1,1s0.447,1,1,1h14
				c0.553,0,1-0.447,1-1S15.553,14.002,15,14.002z"/>
		</g>
	</g>
</g>
<g id="Row_2_1_">
</g>
<g id="Row_1_1_">
</g>
</svg>
