<?xml version="1.0" encoding="utf-8"?>
<!-- Generator: Adobe Illustrator 16.0.0, SVG Export Plug-In . SVG Version: 6.00 Build 0)  -->
<!DOCTYPE svg PUBLIC "-//W3C//DTD SVG 1.1//EN" "http://www.w3.org/Graphics/SVG/1.1/DTD/svg11.dtd">
<svg version="1.1" xmlns="http://www.w3.org/2000/svg" xmlns:xlink="http://www.w3.org/1999/xlink" x="0px" y="0px" width="16px"
	 height="16.001px" viewBox="0 0 16 16.001" enable-background="new 0 0 16 16.001" xml:space="preserve">
<g id="Layer_0_xA0_Image_1_">
</g>
<g id="Row_5_1_">
</g>
<g id="Row_4_1_">
	<g id="suitcase">
		<g>
			<path fill="#212121" d="M15,4h-3c0-2.209-1.791-4-4-4S4,1.791,4,4H1C0.447,4,0,4.447,0,5v10.001c0,0.553,0.447,1,1,1h14
				c0.553,0,1-0.447,1-1V5C16,4.447,15.553,4,15,4z M4,14.001H2V6h2V14.001z M10,14.001H6V6h4V14.001z M6,4c0-1.104,0.896-2,2-2
				s2,0.896,2,2H6z M14,14.001h-2V6h2V14.001z"/>
		</g>
	</g>
</g>
<g id="Row_3_1_">
</g>
<g id="Row_2_1_">
</g>
<g id="Row_1_1_">
</g>
</svg>
