<?xml version="1.0" encoding="utf-8"?>
<!-- Generator: Adobe Illustrator 16.0.0, SVG Export Plug-In . SVG Version: 6.00 Build 0)  -->
<!DOCTYPE svg PUBLIC "-//W3C//DTD SVG 1.1//EN" "http://www.w3.org/Graphics/SVG/1.1/DTD/svg11.dtd">
<svg version="1.1" xmlns="http://www.w3.org/2000/svg" xmlns:xlink="http://www.w3.org/1999/xlink" x="0px" y="0px" width="16px"
	 height="16px" viewBox="0 0 16 16" enable-background="new 0 0 16 16" xml:space="preserve">
<g id="Layer_0_xA0_Image_1_">
</g>
<g id="Row_5_1_">
</g>
<g id="Row_4_1_">
</g>
<g id="Row_3_1_">
</g>
<g id="Row_2_1_">
	<g id="tent">
		<g>
			<path fill="#212121" d="M15.826,14.469l0.015-0.01L9.188,4.111l1.652-2.57l-0.015-0.01C10.927,1.375,11,1.199,11,1
				c0-0.553-0.447-1-1-1C9.647,0,9.353,0.193,9.174,0.469l-0.015-0.01L8,2.262L6.841,0.459l-0.015,0.01C6.647,0.193,6.353,0,6,0
				C5.447,0,5,0.447,5,1c0,0.199,0.073,0.375,0.174,0.531l-0.015,0.01l1.652,2.57L0.159,14.459l0.015,0.01
				C0.073,14.625,0,14.801,0,15c0,0.553,0.447,1,1,1h14c0.553,0,1-0.447,1-1C16,14.801,15.927,14.625,15.826,14.469z M6.767,14
				L8,11.943L9.233,14H6.767z M11.566,14L8.857,9.485L8.843,9.494C8.668,9.204,8.363,9,8,9S7.332,9.204,7.157,9.494L7.143,9.485
				L4.434,14H2.832L8,5.96L13.168,14H11.566z"/>
		</g>
	</g>
</g>
<g id="Row_1_1_">
</g>
</svg>
