<?xml version="1.0" encoding="utf-8"?>
<!-- Generator: Adobe Illustrator 16.0.0, SVG Export Plug-In . SVG Version: 6.00 Build 0)  -->
<!DOCTYPE svg PUBLIC "-//W3C//DTD SVG 1.1//EN" "http://www.w3.org/Graphics/SVG/1.1/DTD/svg11.dtd">
<svg version="1.1" xmlns="http://www.w3.org/2000/svg" xmlns:xlink="http://www.w3.org/1999/xlink" x="0px" y="0px" width="16px"
	 height="16.001px" viewBox="0 0 16 16.001" enable-background="new 0 0 16 16.001" xml:space="preserve">
<g id="Layer_0_xA0_Image_1_">
</g>
<g id="Row_5_1_">
</g>
<g id="Row_4_1_">
	<g id="water_level">
		<g>
			<path fill="#212121" d="M8,11.001c1.657,0,3-1.343,3-3c0-1.306-0.838-2.404-2-2.817V4h1c0.553,0,1-0.447,1-1s-0.447-1-1-1H9V1
				c0-0.553-0.447-1-1-1S7,0.447,7,1v4.184C5.838,5.597,5,6.695,5,8.001C5,9.658,6.343,11.001,8,11.001z M8,7.001
				c0.553,0,1,0.447,1,1s-0.447,1-1,1s-1-0.447-1-1S7.447,7.001,8,7.001z M15,13.001c0-1.657-1.343-3-3-3s-3,1.343-3,3
				c0,0.553-0.447,1-1,1s-1-0.447-1-1c0-1.657-1.343-3-3-3s-3,1.343-3,3c0,0.553-0.447,1-1,1v2c1.657,0,3-1.343,3-3
				c0-0.553,0.447-1,1-1s1,0.447,1,1c0,1.657,1.343,3,3,3s3-1.343,3-3c0-0.553,0.447-1,1-1s1,0.447,1,1c0,1.657,1.343,3,3,3v-2
				C15.447,14.001,15,13.554,15,13.001z"/>
		</g>
	</g>
</g>
<g id="Row_3_1_">
</g>
<g id="Row_2_1_">
</g>
<g id="Row_1_1_">
</g>
</svg>
