<?xml version="1.0" encoding="utf-8"?>
<!-- Generator: Adobe Illustrator 16.0.0, SVG Export Plug-In . SVG Version: 6.00 Build 0)  -->
<!DOCTYPE svg PUBLIC "-//W3C//DTD SVG 1.1//EN" "http://www.w3.org/Graphics/SVG/1.1/DTD/svg11.dtd">
<svg version="1.1" xmlns="http://www.w3.org/2000/svg" xmlns:xlink="http://www.w3.org/1999/xlink" x="0px" y="0px" width="16px"
	 height="16px" viewBox="0 0 16 16" enable-background="new 0 0 16 16" xml:space="preserve">
<g id="Layer_0_xA0_Image_1_">
</g>
<g id="Row_5_1_">
</g>
<g id="Row_4_1_">
</g>
<g id="Row_3_1_">
	<g id="book">
		<g>
			<path fill="#212121" d="M13,0H5C3.343,0,2,1.343,2,3v10c0,1.657,1.343,3,3,3h7c0.553,0,1-0.447,1-1s-0.447-1-1-1H5
				c-0.553,0-1-0.447-1-1s0.447-1,1-1h8c0.138,0,0.27-0.028,0.39-0.078C13.748,11.77,14,11.414,14,11V1C14,0.447,13.553,0,13,0z
				 M12,10H5c-0.353,0-0.686,0.072-1,0.184V3c0-0.553,0.447-1,1-1h7V10z"/>
		</g>
	</g>
</g>
<g id="Row_2_1_">
</g>
<g id="Row_1_1_">
</g>
</svg>
