<?xml version="1.0" encoding="utf-8"?>
<!-- Generator: Adobe Illustrator 16.0.0, SVG Export Plug-In . SVG Version: 6.00 Build 0)  -->
<!DOCTYPE svg PUBLIC "-//W3C//DTD SVG 1.1//EN" "http://www.w3.org/Graphics/SVG/1.1/DTD/svg11.dtd">
<svg version="1.1" xmlns="http://www.w3.org/2000/svg" xmlns:xlink="http://www.w3.org/1999/xlink" x="0px" y="0px" width="16px"
	 height="16px" viewBox="0 0 16 16" enable-background="new 0 0 16 16" xml:space="preserve">
<g id="Layer_0_xA0_Image_1_">
</g>
<g id="Row_5_1_">
</g>
<g id="Row_4_1_">
</g>
<g id="Row_3_1_">
</g>
<g id="Row_2_1_">
	<g id="brackets">
		<g>
			<path fill="#212121" d="M7,3c0-0.553-0.447-1-1-1C5.724,2,5.474,2.112,5.293,2.293l-5,5C0.112,7.474,0,7.724,0,8
				s0.112,0.526,0.293,0.707l5,5C5.474,13.888,5.724,14,6,14c0.553,0,1-0.447,1-1c0-0.276-0.112-0.526-0.293-0.707L2.414,8
				l4.293-4.293C6.888,3.526,7,3.276,7,3z M15.707,7.293l-5-5C10.526,2.112,10.276,2,10,2C9.447,2,9,2.447,9,3
				c0,0.276,0.112,0.526,0.293,0.707L13.586,8l-4.293,4.293C9.112,12.474,9,12.724,9,13c0,0.553,0.447,1,1,1
				c0.276,0,0.526-0.112,0.707-0.293l5-5C15.888,8.526,16,8.276,16,8S15.888,7.474,15.707,7.293z"/>
		</g>
	</g>
</g>
<g id="Row_1_1_">
</g>
</svg>
