<?xml version="1.0" encoding="utf-8"?>
<!-- Generator: Adobe Illustrator 16.0.0, SVG Export Plug-In . SVG Version: 6.00 Build 0)  -->
<!DOCTYPE svg PUBLIC "-//W3C//DTD SVG 1.1//EN" "http://www.w3.org/Graphics/SVG/1.1/DTD/svg11.dtd">
<svg version="1.1" xmlns="http://www.w3.org/2000/svg" xmlns:xlink="http://www.w3.org/1999/xlink" x="0px" y="0px" width="16px"
	 height="16px" viewBox="0 0 16 16" enable-background="new 0 0 16 16" xml:space="preserve">
<g id="Layer_0_xA0_Image_1_">
</g>
<g id="Row_5_1_">
	<g id="bulleted_list">
		<g>
			<path fill="#212121" d="M1,11c-0.553,0-1,0.447-1,1s0.447,1,1,1s1-0.447,1-1S1.553,11,1,11z M5,5h10c0.553,0,1-0.447,1-1
				s-0.447-1-1-1H5C4.447,3,4,3.447,4,4S4.447,5,5,5z M1,7C0.447,7,0,7.447,0,8s0.447,1,1,1s1-0.447,1-1S1.553,7,1,7z M15,7H5
				C4.447,7,4,7.447,4,8s0.447,1,1,1h10c0.553,0,1-0.447,1-1S15.553,7,15,7z M15,11H5c-0.553,0-1,0.447-1,1s0.447,1,1,1h10
				c0.553,0,1-0.447,1-1S15.553,11,15,11z M1,3C0.447,3,0,3.447,0,4s0.447,1,1,1s1-0.447,1-1S1.553,3,1,3z"/>
		</g>
	</g>
</g>
<g id="Row_4_1_">
</g>
<g id="Row_3_1_">
</g>
<g id="Row_2_1_">
</g>
<g id="Row_1_1_">
</g>
</svg>
