<?xml version="1.0" encoding="utf-8"?>
<!-- Generator: Adobe Illustrator 16.0.0, SVG Export Plug-In . SVG Version: 6.00 Build 0)  -->
<!DOCTYPE svg PUBLIC "-//W3C//DTD SVG 1.1//EN" "http://www.w3.org/Graphics/SVG/1.1/DTD/svg11.dtd">
<svg version="1.1" xmlns="http://www.w3.org/2000/svg" xmlns:xlink="http://www.w3.org/1999/xlink" x="0px" y="0px" width="16px"
	 height="16px" viewBox="0 0 16 16" enable-background="new 0 0 16 16" xml:space="preserve">
<g id="Layer_0_xA0_Image_1_">
</g>
<g id="Row_5_1_">
</g>
<g id="Row_4_1_">
</g>
<g id="Row_3_1_">
	<g id="edit">
		<g>
			<path fill="#212121" d="M13,11c-0.553,0-1,0.447-1,1v2H2V4h2c0.553,0,1-0.447,1-1S4.553,2,4,2H1C0.447,2,0,2.447,0,3v12
				c0,0.553,0.447,1,1,1h12c0.553,0,1-0.447,1-1v-3C14,11.447,13.553,11,13,11z M15.707,4.293l-4-4C11.526,0.112,11.276,0,11,0
				s-0.526,0.112-0.707,0.293l-6,6C4.112,6.474,4,6.724,4,7v4c0,0.553,0.447,1,1,1h4c0.276,0,0.526-0.112,0.707-0.293l6-6
				C15.888,5.526,16,5.276,16,5S15.888,4.474,15.707,4.293z M8.586,10H6V7.414l5-5L13.586,5L8.586,10z"/>
		</g>
	</g>
</g>
<g id="Row_2_1_">
</g>
<g id="Row_1_1_">
</g>
</svg>
