<?xml version="1.0" encoding="utf-8"?>
<!-- Generator: Adobe Illustrator 16.0.0, SVG Export Plug-In . SVG Version: 6.00 Build 0)  -->
<!DOCTYPE svg PUBLIC "-//W3C//DTD SVG 1.1//EN" "http://www.w3.org/Graphics/SVG/1.1/DTD/svg11.dtd">
<svg version="1.1" xmlns="http://www.w3.org/2000/svg" xmlns:xlink="http://www.w3.org/1999/xlink" x="0px" y="0px" width="16px"
	 height="16px" viewBox="0 0 16 16" enable-background="new 0 0 16 16" xml:space="preserve">
<g id="Layer_0_xA0_Image_1_">
</g>
<g id="Row_5_1_">
</g>
<g id="Row_4_1_">
	<g id="flowchart_2_2_">
		<g>
			<path fill="#212121" d="M14,12c0-1.657-1.343-3-3-3h-1C9.447,9,9,8.553,9,8V4c1.104,0,2-0.896,2-2s-0.896-2-2-2H7
				C5.896,0,5,0.896,5,2s0.896,2,2,2v1c0,0.553-0.447,1-1,1H5C3.343,6,2,7.343,2,9c-1.104,0-2,0.896-2,2s0.896,2,2,2h2
				c1.104,0,2-0.896,2-2S5.104,9,4,9c0-0.553,0.447-1,1-1h2c0,1.657,1.343,3,3,3h1c0.553,0,1,0.447,1,1c-1.104,0-2,0.896-2,2
				s0.896,2,2,2h2c1.104,0,2-0.896,2-2S15.104,12,14,12z M5,11c0,0.553-0.447,1-1,1H2c-0.553,0-1-0.447-1-1s0.447-1,1-1h2
				C4.553,10,5,10.447,5,11z M7,3C6.447,3,6,2.553,6,2s0.447-1,1-1h2c0.553,0,1,0.447,1,1S9.553,3,9,3H7z M14,15h-2
				c-0.553,0-1-0.447-1-1s0.447-1,1-1h2c0.553,0,1,0.447,1,1S14.553,15,14,15z"/>
		</g>
	</g>
</g>
<g id="Row_3_1_">
</g>
<g id="Row_2_1_">
</g>
<g id="Row_1_1_">
</g>
</svg>
