<?xml version="1.0" encoding="utf-8"?>
<!-- Generator: Adobe Illustrator 16.0.0, SVG Export Plug-In . SVG Version: 6.00 Build 0)  -->
<!DOCTYPE svg PUBLIC "-//W3C//DTD SVG 1.1//EN" "http://www.w3.org/Graphics/SVG/1.1/DTD/svg11.dtd">
<svg version="1.1" xmlns="http://www.w3.org/2000/svg" xmlns:xlink="http://www.w3.org/1999/xlink" x="0px" y="0px" width="16px"
	 height="16px" viewBox="0 0 16 16" enable-background="new 0 0 16 16" xml:space="preserve">
<g id="Layer_0_xA0_Image_1_">
</g>
<g id="Row_5_1_">
</g>
<g id="Row_4_1_">
</g>
<g id="Row_3_1_">
</g>
<g id="Row_2_1_">
	<g id="frame">
		<g>
			<path fill="#212121" d="M3,14H2v-1c0-0.553-0.447-1-1-1s-1,0.447-1,1v2c0,0.553,0.447,1,1,1h2c0.553,0,1-0.447,1-1S3.553,14,3,14
				z M15,0h-2c-0.553,0-1,0.447-1,1s0.447,1,1,1h1v1c0,0.553,0.447,1,1,1s1-0.447,1-1V1C16,0.447,15.553,0,15,0z M1,4
				c0.553,0,1-0.447,1-1V2h1c0.553,0,1-0.447,1-1S3.553,0,3,0H1C0.447,0,0,0.447,0,1v2C0,3.553,0.447,4,1,4z M13,12V4
				c0-0.553-0.447-1-1-1H4C3.447,3,3,3.447,3,4v8c0,0.553,0.447,1,1,1h8C12.553,13,13,12.553,13,12z M11,11H5V5h6V11z M15,12
				c-0.553,0-1,0.447-1,1v1h-1c-0.553,0-1,0.447-1,1s0.447,1,1,1h2c0.553,0,1-0.447,1-1v-2C16,12.447,15.553,12,15,12z"/>
		</g>
	</g>
</g>
<g id="Row_1_1_">
</g>
</svg>
