<?xml version="1.0" encoding="utf-8"?>
<!-- Generator: Adobe Illustrator 16.0.0, SVG Export Plug-In . SVG Version: 6.00 Build 0)  -->
<!DOCTYPE svg PUBLIC "-//W3C//DTD SVG 1.1//EN" "http://www.w3.org/Graphics/SVG/1.1/DTD/svg11.dtd">
<svg version="1.1" xmlns="http://www.w3.org/2000/svg" xmlns:xlink="http://www.w3.org/1999/xlink" x="0px" y="0px" width="16px"
	 height="16px" viewBox="0 0 16 16" enable-background="new 0 0 16 16" xml:space="preserve">
<g id="Layer_0_xA0_Image_1_">
</g>
<g id="Row_5_1_">
</g>
<g id="Row_4_1_">
	<g id="half_full_battery">
		<g>
			<path fill="#212121" d="M3,7v2h5L7,7H3z M15,6V5c0-0.553-0.447-1-1-1H1C0.447,4,0,4.447,0,5v6c0,0.553,0.447,1,1,1h13
				c0.553,0,1-0.447,1-1v-1c0.553,0,1-0.447,1-1V7C16,6.447,15.553,6,15,6z M14,9c-0.553,0-1,0.447-1,1H2V6h11c0,0.553,0.447,1,1,1
				V9z"/>
		</g>
	</g>
</g>
<g id="Row_3_1_">
</g>
<g id="Row_2_1_">
</g>
<g id="Row_1_1_">
</g>
</svg>
