<?xml version="1.0" encoding="utf-8"?>
<!-- Generator: Adobe Illustrator 16.0.0, SVG Export Plug-In . SVG Version: 6.00 Build 0)  -->
<!DOCTYPE svg PUBLIC "-//W3C//DTD SVG 1.1//EN" "http://www.w3.org/Graphics/SVG/1.1/DTD/svg11.dtd">
<svg version="1.1" xmlns="http://www.w3.org/2000/svg" xmlns:xlink="http://www.w3.org/1999/xlink" x="0px" y="0px" width="16px"
	 height="16px" viewBox="0 0 16 16" enable-background="new 0 0 16 16" xml:space="preserve">
<g id="Layer_0_xA0_Image_1_">
</g>
<g id="Row_5_1_">
	<g id="layers">
		<g>
			<path fill="#212121" d="M0.606,4.918L0.606,4.918l0.003,0.003c0.001,0,0.002,0,0.003,0.001l6.994,2.997V7.918
				C7.728,7.971,7.86,8,8,8s0.272-0.029,0.394-0.082v0.001l6.994-2.997c0.001-0.001,0.002-0.001,0.003-0.001l0.003-0.002V4.918
				C15.75,4.766,16,4.412,16,4s-0.25-0.766-0.606-0.919l-0.003-0.002c-0.001,0-0.002,0-0.003-0.001L8.394,0.081
				C8.272,0.029,8.14,0,8,0S7.728,0.029,7.606,0.081L0.612,3.078C0.611,3.079,0.61,3.079,0.609,3.079L0.606,3.081
				C0.25,3.234,0,3.588,0,4S0.25,4.766,0.606,4.918z M8,2.088L12.461,4L8,5.912L3.538,4L8,2.088z M15,7
				c-0.14,0-0.272,0.029-0.394,0.081L8,9.912L1.394,7.081C1.272,7.029,1.14,7,1,7C0.447,7,0,7.447,0,8
				c0,0.412,0.25,0.766,0.606,0.918v0.001l0.003,0.002c0.001,0,0.002,0,0.003,0.001l6.994,2.997v-0.001C7.728,11.971,7.86,12,8,12
				s0.272-0.029,0.394-0.082v0.001l6.994-2.997c0.001-0.001,0.002-0.001,0.003-0.001l0.003-0.002V8.918C15.75,8.766,16,8.412,16,8
				C16,7.447,15.553,7,15,7z M15,11c-0.14,0-0.272,0.029-0.394,0.081L8,13.912l-6.606-2.831C1.272,11.029,1.14,11,1,11
				c-0.553,0-1,0.447-1,1c0,0.412,0.25,0.766,0.606,0.918v0.001l0.003,0.002c0.001,0,0.002,0,0.003,0.001l6.994,2.997v-0.001
				C7.728,15.971,7.86,16,8,16s0.272-0.029,0.394-0.082v0.001l6.994-2.997c0.001-0.001,0.002-0.001,0.003-0.001l0.003-0.002v-0.001
				C15.75,12.766,16,12.412,16,12C16,11.447,15.553,11,15,11z"/>
		</g>
	</g>
</g>
<g id="Row_4_1_">
</g>
<g id="Row_3_1_">
</g>
<g id="Row_2_1_">
</g>
<g id="Row_1_1_">
</g>
</svg>
