<?xml version="1.0" encoding="utf-8"?>
<!-- Generator: Adobe Illustrator 16.0.0, SVG Export Plug-In . SVG Version: 6.00 Build 0)  -->
<!DOCTYPE svg PUBLIC "-//W3C//DTD SVG 1.1//EN" "http://www.w3.org/Graphics/SVG/1.1/DTD/svg11.dtd">
<svg version="1.1" xmlns="http://www.w3.org/2000/svg" xmlns:xlink="http://www.w3.org/1999/xlink" x="0px" y="0px" width="16px"
	 height="16px" viewBox="0 0 16 16" enable-background="new 0 0 16 16" xml:space="preserve">
<g id="Layer_0_xA0_Image_1_">
</g>
<g id="Row_5_1_">
</g>
<g id="Row_4_1_">
</g>
<g id="Row_3_1_">
</g>
<g id="Row_2_1_">
</g>
<g id="Row_1_1_">
	<g id="loading">
		<g>
			<path fill-rule="evenodd" clip-rule="evenodd" fill="#212121" d="M8,6C6.896,6,6,6.896,6,8s0.896,2,2,2s2-0.896,2-2S9.104,6,8,6z
				 M14,6c-1.104,0-2,0.896-2,2s0.896,2,2,2s2-0.896,2-2S15.104,6,14,6z M2,6C0.896,6,0,6.896,0,8s0.896,2,2,2s2-0.896,2-2
				S3.104,6,2,6z"/>
		</g>
	</g>
</g>
</svg>
