<?xml version="1.0" encoding="utf-8"?>
<!-- Generator: Adobe Illustrator 16.0.0, SVG Export Plug-In . SVG Version: 6.00 Build 0)  -->
<!DOCTYPE svg PUBLIC "-//W3C//DTD SVG 1.1//EN" "http://www.w3.org/Graphics/SVG/1.1/DTD/svg11.dtd">
<svg version="1.1" xmlns="http://www.w3.org/2000/svg" xmlns:xlink="http://www.w3.org/1999/xlink" x="0px" y="0px" width="16px"
	 height="16px" viewBox="0 0 16 16" enable-background="new 0 0 16 16" xml:space="preserve">
<g id="Layer_0_xA0_Image_1_">
</g>
<g id="Row_5_1_">
</g>
<g id="Row_4_1_">
</g>
<g id="Row_3_1_">
</g>
<g id="Row_2_1_">
	<g id="mouse">
		<g>
			<path fill="#212121" d="M12.207,7.293l-7-7C5.026,0.112,4.776,0,4.5,0c-0.553,0-1,0.447-1,1v10c0,0.553,0.447,1,1,1
				c0.276,0,0.526-0.112,0.707-0.293l1.956-1.955l2.415,5.636c0.001,0.001,0.001,0.002,0.001,0.003l0.002,0.003
				C9.734,15.75,10.088,16,10.5,16c0.553,0,1-0.447,1-1c0-0.14-0.029-0.272-0.082-0.394h0.001L9.017,9H11.5c0.553,0,1-0.447,1-1
				C12.5,7.724,12.388,7.474,12.207,7.293z M7.5,7C7.224,7,6.974,7.112,6.793,7.293L5.5,8.586V3.414L9.086,7H7.5z"/>
		</g>
	</g>
</g>
<g id="Row_1_1_">
</g>
</svg>
