<?xml version="1.0" encoding="utf-8"?>
<!-- Generator: Adobe Illustrator 16.0.0, SVG Export Plug-In . SVG Version: 6.00 Build 0)  -->
<!DOCTYPE svg PUBLIC "-//W3C//DTD SVG 1.1//EN" "http://www.w3.org/Graphics/SVG/1.1/DTD/svg11.dtd">
<svg version="1.1" xmlns="http://www.w3.org/2000/svg" xmlns:xlink="http://www.w3.org/1999/xlink" x="0px" y="0px" width="16px"
	 height="16px" viewBox="0 0 16 16" enable-background="new 0 0 16 16" xml:space="preserve">
<g id="Layer_0_xA0_Image_1_">
</g>
<g id="Row_5_1_">
	<g id="multiple_switches">
		<g>
			<path fill="#212121" d="M3.5,4.5c0.552,0,1-0.447,1-1s-0.448-1-1-1c-0.553,0-1,0.447-1,1S2.947,4.5,3.5,4.5z M12.5,9h-9
				C1.567,9,0,10.567,0,12.5S1.567,16,3.5,16h9c1.933,0,3.5-1.567,3.5-3.5S14.433,9,12.5,9z M12.5,14h-9C2.672,14,2,13.328,2,12.5
				S2.672,11,3.5,11h9c0.828,0,1.5,0.672,1.5,1.5S13.328,14,12.5,14z M12.5,11.5c-0.553,0-1,0.447-1,1s0.447,1,1,1
				c0.552,0,1-0.447,1-1S13.052,11.5,12.5,11.5z M3.5,7h9C14.433,7,16,5.433,16,3.5S14.433,0,12.5,0h-9C1.567,0,0,1.567,0,3.5
				S1.567,7,3.5,7z M3.5,2h9C13.328,2,14,2.672,14,3.5S13.328,5,12.5,5h-9C2.672,5,2,4.328,2,3.5S2.672,2,3.5,2z"/>
		</g>
	</g>
</g>
<g id="Row_4_1_">
</g>
<g id="Row_3_1_">
</g>
<g id="Row_2_1_">
</g>
<g id="Row_1_1_">
</g>
</svg>
