<?xml version="1.0" encoding="utf-8"?>
<!-- Generator: Adobe Illustrator 16.0.0, SVG Export Plug-In . SVG Version: 6.00 Build 0)  -->
<!DOCTYPE svg PUBLIC "-//W3C//DTD SVG 1.1//EN" "http://www.w3.org/Graphics/SVG/1.1/DTD/svg11.dtd">
<svg version="1.1" xmlns="http://www.w3.org/2000/svg" xmlns:xlink="http://www.w3.org/1999/xlink" x="0px" y="0px" width="16px"
	 height="16px" viewBox="0 0 16 16" enable-background="new 0 0 16 16" xml:space="preserve">
<g id="Layer_0_xA0_Image_1_">
</g>
<g id="Row_5_1_">
</g>
<g id="Row_4_1_">
</g>
<g id="Row_3_1_">
</g>
<g id="Row_2_1_">
	<g id="outgoing">
		<g>
			<path fill="#212121" d="M6,4c0.276,0,0.526-0.112,0.707-0.293L7,3.414V9c0,0.553,0.447,1,1,1s1-0.447,1-1V3.414l0.293,0.293
				C9.474,3.888,9.724,4,10,4c0.553,0,1-0.447,1-1c0-0.276-0.112-0.526-0.293-0.707l-2-2C8.526,0.112,8.276,0,8,0
				S7.474,0.112,7.293,0.293l-2,2C5.112,2.474,5,2.724,5,3C5,3.553,5.447,4,6,4z M15,5h-3c-0.553,0-1,0.447-1,1s0.447,1,1,1h2v7H2V7
				h2c0.553,0,1-0.447,1-1S4.553,5,4,5H1C0.447,5,0,5.447,0,6v9c0,0.553,0.447,1,1,1h14c0.553,0,1-0.447,1-1V6
				C16,5.447,15.553,5,15,5z"/>
		</g>
	</g>
</g>
<g id="Row_1_1_">
</g>
</svg>
