<?xml version="1.0" encoding="utf-8"?>
<!-- Generator: Adobe Illustrator 16.0.0, SVG Export Plug-In . SVG Version: 6.00 Build 0)  -->
<!DOCTYPE svg PUBLIC "-//W3C//DTD SVG 1.1//EN" "http://www.w3.org/Graphics/SVG/1.1/DTD/svg11.dtd">
<svg version="1.1" xmlns="http://www.w3.org/2000/svg" xmlns:xlink="http://www.w3.org/1999/xlink" x="0px" y="0px" width="16px"
	 height="16px" viewBox="0 0 16 16" enable-background="new 0 0 16 16" xml:space="preserve">
<g id="Layer_0_xA0_Image_1_">
</g>
<g id="Row_5_1_">
</g>
<g id="Row_4_1_">
</g>
<g id="Row_3_1_">
</g>
<g id="Row_2_1_">
	<g id="point_of_interest">
		<g>
			<path fill="#212121" d="M3,10c-1.657,0-3,1.343-3,3s1.343,3,3,3s3-1.343,3-3S4.657,10,3,10z M3,14c-0.553,0-1-0.447-1-1
				s0.447-1,1-1s1,0.447,1,1S3.553,14,3,14z M16,1c0-0.553-0.447-1-1-1c-0.276,0-0.526,0.112-0.707,0.293L8,6.586V5
				c0-0.553-0.447-1-1-1S6,4.447,6,5v4c0,0.553,0.447,1,1,1h4c0.553,0,1-0.447,1-1s-0.447-1-1-1H9.414l6.293-6.293
				C15.888,1.526,16,1.276,16,1z"/>
		</g>
	</g>
</g>
<g id="Row_1_1_">
</g>
</svg>
