<?xml version="1.0" encoding="utf-8"?>
<!-- Generator: Adobe Illustrator 16.0.0, SVG Export Plug-In . SVG Version: 6.00 Build 0)  -->
<!DOCTYPE svg PUBLIC "-//W3C//DTD SVG 1.1//EN" "http://www.w3.org/Graphics/SVG/1.1/DTD/svg11.dtd">
<svg version="1.1" xmlns="http://www.w3.org/2000/svg" xmlns:xlink="http://www.w3.org/1999/xlink" x="0px" y="0px" width="16px"
	 height="16px" viewBox="0 0 16 16" enable-background="new 0 0 16 16" xml:space="preserve">
<g id="Layer_0_xA0_Image_1_">
</g>
<g id="Row_5_1_">
</g>
<g id="Row_4_1_">
</g>
<g id="Row_3_1_">
</g>
<g id="Row_2_1_">
</g>
<g id="Row_1_1_">
	<g id="reply">
		<g>
			<path fill="#212121" d="M15.707,11.293l-3-3C12.526,8.112,12.276,8,12,8c-0.553,0-1,0.447-1,1c0,0.276,0.112,0.526,0.293,0.707
				L12.586,11H6c-2.209,0-4-1.791-4-4V1c0-0.553-0.447-1-1-1S0,0.447,0,1v6c0,3.313,2.687,6,6,6h6.586l-1.293,1.293
				C11.112,14.474,11,14.724,11,15c0,0.553,0.447,1,1,1c0.276,0,0.526-0.112,0.707-0.293l3-3C15.888,12.526,16,12.276,16,12
				S15.888,11.474,15.707,11.293z"/>
		</g>
	</g>
</g>
</svg>
