<?xml version="1.0" encoding="utf-8"?>
<!-- Generator: Adobe Illustrator 16.0.0, SVG Export Plug-In . SVG Version: 6.00 Build 0)  -->
<!DOCTYPE svg PUBLIC "-//W3C//DTD SVG 1.1//EN" "http://www.w3.org/Graphics/SVG/1.1/DTD/svg11.dtd">
<svg version="1.1" xmlns="http://www.w3.org/2000/svg" xmlns:xlink="http://www.w3.org/1999/xlink" x="0px" y="0px" width="16px"
	 height="16px" viewBox="0 0 16 16" enable-background="new 0 0 16 16" xml:space="preserve">
<g id="Layer_0_xA0_Image_1_">
</g>
<g id="Row_5_1_">
	<g id="right">
		<g>
			<path fill="#212121" d="M16,8c0-0.217-0.084-0.407-0.201-0.57l0.015-0.011l-0.066-0.067c-0.031-0.035-0.063-0.067-0.099-0.099
				L8.813,0.419L8.799,0.43C8.617,0.176,8.335,0,8,0C7.447,0,7,0.447,7,1c0,0.217,0.084,0.407,0.201,0.57L7.187,1.581l0.066,0.067
				c0.031,0.035,0.063,0.067,0.099,0.099L10.605,5H1C0.447,5,0,5.447,0,6v4c0,0.553,0.447,1,1,1h9.605l-3.254,3.253
				c-0.035,0.031-0.067,0.063-0.099,0.099l-0.066,0.067l0.015,0.011C7.084,14.593,7,14.783,7,15c0,0.553,0.447,1,1,1
				c0.335,0,0.617-0.176,0.799-0.43l0.015,0.011l6.835-6.834c0.035-0.031,0.067-0.063,0.099-0.099l0.066-0.067L15.799,8.57
				C15.916,8.407,16,8.217,16,8z M12.605,9H2V7h10.605l1,1L12.605,9z"/>
		</g>
	</g>
</g>
<g id="Row_4_1_">
</g>
<g id="Row_3_1_">
</g>
<g id="Row_2_1_">
</g>
<g id="Row_1_1_">
</g>
</svg>
