<?xml version="1.0" encoding="utf-8"?>
<!-- Generator: Adobe Illustrator 16.0.0, SVG Export Plug-In . SVG Version: 6.00 Build 0)  -->
<!DOCTYPE svg PUBLIC "-//W3C//DTD SVG 1.1//EN" "http://www.w3.org/Graphics/SVG/1.1/DTD/svg11.dtd">
<svg version="1.1" xmlns="http://www.w3.org/2000/svg" xmlns:xlink="http://www.w3.org/1999/xlink" x="0px" y="0px" width="16px"
	 height="16px" viewBox="0 0 16 16" enable-background="new 0 0 16 16" xml:space="preserve">
<g id="Layer_0_xA0_Image_1_">
</g>
<g id="Row_5_1_">
</g>
<g id="Row_4_1_">
</g>
<g id="Row_3_1_">
	<g id="rotate">
		<g>
			<path fill="#212121" d="M9,3c0-0.276-0.112-0.526-0.293-0.707l-2-2C6.526,0.112,6.276,0,6,0C5.447,0,5,0.447,5,1
				c0,0.276,0.112,0.526,0.293,0.707l0.339,0.339C3.121,2.325,0.92,4.031,0.227,6.524c-0.888,3.189,1.056,6.391,4.31,7.347
				C4.677,13.946,4.83,14,5,14c0.553,0,1-0.447,1-1c0-0.503-0.378-0.901-0.861-0.972C2.96,11.394,1.677,9.184,2.27,7.052
				C2.691,5.537,3.952,4.47,5.438,4.147L5.293,4.293C5.112,4.474,5,4.724,5,5c0,0.553,0.447,1,1,1c0.276,0,0.526-0.112,0.707-0.293
				l2-2C8.888,3.526,9,3.276,9,3z M11.464,2.129C11.323,2.054,11.171,2,11,2c-0.553,0-1,0.447-1,1c0,0.492,0.361,0.882,0.83,0.966
				c2.198,0.622,3.496,2.853,2.9,5c-0.425,1.53-1.701,2.606-3.202,2.92l0.179-0.179C10.888,11.526,11,11.276,11,11
				c0-0.553-0.447-1-1-1c-0.276,0-0.526,0.112-0.707,0.293l-2,2C7.112,12.474,7,12.724,7,13s0.112,0.526,0.293,0.707l2,2
				C9.474,15.888,9.724,16,10,16c0.553,0,1-0.447,1-1c0-0.276-0.112-0.526-0.293-0.707l-0.309-0.309
				c2.498-0.291,4.684-2,5.375-4.489C16.661,6.297,14.718,3.088,11.464,2.129z"/>
		</g>
	</g>
</g>
<g id="Row_2_1_">
</g>
<g id="Row_1_1_">
</g>
</svg>
