<?xml version="1.0" encoding="utf-8"?>
<!-- Generator: Adobe Illustrator 16.0.0, SVG Export Plug-In . SVG Version: 6.00 Build 0)  -->
<!DOCTYPE svg PUBLIC "-//W3C//DTD SVG 1.1//EN" "http://www.w3.org/Graphics/SVG/1.1/DTD/svg11.dtd">
<svg version="1.1" xmlns="http://www.w3.org/2000/svg" xmlns:xlink="http://www.w3.org/1999/xlink" x="0px" y="0px" width="16px"
	 height="16px" viewBox="0 0 16 16" enable-background="new 0 0 16 16" xml:space="preserve">
<g id="Layer_0_xA0_Image_1_">
</g>
<g id="Row_5_1_">
</g>
<g id="Row_4_1_">
	<g id="small_thumbnails">
		<g>
			<path fill="#212121" d="M3,6H1C0.447,6,0,6.447,0,7v2c0,0.553,0.447,1,1,1h2c0.553,0,1-0.447,1-1V7C4,6.447,3.553,6,3,6z M3,0H1
				C0.447,0,0,0.447,0,1v2c0,0.553,0.447,1,1,1h2c0.553,0,1-0.447,1-1V1C4,0.447,3.553,0,3,0z M9,12H7c-0.553,0-1,0.447-1,1v2
				c0,0.553,0.447,1,1,1h2c0.553,0,1-0.447,1-1v-2C10,12.447,9.553,12,9,12z M15,0h-2c-0.553,0-1,0.447-1,1v2c0,0.553,0.447,1,1,1h2
				c0.553,0,1-0.447,1-1V1C16,0.447,15.553,0,15,0z M3,12H1c-0.553,0-1,0.447-1,1v2c0,0.553,0.447,1,1,1h2c0.553,0,1-0.447,1-1v-2
				C4,12.447,3.553,12,3,12z M15,6h-2c-0.553,0-1,0.447-1,1v2c0,0.553,0.447,1,1,1h2c0.553,0,1-0.447,1-1V7C16,6.447,15.553,6,15,6z
				 M15,12h-2c-0.553,0-1,0.447-1,1v2c0,0.553,0.447,1,1,1h2c0.553,0,1-0.447,1-1v-2C16,12.447,15.553,12,15,12z M9,0H7
				C6.447,0,6,0.447,6,1v2c0,0.553,0.447,1,1,1h2c0.553,0,1-0.447,1-1V1C10,0.447,9.553,0,9,0z M9,6H7C6.447,6,6,6.447,6,7v2
				c0,0.553,0.447,1,1,1h2c0.553,0,1-0.447,1-1V7C10,6.447,9.553,6,9,6z"/>
		</g>
	</g>
</g>
<g id="Row_3_1_">
</g>
<g id="Row_2_1_">
</g>
<g id="Row_1_1_">
</g>
</svg>
