<?xml version="1.0" encoding="utf-8"?>
<!-- Generator: Adobe Illustrator 16.0.0, SVG Export Plug-In . SVG Version: 6.00 Build 0)  -->
<!DOCTYPE svg PUBLIC "-//W3C//DTD SVG 1.1//EN" "http://www.w3.org/Graphics/SVG/1.1/DTD/svg11.dtd">
<svg version="1.1" xmlns="http://www.w3.org/2000/svg" xmlns:xlink="http://www.w3.org/1999/xlink" x="0px" y="0px" width="16px"
	 height="16px" viewBox="0 0 16 16" enable-background="new 0 0 16 16" xml:space="preserve">
<g id="Layer_0_xA0_Image_1_">
</g>
<g id="Row_5_1_">
	<g id="switch">
		<g>
			<path fill="#212121" d="M5,6C3.896,6,3,6.896,3,8s0.896,2,2,2s2-0.896,2-2S6.104,6,5,6z M11,3H5C2.238,3,0,5.238,0,8s2.238,5,5,5
				h6c2.762,0,5-2.238,5-5S13.762,3,11,3z M11,11H5c-1.657,0-3-1.343-3-3s1.343-3,3-3h6c1.657,0,3,1.343,3,3S12.657,11,11,11z"/>
		</g>
	</g>
</g>
<g id="Row_4_1_">
</g>
<g id="Row_3_1_">
</g>
<g id="Row_2_1_">
</g>
<g id="Row_1_1_">
</g>
</svg>
