<?xml version="1.0" encoding="utf-8"?>
<!-- Generator: Adobe Illustrator 16.0.0, SVG Export Plug-In . SVG Version: 6.00 Build 0)  -->
<!DOCTYPE svg PUBLIC "-//W3C//DTD SVG 1.1//EN" "http://www.w3.org/Graphics/SVG/1.1/DTD/svg11.dtd">
<svg version="1.1" xmlns="http://www.w3.org/2000/svg" xmlns:xlink="http://www.w3.org/1999/xlink" x="0px" y="0px" width="16px"
	 height="16px" viewBox="0 0 16 16" enable-background="new 0 0 16 16" xml:space="preserve">
<g id="Layer_0_xA0_Image_1_">
</g>
<g id="Row_5_1_">
</g>
<g id="Row_4_1_">
	<g id="thumbnail_list">
		<g>
			<path fill-rule="evenodd" clip-rule="evenodd" fill="#212121" d="M0,4h4V0H0V4z M0,10h4V6H0V10z M0,16h4v-4H0V16z M7,3h8
				c0.553,0,1-0.447,1-1s-0.447-1-1-1H7C6.447,1,6,1.447,6,2S6.447,3,7,3z M15,7H7C6.447,7,6,7.447,6,8s0.447,1,1,1h8
				c0.553,0,1-0.447,1-1S15.553,7,15,7z M15,13H7c-0.553,0-1,0.447-1,1s0.447,1,1,1h8c0.553,0,1-0.447,1-1S15.553,13,15,13z"/>
		</g>
	</g>
</g>
<g id="Row_3_1_">
</g>
<g id="Row_2_1_">
</g>
<g id="Row_1_1_">
</g>
</svg>
