<?xml version="1.0" encoding="utf-8"?>
<!-- Generator: Adobe Illustrator 16.0.0, SVG Export Plug-In . SVG Version: 6.00 Build 0)  -->
<!DOCTYPE svg PUBLIC "-//W3C//DTD SVG 1.1//EN" "http://www.w3.org/Graphics/SVG/1.1/DTD/svg11.dtd">
<svg version="1.1" xmlns="http://www.w3.org/2000/svg" xmlns:xlink="http://www.w3.org/1999/xlink" x="0px" y="0px" width="16px"
	 height="16px" viewBox="0 0 16 16" enable-background="new 0 0 16 16" xml:space="preserve">
<g id="Layer_0_xA0_Image_1_">
</g>
<g id="Row_5_1_">
</g>
<g id="Row_4_1_">
</g>
<g id="Row_3_1_">
</g>
<g id="Row_2_1_">
	<g id="up_down">
		<g>
			<path fill="#212121" d="M7,12c-0.276,0-0.526,0.112-0.707,0.293L6,12.586V1c0-0.553-0.447-1-1-1S4,0.447,4,1v11.586l-0.293-0.293
				C3.526,12.112,3.276,12,3,12c-0.553,0-1,0.447-1,1c0,0.276,0.112,0.526,0.293,0.707l2,2C4.474,15.888,4.724,16,5,16
				s0.526-0.112,0.707-0.293l2-2C7.888,13.526,8,13.276,8,13C8,12.447,7.553,12,7,12z M13.707,2.293l-2-2
				C11.526,0.112,11.276,0,11,0s-0.526,0.112-0.707,0.293l-2,2C8.112,2.474,8,2.724,8,3c0,0.553,0.447,1,1,1
				c0.276,0,0.526-0.112,0.707-0.293L10,3.414V15c0,0.553,0.447,1,1,1s1-0.447,1-1V3.414l0.293,0.293C12.474,3.888,12.724,4,13,4
				c0.553,0,1-0.447,1-1C14,2.724,13.888,2.474,13.707,2.293z"/>
		</g>
	</g>
</g>
<g id="Row_1_1_">
</g>
</svg>
