<?xml version="1.0" encoding="utf-8"?>
<!-- Generator: Adobe Illustrator 16.0.0, SVG Export Plug-In . SVG Version: 6.00 Build 0)  -->
<!DOCTYPE svg PUBLIC "-//W3C//DTD SVG 1.1//EN" "http://www.w3.org/Graphics/SVG/1.1/DTD/svg11.dtd">
<svg version="1.1" xmlns="http://www.w3.org/2000/svg" xmlns:xlink="http://www.w3.org/1999/xlink" x="0px" y="0px" width="16px"
	 height="16px" viewBox="0 0 16 16" enable-background="new 0 0 16 16" xml:space="preserve">
<g id="Layer_0_xA0_Image_1_">
</g>
<g id="Row_5_1_">
</g>
<g id="Row_4_1_">
	<g id="acorn">
		<g>
			<path fill="#212121" d="M13.5,3H9c0-1.657-1.343-3-3-3C5.447,0,5,0.447,5,1s0.447,1,1,1s1,0.447,1,1H2.5C1.119,3,0,4.119,0,5.5
				C0,5.314,0,7,0,7c0,0.553,0.447,1,1,1c0,5.956,7,8,7,8s7-2.046,7-8c0.553,0,1-0.447,1-1c0,0,0-1.686,0-1.5
				C16,4.119,14.881,3,13.5,3z M8,14c0,0-5-1.749-5-6h10C13,12.249,8,14,8,14z M13.5,6h-11C2.224,6,2,5.776,2,5.5S2.224,5,2.5,5h11
				C13.776,5,14,5.224,14,5.5S13.776,6,13.5,6z"/>
		</g>
	</g>
</g>
<g id="Row_3_1_">
</g>
<g id="Row_2_1_">
</g>
<g id="Row_1_1_">
</g>
</svg>
