<?xml version="1.0" encoding="utf-8"?>
<!-- Generator: Adobe Illustrator 16.0.0, SVG Export Plug-In . SVG Version: 6.00 Build 0)  -->
<!DOCTYPE svg PUBLIC "-//W3C//DTD SVG 1.1//EN" "http://www.w3.org/Graphics/SVG/1.1/DTD/svg11.dtd">
<svg version="1.1" xmlns="http://www.w3.org/2000/svg" xmlns:xlink="http://www.w3.org/1999/xlink" x="0px" y="0px" width="16px"
	 height="16px" viewBox="0 0 16 16" enable-background="new 0 0 16 16" xml:space="preserve">
<g id="Layer_0_xA0_Image_1_">
</g>
<g id="Row_5_1_">
	<g id="avocado">
		<g>
			<path fill="#212121" d="M12,5V4c0-2.209-1.791-4-4-4S4,1.791,4,4v1c0,1.942-2,2.542-2,5c0,3.313,2.687,6,6,6s6-2.687,6-6
				C14,7.479,12,6.974,12,5z M8,14c-2.209,0-4-1.929-4-4c0-1.536,2-2.786,2-4V4c0-1.006,0.996-2,2-2s2,0.994,2,2v2
				c0,1.233,2,2.425,2,4C12,12.071,10.209,14,8,14z M8,8c-1.104,0-2,0.896-2,2s0.896,2,2,2s2-0.896,2-2S9.104,8,8,8z"/>
		</g>
	</g>
</g>
<g id="Row_4_1_">
</g>
<g id="Row_3_1_">
</g>
<g id="Row_2_1_">
</g>
<g id="Row_1_1_">
</g>
</svg>
