<?xml version="1.0" encoding="utf-8"?>
<!-- Generator: Adobe Illustrator 16.0.0, SVG Export Plug-In . SVG Version: 6.00 Build 0)  -->
<!DOCTYPE svg PUBLIC "-//W3C//DTD SVG 1.1//EN" "http://www.w3.org/Graphics/SVG/1.1/DTD/svg11.dtd">
<svg version="1.1" xmlns="http://www.w3.org/2000/svg" xmlns:xlink="http://www.w3.org/1999/xlink" x="0px" y="0px" width="16px"
	 height="16px" viewBox="0 0 16 16" enable-background="new 0 0 16 16" xml:space="preserve">
<g id="Layer_0_xA0_Image_1_">
</g>
<g id="Row_5_1_">
</g>
<g id="Row_4_1_">
</g>
<g id="Row_3_1_">
</g>
<g id="Row_2_1_">
	<g id="birds">
		<g>
			<path fill="#212121" d="M13.869,1.5c-0.811-1.435-2.607-1.926-4.011-1.098C9.203,0.788,8.76,1.396,8.543,2.076
				C7.858,1.928,7.12,2.017,6.466,2.402C5.063,3.23,4.581,5.065,5.391,6.5c0.271,0.479,0.87,0.643,1.338,0.366
				S7.357,5.979,7.087,5.5c-0.271-0.478-0.11-1.09,0.358-1.365C7.914,3.858,8.512,4.022,8.782,4.5
				c0.27,0.479,0.869,0.643,1.338,0.366c0.467-0.276,0.628-0.888,0.358-1.366c-0.271-0.478-0.11-1.09,0.358-1.365
				c0.469-0.276,1.067-0.112,1.337,0.365c0.271,0.479,0.87,0.643,1.337,0.366C13.978,2.59,14.139,1.979,13.869,1.5z M6.86,9.402
				c-0.655,0.386-1.099,0.994-1.314,1.674c-0.685-0.148-1.423-0.06-2.077,0.326C2.065,12.23,1.583,14.065,2.394,15.5
				c0.271,0.479,0.87,0.643,1.338,0.366S4.36,14.979,4.089,14.5c-0.27-0.478-0.11-1.09,0.358-1.365
				c0.468-0.276,1.066-0.112,1.337,0.365c0.27,0.479,0.869,0.643,1.337,0.366C7.59,13.59,7.75,12.979,7.48,12.5
				c-0.271-0.478-0.11-1.09,0.358-1.365c0.469-0.276,1.067-0.112,1.337,0.365c0.271,0.479,0.87,0.643,1.337,0.366
				c0.468-0.276,0.629-0.888,0.359-1.366C10.061,9.065,8.264,8.574,6.86,9.402z"/>
		</g>
	</g>
</g>
<g id="Row_1_1_">
</g>
</svg>
