<?xml version="1.0" encoding="utf-8"?>
<!-- Generator: Adobe Illustrator 16.0.0, SVG Export Plug-In . SVG Version: 6.00 Build 0)  -->
<!DOCTYPE svg PUBLIC "-//W3C//DTD SVG 1.1//EN" "http://www.w3.org/Graphics/SVG/1.1/DTD/svg11.dtd">
<svg version="1.1" xmlns="http://www.w3.org/2000/svg" xmlns:xlink="http://www.w3.org/1999/xlink" x="0px" y="0px" width="16px"
	 height="16.001px" viewBox="0 0 16 16.001" enable-background="new 0 0 16 16.001" xml:space="preserve">
<g id="Layer_0_xA0_Image_1_">
</g>
<g id="Row_5_1_">
	<g id="carrot">
		<g>
			<path fill="#212121" d="M15.837,14.447l0.018-0.01L8.86,3.244C8.759,3.015,8.62,2.797,8.432,2.608
				c-0.805-0.804-2.107-0.804-2.912,0L5.152,2.977c0.009-0.482,0.19-0.963,0.556-1.33c0.375-0.376,0.375-0.987,0-1.364
				c-0.374-0.376-0.982-0.376-1.357,0C3.536,1.103,3.18,2.197,3.252,3.269C2.185,3.197,1.096,3.555,0.281,4.374
				c-0.375,0.377-0.375,0.986,0,1.363c0.374,0.377,0.982,0.377,1.357,0C2,5.373,2.472,5.193,2.946,5.182L2.609,5.52
				c-0.804,0.805-0.804,2.107,0,2.912C2.797,8.62,3.014,8.76,3.244,8.86l11.191,6.995l0.011-0.018
				c0.397,0.248,0.917,0.218,1.263-0.128C16.055,15.365,16.085,14.844,15.837,14.447z M4.065,6.977l2.91-2.912l4.77,7.681
				L4.065,6.977z"/>
		</g>
	</g>
</g>
<g id="Row_4_1_">
</g>
<g id="Row_3_1_">
</g>
<g id="Row_2_1_">
</g>
<g id="Row_1_1_">
</g>
</svg>
