<?xml version="1.0" encoding="utf-8"?>
<!-- Generator: Adobe Illustrator 16.0.0, SVG Export Plug-In . SVG Version: 6.00 Build 0)  -->
<!DOCTYPE svg PUBLIC "-//W3C//DTD SVG 1.1//EN" "http://www.w3.org/Graphics/SVG/1.1/DTD/svg11.dtd">
<svg version="1.1" xmlns="http://www.w3.org/2000/svg" xmlns:xlink="http://www.w3.org/1999/xlink" x="0px" y="0px" width="16px"
	 height="16px" viewBox="0 0 16 16" enable-background="new 0 0 16 16" xml:space="preserve">
<g id="Layer_0_xA0_Image_1_">
</g>
<g id="Row_5_1_">
	<g id="cereal">
		<g>
			<path fill="#212121" d="M3.888,4.938c0.31-0.012,0.715,0.04,1.007-0.037c0.078-0.293,0.026-0.698,0.038-1.008
				c0.081-2.228-1.657-3.967-3.882-3.886c-0.31,0.012-0.715-0.04-1.007,0.037c-0.078,0.292-0.025,0.697-0.037,1.008
				C-0.075,3.278,1.665,5.019,3.888,4.938z M15.707,14.293l-3.844-3.838c1.532-1.536,1.532-4.025-0.002-5.561
				c-0.213-0.214-0.449-0.541-0.694-0.695c-0.246,0.154-0.481,0.481-0.695,0.695c-1.535,1.536-1.535,4.026,0,5.563
				c0.065,0.064,0.135,0.146,0.204,0.225c-0.083-0.073-0.169-0.147-0.239-0.217c-1.516-1.517-3.974-1.517-5.489,0
				c-0.211,0.212-0.534,0.444-0.687,0.688c0.152,0.242,0.475,0.476,0.687,0.687c1.513,1.514,3.962,1.516,5.479,0.009l3.864,3.858
				C14.472,15.888,14.722,16,14.999,16C15.552,16,16,15.553,16,15C16,14.724,15.888,14.474,15.707,14.293z M8.387,6.98
				c1.535-1.536,1.535-4.027,0-5.563C8.173,1.203,7.938,0.876,7.693,0.722C7.446,0.876,7.212,1.203,6.998,1.417
				c-1.535,1.536-1.535,4.027,0,5.563c0.236,0.235,0.206,0.248-0.034,0.009c-1.516-1.518-3.974-1.518-5.49,0
				C1.262,7.2,0.939,7.434,0.787,7.676c0.152,0.243,0.475,0.476,0.687,0.688c1.516,1.517,3.974,1.517,5.49,0
				C7.703,7.623,7.869,7.5,8.387,6.98z"/>
		</g>
	</g>
</g>
<g id="Row_4_1_">
</g>
<g id="Row_3_1_">
</g>
<g id="Row_2_1_">
</g>
<g id="Row_1_1_">
</g>
</svg>
