<?xml version="1.0" encoding="utf-8"?>
<!-- Generator: Adobe Illustrator 16.0.0, SVG Export Plug-In . SVG Version: 6.00 Build 0)  -->
<!DOCTYPE svg PUBLIC "-//W3C//DTD SVG 1.1//EN" "http://www.w3.org/Graphics/SVG/1.1/DTD/svg11.dtd">
<svg version="1.1" xmlns="http://www.w3.org/2000/svg" xmlns:xlink="http://www.w3.org/1999/xlink" x="0px" y="0px" width="16px"
	 height="16px" viewBox="0 0 16 16" enable-background="new 0 0 16 16" xml:space="preserve">
<g id="Layer_0_xA0_Image_1_">
</g>
<g id="Row_5_1_">
</g>
<g id="Row_4_1_">
</g>
<g id="Row_3_1_">
	<g id="fir_tree_1">
		<g>
			<path fill="#212121" d="M14,11c-2.762,0-5-2.238-5-5V5.465C10.062,6.417,11.461,7,13,7c0.553,0,1-0.447,1-1s-0.447-1-1-1
				c-2.209,0-4-1.791-4-4c0-0.553-0.447-1-1-1S7,0.447,7,1c0,2.209-1.791,4-4,4C2.447,5,2,5.447,2,6s0.447,1,1,1
				c1.539,0,2.938-0.583,4-1.535V6c0,2.762-2.238,5-5,5c-0.553,0-1,0.447-1,1s0.447,1,1,1c1.965,0,3.73-0.817,5-2.122V15
				c0,0.553,0.447,1,1,1s1-0.447,1-1v-4.122C10.27,12.183,12.035,13,14,13c0.553,0,1-0.447,1-1S14.553,11,14,11z"/>
		</g>
	</g>
</g>
<g id="Row_2_1_">
</g>
<g id="Row_1_1_">
</g>
</svg>
