<?xml version="1.0" encoding="utf-8"?>
<!-- Generator: Adobe Illustrator 16.0.0, SVG Export Plug-In . SVG Version: 6.00 Build 0)  -->
<!DOCTYPE svg PUBLIC "-//W3C//DTD SVG 1.1//EN" "http://www.w3.org/Graphics/SVG/1.1/DTD/svg11.dtd">
<svg version="1.1" xmlns="http://www.w3.org/2000/svg" xmlns:xlink="http://www.w3.org/1999/xlink" x="0px" y="0px" width="16px"
	 height="16px" viewBox="0 0 16 16" enable-background="new 0 0 16 16" xml:space="preserve">
<g id="Layer_0_xA0_Image_1_">
</g>
<g id="Row_5_1_">
</g>
<g id="Row_4_1_">
</g>
<g id="Row_3_1_">
	<g id="fir_tree_2">
		<g>
			<path fill="#212121" d="M13.906,11.588l0.004-0.002l-5-11L8.906,0.588C8.749,0.243,8.404,0,8,0S7.251,0.243,7.094,0.588
				L7.09,0.586l-5,11l0.004,0.002C2.036,11.715,2,11.852,2,12c0,0.553,0.447,1,1,1h4v2c0,0.553,0.447,1,1,1s1-0.447,1-1v-2h4
				c0.553,0,1-0.447,1-1C14,11.852,13.964,11.715,13.906,11.588z M7,11H4.553L7,5.616V11z M9,11V5.616L11.447,11H9z"/>
		</g>
	</g>
</g>
<g id="Row_2_1_">
</g>
<g id="Row_1_1_">
</g>
</svg>
