<?xml version="1.0" encoding="utf-8"?>
<!-- Generator: Adobe Illustrator 16.0.0, SVG Export Plug-In . SVG Version: 6.00 Build 0)  -->
<!DOCTYPE svg PUBLIC "-//W3C//DTD SVG 1.1//EN" "http://www.w3.org/Graphics/SVG/1.1/DTD/svg11.dtd">
<svg version="1.1" xmlns="http://www.w3.org/2000/svg" xmlns:xlink="http://www.w3.org/1999/xlink" x="0px" y="0px" width="16px"
	 height="16px" viewBox="0 0 16 16" enable-background="new 0 0 16 16" xml:space="preserve">
<g id="Layer_0_xA0_Image_1_">
</g>
<g id="Row_5_1_">
</g>
<g id="Row_4_1_">
</g>
<g id="Row_3_1_">
</g>
<g id="Row_2_1_">
	<g id="flower_2">
		<g>
			<path fill="#212121" d="M15.818,5.764c-0.555-1.848-2.234-2.959-3.953-2.738C11.426,1.29,9.87,0,8,0S4.572,1.29,4.134,3.026
				c-1.719-0.221-3.398,0.89-3.953,2.738c-0.497,1.653,0.063,3.391,1.266,4.396c-0.883,1.732-0.419,3.896,1.197,5.078
				c1.691,1.235,4.01,0.928,5.355-0.629c1.346,1.557,3.664,1.864,5.355,0.629c1.612-1.178,2.079-3.335,1.203-5.067
				C15.761,9.174,16.314,7.417,15.818,5.764z M13.34,8.62c-0.25-0.207-0.536-0.35-0.85-0.462C12.344,8.073,12.182,8.01,12,8.01
				c-0.553,0-1,0.448-1,1.001c0,0.38,0.22,0.7,0.532,0.869c0,0.001-0.001,0.006-0.001,0.007c0.012,0.005,0.02,0.009,0.03,0.014
				c0.032,0.016,0.063,0.03,0.097,0.042c0.489,0.207,0.708,0.376,0.976,0.886c0.629,0.896,0.432,2.136-0.454,2.782
				c-0.894,0.653-2.145,0.454-2.794-0.445c-0.174-0.241-0.29-0.41-0.354-0.591c0.005-0.171,0.001-0.347-0.032-0.56
				c0-0.554-0.447-1.001-1-1.001s-1,0.448-1,1.001c-0.033,0.213-0.037,0.389-0.032,0.56c-0.063,0.181-0.18,0.35-0.354,0.591
				c-0.649,0.898-1.9,1.098-2.794,0.445c-0.872-0.637-1.068-1.846-0.474-2.74c0.317-0.413,0.466-0.619,1.031-0.935
				C4.742,9.787,5,9.43,5,9.012C5,8.458,4.552,8.01,4,8.01c-0.183,0-0.345,0.063-0.491,0.147c-0.313,0.112-0.6,0.255-0.85,0.462
				C2.009,8.127,1.684,7.242,1.942,6.383C2.249,5.36,3.246,4.795,4.195,5.079c0.39,0.172,0.864,0.502,1.166,0.682
				C5.535,5.909,5.753,6.008,6,6.008c0.553,0,1-0.449,1-1.001c0-0.292-0.13-0.55-0.33-0.733c-0.244-0.196-0.253-0.158-0.65-0.458
				C6.116,2.799,6.96,2.002,8,2.002s1.884,0.797,1.98,1.812C9.814,3.94,9.708,4.017,9.621,4.082C9.256,4.232,9,4.588,9,5.006
				c0,0.553,0.447,1.001,1,1.001c0.284,0,0.538-0.122,0.72-0.312c0.285-0.213,0.649-0.515,1.085-0.617
				c0.949-0.283,1.946,0.282,2.253,1.305C14.315,7.242,13.99,8.127,13.34,8.62z"/>
		</g>
	</g>
</g>
<g id="Row_1_1_">
</g>
</svg>
