<?xml version="1.0" encoding="utf-8"?>
<!-- Generator: Adobe Illustrator 16.0.0, SVG Export Plug-In . SVG Version: 6.00 Build 0)  -->
<!DOCTYPE svg PUBLIC "-//W3C//DTD SVG 1.1//EN" "http://www.w3.org/Graphics/SVG/1.1/DTD/svg11.dtd">
<svg version="1.1" xmlns="http://www.w3.org/2000/svg" xmlns:xlink="http://www.w3.org/1999/xlink" x="0px" y="0px" width="16px"
	 height="16px" viewBox="0 0 16 16" enable-background="new 0 0 16 16" xml:space="preserve">
<g id="Layer_0_xA0_Image_1_">
</g>
<g id="Row_5_1_">
</g>
<g id="Row_4_1_">
</g>
<g id="Row_3_1_">
	<g id="full_moon">
		<g>
			<path fill="#212121" d="M8,4c0-0.553-0.447-1-1-1S6,3.447,6,4s0.447,1,1,1S8,4.553,8,4z M8,8C7.447,8,7,8.447,7,9s0.447,1,1,1
				s1-0.447,1-1S8.553,8,8,8z M10,10c-0.553,0-1,0.447-1,1s0.447,1,1,1s1-0.447,1-1S10.553,10,10,10z M11,5H9C8.447,5,8,5.447,8,6
				s0.447,1,1,1h1v2c0,0.553,0.447,1,1,1s1-0.447,1-1V6C12,5.447,11.553,5,11,5z M8,0C3.582,0,0,3.582,0,8s3.582,8,8,8s8-3.582,8-8
				S12.418,0,8,0z M8,14c-3.313,0-6-2.687-6-6s2.687-6,6-6s6,2.687,6,6S11.313,14,8,14z"/>
		</g>
	</g>
</g>
<g id="Row_2_1_">
</g>
<g id="Row_1_1_">
</g>
</svg>
