<?xml version="1.0" encoding="utf-8"?>
<!-- Generator: Adobe Illustrator 16.0.0, SVG Export Plug-In . SVG Version: 6.00 Build 0)  -->
<!DOCTYPE svg PUBLIC "-//W3C//DTD SVG 1.1//EN" "http://www.w3.org/Graphics/SVG/1.1/DTD/svg11.dtd">
<svg version="1.1" xmlns="http://www.w3.org/2000/svg" xmlns:xlink="http://www.w3.org/1999/xlink" x="0px" y="0px" width="16px"
	 height="16.001px" viewBox="0 0 16 16.001" enable-background="new 0 0 16 16.001" xml:space="preserve">
<g id="Layer_0_xA0_Image_1_">
</g>
<g id="Row_5_1_">
	<g id="grapes">
		<g>
			<path fill="#212121" d="M14,6.081c0-1.644-1.329-2.976-2.969-2.976c-0.351,0-0.68,0.077-0.989,0.19V2.113
				c0-0.549-0.442-0.992-0.989-0.992C8.949,0.584,8.598,0.24,8.063,0.129C4.297-0.656,1.345,2.251,2.126,6.081
				c0.109,0.536,0.453,0.888,0.989,0.992C3.351,7.118,3.581,7.148,3.81,7.166C3.382,7.682,3.115,8.335,3.115,9.057
				c0,1.374,0.934,2.519,2.196,2.861c-0.137,0.343-0.217,0.715-0.217,1.106c0,1.645,1.328,2.977,2.968,2.977
				s2.969-1.332,2.969-2.977c1.64,0,2.969-1.332,2.969-2.976c0-0.766-0.297-1.457-0.771-1.984C13.703,7.538,14,6.847,14,6.081z
				 M4.104,5.089C3.767,3.121,5.35,1.771,7.073,2.113C7.421,3.957,5.945,5.433,4.104,5.089z M6.084,10.049
				c-0.547,0-0.989-0.443-0.989-0.992c0-0.548,0.442-0.992,0.989-0.992s0.989,0.444,0.989,0.992
				C7.073,9.605,6.631,10.049,6.084,10.049z M8.063,14.017c-0.547,0-0.989-0.443-0.989-0.992c0-0.548,0.442-0.992,0.989-0.992
				s0.99,0.444,0.99,0.992C9.053,13.573,8.609,14.017,8.063,14.017z M11.031,11.041c-0.547,0-0.989-0.444-0.989-0.992
				s0.442-0.992,0.989-0.992s0.989,0.444,0.989,0.992S11.578,11.041,11.031,11.041z M11.031,7.073c-0.547,0-0.989-0.444-0.989-0.992
				c0-0.549,0.442-0.992,0.989-0.992s0.989,0.443,0.989,0.992C12.021,6.629,11.578,7.073,11.031,7.073z"/>
		</g>
	</g>
</g>
<g id="Row_4_1_">
</g>
<g id="Row_3_1_">
</g>
<g id="Row_2_1_">
</g>
<g id="Row_1_1_">
</g>
</svg>
