<?xml version="1.0" encoding="utf-8"?>
<!-- Generator: Adobe Illustrator 16.0.0, SVG Export Plug-In . SVG Version: 6.00 Build 0)  -->
<!DOCTYPE svg PUBLIC "-//W3C//DTD SVG 1.1//EN" "http://www.w3.org/Graphics/SVG/1.1/DTD/svg11.dtd">
<svg version="1.1" xmlns="http://www.w3.org/2000/svg" xmlns:xlink="http://www.w3.org/1999/xlink" x="0px" y="0px" width="16px"
	 height="16px" viewBox="0 0 16 16" enable-background="new 0 0 16 16" xml:space="preserve">
<g id="Layer_0_xA0_Image_1_">
</g>
<g id="Row_5_1_">
</g>
<g id="Row_4_1_">
</g>
<g id="Row_3_1_">
	<g id="moon">
		<g>
			<path fill="#212121" d="M14,12c-2.209,0-4-1.791-4-4s1.791-4,4-4c0.553,0,1-0.448,1-1c0-0.305-0.144-0.567-0.357-0.751
				C13.199,0.844,11.174,0,9,0C4.582,0,1,3.582,1,8s3.582,8,8,8c2.174,0,4.199-0.844,5.643-2.249C14.856,13.567,15,13.304,15,13
				C15,12.447,14.553,12,14,12z M9,14c-3.313,0-6-2.687-6-6s2.687-6,6-6c0.895,0,1.754,0.2,2.533,0.543C9.453,3.485,8,5.568,8,8
				s1.453,4.515,3.533,5.457C10.754,13.8,9.895,14,9,14z"/>
		</g>
	</g>
</g>
<g id="Row_2_1_">
</g>
<g id="Row_1_1_">
</g>
</svg>
