<?xml version="1.0" encoding="utf-8"?>
<!-- Generator: Adobe Illustrator 16.0.0, SVG Export Plug-In . SVG Version: 6.00 Build 0)  -->
<!DOCTYPE svg PUBLIC "-//W3C//DTD SVG 1.1//EN" "http://www.w3.org/Graphics/SVG/1.1/DTD/svg11.dtd">
<svg version="1.1" xmlns="http://www.w3.org/2000/svg" xmlns:xlink="http://www.w3.org/1999/xlink" x="0px" y="0px" width="16px"
	 height="16px" viewBox="0 0 16 16" enable-background="new 0 0 16 16" xml:space="preserve">
<g id="Layer_0_xA0_Image_1_">
</g>
<g id="Row_5_1_">
</g>
<g id="Row_4_1_">
</g>
<g id="Row_3_1_">
	<g id="mountains">
		<g>
			<path fill="#212121" d="M3,5c0.552,0,1-0.448,1-1c0-0.553-0.448-1-1-1C2.447,3,2,3.447,2,4C2,4.552,2.447,5,3,5z M15.707,8.293
				l-3-3C12.526,5.112,12.276,5,12,5s-0.526,0.112-0.707,0.293L9.498,7.088L7.759,5.35L7.75,5.356C7.566,5.143,7.304,5,7,5
				S6.433,5.143,6.25,5.356L6.24,5.35l-6,6l0.01,0.007C0.1,11.531,0,11.752,0,12c0,0.553,0.447,1,1,1
				c0.304,0,0.566-0.143,0.75-0.357l0.009,0.008L7,7.536l5.24,5.114l0.01-0.008C12.433,12.857,12.696,13,13,13c0.553,0,1-0.447,1-1
				c0-0.248-0.1-0.469-0.25-0.644l0.009-0.007l-2.847-2.848L12,7.414l2.293,2.293C14.474,9.888,14.724,10,15,10c0.553,0,1-0.447,1-1
				C16,8.724,15.888,8.474,15.707,8.293z"/>
		</g>
	</g>
</g>
<g id="Row_2_1_">
</g>
<g id="Row_1_1_">
</g>
</svg>
