<?xml version="1.0" encoding="utf-8"?>
<!-- Generator: Adobe Illustrator 16.0.0, SVG Export Plug-In . SVG Version: 6.00 Build 0)  -->
<!DOCTYPE svg PUBLIC "-//W3C//DTD SVG 1.1//EN" "http://www.w3.org/Graphics/SVG/1.1/DTD/svg11.dtd">
<svg version="1.1" xmlns="http://www.w3.org/2000/svg" xmlns:xlink="http://www.w3.org/1999/xlink" x="0px" y="0px"
	 width="15.999px" height="16px" viewBox="0 0 15.999 16" enable-background="new 0 0 15.999 16" xml:space="preserve">
<g id="Layer_0_xA0_Image_1_">
</g>
<g id="Row_5_1_">
</g>
<g id="Row_4_1_">
</g>
<g id="Row_3_1_">
</g>
<g id="Row_2_1_">
</g>
<g id="Row_1_1_">
	<g id="partly_cloudy">
		<g>
			<path fill="#212121" d="M1.271,12.55c0.049,0.021,0.047,0.021,0.024,0.01c-0.003-0.001-0.006-0.002-0.009-0.004
				C1.281,12.555,1.275,12.552,1.271,12.55z M7.57,7.056C7.569,7.063,7.563,7.066,7.562,7.073C7.559,7.098,7.56,7.103,7.57,7.056z
				 M15.933,9.327c-0.14-0.878-0.903-1.636-1.595-1.998c-0.191-0.099-0.381-0.175-0.571-0.226c-0.056-1.497-0.842-2.844-2.179-3.609
				c-0.942-0.54-2.022-0.627-3.041-0.301C7.885,1.897,6.551,1,4.994,1C2.783,1,0.991,2.791,0.991,5c0,0.987,0.371,1.879,0.964,2.577
				C1.879,7.814,1.834,8.06,1.825,8.31c-0.591,0.14-1.119,0.512-1.469,1.078c-0.243,0.394-0.372,0.911-0.355,1.419
				c0.039,1.104,1.163,1.688,1.294,1.753c4.207,1.781,8.702,1.921,13.013,0.354C14.011,13.021,16.426,12.427,15.933,9.327z M4.994,3
				c0.827,0,1.537,0.502,1.842,1.218C6.809,4.243,6.778,4.264,6.751,4.29C6.345,4.683,6.132,5.073,6.002,5.447
				C5.165,5.25,4.234,5.412,3.521,5.79C3.421,5.843,3.347,5.914,3.255,5.974C3.093,5.685,2.992,5.355,2.992,5
				C2.992,3.896,3.889,3,4.994,3z M13.753,11.114c-3.829,1.378-7.869,1.39-11.624-0.226c-0.216-0.175-0.381-0.164-0.168-0.513
				c0.209-0.339,0.534-0.244,0.664-0.188c0.364,0.159,0.793,0.071,1.066-0.221c0.272-0.293,0.331-0.726,0.146-1.079
				c-0.343-0.654,0.067-1.17,0.566-1.435c0.492-0.261,1.238-0.308,1.565,0.038C6.209,7.744,6.566,7.844,6.9,7.753
				c0.328-0.09,0.578-0.352,0.661-0.68c0.016-0.136,0.222-1.16,0.501-1.432c0.626-0.606,1.632-0.869,2.589-0.514
				c1.054,0.393,1.413,1.581,1.17,2.732c-0.073,0.352,0.054,0.716,0.337,0.938c0.249,0.194,1.583-0.142,1.915,0.826
				C14.293,10.295,14.192,10.891,13.753,11.114z"/>
		</g>
	</g>
</g>
</svg>
