<?xml version="1.0" encoding="utf-8"?>
<!-- Generator: Adobe Illustrator 16.0.0, SVG Export Plug-In . SVG Version: 6.00 Build 0)  -->
<!DOCTYPE svg PUBLIC "-//W3C//DTD SVG 1.1//EN" "http://www.w3.org/Graphics/SVG/1.1/DTD/svg11.dtd">
<svg version="1.1" xmlns="http://www.w3.org/2000/svg" xmlns:xlink="http://www.w3.org/1999/xlink" x="0px" y="0px" width="16px"
	 height="16px" viewBox="0 0 16 16" enable-background="new 0 0 16 16" xml:space="preserve">
<g id="Layer_0_xA0_Image_1_">
</g>
<g id="Row_5_1_">
</g>
<g id="Row_4_1_">
</g>
<g id="Row_3_1_">
</g>
<g id="Row_2_1_">
	<g id="plant">
		<g>
			<path fill="#212121" d="M2.094,5.092C2.066,5.118,1.675,7.223,2.731,8.278c1.055,1.057,3.178,0.645,3.185,0.638
				C5.942,8.89,6.335,6.785,5.279,5.729C4.224,4.673,2.101,5.085,2.094,5.092z M8,7C7.447,7,7,7.447,7,8v7c0,0.553,0.447,1,1,1
				s1-0.447,1-1V8C9,7.447,8.553,7,8,7z M8,0C7.989,0,6,1.343,6,3s1.958,3,2,3c0.011,0,2-1.343,2-3S8.042,0,8,0z M13.906,5.092
				c-0.007-0.007-2.13-0.419-3.186,0.638c-1.056,1.056-0.664,3.16-0.637,3.187c0.006,0.007,2.13,0.419,3.185-0.638
				C14.325,7.223,13.934,5.118,13.906,5.092z"/>
		</g>
	</g>
</g>
<g id="Row_1_1_">
</g>
</svg>
