<?xml version="1.0" encoding="utf-8"?>
<!-- Generator: Adobe Illustrator 16.0.0, SVG Export Plug-In . SVG Version: 6.00 Build 0)  -->
<!DOCTYPE svg PUBLIC "-//W3C//DTD SVG 1.1//EN" "http://www.w3.org/Graphics/SVG/1.1/DTD/svg11.dtd">
<svg version="1.1" xmlns="http://www.w3.org/2000/svg" xmlns:xlink="http://www.w3.org/1999/xlink" x="0px" y="0px" width="16px"
	 height="16px" viewBox="0 0 16 16" enable-background="new 0 0 16 16" xml:space="preserve">
<g id="Layer_0_xA0_Image_1_">
</g>
<g id="Row_5_1_">
</g>
<g id="Row_4_1_">
</g>
<g id="Row_3_1_">
</g>
<g id="Row_2_1_">
</g>
<g id="Row_1_1_">
	<g id="raindrops">
		<g>
			<path fill="#212121" d="M13,6c-0.032,0.028-3,3.343-3,5s1.343,3,3,3s3-1.343,3-3S13.048,5.958,13,6z M13,12
				c-0.553,0-1-0.504-1-1.125S12.989,9.011,13,9c0.016-0.016,1,1.254,1,1.875S13.553,12,13,12z M7,0C6.968,0.029,4,3.343,4,5
				s1.343,3,3,3s3-1.343,3-3S7.048-0.042,7,0z M7,6C6.447,6,6,5.497,6,4.875S6.989,3.011,7,3c0.016-0.016,1,1.254,1,1.875
				S7.553,6,7,6z M3,8c-0.032,0.028-3,3.343-3,5s1.343,3,3,3s3-1.343,3-3S3.048,7.958,3,8z M3,14c-0.553,0-1-0.504-1-1.125
				S2.989,11.011,3,11c0.016-0.016,1,1.254,1,1.875S3.553,14,3,14z"/>
		</g>
	</g>
</g>
</svg>
