<?xml version="1.0" encoding="utf-8"?>
<!-- Generator: Adobe Illustrator 16.0.0, SVG Export Plug-In . SVG Version: 6.00 Build 0)  -->
<!DOCTYPE svg PUBLIC "-//W3C//DTD SVG 1.1//EN" "http://www.w3.org/Graphics/SVG/1.1/DTD/svg11.dtd">
<svg version="1.1" xmlns="http://www.w3.org/2000/svg" xmlns:xlink="http://www.w3.org/1999/xlink" x="0px" y="0px" width="16px"
	 height="16px" viewBox="0 0 16 16" enable-background="new 0 0 16 16" xml:space="preserve">
<g id="Layer_0_xA0_Image_1_">
</g>
<g id="Row_5_1_">
</g>
<g id="Row_4_1_">
	<g id="seaweed">
		<g>
			<path fill="#212121" d="M15.293,5.574c-0.424-0.129-0.888,0.063-1.127,0.429c-0.132,0.683,0.19,1.304-0.753,1.785
				c0.082-0.657-0.04-3.038-0.225-3.795c0.369-0.169,0.737-0.464,1.045-0.965c0.007-0.012,0.665-1.177,0.461-1.967
				c-0.068-0.26-0.288-0.557-0.522-0.688c-0.475-0.267-1.073-0.097-1.339,0.379c-0.008,0.015-0.023,1.483-0.623,1.47
				c-0.179-0.006-0.724-0.024-0.732-1.242C11.474,0.438,11.035,0,10.495,0h-0.008c-0.543,0.004-0.98,0.45-0.977,0.995
				c0.01,1.418,0.594,2.479,1.554,2.944c0.297,1.197,0.449,3.992,0.233,5.566c-0.28,0.022-0.778-0.176-0.913-0.367
				c-0.115-0.162-0.007-1.18-0.067-1.56c-0.086-0.54-0.594-0.908-1.127-0.819C8.654,6.846,8.337,7.348,8.375,7.891
				c-0.004-0.064-0.246,1.488,0.407,2.394c0.352,0.487,0.892,0.81,1.451,0.999c-0.375,0.228-0.795,0.398-1.161,0.526
				c-0.604,0.212-1.076,0.252-1.488,0.124c-0.678-0.208-1.402-0.645-1.583-0.953c-0.396-0.68-0.482-1.737-0.502-2.644
				c1.228-0.466,1.988-1.978,1.6-3.237c-0.136-0.44-0.564-0.727-1.016-0.691C5.646,4.442,5.287,4.762,5.197,5.188
				c0-0.003,0-0.004,0-0.004c-0.089,0.22-0.025,0.49,0.017,0.763c-0.057,0.23-0.222,0.49-0.417,0.556
				c-0.197,0.063-0.484-0.05-0.699-0.277C3.928,6.047,3.792,5.779,3.869,5.584c0.197-0.509-0.054-1.081-0.561-1.278
				c-0.507-0.2-1.076,0.053-1.274,0.562C1.687,5.763,1.931,6.803,2.67,7.585c0.257,0.271,0.55,0.478,0.858,0.63
				c0.016,1.107,0.115,2.498,0.696,3.604c-0.186,0.097-0.412,0.184-0.561,0.2c-0.278,0.03-0.616-0.058-1.065-0.276
				c-0.445-0.217-0.628-0.759-0.632-1.872C1.965,9.326,1.525,8.887,0.983,8.887c0,0-0.002,0-0.003,0
				C0.436,8.889-0.002,9.332,0,9.877c0.003,0.766,0.01,2.799,1.738,3.641c0.439,0.214,1.08,0.481,1.817,0.481
				c-0.708,0,0.867,0.213,2.11-0.777c0.62,0.36,1.203,0.557,1.33,0.596V15c0,0.553,0.447,1,1,1s1-0.447,1-1v-1.129
				c0.236-0.05,0.476-0.109,0.726-0.197c0.763-0.266,1.732-0.669,2.464-1.426c0.668-0.689,0.912-1.58,1.04-2.318
				c0.825-0.144,1.708-0.704,1.979-1.001c0.582-0.637,0.86-1.508,0.784-2.457C15.962,6.065,15.691,5.696,15.293,5.574z"/>
		</g>
	</g>
</g>
<g id="Row_3_1_">
</g>
<g id="Row_2_1_">
</g>
<g id="Row_1_1_">
</g>
</svg>
