<?xml version="1.0" encoding="utf-8"?>
<!-- Generator: Adobe Illustrator 16.0.0, SVG Export Plug-In . SVG Version: 6.00 Build 0)  -->
<!DOCTYPE svg PUBLIC "-//W3C//DTD SVG 1.1//EN" "http://www.w3.org/Graphics/SVG/1.1/DTD/svg11.dtd">
<svg version="1.1" xmlns="http://www.w3.org/2000/svg" xmlns:xlink="http://www.w3.org/1999/xlink" x="0px" y="0px"
	 width="15.999px" height="16px" viewBox="0 0 15.999 16" enable-background="new 0 0 15.999 16" xml:space="preserve">
<g id="Layer_0_xA0_Image_1_">
</g>
<g id="Row_5_1_">
</g>
<g id="Row_4_1_">
</g>
<g id="Row_3_1_">
	<g id="shell">
		<g>
			<path fill="#212121" d="M8.774,0.999C3.929,0.999,0,4.863,0,10.002c0,0,0.938,2,3.462,2c0.678,0,1.379-0.308,1.874-0.582
				C6.007,13.494,7.844,15,10.023,15c3.295,0,5.976-2.844,5.976-6.338C15.999,4.437,12.758,0.999,8.774,0.999z M10.023,12.929
				c-1.666,0-3.022-1.438-3.022-3.206c0-1.301,0.998-2.358,2.224-2.358c0.873,0,1.582,0.754,1.582,1.68
				c0,0.571,0.438,1.035,0.977,1.035s0.977-0.464,0.977-1.035c0-2.068-1.586-3.751-3.535-3.751c-2.248,0-4.074,1.898-4.16,4.261
				c-0.471,0.231-1.053,0.448-1.603,0.448c-0.528,0-1.021-0.159-1.429-0.35C2.207,5.84,5.119,3.07,8.774,3.07
				c2.907,0,5.272,2.508,5.272,5.592C14.047,11.015,12.242,12.929,10.023,12.929z"/>
		</g>
	</g>
</g>
<g id="Row_2_1_">
</g>
<g id="Row_1_1_">
</g>
</svg>
