<?xml version="1.0" encoding="utf-8"?>
<!-- Generator: Adobe Illustrator 16.0.0, SVG Export Plug-In . SVG Version: 6.00 Build 0)  -->
<!DOCTYPE svg PUBLIC "-//W3C//DTD SVG 1.1//EN" "http://www.w3.org/Graphics/SVG/1.1/DTD/svg11.dtd">
<svg version="1.1" xmlns="http://www.w3.org/2000/svg" xmlns:xlink="http://www.w3.org/1999/xlink" x="0px" y="0px" width="16px"
	 height="16px" viewBox="0 0 16 16" enable-background="new 0 0 16 16" xml:space="preserve">
<g id="Layer_0_xA0_Image_1_">
</g>
<g id="Row_5_1_">
</g>
<g id="Row_4_1_">
</g>
<g id="Row_3_1_">
</g>
<g id="Row_2_1_">
	<g id="shell_1_">
		<g>
			<path fill="#212121" d="M15.682,4.275C14.231,2.833,11.958,1,8,1C4.01,1,1.729,2.833,0.28,4.28l0.013,0.013
				C0.112,4.474,0,4.724,0,5c0,0.209,0.079,0.392,0.188,0.553L0.187,5.555c0,0,0.545,1.802,1.854,3.496
				c1.086,1.406,2.477,2.849,2.96,3.341V14c0,0.553,0.447,1,1,1h4c0.553,0,1-0.447,1-1v-1.599c0.497-0.484,1.964-1.951,3-3.401
				c0.243-0.341,0.454-0.676,0.646-1c1.177-1.981,1.152-2.43,1.152-2.43C15.916,5.407,16,5.217,16,5
				C16,4.713,15.875,4.458,15.682,4.275z M12,8c-1.811,2.534-2.799,3.43-2.799,3.43C9.084,11.593,9,11.783,9,12v1H7v-1
				c0-0.432-0.187-0.586-0.187-0.586s-0.879-0.873-2.785-3.34c-0.811-1.05-1.437-2.139-1.814-2.854
				C2.74,4.772,3.431,4.297,4.245,3.898l0.807,2.418l0.012-0.004C5.195,6.709,5.559,7,6,7c0.553,0,1-0.447,1-1
				c0-0.11-0.03-0.213-0.063-0.313l0.012-0.004L6.127,3.219C6.713,3.082,7.337,3,8,3c0.662,0,1.286,0.085,1.871,0.224l-0.819,2.46
				l0.012,0.004C9.029,5.787,9,5.89,9,6c0,0.553,0.447,1,1,1c0.441,0,0.805-0.291,0.937-0.688l0.012,0.004l0.802-2.405
				c0.799,0.397,1.479,0.868,2.002,1.312C13.366,5.909,12.753,6.945,12,8z"/>
		</g>
	</g>
</g>
<g id="Row_1_1_">
</g>
</svg>
