<?xml version="1.0" encoding="utf-8"?>
<!-- Generator: Adobe Illustrator 16.0.0, SVG Export Plug-In . SVG Version: 6.00 Build 0)  -->
<!DOCTYPE svg PUBLIC "-//W3C//DTD SVG 1.1//EN" "http://www.w3.org/Graphics/SVG/1.1/DTD/svg11.dtd">
<svg version="1.1" xmlns="http://www.w3.org/2000/svg" xmlns:xlink="http://www.w3.org/1999/xlink" x="0px" y="0px" width="16px"
	 height="16px" viewBox="0 0 16 16" enable-background="new 0 0 16 16" xml:space="preserve">
<g id="Layer_0_xA0_Image_1_">
</g>
<g id="Row_5_1_">
	<g id="sprinkler">
		<g>
			<path fill="#212121" d="M15.564,2.393l-2.268-1.278c-0.418-0.235-0.953-0.094-1.195,0.315c-0.242,0.41-0.1,0.933,0.318,1.167
				l0.427,0.296l-1.622,4.866L10.99,5.873c0,0-0.081-0.876-0.992-0.876H5.999C6.061,4.93,5.531,4.287,5.12,3.875
				c-1.17-1.172-3.07-1.172-4.241,0c-1.171,1.172-1.171,3.073,0,4.244l1.643,1.645l-0.514,4.112C2.007,13.876,2,13.91,2,14
				c0,0.554,0.447,1.001,1,1.001h7.999c0.552,0,1-0.447,1-1.001c0-0.043-0.02-0.08-0.024-0.122l-0.188-1.642l2.723-8.463
				l0.181,0.102c0.417,0.234,0.952,0.094,1.194-0.315S15.981,2.628,15.564,2.393z M4.132,13l0.495-3.96L2.292,6.704
				C2.112,6.523,2,6.273,2,5.997c0-0.553,0.447-1,1-1c0.276,0,0.526,0.112,0.707,0.293l1.707,1.708h3.702L9.865,13H4.132z"/>
		</g>
	</g>
</g>
<g id="Row_4_1_">
</g>
<g id="Row_3_1_">
</g>
<g id="Row_2_1_">
</g>
<g id="Row_1_1_">
</g>
</svg>
