<?xml version="1.0" encoding="utf-8"?>
<!-- Generator: Adobe Illustrator 16.0.0, SVG Export Plug-In . SVG Version: 6.00 Build 0)  -->
<!DOCTYPE svg PUBLIC "-//W3C//DTD SVG 1.1//EN" "http://www.w3.org/Graphics/SVG/1.1/DTD/svg11.dtd">
<svg version="1.1" xmlns="http://www.w3.org/2000/svg" xmlns:xlink="http://www.w3.org/1999/xlink" x="0px" y="0px" width="16px"
	 height="16px" viewBox="0 0 16 16" enable-background="new 0 0 16 16" xml:space="preserve">
<g id="Layer_0_xA0_Image_1_">
</g>
<g id="Row_5_1_">
</g>
<g id="Row_4_1_">
	<g id="star">
		<g>
			<path fill="#212121" d="M15,7h-4.586l1.828-1.828c0.391-0.391,0.391-1.024,0-1.414c-0.39-0.391-1.023-0.391-1.414,0L9,5.586V1
				c0-0.553-0.447-1-1-1S7,0.447,7,1v4.586L5.172,3.758c-0.391-0.391-1.024-0.391-1.414,0c-0.391,0.39-0.391,1.023,0,1.414L5.586,7
				H1C0.447,7,0,7.447,0,8s0.447,1,1,1h4.586l-1.828,1.828c-0.391,0.391-0.391,1.024,0,1.414c0.39,0.391,1.023,0.391,1.414,0
				L7,10.414V15c0,0.553,0.447,1,1,1s1-0.447,1-1v-4.586l1.828,1.828c0.391,0.391,1.024,0.391,1.414,0
				c0.391-0.39,0.391-1.023,0-1.414L10.414,9H15c0.553,0,1-0.447,1-1S15.553,7,15,7z"/>
		</g>
	</g>
</g>
<g id="Row_3_1_">
</g>
<g id="Row_2_1_">
</g>
<g id="Row_1_1_">
</g>
</svg>
