<?xml version="1.0" encoding="utf-8"?>
<!-- Generator: Adobe Illustrator 16.0.0, SVG Export Plug-In . SVG Version: 6.00 Build 0)  -->
<!DOCTYPE svg PUBLIC "-//W3C//DTD SVG 1.1//EN" "http://www.w3.org/Graphics/SVG/1.1/DTD/svg11.dtd">
<svg version="1.1" xmlns="http://www.w3.org/2000/svg" xmlns:xlink="http://www.w3.org/1999/xlink" x="0px" y="0px" width="16px"
	 height="16px" viewBox="0 0 16 16" enable-background="new 0 0 16 16" xml:space="preserve">
<g id="Layer_0_xA0_Image_1_">
</g>
<g id="Row_5_1_">
</g>
<g id="Row_4_1_">
</g>
<g id="Row_3_1_">
</g>
<g id="Row_2_1_">
	<g id="sun">
		<g>
			<path fill="#212121" d="M3.05,11.535l-0.707,0.707c-0.391,0.391-0.391,1.024,0,1.415c0.391,0.39,1.024,0.39,1.415,0l0.707-0.708
				c0.391-0.39,0.391-1.023,0-1.414S3.44,11.145,3.05,11.535z M12.949,4.465l0.708-0.707c0.39-0.391,0.39-1.024,0-1.415
				c-0.391-0.391-1.024-0.391-1.415,0L11.535,3.05c-0.391,0.391-0.391,1.024,0,1.415C11.926,4.854,12.56,4.854,12.949,4.465z M4,8
				c0-0.553-0.447-1-1-1H1C0.447,7,0,7.447,0,8s0.447,1,1,1h2C3.553,9,4,8.553,4,8z M8,4c0.553,0,1-0.448,1-1V1c0-0.553-0.447-1-1-1
				S7,0.447,7,1v2C7,3.552,7.447,4,8,4z M3.758,2.343c-0.391-0.391-1.024-0.391-1.415,0s-0.391,1.024,0,1.415L3.05,4.465
				c0.391,0.39,1.024,0.39,1.415,0c0.391-0.391,0.391-1.024,0-1.415L3.758,2.343z M12.949,11.535c-0.39-0.391-1.023-0.391-1.414,0
				s-0.391,1.024,0,1.414l0.707,0.708c0.391,0.39,1.024,0.39,1.415,0c0.39-0.391,0.39-1.024,0-1.415L12.949,11.535z M8,12
				c-0.553,0-1,0.447-1,1v2c0,0.553,0.447,1,1,1s1-0.447,1-1v-2C9,12.447,8.553,12,8,12z M15,7h-2c-0.553,0-1,0.447-1,1s0.447,1,1,1
				h2c0.553,0,1-0.447,1-1S15.553,7,15,7z M8,5C6.343,5,5,6.343,5,8s1.343,3,3,3s3-1.343,3-3S9.657,5,8,5z M8,9C7.447,9,7,8.553,7,8
				s0.447-1,1-1s1,0.447,1,1S8.553,9,8,9z"/>
		</g>
	</g>
</g>
<g id="Row_1_1_">
</g>
</svg>
