<?xml version="1.0" encoding="utf-8"?>
<!-- Generator: Adobe Illustrator 16.0.0, SVG Export Plug-In . SVG Version: 6.00 Build 0)  -->
<!DOCTYPE svg PUBLIC "-//W3C//DTD SVG 1.1//EN" "http://www.w3.org/Graphics/SVG/1.1/DTD/svg11.dtd">
<svg version="1.1" xmlns="http://www.w3.org/2000/svg" xmlns:xlink="http://www.w3.org/1999/xlink" x="0px" y="0px" width="16px"
	 height="16px" viewBox="0 0 16 16" enable-background="new 0 0 16 16" xml:space="preserve">
<g id="Layer_0_xA0_Image_1_">
</g>
<g id="Row_5_1_">
</g>
<g id="Row_4_1_">
</g>
<g id="Row_3_1_">
</g>
<g id="Row_2_1_">
</g>
<g id="Row_1_1_">
	<g id="temperature">
		<g>
			<path fill="#212121" d="M8,10c-0.553,0-1,0.447-1,1s0.447,1,1,1s1-0.447,1-1S8.553,10,8,10z M11,7.022V3c0-1.657-1.343-3-3-3
				S5,1.343,5,3v4.022C3.792,7.936,3,9.369,3,11c0,2.762,2.238,5,5,5s5-2.238,5-5C13,9.369,12.208,7.936,11,7.022z M8,14
				c-1.657,0-3-1.343-3-3c0-1.305,0.838-2.403,2-2.816V3c0-0.553,0.447-1,1-1s1,0.447,1,1v5.184c1.162,0.413,2,1.512,2,2.816
				C11,12.657,9.657,14,8,14z"/>
		</g>
	</g>
</g>
</svg>
