<?xml version="1.0" encoding="utf-8"?>
<!-- Generator: Adobe Illustrator 16.0.0, SVG Export Plug-In . SVG Version: 6.00 Build 0)  -->
<!DOCTYPE svg PUBLIC "-//W3C//DTD SVG 1.1//EN" "http://www.w3.org/Graphics/SVG/1.1/DTD/svg11.dtd">
<svg version="1.1" xmlns="http://www.w3.org/2000/svg" xmlns:xlink="http://www.w3.org/1999/xlink" x="0px" y="0px" width="16px"
	 height="16px" viewBox="0 0 16 16" enable-background="new 0 0 16 16" xml:space="preserve">
<g id="Layer_0_xA0_Image_1_">
</g>
<g id="Row_5_1_">
</g>
<g id="Row_4_1_">
</g>
<g id="Row_3_1_">
</g>
<g id="Row_2_1_">
	<g id="water_stream">
		<g>
			<path fill="#212121" d="M1,3h14c0.553,0,1-0.447,1-1s-0.447-1-1-1H1C0.447,1,0,1.447,0,2S0.447,3,1,3z M15,5h-2
				c-0.553,0-1,0.447-1,1s0.447,1,1,1h2c0.553,0,1-0.447,1-1S15.553,5,15,5z M15,13H5c-0.553,0-1-0.447-1-1s0.447-1,1-1h3
				c1.657,0,3-1.343,3-3S9.657,5,8,5H1C0.447,5,0,5.447,0,6s0.447,1,1,1h7c0.553,0,1,0.447,1,1S8.553,9,8,9H5c-1.657,0-3,1.343-3,3
				s1.343,3,3,3h10c0.553,0,1-0.447,1-1S15.553,13,15,13z"/>
		</g>
	</g>
</g>
<g id="Row_1_1_">
</g>
</svg>
