<?xml version="1.0" encoding="utf-8"?>
<!-- Generator: Adobe Illustrator 16.0.0, SVG Export Plug-In . SVG Version: 6.00 Build 0)  -->
<!DOCTYPE svg PUBLIC "-//W3C//DTD SVG 1.1//EN" "http://www.w3.org/Graphics/SVG/1.1/DTD/svg11.dtd">
<svg version="1.1" xmlns="http://www.w3.org/2000/svg" xmlns:xlink="http://www.w3.org/1999/xlink" x="0px" y="0px" width="16px"
	 height="16px" viewBox="0 0 16 16" enable-background="new 0 0 16 16" xml:space="preserve">
<g id="Layer_0_xA0_Image_1_">
</g>
<g id="Row_5_1_">
</g>
<g id="Row_4_1_">
	<g id="watermelon">
		<g>
			<path fill="#212121" d="M13.307,0.3C12.907-0.1,12.26-0.1,11.861,0.3c-0.399,0.398-0.399,1.046,0,1.445
				c2.793,2.793,2.793,7.323,0,10.116s-7.323,2.793-10.116,0c-0.399-0.399-1.047-0.399-1.445,0c-0.399,0.398-0.399,1.046,0,1.445
				c3.591,3.592,9.414,3.592,13.007,0C16.898,9.714,16.898,3.891,13.307,0.3z M10.416,10.416c1.996-1.995,1.996-5.23,0-7.226
				c-0.398-0.399-1.046-0.399-1.445,0l-5.78,5.78c-0.399,0.399-0.399,1.047,0,1.445C5.186,12.412,8.421,12.412,10.416,10.416z
				 M9.561,5.49c0.542,1.139,0.353,2.538-0.59,3.48s-2.342,1.132-3.48,0.59L9.561,5.49z"/>
		</g>
	</g>
</g>
<g id="Row_3_1_">
</g>
<g id="Row_2_1_">
</g>
<g id="Row_1_1_">
</g>
</svg>
