<?xml version="1.0" encoding="utf-8"?>
<!-- Generator: Adobe Illustrator 16.0.0, SVG Export Plug-In . SVG Version: 6.00 Build 0)  -->
<!DOCTYPE svg PUBLIC "-//W3C//DTD SVG 1.1//EN" "http://www.w3.org/Graphics/SVG/1.1/DTD/svg11.dtd">
<svg version="1.1" xmlns="http://www.w3.org/2000/svg" xmlns:xlink="http://www.w3.org/1999/xlink" x="0px" y="0px" width="16px"
	 height="16px" viewBox="0 0 16 16" enable-background="new 0 0 16 16" xml:space="preserve">
<g id="Layer_0_xA0_Image_1_">
</g>
<g id="Row_5_1_">
</g>
<g id="Row_4_1_">
</g>
<g id="Row_3_1_">
	<g id="wind">
		<g>
			<path fill="#212121" d="M1,6h10c1.657,0,3-1.343,3-3s-1.343-3-3-3c-0.553,0-1,0.447-1,1c0,0.552,0.447,1,1,1s1,0.447,1,1
				c0,0.552-0.447,1-1,1H1C0.447,4,0,4.447,0,5C0,5.552,0.447,6,1,6z M12,8H1C0.447,8,0,8.447,0,9s0.447,1,1,1h11
				c1.104,0,2,0.896,2,2s-0.896,2-2,2c-0.553,0-1,0.447-1,1s0.447,1,1,1c2.209,0,4-1.791,4-4S14.209,8,12,8z"/>
		</g>
	</g>
</g>
<g id="Row_2_1_">
</g>
<g id="Row_1_1_">
</g>
</svg>
