<?xml version="1.0" encoding="utf-8"?>
<!-- Generator: Adobe Illustrator 16.0.0, SVG Export Plug-In . SVG Version: 6.00 Build 0)  -->
<!DOCTYPE svg PUBLIC "-//W3C//DTD SVG 1.1//EN" "http://www.w3.org/Graphics/SVG/1.1/DTD/svg11.dtd">
<svg version="1.1" xmlns="http://www.w3.org/2000/svg" xmlns:xlink="http://www.w3.org/1999/xlink" x="0px" y="0px" width="16px"
	 height="16px" viewBox="0 0 16 16" enable-background="new 0 0 16 16" xml:space="preserve">
<g id="Layer_0_xA0_Image_1_">
</g>
<g id="Row_5_1_">
</g>
<g id="Row_4_1_">
</g>
<g id="Row_3_1_">
</g>
<g id="Row_2_1_">
	<g id="approved_paper">
		<g>
			<path fill="#212121" d="M7.293,10.707C7.474,10.888,7.724,11,8,11c0.347,0,0.638-0.188,0.816-0.455l2-3
				C10.923,7.386,11,7.205,11,7c0-0.553-0.447-1-1-1C9.34,6,9.168,6.445,9.168,6.445L7.845,8.431L6.707,7.293
				C6.526,7.112,6.276,7,6,7C5.447,7,5,7.447,5,8c0,0.276,0.112,0.526,0.293,0.707L7.293,10.707z M13,0H3C2.447,0,2,0.447,2,1v14
				c0,0.553,0.447,1,1,1h10c0.553,0,1-0.447,1-1V1C14,0.447,13.553,0,13,0z M12,14H4V2h8V14z"/>
		</g>
	</g>
</g>
<g id="Row_1_1_">
</g>
</svg>
