<?xml version="1.0" encoding="utf-8"?>
<!-- Generator: Adobe Illustrator 16.0.0, SVG Export Plug-In . SVG Version: 6.00 Build 0)  -->
<!DOCTYPE svg PUBLIC "-//W3C//DTD SVG 1.1//EN" "http://www.w3.org/Graphics/SVG/1.1/DTD/svg11.dtd">
<svg version="1.1" xmlns="http://www.w3.org/2000/svg" xmlns:xlink="http://www.w3.org/1999/xlink" x="0px" y="0px" width="16px"
	 height="16px" viewBox="0 0 16 16" enable-background="new 0 0 16 16" xml:space="preserve">
<g id="Layer_0_xA0_Image_1_">
</g>
<g id="Row_5_1_">
</g>
<g id="Row_4_1_">
</g>
<g id="Row_3_1_">
</g>
<g id="Row_2_1_">
</g>
<g id="Row_1_1_">
	<g id="ATM">
		<g>
			<path fill="#212121" d="M4,14c0,0.553,0.447,1,1,1h6c0.553,0,1-0.447,1-1V4H4V14z M6,6h4v7H6V6z M13,1H3C1.343,1,0,2.343,0,4
				c0,0.828,0.336,1.578,0.879,2.121l0.007-0.008C1.069,6.344,1.34,6.5,1.656,6.5c0.553,0,1-0.447,1-1
				c0-0.316-0.156-0.587-0.387-0.771l0.023-0.022C2.112,4.526,2,4.276,2,4c0-0.553,0.447-1,1-1h10c0.553,0,1,0.447,1,1
				c0,0.276-0.112,0.526-0.293,0.707l0.011,0.011C13.478,4.9,13.313,5.175,13.313,5.5c0,0.553,0.447,1,1,1
				c0.325,0,0.6-0.165,0.782-0.405C15.095,6.095,16,5.647,16,4C16,2.343,14.657,1,13,1z"/>
		</g>
	</g>
</g>
</svg>
