<?xml version="1.0" encoding="utf-8"?>
<!-- Generator: Adobe Illustrator 16.0.0, SVG Export Plug-In . SVG Version: 6.00 Build 0)  -->
<!DOCTYPE svg PUBLIC "-//W3C//DTD SVG 1.1//EN" "http://www.w3.org/Graphics/SVG/1.1/DTD/svg11.dtd">
<svg version="1.1" xmlns="http://www.w3.org/2000/svg" xmlns:xlink="http://www.w3.org/1999/xlink" x="0px" y="0px" width="16px"
	 height="16px" viewBox="0 0 16 16" enable-background="new 0 0 16 16" xml:space="preserve">
<g id="Layer_0_xA0_Image_1_">
</g>
<g id="Row_5_1_">
</g>
<g id="Row_4_1_">
	<g id="bag">
		<g>
			<path fill="#212121" d="M10,9c0-0.553-0.447-1-1-1H7C6.447,8,6,8.447,6,9c0,0.205,0.077,0.386,0.184,0.545L7.132,11H7
				c-0.553,0-1,0.447-1,1s0.447,1,1,1h2c0.553,0,1-0.447,1-1c0-0.408-0.168-0.555-0.168-0.555L8.868,10H9C9.553,10,10,9.553,10,9z
				 M11,4.77c0,0,1-3.817,1-3.77c0-0.553-0.447-1-1-1H5C4.447,0,4,0.447,4,1c0-0.111,1,3.771,1,3.771C3.5,6.354,2,8.348,2,10
				c0,3.313,2.687,6,6,6s6-2.687,6-6C14,8.348,12.5,6.354,11,4.77z M9.531,2L9,4H7L6.469,2H9.531z M8,14c-2.209,0-4-1.791-4-4
				c0-1.385,1.545-2.989,2.716-4h2.555C10.442,7.011,12,8.614,12,10C12,12.209,10.209,14,8,14z"/>
		</g>
	</g>
</g>
<g id="Row_3_1_">
</g>
<g id="Row_2_1_">
</g>
<g id="Row_1_1_">
</g>
</svg>
