<?xml version="1.0" encoding="utf-8"?>
<!-- Generator: Adobe Illustrator 16.0.0, SVG Export Plug-In . SVG Version: 6.00 Build 0)  -->
<!DOCTYPE svg PUBLIC "-//W3C//DTD SVG 1.1//EN" "http://www.w3.org/Graphics/SVG/1.1/DTD/svg11.dtd">
<svg version="1.1" xmlns="http://www.w3.org/2000/svg" xmlns:xlink="http://www.w3.org/1999/xlink" x="0px" y="0px" width="16px"
	 height="16px" viewBox="0 0 16 16" enable-background="new 0 0 16 16" xml:space="preserve">
<g id="Layer_0_xA0_Image_1_">
</g>
<g id="Row_5_1_">
</g>
<g id="Row_4_1_">
	<g id="balance">
		<g>
			<path fill="#212121" d="M15.952,11.262l0.018-0.004l-2-8l-0.018,0.004C13.843,2.828,13.468,2.5,13,2.5H9v-1c0-0.553-0.447-1-1-1
				s-1,0.447-1,1v1H3c-0.468,0-0.843,0.328-0.952,0.762L2.03,3.258l-2,8l0.018,0.004C0.028,11.34,0,11.416,0,11.5v1
				c0,1.657,1.343,3,3,3s3-1.343,3-3v-1c0-0.084-0.028-0.16-0.048-0.238l0.018-0.004L4.281,4.5H7v1c0,0.553,0.447,1,1,1s1-0.447,1-1
				v-1h2.719l-1.688,6.758l0.018,0.004C10.028,11.34,10,11.416,10,11.5v1c0,1.657,1.343,3,3,3s3-1.343,3-3v-1
				C16,11.416,15.972,11.34,15.952,11.262z M3,7.623L3.719,10.5H2.281L3,7.623z M3,13.5c-0.553,0-1-0.447-1-1h2
				C4,13.053,3.553,13.5,3,13.5z M13,7.623l0.719,2.877h-1.438L13,7.623z M13,13.5c-0.553,0-1-0.447-1-1h2
				C14,13.053,13.553,13.5,13,13.5z"/>
		</g>
	</g>
</g>
<g id="Row_3_1_">
</g>
<g id="Row_2_1_">
</g>
<g id="Row_1_1_">
</g>
</svg>
