<?xml version="1.0" encoding="utf-8"?>
<!-- Generator: Adobe Illustrator 16.0.0, SVG Export Plug-In . SVG Version: 6.00 Build 0)  -->
<!DOCTYPE svg PUBLIC "-//W3C//DTD SVG 1.1//EN" "http://www.w3.org/Graphics/SVG/1.1/DTD/svg11.dtd">
<svg version="1.1" xmlns="http://www.w3.org/2000/svg" xmlns:xlink="http://www.w3.org/1999/xlink" x="0px" y="0px" width="16px"
	 height="16px" viewBox="0 0 16 16" enable-background="new 0 0 16 16" xml:space="preserve">
<g id="Layer_0_xA0_Image_1_">
</g>
<g id="Row_5_1_">
	<g id="banknotes">
		<g>
			<path fill="#212121" d="M6,7c0.553,0,1-0.447,1-1S6.553,5,6,5S5,5.447,5,6S5.447,7,6,7z M12,9V3c0-0.553-0.447-1-1-1H1
				C0.447,2,0,2.447,0,3v6c0,0.553,0.447,1,1,1h10C11.553,10,12,9.553,12,9z M10,8H2V4h8V8z M15,6c-0.553,0-1,0.447-1,1v5H5
				c-0.553,0-1,0.447-1,1s0.447,1,1,1h10c0.553,0,1-0.447,1-1V7C16,6.447,15.553,6,15,6z"/>
		</g>
	</g>
</g>
<g id="Row_4_1_">
</g>
<g id="Row_3_1_">
</g>
<g id="Row_2_1_">
</g>
<g id="Row_1_1_">
</g>
</svg>
