<?xml version="1.0" encoding="utf-8"?>
<!-- Generator: Adobe Illustrator 16.0.0, SVG Export Plug-In . SVG Version: 6.00 Build 0)  -->
<!DOCTYPE svg PUBLIC "-//W3C//DTD SVG 1.1//EN" "http://www.w3.org/Graphics/SVG/1.1/DTD/svg11.dtd">
<svg version="1.1" xmlns="http://www.w3.org/2000/svg" xmlns:xlink="http://www.w3.org/1999/xlink" x="0px" y="0px" width="16px"
	 height="16px" viewBox="0 0 16 16" enable-background="new 0 0 16 16" xml:space="preserve">
<g id="Layer_0_xA0_Image_1_">
</g>
<g id="Row_5_1_">
</g>
<g id="Row_4_1_">
</g>
<g id="Row_3_1_">
	<g id="bank">
		<g>
			<path fill="#212121" d="M11,8v4c0,0.553,0.447,1,1,1s1-0.447,1-1V8c0-0.553-0.447-1-1-1S11,7.447,11,8z M15,14H1
				c-0.553,0-1,0.447-1,1s0.447,1,1,1h14c0.553,0,1-0.447,1-1S15.553,14,15,14z M3,6h10c0.553,0,1-0.447,1-1
				c0-0.316-0.156-0.586-0.385-0.77l0.01-0.012l-5-4L8.615,0.23C8.444,0.094,8.236,0,8,0S7.556,0.094,7.385,0.23l-0.01-0.012l-5,4
				l0.01,0.012C2.156,4.414,2,4.684,2,5C2,5.553,2.447,6,3,6z M8,2.28L10.149,4H5.851L8,2.28z M7,8v4c0,0.553,0.447,1,1,1
				s1-0.447,1-1V8c0-0.553-0.447-1-1-1S7,7.447,7,8z M3,8v4c0,0.553,0.447,1,1,1s1-0.447,1-1V8c0-0.553-0.447-1-1-1S3,7.447,3,8z"/>
		</g>
	</g>
</g>
<g id="Row_2_1_">
</g>
<g id="Row_1_1_">
</g>
</svg>
