<?xml version="1.0" encoding="utf-8"?>
<!-- Generator: Adobe Illustrator 16.0.0, SVG Export Plug-In . SVG Version: 6.00 Build 0)  -->
<!DOCTYPE svg PUBLIC "-//W3C//DTD SVG 1.1//EN" "http://www.w3.org/Graphics/SVG/1.1/DTD/svg11.dtd">
<svg version="1.1" xmlns="http://www.w3.org/2000/svg" xmlns:xlink="http://www.w3.org/1999/xlink" x="0px" y="0px" width="16px"
	 height="16px" viewBox="0 0 16 16" enable-background="new 0 0 16 16" xml:space="preserve">
<g id="Layer_0_xA0_Image_1_">
</g>
<g id="Row_5_1_">
</g>
<g id="Row_4_1_">
</g>
<g id="Row_3_1_">
</g>
<g id="Row_2_1_">
</g>
<g id="Row_1_1_">
	<g id="banner">
		<g>
			<path fill="#212121" d="M15,6c0.553,0,1-0.447,1-1V1c0-0.553-0.447-1-1-1H1C0.447,0,0,0.447,0,1c0,0.276,0.112,0.526,0.293,0.707
				L1.586,3L0.293,4.293C0.112,4.474,0,4.724,0,5c0,0.553,0.447,1,1,1h4.586l-4,4H1c-0.553,0-1,0.447-1,1v4c0,0.553,0.447,1,1,1h14
				c0.553,0,1-0.447,1-1c0-0.276-0.112-0.526-0.293-0.707L14.414,13l1.293-1.293C15.888,11.526,16,11.276,16,11c0-0.553-0.447-1-1-1
				h-4.586l4-4H15z M12.586,12l-0.293,0.293C12.112,12.474,12,12.724,12,13s0.112,0.526,0.293,0.707L12.586,14H2v-2H12.586z
				 M7.586,10H4.414l4-4h3.172L7.586,10z M14,4H3.414l0.293-0.293C3.888,3.526,4,3.276,4,3S3.888,2.474,3.707,2.293L3.414,2H14V4z"
				/>
		</g>
	</g>
</g>
</svg>
