<?xml version="1.0" encoding="utf-8"?>
<!-- Generator: Adobe Illustrator 16.0.0, SVG Export Plug-In . SVG Version: 6.00 Build 0)  -->
<!DOCTYPE svg PUBLIC "-//W3C//DTD SVG 1.1//EN" "http://www.w3.org/Graphics/SVG/1.1/DTD/svg11.dtd">
<svg version="1.1" xmlns="http://www.w3.org/2000/svg" xmlns:xlink="http://www.w3.org/1999/xlink" x="0px" y="0px" width="16px"
	 height="16px" viewBox="0 0 16 16" enable-background="new 0 0 16 16" xml:space="preserve">
<g id="Layer_0_xA0_Image_1_">
</g>
<g id="Row_5_1_">
</g>
<g id="Row_4_1_">
	<g id="bitcoin">
		<g>
			<path fill="#212121" d="M10.339,7.533C10.751,6.96,11,6.261,11,5.5c0-0.938-0.396-1.76-1-2.385V1c0-0.553-0.447-1-1-1
				S8,0.447,8,1v1.051C7.836,2.026,7.671,2,7.5,2H7V1c0-0.553-0.447-1-1-1S5,0.447,5,1v1C4.447,2,4,2.447,4,3v10
				c0,0.553,0.447,1,1,1v1c0,0.553,0.447,1,1,1s1-0.447,1-1v-1h1v1c0,0.553,0.447,1,1,1s1-0.447,1-1v-1.35
				c1.18-0.563,2-1.757,2-3.15C12,9.244,11.333,8.151,10.339,7.533z M6,4h1.5C8.328,4,9,4.672,9,5.5S8.328,7,7.5,7H6V4z M8.5,12H6V9
				h2.5C9.328,9,10,9.672,10,10.5S9.328,12,8.5,12z"/>
		</g>
	</g>
</g>
<g id="Row_3_1_">
</g>
<g id="Row_2_1_">
</g>
<g id="Row_1_1_">
</g>
</svg>
