<?xml version="1.0" encoding="utf-8"?>
<!-- Generator: Adobe Illustrator 16.0.0, SVG Export Plug-In . SVG Version: 6.00 Build 0)  -->
<!DOCTYPE svg PUBLIC "-//W3C//DTD SVG 1.1//EN" "http://www.w3.org/Graphics/SVG/1.1/DTD/svg11.dtd">
<svg version="1.1" xmlns="http://www.w3.org/2000/svg" xmlns:xlink="http://www.w3.org/1999/xlink" x="0px" y="0px" width="16px"
	 height="16px" viewBox="0 0 16 16" enable-background="new 0 0 16 16" xml:space="preserve">
<g id="Layer_0_xA0_Image_1_">
</g>
<g id="Row_5_1_">
</g>
<g id="Row_4_1_">
</g>
<g id="Row_3_1_">
	<g id="calculator">
		<g>
			<path fill="#212121" d="M10,7C9.447,7,9,7.447,9,8s0.447,1,1,1s1-0.447,1-1S10.553,7,10,7z M10,11c-0.553,0-1,0.447-1,1
				s0.447,1,1,1s1-0.447,1-1S10.553,11,10,11z M6,5h4c0.553,0,1-0.447,1-1s-0.447-1-1-1H6C5.447,3,5,3.447,5,4S5.447,5,6,5z M13,0H3
				C2.447,0,2,0.447,2,1v14c0,0.553,0.447,1,1,1h10c0.553,0,1-0.447,1-1V1C14,0.447,13.553,0,13,0z M12,14H4V2h8V14z M6,9
				c0.553,0,1-0.447,1-1S6.553,7,6,7S5,7.447,5,8S5.447,9,6,9z M6,13c0.553,0,1-0.447,1-1s-0.447-1-1-1s-1,0.447-1,1S5.447,13,6,13z
				"/>
		</g>
	</g>
</g>
<g id="Row_2_1_">
</g>
<g id="Row_1_1_">
</g>
</svg>
