<?xml version="1.0" encoding="utf-8"?>
<!-- Generator: Adobe Illustrator 16.0.0, SVG Export Plug-In . SVG Version: 6.00 Build 0)  -->
<!DOCTYPE svg PUBLIC "-//W3C//DTD SVG 1.1//EN" "http://www.w3.org/Graphics/SVG/1.1/DTD/svg11.dtd">
<svg version="1.1" xmlns="http://www.w3.org/2000/svg" xmlns:xlink="http://www.w3.org/1999/xlink" x="0px" y="0px" width="16px"
	 height="16px" viewBox="0 0 16 16" enable-background="new 0 0 16 16" xml:space="preserve">
<g id="Layer_0_xA0_Image_1_">
</g>
<g id="Row_5_1_">
</g>
<g id="Row_4_1_">
</g>
<g id="Row_3_1_">
</g>
<g id="Row_2_1_">
	<g id="check">
		<g>
			<path fill="#212121" d="M11,12c0.421,0,0.777-0.262,0.925-0.63l0.004,0.001l3.992-9.981l0.001-0.001l0.003-0.019
				C15.972,1.255,16,1.131,16,1c0-0.553-0.447-1-1-1c-0.421,0-0.777,0.262-0.926,0.63l-0.003-0.001l-3.992,9.981l-0.001,0.001
				c0,0-0.078,0.042-0.078,0.389C10,11.553,10.447,12,11,12z M14,11.578V14H2V9h6.569l0.8-2H1C0.447,7,0,7.447,0,8v7
				c0,0.553,0.447,1,1,1h14c0.553,0,1-0.447,1-1V8c0-0.273-0.111-0.521-0.289-0.701L14,11.578z M4,11c-0.553,0-1,0.447-1,1
				s0.447,1,1,1h3c0.553,0,1-0.447,1-1s-0.447-1-1-1H4z"/>
		</g>
	</g>
</g>
<g id="Row_1_1_">
</g>
</svg>
