<?xml version="1.0" encoding="utf-8"?>
<!-- Generator: Adobe Illustrator 16.0.0, SVG Export Plug-In . SVG Version: 6.00 Build 0)  -->
<!DOCTYPE svg PUBLIC "-//W3C//DTD SVG 1.1//EN" "http://www.w3.org/Graphics/SVG/1.1/DTD/svg11.dtd">
<svg version="1.1" xmlns="http://www.w3.org/2000/svg" xmlns:xlink="http://www.w3.org/1999/xlink" x="0px" y="0px" width="16px"
	 height="16px" viewBox="0 0 16 16" enable-background="new 0 0 16 16" xml:space="preserve">
<g id="Layer_0_xA0_Image_1_">
</g>
<g id="Row_5_1_">
	<g id="coins">
		<g>
			<path fill="#212121" d="M11,3c-0.526,0-1.023,0.104-1.5,0.254C9.023,3.104,8.526,3,8,3S6.977,3.104,6.5,3.254
				C6.023,3.104,5.526,3,5,3C2.238,3,0,5.238,0,8s2.238,5,5,5c0.526,0,1.023-0.104,1.5-0.255C6.977,12.896,7.474,13,8,13
				s1.023-0.104,1.5-0.255C9.977,12.896,10.474,13,11,13c2.762,0,5-2.238,5-5S13.762,3,11,3z M5,11c-1.657,0-3-1.343-3-3
				s1.343-3,3-3s3,1.343,3,3S6.657,11,5,11z M9.162,10.766C9.689,9.974,10,9.023,10,8S9.689,6.026,9.162,5.234
				C10.242,5.688,11,6.755,11,8S10.242,10.312,9.162,10.766z M12.162,10.766C12.689,9.974,13,9.023,13,8s-0.311-1.974-0.838-2.766
				C13.242,5.688,14,6.755,14,8S13.242,10.312,12.162,10.766z M5,6C4.447,6,4,6.447,4,7v2c0,0.553,0.447,1,1,1s1-0.447,1-1V7
				C6,6.447,5.553,6,5,6z"/>
		</g>
	</g>
</g>
<g id="Row_4_1_">
</g>
<g id="Row_3_1_">
</g>
<g id="Row_2_1_">
</g>
<g id="Row_1_1_">
</g>
</svg>
