<?xml version="1.0" encoding="utf-8"?>
<!-- Generator: Adobe Illustrator 16.0.0, SVG Export Plug-In . SVG Version: 6.00 Build 0)  -->
<!DOCTYPE svg PUBLIC "-//W3C//DTD SVG 1.1//EN" "http://www.w3.org/Graphics/SVG/1.1/DTD/svg11.dtd">
<svg version="1.1" xmlns="http://www.w3.org/2000/svg" xmlns:xlink="http://www.w3.org/1999/xlink" x="0px" y="0px" width="16px"
	 height="16px" viewBox="0 0 16 16" enable-background="new 0 0 16 16" xml:space="preserve">
<g id="Layer_0_xA0_Image_1_">
</g>
<g id="Row_5_1_">
	<g id="contract_2_2_">
		<g>
			<path fill="#212121" d="M7,4H5C4.447,4,4,4.447,4,5s0.447,1,1,1h2c0.553,0,1-0.447,1-1S7.553,4,7,4z M15,12h-3V1
				c0-0.553-0.447-1-1-1H1C0.447,0,0,0.447,0,1v12c0,1.657,1.343,3,3,3h10c1.657,0,3-1.343,3-3C16,12.447,15.553,12,15,12z M4,13
				c0,0.553-0.447,1-1,1s-1-0.447-1-1V2h8v10H5C4.447,12,4,12.447,4,13z M13,14H5.816C5.928,13.686,6,13.353,6,13h8
				C14,13.553,13.553,14,13,14z"/>
		</g>
	</g>
</g>
<g id="Row_4_1_">
</g>
<g id="Row_3_1_">
</g>
<g id="Row_2_1_">
</g>
<g id="Row_1_1_">
</g>
</svg>
