<?xml version="1.0" encoding="utf-8"?>
<!-- Generator: Adobe Illustrator 16.0.0, SVG Export Plug-In . SVG Version: 6.00 Build 0)  -->
<!DOCTYPE svg PUBLIC "-//W3C//DTD SVG 1.1//EN" "http://www.w3.org/Graphics/SVG/1.1/DTD/svg11.dtd">
<svg version="1.1" xmlns="http://www.w3.org/2000/svg" xmlns:xlink="http://www.w3.org/1999/xlink" x="0px" y="0px" width="16px"
	 height="16px" viewBox="0 0 16 16" enable-background="new 0 0 16 16" xml:space="preserve">
<g id="Layer_0_xA0_Image_1_">
</g>
<g id="Row_5_1_">
</g>
<g id="Row_4_1_">
</g>
<g id="Row_3_1_">
	<g id="device">
		<g>
			<path fill="#212121" d="M13,0H3C2.447,0,2,0.447,2,1v14c0,0.553,0.447,1,1,1h10c0.553,0,1-0.447,1-1V1C14,0.447,13.553,0,13,0z
				 M12,14H4V2h8V14z M8,11c-0.553,0-1,0.447-1,1s0.447,1,1,1s1-0.447,1-1S8.553,11,8,11z M6.5,4h3C9.776,4,10,3.776,10,3.5
				S9.776,3,9.5,3h-3C6.224,3,6,3.224,6,3.5S6.224,4,6.5,4z"/>
		</g>
	</g>
</g>
<g id="Row_2_1_">
</g>
<g id="Row_1_1_">
</g>
</svg>
