<?xml version="1.0" encoding="utf-8"?>
<!-- Generator: Adobe Illustrator 16.0.0, SVG Export Plug-In . SVG Version: 6.00 Build 0)  -->
<!DOCTYPE svg PUBLIC "-//W3C//DTD SVG 1.1//EN" "http://www.w3.org/Graphics/SVG/1.1/DTD/svg11.dtd">
<svg version="1.1" xmlns="http://www.w3.org/2000/svg" xmlns:xlink="http://www.w3.org/1999/xlink" x="0px" y="0px" width="16px"
	 height="16px" viewBox="0 0 16 16" enable-background="new 0 0 16 16" xml:space="preserve">
<g id="Layer_0_xA0_Image_1_">
</g>
<g id="Row_5_1_">
</g>
<g id="Row_4_1_">
	<g id="dollar">
		<g>
			<path fill="#212121" d="M9,7.081V3.122C10.162,3.397,11,4.131,11,5c0,0.553,0.447,1,1,1s1-0.447,1-1c0-1.936-1.718-3.549-4-3.919
				V1c0-0.553-0.447-1-1-1S7,0.447,7,1v0.081C4.718,1.451,3,3.064,3,5s1.718,3.549,4,3.919v3.959C5.838,12.602,5,11.869,5,11
				c0-0.553-0.447-1-1-1s-1,0.447-1,1c0,1.936,1.718,3.549,4,3.919V15c0,0.553,0.447,1,1,1s1-0.447,1-1v-0.081
				c2.282-0.37,4-1.983,4-3.919S11.282,7.451,9,7.081z M7,6.878C5.838,6.602,5,5.869,5,5s0.838-1.603,2-1.878V6.878z M9,12.878
				V9.122c1.162,0.275,2,1.009,2,1.878S10.162,12.602,9,12.878z"/>
		</g>
	</g>
</g>
<g id="Row_3_1_">
</g>
<g id="Row_2_1_">
</g>
<g id="Row_1_1_">
</g>
</svg>
