<?xml version="1.0" encoding="utf-8"?>
<!-- Generator: Adobe Illustrator 16.0.0, SVG Export Plug-In . SVG Version: 6.00 Build 0)  -->
<!DOCTYPE svg PUBLIC "-//W3C//DTD SVG 1.1//EN" "http://www.w3.org/Graphics/SVG/1.1/DTD/svg11.dtd">
<svg version="1.1" xmlns="http://www.w3.org/2000/svg" xmlns:xlink="http://www.w3.org/1999/xlink" x="0px" y="0px" width="16px"
	 height="16px" viewBox="0 0 16 16" enable-background="new 0 0 16 16" xml:space="preserve">
<g id="Layer_0_xA0_Image_1_">
</g>
<g id="Row_5_1_">
	<g id="gift">
		<g>
			<path fill="#212121" d="M14,4h-1.184C12.928,3.686,13,3.353,13,3c0-1.657-1.343-3-3-3C9.229,0,8.531,0.3,8,0.778
				C7.469,0.3,6.771,0,6,0C4.343,0,3,1.343,3,3c0,0.353,0.072,0.686,0.184,1H2C1.447,4,1,4.447,1,5v10c0,0.553,0.447,1,1,1h12
				c0.553,0,1-0.447,1-1V5C15,4.447,14.553,4,14,4z M7,14H3V6h4V14z M7,4H6C5.447,4,5,3.553,5,3s0.447-1,1-1s1,0.447,1,1V4z M9,3
				c0-0.553,0.447-1,1-1s1,0.447,1,1s-0.447,1-1,1H9V3z M13,14H9V6h4V14z"/>
		</g>
	</g>
</g>
<g id="Row_4_1_">
</g>
<g id="Row_3_1_">
</g>
<g id="Row_2_1_">
</g>
<g id="Row_1_1_">
</g>
</svg>
