<?xml version="1.0" encoding="utf-8"?>
<!-- Generator: Adobe Illustrator 16.0.0, SVG Export Plug-In . SVG Version: 6.00 Build 0)  -->
<!DOCTYPE svg PUBLIC "-//W3C//DTD SVG 1.1//EN" "http://www.w3.org/Graphics/SVG/1.1/DTD/svg11.dtd">
<svg version="1.1" xmlns="http://www.w3.org/2000/svg" xmlns:xlink="http://www.w3.org/1999/xlink" x="0px" y="0px" width="16px"
	 height="16px" viewBox="0 0 16 16" enable-background="new 0 0 16 16" xml:space="preserve">
<g id="Layer_0_xA0_Image_1_">
</g>
<g id="Row_5_1_">
	<g id="goods">
		<g>
			<path fill="#212121" d="M10.176,4.422l0.794-3.18l-0.018-0.004C10.972,1.159,11,1.084,11,1c0-0.553-0.447-1-1-1H6
				C5.447,0,5,0.447,5,1c0,0.084,0.028,0.159,0.048,0.238L5.03,1.242l0.794,3.18C3.59,5.295,2,7.456,2,10c0,3.313,2.687,6,6,6
				s6-2.687,6-6C14,7.456,12.41,5.295,10.176,4.422z M8.719,2L8.214,4.021C8.142,4.019,8.073,4,8,4S7.858,4.019,7.786,4.021L7.281,2
				H8.719z M8,14c-2.209,0-4-1.791-4-4s1.791-4,4-4s4,1.791,4,4S10.209,14,8,14z"/>
		</g>
	</g>
</g>
<g id="Row_4_1_">
</g>
<g id="Row_3_1_">
</g>
<g id="Row_2_1_">
</g>
<g id="Row_1_1_">
</g>
</svg>
