<?xml version="1.0" encoding="utf-8"?>
<!-- Generator: Adobe Illustrator 16.0.0, SVG Export Plug-In . SVG Version: 6.00 Build 0)  -->
<!DOCTYPE svg PUBLIC "-//W3C//DTD SVG 1.1//EN" "http://www.w3.org/Graphics/SVG/1.1/DTD/svg11.dtd">
<svg version="1.1" xmlns="http://www.w3.org/2000/svg" xmlns:xlink="http://www.w3.org/1999/xlink" x="0px" y="0px" width="16px"
	 height="16px" viewBox="0 0 16 16" enable-background="new 0 0 16 16" xml:space="preserve">
<g id="Layer_0_xA0_Image_1_">
</g>
<g id="Row_5_1_">
</g>
<g id="Row_4_1_">
</g>
<g id="Row_3_1_">
</g>
<g id="Row_2_1_">
	<g id="idea">
		<g>
			<path fill="#212121" d="M3,6H2C1.447,6,1,6.447,1,7s0.447,1,1,1h1c0.553,0,1-0.447,1-1S3.553,6,3,6z M8,3c0.553,0,1-0.447,1-1V1
				c0-0.553-0.447-1-1-1S7,0.447,7,1v1C7,2.553,7.447,3,8,3z M9,14H7c-0.553,0-1,0.447-1,1s0.447,1,1,1h2c0.553,0,1-0.447,1-1
				S9.553,14,9,14z M4.688,2.094L3.906,1.313c-0.432-0.432-1.131-0.432-1.563,0s-0.432,1.131,0,1.563l0.781,0.781
				c0.432,0.432,1.131,0.432,1.563,0S5.119,2.525,4.688,2.094z M14,6h-1c-0.553,0-1,0.447-1,1s0.447,1,1,1h1c0.553,0,1-0.447,1-1
				S14.553,6,14,6z M8,4C6.343,4,5,5.343,5,7c0-0.005-0.05,0.316,0.174,0.969l0.846,4.228l0.02-0.004C6.131,12.649,6.516,13,7,13h2
				c0.484,0,0.869-0.351,0.961-0.808l0.02,0.004l0.846-4.228C11.079,7.231,11,7.027,11,7C11,5.343,9.657,4,8,4z M8.918,7.395
				L8.18,11h-0.36L7.082,7.395C7.03,7.273,7,7.141,7,7c0-0.553,0.447-1,1-1s1,0.447,1,1C9,7.141,8.97,7.273,8.918,7.395z
				 M12.895,3.684l0.789-0.789c0.437-0.436,0.437-1.143,0-1.578c-0.436-0.437-1.143-0.437-1.578,0l-0.789,0.789
				c-0.437,0.436-0.437,1.143,0,1.578C11.752,4.12,12.459,4.12,12.895,3.684z"/>
		</g>
	</g>
</g>
<g id="Row_1_1_">
</g>
</svg>
