<?xml version="1.0" encoding="utf-8"?>
<!-- Generator: Adobe Illustrator 16.0.0, SVG Export Plug-In . SVG Version: 6.00 Build 0)  -->
<!DOCTYPE svg PUBLIC "-//W3C//DTD SVG 1.1//EN" "http://www.w3.org/Graphics/SVG/1.1/DTD/svg11.dtd">
<svg version="1.1" xmlns="http://www.w3.org/2000/svg" xmlns:xlink="http://www.w3.org/1999/xlink" x="0px" y="0px" width="16px"
	 height="16px" viewBox="0 0 16 16" enable-background="new 0 0 16 16" xml:space="preserve">
<g id="Layer_0_xA0_Image_1_">
</g>
<g id="Row_5_1_">
</g>
<g id="Row_4_1_">
</g>
<g id="Row_3_1_">
</g>
<g id="Row_2_1_">
	<g id="identity">
		<g>
			<path fill="#212121" d="M2.443,7.794c0.582,0,1.055-0.427,1.055-0.955c0-2.025,1.028-4.401,3.286-4.834
				c1.378-0.266,2.746,0.01,3.857,0.771c0.511,0.348,0.896,0.771,1.21,1.329c0,0,0.381,0.511,0.631,1.145
				c-0.001,0.264,0.12,0.527,0.354,0.716c0.435,0.35,1.102,0.313,1.487-0.081c0.6-0.612,0.16-1.361-0.507-2.496l-0.089-0.152
				c-0.459-0.813-1.054-1.463-1.815-1.984c-1.582-1.084-3.611-1.49-5.565-1.115C2.922,0.794,1.39,3.977,1.39,6.839
				C1.39,7.367,1.861,7.794,2.443,7.794z M14.172,7.286c-1.025-0.205-2.032-0.681-2.241-1.061c-0.1-0.177-0.182-0.361-0.264-0.541
				c-0.249-0.547-0.532-1.167-1.151-1.682c-1.406-1.168-3.378-1.3-4.798-0.326C4.783,4.318,4.116,5.503,4.059,6.625
				c-0.01,0.179-0.008,0.36-0.005,0.541C4.06,7.559,4.063,7.899,3.932,8.08C3.685,8.352,2.469,8.735,2.115,8.732
				C1.531,8.709,1.036,9.104,1.002,9.629c-0.035,0.524,0.402,0.976,0.982,1.009c0.04,0.002,0.082,0.003,0.125,0.003
				c1.029,0,2.943-0.632,3.575-1.5C6.179,8.46,6.169,7.729,6.16,7.143C6.159,6.999,6.156,6.855,6.164,6.714
				c0.029-0.561,0.385-1.211,0.827-1.516c0.695-0.476,1.576-0.225,2.1,0.211c0.275,0.228,0.431,0.57,0.628,1.003
				C9.82,6.635,9.924,6.859,10.045,7.08c0.792,1.434,3.2,1.977,3.676,2.071c0.569,0.115,1.131-0.213,1.254-0.729
				C15.101,7.908,14.74,7.398,14.172,7.286z M10.7,13.991c-1.165-1.067-2.454-2.243-3.045-2.687l-0.109-0.086
				c-0.327-0.258-0.938-0.741-1.779-0.622c-0.799,0.112-1.551,0.788-2.45,1.66c-0.173,0.169-0.322,0.315-0.43,0.403
				c-0.432,0.353-0.465,0.957-0.076,1.348c0.392,0.391,1.059,0.422,1.49,0.069c0.137-0.113,0.332-0.299,0.556-0.517
				c0.271-0.262,0.863-0.836,1.145-1.025c0.037,0.028,0.307,0.239,0.307,0.239c0.561,0.421,2.077,1.812,2.893,2.56l0.422,0.386
				C9.829,15.906,10.099,16,10.369,16c0.269,0,0.538-0.093,0.743-0.278c0.413-0.372,0.415-0.977,0.004-1.35L10.7,13.991z
				 M12.503,11.359c-0.272-0.143-0.559-0.292-0.784-0.449c-0.596-0.417-1.248-1.106-1.702-1.799L9.849,8.858
				C9.421,8.216,9.052,7.662,9.052,7.106c0-0.527-0.473-0.955-1.054-0.955c-0.583,0-1.054,0.428-1.054,0.955
				c0,1.087,0.583,1.964,1.1,2.738l0.16,0.242c0.589,0.897,1.421,1.771,2.226,2.334c0.312,0.218,0.683,0.415,1.011,0.588
				c0.245,0.129,0.482,0.25,0.648,0.368c0.192,0.138,0.423,0.205,0.65,0.205c0.313,0,0.621-0.125,0.83-0.364
				c0.359-0.415,0.279-1.015-0.178-1.341C13.137,11.695,12.827,11.532,12.503,11.359z"/>
		</g>
	</g>
</g>
<g id="Row_1_1_">
</g>
</svg>
