<?xml version="1.0" encoding="utf-8"?>
<!-- Generator: Adobe Illustrator 16.0.0, SVG Export Plug-In . SVG Version: 6.00 Build 0)  -->
<!DOCTYPE svg PUBLIC "-//W3C//DTD SVG 1.1//EN" "http://www.w3.org/Graphics/SVG/1.1/DTD/svg11.dtd">
<svg version="1.1" xmlns="http://www.w3.org/2000/svg" xmlns:xlink="http://www.w3.org/1999/xlink" x="0px" y="0px" width="16px"
	 height="16px" viewBox="0 0 16 16" enable-background="new 0 0 16 16" xml:space="preserve">
<g id="Layer_0_xA0_Image_1_">
</g>
<g id="Row_5_1_">
</g>
<g id="Row_4_1_">
</g>
<g id="Row_3_1_">
</g>
<g id="Row_2_1_">
	<g id="ingot">
		<g>
			<path fill="#212121" d="M15.961,13.808l0.02-0.004l-1-5l-0.02,0.004C14.869,8.351,14.484,8,14,8h-3c0.553,0,1-0.447,1-1
				c0-0.068-0.025-0.128-0.039-0.192l0.02-0.004l-1-5l-0.02,0.004C10.869,1.351,10.484,1,10,1H6C5.516,1,5.131,1.351,5.039,1.808
				L5.02,1.804l-1,5l0.02,0.004C4.025,6.872,4,6.932,4,7c0,0.553,0.447,1,1,1H2C1.516,8,1.131,8.351,1.039,8.808L1.02,8.804l-1,5
				l0.02,0.004C0.025,13.872,0,13.932,0,14c0,0.553,0.447,1,1,1h6c0.553,0,1-0.447,1-1c0-0.068-0.025-0.128-0.039-0.192l0.02-0.004
				l-1-5l-0.02,0.004C6.869,8.351,6.484,8,6,8h4C9.516,8,9.131,8.351,9.039,8.808L9.02,8.804l-1,5l0.02,0.004
				C8.025,13.872,8,13.932,8,14c0,0.553,0.447,1,1,1h6c0.553,0,1-0.447,1-1C16,13.932,15.975,13.872,15.961,13.808z M2.22,13l0.6-3
				h2.36l0.601,3H2.22z M6.22,6l0.6-3h2.36L9.78,6H6.22z M10.22,13l0.6-3h2.36l0.601,3H10.22z"/>
		</g>
	</g>
</g>
<g id="Row_1_1_">
</g>
</svg>
