<?xml version="1.0" encoding="utf-8"?>
<!-- Generator: Adobe Illustrator 16.0.0, SVG Export Plug-In . SVG Version: 6.00 Build 0)  -->
<!DOCTYPE svg PUBLIC "-//W3C//DTD SVG 1.1//EN" "http://www.w3.org/Graphics/SVG/1.1/DTD/svg11.dtd">
<svg version="1.1" xmlns="http://www.w3.org/2000/svg" xmlns:xlink="http://www.w3.org/1999/xlink" x="0px" y="0px" width="16px"
	 height="16px" viewBox="0 0 16 16" enable-background="new 0 0 16 16" xml:space="preserve">
<g id="Layer_0_xA0_Image_1_">
</g>
<g id="Row_5_1_">
	<g id="mastercard">
		<g>
			<path fill="#212121" d="M15,2H1C0.447,2,0,2.447,0,3v10c0,0.553,0.447,1,1,1h14c0.553,0,1-0.447,1-1V3C16,2.447,15.553,2,15,2z
				 M14,12H2V4h12V12z M6,11c0.771,0,1.469-0.3,2-0.778C8.531,10.7,9.229,11,10,11c1.657,0,3-1.343,3-3s-1.343-3-3-3
				C9.229,5,8.531,5.3,8,5.778C7.469,5.3,6.771,5,6,5C4.343,5,3,6.343,3,8S4.343,11,6,11z M10,7c0.553,0,1,0.447,1,1s-0.447,1-1,1
				S9,8.553,9,8S9.447,7,10,7z M6,7c0.553,0,1,0.447,1,1S6.553,9,6,9S5,8.553,5,8S5.447,7,6,7z"/>
		</g>
	</g>
</g>
<g id="Row_4_1_">
</g>
<g id="Row_3_1_">
</g>
<g id="Row_2_1_">
</g>
<g id="Row_1_1_">
</g>
</svg>
