<?xml version="1.0" encoding="utf-8"?>
<!-- Generator: Adobe Illustrator 16.0.0, SVG Export Plug-In . SVG Version: 6.00 Build 0)  -->
<!DOCTYPE svg PUBLIC "-//W3C//DTD SVG 1.1//EN" "http://www.w3.org/Graphics/SVG/1.1/DTD/svg11.dtd">
<svg version="1.1" xmlns="http://www.w3.org/2000/svg" xmlns:xlink="http://www.w3.org/1999/xlink" x="0px" y="0px" width="16px"
	 height="16px" viewBox="0 0 16 16" enable-background="new 0 0 16 16" xml:space="preserve">
<g id="Layer_0_xA0_Image_1_">
</g>
<g id="Row_5_1_">
</g>
<g id="Row_4_1_">
	<g id="presentation">
		<g>
			<path fill="#212121" d="M7,6h2c0.553,0,1-0.447,1-1S9.553,4,9,4H7C6.447,4,6,4.447,6,5S6.447,6,7,6z M14,9V2c0-0.553-0.447-1-1-1
				H9c0-0.553-0.447-1-1-1S7,0.447,7,1H3C2.447,1,2,1.447,2,2v7c0,0.553,0.447,1,1,1h0.612l-1.561,4.684l0.012,0.004
				C2.029,14.787,2,14.89,2,15c0,0.553,0.447,1,1,1c0.441,0,0.805-0.291,0.937-0.688l0.012,0.004L5.721,10H7v2c0,0.553,0.447,1,1,1
				s1-0.447,1-1v-2h1.279l1.772,5.316l0.012-0.004C12.195,15.709,12.559,16,13,16c0.553,0,1-0.447,1-1
				c0-0.11-0.03-0.213-0.063-0.313l0.012-0.004L12.388,10H13C13.553,10,14,9.553,14,9z M12,8H4V3h8V8z"/>
		</g>
	</g>
</g>
<g id="Row_3_1_">
</g>
<g id="Row_2_1_">
</g>
<g id="Row_1_1_">
</g>
</svg>
