<?xml version="1.0" encoding="utf-8"?>
<!-- Generator: Adobe Illustrator 16.0.0, SVG Export Plug-In . SVG Version: 6.00 Build 0)  -->
<!DOCTYPE svg PUBLIC "-//W3C//DTD SVG 1.1//EN" "http://www.w3.org/Graphics/SVG/1.1/DTD/svg11.dtd">
<svg version="1.1" xmlns="http://www.w3.org/2000/svg" xmlns:xlink="http://www.w3.org/1999/xlink" x="0px" y="0px" width="16px"
	 height="16px" viewBox="0 0 16 16" enable-background="new 0 0 16 16" xml:space="preserve">
<g id="Layer_0_xA0_Image_1_">
</g>
<g id="Row_5_1_">
</g>
<g id="Row_4_1_">
</g>
<g id="Row_3_1_">
</g>
<g id="Row_2_1_">
</g>
<g id="Row_1_1_">
	<g id="price">
		<g>
			<path fill="#212121" d="M4.002,3.001c-0.553,0-1,0.448-1,1c0,0.553,0.447,1,1,1s1-0.447,1-1C5.002,3.449,4.555,3.001,4.002,3.001
				z M15.715,8.198L7.763,0.37C7.579,0.149,7.313,0,7.003,0H1C0.447,0,0,0.448,0,1v6.003C0,7.27,0.108,7.511,0.278,7.69L0.272,7.696
				l7.925,8.018c0.381,0.381,0.999,0.381,1.38,0l6.138-6.138C16.095,9.196,16.095,8.579,15.715,8.198z M8.887,13.646L2.001,6.671
				v-4.67H6.64l7.006,6.886L8.887,13.646z M8.004,11.005c0.276,0,0.527-0.112,0.708-0.293l2.001-2.001
				c0.181-0.181,0.293-0.431,0.293-0.708c0-0.553-0.447-1-1-1c-0.276,0-0.527,0.112-0.708,0.293L7.296,9.297
				c-0.181,0.181-0.293,0.431-0.293,0.708C7.003,10.558,7.451,11.005,8.004,11.005z"/>
		</g>
	</g>
</g>
</svg>
