<?xml version="1.0" encoding="utf-8"?>
<!-- Generator: Adobe Illustrator 16.0.0, SVG Export Plug-In . SVG Version: 6.00 Build 0)  -->
<!DOCTYPE svg PUBLIC "-//W3C//DTD SVG 1.1//EN" "http://www.w3.org/Graphics/SVG/1.1/DTD/svg11.dtd">
<svg version="1.1" xmlns="http://www.w3.org/2000/svg" xmlns:xlink="http://www.w3.org/1999/xlink" x="0px" y="0px" width="16px"
	 height="16px" viewBox="0 0 16 16" enable-background="new 0 0 16 16" xml:space="preserve">
<g id="Layer_0_xA0_Image_1_">
</g>
<g id="Row_5_1_">
</g>
<g id="Row_4_1_">
</g>
<g id="Row_3_1_">
</g>
<g id="Row_2_1_">
	<g id="seal_of_approval">
		<g>
			<path fill="#212121" d="M11,5c-0.347,0-0.638,0.188-0.816,0.455L7.001,8.587L5.707,7.293C5.526,7.112,5.276,7,5,7
				C4.447,7,4,7.447,4,8c0,0.276,0.112,0.526,0.293,0.707l2,2C6.474,10.888,6.724,11,7,11c0.66,0,0.832-0.445,0.832-0.445l4-4
				C11.832,6.555,12,6.408,12,6C12,5.447,11.553,5,11,5z M8,0C3.582,0,0,3.582,0,8s3.582,8,8,8s8-3.582,8-8S12.418,0,8,0z M8,14
				c-3.313,0-6-2.687-6-6s2.687-6,6-6s6,2.687,6,6S11.313,14,8,14z"/>
		</g>
	</g>
</g>
<g id="Row_1_1_">
</g>
</svg>
