<?xml version="1.0" encoding="utf-8"?>
<!-- Generator: Adobe Illustrator 16.0.0, SVG Export Plug-In . SVG Version: 6.00 Build 0)  -->
<!DOCTYPE svg PUBLIC "-//W3C//DTD SVG 1.1//EN" "http://www.w3.org/Graphics/SVG/1.1/DTD/svg11.dtd">
<svg version="1.1" xmlns="http://www.w3.org/2000/svg" xmlns:xlink="http://www.w3.org/1999/xlink" x="0px" y="0px" width="16px"
	 height="16px" viewBox="0 0 16 16" enable-background="new 0 0 16 16" xml:space="preserve">
<g id="Layer_0_xA0_Image_1_">
</g>
<g id="Row_5_1_">
</g>
<g id="Row_4_1_">
</g>
<g id="Row_3_1_">
</g>
<g id="Row_2_1_">
</g>
<g id="Row_1_1_">
	<g id="shopping">
		<g>
			<path fill="#212121" d="M14.979,14.892l0.016-0.002l-1-9l-0.016,0.002C13.922,5.393,13.514,5,13,5h-1V4c0-2.209-1.791-4-4-4
				S4,1.791,4,4v1H3C2.486,5,2.078,5.393,2.021,5.892L2.006,5.89l-1,9l0.016,0.002C1.018,14.929,1,14.962,1,15c0,0.553,0.447,1,1,1
				h12c0.553,0,1-0.447,1-1C15,14.962,14.982,14.929,14.979,14.892z M3.117,14l0.777-7h4.21l0.778,7H3.117z M10,5H6V4
				c0-1.104,0.896-2,2-2s2,0.896,2,2V5z M10.895,14l-0.777-7h1.987l0.778,7H10.895z"/>
		</g>
	</g>
</g>
</svg>
