<?xml version="1.0" encoding="utf-8"?>
<!-- Generator: Adobe Illustrator 16.0.0, SVG Export Plug-In . SVG Version: 6.00 Build 0)  -->
<!DOCTYPE svg PUBLIC "-//W3C//DTD SVG 1.1//EN" "http://www.w3.org/Graphics/SVG/1.1/DTD/svg11.dtd">
<svg version="1.1" xmlns="http://www.w3.org/2000/svg" xmlns:xlink="http://www.w3.org/1999/xlink" x="0px" y="0px" width="16px"
	 height="16px" viewBox="0 0 16 16" enable-background="new 0 0 16 16" xml:space="preserve">
<g id="Layer_0_xA0_Image_1_">
</g>
<g id="Row_5_1_">
</g>
<g id="Row_4_1_">
</g>
<g id="Row_3_1_">
	<g id="small_wallet">
		<g>
			<path fill="#212121" d="M15,9h-1V5c0-0.553-0.447-1-1-1h-1V1c0-0.553-0.447-1-1-1H3C1.343,0,0,1.343,0,3v10c0,1.526,1.514,3,3,3
				h10c0.553,0,1-0.447,1-1v-4h1c0.553,0,1-0.447,1-1S15.553,9,15,9z M3,2h7v2H3C2.447,4,2,3.553,2,3S2.447,2,3,2z M12,9h-1
				c-0.553,0-1,0.447-1,1s0.447,1,1,1h1v3H3c-0.553,0-1-0.447-1-1V5.816C2.314,5.928,2.647,6,3,6h9V9z"/>
		</g>
	</g>
</g>
<g id="Row_2_1_">
</g>
<g id="Row_1_1_">
</g>
</svg>
