<?xml version="1.0" encoding="utf-8"?>
<!-- Generator: Adobe Illustrator 16.0.0, SVG Export Plug-In . SVG Version: 6.00 Build 0)  -->
<!DOCTYPE svg PUBLIC "-//W3C//DTD SVG 1.1//EN" "http://www.w3.org/Graphics/SVG/1.1/DTD/svg11.dtd">
<svg version="1.1" xmlns="http://www.w3.org/2000/svg" xmlns:xlink="http://www.w3.org/1999/xlink" x="0px" y="0px" width="16px"
	 height="16px" viewBox="0 0 16 16" enable-background="new 0 0 16 16" xml:space="preserve">
<g id="Layer_0_xA0_Image_1_">
</g>
<g id="Row_5_1_">
</g>
<g id="Row_4_1_">
</g>
<g id="Row_3_1_">
</g>
<g id="Row_2_1_">
</g>
<g id="Row_1_1_">
	<g id="spreadsheets">
		<g>
			<path fill="#212121" d="M15,1H1C0.447,1,0,1.447,0,2v12c0,0.553,0.447,1,1,1h14c0.553,0,1-0.447,1-1V2C16,1.447,15.553,1,15,1z
				 M7,13H2v-2h5V13z M7,9H2V7h5V9z M7,5H2V3h5V5z M14,13H9v-2h5V13z M14,9H9V7h5V9z M14,5H9V3h5V5z"/>
		</g>
	</g>
</g>
</svg>
