<?xml version="1.0" encoding="utf-8"?>
<!-- Generator: Adobe Illustrator 16.0.0, SVG Export Plug-In . SVG Version: 6.00 Build 0)  -->
<!DOCTYPE svg PUBLIC "-//W3C//DTD SVG 1.1//EN" "http://www.w3.org/Graphics/SVG/1.1/DTD/svg11.dtd">
<svg version="1.1" xmlns="http://www.w3.org/2000/svg" xmlns:xlink="http://www.w3.org/1999/xlink" x="0px" y="0px" width="16px"
	 height="16px" viewBox="0 0 16 16" enable-background="new 0 0 16 16" xml:space="preserve">
<g id="Layer_0_xA0_Image_1_">
</g>
<g id="Row_5_1_">
</g>
<g id="Row_4_1_">
</g>
<g id="Row_3_1_">
</g>
<g id="Row_2_1_">
</g>
<g id="Row_1_1_">
	<g id="stats">
		<g>
			<path fill="#212121" d="M4,12.969c0.532,0.061,1.017-0.436,1-0.995C4.967,10.869,5.43,9.17,5.969,8.24
				c0.406-0.705,0.648-0.878,0.646-0.903c0.193,0.054,0.612,0.502,0.793,0.696c0.095,0.102,0.184,0.196,0.267,0.279
				c0.455,0.454,1.302,1.301,2.41,1.425c1.331,0.153,2.657-0.632,3.378-1.991c0.591-1.113,0.869-2.417,1.115-3.567
				C14.686,3.672,15.001,2.544,15,2.026c-0.001-0.56-0.466-0.995-1-0.995l0.016-0.024C13.48,1.008,12.999,1.466,13,2.026
				c0,0.092-0.159,0.988-0.314,1.71c-0.228,1.065-0.463,2.168-0.918,3.025c-0.26,0.49-0.805,1.034-1.477,0.96
				C9.838,7.67,9.301,7.134,9.013,6.846c-0.068-0.068-0.142-0.146-0.22-0.229C8.286,6.072,7.518,5.265,6.515,5.31
				C5.478,5.37,4.76,6.412,4.311,7.189C3.632,8.361,2.953,10.393,3,11.974C3.036,13.178,4.166,12.986,4,12.969z M15,14H2V1
				c0-0.553-0.447-1-1-1S0,0.447,0,1v14c0,0.553,0.447,1,1,1h14c0.553,0,1-0.447,1-1S15.553,14,15,14z"/>
		</g>
	</g>
</g>
</svg>
