<?xml version="1.0" encoding="utf-8"?>
<!-- Generator: Adobe Illustrator 16.0.0, SVG Export Plug-In . SVG Version: 6.00 Build 0)  -->
<!DOCTYPE svg PUBLIC "-//W3C//DTD SVG 1.1//EN" "http://www.w3.org/Graphics/SVG/1.1/DTD/svg11.dtd">
<svg version="1.1" xmlns="http://www.w3.org/2000/svg" xmlns:xlink="http://www.w3.org/1999/xlink" x="0px" y="0px" width="16px"
	 height="16px" viewBox="0 0 16 16" enable-background="new 0 0 16 16" xml:space="preserve">
<g id="Layer_0_xA0_Image_1_">
</g>
<g id="Row_5_1_">
</g>
<g id="Row_4_1_">
</g>
<g id="Row_3_1_">
</g>
<g id="Row_2_1_">
	<g id="trash">
		<g>
			<path fill="#212121" d="M4,4h8c0.553,0,1-0.447,1-1s-0.447-1-1-1H9V1c0-0.553-0.447-1-1-1S7,0.447,7,1v1H4C3.447,2,3,2.447,3,3
				S3.447,4,4,4z M12,5H4C3.447,5,3,5.447,3,6c0,0.038,0.018,0.071,0.021,0.108L3.006,6.11l1,9l0.016-0.002
				C4.078,15.607,4.486,16,5,16h6c0.514,0,0.922-0.393,0.979-0.892l0.016,0.002l1-9l-0.016-0.002C12.982,6.071,13,6.038,13,6
				C13,5.447,12.553,5,12,5z M10.104,14H5.896L5.117,7H7v3c0,0.553,0.447,1,1,1s1-0.447,1-1V7h1.883L10.104,14z"/>
		</g>
	</g>
</g>
<g id="Row_1_1_">
</g>
</svg>
