<?xml version="1.0" encoding="utf-8"?>
<!-- Generator: Adobe Illustrator 16.0.0, SVG Export Plug-In . SVG Version: 6.00 Build 0)  -->
<!DOCTYPE svg PUBLIC "-//W3C//DTD SVG 1.1//EN" "http://www.w3.org/Graphics/SVG/1.1/DTD/svg11.dtd">
<svg version="1.1" xmlns="http://www.w3.org/2000/svg" xmlns:xlink="http://www.w3.org/1999/xlink" x="0px" y="0px" width="16px"
	 height="16px" viewBox="0 0 16 16" enable-background="new 0 0 16 16" xml:space="preserve">
<g id="Layer_0_xA0_Image_1_">
</g>
<g id="Row_5_1_">
</g>
<g id="Row_4_1_">
	<g id="up">
		<g>
			<path fill="#212121" d="M14.75,7.356l0.009-0.007l-6-7L8.75,0.356C8.566,0.143,8.304,0,8,0S7.434,0.143,7.25,0.356L7.24,0.35
				l-6,7l0.01,0.007C1.1,7.531,1,7.752,1,8c0,0.553,0.447,1,1,1h3v6c0,0.553,0.447,1,1,1h4c0.553,0,1-0.447,1-1V9h3
				c0.553,0,1-0.447,1-1C15,7.752,14.9,7.531,14.75,7.356z M10,7C9.447,7,9,7.447,9,8v6H7V8c0-0.553-0.447-1-1-1H4.174L8,2.536
				L11.826,7H10z"/>
		</g>
	</g>
</g>
<g id="Row_3_1_">
</g>
<g id="Row_2_1_">
</g>
<g id="Row_1_1_">
</g>
</svg>
