<?xml version="1.0" encoding="utf-8"?>
<!-- Generator: Adobe Illustrator 16.0.0, SVG Export Plug-In . SVG Version: 6.00 Build 0)  -->
<!DOCTYPE svg PUBLIC "-//W3C//DTD SVG 1.1//EN" "http://www.w3.org/Graphics/SVG/1.1/DTD/svg11.dtd">
<svg version="1.1" xmlns="http://www.w3.org/2000/svg" xmlns:xlink="http://www.w3.org/1999/xlink" x="0px" y="0px" width="16px"
	 height="16px" viewBox="0 0 16 16" enable-background="new 0 0 16 16" xml:space="preserve">
<g id="Layer_0_xA0_Image_1_">
</g>
<g id="Row_5_1_">
	<g id="AC_voltage_source">
		<g>
			<path fill-rule="evenodd" clip-rule="evenodd" fill="#212121" d="M8,0C3.582,0,0,3.582,0,8s3.582,8,8,8s8-3.582,8-8S12.418,0,8,0
				z M8,14c-3.313,0-6-2.687-6-6s2.687-6,6-6s6,2.687,6,6S11.313,14,8,14z M11.542,6.076c-0.445-0.252-1.105-0.056-1.362,0.381
				c-1.836,1.836-2.764-1.25-6.067,2.055l0.005,0.003C3.86,8.951,3.997,9.601,4.458,9.862c0.538,0.305,1.101,0.053,1.356-0.383
				C5.815,9.479,5.82,9.481,5.82,9.481c1.719-1.72,2.845,1.169,6.067-2.055l-0.005-0.003C12.14,6.987,12.003,6.338,11.542,6.076z"/>
		</g>
	</g>
</g>
<g id="Row_4_1_">
</g>
<g id="Row_3_1_">
</g>
<g id="Row_2_1_">
</g>
<g id="Row_1_1_">
</g>
</svg>
