<?xml version="1.0" encoding="utf-8"?>
<!-- Generator: Adobe Illustrator 16.0.0, SVG Export Plug-In . SVG Version: 6.00 Build 0)  -->
<!DOCTYPE svg PUBLIC "-//W3C//DTD SVG 1.1//EN" "http://www.w3.org/Graphics/SVG/1.1/DTD/svg11.dtd">
<svg version="1.1" xmlns="http://www.w3.org/2000/svg" xmlns:xlink="http://www.w3.org/1999/xlink" x="0px" y="0px" width="16px"
	 height="16px" viewBox="0 0 16 16" enable-background="new 0 0 16 16" xml:space="preserve">
<g id="Layer_0_xA0_Image_1_">
</g>
<g id="Row_5_1_">
	<g id="AND_gate">
		<g>
			<path fill="#212121" d="M15,7h-2.101C12.421,4.165,9.971,2,7,2H4C3.447,2,3,2.447,3,3v1H1C0.447,4,0,4.447,0,5s0.447,1,1,1h2v4H1
				c-0.553,0-1,0.447-1,1s0.447,1,1,1h2v1c0,0.553,0.447,1,1,1h3c2.971,0,5.421-2.165,5.899-5H15c0.553,0,1-0.447,1-1S15.553,7,15,7
				z M7,12H5V4h2c2.209,0,4,1.791,4,4S9.209,12,7,12z"/>
		</g>
	</g>
</g>
<g id="Row_4_1_">
</g>
<g id="Row_3_1_">
</g>
<g id="Row_2_1_">
</g>
<g id="Row_1_1_">
</g>
</svg>
