<?xml version="1.0" encoding="utf-8"?>
<!-- Generator: Adobe Illustrator 16.0.0, SVG Export Plug-In . SVG Version: 6.00 Build 0)  -->
<!DOCTYPE svg PUBLIC "-//W3C//DTD SVG 1.1//EN" "http://www.w3.org/Graphics/SVG/1.1/DTD/svg11.dtd">
<svg version="1.1" xmlns="http://www.w3.org/2000/svg" xmlns:xlink="http://www.w3.org/1999/xlink" x="0px" y="0px" width="16px"
	 height="16px" viewBox="0 0 16 16" enable-background="new 0 0 16 16" xml:space="preserve">
<g id="Layer_0_xA0_Image_1_">
</g>
<g id="Row_5_1_">
</g>
<g id="Row_4_1_">
	<g id="apple_plug">
		<g>
			<path fill="#212121" d="M15,4V1c0-0.553-0.447-1-1-1H2C1.447,0,1,0.447,1,1v3C0.447,4,0,4.447,0,5v5c0,0.553,0.447,1,1,1h4
				c0,0.553,0.447,1,1,1h1v4h2v-4h1c0.553,0,1-0.447,1-1h4c0.553,0,1-0.447,1-1V5C16,4.447,15.553,4,15,4z M3,2h10v2h-1V3h-1v1H5V3
				H4v1H3V2z M14,9H2V6h12V9z"/>
		</g>
	</g>
</g>
<g id="Row_3_1_">
</g>
<g id="Row_2_1_">
</g>
<g id="Row_1_1_">
</g>
</svg>
