<?xml version="1.0" encoding="utf-8"?>
<!-- Generator: Adobe Illustrator 16.0.0, SVG Export Plug-In . SVG Version: 6.00 Build 0)  -->
<!DOCTYPE svg PUBLIC "-//W3C//DTD SVG 1.1//EN" "http://www.w3.org/Graphics/SVG/1.1/DTD/svg11.dtd">
<svg version="1.1" xmlns="http://www.w3.org/2000/svg" xmlns:xlink="http://www.w3.org/1999/xlink" x="0px" y="0px" width="16px"
	 height="16px" viewBox="0 0 16 16" enable-background="new 0 0 16 16" xml:space="preserve">
<g id="Layer_0_xA0_Image_1_">
</g>
<g id="Row_5_1_">
</g>
<g id="Row_4_1_">
</g>
<g id="Row_3_1_">
	<g id="cables">
		<g>
			<path fill="#212121" d="M15,10h-1V5.5C14,3.567,12.433,2,10.5,2S7,3.567,7,5.5v5C7,11.328,6.328,12,5.5,12S4,11.328,4,10.5V6h1
				c0.553,0,1-0.447,1-1V1c0-0.553-0.447-1-1-1H1C0.447,0,0,0.447,0,1v4c0,0.553,0.447,1,1,1h1v4.5C2,12.433,3.567,14,5.5,14
				S9,12.433,9,10.5v-5C9,4.672,9.672,4,10.5,4S12,4.672,12,5.5V10h-1c-0.553,0-1,0.447-1,1v4c0,0.553,0.447,1,1,1h4
				c0.553,0,1-0.447,1-1v-4C16,10.447,15.553,10,15,10z M2,4V2h2v2H2z M14,14h-2v-2h2V14z"/>
		</g>
	</g>
</g>
<g id="Row_2_1_">
</g>
<g id="Row_1_1_">
</g>
</svg>
