<?xml version="1.0" encoding="utf-8"?>
<!-- Generator: Adobe Illustrator 16.0.0, SVG Export Plug-In . SVG Version: 6.00 Build 0)  -->
<!DOCTYPE svg PUBLIC "-//W3C//DTD SVG 1.1//EN" "http://www.w3.org/Graphics/SVG/1.1/DTD/svg11.dtd">
<svg version="1.1" xmlns="http://www.w3.org/2000/svg" xmlns:xlink="http://www.w3.org/1999/xlink" x="0px" y="0px" width="16px"
	 height="16px" viewBox="0 0 16 16" enable-background="new 0 0 16 16" xml:space="preserve">
<g id="Layer_0_xA0_Image_1_">
</g>
<g id="Row_5_1_">
	<g id="chassis">
		<g>
			<path fill="#212121" d="M15,8c0-0.553-0.447-1-1-1h-4V1c0-0.553-0.447-1-1-1S8,0.447,8,1v6H4C3.588,7,3.234,7.25,3.081,7.606
				L3.079,7.609c0,0.001,0,0.002-0.001,0.003l-2.997,6.994C0.029,14.728,0,14.86,0,15c0,0.553,0.447,1,1,1
				c0.412,0,0.766-0.25,0.918-0.606h0.001l0.002-0.003c0-0.001,0-0.002,0.001-0.003L4.659,9h2.824l-2.402,5.606
				C5.029,14.728,5,14.86,5,15c0,0.553,0.447,1,1,1c0.412,0,0.766-0.25,0.918-0.606h0.001l0.002-0.003c0-0.001,0-0.002,0.001-0.003
				L9.659,9h2.824l-2.402,5.606C10.029,14.728,10,14.86,10,15c0,0.553,0.447,1,1,1c0.412,0,0.766-0.25,0.918-0.606h0.001
				l0.002-0.003c0-0.001,0-0.002,0.001-0.003l2.997-6.994h-0.001C14.971,8.272,15,8.14,15,8z"/>
		</g>
	</g>
</g>
<g id="Row_4_1_">
</g>
<g id="Row_3_1_">
</g>
<g id="Row_2_1_">
</g>
<g id="Row_1_1_">
</g>
</svg>
