<?xml version="1.0" encoding="utf-8"?>
<!-- Generator: Adobe Illustrator 16.0.0, SVG Export Plug-In . SVG Version: 6.00 Build 0)  -->
<!DOCTYPE svg PUBLIC "-//W3C//DTD SVG 1.1//EN" "http://www.w3.org/Graphics/SVG/1.1/DTD/svg11.dtd">
<svg version="1.1" xmlns="http://www.w3.org/2000/svg" xmlns:xlink="http://www.w3.org/1999/xlink" x="0px" y="0px" width="16px"
	 height="16px" viewBox="0 0 16 16" enable-background="new 0 0 16 16" xml:space="preserve">
<g id="Layer_0_xA0_Image_1_">
</g>
<g id="Row_5_1_">
	<g id="crystal">
		<g>
			<path fill="#212121" d="M15,7h-1V6c0-0.553-0.447-1-1-1s-1,0.447-1,1v4c0,0.553,0.447,1,1,1s1-0.447,1-1V9h1c0.553,0,1-0.447,1-1
				S15.553,7,15,7z M3,5C2.447,5,2,5.447,2,6v1H1C0.447,7,0,7.447,0,8s0.447,1,1,1h1v1c0,0.553,0.447,1,1,1s1-0.447,1-1V6
				C4,5.447,3.553,5,3,5z M10,3H6C5.447,3,5,3.447,5,4v8c0,0.553,0.447,1,1,1h4c0.553,0,1-0.447,1-1V4C11,3.447,10.553,3,10,3z
				 M9,11H7V5h2V11z"/>
		</g>
	</g>
</g>
<g id="Row_4_1_">
</g>
<g id="Row_3_1_">
</g>
<g id="Row_2_1_">
</g>
<g id="Row_1_1_">
</g>
</svg>
