<?xml version="1.0" encoding="utf-8"?>
<!-- Generator: Adobe Illustrator 16.0.0, SVG Export Plug-In . SVG Version: 6.00 Build 0)  -->
<!DOCTYPE svg PUBLIC "-//W3C//DTD SVG 1.1//EN" "http://www.w3.org/Graphics/SVG/1.1/DTD/svg11.dtd">
<svg version="1.1" xmlns="http://www.w3.org/2000/svg" xmlns:xlink="http://www.w3.org/1999/xlink" x="0px" y="0px" width="16px"
	 height="16px" viewBox="0 0 16 16" enable-background="new 0 0 16 16" xml:space="preserve">
<g id="Layer_0_xA0_Image_1_">
</g>
<g id="Row_5_1_">
</g>
<g id="Row_4_1_">
</g>
<g id="Row_3_1_">
</g>
<g id="Row_2_1_">
</g>
<g id="Row_1_1_">
	<g id="driver_top_view">
		<g>
			<path fill="#212121" d="M15,2H3V1c0-0.553-0.447-1-1-1S1,0.447,1,1v8c-0.553,0-1,0.447-1,1v2c0,0.553,0.447,1,1,1v2
				c0,0.553,0.447,1,1,1s1-0.447,1-1v-1h12c0.553,0,1-0.447,1-1V3C16,2.447,15.553,2,15,2z M4,12H3V4h1V12z M10,12H5V4h5V12z M14,12
				h-2V4h2V12z"/>
		</g>
	</g>
</g>
</svg>
