<?xml version="1.0" encoding="utf-8"?>
<!-- Generator: Adobe Illustrator 16.0.0, SVG Export Plug-In . SVG Version: 6.00 Build 0)  -->
<!DOCTYPE svg PUBLIC "-//W3C//DTD SVG 1.1//EN" "http://www.w3.org/Graphics/SVG/1.1/DTD/svg11.dtd">
<svg version="1.1" xmlns="http://www.w3.org/2000/svg" xmlns:xlink="http://www.w3.org/1999/xlink" x="0px" y="0px" width="16px"
	 height="16px" viewBox="0 0 16 16" enable-background="new 0 0 16 16" xml:space="preserve">
<g id="Layer_0_xA0_Image_1_">
</g>
<g id="Row_5_1_">
</g>
<g id="Row_4_1_">
</g>
<g id="Row_3_1_">
</g>
<g id="Row_2_1_">
</g>
<g id="Row_1_1_">
	<g id="driver_slot">
		<g>
			<path fill="#212121" d="M15,7h-1V6c0-0.553-0.447-1-1-1H3C2.447,5,2,5.447,2,6v1H1C0.447,7,0,7.447,0,8s0.447,1,1,1h1v1
				c0,0.553,0.447,1,1,1h10c0.553,0,1-0.447,1-1V9h1c0.553,0,1-0.447,1-1S15.553,7,15,7z M6,9H4V7h2V9z M12,9H7V7h5V9z"/>
		</g>
	</g>
</g>
</svg>
