<?xml version="1.0" encoding="utf-8"?>
<!-- Generator: Adobe Illustrator 16.0.0, SVG Export Plug-In . SVG Version: 6.00 Build 0)  -->
<!DOCTYPE svg PUBLIC "-//W3C//DTD SVG 1.1//EN" "http://www.w3.org/Graphics/SVG/1.1/DTD/svg11.dtd">
<svg version="1.1" xmlns="http://www.w3.org/2000/svg" xmlns:xlink="http://www.w3.org/1999/xlink" x="0px" y="0px" width="16px"
	 height="16px" viewBox="0 0 16 16" enable-background="new 0 0 16 16" xml:space="preserve">
<g id="Layer_0_xA0_Image_1_">
</g>
<g id="Row_5_1_">
</g>
<g id="Row_4_1_">
</g>
<g id="Row_3_1_">
	<g id="flash_drive">
		<g>
			<path fill="#212121" d="M15.715,2.348l-2.063-2.063c-0.379-0.38-0.995-0.38-1.374,0l-2.75,2.749c-0.38-0.379-0.995-0.379-1.375,0
				L1.341,9.848c0,0-0.097,0.096-0.345,0.344c-1.328,1.328-1.328,3.482,0,4.812c1.33,1.329,3.484,1.329,4.813,0
				c0.248-0.247,0.344-0.343,0.344-0.343l6.813-6.813c0.379-0.38,0.379-0.995,0-1.375l2.749-2.75
				C16.095,3.342,16.095,2.727,15.715,2.348z M4.778,13.284c0,0-0.089,0.089-0.344,0.344c-0.57,0.569-1.493,0.569-2.063,0
				s-0.569-1.492,0-2.063c0.255-0.255,0.344-0.344,0.344-0.344L9.528,4.41l2.062,2.062L4.778,13.284z M11.246,3.378
				c-0.189-0.189-0.189-0.497,0-0.687l0.688-0.688c0.189-0.189,0.497-0.189,0.688,0c0.189,0.189,0.189,0.497,0,0.688l-0.688,0.687
				C11.744,3.568,11.437,3.568,11.246,3.378z M13.996,4.065l-0.688,0.688c-0.189,0.189-0.497,0.189-0.687,0
				c-0.19-0.19-0.19-0.498,0-0.688l0.687-0.688c0.19-0.189,0.498-0.189,0.688,0C14.186,3.568,14.186,3.876,13.996,4.065z"/>
		</g>
	</g>
</g>
<g id="Row_2_1_">
</g>
<g id="Row_1_1_">
</g>
</svg>
