<?xml version="1.0" encoding="utf-8"?>
<!-- Generator: Adobe Illustrator 16.0.0, SVG Export Plug-In . SVG Version: 6.00 Build 0)  -->
<!DOCTYPE svg PUBLIC "-//W3C//DTD SVG 1.1//EN" "http://www.w3.org/Graphics/SVG/1.1/DTD/svg11.dtd">
<svg version="1.1" xmlns="http://www.w3.org/2000/svg" xmlns:xlink="http://www.w3.org/1999/xlink" x="0px" y="0px" width="16px"
	 height="16px" viewBox="0 0 16 16" enable-background="new 0 0 16 16" xml:space="preserve">
<g id="Layer_0_xA0_Image_1_">
</g>
<g id="Row_5_1_">
</g>
<g id="Row_4_1_">
	<g id="floppy_disk">
		<g>
			<path fill="#212121" d="M15.707,4.293l-4-4C11.526,0.112,11.276,0,11,0H1C0.447,0,0,0.447,0,1v14c0,0.553,0.447,1,1,1h14
				c0.553,0,1-0.447,1-1V5C16,4.724,15.888,4.474,15.707,4.293z M7,2h2v2H7V2z M10,14H6v-3h4V14z M14,14h-2v-4c0-0.553-0.447-1-1-1
				H5c-0.553,0-1,0.447-1,1v4H2V2h3v3c0,0.553,0.447,1,1,1h4c0.553,0,1-0.447,1-1V2.414l3,3V14z"/>
		</g>
	</g>
</g>
<g id="Row_3_1_">
</g>
<g id="Row_2_1_">
</g>
<g id="Row_1_1_">
</g>
</svg>
