<?xml version="1.0" encoding="utf-8"?>
<!-- Generator: Adobe Illustrator 16.0.0, SVG Export Plug-In . SVG Version: 6.00 Build 0)  -->
<!DOCTYPE svg PUBLIC "-//W3C//DTD SVG 1.1//EN" "http://www.w3.org/Graphics/SVG/1.1/DTD/svg11.dtd">
<svg version="1.1" xmlns="http://www.w3.org/2000/svg" xmlns:xlink="http://www.w3.org/1999/xlink" x="0px" y="0px" width="16px"
	 height="16px" viewBox="0 0 16 16" enable-background="new 0 0 16 16" xml:space="preserve">
<g id="Layer_0_xA0_Image_1_">
</g>
<g id="Row_5_1_">
	<g id="inductor">
		<g>
			<path fill="#212121" d="M15,8h-1.154c-0.333-1.114-1.2-2-2.346-2c-0.602,0-1.111,0.229-1.514,0.594C9.582,6.229,9.077,6,8.5,6
				C7.898,6,7.389,6.229,6.986,6.594C6.582,6.229,6.077,6,5.5,6C4.306,6,3.466,6.886,3.146,8H1C0.447,8,0,8.447,0,9s0.447,1,1,1h3
				c0.414,0,0.77-0.252,0.922-0.61C4.972,9.27,5,9.138,5,9c0-0.526,0.224-1,0.5-1S6,8.474,6,9c0,0.553,0.447,1,1,1s1-0.447,1-1
				c0-0.526,0.224-1,0.5-1S9,8.474,9,9c0,0.553,0.447,1,1,1s1-0.447,1-1c0-0.526,0.224-1,0.5-1S12,8.474,12,9
				c0,0.138,0.028,0.27,0.078,0.39c0.102,0.239,0.293,0.431,0.532,0.532C12.73,9.972,12.862,10,13,10h2c0.553,0,1-0.447,1-1
				S15.553,8,15,8z"/>
		</g>
	</g>
</g>
<g id="Row_4_1_">
</g>
<g id="Row_3_1_">
</g>
<g id="Row_2_1_">
</g>
<g id="Row_1_1_">
</g>
</svg>
