<?xml version="1.0" encoding="utf-8"?>
<!-- Generator: Adobe Illustrator 16.0.0, SVG Export Plug-In . SVG Version: 6.00 Build 0)  -->
<!DOCTYPE svg PUBLIC "-//W3C//DTD SVG 1.1//EN" "http://www.w3.org/Graphics/SVG/1.1/DTD/svg11.dtd">
<svg version="1.1" xmlns="http://www.w3.org/2000/svg" xmlns:xlink="http://www.w3.org/1999/xlink" x="0px" y="0px" width="16px"
	 height="16px" viewBox="0 0 16 16" enable-background="new 0 0 16 16" xml:space="preserve">
<g id="Layer_0_xA0_Image_1_">
</g>
<g id="Row_5_1_">
</g>
<g id="Row_4_1_">
	<g id="keyboard">
		<g>
			<path fill="#212121" d="M6.5,11C6.776,11,7,10.776,7,10.5S6.776,10,6.5,10S6,10.224,6,10.5S6.224,11,6.5,11z M9.5,11
				c0.276,0,0.5-0.224,0.5-0.5S9.776,10,9.5,10S9,10.224,9,10.5S9.224,11,9.5,11z M12.5,11c0.276,0,0.5-0.224,0.5-0.5
				S12.776,10,12.5,10S12,10.224,12,10.5S12.224,11,12.5,11z M5.5,13h5c0.276,0,0.5-0.224,0.5-0.5S10.776,12,10.5,12h-5
				C5.224,12,5,12.224,5,12.5S5.224,13,5.5,13z M15,7h-4V4c0-1.104-0.896-2-2-2H6V0H4v2c0,1.104,0.896,2,2,2h3v3H1
				C0.447,7,0,7.447,0,8v7c0,0.553,0.447,1,1,1h14c0.553,0,1-0.447,1-1V8C16,7.447,15.553,7,15,7z M14,14H2V9h12V14z M3.5,11
				C3.776,11,4,10.776,4,10.5S3.776,10,3.5,10S3,10.224,3,10.5S3.224,11,3.5,11z"/>
		</g>
	</g>
</g>
<g id="Row_3_1_">
</g>
<g id="Row_2_1_">
</g>
<g id="Row_1_1_">
</g>
</svg>
