<?xml version="1.0" encoding="utf-8"?>
<!-- Generator: Adobe Illustrator 16.0.0, SVG Export Plug-In . SVG Version: 6.00 Build 0)  -->
<!DOCTYPE svg PUBLIC "-//W3C//DTD SVG 1.1//EN" "http://www.w3.org/Graphics/SVG/1.1/DTD/svg11.dtd">
<svg version="1.1" xmlns="http://www.w3.org/2000/svg" xmlns:xlink="http://www.w3.org/1999/xlink" x="0px" y="0px" width="16px"
	 height="16px" viewBox="0 0 16 16" enable-background="new 0 0 16 16" xml:space="preserve">
<g id="Layer_0_xA0_Image_1_">
</g>
<g id="Row_5_1_">
</g>
<g id="Row_4_1_">
	<g id="oscilloscope">
		<g>
			<path fill="#212121" d="M6,10c0.011,0,0.02-0.006,0.031-0.006V10c3.974,0,2.916-4,5.938-4c0.001,0,0.001-0.006,0.002-0.006
				C11.98,5.994,11.989,6,12,6c0.553,0,1-0.447,1-1s-0.447-1-1-1c-0.011,0-0.02,0.006-0.031,0.006V4C8,4,8.965,8,6.03,8
				c0,0,0,0.006-0.001,0.006C6.02,8.006,6.011,8,6,8C5.447,8,5,8.447,5,9S5.447,10,6,10z M15,1H1C0.447,1,0,1.447,0,2v10
				c0,0.553,0.447,1,1,1h1v1c0,0.553,0.447,1,1,1s1-0.447,1-1v-1h8v1c0,0.553,0.447,1,1,1s1-0.447,1-1v-1h1c0.553,0,1-0.447,1-1V2
				C16,1.447,15.553,1,15,1z M14,11H2V3h12V11z M3.5,10C3.776,10,4,9.776,4,9.5v-5C4,4.224,3.776,4,3.5,4S3,4.224,3,4.5v5
				C3,9.776,3.224,10,3.5,10z"/>
		</g>
	</g>
</g>
<g id="Row_3_1_">
</g>
<g id="Row_2_1_">
</g>
<g id="Row_1_1_">
</g>
</svg>
