<?xml version="1.0" encoding="utf-8"?>
<!-- Generator: Adobe Illustrator 16.0.0, SVG Export Plug-In . SVG Version: 6.00 Build 0)  -->
<!DOCTYPE svg PUBLIC "-//W3C//DTD SVG 1.1//EN" "http://www.w3.org/Graphics/SVG/1.1/DTD/svg11.dtd">
<svg version="1.1" xmlns="http://www.w3.org/2000/svg" xmlns:xlink="http://www.w3.org/1999/xlink" x="0px" y="0px" width="16px"
	 height="16px" viewBox="0 0 16 16" enable-background="new 0 0 16 16" xml:space="preserve">
<g id="Layer_0_xA0_Image_1_">
</g>
<g id="Row_5_1_">
</g>
<g id="Row_4_1_">
	<g id="pc_computer">
		<g>
			<path fill="#212121" d="M9,3H1C0.447,3,0,3.447,0,4v6c0,0.553,0.447,1,1,1h3v2H3c-0.553,0-1,0.447-1,1s0.447,1,1,1h4
				c0.553,0,1-0.447,1-1s-0.447-1-1-1H6v-2h3c0.553,0,1-0.447,1-1V4C10,3.447,9.553,3,9,3z M8,9H2V5h6V9z M15,1h-3
				c-0.553,0-1,0.447-1,1v12c0,0.553,0.447,1,1,1h3c0.553,0,1-0.447,1-1V2C16,1.447,15.553,1,15,1z M14,13h-1V3h1V13z"/>
		</g>
	</g>
</g>
<g id="Row_3_1_">
</g>
<g id="Row_2_1_">
</g>
<g id="Row_1_1_">
</g>
</svg>
