<?xml version="1.0" encoding="utf-8"?>
<!-- Generator: Adobe Illustrator 16.0.0, SVG Export Plug-In . SVG Version: 6.00 Build 0)  -->
<!DOCTYPE svg PUBLIC "-//W3C//DTD SVG 1.1//EN" "http://www.w3.org/Graphics/SVG/1.1/DTD/svg11.dtd">
<svg version="1.1" xmlns="http://www.w3.org/2000/svg" xmlns:xlink="http://www.w3.org/1999/xlink" x="0px" y="0px" width="16px"
	 height="16px" viewBox="0 0 16 16" enable-background="new 0 0 16 16" xml:space="preserve">
<g id="Layer_0_xA0_Image_1_">
</g>
<g id="Row_5_1_">
</g>
<g id="Row_4_1_">
</g>
<g id="Row_3_1_">
</g>
<g id="Row_2_1_">
</g>
<g id="Row_1_1_">
	<g id="polarized_capacitor">
		<path fill-rule="evenodd" clip-rule="evenodd" fill="#212121" d="M15,7h-4.816C10.597,5.837,11.695,5,13,5c0.553,0,1-0.447,1-1
			s-0.447-1-1-1c-2.762,0-5,2.238-5,5s2.238,5,5,5c0.553,0,1-0.447,1-1s-0.447-1-1-1c-1.305,0-2.403-0.837-2.816-2H15
			c0.553,0,1-0.447,1-1S15.553,7,15,7z M6,3C5.447,3,5,3.447,5,4v3H1C0.447,7,0,7.447,0,8s0.447,1,1,1h4v3c0,0.553,0.447,1,1,1
			s1-0.447,1-1V4C7,3.447,6.553,3,6,3z"/>
	</g>
</g>
</svg>
