<?xml version="1.0" encoding="utf-8"?>
<!-- Generator: Adobe Illustrator 16.0.0, SVG Export Plug-In . SVG Version: 6.00 Build 0)  -->
<!DOCTYPE svg PUBLIC "-//W3C//DTD SVG 1.1//EN" "http://www.w3.org/Graphics/SVG/1.1/DTD/svg11.dtd">
<svg version="1.1" xmlns="http://www.w3.org/2000/svg" xmlns:xlink="http://www.w3.org/1999/xlink" x="0px" y="0px" width="16px"
	 height="16px" viewBox="0 0 16 16" enable-background="new 0 0 16 16" xml:space="preserve">
<g id="Layer_0_xA0_Image_1_">
</g>
<g id="Row_5_1_">
</g>
<g id="Row_4_1_">
</g>
<g id="Row_3_1_">
</g>
<g id="Row_2_1_">
	<g id="processor_2">
		<g>
			<path fill="#212121" d="M15,4V3c0-0.553-0.447-1-1-1s-1,0.447-1,1v1h-2V3c0-0.553-0.447-1-1-1S9,2.447,9,3v1H7V3
				c0-0.553-0.447-1-1-1S5,2.447,5,3v1H3V3c0-0.553-0.447-1-1-1S1,2.447,1,3v1C0.447,4,0,4.447,0,5v6c0,0.553,0.447,1,1,1v1
				c0,0.553,0.447,1,1,1s1-0.447,1-1v-1h2v1c0,0.553,0.447,1,1,1s1-0.447,1-1v-1h2v1c0,0.553,0.447,1,1,1s1-0.447,1-1v-1h2v1
				c0,0.553,0.447,1,1,1s1-0.447,1-1v-1c0.553,0,1-0.447,1-1V5C16,4.447,15.553,4,15,4z M14,10H2V6h12V10z"/>
		</g>
	</g>
</g>
<g id="Row_1_1_">
</g>
</svg>
