<?xml version="1.0" encoding="utf-8"?>
<!-- Generator: Adobe Illustrator 16.0.0, SVG Export Plug-In . SVG Version: 6.00 Build 0)  -->
<!DOCTYPE svg PUBLIC "-//W3C//DTD SVG 1.1//EN" "http://www.w3.org/Graphics/SVG/1.1/DTD/svg11.dtd">
<svg version="1.1" xmlns="http://www.w3.org/2000/svg" xmlns:xlink="http://www.w3.org/1999/xlink" x="0px" y="0px" width="16px"
	 height="16px" viewBox="0 0 16 16" enable-background="new 0 0 16 16" xml:space="preserve">
<g id="Layer_0_xA0_Image_1_">
</g>
<g id="Row_5_1_">
</g>
<g id="Row_4_1_">
</g>
<g id="Row_3_1_">
	<g id="resistor">
		<g>
			<path fill="#212121" d="M15,7h-2c-0.276,0-0.526,0.112-0.707,0.293l-1.019,1.019l-1.38-2.759L9.886,5.558C9.721,5.23,9.391,5,9,5
				S8.279,5.23,8.114,5.558L8.105,5.553L7,7.764L5.895,5.553L5.886,5.558C5.721,5.23,5.391,5,5,5C4.724,5,4.474,5.112,4.293,5.293
				L2.586,7H1C0.447,7,0,7.447,0,8s0.447,1,1,1h2c0.276,0,0.526-0.112,0.707-0.293l1.019-1.019l1.38,2.759l0.009-0.005
				C6.279,10.77,6.609,11,7,11s0.721-0.23,0.886-0.558l0.009,0.005L9,8.236l1.105,2.211l0.009-0.005C10.279,10.77,10.609,11,11,11
				c0.276,0,0.526-0.112,0.707-0.293L13.414,9H15c0.553,0,1-0.447,1-1S15.553,7,15,7z"/>
		</g>
	</g>
</g>
<g id="Row_2_1_">
</g>
<g id="Row_1_1_">
</g>
</svg>
