<?xml version="1.0" encoding="utf-8"?>
<!-- Generator: Adobe Illustrator 16.0.0, SVG Export Plug-In . SVG Version: 6.00 Build 0)  -->
<!DOCTYPE svg PUBLIC "-//W3C//DTD SVG 1.1//EN" "http://www.w3.org/Graphics/SVG/1.1/DTD/svg11.dtd">
<svg version="1.1" xmlns="http://www.w3.org/2000/svg" xmlns:xlink="http://www.w3.org/1999/xlink" x="0px" y="0px" width="16px"
	 height="16px" viewBox="0 0 16 16" enable-background="new 0 0 16 16" xml:space="preserve">
<g id="Layer_0_xA0_Image_1_">
</g>
<g id="Row_5_1_">
</g>
<g id="Row_4_1_">
</g>
<g id="Row_3_1_">
</g>
<g id="Row_2_1_">
</g>
<g id="Row_1_1_">
	<g id="splice">
		<g>
			<path fill="#212121" d="M15,12h-3c-1.657,0-3-1.343-3-3V5.727C9.299,5.551,9.548,5.3,9.723,5H15c0.553,0,1-0.447,1-1
				s-0.447-1-1-1H9.723C9.376,2.404,8.738,2,8,2S6.624,2.404,6.277,3H1C0.447,3,0,3.447,0,4s0.447,1,1,1h5.277
				C6.452,5.3,6.701,5.551,7,5.727V9c0,2.762,2.238,5,5,5h3c0.553,0,1-0.447,1-1S15.553,12,15,12z"/>
		</g>
	</g>
</g>
</svg>
