<?xml version="1.0" encoding="utf-8"?>
<!-- Generator: Adobe Illustrator 16.0.0, SVG Export Plug-In . SVG Version: 6.00 Build 0)  -->
<!DOCTYPE svg PUBLIC "-//W3C//DTD SVG 1.1//EN" "http://www.w3.org/Graphics/SVG/1.1/DTD/svg11.dtd">
<svg version="1.1" xmlns="http://www.w3.org/2000/svg" xmlns:xlink="http://www.w3.org/1999/xlink" x="0px" y="0px" width="16px"
	 height="16px" viewBox="0 0 16 16" enable-background="new 0 0 16 16" xml:space="preserve">
<g id="Layer_0_xA0_Image_1_">
</g>
<g id="Row_5_1_">
</g>
<g id="Row_4_1_">
</g>
<g id="Row_3_1_">
	<g id="transistor">
		<g>
			<path fill="#212121" d="M9,1.101V1c0-0.553-0.447-1-1-1S7,0.447,7,1v0.101C3.94,1.542,1.534,3.945,1.092,7H1C0.447,7,0,7.447,0,8
				s0.447,1,1,1h0.092C1.534,12.055,3.94,14.458,7,14.899V15c0,0.553,0.447,1,1,1s1-0.447,1-1v-0.101c3.388-0.489,6-3.376,6-6.899
				S12.388,1.59,9,1.101z M7,3.101v0.485l-1.54,1.54C5.32,5.053,5.169,5,5,5C4.447,5,4,5.447,4,6v1H3.109
				C3.508,5.043,5.042,3.498,7,3.101z M7,12.899C5.042,12.502,3.508,10.957,3.109,9H4v1c0,0.553,0.447,1,1,1
				c0.169,0,0.32-0.053,0.46-0.126L7,12.414V12.899z M9,12.899V12c0-0.276-0.112-0.526-0.293-0.707L6,8.586V7.414l2.707-2.707
				C8.888,4.526,9,4.276,9,4V3.101c2.282,0.464,4,2.48,4,4.899S11.282,12.436,9,12.899z"/>
		</g>
	</g>
</g>
<g id="Row_2_1_">
</g>
<g id="Row_1_1_">
</g>
</svg>
