<?xml version="1.0" encoding="utf-8"?>
<!-- Generator: Adobe Illustrator 16.0.0, SVG Export Plug-In . SVG Version: 6.00 Build 0)  -->
<!DOCTYPE svg PUBLIC "-//W3C//DTD SVG 1.1//EN" "http://www.w3.org/Graphics/SVG/1.1/DTD/svg11.dtd">
<svg version="1.1" xmlns="http://www.w3.org/2000/svg" xmlns:xlink="http://www.w3.org/1999/xlink" x="0px" y="0px" width="16px"
	 height="16px" viewBox="0 0 16 16" enable-background="new 0 0 16 16" xml:space="preserve">
<g id="Layer_0_xA0_Image_1_">
</g>
<g id="Row_5_1_">
</g>
<g id="Row_4_1_">
</g>
<g id="Row_3_1_">
	<g id="transmitter">
		<g>
			<path fill="#212121" d="M4,8c0,0.553,0.447,1,1,1s1-0.447,1-1c0-1.104,0.896-2,2-2s2,0.896,2,2c0,0.553,0.447,1,1,1s1-0.447,1-1
				c0-2.209-1.791-4-4-4S4,5.791,4,8z M1,9c0.553,0,1-0.447,1-1c0-3.313,2.687-6,6-6s6,2.687,6,6c0,0.553,0.447,1,1,1s1-0.447,1-1
				c0-4.418-3.582-8-8-8S0,3.582,0,8C0,8.553,0.447,9,1,9z M13,11H3c-1.657,0-3,1.343-3,3v2h2v-2c0-0.553,0.447-1,1-1h10
				c0.553,0,1,0.447,1,1v2h2v-2C16,12.343,14.657,11,13,11z"/>
		</g>
	</g>
</g>
<g id="Row_2_1_">
</g>
<g id="Row_1_1_">
</g>
</svg>
