<?xml version="1.0" encoding="utf-8"?>
<!-- Generator: Adobe Illustrator 16.0.0, SVG Export Plug-In . SVG Version: 6.00 Build 0)  -->
<!DOCTYPE svg PUBLIC "-//W3C//DTD SVG 1.1//EN" "http://www.w3.org/Graphics/SVG/1.1/DTD/svg11.dtd">
<svg version="1.1" xmlns="http://www.w3.org/2000/svg" xmlns:xlink="http://www.w3.org/1999/xlink" x="0px" y="0px" width="16px"
	 height="16px" viewBox="0 0 16 16" enable-background="new 0 0 16 16" xml:space="preserve">
<g id="Layer_0_xA0_Image_1_">
</g>
<g id="Row_5_1_">
</g>
<g id="Row_4_1_">
</g>
<g id="Row_3_1_">
</g>
<g id="Row_2_1_">
	<g id="TV_set">
		<g>
			<path fill="#212121" d="M14,5h-4l1.8-2.4l-0.014-0.01C11.912,2.423,12,2.226,12,2c0-0.553-0.447-1-1-1
				c-0.327,0-0.604,0.167-0.786,0.41L10.2,1.4L8.093,4.21L5.857,0.485L5.843,0.494C5.668,0.204,5.363,0,5,0C4.447,0,4,0.447,4,1
				c0,0.188,0.066,0.355,0.157,0.506L4.143,1.515L6.233,5H2C1.447,5,1,5.447,1,6v8c0,0.553,0.447,1,1,1h1c0,0.553,0.447,1,1,1
				s1-0.447,1-1h6c0,0.553,0.447,1,1,1s1-0.447,1-1h1c0.553,0,1-0.447,1-1V6C15,5.447,14.553,5,14,5z M13,13H3V7h10V13z"/>
		</g>
	</g>
</g>
<g id="Row_1_1_">
</g>
</svg>
