<?xml version="1.0" encoding="utf-8"?>
<!-- Generator: Adobe Illustrator 16.0.0, SVG Export Plug-In . SVG Version: 6.00 Build 0)  -->
<!DOCTYPE svg PUBLIC "-//W3C//DTD SVG 1.1//EN" "http://www.w3.org/Graphics/SVG/1.1/DTD/svg11.dtd">
<svg version="1.1" xmlns="http://www.w3.org/2000/svg" xmlns:xlink="http://www.w3.org/1999/xlink" x="0px" y="0px" width="16px"
	 height="16px" viewBox="0 0 16 16" enable-background="new 0 0 16 16" xml:space="preserve">
<g id="Layer_0_xA0_Image_1_">
</g>
<g id="Row_5_1_">
</g>
<g id="Row_4_1_">
	<g id="USB_plug">
		<g>
			<path fill="#212121" d="M12,5V1c0-0.553-0.447-1-1-1H5C4.447,0,4,0.447,4,1v4C3.447,5,3,5.447,3,6v5c0,0.553,0.447,1,1,1h1v2
				c0,0.553,0.447,1,1,1h1v1h2v-1h1c0.553,0,1-0.447,1-1v-2h1c0.553,0,1-0.447,1-1V6C13,5.447,12.553,5,12,5z M9,2.5
				C9,2.224,9.224,2,9.5,2S10,2.224,10,2.5v2C10,4.776,9.776,5,9.5,5S9,4.776,9,4.5V2.5z M6,2.5C6,2.224,6.224,2,6.5,2
				S7,2.224,7,2.5v2C7,4.776,6.776,5,6.5,5S6,4.776,6,4.5V2.5z M9,13H7v-1h2V13z M11,10H5V7h6V10z"/>
		</g>
	</g>
</g>
<g id="Row_3_1_">
</g>
<g id="Row_2_1_">
</g>
<g id="Row_1_1_">
</g>
</svg>
