<?xml version="1.0" encoding="utf-8"?>
<!-- Generator: Adobe Illustrator 16.0.0, SVG Export Plug-In . SVG Version: 6.00 Build 0)  -->
<!DOCTYPE svg PUBLIC "-//W3C//DTD SVG 1.1//EN" "http://www.w3.org/Graphics/SVG/1.1/DTD/svg11.dtd">
<svg version="1.1" xmlns="http://www.w3.org/2000/svg" xmlns:xlink="http://www.w3.org/1999/xlink" x="0px" y="0px" width="16px"
	 height="16px" viewBox="0 0 16 16" enable-background="new 0 0 16 16" xml:space="preserve">
<g id="Layer_0_xA0_Image_1_">
</g>
<g id="Row_5_1_">
</g>
<g id="Row_4_1_">
</g>
<g id="Row_3_1_">
</g>
<g id="Row_2_1_">
	<g id="worldwide_2">
		<g>
			<path fill="#212121" d="M14.921,3.999c0.006-0.006,0.014-0.011,0.021-0.016l-0.037-0.011C13.517,1.599,10.948,0,8,0
				S2.483,1.599,1.096,3.973L1.059,3.983c0.006,0.005,0.015,0.01,0.021,0.016C0.397,5.177,0,6.541,0,8c0,4.418,3.582,8,8,8
				s8-3.582,8-8C16,6.541,15.603,5.177,14.921,3.999z M11.912,3.493c-0.183,0.054-0.371,0.104-0.572,0.15
				c-0.087-0.265-0.171-0.533-0.272-0.774C11.369,3.05,11.647,3.265,11.912,3.493z M8,2c0.58,0,1.098,0.752,1.463,1.934
				C8.994,3.974,8.508,4,8,4S7.006,3.974,6.537,3.934C6.902,2.752,7.42,2,8,2z M2.801,5.026c0.432,0.187,0.902,0.35,1.407,0.487
				C4.13,5.991,4.079,6.49,4.044,7H2.095C2.216,6.292,2.453,5.625,2.801,5.026z M2.095,9h1.949c0.037,0.544,0.091,1.077,0.178,1.583
				c-0.477,0.154-0.918,0.333-1.332,0.527C2.497,10.477,2.227,9.763,2.095,9z M4.111,12.528c0.178-0.056,0.362-0.105,0.556-0.152
				c0.085,0.258,0.167,0.52,0.266,0.755C4.64,12.956,4.37,12.749,4.111,12.528z M4.66,3.644c-0.201-0.046-0.39-0.097-0.573-0.15
				C4.353,3.265,4.631,3.05,4.933,2.869C4.831,3.11,4.747,3.379,4.66,3.644z M8,14c-0.579,0-1.097-0.75-1.462-1.931
				C7.007,12.026,7.492,12,8,12c0.495,0,0.984,0.024,1.463,0.064C9.098,13.248,8.58,14,8,14z M9.862,10.146
				C9.279,10.057,8.664,10,8,10c-0.66,0-1.276,0.055-1.863,0.141C6.092,9.785,6.088,9.383,6.064,9h3.871
				C9.912,9.384,9.908,9.789,9.862,10.146z M6.063,7c0.023-0.374,0.027-0.769,0.071-1.117C6.734,5.955,7.355,6,8,6
				s1.266-0.045,1.865-0.117C9.909,6.231,9.913,6.626,9.937,7H6.063z M11.067,13.131c0.103-0.244,0.188-0.515,0.274-0.782
				c0.204,0.045,0.407,0.087,0.592,0.14C11.662,12.725,11.378,12.945,11.067,13.131z M13.086,11.146
				c-0.407-0.197-0.841-0.381-1.311-0.54c0.089-0.513,0.144-1.054,0.181-1.606h1.949C13.771,9.777,13.49,10.503,13.086,11.146z
				 M11.956,7c-0.035-0.51-0.086-1.009-0.164-1.486c0.505-0.138,0.976-0.301,1.407-0.487C13.547,5.625,13.784,6.292,13.905,7H11.956
				z"/>
		</g>
	</g>
</g>
<g id="Row_1_1_">
</g>
</svg>
