<?xml version="1.0" encoding="utf-8"?>
<!-- Generator: Adobe Illustrator 16.0.0, SVG Export Plug-In . SVG Version: 6.00 Build 0)  -->
<!DOCTYPE svg PUBLIC "-//W3C//DTD SVG 1.1//EN" "http://www.w3.org/Graphics/SVG/1.1/DTD/svg11.dtd">
<svg version="1.1" xmlns="http://www.w3.org/2000/svg" xmlns:xlink="http://www.w3.org/1999/xlink" x="0px" y="0px" width="16px"
	 height="16px" viewBox="0 0 16 16" enable-background="new 0 0 16 16" xml:space="preserve">
<g id="Layer_0_xA0_Image_1_">
</g>
<g id="Row_5_1_">
</g>
<g id="Row_4_1_">
</g>
<g id="Row_3_1_">
</g>
<g id="Row_2_1_">
</g>
<g id="Row_1_1_">
	<g id="active_wifi">
		<g>
			<path fill="#212121" d="M6.5,14H6v-2c0-0.553-0.447-1-1-1s-1,0.447-1,1v2H3.5C3.224,14,3,14.224,3,14.5
				c0,0.21,0.131,0.389,0.314,0.463l0.964,0.723C4.46,15.877,4.714,16,5,16c0.229,0,0.429-0.09,0.597-0.219l1.278-0.938H6.86
				C6.945,14.754,7,14.634,7,14.5C7,14.224,6.776,14,6.5,14z M12.686,12.037l-0.964-0.723C11.54,11.123,11.286,11,11,11
				c-0.229,0-0.429,0.09-0.597,0.219l-1.278,0.938H9.14C9.055,12.246,9,12.366,9,12.5C9,12.776,9.224,13,9.5,13H10v2
				c0,0.553,0.447,1,1,1s1-0.447,1-1v-2h0.5c0.276,0,0.5-0.224,0.5-0.5C13,12.29,12.869,12.111,12.686,12.037z M9.719,9.313
				c0-0.246-0.099-0.464-0.246-0.638l0.009-0.008C9.471,8.655,9.456,8.646,9.445,8.635C9.425,8.612,9.401,8.594,9.379,8.573
				C9.02,8.225,8.54,8,8,8C7.438,8,6.941,8.24,6.578,8.612c-0.017,0.016-0.034,0.029-0.05,0.046
				c-0.003,0.003-0.007,0.006-0.01,0.009l0.003,0.002C6.356,8.848,6.25,9.082,6.25,9.344C6.25,10.2,9.719,10.159,9.719,9.313z
				 M12.699,6.287C11.598,5.078,9.758,4,8,4C6.288,4,4.503,5.053,3.394,6.226C3.159,6.408,3,6.681,3,7c0,0.553,0.447,1,1,1
				c0.573,0,0.757-0.322,0.757-0.322C5.488,6.864,6.819,6,8,6s2.512,0.833,3.243,1.646l0.006-0.005C11.433,7.856,11.695,8,12,8
				c0.553,0,1-0.447,1-1C13,6.444,12.334,5.929,12.699,6.287z M15.769,3.317C13.938,1.285,10.95,0,8,0S2.063,1.285,0.231,3.317
				C0.231,3.317,0,3.504,0,4c0,0.553,0.447,1,1,1c0.332,0,0.611-0.172,0.793-0.421C3.266,2.999,5.678,2,8,2s4.734,0.999,6.207,2.579
				C14.389,4.828,14.668,5,15,5c0.553,0,1-0.447,1-1C16,3.504,15.769,3.317,15.769,3.317z"/>
		</g>
	</g>
</g>
</svg>
