<?xml version="1.0" encoding="utf-8"?>
<!-- Generator: Adobe Illustrator 16.0.0, SVG Export Plug-In . SVG Version: 6.00 Build 0)  -->
<!DOCTYPE svg PUBLIC "-//W3C//DTD SVG 1.1//EN" "http://www.w3.org/Graphics/SVG/1.1/DTD/svg11.dtd">
<svg version="1.1" xmlns="http://www.w3.org/2000/svg" xmlns:xlink="http://www.w3.org/1999/xlink" x="0px" y="0px" width="16px"
	 height="16px" viewBox="0 0 16 16" enable-background="new 0 0 16 16" xml:space="preserve">
<g id="Layer_0_xA0_Image_1_">
</g>
<g id="Row_5_1_">
</g>
<g id="Row_4_1_">
</g>
<g id="Row_3_1_">
</g>
<g id="Row_2_1_">
</g>
<g id="Row_1_1_">
	<g id="alarms">
		<g>
			<path fill="#212121" d="M13,11c-0.553,0-1-0.447-1-1V4c0-2.209-1.791-4-4-4S4,1.791,4,4v6c0,0.553-0.447,1-1,1s-1,0.447-1,1
				s0.447,1,1,1h10c0.553,0,1-0.447,1-1S13.553,11,13,11z M5.816,11C5.928,10.686,6,10.353,6,10V4c0-1.104,0.896-2,2-2s2,0.896,2,2
				v6c0,0.353,0.072,0.686,0.184,1H5.816z M8,14c-0.553,0-1,0.447-1,1s0.447,1,1,1s1-0.447,1-1S8.553,14,8,14z"/>
		</g>
	</g>
</g>
</svg>
