<?xml version="1.0" encoding="utf-8"?>
<!-- Generator: Adobe Illustrator 16.0.0, SVG Export Plug-In . SVG Version: 6.00 Build 0)  -->
<!DOCTYPE svg PUBLIC "-//W3C//DTD SVG 1.1//EN" "http://www.w3.org/Graphics/SVG/1.1/DTD/svg11.dtd">
<svg version="1.1" xmlns="http://www.w3.org/2000/svg" xmlns:xlink="http://www.w3.org/1999/xlink" x="0px" y="0px" width="16px"
	 height="16px" viewBox="0 0 16 16" enable-background="new 0 0 16 16" xml:space="preserve">
<g id="Layer_0_xA0_Image_1_">
</g>
<g id="Row_5_1_">
</g>
<g id="Row_4_1_">
</g>
<g id="Row_3_1_">
</g>
<g id="Row_2_1_">
</g>
<g id="Row_1_1_">
	<g id="audio">
		<g>
			<path fill="#212121" d="M13.72,2.28l-0.013,0.013C13.526,2.112,13.276,2,13,2c-0.553,0-1,0.447-1,1
				c0,0.297,0.136,0.557,0.341,0.739C13.401,4.823,14,6.364,14,8s-0.599,3.177-1.659,4.261C12.136,12.443,12,12.703,12,13
				c0,0.553,0.447,1,1,1c0.276,0,0.526-0.112,0.707-0.293l0.013,0.013C15.167,12.271,16,10.209,16,8S15.167,3.729,13.72,2.28z M10,0
				C9.454,0,9.293,0.293,9.293,0.293L4.586,5H1C0.447,5,0,5.447,0,6v4c0,0.553,0.447,1,1,1h3.586l4.707,4.707
				c0,0,0.161,0.293,0.707,0.293c0.553,0,1-0.447,1-1V1C11,0.447,10.553,0,10,0z M9,12.586L5.707,9.293C5.707,9.293,5.546,9,5,9H2V7
				h3c0.546,0,0.707-0.293,0.707-0.293L9,3.414V12.586z"/>
		</g>
	</g>
</g>
</svg>
