<?xml version="1.0" encoding="utf-8"?>
<!-- Generator: Adobe Illustrator 16.0.0, SVG Export Plug-In . SVG Version: 6.00 Build 0)  -->
<!DOCTYPE svg PUBLIC "-//W3C//DTD SVG 1.1//EN" "http://www.w3.org/Graphics/SVG/1.1/DTD/svg11.dtd">
<svg version="1.1" xmlns="http://www.w3.org/2000/svg" xmlns:xlink="http://www.w3.org/1999/xlink" x="0px" y="0px" width="16px"
	 height="16px" viewBox="0 0 16 16" enable-background="new 0 0 16 16" xml:space="preserve">
<g id="Layer_0_xA0_Image_1_">
</g>
<g id="Row_5_1_">
</g>
<g id="Row_4_1_">
</g>
<g id="Row_3_1_">
</g>
<g id="Row_2_1_">
</g>
<g id="Row_1_1_">
	<g id="calculate">
		<g>
			<path fill="#212121" d="M3,7c0,0.553,0.447,1,1,1s1-0.447,1-1V5h2c0.553,0,1-0.447,1-1S7.553,3,7,3H5V1c0-0.553-0.447-1-1-1
				S3,0.447,3,1v2H1C0.447,3,0,3.447,0,4s0.447,1,1,1h2V7z M15,11H9c-0.553,0-1,0.447-1,1s0.447,1,1,1h6c0.553,0,1-0.447,1-1
				S15.553,11,15,11z M13.799,1.57C13.916,1.407,14,1.217,14,1c0-0.553-0.447-1-1-1c-0.335,0-0.617,0.176-0.799,0.43l-0.015-0.011
				l-10,14l0.015,0.011C2.084,14.593,2,14.783,2,15c0,0.553,0.447,1,1,1c0.335,0,0.617-0.176,0.799-0.43l0.015,0.011l10-14
				L13.799,1.57z"/>
		</g>
	</g>
</g>
</svg>
