<?xml version="1.0" encoding="utf-8"?>
<!-- Generator: Adobe Illustrator 16.0.0, SVG Export Plug-In . SVG Version: 6.00 Build 0)  -->
<!DOCTYPE svg PUBLIC "-//W3C//DTD SVG 1.1//EN" "http://www.w3.org/Graphics/SVG/1.1/DTD/svg11.dtd">
<svg version="1.1" xmlns="http://www.w3.org/2000/svg" xmlns:xlink="http://www.w3.org/1999/xlink" x="0px" y="0px" width="16px"
	 height="16px" viewBox="0 0 16 16" enable-background="new 0 0 16 16" xml:space="preserve">
<g id="Layer_0_xA0_Image_1_">
</g>
<g id="Row_5_1_">
</g>
<g id="Row_4_1_">
</g>
<g id="Row_3_1_">
	<g id="calendar">
		<g>
			<path fill="#212121" d="M6,9c0.161,0,0.308-0.047,0.442-0.114l0.005,0.009L7,8.618V10c0,0.553,0.447,1,1,1s1-0.447,1-1V7
				c0-0.553-0.447-1-1-1C7.839,6,7.692,6.047,7.558,6.114L7.553,6.105l-2,1l0.005,0.009C5.23,7.279,5,7.609,5,8C5,8.553,5.447,9,6,9
				z M15,2H1C0.447,2,0,2.447,0,3v10c0,0.553,0.447,1,1,1h14c0.553,0,1-0.447,1-1V3C16,2.447,15.553,2,15,2z M14,12H2V5h12V12z"/>
		</g>
	</g>
</g>
<g id="Row_2_1_">
</g>
<g id="Row_1_1_">
</g>
</svg>
