<?xml version="1.0" encoding="utf-8"?>
<!-- Generator: Adobe Illustrator 16.0.0, SVG Export Plug-In . SVG Version: 6.00 Build 0)  -->
<!DOCTYPE svg PUBLIC "-//W3C//DTD SVG 1.1//EN" "http://www.w3.org/Graphics/SVG/1.1/DTD/svg11.dtd">
<svg version="1.1" xmlns="http://www.w3.org/2000/svg" xmlns:xlink="http://www.w3.org/1999/xlink" x="0px" y="0px" width="16.01px"
	 height="16px" viewBox="0 0 16.01 16" enable-background="new 0 0 16.01 16" xml:space="preserve">
<g id="Layer_0_xA0_Image_1_">
</g>
<g id="Row_5_1_">
</g>
<g id="Row_4_1_">
	<g id="checking_list">
		<g>
			<path fill-rule="evenodd" clip-rule="evenodd" fill="#212121" d="M7.011,2.5h7.994c0.553,0,1-0.447,1-1s-0.447-1-1-1H7.011
				c-0.553,0-1,0.447-1,1S6.458,2.5,7.011,2.5z M0.015,15.5h3.998v-4H0.015V15.5z M1.015,12.5h1.998v2H1.015V12.5z M0.015,9.5h3.998
				v-4H0.015V9.5z M1.015,6.5h1.998v2H1.015V6.5z M15.005,6.5H7.011c-0.553,0-1,0.447-1,1s0.447,1,1,1h7.994c0.553,0,1-0.447,1-1
				S15.558,6.5,15.005,6.5z M15.005,12.5H7.011c-0.553,0-1,0.447-1,1s0.447,1,1,1h7.994c0.553,0,1-0.447,1-1
				S15.558,12.5,15.005,12.5z M1.381,3.355c0.173,0.188,0.452,0.188,0.624,0l1.872-2.036c0.172-0.188,0.172-0.491,0-0.679
				c-0.173-0.188-0.452-0.188-0.624,0l-1.56,1.697L0.758,1.319c-0.172-0.188-0.452-0.188-0.624,0c-0.173,0.188-0.173,0.491,0,0.679
				L1.381,3.355z"/>
		</g>
	</g>
</g>
<g id="Row_3_1_">
</g>
<g id="Row_2_1_">
</g>
<g id="Row_1_1_">
</g>
</svg>
