<?xml version="1.0" encoding="utf-8"?>
<!-- Generator: Adobe Illustrator 16.0.0, SVG Export Plug-In . SVG Version: 6.00 Build 0)  -->
<!DOCTYPE svg PUBLIC "-//W3C//DTD SVG 1.1//EN" "http://www.w3.org/Graphics/SVG/1.1/DTD/svg11.dtd">
<svg version="1.1" xmlns="http://www.w3.org/2000/svg" xmlns:xlink="http://www.w3.org/1999/xlink" x="0px" y="0px" width="16px"
	 height="16px" viewBox="0 0 16 16" enable-background="new 0 0 16 16" xml:space="preserve">
<g id="Layer_0_xA0_Image_1_">
</g>
<g id="Row_5_1_">
</g>
<g id="Row_4_1_">
</g>
<g id="Row_3_1_">
</g>
<g id="Row_2_1_">
</g>
<g id="Row_1_1_">
	<g id="directions">
		<g>
			<path fill-rule="evenodd" clip-rule="evenodd" fill="#212121" d="M4,6h8c0.553,0,1-0.447,1-1c0-0.276-0.112-0.526-0.293-0.707
				l-4-4C8.526,0.112,8.276,0,8,0S7.474,0.112,7.293,0.293l-4,4C3.112,4.474,3,4.724,3,5C3,5.553,3.447,6,4,6z M8,2.414L9.586,4
				H6.414L8,2.414z M12,10H4c-0.553,0-1,0.447-1,1c0,0.276,0.112,0.526,0.293,0.707l4,4C7.474,15.888,7.724,16,8,16
				s0.526-0.112,0.707-0.293l4-4C12.888,11.526,13,11.276,13,11C13,10.447,12.553,10,12,10z M8,13.586L6.414,12h3.172L8,13.586z"/>
		</g>
	</g>
</g>
</svg>
