<?xml version="1.0" encoding="utf-8"?>
<!-- Generator: Adobe Illustrator 16.0.0, SVG Export Plug-In . SVG Version: 6.00 Build 0)  -->
<!DOCTYPE svg PUBLIC "-//W3C//DTD SVG 1.1//EN" "http://www.w3.org/Graphics/SVG/1.1/DTD/svg11.dtd">
<svg version="1.1" xmlns="http://www.w3.org/2000/svg" xmlns:xlink="http://www.w3.org/1999/xlink" x="0px" y="0px" width="16px"
	 height="16px" viewBox="0 0 16 16" enable-background="new 0 0 16 16" xml:space="preserve">
<g id="Layer_0_xA0_Image_1_">
</g>
<g id="Row_5_1_">
</g>
<g id="Row_4_1_">
</g>
<g id="Row_3_1_">
</g>
<g id="Row_2_1_">
</g>
<g id="Row_1_1_">
	<g id="expand_list">
		<g>
			<path fill="#212121" d="M15,2H5C4.447,2,4,2.447,4,3H1C0.447,3,0,3.447,0,4s0.447,1,1,1h3v6H1c-0.553,0-1,0.447-1,1s0.447,1,1,1
				h3c0,0.553,0.447,1,1,1h10c0.553,0,1-0.447,1-1V3C16,2.447,15.553,2,15,2z M14,12H6V4h8V12z M9.293,9.707
				C9.474,9.888,9.724,10,10,10s0.526-0.112,0.707-0.293l2-2C12.888,7.526,13,7.276,13,7c0-0.553-0.447-1-1-1H8C7.447,6,7,6.447,7,7
				c0,0.276,0.112,0.526,0.293,0.707L9.293,9.707z"/>
		</g>
	</g>
</g>
</svg>
