<?xml version="1.0" encoding="utf-8"?>
<!-- Generator: Adobe Illustrator 16.0.0, SVG Export Plug-In . SVG Version: 6.00 Build 0)  -->
<!DOCTYPE svg PUBLIC "-//W3C//DTD SVG 1.1//EN" "http://www.w3.org/Graphics/SVG/1.1/DTD/svg11.dtd">
<svg version="1.1" xmlns="http://www.w3.org/2000/svg" xmlns:xlink="http://www.w3.org/1999/xlink" x="0px" y="0px" width="16px"
	 height="16px" viewBox="0 0 16 16" enable-background="new 0 0 16 16" xml:space="preserve">
<g id="Layer_0_xA0_Image_1_">
</g>
<g id="Row_5_1_">
</g>
<g id="Row_4_1_">
</g>
<g id="Row_3_1_">
</g>
<g id="Row_2_1_">
</g>
<g id="Row_1_1_">
	<g id="expand">
		<g>
			<path fill="#212121" d="M15.707,7.293l-2-2C13.526,5.112,13.276,5,13,5c-0.553,0-1,0.447-1,1c0,0.276,0.112,0.526,0.293,0.707
				L12.586,7H9V3.414l0.293,0.293C9.474,3.888,9.724,4,10,4c0.553,0,1-0.447,1-1c0-0.276-0.112-0.526-0.293-0.707l-2-2
				C8.526,0.112,8.276,0,8,0S7.474,0.112,7.293,0.293l-2,2C5.112,2.474,5,2.724,5,3c0,0.553,0.447,1,1,1
				c0.276,0,0.526-0.112,0.707-0.293L7,3.414V7H3.414l0.293-0.293C3.888,6.526,4,6.276,4,6c0-0.553-0.447-1-1-1
				C2.724,5,2.474,5.112,2.293,5.293l-2,2C0.112,7.474,0,7.724,0,8s0.112,0.526,0.293,0.707l2,2C2.474,10.888,2.724,11,3,11
				c0.553,0,1-0.447,1-1c0-0.276-0.112-0.526-0.293-0.707L3.414,9H7v3.586l-0.293-0.293C6.526,12.112,6.276,12,6,12
				c-0.553,0-1,0.447-1,1c0,0.276,0.112,0.526,0.293,0.707l2,2C7.474,15.888,7.724,16,8,16s0.526-0.112,0.707-0.293l2-2
				C10.888,13.526,11,13.276,11,13c0-0.553-0.447-1-1-1c-0.276,0-0.526,0.112-0.707,0.293L9,12.586V9h3.586l-0.293,0.293
				C12.112,9.474,12,9.724,12,10c0,0.553,0.447,1,1,1c0.276,0,0.526-0.112,0.707-0.293l2-2C15.888,8.526,16,8.276,16,8
				S15.888,7.474,15.707,7.293z"/>
		</g>
	</g>
</g>
</svg>
