<?xml version="1.0" encoding="utf-8"?>
<!-- Generator: Adobe Illustrator 16.0.0, SVG Export Plug-In . SVG Version: 6.00 Build 0)  -->
<!DOCTYPE svg PUBLIC "-//W3C//DTD SVG 1.1//EN" "http://www.w3.org/Graphics/SVG/1.1/DTD/svg11.dtd">
<svg version="1.1" xmlns="http://www.w3.org/2000/svg" xmlns:xlink="http://www.w3.org/1999/xlink" x="0px" y="0px"
	 width="15.996px" height="16.008px" viewBox="0 0 15.996 16.008" enable-background="new 0 0 15.996 16.008" xml:space="preserve">
<g id="Layer_0_xA0_Image_1_">
</g>
<g id="Row_5_1_">
	<g id="favourite_rounded">
		<g>
			<path fill-rule="evenodd" clip-rule="evenodd" fill="#212121" d="M10.991,4.142C8.995-1.38,7-1.38,5.005,4.142
				c-5.985,0.15-6.603,2.006-1.85,5.568c-1.704,5.614-0.09,6.761,4.843,3.441c4.933,3.319,6.547,2.173,4.843-3.441
				C17.594,6.147,16.977,4.292,10.991,4.142z M10.417,9.187c2.54,4.838,1.951,5.355-2.421,1.835
				c-4.248,3.521-4.961,3.065-2.422-1.835C0.917,6.411,1.132,5.516,6.5,6.217c1.06-5.257,1.933-5.288,2.992,0
				C14.86,5.561,15.044,6.442,10.417,9.187z"/>
		</g>
	</g>
</g>
<g id="Row_4_1_">
</g>
<g id="Row_3_1_">
</g>
<g id="Row_2_1_">
</g>
<g id="Row_1_1_">
</g>
</svg>
