<?xml version="1.0" encoding="utf-8"?>
<!-- Generator: Adobe Illustrator 16.0.0, SVG Export Plug-In . SVG Version: 6.00 Build 0)  -->
<!DOCTYPE svg PUBLIC "-//W3C//DTD SVG 1.1//EN" "http://www.w3.org/Graphics/SVG/1.1/DTD/svg11.dtd">
<svg version="1.1" xmlns="http://www.w3.org/2000/svg" xmlns:xlink="http://www.w3.org/1999/xlink" x="0px" y="0px" width="16px"
	 height="16px" viewBox="0 0 16 16" enable-background="new 0 0 16 16" xml:space="preserve">
<g id="Layer_0_xA0_Image_1_">
</g>
<g id="Row_5_1_">
</g>
<g id="Row_4_1_">
	<g id="filter">
		<g>
			<path fill="#212121" d="M16,1c0-0.553-0.447-1-1-1H1C0.447,0,0,0.447,0,1c0,0.243,0.098,0.458,0.242,0.632L0.231,1.641
				l0.05,0.049L5,6.408V15c0,0.553,0.447,1,1,1c0.226,0,0.423-0.088,0.59-0.214L6.6,15.8l0.063-0.063
				c0.026-0.023,0.05-0.047,0.073-0.073L10.6,11.8l-0.01-0.014C10.833,11.604,11,11.327,11,11V6.408l4.719-4.719l0.05-0.049
				l-0.011-0.009C15.902,1.458,16,1.243,16,1z M9.281,5.311l-0.05,0.049l0.011,0.009C9.098,5.542,9,5.757,9,6v4.6l-2,2V6
				c0-0.243-0.098-0.458-0.242-0.632l0.011-0.009l-0.05-0.049L3.408,2h9.184L9.281,5.311z"/>
		</g>
	</g>
</g>
<g id="Row_3_1_">
</g>
<g id="Row_2_1_">
</g>
<g id="Row_1_1_">
</g>
</svg>
