<?xml version="1.0" encoding="utf-8"?>
<!-- Generator: Adobe Illustrator 16.0.0, SVG Export Plug-In . SVG Version: 6.00 Build 0)  -->
<!DOCTYPE svg PUBLIC "-//W3C//DTD SVG 1.1//EN" "http://www.w3.org/Graphics/SVG/1.1/DTD/svg11.dtd">
<svg version="1.1" xmlns="http://www.w3.org/2000/svg" xmlns:xlink="http://www.w3.org/1999/xlink" x="0px" y="0px" width="16px"
	 height="16px" viewBox="0 0 16 16" enable-background="new 0 0 16 16" xml:space="preserve">
<g id="Layer_0_xA0_Image_1_">
</g>
<g id="Row_5_1_">
</g>
<g id="Row_4_1_">
</g>
<g id="Row_3_1_">
</g>
<g id="Row_2_1_">
</g>
<g id="Row_1_1_">
	<g id="hashtag">
		<g>
			<path fill="#212121" d="M15,10h-3.533l1.143-4H15c0.553,0,1-0.447,1-1s-0.447-1-1-1h-1.819l0.761-2.664l-0.009-0.003
				C13.971,1.228,14,1.118,14,1c0-0.553-0.447-1-1-1c-0.435,0-0.795,0.28-0.933,0.667l-0.009-0.003L11.105,4H7.181l0.761-2.664
				L7.933,1.333C7.971,1.228,8,1.118,8,1c0-0.553-0.447-1-1-1C6.565,0,6.205,0.28,6.067,0.667L6.059,0.664L5.105,4H1
				C0.447,4,0,4.447,0,5s0.447,1,1,1h3.533l-1.143,4H1c-0.553,0-1,0.447-1,1s0.447,1,1,1h1.819l-0.761,2.664l0.009,0.003
				C2.029,14.772,2,14.882,2,15c0,0.553,0.447,1,1,1c0.435,0,0.795-0.28,0.933-0.667l0.009,0.003L4.895,12h3.925l-0.761,2.664
				l0.009,0.003C8.029,14.772,8,14.882,8,15c0,0.553,0.447,1,1,1c0.435,0,0.795-0.28,0.933-0.667l0.009,0.003L10.895,12H15
				c0.553,0,1-0.447,1-1S15.553,10,15,10z M9.391,10H5.467l1.143-4h3.924L9.391,10z"/>
		</g>
	</g>
</g>
</svg>
