<?xml version="1.0" encoding="utf-8"?>
<!-- Generator: Adobe Illustrator 16.0.0, SVG Export Plug-In . SVG Version: 6.00 Build 0)  -->
<!DOCTYPE svg PUBLIC "-//W3C//DTD SVG 1.1//EN" "http://www.w3.org/Graphics/SVG/1.1/DTD/svg11.dtd">
<svg version="1.1" xmlns="http://www.w3.org/2000/svg" xmlns:xlink="http://www.w3.org/1999/xlink" x="0px" y="0px" width="16px"
	 height="16px" viewBox="0 0 16 16" enable-background="new 0 0 16 16" xml:space="preserve">
<g id="Layer_0_xA0_Image_1_">
</g>
<g id="Row_5_1_">
</g>
<g id="Row_4_1_">
</g>
<g id="Row_3_1_">
</g>
<g id="Row_2_1_">
	<g id="hourglass">
		<g>
			<path fill="#212121" d="M13,14v-4c0-1.104-0.896-2-2-2V7c1.104,0,2-0.896,2-2V2c0.553,0,1-0.447,1-1s-0.447-1-1-1H3
				C2.447,0,2,0.447,2,1s0.447,1,1,1v3c0,1.104,0.896,2,2,2v1c-1.104,0-2,0.896-2,2v4c-0.553,0-1,0.447-1,1s0.447,1,1,1h10
				c0.553,0,1-0.447,1-1S13.553,14,13,14z M11,14H5v-4c1.104,0,2-0.896,2-2V7c0-1.104-0.896-2-2-2V2h6v3C9.896,5,9,5.896,9,7v1
				c0,1.104,0.896,2,2,2V14z"/>
		</g>
	</g>
</g>
<g id="Row_1_1_">
</g>
</svg>
