<?xml version="1.0" encoding="utf-8"?>
<!-- Generator: Adobe Illustrator 16.0.0, SVG Export Plug-In . SVG Version: 6.00 Build 0)  -->
<!DOCTYPE svg PUBLIC "-//W3C//DTD SVG 1.1//EN" "http://www.w3.org/Graphics/SVG/1.1/DTD/svg11.dtd">
<svg version="1.1" xmlns="http://www.w3.org/2000/svg" xmlns:xlink="http://www.w3.org/1999/xlink" x="0px" y="0px" width="16px"
	 height="16px" viewBox="0 0 16 16" enable-background="new 0 0 16 16" xml:space="preserve">
<g id="Layer_0_xA0_Image_1_">
</g>
<g id="Row_5_1_">
	<g id="left">
		<g>
			<path fill="#212121" d="M15,5H5.395l3.254-3.253c0.035-0.031,0.067-0.063,0.099-0.099l0.066-0.067L8.799,1.57
				C8.916,1.407,9,1.217,9,1c0-0.553-0.447-1-1-1C7.665,0,7.383,0.176,7.201,0.43L7.187,0.419L0.352,7.253
				C0.316,7.284,0.284,7.316,0.253,7.352L0.187,7.419L0.201,7.43C0.084,7.593,0,7.783,0,8s0.084,0.407,0.201,0.57L0.187,8.581
				l0.066,0.067c0.031,0.035,0.063,0.067,0.099,0.099l6.835,6.834l0.015-0.011C7.383,15.824,7.665,16,8,16c0.553,0,1-0.447,1-1
				c0-0.217-0.084-0.407-0.201-0.57l0.015-0.011l-0.066-0.067c-0.031-0.035-0.063-0.067-0.099-0.099L5.395,11H15
				c0.553,0,1-0.447,1-1V6C16,5.447,15.553,5,15,5z M14,9H3.395l-1-1l1-1H14V9z"/>
		</g>
	</g>
</g>
<g id="Row_4_1_">
</g>
<g id="Row_3_1_">
</g>
<g id="Row_2_1_">
</g>
<g id="Row_1_1_">
</g>
</svg>
