<?xml version="1.0" encoding="utf-8"?>
<!-- Generator: Adobe Illustrator 16.0.0, SVG Export Plug-In . SVG Version: 6.00 Build 0)  -->
<!DOCTYPE svg PUBLIC "-//W3C//DTD SVG 1.1//EN" "http://www.w3.org/Graphics/SVG/1.1/DTD/svg11.dtd">
<svg version="1.1" xmlns="http://www.w3.org/2000/svg" xmlns:xlink="http://www.w3.org/1999/xlink" x="0px" y="0px" width="16px"
	 height="16px" viewBox="0 0 16 16" enable-background="new 0 0 16 16" xml:space="preserve">
<g id="Layer_0_xA0_Image_1_">
</g>
<g id="Row_5_1_">
</g>
<g id="Row_4_1_">
</g>
<g id="Row_3_1_">
</g>
<g id="Row_2_1_">
	<g id="swap">
		<g>
			<path fill="#212121" d="M15,11c-0.276,0-0.526,0.112-0.707,0.293L13,12.586V9c0-3.313-2.687-6-6-6H3.414l1.293-1.293
				C4.888,1.526,5,1.276,5,1c0-0.553-0.447-1-1-1C3.724,0,3.474,0.112,3.293,0.293l-3,3C0.112,3.474,0,3.724,0,4
				s0.112,0.526,0.293,0.707l3,3C3.474,7.888,3.724,8,4,8c0.553,0,1-0.447,1-1c0-0.276-0.112-0.526-0.293-0.707L3.414,5H7
				c2.209,0,4,1.791,4,4v3.586l-1.293-1.293C9.526,11.112,9.276,11,9,11c-0.553,0-1,0.447-1,1c0,0.276,0.112,0.526,0.293,0.707l3,3
				C11.474,15.888,11.724,16,12,16s0.526-0.112,0.707-0.293l3-3C15.888,12.526,16,12.276,16,12C16,11.447,15.553,11,15,11z"/>
		</g>
	</g>
</g>
<g id="Row_1_1_">
</g>
</svg>
