<?xml version="1.0" encoding="utf-8"?>
<!-- Generator: Adobe Illustrator 16.0.0, SVG Export Plug-In . SVG Version: 6.00 Build 0)  -->
<!DOCTYPE svg PUBLIC "-//W3C//DTD SVG 1.1//EN" "http://www.w3.org/Graphics/SVG/1.1/DTD/svg11.dtd">
<svg version="1.1" xmlns="http://www.w3.org/2000/svg" xmlns:xlink="http://www.w3.org/1999/xlink" x="0px" y="0px" width="16px"
	 height="16px" viewBox="0 0 16 16" enable-background="new 0 0 16 16" xml:space="preserve">
<g id="Layer_0_xA0_Image_1_">
</g>
<g id="Row_5_1_">
</g>
<g id="Row_4_1_">
</g>
<g id="Row_3_1_">
</g>
<g id="Row_2_1_">
	<g id="transfer_to...">
		<g>
			<path fill="#212121" d="M12,8c0-0.276-0.112-0.526-0.293-0.707l-3-3C8.526,4.112,8.276,4,8,4C7.447,4,7,4.447,7,5
				c0,0.276,0.112,0.526,0.293,0.707L8.586,7H1C0.447,7,0,7.447,0,8s0.447,1,1,1h7.586l-1.293,1.293C7.112,10.474,7,10.724,7,11
				c0,0.553,0.447,1,1,1c0.276,0,0.526-0.112,0.707-0.293l3-3C11.888,8.526,12,8.276,12,8z M15,0h-4c-0.553,0-1,0.447-1,1
				s0.447,1,1,1h3v12h-3c-0.553,0-1,0.447-1,1s0.447,1,1,1h4c0.553,0,1-0.447,1-1V1C16,0.447,15.553,0,15,0z"/>
		</g>
	</g>
</g>
<g id="Row_1_1_">
</g>
</svg>
