<?xml version="1.0" encoding="utf-8"?>
<!-- Generator: Adobe Illustrator 16.0.0, SVG Export Plug-In . SVG Version: 6.00 Build 0)  -->
<!DOCTYPE svg PUBLIC "-//W3C//DTD SVG 1.1//EN" "http://www.w3.org/Graphics/SVG/1.1/DTD/svg11.dtd">
<svg version="1.1" xmlns="http://www.w3.org/2000/svg" xmlns:xlink="http://www.w3.org/1999/xlink" x="0px" y="0px" width="16px"
	 height="16px" viewBox="0 0 16 16" enable-background="new 0 0 16 16" xml:space="preserve">
<g id="Layer_0_xA0_Image_1_">
</g>
<g id="Row_5_1_">
</g>
<g id="Row_4_1_">
</g>
<g id="Row_3_1_">
</g>
<g id="Row_2_1_">
</g>
<g id="Row_1_1_">
	<g id="undo">
		<g>
			<path fill="#212121" d="M8,0C5.602,0,3.465,1.067,2,2.739V1c0-0.553-0.447-1-1-1S0,0.447,0,1v4c0,0.553,0.447,1,1,1h4
				c0.553,0,1-0.447,1-1S5.553,4,5,4H3.563C4.657,2.779,6.23,2,8,2c3.313,0,6,2.687,6,6s-2.687,6-6,6
				c-1.657,0-3.22-0.641-4.305-1.727L3.688,12.28C3.509,12.108,3.268,12,3,12c-0.553,0-1,0.447-1,1c0,0.291,0.129,0.548,0.328,0.73
				C3.773,15.151,5.813,16,8,16c4.418,0,8-3.582,8-8S12.418,0,8,0z"/>
		</g>
	</g>
</g>
</svg>
