<?xml version="1.0" encoding="utf-8"?>
<!-- Generator: Adobe Illustrator 16.0.0, SVG Export Plug-In . SVG Version: 6.00 Build 0)  -->
<!DOCTYPE svg PUBLIC "-//W3C//DTD SVG 1.1//EN" "http://www.w3.org/Graphics/SVG/1.1/DTD/svg11.dtd">
<svg version="1.1" xmlns="http://www.w3.org/2000/svg" xmlns:xlink="http://www.w3.org/1999/xlink" x="0px" y="0px" width="16px"
	 height="16px" viewBox="0 0 16 16" enable-background="new 0 0 16 16" xml:space="preserve">
<g id="Layer_0_xA0_Image_1_">
</g>
<g id="Row_5_1_">
</g>
<g id="Row_4_1_">
</g>
<g id="Row_3_1_">
</g>
<g id="Row_2_1_">
</g>
<g id="Row_1_1_">
	<g id="ahead_only">
		<g>
			<path fill="#212121" d="M11.707,3.293l-3-3C8.526,0.112,8.276,0,8,0S7.474,0.112,7.293,0.293l-3,3C4.112,3.474,4,3.724,4,4
				c0,0.553,0.447,1,1,1c0.276,0,0.526-0.112,0.707-0.293L7,3.414V15c0,0.553,0.447,1,1,1s1-0.447,1-1V3.414l1.293,1.293
				C10.474,4.888,10.724,5,11,5c0.553,0,1-0.447,1-1C12,3.724,11.888,3.474,11.707,3.293z"/>
		</g>
	</g>
</g>
</svg>
