<?xml version="1.0" encoding="utf-8"?>
<!-- Generator: Adobe Illustrator 16.0.0, SVG Export Plug-In . SVG Version: 6.00 Build 0)  -->
<!DOCTYPE svg PUBLIC "-//W3C//DTD SVG 1.1//EN" "http://www.w3.org/Graphics/SVG/1.1/DTD/svg11.dtd">
<svg version="1.1" xmlns="http://www.w3.org/2000/svg" xmlns:xlink="http://www.w3.org/1999/xlink" x="0px" y="0px" width="16px"
	 height="16px" viewBox="0 0 16 16" enable-background="new 0 0 16 16" xml:space="preserve">
<g id="Layer_0_xA0_Image_1_">
</g>
<g id="Row_5_1_">
	<g id="airplane">
		<g>
			<path fill="#212121" d="M15.857,10.15l-3.082-5.542l2.922-2.951c0.379-0.379,0.379-0.994,0-1.373c-0.379-0.38-0.995-0.38-1.375,0
				L11.4,3.234L5.854,0.155c0,0-0.585-0.411-1.16,0.162L3.258,1.692c-0.38,0.379-0.38,0.994,0,1.373l4.186,4.122L4.777,9.852
				L1.85,9.018c0,0-0.424-0.188-0.878,0.265L0.285,10.22c-0.379,0.379-0.379,0.994,0,1.374c0.076,0.076,0.167,0.126,0.258,0.17
				l2.454,1.24l1.231,2.459c0,0,0.026,0.097,0.182,0.252c0.379,0.38,0.996,0.38,1.375,0l0.906-0.687
				c0.454-0.453,0.266-0.878,0.266-0.878l-0.804-2.925l2.667-2.664l4.125,4.183c0.379,0.381,0.995,0.381,1.375,0l1.375-1.436
				C16.269,10.734,15.857,10.15,15.857,10.15z M13.632,10.622l-8.25-8.244L5.551,2.21l4.035,2.239l1.268,0.705l0.705,1.267
				l2.242,4.032L13.632,10.622z"/>
		</g>
	</g>
</g>
<g id="Row_4_1_">
</g>
<g id="Row_3_1_">
</g>
<g id="Row_2_1_">
</g>
<g id="Row_1_1_">
</g>
</svg>
