<?xml version="1.0" encoding="utf-8"?>
<!-- Generator: Adobe Illustrator 16.0.0, SVG Export Plug-In . SVG Version: 6.00 Build 0)  -->
<!DOCTYPE svg PUBLIC "-//W3C//DTD SVG 1.1//EN" "http://www.w3.org/Graphics/SVG/1.1/DTD/svg11.dtd">
<svg version="1.1" xmlns="http://www.w3.org/2000/svg" xmlns:xlink="http://www.w3.org/1999/xlink" x="0px" y="0px" width="16px"
	 height="16px" viewBox="0 0 16 16" enable-background="new 0 0 16 16" xml:space="preserve">
<g id="Layer_0_xA0_Image_1_">
</g>
<g id="Row_5_1_">
	<g id="blinker">
		<g>
			<path fill="#212121" d="M6,5H4V4c0-0.553-0.447-1-1-1C2.609,3,2.279,3.23,2.114,3.558L2.105,3.553l-2,4l0.009,0.005
				C0.047,7.692,0,7.839,0,8s0.047,0.308,0.114,0.442L0.105,8.447l2,4l0.009-0.005C2.279,12.77,2.609,13,3,13c0.553,0,1-0.447,1-1
				v-1h2c0.553,0,1-0.447,1-1V6C7,5.447,6.553,5,6,5z M5,9H2.618l-0.5-1l0.5-1H5V9z M16,8c0-0.161-0.047-0.308-0.114-0.442
				l0.009-0.005l-2-4l-0.009,0.005C13.721,3.23,13.391,3,13,3c-0.553,0-1,0.447-1,1v1h-2C9.448,5,9,5.447,9,6v4c0,0.553,0.447,1,1,1
				h2v1c0,0.553,0.447,1,1,1c0.391,0,0.721-0.23,0.886-0.558l0.009,0.005l2-4l-0.009-0.005C15.954,8.308,16,8.161,16,8z M13.382,9
				H11V7h2.382l0.5,1L13.382,9z"/>
		</g>
	</g>
</g>
<g id="Row_4_1_">
</g>
<g id="Row_3_1_">
</g>
<g id="Row_2_1_">
</g>
<g id="Row_1_1_">
</g>
</svg>
