<?xml version="1.0" encoding="utf-8"?>
<!-- Generator: Adobe Illustrator 16.0.0, SVG Export Plug-In . SVG Version: 6.00 Build 0)  -->
<!DOCTYPE svg PUBLIC "-//W3C//DTD SVG 1.1//EN" "http://www.w3.org/Graphics/SVG/1.1/DTD/svg11.dtd">
<svg version="1.1" xmlns="http://www.w3.org/2000/svg" xmlns:xlink="http://www.w3.org/1999/xlink" x="0px" y="0px" width="16px"
	 height="16px" viewBox="0 0 16 16" enable-background="new 0 0 16 16" xml:space="preserve">
<g id="Layer_0_xA0_Image_1_">
</g>
<g id="Row_5_1_">
</g>
<g id="Row_4_1_">
</g>
<g id="Row_3_1_">
	<g id="control_tower">
		<g>
			<path fill="#212121" d="M15,10H8V9.236l1.895-3.789L9.886,5.442C9.953,5.308,10,5.161,10,5c0-0.553-0.447-1-1-1H6V2h1
				c0.553,0,1-0.447,1-1S7.553,0,7,0H3C2.447,0,2,0.447,2,1s0.447,1,1,1h1v2H1C0.447,4,0,4.447,0,5c0,0.161,0.047,0.308,0.114,0.442
				L0.105,5.447L2,9.236V15c0,0.553,0.447,1,1,1h12c0.553,0,1-0.447,1-1v-4C16,10.447,15.553,10,15,10z M6,14H4v-4h2V14z M6.382,8
				H3.618l-1-2h4.764L6.382,8z M14,14H8v-2h6V14z"/>
		</g>
	</g>
</g>
<g id="Row_2_1_">
</g>
<g id="Row_1_1_">
</g>
</svg>
