<?xml version="1.0" encoding="utf-8"?>
<!-- Generator: Adobe Illustrator 16.0.0, SVG Export Plug-In . SVG Version: 6.00 Build 0)  -->
<!DOCTYPE svg PUBLIC "-//W3C//DTD SVG 1.1//EN" "http://www.w3.org/Graphics/SVG/1.1/DTD/svg11.dtd">
<svg version="1.1" xmlns="http://www.w3.org/2000/svg" xmlns:xlink="http://www.w3.org/1999/xlink" x="0px" y="0px" width="16px"
	 height="16px" viewBox="0 0 16 16" enable-background="new 0 0 16 16" xml:space="preserve">
<g id="Layer_0_xA0_Image_1_">
</g>
<g id="Row_5_1_">
</g>
<g id="Row_4_1_">
</g>
<g id="Row_3_1_">
</g>
<g id="Row_2_1_">
	<g id="convertible_car">
		<g>
			<path fill="#212121" d="M13,6h-0.219L11.97,2.757l-0.018,0.004C11.843,2.328,11.468,2,11,2c-0.553,0-1,0.447-1,1
				c0,0.084,0.028,0.159,0.048,0.238L10.03,3.242L10.719,6H3C1.343,6,0,7.342,0,9v2c0,0.553,0.447,1,1,1h1c0,1.104,0.896,2,2,2
				s2-0.896,2-2h4c0,1.104,0.896,2,2,2s2-0.896,2-2h1c0.553,0,1-0.447,1-1V9C16,7.342,14.657,6,13,6z M14,10H2V9
				c0-0.553,0.447-1,1-1h10c0.553,0,1,0.447,1,1V10z"/>
		</g>
	</g>
</g>
<g id="Row_1_1_">
</g>
</svg>
