<?xml version="1.0" encoding="utf-8"?>
<!-- Generator: Adobe Illustrator 16.0.0, SVG Export Plug-In . SVG Version: 6.00 Build 0)  -->
<!DOCTYPE svg PUBLIC "-//W3C//DTD SVG 1.1//EN" "http://www.w3.org/Graphics/SVG/1.1/DTD/svg11.dtd">
<svg version="1.1" xmlns="http://www.w3.org/2000/svg" xmlns:xlink="http://www.w3.org/1999/xlink" x="0px" y="0px" width="16px"
	 height="16.001px" viewBox="0 0 16 16.001" enable-background="new 0 0 16 16.001" xml:space="preserve">
<g id="Layer_0_xA0_Image_1_">
</g>
<g id="Row_5_1_">
</g>
<g id="Row_4_1_">
	<g id="directions_2">
		<g>
			<path fill="#212121" d="M15,2h-5V1c0-0.553-0.447-1-1-1S8,0.447,8,1v1H4C3.724,2,3.474,2.112,3.293,2.293l-3,3
				C0.112,5.474,0,5.724,0,6c0,0.277,0.112,0.527,0.293,0.707l3,3.001C3.474,9.889,3.724,10.001,4,10.001h4v5c0,0.553,0.447,1,1,1
				s1-0.447,1-1v-5h5c0.553,0,1-0.447,1-1V3C16,2.447,15.553,2,15,2z M14,8.001H4.414L2.414,6l2-2H14V8.001z"/>
		</g>
	</g>
</g>
<g id="Row_3_1_">
</g>
<g id="Row_2_1_">
</g>
<g id="Row_1_1_">
</g>
</svg>
