<?xml version="1.0" encoding="utf-8"?>
<!-- Generator: Adobe Illustrator 16.0.0, SVG Export Plug-In . SVG Version: 6.00 Build 0)  -->
<!DOCTYPE svg PUBLIC "-//W3C//DTD SVG 1.1//EN" "http://www.w3.org/Graphics/SVG/1.1/DTD/svg11.dtd">
<svg version="1.1" xmlns="http://www.w3.org/2000/svg" xmlns:xlink="http://www.w3.org/1999/xlink" x="0px" y="0px" width="16px"
	 height="16px" viewBox="0 0 16 16" enable-background="new 0 0 16 16" xml:space="preserve">
<g id="Layer_0_xA0_Image_1_">
</g>
<g id="Row_5_1_">
</g>
<g id="Row_4_1_">
</g>
<g id="Row_3_1_">
</g>
<g id="Row_2_1_">
</g>
<g id="Row_1_1_">
	<g id="double_bend">
		<g>
			<path fill="#212121" d="M11.002,6c-0.981,0-1.501,0.446-2.048,1.175L7.541,9.671c0,0-0.309,0.329-0.539,0.329
				c-0.61,0-1-0.271-1-1V3.414l1.293,1.293C7.476,4.888,7.726,5,8.002,5c0.553,0,1-0.447,1-1c0-0.276-0.112-0.526-0.293-0.707l-3-3
				C5.528,0.112,5.278,0,5.002,0S4.476,0.112,4.295,0.293l-3,3C1.114,3.474,1.002,3.724,1.002,4c0,0.553,0.447,1,1,1
				c0.276,0,0.526-0.112,0.707-0.293l1.293-1.293V9c0,1.657,1.242,3,2.774,3c0.907,0,1.706-0.478,2.212-1.206l1.496-2.51
				C10.658,8.122,10.744,8,11.002,8c0.553,0,1,0.447,1,1v6c0,0.553,0.447,1,1,1s1-0.447,1-1V9C14.002,7.343,12.66,6,11.002,6z"/>
		</g>
	</g>
</g>
</svg>
