<?xml version="1.0" encoding="utf-8"?>
<!-- Generator: Adobe Illustrator 16.0.0, SVG Export Plug-In . SVG Version: 6.00 Build 0)  -->
<!DOCTYPE svg PUBLIC "-//W3C//DTD SVG 1.1//EN" "http://www.w3.org/Graphics/SVG/1.1/DTD/svg11.dtd">
<svg version="1.1" xmlns="http://www.w3.org/2000/svg" xmlns:xlink="http://www.w3.org/1999/xlink" x="0px" y="0px" width="16px"
	 height="16px" viewBox="0 0 16 16" enable-background="new 0 0 16 16" xml:space="preserve">
<g id="Layer_0_xA0_Image_1_">
</g>
<g id="Row_5_1_">
	<g id="engine">
		<g>
			<path fill="#212121" d="M15,5c-0.553,0-1,0.447-1,1v1h-1V6c0-0.553-0.447-1-1-1h-1V4c0-0.553-0.447-1-1-1H9V2h1.5
				C10.776,2,11,1.776,11,1.5S10.776,1,10.5,1h-4C6.224,1,6,1.224,6,1.5S6.224,2,6.5,2H8v1H7C6.724,3,6.474,3.112,6.293,3.293
				L3.586,6H3C2.447,6,2,6.447,2,7v1H1V6.5C1,6.224,0.776,6,0.5,6S0,6.224,0,6.5v4C0,10.776,0.224,11,0.5,11S1,10.776,1,10.5V9h1v2
				c0,0.553,0.447,1,1,1h1.586l1.707,1.707C6.474,13.888,6.724,14,7,14h5c0.553,0,1-0.447,1-1v-2h1v1c0,0.553,0.447,1,1,1
				s1-0.447,1-1V6C16,5.447,15.553,5,15,5z M11,10v2H7.438l-2-2H4V8.406L7.375,5H9v1c0,0.553,0.447,1,1,1h1v1c0,0.553,0.447,1,1,1
				C11.447,9,11,9.447,11,10z"/>
		</g>
	</g>
</g>
<g id="Row_4_1_">
</g>
<g id="Row_3_1_">
</g>
<g id="Row_2_1_">
</g>
<g id="Row_1_1_">
</g>
</svg>
