<?xml version="1.0" encoding="utf-8"?>
<!-- Generator: Adobe Illustrator 16.0.0, SVG Export Plug-In . SVG Version: 6.00 Build 0)  -->
<!DOCTYPE svg PUBLIC "-//W3C//DTD SVG 1.1//EN" "http://www.w3.org/Graphics/SVG/1.1/DTD/svg11.dtd">
<svg version="1.1" xmlns="http://www.w3.org/2000/svg" xmlns:xlink="http://www.w3.org/1999/xlink" x="0px" y="0px" width="16px"
	 height="16px" viewBox="0 0 16 16" enable-background="new 0 0 16 16" xml:space="preserve">
<g id="Layer_0_xA0_Image_1_">
</g>
<g id="Row_5_1_">
	<g id="gas_station">
		<g>
			<path fill="#212121" d="M14.707,3.293l-2-2C12.707,1.293,12.546,1,12,1c-0.553,0-1,0.447-1,1c0,0.546,0.293,0.707,0.293,0.707
				L12,3.414V5c0,0.553,0.447,1,1,1v2c0,1.104-0.896,2-2,2V2V1c0-0.553-0.447-1-1-1H4C3.447,0,3,0.447,3,1v13H2
				c-0.553,0-1,0.447-1,1s0.447,1,1,1h10c0.553,0,1-0.447,1-1s-0.447-1-1-1h-1v-2c2.209,0,4-1.791,4-4V4
				C15,3.454,14.707,3.293,14.707,3.293z M9,14H5V7h4V14z M9,5H5V2h4V5z M8,8H6v1h2V8z"/>
		</g>
	</g>
</g>
<g id="Row_4_1_">
</g>
<g id="Row_3_1_">
</g>
<g id="Row_2_1_">
</g>
<g id="Row_1_1_">
</g>
</svg>
