<?xml version="1.0" encoding="utf-8"?>
<!-- Generator: Adobe Illustrator 16.0.0, SVG Export Plug-In . SVG Version: 6.00 Build 0)  -->
<!DOCTYPE svg PUBLIC "-//W3C//DTD SVG 1.1//EN" "http://www.w3.org/Graphics/SVG/1.1/DTD/svg11.dtd">
<svg version="1.1" xmlns="http://www.w3.org/2000/svg" xmlns:xlink="http://www.w3.org/1999/xlink" x="0px" y="0px" width="16px"
	 height="16px" viewBox="0 0 16 16" enable-background="new 0 0 16 16" xml:space="preserve">
<g id="Layer_0_xA0_Image_1_">
</g>
<g id="Row_5_1_">
</g>
<g id="Row_4_1_">
</g>
<g id="Row_3_1_">
</g>
<g id="Row_2_1_">
	<g id="gas_can">
		<g>
			<path fill="#212121" d="M9.293,6.293L8,7.586L6.707,6.293C6.526,6.112,6.276,6,6,6C5.447,6,5,6.447,5,7
				c0,0.276,0.112,0.526,0.293,0.707L6.585,9l-1.293,1.293C5.112,10.474,5,10.724,5,11c0,0.553,0.447,1,1,1
				c0.276,0,0.526-0.112,0.707-0.293L8,10.414l1.293,1.293C9.474,11.888,9.724,12,10,12c0.553,0,1-0.447,1-1
				c0-0.276-0.112-0.526-0.293-0.707L9.414,9l1.293-1.293C10.888,7.526,11,7.276,11,7c0-0.553-0.447-1-1-1
				C9.724,6,9.474,6.112,9.293,6.293z M13,0H3C2.447,0,2,0.447,2,1v14c0,0.553,0.447,1,1,1h10c0.553,0,1-0.447,1-1V1
				C14,0.447,13.553,0,13,0z M3,1h5.586l-1,1H5C4.454,2,4.292,2.293,4.292,2.293L3,3.586V1z M12,14H4V5.375L5.437,4h2.969l2-2H12V14
				z"/>
		</g>
	</g>
</g>
<g id="Row_1_1_">
</g>
</svg>
