<?xml version="1.0" encoding="utf-8"?>
<!-- Generator: Adobe Illustrator 16.0.0, SVG Export Plug-In . SVG Version: 6.00 Build 0)  -->
<!DOCTYPE svg PUBLIC "-//W3C//DTD SVG 1.1//EN" "http://www.w3.org/Graphics/SVG/1.1/DTD/svg11.dtd">
<svg version="1.1" xmlns="http://www.w3.org/2000/svg" xmlns:xlink="http://www.w3.org/1999/xlink" x="0px" y="0px" width="16px"
	 height="16px" viewBox="0 0 16 16" enable-background="new 0 0 16 16" xml:space="preserve">
<g id="Layer_0_xA0_Image_1_">
</g>
<g id="Row_5_1_">
</g>
<g id="Row_4_1_">
</g>
<g id="Row_3_1_">
</g>
<g id="Row_2_1_">
	<g id="globe">
		<g>
			<path fill="#212121" d="M13.708,1.707c0.391-0.391,0.391-1.023,0-1.414s-1.023-0.391-1.414,0
				c-0.117,0.117-1.039,1.039-2.273,2.272c0.584,0.345,1.069,0.829,1.415,1.414c0,0,0.001,0,0.001-0.001
				c0.902,1.533,0.709,3.533-0.608,4.85c-1.316,1.316-3.316,1.51-4.85,0.607c0.001,0,0.001-0.001,0.001-0.001
				C5.395,9.09,4.91,8.604,4.565,8.021l-2.272,2.272c-0.391,0.391-0.391,1.023,0,1.414s1.023,0.391,1.414,0
				c0.063-0.063,0.374-0.374,0.829-0.828C5.285,11.411,6.131,11.731,7,11.881V14H6c-0.553,0-1,0.447-1,1s0.447,1,1,1h4
				c0.553,0,1-0.447,1-1s-0.447-1-1-1H9v-2.112c1.186-0.195,2.327-0.729,3.243-1.646c2.102-2.101,2.303-5.363,0.637-7.706
				C13.333,2.081,13.644,1.771,13.708,1.707z M8,9c1.657,0,3-1.343,3-3S9.657,3,8,3S5,4.343,5,6S6.343,9,8,9z M8,5
				c0.553,0,1,0.447,1,1S8.553,7,8,7S7,6.553,7,6S7.447,5,8,5z"/>
		</g>
	</g>
</g>
<g id="Row_1_1_">
</g>
</svg>
