<?xml version="1.0" encoding="utf-8"?>
<!-- Generator: Adobe Illustrator 16.0.0, SVG Export Plug-In . SVG Version: 6.00 Build 0)  -->
<!DOCTYPE svg PUBLIC "-//W3C//DTD SVG 1.1//EN" "http://www.w3.org/Graphics/SVG/1.1/DTD/svg11.dtd">
<svg version="1.1" xmlns="http://www.w3.org/2000/svg" xmlns:xlink="http://www.w3.org/1999/xlink" x="0px" y="0px" width="16px"
	 height="16px" viewBox="0 0 16 16" enable-background="new 0 0 16 16" xml:space="preserve">
<g id="Layer_0_xA0_Image_1_">
</g>
<g id="Row_5_1_">
</g>
<g id="Row_4_1_">
</g>
<g id="Row_3_1_">
	<g id="helicopter">
		<g>
			<path fill="#212121" d="M15,0H1C0.447,0,0,0.447,0,1s0.447,1,1,1h6v2.101C4.718,4.563,3,6.581,3,9
				c0,0.979,0.286,1.891,0.772,2.661C2.564,12.523,2,14.142,2,16h2c0-1.343,0.226-2.479,1.193-2.862C5.994,13.682,6.96,14,8,14
				s2.006-0.318,2.807-0.862C11.774,13.521,12,14.657,12,16h2c0-1.858-0.564-3.477-1.772-4.339C12.714,10.891,13,9.979,13,9
				c0-2.419-1.718-4.437-4-4.899V2h6c0.553,0,1-0.447,1-1S15.553,0,15,0z M7,6.173V8H5.175C5.476,7.148,6.149,6.475,7,6.173z M8,12
				c-2.168,0-2.813-1.97-2.824-2h5.649C10.814,10.03,10.165,12,8,12z M10.825,8H9V6.173C9.851,6.475,10.524,7.148,10.825,8z"/>
		</g>
	</g>
</g>
<g id="Row_2_1_">
</g>
<g id="Row_1_1_">
</g>
</svg>
