<?xml version="1.0" encoding="utf-8"?>
<!-- Generator: Adobe Illustrator 16.0.0, SVG Export Plug-In . SVG Version: 6.00 Build 0)  -->
<!DOCTYPE svg PUBLIC "-//W3C//DTD SVG 1.1//EN" "http://www.w3.org/Graphics/SVG/1.1/DTD/svg11.dtd">
<svg version="1.1" xmlns="http://www.w3.org/2000/svg" xmlns:xlink="http://www.w3.org/1999/xlink" x="0px" y="0px" width="16px"
	 height="16px" viewBox="0 0 16 16" enable-background="new 0 0 16 16" xml:space="preserve">
<g id="Layer_0_xA0_Image_1_">
</g>
<g id="Row_5_1_">
	<g id="highway">
		<g>
			<path fill="#212121" d="M4.809,2H5v2h2V1c0-0.553-0.447-1-1-1H4C3.521,0,3.139,0.345,3.041,0.795L3.022,0.79L2.334,4H4.38
				L4.809,2z M11,2h0.191l0.429,2h2.046l-0.688-3.21l-0.019,0.005C12.861,0.345,12.479,0,12,0h-2C9.447,0,9,0.447,9,1v3h2V2z M5,14
				H2.237l1.071-5H1.263l-1.24,5.79l0.019,0.005C0.026,14.863,0,14.927,0,15c0,0.553,0.447,1,1,1h5c0.553,0,1-0.447,1-1V8H5V14z
				 M1,7h1c0,0.553,0.447,1,1,1s1-0.447,1-1h8c0,0.553,0.447,1,1,1s1-0.447,1-1h1c0.553,0,1-0.447,1-1s-0.447-1-1-1H1
				C0.447,5,0,5.447,0,6S0.447,7,1,7z M15.978,14.79L14.737,9h-2.046l1.071,5H11V8H9v7c0,0.553,0.447,1,1,1h5c0.553,0,1-0.447,1-1
				c0-0.073-0.026-0.137-0.041-0.205L15.978,14.79z"/>
		</g>
	</g>
</g>
<g id="Row_4_1_">
</g>
<g id="Row_3_1_">
</g>
<g id="Row_2_1_">
</g>
<g id="Row_1_1_">
</g>
</svg>
