<?xml version="1.0" encoding="utf-8"?>
<!-- Generator: Adobe Illustrator 16.0.0, SVG Export Plug-In . SVG Version: 6.00 Build 0)  -->
<!DOCTYPE svg PUBLIC "-//W3C//DTD SVG 1.1//EN" "http://www.w3.org/Graphics/SVG/1.1/DTD/svg11.dtd">
<svg version="1.1" xmlns="http://www.w3.org/2000/svg" xmlns:xlink="http://www.w3.org/1999/xlink" x="0px" y="0px" width="16px"
	 height="16px" viewBox="0 0 16 16" enable-background="new 0 0 16 16" xml:space="preserve">
<g id="Layer_0_xA0_Image_1_">
</g>
<g id="Row_5_1_">
</g>
<g id="Row_4_1_">
</g>
<g id="Row_3_1_">
</g>
<g id="Row_2_1_">
	<g id="hubcap">
		<g>
			<path fill-rule="evenodd" clip-rule="evenodd" fill="#212121" d="M8,0C3.582,0,0,3.582,0,8s3.582,8,8,8s8-3.582,8-8S12.418,0,8,0
				z M11,2.832c0.368,0.215,0.712,0.461,1.025,0.746L11,3.911V2.832z M11,6.014l2.311-0.751c0.304,0.588,0.511,1.226,0.605,1.906
				l-2.474,0.804L11,7.364V6.014z M7,2.101C7.327,2.046,7.657,2,8,2s0.673,0.046,1,0.101v2.46L8.009,4.883L7,4.555V2.101z M8,6
				c1.104,0,2,0.896,2,2s-0.896,2-2,2S6,9.104,6,8S6.896,6,8,6z M5,2.832v1.073L3.979,3.574C4.292,3.29,4.634,3.046,5,2.832z
				 M2.692,5.259L5,6.008v1.35L4.557,7.967L2.084,7.164C2.18,6.483,2.388,5.846,2.692,5.259z M2.627,10.623
				C2.421,10.2,2.249,9.758,2.146,9.287L3.32,9.668L2.627,10.623z M5.519,13.449c-0.616-0.281-1.175-0.659-1.658-1.121l1.46-2.01
				l0.536,0.174l0.905,1.246L5.519,13.449z M8,14c-0.131,0-0.253-0.03-0.382-0.038l0.379-0.522l0.38,0.522C8.25,13.97,8.129,14,8,14
				z M10.479,13.451l-1.245-1.713l0.898-1.236l0.547-0.178l1.457,2.006C11.653,12.792,11.094,13.17,10.479,13.451z M13.37,10.627
				l-0.691-0.953l1.174-0.381C13.748,9.764,13.577,10.205,13.37,10.627z"/>
		</g>
	</g>
</g>
<g id="Row_1_1_">
</g>
</svg>
