<?xml version="1.0" encoding="utf-8"?>
<!-- Generator: Adobe Illustrator 16.0.0, SVG Export Plug-In . SVG Version: 6.00 Build 0)  -->
<!DOCTYPE svg PUBLIC "-//W3C//DTD SVG 1.1//EN" "http://www.w3.org/Graphics/SVG/1.1/DTD/svg11.dtd">
<svg version="1.1" xmlns="http://www.w3.org/2000/svg" xmlns:xlink="http://www.w3.org/1999/xlink" x="0px" y="0px" width="16px"
	 height="16px" viewBox="0 0 16 16" enable-background="new 0 0 16 16" xml:space="preserve">
<g id="Layer_0_xA0_Image_1_">
</g>
<g id="Row_5_1_">
</g>
<g id="Row_4_1_">
</g>
<g id="Row_3_1_">
</g>
<g id="Row_2_1_">
	<g id="igloo">
		<g>
			<path fill="#212121" d="M9,2C6.114,2,3.679,3.767,2.612,6.262C1.09,6.828,0,8.281,0,10v3c0,0.553,0.447,1,1,1h14
				c0.553,0,1-0.447,1-1V9C16,5.134,12.866,2,9,2z M6,12H2v-2c0-1.104,0.896-2,2-2s2,0.896,2,2V12z M14,12H8v-2
				c0-1.887-1.31-3.457-3.066-3.879C5.838,4.843,7.315,4,9,4c2.419,0,4.436,1.718,4.899,4H11c-0.553,0-1,0.447-1,1s0.447,1,1,1h3V12
				z"/>
		</g>
	</g>
</g>
<g id="Row_1_1_">
</g>
</svg>
