<?xml version="1.0" encoding="utf-8"?>
<!-- Generator: Adobe Illustrator 16.0.0, SVG Export Plug-In . SVG Version: 6.00 Build 0)  -->
<!DOCTYPE svg PUBLIC "-//W3C//DTD SVG 1.1//EN" "http://www.w3.org/Graphics/SVG/1.1/DTD/svg11.dtd">
<svg version="1.1" xmlns="http://www.w3.org/2000/svg" xmlns:xlink="http://www.w3.org/1999/xlink" x="0px" y="0px"
	 width="15.999px" height="16px" viewBox="0 0 15.999 16" enable-background="new 0 0 15.999 16" xml:space="preserve">
<g id="Layer_0_xA0_Image_1_">
</g>
<g id="Row_5_1_">
</g>
<g id="Row_4_1_">
</g>
<g id="Row_3_1_">
</g>
<g id="Row_2_1_">
</g>
<g id="Row_1_1_">
	<g id="narrow_road_ahead">
		<g>
			<path fill="#212121" d="M6,0C5.447,0,5,0.447,5,1v3.838l-1.948,5.846l0.012,0.004C3.03,10.787,3,10.89,3,11v4
				c0,0.553,0.447,1,1,1s1-0.447,1-1v-3.838l1.948-5.846L6.937,5.313C6.97,5.213,7,5.11,7,5V1C7,0.447,6.553,0,6,0z M12.937,10.688
				l0.012-0.004L11,4.838V1c0-0.553-0.447-1-1-1S9,0.447,9,1v4c0,0.11,0.029,0.213,0.063,0.313L9.052,5.316L11,11.162V15
				c0,0.553,0.447,1,1,1s1-0.447,1-1v-4C13,10.89,12.97,10.787,12.937,10.688z"/>
		</g>
	</g>
</g>
</svg>
