<?xml version="1.0" encoding="utf-8"?>
<!-- Generator: Adobe Illustrator 16.0.0, SVG Export Plug-In . SVG Version: 6.00 Build 0)  -->
<!DOCTYPE svg PUBLIC "-//W3C//DTD SVG 1.1//EN" "http://www.w3.org/Graphics/SVG/1.1/DTD/svg11.dtd">
<svg version="1.1" xmlns="http://www.w3.org/2000/svg" xmlns:xlink="http://www.w3.org/1999/xlink" x="0px" y="0px" width="16px"
	 height="16px" viewBox="0 0 16 16" enable-background="new 0 0 16 16" xml:space="preserve">
<g id="Layer_0_xA0_Image_1_">
</g>
<g id="Row_5_1_">
</g>
<g id="Row_4_1_">
</g>
<g id="Row_3_1_">
</g>
<g id="Row_2_1_">
</g>
<g id="Row_1_1_">
	<g id="no_stopping">
		<g>
			<path fill="#212121" d="M8,0C3.582,0,0,3.582,0,8s3.582,8,8,8s8-3.582,8-8S12.418,0,8,0z M8,2c1.295,0,2.487,0.42,3.468,1.118
				L8,6.586L4.532,3.118C5.513,2.42,6.705,2,8,2z M2,8c0-1.295,0.42-2.487,1.118-3.468L6.586,8l-3.468,3.468
				C2.42,10.487,2,9.295,2,8z M8,14c-1.295,0-2.487-0.42-3.468-1.118L8,9.414l3.468,3.468C10.487,13.58,9.295,14,8,14z
				 M12.882,11.468L9.414,8l3.468-3.468C13.58,5.513,14,6.705,14,8S13.58,10.487,12.882,11.468z"/>
		</g>
	</g>
</g>
</svg>
