<?xml version="1.0" encoding="utf-8"?>
<!-- Generator: Adobe Illustrator 16.0.0, SVG Export Plug-In . SVG Version: 6.00 Build 0)  -->
<!DOCTYPE svg PUBLIC "-//W3C//DTD SVG 1.1//EN" "http://www.w3.org/Graphics/SVG/1.1/DTD/svg11.dtd">
<svg version="1.1" xmlns="http://www.w3.org/2000/svg" xmlns:xlink="http://www.w3.org/1999/xlink" x="0px" y="0px" width="16px"
	 height="15.999px" viewBox="0 0 16 15.999" enable-background="new 0 0 16 15.999" xml:space="preserve">
<g id="Layer_0_xA0_Image_1_">
</g>
<g id="Row_5_1_">
	<g id="oil">
		<g>
			<path fill="#212121" d="M15.001,5c-0.131,0-0.254,0.028-0.369,0.074l-0.001-0.003l-0.018,0.007l-0.001,0.001L9.814,7H8.009V4
				h1.498c0.276,0,0.5-0.224,0.5-0.5S9.783,3,9.507,3H5.512c-0.276,0-0.5,0.224-0.5,0.5S5.235,4,5.512,4H7.01v3H6.573L3.864,4.288
				c-0.395-0.395-1.033-0.395-1.428,0L0.296,6.432c-0.395,0.395-0.395,1.034,0,1.429l2.719,2.723V11c0,0.553,0.446,1,0.998,1h5.994
				c0.552,0,0.999-0.447,0.999-1v-0.52l3.384-2.71C14.56,7.906,14.767,8,15.001,8C15.554,8,16,7.553,16,7V6
				C16,5.447,15.554,5,15.001,5z M3.06,7.771L2.437,7.146l0.713-0.715L3.768,7.05C3.413,7.142,3.146,7.413,3.06,7.771z M9.008,10
				H5.012V9h3.996V10z M15.001,9.993l-0.706,0.588c-0.391,0.324-0.391,0.851,0,1.176c0.391,0.324,1.022,0.324,1.412,0
				c0.391-0.325,0.391-0.852,0-1.176L15.001,9.993z"/>
		</g>
	</g>
</g>
<g id="Row_4_1_">
</g>
<g id="Row_3_1_">
</g>
<g id="Row_2_1_">
</g>
<g id="Row_1_1_">
</g>
</svg>
