<?xml version="1.0" encoding="utf-8"?>
<!-- Generator: Adobe Illustrator 16.0.0, SVG Export Plug-In . SVG Version: 6.00 Build 0)  -->
<!DOCTYPE svg PUBLIC "-//W3C//DTD SVG 1.1//EN" "http://www.w3.org/Graphics/SVG/1.1/DTD/svg11.dtd">
<svg version="1.1" xmlns="http://www.w3.org/2000/svg" xmlns:xlink="http://www.w3.org/1999/xlink" x="0px" y="0px" width="16px"
	 height="16.001px" viewBox="0 0 16 16.001" enable-background="new 0 0 16 16.001" xml:space="preserve">
<g id="Layer_0_xA0_Image_1_">
</g>
<g id="Row_5_1_">
</g>
<g id="Row_4_1_">
	<g id="pin">
		<g>
			<path fill="#212121" d="M8,0C4.687,0,2,2.687,2,6c0,3.314,5.968,10.001,6,10.001c0.001,0,6-6.687,6-10.001C14,2.687,11.314,0,8,0
				z M8,13.001c0.053,0-4-4.791-4-7.001c0-2.209,1.791-4,4-4s4,1.791,4,4C12,8.21,7.99,13.001,8,13.001z M8,3C6.343,3,5,4.343,5,6
				c0,1.658,1.343,3.001,3,3.001S11,7.658,11,6C11,4.343,9.657,3,8,3z M8,7.001C7.447,7.001,7,6.553,7,6s0.447-1,1-1s1,0.447,1,1
				S8.553,7.001,8,7.001z"/>
		</g>
	</g>
</g>
<g id="Row_3_1_">
</g>
<g id="Row_2_1_">
</g>
<g id="Row_1_1_">
</g>
</svg>
