<?xml version="1.0" encoding="utf-8"?>
<!-- Generator: Adobe Illustrator 16.0.0, SVG Export Plug-In . SVG Version: 6.00 Build 0)  -->
<!DOCTYPE svg PUBLIC "-//W3C//DTD SVG 1.1//EN" "http://www.w3.org/Graphics/SVG/1.1/DTD/svg11.dtd">
<svg version="1.1" xmlns="http://www.w3.org/2000/svg" xmlns:xlink="http://www.w3.org/1999/xlink" x="0px" y="0px" width="16px"
	 height="16.001px" viewBox="0 0 16 16.001" enable-background="new 0 0 16 16.001" xml:space="preserve">
<g id="Layer_0_xA0_Image_1_">
</g>
<g id="Row_5_1_">
</g>
<g id="Row_4_1_">
	<g id="placed_pin_2">
		<g>
			<path fill="#212121" d="M15.787,14.411l0.014-0.01l-3-4l-0.014,0.01c-0.183-0.243-0.459-0.41-0.786-0.41h-3.2
				C9.967,8.478,12,5.581,12,4c0-2.209-1.792-4-4-4S4,1.791,4,4c0,1.581,2.033,4.478,3.199,6.001H4c-0.327,0-0.604,0.167-0.786,0.41
				L3.2,10.401l-3,4l0.014,0.01C0.088,14.578,0,14.775,0,15.001c0,0.553,0.447,1,1,1h14c0.553,0,1-0.447,1-1
				C16,14.775,15.913,14.578,15.787,14.411z M6,4c0-1.104,0.896-2,2-2s2,0.896,2,2S7.979,8.001,8,8.001C8.073,8.001,6,5.104,6,4z
				 M3,14.001l1.5-2h7l1.5,2H3z M9,4c0-0.553-0.447-1-1-1S7,3.447,7,4s0.447,1,1,1S9,4.553,9,4z"/>
		</g>
	</g>
</g>
<g id="Row_3_1_">
</g>
<g id="Row_2_1_">
</g>
<g id="Row_1_1_">
</g>
</svg>
