<?xml version="1.0" encoding="utf-8"?>
<!-- Generator: Adobe Illustrator 16.0.0, SVG Export Plug-In . SVG Version: 6.00 Build 0)  -->
<!DOCTYPE svg PUBLIC "-//W3C//DTD SVG 1.1//EN" "http://www.w3.org/Graphics/SVG/1.1/DTD/svg11.dtd">
<svg version="1.1" xmlns="http://www.w3.org/2000/svg" xmlns:xlink="http://www.w3.org/1999/xlink" x="0px" y="0px" width="16px"
	 height="16px" viewBox="0 0 16 16" enable-background="new 0 0 16 16" xml:space="preserve">
<g id="Layer_0_xA0_Image_1_">
</g>
<g id="Row_5_1_">
</g>
<g id="Row_4_1_">
</g>
<g id="Row_3_1_">
</g>
<g id="Row_2_1_">
</g>
<g id="Row_1_1_">
	<g id="pyramid">
		<g>
			<path fill="#212121" d="M16,10c0-0.252-0.102-0.476-0.256-0.651l0.009-0.007l-7-8L8.744,1.349C8.562,1.139,8.301,1,8,1
				S7.438,1.139,7.256,1.349L7.247,1.342l-7,8l0.009,0.007C0.102,9.524,0,9.748,0,10c0,0.371,0.211,0.682,0.512,0.854l-0.008,0.014
				l7,4l0.008-0.014C7.658,14.938,7.819,15,8,15s0.342-0.062,0.488-0.146l0.008,0.014l7-4l-0.008-0.014
				C15.789,10.682,16,10.371,16,10z M8,12.849l-5.442-3.11L7,4.661V10c0,0.553,0.447,1,1,1s1-0.447,1-1V4.661l4.442,5.077L8,12.849z
				"/>
		</g>
	</g>
</g>
</svg>
