<?xml version="1.0" encoding="utf-8"?>
<!-- Generator: Adobe Illustrator 16.0.0, SVG Export Plug-In . SVG Version: 6.00 Build 0)  -->
<!DOCTYPE svg PUBLIC "-//W3C//DTD SVG 1.1//EN" "http://www.w3.org/Graphics/SVG/1.1/DTD/svg11.dtd">
<svg version="1.1" xmlns="http://www.w3.org/2000/svg" xmlns:xlink="http://www.w3.org/1999/xlink" x="0px" y="0px" width="16px"
	 height="16px" viewBox="0 0 16 16" enable-background="new 0 0 16 16" xml:space="preserve">
<g id="Layer_0_xA0_Image_1_">
</g>
<g id="Row_5_1_">
</g>
<g id="Row_4_1_">
</g>
<g id="Row_3_1_">
</g>
<g id="Row_2_1_">
</g>
<g id="Row_1_1_">
	<g id="roundabout">
		<g>
			<path fill-rule="evenodd" clip-rule="evenodd" fill="#212121" d="M15.862,7.266c-0.137-0.247-0.356-0.413-0.601-0.481
				l-2.704-0.756c-0.245-0.068-0.515-0.039-0.751,0.104c-0.237,0.143-0.396,0.372-0.461,0.627l-0.725,2.82
				c-0.065,0.255-0.038,0.536,0.099,0.783c0.273,0.493,0.879,0.663,1.352,0.378c0.177-0.106,0.293-0.269,0.377-0.445
				c0.069,1.496-0.629,1.98-1.958,2.781c-0.474,0.285-0.636,0.916-0.362,1.41s0.879,0.663,1.352,0.378
				c2.466-1.484,3.518-3.533,2.683-6.25l0.587,0.164c0.245,0.068,0.515,0.04,0.751-0.103C15.974,8.391,16.136,7.759,15.862,7.266z
				 M5.287,11.295c-0.063-0.245-0.213-0.466-0.437-0.604c-0.447-0.274-1.02-0.111-1.278,0.364c-0.096,0.177-0.118,0.37-0.105,0.56
				C2.567,10.859,1.633,8.782,1.87,7.479c0.097-0.532,0.105-1.083-0.343-1.357C1.08,5.848,0.508,6.011,0.25,6.486
				c-0.857,2.149,0.659,5.545,2.574,7.391L2.27,14.035c-0.231,0.065-0.439,0.226-0.568,0.463c-0.259,0.476-0.105,1.083,0.343,1.357
				c0.224,0.138,0.479,0.165,0.71,0.1l2.556-0.728c0.231-0.066,0.439-0.226,0.568-0.463c0.129-0.238,0.155-0.509,0.094-0.754
				L5.287,11.295z M10.514,2.873c0.475,0.259,1.083,0.105,1.357-0.343c0.274-0.447,0.111-1.02-0.364-1.277
				C8.723-0.865,5.446-0.002,4.116,1.827L3.958,1.272C3.893,1.041,3.732,0.833,3.495,0.704C3.02,0.445,2.412,0.599,2.138,1.047
				C2,1.271,1.973,1.525,2.038,1.757l0.728,2.556c0.065,0.231,0.226,0.439,0.463,0.568c0.238,0.13,0.509,0.155,0.754,0.094
				L6.698,4.29c0.245-0.063,0.466-0.213,0.604-0.437c0.274-0.447,0.111-1.02-0.364-1.278c-0.177-0.096-0.37-0.118-0.56-0.105
				C7.59,1.733,9.178,2.147,10.514,2.873z"/>
		</g>
	</g>
</g>
</svg>
