<?xml version="1.0" encoding="utf-8"?>
<!-- Generator: Adobe Illustrator 16.0.0, SVG Export Plug-In . SVG Version: 6.00 Build 0)  -->
<!DOCTYPE svg PUBLIC "-//W3C//DTD SVG 1.1//EN" "http://www.w3.org/Graphics/SVG/1.1/DTD/svg11.dtd">
<svg version="1.1" xmlns="http://www.w3.org/2000/svg" xmlns:xlink="http://www.w3.org/1999/xlink" x="0px" y="0px"
	 width="15.996px" height="15.996px" viewBox="0 0 15.996 15.996" enable-background="new 0 0 15.996 15.996" xml:space="preserve">
<g id="Layer_0_xA0_Image_1_">
</g>
<g id="Row_5_1_">
</g>
<g id="Row_4_1_">
</g>
<g id="Row_3_1_">
	<g id="route_towards_destination">
		<g>
			<path fill="#212121" d="M6,6.996c-0.553,0-1,0.447-1,1v2c0,0.553,0.447,1,1,1s1-0.447,1-1v-2C7,7.443,6.553,6.996,6,6.996z
				 M8,13.996c-0.553,0-1-0.447-1-1s-0.447-1-1-1s-1,0.447-1,1c0,1.657,1.343,3,3,3c0.553,0,1-0.447,1-1S8.553,13.996,8,13.996z
				 M1,1.996c-0.553,0-1,0.447-1,1s0.447,1,1,1s1-0.447,1-1S1.553,1.996,1,1.996z M6,5.996c0.553,0,1-0.447,1-1c0-1.657-1.343-3-3-3
				c-0.553,0-1,0.447-1,1s0.447,1,1,1s1,0.447,1,1S5.447,5.996,6,5.996z M14.357,2.996l1.357-1.357c0.375-0.375,0.375-0.983,0-1.357
				c-0.374-0.375-0.982-0.375-1.357,0L13,1.639l-1.357-1.357c-0.375-0.375-0.983-0.375-1.357,0c-0.375,0.374-0.375,0.982,0,1.357
				l1.357,1.357l-1.357,1.357c-0.375,0.375-0.375,0.983,0,1.357c0.374,0.375,0.982,0.375,1.357,0L13,4.354l1.357,1.357
				c0.375,0.375,0.983,0.375,1.357,0c0.375-0.374,0.375-0.982,0-1.357L14.357,2.996z M13,11.996c-0.553,0-1,0.447-1,1s-0.447,1-1,1
				s-1,0.447-1,1s0.447,1,1,1c1.657,0,3-1.343,3-3C14,12.443,13.553,11.996,13,11.996z M13,6.996c-0.553,0-1,0.447-1,1v2
				c0,0.553,0.447,1,1,1s1-0.447,1-1v-2C14,7.443,13.553,6.996,13,6.996z"/>
		</g>
	</g>
</g>
<g id="Row_2_1_">
</g>
<g id="Row_1_1_">
</g>
</svg>
