<?xml version="1.0" encoding="utf-8"?>
<!-- Generator: Adobe Illustrator 16.0.0, SVG Export Plug-In . SVG Version: 6.00 Build 0)  -->
<!DOCTYPE svg PUBLIC "-//W3C//DTD SVG 1.1//EN" "http://www.w3.org/Graphics/SVG/1.1/DTD/svg11.dtd">
<svg version="1.1" xmlns="http://www.w3.org/2000/svg" xmlns:xlink="http://www.w3.org/1999/xlink" x="0px" y="0px" width="16px"
	 height="16px" viewBox="0 0 16 16" enable-background="new 0 0 16 16" xml:space="preserve">
<g id="Layer_0_xA0_Image_1_">
</g>
<g id="Row_5_1_">
	<g id="speed_meter">
		<g>
			<path fill="#212121" d="M8,4C7.447,4,7,4.447,7,5s0.447,1,1,1s1-0.447,1-1S8.553,4,8,4z M4,7C3.447,7,3,7.447,3,8s0.447,1,1,1
				s1-0.447,1-1S4.553,7,4,7z M8,1C3.582,1,0,4.582,0,9c0,1.894,0.9,3.63,2,5c0.188,0.334,0.666,1,1,1h10c0.271,0,0.813-0.635,1-1
				c1.1-1.37,2-3.106,2-5C16,4.582,12.418,1,8,1z M12.207,13h-0.771c-0.611-1.054-1.688-1.774-2.949-1.934L6.945,5.729
				C6.825,5.312,6.456,5,6,5C5.447,5,5,5.447,5,6c0,0.196,0.038,0.274,0.038,0.274l1.447,5.064C5.682,11.68,4.999,12.249,4.564,13
				H3.794C2.752,11.938,2,10.54,2,9c0-3.313,2.687-6,6-6c3.314,0,6,2.687,6,6C14,10.54,13.249,11.938,12.207,13z M12,7
				c-0.553,0-1,0.447-1,1s0.448,1,1,1s1-0.447,1-1S12.553,7,12,7z"/>
		</g>
	</g>
</g>
<g id="Row_4_1_">
</g>
<g id="Row_3_1_">
</g>
<g id="Row_2_1_">
</g>
<g id="Row_1_1_">
</g>
</svg>
