<?xml version="1.0" encoding="utf-8"?>
<!-- Generator: Adobe Illustrator 16.0.0, SVG Export Plug-In . SVG Version: 6.00 Build 0)  -->
<!DOCTYPE svg PUBLIC "-//W3C//DTD SVG 1.1//EN" "http://www.w3.org/Graphics/SVG/1.1/DTD/svg11.dtd">
<svg version="1.1" xmlns="http://www.w3.org/2000/svg" xmlns:xlink="http://www.w3.org/1999/xlink" x="0px" y="0px" width="16px"
	 height="16px" viewBox="0 0 16 16" enable-background="new 0 0 16 16" xml:space="preserve">
<g id="Layer_0_xA0_Image_1_">
</g>
<g id="Row_5_1_">
	<g id="steering_wheel">
		<g>
			<path fill="#212121" d="M8,0C3.582,0,0,3.582,0,8s3.582,8,8,8s8-3.582,8-8S12.418,0,8,0z M8,2c2.971,0,5.421,2.165,5.899,5
				h-3.083C10.403,5.838,9.305,5,8,5S5.597,5.838,5.184,7H2.101C2.579,4.165,5.029,2,8,2z M7,13.909
				C4.493,13.486,2.524,11.509,2.101,9h3.083C5.485,9.849,6.151,10.515,7,10.816V13.909z M8,9C7.447,9,7,8.553,7,8s0.447-1,1-1
				s1,0.447,1,1S8.553,9,8,9z M9,13.909v-3.093C9.849,10.515,10.515,9.849,10.816,9h3.083C13.476,11.509,11.507,13.486,9,13.909z"/>
		</g>
	</g>
</g>
<g id="Row_4_1_">
</g>
<g id="Row_3_1_">
</g>
<g id="Row_2_1_">
</g>
<g id="Row_1_1_">
</g>
</svg>
