<?xml version="1.0" encoding="utf-8"?>
<!-- Generator: Adobe Illustrator 16.0.0, SVG Export Plug-In . SVG Version: 6.00 Build 0)  -->
<!DOCTYPE svg PUBLIC "-//W3C//DTD SVG 1.1//EN" "http://www.w3.org/Graphics/SVG/1.1/DTD/svg11.dtd">
<svg version="1.1" xmlns="http://www.w3.org/2000/svg" xmlns:xlink="http://www.w3.org/1999/xlink" x="0px" y="0px" width="16px"
	 height="16px" viewBox="0 0 16 16" enable-background="new 0 0 16 16" xml:space="preserve">
<g id="Layer_0_xA0_Image_1_">
</g>
<g id="Row_5_1_">
</g>
<g id="Row_4_1_">
</g>
<g id="Row_3_1_">
	<g id="towards_north">
		<g>
			<path fill="#212121" d="M6,6c0.553,0,1-0.447,1-1V3.414l2.293,2.293C9.474,5.888,9.724,6,10,6c0.553,0,1-0.447,1-1V1
				c0-0.553-0.447-1-1-1S9,0.447,9,1v1.586L6.707,0.293C6.526,0.112,6.276,0,6,0C5.447,0,5,0.447,5,1v4C5,5.553,5.447,6,6,6z
				 M11.918,14.606L11.918,14.606L8.922,7.612C8.921,7.611,8.921,7.61,8.921,7.609L8.919,7.606H8.918C8.766,7.25,8.412,7,8,7
				S7.234,7.25,7.082,7.606H7.081L7.079,7.609c0,0.001,0,0.002-0.001,0.003l-2.997,6.994C4.029,14.728,4,14.86,4,15
				c0,0.553,0.447,1,1,1c0.205,0,0.396-0.063,0.555-0.169v0.001L8,14.202l2.445,1.63v-0.001C10.604,15.938,10.795,16,11,16
				c0.553,0,1-0.447,1-1C12,14.86,11.971,14.728,11.918,14.606z M8.555,12.168L8.54,12.19C8.385,12.079,8.207,12,8,12
				s-0.385,0.079-0.54,0.19l-0.015-0.022l-0.201,0.134L8,10.539l0.756,1.763L8.555,12.168z"/>
		</g>
	</g>
</g>
<g id="Row_2_1_">
</g>
<g id="Row_1_1_">
</g>
</svg>
