<?xml version="1.0" encoding="utf-8"?>
<!-- Generator: Adobe Illustrator 16.0.0, SVG Export Plug-In . SVG Version: 6.00 Build 0)  -->
<!DOCTYPE svg PUBLIC "-//W3C//DTD SVG 1.1//EN" "http://www.w3.org/Graphics/SVG/1.1/DTD/svg11.dtd">
<svg version="1.1" xmlns="http://www.w3.org/2000/svg" xmlns:xlink="http://www.w3.org/1999/xlink" x="0px" y="0px" width="16px"
	 height="16px" viewBox="0 0 16 16" enable-background="new 0 0 16 16" xml:space="preserve">
<g id="Layer_0_xA0_Image_1_">
</g>
<g id="Row_5_1_">
	<g id="traffic_light">
		<g>
			<path fill="#212121" d="M8,8c0.553,0,1-0.447,1-1S8.553,6,8,6S7,6.447,7,7S7.447,8,8,8z M8,5c0.553,0,1-0.447,1-1S8.553,3,8,3
				S7,3.447,7,4S7.447,5,8,5z M11,0H5C4.447,0,4,0.447,4,1v12c0,0.553,0.447,1,1,1h2v1c0,0.553,0.447,1,1,1s1-0.447,1-1v-1h2
				c0.553,0,1-0.447,1-1V1C12,0.447,11.553,0,11,0z M10,12H6V2h4V12z M8,11c0.553,0,1-0.447,1-1S8.553,9,8,9s-1,0.447-1,1
				S7.447,11,8,11z"/>
		</g>
	</g>
</g>
<g id="Row_4_1_">
</g>
<g id="Row_3_1_">
</g>
<g id="Row_2_1_">
</g>
<g id="Row_1_1_">
</g>
</svg>
