<?xml version="1.0" encoding="utf-8"?>
<!-- Generator: Adobe Illustrator 16.0.0, SVG Export Plug-In . SVG Version: 6.00 Build 0)  -->
<!DOCTYPE svg PUBLIC "-//W3C//DTD SVG 1.1//EN" "http://www.w3.org/Graphics/SVG/1.1/DTD/svg11.dtd">
<svg version="1.1" xmlns="http://www.w3.org/2000/svg" xmlns:xlink="http://www.w3.org/1999/xlink" x="0px" y="0px" width="16px"
	 height="16px" viewBox="0 0 16 16" enable-background="new 0 0 16 16" xml:space="preserve">
<g id="Layer_0_xA0_Image_1_">
</g>
<g id="Row_5_1_">
</g>
<g id="Row_4_1_">
</g>
<g id="Row_3_1_">
	<g id="train_on_tracks">
		<g>
			<path fill="#212121" d="M5,7C4.447,7,4,7.447,4,8s0.447,1,1,1s1-0.447,1-1S5.553,7,5,7z M11,7c-0.553,0-1,0.447-1,1s0.447,1,1,1
				s1-0.447,1-1S11.553,7,11,7z M15.708,14.293L13.415,12H14c0.553,0,1-0.447,1-1V7c0-3.866-3.134-7-7-7C4.134,0,1,3.134,1,7v4
				c0,0.553,0.447,1,1,1h0.586l-2.293,2.293C0.112,14.474,0,14.724,0,15c0,0.553,0.447,1,1,1c0.276,0,0.526-0.112,0.707-0.293
				L5.414,12h5.172l3.707,3.707C14.474,15.888,14.724,16,15,16c0.553,0,1-0.447,1-1C16,14.724,15.888,14.474,15.708,14.293z M8,2
				c1.631,0,3.065,0.792,3.978,2H4.022C4.936,2.792,6.369,2,8,2z M13,10H3V7c0-0.343,0.035-0.677,0.101-1H12.9
				C12.965,6.323,13,6.657,13,7V10z"/>
		</g>
	</g>
</g>
<g id="Row_2_1_">
</g>
<g id="Row_1_1_">
</g>
</svg>
