<?xml version="1.0" encoding="utf-8"?>
<!-- Generator: Adobe Illustrator 16.0.0, SVG Export Plug-In . SVG Version: 6.00 Build 0)  -->
<!DOCTYPE svg PUBLIC "-//W3C//DTD SVG 1.1//EN" "http://www.w3.org/Graphics/SVG/1.1/DTD/svg11.dtd">
<svg version="1.1" xmlns="http://www.w3.org/2000/svg" xmlns:xlink="http://www.w3.org/1999/xlink" x="0px" y="0px" width="16px"
	 height="16px" viewBox="0 0 16 16" enable-background="new 0 0 16 16" xml:space="preserve">
<g id="Layer_0_xA0_Image_1_">
</g>
<g id="Row_5_1_">
</g>
<g id="Row_4_1_">
	<g id="truck">
		<g>
			<path fill="#212121" d="M15,8.001v-1C15,6.447,14.553,6,14,6c0,0-2-0.013-2,0V4c0-0.553-0.447-1-1-1H1C0.447,3,0,3.447,0,4v6.001
				c0,0.553,0.447,1,1,1h1c0,1.104,0.896,2,2,2s2-0.896,2-2h4c0,1.104,0.896,2,2,2s2-0.896,2-2h1c0.553,0,1-0.447,1-1v-1
				C16,8.448,15.553,8.001,15,8.001z M10,9.001H2V5h8V9.001z M13,9.001h-1v-1h1V9.001z"/>
		</g>
	</g>
</g>
<g id="Row_3_1_">
</g>
<g id="Row_2_1_">
</g>
<g id="Row_1_1_">
</g>
</svg>
