<?xml version="1.0" encoding="utf-8"?>
<!-- Generator: Adobe Illustrator 16.0.0, SVG Export Plug-In . SVG Version: 6.00 Build 0)  -->
<!DOCTYPE svg PUBLIC "-//W3C//DTD SVG 1.1//EN" "http://www.w3.org/Graphics/SVG/1.1/DTD/svg11.dtd">
<svg version="1.1" xmlns="http://www.w3.org/2000/svg" xmlns:xlink="http://www.w3.org/1999/xlink" x="0px" y="0px" width="16px"
	 height="16px" viewBox="0 0 16 16" enable-background="new 0 0 16 16" xml:space="preserve">
<g id="Layer_0_xA0_Image_1_">
</g>
<g id="Row_5_1_">
</g>
<g id="Row_4_1_">
</g>
<g id="Row_3_1_">
</g>
<g id="Row_2_1_">
	<g id="wheel">
		<g>
			<path fill="#212121" d="M8,0C3.582,0,0,3.582,0,8s3.582,8,8,8s8-3.582,8-8S12.418,0,8,0z M8,14c-3.313,0-6-2.687-6-6s2.687-6,6-6
				s6,2.687,6,6S11.313,14,8,14z M8,4C5.791,4,4,5.791,4,8s1.791,4,4,4s4-1.791,4-4S10.209,4,8,4z M9.745,8.948
				C9.56,9.284,9.288,9.566,8.949,9.75C8.836,9.322,8.464,9,8,9S7.164,9.322,7.051,9.75C6.712,9.566,6.44,9.284,6.255,8.948
				C6.681,8.834,7,8.462,7,8S6.681,7.166,6.255,7.052C6.44,6.716,6.712,6.434,7.051,6.25C7.164,6.678,7.536,7,8,7
				s0.836-0.322,0.949-0.75c0.339,0.184,0.61,0.466,0.796,0.802C9.319,7.166,9,7.538,9,8S9.319,8.834,9.745,8.948z"/>
		</g>
	</g>
</g>
<g id="Row_1_1_">
</g>
</svg>
