<?xml version="1.0" encoding="utf-8"?>
<!-- Generator: Adobe Illustrator 16.0.0, SVG Export Plug-In . SVG Version: 6.00 Build 0)  -->
<!DOCTYPE svg PUBLIC "-//W3C//DTD SVG 1.1//EN" "http://www.w3.org/Graphics/SVG/1.1/DTD/svg11.dtd">
<svg version="1.1" xmlns="http://www.w3.org/2000/svg" xmlns:xlink="http://www.w3.org/1999/xlink" x="0px" y="0px" width="16px"
	 height="16.001px" viewBox="0 0 16 16.001" enable-background="new 0 0 16 16.001" xml:space="preserve">
<g id="Layer_0_xA0_Image_1_">
</g>
<g id="Row_5_1_">
</g>
<g id="Row_4_1_">
	<g id="windshield">
		<g>
			<path fill="#212121" d="M16,8.001c0-0.493-0.231-0.673-0.231-0.673C14.14,5.468,11.642,4.292,9,4.051V3c0-0.553,0.447-1,1-1
				s1,0.447,1,1s0.447,1,1,1s1-0.447,1-1c0-1.657-1.343-3-3-3C9.229,0,8.531,0.3,8,0.778C7.469,0.3,6.771,0,6,0C4.343,0,3,1.343,3,3
				c0,0.553,0.447,1,1,1s1-0.447,1-1s0.447-1,1-1s1,0.447,1,1v1.052C4.396,4.295,1.934,5.47,0.304,7.286C0.516,7.08,0,7.45,0,8.001
				c0,0.236,0.094,0.444,0.23,0.615l-0.012,0.01l4,5l0.012-0.01c0.184,0.229,0.453,0.385,0.77,0.385c0.553,0,0.781-0.229,1-0.688
				c0.022-0.047,0.061-0.116,0.105-0.193l0.973,2.269c0.001,0.001,0.001,0.002,0.001,0.003l0.002,0.003h0.001
				C7.234,15.751,7.588,16.001,8,16.001c0.553,0,1-0.447,1-1c0-0.14-0.029-0.272-0.082-0.394h0.001L7.811,12.02
				C7.874,12.015,7.932,12.001,8,12.001c1.417,0,1.84,1.068,2,1.313c0.219,0.334,0.447,0.688,1,0.688
				c0.316,0,0.586-0.156,0.769-0.385l0.013,0.01l4-5l-0.012-0.01C15.906,8.445,16,8.237,16,8.001z M11.111,11.261
				c-0.776-0.737-1.953-1.26-3.111-1.26c-0.339,0-0.673,0.053-0.999,0.131L5.922,7.613C5.921,7.612,5.921,7.611,5.921,7.61
				L5.919,7.607H5.918C5.766,7.251,5.412,7.001,5,7.001c-0.553,0-1,0.447-1,1c0,0.14,0.029,0.272,0.081,0.394l1.121,2.616
				c-0.105,0.083-0.222,0.158-0.315,0.248l-2.55-3.188C3.575,6.974,5.254,6.291,7,6.09v1.911c0,0.553,0.447,1,1,1s1-0.447,1-1V6.088
				c1.752,0.197,3.434,0.87,4.673,1.972L11.111,11.261z"/>
		</g>
	</g>
</g>
<g id="Row_3_1_">
</g>
<g id="Row_2_1_">
</g>
<g id="Row_1_1_">
</g>
</svg>
