<?xml version="1.0" encoding="utf-8"?>
<!-- Generator: Adobe Illustrator 16.0.0, SVG Export Plug-In . SVG Version: 6.00 Build 0)  -->
<!DOCTYPE svg PUBLIC "-//W3C//DTD SVG 1.1//EN" "http://www.w3.org/Graphics/SVG/1.1/DTD/svg11.dtd">
<svg version="1.1" xmlns="http://www.w3.org/2000/svg" xmlns:xlink="http://www.w3.org/1999/xlink" x="0px" y="0px" width="16px"
	 height="16px" viewBox="0 0 16 16" enable-background="new 0 0 16 16" xml:space="preserve">
<g id="Layer_0_xA0_Image_1_">
</g>
<g id="Row_5_1_">
</g>
<g id="Row_4_1_">
</g>
<g id="Row_3_1_">
</g>
<g id="Row_2_1_">
	<g id="american_electrical_socket">
		<g>
			<path fill="#212121" d="M8,10c-0.553,0-1,0.447-1,1h2C9,10.447,8.553,10,8,10z M5,6C4.447,6,4,6.447,4,7v1c0,0.553,0.447,1,1,1
				s1-0.447,1-1V7C6,6.447,5.553,6,5,6z M11,6c-0.553,0-1,0.447-1,1v1c0,0.553,0.447,1,1,1s1-0.447,1-1V7C12,6.447,11.553,6,11,6z
				 M10,2H6C2.687,2,0,4.687,0,8s2.687,6,6,6h4c3.313,0,6-2.687,6-6S13.313,2,10,2z M10,12H6c-2.209,0-4-1.791-4-4s1.791-4,4-4h4
				c2.209,0,4,1.791,4,4S12.209,12,10,12z"/>
		</g>
	</g>
</g>
<g id="Row_1_1_">
</g>
</svg>
