<?xml version="1.0" encoding="utf-8"?>
<!-- Generator: Adobe Illustrator 16.0.0, SVG Export Plug-In . SVG Version: 6.00 Build 0)  -->
<!DOCTYPE svg PUBLIC "-//W3C//DTD SVG 1.1//EN" "http://www.w3.org/Graphics/SVG/1.1/DTD/svg11.dtd">
<svg version="1.1" xmlns="http://www.w3.org/2000/svg" xmlns:xlink="http://www.w3.org/1999/xlink" x="0px" y="0px" width="16px"
	 height="16px" viewBox="0 0 16 16" enable-background="new 0 0 16 16" xml:space="preserve">
<g id="Layer_0_xA0_Image_1_">
</g>
<g id="Row_5_1_">
</g>
<g id="Row_4_1_">
</g>
<g id="Row_3_1_">
</g>
<g id="Row_2_1_">
	<g id="battery">
		<g>
			<path fill="#212121" d="M15,3h-1V2c0-0.553-0.447-1-1-1h-2c-0.553,0-1,0.447-1,1v1H6V2c0-0.553-0.447-1-1-1H3
				C2.447,1,2,1.447,2,2v1H1C0.447,3,0,3.447,0,4v10c0,0.553,0.447,1,1,1h14c0.553,0,1-0.447,1-1V4C16,3.447,15.553,3,15,3z M14,13
				H2V5h12V13z M10,10c0,0.553,0.447,1,1,1s1-0.447,1-1c0.553,0,1-0.447,1-1s-0.447-1-1-1c0-0.553-0.447-1-1-1s-1,0.447-1,1
				C9.447,8,9,8.447,9,9S9.447,10,10,10z M4,10h2c0.553,0,1-0.447,1-1S6.553,8,6,8H4C3.447,8,3,8.447,3,9S3.447,10,4,10z"/>
		</g>
	</g>
</g>
<g id="Row_1_1_">
</g>
</svg>
