<?xml version="1.0" encoding="utf-8"?>
<!-- Generator: Adobe Illustrator 16.0.0, SVG Export Plug-In . SVG Version: 6.00 Build 0)  -->
<!DOCTYPE svg PUBLIC "-//W3C//DTD SVG 1.1//EN" "http://www.w3.org/Graphics/SVG/1.1/DTD/svg11.dtd">
<svg version="1.1" xmlns="http://www.w3.org/2000/svg" xmlns:xlink="http://www.w3.org/1999/xlink" x="0px" y="0px" width="16px"
	 height="16px" viewBox="0 0 16 16" enable-background="new 0 0 16 16" xml:space="preserve">
<g id="Layer_0_xA0_Image_1_">
</g>
<g id="Row_5_1_">
</g>
<g id="Row_4_1_">
</g>
<g id="Row_3_1_">
</g>
<g id="Row_2_1_">
	<g id="board_links">
		<g>
			<path fill="#212121" d="M13,2c-1.657,0-3,1.343-3,3c0,1.305,0.838,2.403,2,2.816V8H8.723C8.376,7.404,7.738,7,7,7H4V5.816
				C5.162,5.403,6,4.305,6,3c0-1.657-1.343-3-3-3S0,1.343,0,3c0,1.305,0.838,2.403,2,2.816V7c0,1.104,0.896,2,2,2h3v1.184
				C5.838,10.597,5,11.695,5,13c0,1.657,1.343,3,3,3s3-1.343,3-3c0-1.305-0.838-2.403-2-2.816V10h3c1.104,0,2-0.896,2-2V7.816
				C15.162,7.403,16,6.305,16,5C16,3.343,14.657,2,13,2z M3,4C2.447,4,2,3.553,2,3s0.447-1,1-1s1,0.447,1,1S3.553,4,3,4z M8,14
				c-0.553,0-1-0.447-1-1s0.447-1,1-1s1,0.447,1,1S8.553,14,8,14z M13,6c-0.553,0-1-0.447-1-1s0.447-1,1-1s1,0.447,1,1
				S13.553,6,13,6z"/>
		</g>
	</g>
</g>
<g id="Row_1_1_">
</g>
</svg>
