<?xml version="1.0" encoding="utf-8"?>
<!-- Generator: Adobe Illustrator 16.0.0, SVG Export Plug-In . SVG Version: 6.00 Build 0)  -->
<!DOCTYPE svg PUBLIC "-//W3C//DTD SVG 1.1//EN" "http://www.w3.org/Graphics/SVG/1.1/DTD/svg11.dtd">
<svg version="1.1" xmlns="http://www.w3.org/2000/svg" xmlns:xlink="http://www.w3.org/1999/xlink" x="0px" y="0px" width="16px"
	 height="16px" viewBox="0 0 16 16" enable-background="new 0 0 16 16" xml:space="preserve">
<g id="Layer_0_xA0_Image_1_">
</g>
<g id="Row_5_1_">
</g>
<g id="Row_4_1_">
</g>
<g id="Row_3_1_">
</g>
<g id="Row_2_1_">
	<g id="breadboard">
		<g>
			<path fill="#212121" d="M11.5,4C11.776,4,12,3.776,12,3.5S11.776,3,11.5,3S11,3.224,11,3.5S11.224,4,11.5,4z M8.5,4
				C8.776,4,9,3.776,9,3.5S8.776,3,8.5,3S8,3.224,8,3.5S8.224,4,8.5,4z M8.5,7C8.776,7,9,6.776,9,6.5S8.776,6,8.5,6S8,6.224,8,6.5
				S8.224,7,8.5,7z M8.5,10C8.776,10,9,9.776,9,9.5S8.776,9,8.5,9S8,9.224,8,9.5S8.224,10,8.5,10z M11.5,7C11.776,7,12,6.776,12,6.5
				S11.776,6,11.5,6S11,6.224,11,6.5S11.224,7,11.5,7z M11.5,10c0.276,0,0.5-0.224,0.5-0.5S11.776,9,11.5,9S11,9.224,11,9.5
				S11.224,10,11.5,10z M11.5,13c0.276,0,0.5-0.224,0.5-0.5S11.776,12,11.5,12S11,12.224,11,12.5S11.224,13,11.5,13z M5.5,13
				C5.776,13,6,12.776,6,12.5S5.776,12,5.5,12S5,12.224,5,12.5S5.224,13,5.5,13z M5.5,10C5.776,10,6,9.776,6,9.5S5.776,9,5.5,9
				S5,9.224,5,9.5S5.224,10,5.5,10z M14,0H3C2.447,0,2,0.447,2,1v14c0,0.553,0.447,1,1,1h11c0.553,0,1-0.447,1-1V1
				C15,0.447,14.553,0,14,0z M13,14H4V2h9V14z M5.5,7C5.776,7,6,6.776,6,6.5S5.776,6,5.5,6S5,6.224,5,6.5S5.224,7,5.5,7z M8.5,13
				C8.776,13,9,12.776,9,12.5S8.776,12,8.5,12S8,12.224,8,12.5S8.224,13,8.5,13z M5.5,4C5.776,4,6,3.776,6,3.5S5.776,3,5.5,3
				S5,3.224,5,3.5S5.224,4,5.5,4z"/>
		</g>
	</g>
</g>
<g id="Row_1_1_">
</g>
</svg>
