<?xml version="1.0" encoding="utf-8"?>
<!-- Generator: Adobe Illustrator 16.0.0, SVG Export Plug-In . SVG Version: 6.00 Build 0)  -->
<!DOCTYPE svg PUBLIC "-//W3C//DTD SVG 1.1//EN" "http://www.w3.org/Graphics/SVG/1.1/DTD/svg11.dtd">
<svg version="1.1" xmlns="http://www.w3.org/2000/svg" xmlns:xlink="http://www.w3.org/1999/xlink" x="0px" y="0px" width="16px"
	 height="16px" viewBox="0 0 16 16" enable-background="new 0 0 16 16" xml:space="preserve">
<g id="Layer_0_xA0_Image_1_">
</g>
<g id="Row_5_1_">
</g>
<g id="Row_4_1_">
</g>
<g id="Row_3_1_">
</g>
<g id="Row_2_1_">
	<g id="cellphone_chip">
		<g>
			<path fill="#212121" d="M11,0H5C3.343,0,2,1.343,2,3v10c0,1.657,1.343,3,3,3h6c1.657,0,3-1.343,3-3V3C14,1.343,12.657,0,11,0z
				 M7,2h1v3H7V2z M4,3c0-0.553,0.447-1,1-1v3H4V3z M5,14c-0.553,0-1-0.447-1-1v-2h1V14z M8,14H7v-3h1V14z M12,13
				c0,0.553-0.447,1-1,1h-1v-3h2V13z M12,9H4V7h5c0.553,0,1-0.447,1-1V2h1c0.553,0,1,0.447,1,1V9z"/>
		</g>
	</g>
</g>
<g id="Row_1_1_">
</g>
</svg>
