<?xml version="1.0" encoding="utf-8"?>
<!-- Generator: Adobe Illustrator 16.0.0, SVG Export Plug-In . SVG Version: 6.00 Build 0)  -->
<!DOCTYPE svg PUBLIC "-//W3C//DTD SVG 1.1//EN" "http://www.w3.org/Graphics/SVG/1.1/DTD/svg11.dtd">
<svg version="1.1" xmlns="http://www.w3.org/2000/svg" xmlns:xlink="http://www.w3.org/1999/xlink" x="0px" y="0px" width="16px"
	 height="16px" viewBox="0 0 16 16" enable-background="new 0 0 16 16" xml:space="preserve">
<g id="Layer_0_xA0_Image_1_">
</g>
<g id="Row_5_1_">
	<g id="diode">
		<g>
			<path fill="#212121" d="M15,7h-2V3c0-0.553-0.447-1-1-1h-1c-0.553,0-1,0.447-1,1v3.057l-5.419-3.87L4.57,2.201
				C4.407,2.084,4.217,2,4,2C3.447,2,3,2.447,3,3v4H1C0.447,7,0,7.447,0,8s0.447,1,1,1h2v4c0,0.553,0.447,1,1,1
				c0.217,0,0.407-0.084,0.57-0.201l0.011,0.015L10,9.943V13c0,0.553,0.447,1,1,1h1c0.553,0,1-0.447,1-1V9h2c0.553,0,1-0.447,1-1
				S15.553,7,15,7z M5,11.057V4.943L9.279,8L5,11.057z"/>
		</g>
	</g>
</g>
<g id="Row_4_1_">
</g>
<g id="Row_3_1_">
</g>
<g id="Row_2_1_">
</g>
<g id="Row_1_1_">
</g>
</svg>
