<?xml version="1.0" encoding="utf-8"?>
<!-- Generator: Adobe Illustrator 16.0.0, SVG Export Plug-In . SVG Version: 6.00 Build 0)  -->
<!DOCTYPE svg PUBLIC "-//W3C//DTD SVG 1.1//EN" "http://www.w3.org/Graphics/SVG/1.1/DTD/svg11.dtd">
<svg version="1.1" xmlns="http://www.w3.org/2000/svg" xmlns:xlink="http://www.w3.org/1999/xlink" x="0px" y="0px" width="16px"
	 height="16px" viewBox="0 0 16 16" enable-background="new 0 0 16 16" xml:space="preserve">
<g id="Layer_0_xA0_Image_1_">
</g>
<g id="Row_5_1_">
</g>
<g id="Row_4_1_">
</g>
<g id="Row_3_1_">
	<g id="diode_gunn">
		<g>
			<path fill="#212121" d="M15,7h-2V5c0-0.553-0.447-1-1-1c-0.445,0-0.6,0.2-0.6,0.2L8,6.75L4.6,4.2C4.6,4.2,4.445,4,4,4
				C3.447,4,3,4.447,3,5v2H1C0.447,7,0,7.447,0,8s0.447,1,1,1h2v2c0,0.553,0.447,1,1,1c0.226,0,0.423-0.088,0.59-0.214L8,9.25
				l3.41,2.536C11.577,11.912,11.774,12,12,12c0.553,0,1-0.447,1-1V9h2c0.553,0,1-0.447,1-1S15.553,7,15,7z M5,9V7l1.333,1L5,9z
				 M11,9L9.667,8L11,7V9z"/>
		</g>
	</g>
</g>
<g id="Row_2_1_">
</g>
<g id="Row_1_1_">
</g>
</svg>
