<?xml version="1.0" encoding="utf-8"?>
<!-- Generator: Adobe Illustrator 16.0.0, SVG Export Plug-In . SVG Version: 6.00 Build 0)  -->
<!DOCTYPE svg PUBLIC "-//W3C//DTD SVG 1.1//EN" "http://www.w3.org/Graphics/SVG/1.1/DTD/svg11.dtd">
<svg version="1.1" xmlns="http://www.w3.org/2000/svg" xmlns:xlink="http://www.w3.org/1999/xlink" x="0px" y="0px" width="16px"
	 height="16px" viewBox="0 0 16 16" enable-background="new 0 0 16 16" xml:space="preserve">
<g id="Layer_0_xA0_Image_1_">
</g>
<g id="Row_5_1_">
</g>
<g id="Row_4_1_">
</g>
<g id="Row_3_1_">
</g>
<g id="Row_2_1_">
	<g id="electricity">
		<g>
			<path fill="#212121" d="M14,6c0-0.553-0.447-1-1-1h-2.233l2.091-3.485l-0.015-0.009C12.934,1.355,13,1.188,13,1
				c0-0.553-0.447-1-1-1H6C5.588,0,5.234,0.25,5.082,0.606H5.081L5.08,0.609C5.079,0.61,5.078,0.612,5.078,0.613L2.081,8.606
				C2.029,8.728,2,8.86,2,9c0,0.553,0.447,1,1,1h3v5c0,0.553,0.447,1,1,1c0.347,0,0.638-0.188,0.816-0.455l0.016,0.01l6-9
				l-0.016-0.01C13.923,6.386,14,6.205,14,6z M8,11.697V9c0-0.553-0.447-1-1-1H4.441l2.25-6h3.542L8.143,5.485l0.015,0.009
				C8.066,5.645,8,5.812,8,6c0,0.553,0.447,1,1,1h2.132L8,11.697z"/>
		</g>
	</g>
</g>
<g id="Row_1_1_">
</g>
</svg>
