<?xml version="1.0" encoding="utf-8"?>
<!-- Generator: Adobe Illustrator 16.0.0, SVG Export Plug-In . SVG Version: 6.00 Build 0)  -->
<!DOCTYPE svg PUBLIC "-//W3C//DTD SVG 1.1//EN" "http://www.w3.org/Graphics/SVG/1.1/DTD/svg11.dtd">
<svg version="1.1" xmlns="http://www.w3.org/2000/svg" xmlns:xlink="http://www.w3.org/1999/xlink" x="0px" y="0px" width="16px"
	 height="16px" viewBox="0 0 16 16" enable-background="new 0 0 16 16" xml:space="preserve">
<g id="Layer_0_xA0_Image_1_">
</g>
<g id="Row_5_1_">
</g>
<g id="Row_4_1_">
	<g id="electrical_plug">
		<g>
			<path fill="#212121" d="M8,14v-1.101c2.835-0.479,5-2.929,5-5.899V5c0-0.553-0.447-1-1-1h-1V1c0-0.553-0.447-1-1-1S9,0.447,9,1v3
				H5V1c0-0.553-0.447-1-1-1S3,0.447,3,1v3H2C1.447,4,1,4.447,1,5v2c0,2.971,2.165,5.421,5,5.899V14c0,1.104,0.896,2,2,2h7v-2H8z
				 M7,11c-2.209,0-4-1.791-4-4V6h8v1C11,9.209,9.209,11,7,11z"/>
		</g>
	</g>
</g>
<g id="Row_3_1_">
</g>
<g id="Row_2_1_">
</g>
<g id="Row_1_1_">
</g>
</svg>
