<?xml version="1.0" encoding="utf-8"?>
<!-- Generator: Adobe Illustrator 16.0.0, SVG Export Plug-In . SVG Version: 6.00 Build 0)  -->
<!DOCTYPE svg PUBLIC "-//W3C//DTD SVG 1.1//EN" "http://www.w3.org/Graphics/SVG/1.1/DTD/svg11.dtd">
<svg version="1.1" xmlns="http://www.w3.org/2000/svg" xmlns:xlink="http://www.w3.org/1999/xlink" x="0px" y="0px" width="16px"
	 height="16px" viewBox="0 0 16 16" enable-background="new 0 0 16 16" xml:space="preserve">
<g id="Layer_0_xA0_Image_1_">
</g>
<g id="Row_5_1_">
</g>
<g id="Row_4_1_">
</g>
<g id="Row_3_1_">
</g>
<g id="Row_2_1_">
</g>
<g id="Row_1_1_">
	<g id="hard_disk">
		<g>
			<path fill="#212121" d="M15,11c-0.553,0-1,0.447-1,1c0,1.104-2.687,2-6,2s-6-0.896-6-2c0-0.553-0.447-1-1-1s-1,0.447-1,1
				c0,2.209,3.582,4,8,4s8-1.791,8-4C16,11.447,15.553,11,15,11z M15,7c-0.553,0-1,0.447-1,1c0,1.104-2.687,2-6,2S2,9.104,2,8
				c0-0.553-0.447-1-1-1S0,7.447,0,8c0,2.209,3.582,4,8,4s8-1.791,8-4C16,7.447,15.553,7,15,7z M8,8c4.418,0,8-1.791,8-4
				s-3.582-4-8-4S0,1.791,0,4S3.582,8,8,8z M8,2c3.313,0,6,0.896,6,2s-2.687,2-6,2S2,5.104,2,4S4.687,2,8,2z"/>
		</g>
	</g>
</g>
</svg>
