<?xml version="1.0" encoding="utf-8"?>
<!-- Generator: Adobe Illustrator 16.0.0, SVG Export Plug-In . SVG Version: 6.00 Build 0)  -->
<!DOCTYPE svg PUBLIC "-//W3C//DTD SVG 1.1//EN" "http://www.w3.org/Graphics/SVG/1.1/DTD/svg11.dtd">
<svg version="1.1" xmlns="http://www.w3.org/2000/svg" xmlns:xlink="http://www.w3.org/1999/xlink" x="0px" y="0px" width="16px"
	 height="16px" viewBox="0 0 16 16" enable-background="new 0 0 16 16" xml:space="preserve">
<g id="Layer_0_xA0_Image_1_">
</g>
<g id="Row_5_1_">
</g>
<g id="Row_4_1_">
</g>
<g id="Row_3_1_">
</g>
<g id="Row_2_1_">
</g>
<g id="Row_1_1_">
	<g id="incandescent_lamp">
		<g>
			<path fill="#212121" d="M9,7c0-0.553-0.447-1-1-1S7,6.447,7,7c0,0.203,0.075,0.569,0.18,0.727L8,10l0.82-2.273
				C8.925,7.569,9,7.203,9,7z M12,9V4c0-1.657-1.343-3-3-3c0-0.553-0.447-1-1-1S7,0.447,7,1C5.343,1,4,2.343,4,4v5
				c0,0.553,0.447,1,1,1s1-0.447,1-1V4c0-0.553,0.447-1,1-1c0.366,0,0.705-0.105,1-0.277C8.295,2.895,8.634,3,9,3
				c0.553,0,1,0.447,1,1v5c0,0.553,0.447,1,1,1S12,9.553,12,9z M5,10c-0.553,0-1,0.447-1,1v4c0,0.553,0.447,1,1,1h6
				c0.553,0,1-0.447,1-1v-4c0-0.553-0.447-1-1-1H8H5z M10,14H6v-2h4V14z"/>
		</g>
	</g>
</g>
</svg>
