<?xml version="1.0" encoding="utf-8"?>
<!-- Generator: Adobe Illustrator 16.0.0, SVG Export Plug-In . SVG Version: 6.00 Build 0)  -->
<!DOCTYPE svg PUBLIC "-//W3C//DTD SVG 1.1//EN" "http://www.w3.org/Graphics/SVG/1.1/DTD/svg11.dtd">
<svg version="1.1" xmlns="http://www.w3.org/2000/svg" xmlns:xlink="http://www.w3.org/1999/xlink" x="0px" y="0px" width="16px"
	 height="16px" viewBox="0 0 16 16" enable-background="new 0 0 16 16" xml:space="preserve">
<g id="Layer_0_xA0_Image_1_">
</g>
<g id="Row_5_1_">
</g>
<g id="Row_4_1_">
</g>
<g id="Row_3_1_">
	<g id="inverter">
		<g>
			<path fill="#212121" d="M15,7h-2.703l-6.59-4.707C5.526,2.112,5.276,2,5,2C4.447,2,4,2.447,4,3v4H1C0.447,7,0,7.447,0,8
				s0.447,1,1,1h3v4c0,0.553,0.447,1,1,1c0.276,0,0.526-0.112,0.707-0.293L12.297,9H15c0.553,0,1-0.447,1-1S15.553,7,15,7z
				 M6,11.073V4.927L10.303,8L6,11.073z"/>
		</g>
	</g>
</g>
<g id="Row_2_1_">
</g>
<g id="Row_1_1_">
</g>
</svg>
