<?xml version="1.0" encoding="utf-8"?>
<!-- Generator: Adobe Illustrator 16.0.0, SVG Export Plug-In . SVG Version: 6.00 Build 0)  -->
<!DOCTYPE svg PUBLIC "-//W3C//DTD SVG 1.1//EN" "http://www.w3.org/Graphics/SVG/1.1/DTD/svg11.dtd">
<svg version="1.1" xmlns="http://www.w3.org/2000/svg" xmlns:xlink="http://www.w3.org/1999/xlink" x="0px" y="0px" width="16px"
	 height="16px" viewBox="0 0 16 16" enable-background="new 0 0 16 16" xml:space="preserve">
<g id="Layer_0_xA0_Image_1_">
</g>
<g id="Row_5_1_">
</g>
<g id="Row_4_1_">
	<g id="ipad">
		<g>
			<path fill="#212121" d="M12,3H4v9h4h4V3z M11,11H5V4h6V11z M9,13c0-0.553-0.447-1-1-1s-1,0.447-1,1s0.447,1,1,1S9,13.553,9,13z
				 M14,0H2C1.447,0,1,0.447,1,1v14c0,0.553,0.447,1,1,1h12c0.553,0,1-0.447,1-1V1C15,0.447,14.553,0,14,0z M13,14H8H3V2h10V14z"/>
		</g>
	</g>
</g>
<g id="Row_3_1_">
</g>
<g id="Row_2_1_">
</g>
<g id="Row_1_1_">
</g>
</svg>
