<?xml version="1.0" encoding="utf-8"?>
<!-- Generator: Adobe Illustrator 16.0.0, SVG Export Plug-In . SVG Version: 6.00 Build 0)  -->
<!DOCTYPE svg PUBLIC "-//W3C//DTD SVG 1.1//EN" "http://www.w3.org/Graphics/SVG/1.1/DTD/svg11.dtd">
<svg version="1.1" xmlns="http://www.w3.org/2000/svg" xmlns:xlink="http://www.w3.org/1999/xlink" x="0px" y="0px" width="16px"
	 height="16px" viewBox="0 0 16 16" enable-background="new 0 0 16 16" xml:space="preserve">
<g id="Layer_0_xA0_Image_1_">
</g>
<g id="Row_5_1_">
</g>
<g id="Row_4_1_">
</g>
<g id="Row_3_1_">
	<g id="laptop">
		<g>
			<path fill="#212121" d="M15.886,12.558l0.009-0.005L14,8.764V3c0-0.553-0.447-1-1-1H3C2.447,2,2,2.447,2,3v5.764l-1.895,3.789
				l0.009,0.005C0.047,12.692,0,12.839,0,13c0,0.553,0.447,1,1,1h14c0.553,0,1-0.447,1-1C16,12.839,15.953,12.692,15.886,12.558z
				 M4,4h8v4H4V4z M2.618,12l1-2h8.764l1,2H2.618z"/>
		</g>
	</g>
</g>
<g id="Row_2_1_">
</g>
<g id="Row_1_1_">
</g>
</svg>
