<?xml version="1.0" encoding="utf-8"?>
<!-- Generator: Adobe Illustrator 16.0.0, SVG Export Plug-In . SVG Version: 6.00 Build 0)  -->
<!DOCTYPE svg PUBLIC "-//W3C//DTD SVG 1.1//EN" "http://www.w3.org/Graphics/SVG/1.1/DTD/svg11.dtd">
<svg version="1.1" xmlns="http://www.w3.org/2000/svg" xmlns:xlink="http://www.w3.org/1999/xlink" x="0px" y="0px" width="16px"
	 height="16px" viewBox="0 0 16 16" enable-background="new 0 0 16 16" xml:space="preserve">
<g id="Layer_0_xA0_Image_1_">
</g>
<g id="Row_5_1_">
	<g id="line_break">
		<g>
			<path fill="#212121" d="M16,4c0-1.236-1-2.671-1-3c0-0.553-0.447-1-1-1s-1,0.447-1,1c0,0.161,0.047,0.308,0.114,0.442
				C13.398,2.295,14,3.026,14,4c0,1.401-0.467,2.346-0.93,3H1C0.447,7,0,7.447,0,8s0.447,1,1,1h10.628C11.301,9.651,11,10.59,11,12
				c0,1.223,1,2.636,1,3c0,0.553,0.447,1,1,1s1-0.447,1-1c0-0.223-0.07-0.374-0.121-0.451c-0.079-0.079-0.05-0.077-0.001-0.002
				C13.593,13.715,13,12.966,13,12c0-2.581,2.081-4.394,1.758-4C15.156,7.515,16,6.395,16,4z"/>
		</g>
	</g>
</g>
<g id="Row_4_1_">
</g>
<g id="Row_3_1_">
</g>
<g id="Row_2_1_">
</g>
<g id="Row_1_1_">
</g>
</svg>
