<?xml version="1.0" encoding="utf-8"?>
<!-- Generator: Adobe Illustrator 16.0.0, SVG Export Plug-In . SVG Version: 6.00 Build 0)  -->
<!DOCTYPE svg PUBLIC "-//W3C//DTD SVG 1.1//EN" "http://www.w3.org/Graphics/SVG/1.1/DTD/svg11.dtd">
<svg version="1.1" xmlns="http://www.w3.org/2000/svg" xmlns:xlink="http://www.w3.org/1999/xlink" x="0px" y="0px" width="16px"
	 height="16px" viewBox="0 0 16 16" enable-background="new 0 0 16 16" xml:space="preserve">
<g id="Layer_0_xA0_Image_1_">
</g>
<g id="Row_5_1_">
</g>
<g id="Row_4_1_">
	<g id="mouse">
		<g>
			<path fill="#212121" d="M10,8C9.447,8,9,8.447,9,9v1c0,0.553,0.447,1,1,1s1-0.447,1-1V9C11,8.447,10.553,8,10,8z M11,5.142V4
				c0-1.104-0.896-2-2-2H4V0H2v2c0,1.104,0.896,2,2,2h5v1.142C7.277,5.588,6,7.139,6,9v3c0,2.209,1.791,4,4,4s4-1.791,4-4V9
				C14,7.139,12.723,5.588,11,5.142z M12,12c0,1.104-0.896,2-2,2s-2-0.896-2-2V9c0-1.104,0.896-2,2-2s2,0.896,2,2V12z"/>
		</g>
	</g>
</g>
<g id="Row_3_1_">
</g>
<g id="Row_2_1_">
</g>
<g id="Row_1_1_">
</g>
</svg>
