<?xml version="1.0" encoding="utf-8"?>
<!-- Generator: Adobe Illustrator 16.0.0, SVG Export Plug-In . SVG Version: 6.00 Build 0)  -->
<!DOCTYPE svg PUBLIC "-//W3C//DTD SVG 1.1//EN" "http://www.w3.org/Graphics/SVG/1.1/DTD/svg11.dtd">
<svg version="1.1" xmlns="http://www.w3.org/2000/svg" xmlns:xlink="http://www.w3.org/1999/xlink" x="0px" y="0px" width="16px"
	 height="16px" viewBox="0 0 16 16" enable-background="new 0 0 16 16" xml:space="preserve">
<g id="Layer_0_xA0_Image_1_">
</g>
<g id="Row_5_1_">
</g>
<g id="Row_4_1_">
</g>
<g id="Row_3_1_">
	<g id="potentiometer">
		<g>
			<path fill="#212121" d="M9.707,8.293C9.526,8.112,9.276,8,9,8S8.474,8.112,8.293,8.293l-2,2C6.112,10.474,6,10.724,6,11
				c0,0.553,0.447,1,1,1c0.276,0,0.526-0.112,0.707-0.293L8,11.414V13c0,0.553,0.447,1,1,1s1-0.447,1-1v-1.586l0.293,0.293
				C10.474,11.888,10.724,12,11,12c0.553,0,1-0.447,1-1c0-0.276-0.112-0.526-0.293-0.707L9.707,8.293z M15,4h-2
				c-0.276,0-0.526,0.112-0.707,0.293l-1.019,1.019l-1.38-2.759L9.886,2.558C9.721,2.23,9.391,2,9,2S8.279,2.23,8.114,2.558
				L8.105,2.553L7,4.764L5.895,2.553L5.886,2.558C5.721,2.23,5.391,2,5,2C4.724,2,4.474,2.112,4.293,2.293L2.586,4H1
				C0.447,4,0,4.447,0,5s0.447,1,1,1h2c0.276,0,0.526-0.112,0.707-0.293l1.019-1.019l1.38,2.759l0.009-0.005C6.279,7.77,6.609,8,7,8
				s0.721-0.23,0.886-0.558l0.009,0.005L9,5.236l1.105,2.211l0.009-0.005C10.279,7.77,10.609,8,11,8
				c0.276,0,0.526-0.112,0.707-0.293L13.414,6H15c0.553,0,1-0.447,1-1S15.553,4,15,4z"/>
		</g>
	</g>
</g>
<g id="Row_2_1_">
</g>
<g id="Row_1_1_">
</g>
</svg>
