<?xml version="1.0" encoding="utf-8"?>
<!-- Generator: Adobe Illustrator 16.0.0, SVG Export Plug-In . SVG Version: 6.00 Build 0)  -->
<!DOCTYPE svg PUBLIC "-//W3C//DTD SVG 1.1//EN" "http://www.w3.org/Graphics/SVG/1.1/DTD/svg11.dtd">
<svg version="1.1" xmlns="http://www.w3.org/2000/svg" xmlns:xlink="http://www.w3.org/1999/xlink" x="0px" y="0px" width="16px"
	 height="16px" viewBox="0 0 16 16" enable-background="new 0 0 16 16" xml:space="preserve">
<g id="Layer_0_xA0_Image_1_">
</g>
<g id="Row_5_1_">
</g>
<g id="Row_4_1_">
	<g id="printer">
		<g>
			<path fill="#212121" d="M15,4h-2V1c0-0.553-0.447-1-1-1H4C3.447,0,3,0.447,3,1v3H1C0.447,4,0,4.447,0,5v6c0,0.553,0.447,1,1,1h3
				v3c0,0.553,0.447,1,1,1h6c0.553,0,1-0.447,1-1v-3h3c0.553,0,1-0.447,1-1V5C16,4.447,15.553,4,15,4z M5,2h6v4H5V2z M10,14H6v-2h4
				V14z M14,10H2V6h1v1c0,0.553,0.447,1,1,1h8c0.553,0,1-0.447,1-1V6h1V10z"/>
		</g>
	</g>
</g>
<g id="Row_3_1_">
</g>
<g id="Row_2_1_">
</g>
<g id="Row_1_1_">
</g>
</svg>
