<?xml version="1.0" encoding="utf-8"?>
<!-- Generator: Adobe Illustrator 16.0.0, SVG Export Plug-In . SVG Version: 6.00 Build 0)  -->
<!DOCTYPE svg PUBLIC "-//W3C//DTD SVG 1.1//EN" "http://www.w3.org/Graphics/SVG/1.1/DTD/svg11.dtd">
<svg version="1.1" xmlns="http://www.w3.org/2000/svg" xmlns:xlink="http://www.w3.org/1999/xlink" x="0px" y="0px" width="16px"
	 height="16px" viewBox="0 0 16 16" enable-background="new 0 0 16 16" xml:space="preserve">
<g id="Layer_0_xA0_Image_1_">
</g>
<g id="Row_5_1_">
</g>
<g id="Row_4_1_">
</g>
<g id="Row_3_1_">
</g>
<g id="Row_2_1_">
	<g id="robot">
		<g>
			<path fill="#212121" d="M5,10c-0.553,0-1,0.447-1,1s0.447,1,1,1s1-0.447,1-1S5.553,10,5,10z M11,6H9V3.723
				C9.596,3.376,10,2.738,10,2c0-1.104-0.896-2-2-2S6,0.896,6,2c0,0.738,0.404,1.376,1,1.723V6H5c-2.762,0-5,2.238-5,5s2.238,5,5,5
				h6c2.762,0,5-2.238,5-5S13.762,6,11,6z M11,14H5c-1.657,0-3-1.343-3-3s1.343-3,3-3h6c1.657,0,3,1.343,3,3S12.657,14,11,14z
				 M11,10c-0.553,0-1,0.447-1,1s0.447,1,1,1s1-0.447,1-1S11.553,10,11,10z"/>
		</g>
	</g>
</g>
<g id="Row_1_1_">
</g>
</svg>
