<?xml version="1.0" encoding="utf-8"?>
<!-- Generator: Adobe Illustrator 16.0.0, SVG Export Plug-In . SVG Version: 6.00 Build 0)  -->
<!DOCTYPE svg PUBLIC "-//W3C//DTD SVG 1.1//EN" "http://www.w3.org/Graphics/SVG/1.1/DTD/svg11.dtd">
<svg version="1.1" xmlns="http://www.w3.org/2000/svg" xmlns:xlink="http://www.w3.org/1999/xlink" x="0px" y="0px" width="16px"
	 height="16px" viewBox="0 0 16 16" enable-background="new 0 0 16 16" xml:space="preserve">
<g id="Layer_0_xA0_Image_1_">
</g>
<g id="Row_5_1_">
	<g id="signal_gen">
		<g>
			<path fill="#212121" d="M8.969,5.006V5C6.62,5,7.01,9,7.031,9C6.511,9,6,9.479,6,10c0,0.54,0.511,0.994,1.031,0.994V11
				c2.344,0,1.848-4,1.938-4C8.97,7,8.97,6.994,8.971,6.994C9.489,6.994,10,6.63,10,6C10,5.46,9.489,5.006,8.969,5.006z M15,7
				h-1.101C13.421,4.165,10.971,2,8,2S2.579,4.165,2.101,7H1C0.447,7,0,7.447,0,8s0.447,1,1,1h1.101C2.579,11.835,5.029,14,8,14
				s5.421-2.165,5.899-5H15c0.553,0,1-0.447,1-1S15.553,7,15,7z M8,12c-2.209,0-4-1.791-4-4s1.791-4,4-4s4,1.791,4,4S10.209,12,8,12
				z"/>
		</g>
	</g>
</g>
<g id="Row_4_1_">
</g>
<g id="Row_3_1_">
</g>
<g id="Row_2_1_">
</g>
<g id="Row_1_1_">
</g>
</svg>
