<?xml version="1.0" encoding="utf-8"?>
<!-- Generator: Adobe Illustrator 16.0.0, SVG Export Plug-In . SVG Version: 6.00 Build 0)  -->
<!DOCTYPE svg PUBLIC "-//W3C//DTD SVG 1.1//EN" "http://www.w3.org/Graphics/SVG/1.1/DTD/svg11.dtd">
<svg version="1.1" xmlns="http://www.w3.org/2000/svg" xmlns:xlink="http://www.w3.org/1999/xlink" x="0px" y="0px" width="16px"
	 height="16px" viewBox="0 0 16 16" enable-background="new 0 0 16 16" xml:space="preserve">
<g id="Layer_0_xA0_Image_1_">
</g>
<g id="Row_5_1_">
</g>
<g id="Row_4_1_">
</g>
<g id="Row_3_1_">
</g>
<g id="Row_2_1_">
	<g id="soldering_gun">
		<g>
			<path fill-rule="evenodd" clip-rule="evenodd" fill="#212121" d="M16,7V1c0-0.553-0.447-1-1-1H7C6.447,0,6,0.447,6,1H3
				C2.447,1,2,1.447,2,2H1C0.447,2,0,2.447,0,3s0.447,1,1,1h1c0,0.553,0.447,1,1,1h3v2c0,0.553,0.447,1,1,1h1.219l1.812,7.242
				l0.018-0.004C10.157,15.672,10.532,16,11,16c0.161,0,0.308-0.047,0.442-0.114l0.005,0.009l4-2l-0.005-0.009
				C15.77,13.721,16,13.391,16,13c0-0.075-0.027-0.142-0.043-0.213l0.02-0.004L14.913,8H15C15.553,8,16,7.553,16,7z M11.668,13.548
				L10.281,8h2.583l0.99,4.455L11.668,13.548z M14,6H8V2h6V6z"/>
		</g>
	</g>
</g>
<g id="Row_1_1_">
</g>
</svg>
