<?xml version="1.0" encoding="utf-8"?>
<!-- Generator: Adobe Illustrator 16.0.0, SVG Export Plug-In . SVG Version: 6.00 Build 0)  -->
<!DOCTYPE svg PUBLIC "-//W3C//DTD SVG 1.1//EN" "http://www.w3.org/Graphics/SVG/1.1/DTD/svg11.dtd">
<svg version="1.1" xmlns="http://www.w3.org/2000/svg" xmlns:xlink="http://www.w3.org/1999/xlink" x="0px" y="0px" width="16px"
	 height="16px" viewBox="0 0 16 16" enable-background="new 0 0 16 16" xml:space="preserve">
<g id="Layer_0_xA0_Image_1_">
</g>
<g id="Row_5_1_">
</g>
<g id="Row_4_1_">
</g>
<g id="Row_3_1_">
</g>
<g id="Row_2_1_">
</g>
<g id="Row_1_1_">
	<g id="thyrsistor_visual">
		<g>
			<path fill="#212121" d="M15,5V1c0-0.553-0.447-1-1-1H2C1.447,0,1,0.447,1,1v4C0.447,5,0,5.447,0,6v5c0,0.553,0.447,1,1,1h2v3
				c0,0.553,0.447,1,1,1s1-0.447,1-1v-3h2v3c0,0.553,0.447,1,1,1s1-0.447,1-1v-3h2v3c0,0.553,0.447,1,1,1s1-0.447,1-1v-3h2
				c0.553,0,1-0.447,1-1V6C16,5.447,15.553,5,15,5z M8,1c1.104,0,2,0.896,2,2S9.104,5,8,5S6,4.104,6,3S6.896,1,8,1z M14,10H2V7h12
				V10z"/>
		</g>
	</g>
</g>
</svg>
