<?xml version="1.0" encoding="utf-8"?>
<!-- Generator: Adobe Illustrator 16.0.0, SVG Export Plug-In . SVG Version: 6.00 Build 0)  -->
<!DOCTYPE svg PUBLIC "-//W3C//DTD SVG 1.1//EN" "http://www.w3.org/Graphics/SVG/1.1/DTD/svg11.dtd">
<svg version="1.1" xmlns="http://www.w3.org/2000/svg" xmlns:xlink="http://www.w3.org/1999/xlink" x="0px" y="0px" width="16px"
	 height="16px" viewBox="0 0 16 16" enable-background="new 0 0 16 16" xml:space="preserve">
<g id="Layer_0_xA0_Image_1_">
</g>
<g id="Row_5_1_">
</g>
<g id="Row_4_1_">
</g>
<g id="Row_3_1_">
	<g id="webcam">
		<g>
			<path fill="#212121" d="M11,14H9c0,0,0-1.831,0-2c2.845-0.47,5-3.022,5-6c0-3.313-2.687-6-6-6S2,2.687,2,6
				c0,2.978,2.155,5.53,5,6c0,0.2,0,2,0,2H5c-0.553,0-1,0.447-1,1s0.447,1,1,1h6c0.553,0,1-0.447,1-1S11.553,14,11,14z M7,7
				c0-0.553,0.447-1,1-1s1,0.447,1,1S8.553,8,8,8S7,7.553,7,7z M11,7c0-1.657-1.343-3-3-3S5,5.343,5,7
				c0,1.45,1.027,2.659,2.395,2.939C5.476,9.646,4,8.002,4,6c0-2.209,1.791-4,4-4s4,1.791,4,4c0,2.002-1.476,3.646-3.395,3.939
				C9.973,9.659,11,8.45,11,7z"/>
		</g>
	</g>
</g>
<g id="Row_2_1_">
</g>
<g id="Row_1_1_">
</g>
</svg>
