<?xml version="1.0" encoding="utf-8"?>
<!-- Generator: Adobe Illustrator 16.0.0, SVG Export Plug-In . SVG Version: 6.00 Build 0)  -->
<!DOCTYPE svg PUBLIC "-//W3C//DTD SVG 1.1//EN" "http://www.w3.org/Graphics/SVG/1.1/DTD/svg11.dtd">
<svg version="1.1" xmlns="http://www.w3.org/2000/svg" xmlns:xlink="http://www.w3.org/1999/xlink" x="0px" y="0px" width="16px"
	 height="16px" viewBox="0 0 16 16" enable-background="new 0 0 16 16" xml:space="preserve">
<g id="Layer_0_xA0_Image_1_">
</g>
<g id="Row_5_1_">
</g>
<g id="Row_4_1_">
</g>
<g id="Row_3_1_">
</g>
<g id="Row_2_1_">
</g>
<g id="Row_1_1_">
	<g id="wii_u">
		<g>
			<path fill="#212121" d="M12,6c-1.657,0-3,1.343-3,3v2c0,0.553-0.447,1-1,1V1c0-0.553-0.447-1-1-1H3C2.447,0,2,0.447,2,1v14
				c0,0.553,0.447,1,1,1h5c3.866,0,7-3.134,7-7C15,7.343,13.657,6,12,6z M6,14H4V2h2V14z M8.604,13.939C9.972,13.659,11,12.45,11,11
				V9c0-0.553,0.447-1,1-1s1,0.447,1,1C13,11.555,11.077,13.638,8.604,13.939z"/>
		</g>
	</g>
</g>
</svg>
