<?xml version="1.0" encoding="utf-8"?>
<!-- Generator: Adobe Illustrator 16.0.0, SVG Export Plug-In . SVG Version: 6.00 Build 0)  -->
<!DOCTYPE svg PUBLIC "-//W3C//DTD SVG 1.1//EN" "http://www.w3.org/Graphics/SVG/1.1/DTD/svg11.dtd">
<svg version="1.1" xmlns="http://www.w3.org/2000/svg" xmlns:xlink="http://www.w3.org/1999/xlink" x="0px" y="0px" width="16px"
	 height="16px" viewBox="0 0 16 16" enable-background="new 0 0 16 16" xml:space="preserve">
<g id="Layer_0_xA0_Image_1_">
</g>
<g id="Row_5_1_">
</g>
<g id="Row_4_1_">
</g>
<g id="Row_3_1_">
	<g id="worldwide">
		<g>
			<path fill="#212121" d="M8,0C3.582,0,0,3.582,0,8s3.582,8,8,8s8-3.582,8-8S12.418,0,8,0z M5.418,2.605
				C4.162,3.729,3.308,5.214,3.072,7h-0.98C2.422,5.054,3.691,3.434,5.418,2.605z M2.092,9h0.98c0.235,1.786,1.09,3.271,2.346,4.395
				C3.691,12.566,2.422,10.946,2.092,9z M7,12.283C6.021,11.438,5.33,10.324,5.097,9H7V12.283z M7,7H5.097
				C5.33,5.676,6.021,4.563,7,3.717V7z M13.908,7h-0.98c-0.235-1.786-1.09-3.271-2.346-4.395C12.309,3.434,13.578,5.054,13.908,7z
				 M9,3.717C9.979,4.563,10.67,5.676,10.903,7H9V3.717z M9,9h1.903C10.67,10.324,9.979,11.438,9,12.283V9z M10.582,13.395
				c1.256-1.124,2.11-2.608,2.346-4.395h0.98C13.578,10.946,12.309,12.566,10.582,13.395z"/>
		</g>
	</g>
</g>
<g id="Row_2_1_">
</g>
<g id="Row_1_1_">
</g>
</svg>
