<?xml version="1.0" encoding="utf-8"?>
<!-- Generator: Adobe Illustrator 16.0.0, SVG Export Plug-In . SVG Version: 6.00 Build 0)  -->
<!DOCTYPE svg PUBLIC "-//W3C//DTD SVG 1.1//EN" "http://www.w3.org/Graphics/SVG/1.1/DTD/svg11.dtd">
<svg version="1.1" xmlns="http://www.w3.org/2000/svg" xmlns:xlink="http://www.w3.org/1999/xlink" x="0px" y="0px" width="16px"
	 height="16px" viewBox="0 0 16 16" enable-background="new 0 0 16 16" xml:space="preserve">
<g id="Background_xA0_Image_1_">
</g>
<g id="Row_5_1_">
</g>
<g id="Row_4_1_">
	<g id="add_group_2_">
		<g>
			<path fill="#212121" d="M11.584,7.084c1.381,0,2.5-1.176,2.5-2.625v-1.75c0-1.45-1.119-2.625-2.5-2.625s-2.5,1.175-2.5,2.625
				v1.75C9.084,5.908,10.203,7.084,11.584,7.084z M11.077,3.084c0-0.553-0.046-1,0.507-1s0.507,0.447,0.507,1v1
				c0,0.553,0.046,1-0.507,1s-0.507-0.447-0.507-1V3.084z M15.084,11.084h-2v-2c0-0.553-0.447-1-1-1s-1,0.447-1,1v2h-2
				c-0.553,0-1,0.447-1,1s0.447,1,1,1h2v2c0,0.552,0.447,1,1,1s1-0.448,1-1v-2h2c0.553,0,1-0.447,1-1S15.637,11.084,15.084,11.084z
				 M4.584,9.084c1.381,0,2.5-1.176,2.5-2.625v-1.75c0-1.45-1.119-2.625-2.5-2.625s-2.5,1.175-2.5,2.625v1.75
				C2.084,7.908,3.203,9.084,4.584,9.084z M4.077,5.084c0-0.553-0.046-1,0.507-1s0.507,0.447,0.507,1v1c0,0.553,0.046,1-0.507,1
				s-0.507-0.447-0.507-1V5.084z M8.084,14.084c-0.553,0-1,0.447-1,1c0,0.552,0.447,1,1,1c0.497,0,1-0.41,1-1
				C9.084,14.531,8.637,14.084,8.084,14.084z M6.084,11.084h-3c-1.657,0-3,1.343-3,3v1c0,0.552,0.447,1,1,1s1-0.448,1-1v-1
				c0-0.553,0.447-1,1-1h3c0.553,0,1-0.447,1-1S6.637,11.084,6.084,11.084z"/>
		</g>
	</g>
</g>
<g id="Row_3_1_">
</g>
<g id="Row_2_1_">
</g>
<g id="Row_1_1_">
</g>
</svg>
