<?xml version="1.0" encoding="utf-8"?>
<!-- Generator: Adobe Illustrator 16.0.0, SVG Export Plug-In . SVG Version: 6.00 Build 0)  -->
<!DOCTYPE svg PUBLIC "-//W3C//DTD SVG 1.1//EN" "http://www.w3.org/Graphics/SVG/1.1/DTD/svg11.dtd">
<svg version="1.1" xmlns="http://www.w3.org/2000/svg" xmlns:xlink="http://www.w3.org/1999/xlink" x="0px" y="0px" width="16px"
	 height="16px" viewBox="0 0 16 16" enable-background="new 0 0 16 16" xml:space="preserve">
<g id="Background_xA0_Image_1_">
</g>
<g id="Row_5_1_">
</g>
<g id="Row_4_1_">
</g>
<g id="Row_3_1_">
</g>
<g id="Row_2_1_">
</g>
<g id="Row_1_1_">
	<g id="archive_box">
		<g>
			<path fill="#212121" d="M7.084,5.084h2c0.553,0,1-0.447,1-1s-0.447-1-1-1h-2c-0.553,0-1,0.447-1,1S6.531,5.084,7.084,5.084z
				 M15.4,6.136l-2.316-0.772V1.084c0-0.553-0.447-1-1-1h-8c-0.553,0-1,0.447-1,1v4.279L0.768,6.136c0,0-0.684,0.133-0.684,0.948v6
				c0,0.873,0.804,0.98,0.804,0.98l10,2l0.004-0.02c0.064,0.014,0.124,0.039,0.192,0.039c0.161,0,0.308-0.047,0.442-0.114l4-2
				c0.327-0.165,0.558-0.495,0.558-0.886v-6C16.084,6.269,15.4,6.136,15.4,6.136z M10.084,13.864l-8-1.601v-3.96l8,1.6V13.864z
				 M11.084,8.084l-6-1.22v-4.78h6V8.084z M14.084,12.466l-2,1V9.702l2-1V12.466z"/>
		</g>
	</g>
</g>
</svg>
