<?xml version="1.0" encoding="utf-8"?>
<!-- Generator: Adobe Illustrator 16.0.0, SVG Export Plug-In . SVG Version: 6.00 Build 0)  -->
<!DOCTYPE svg PUBLIC "-//W3C//DTD SVG 1.1//EN" "http://www.w3.org/Graphics/SVG/1.1/DTD/svg11.dtd">
<svg version="1.1" xmlns="http://www.w3.org/2000/svg" xmlns:xlink="http://www.w3.org/1999/xlink" x="0px" y="0px" width="16px"
	 height="16px" viewBox="0 0 16 16" enable-background="new 0 0 16 16" xml:space="preserve">
<g id="Background_xA0_Image_1_">
</g>
<g id="Row_5_1_">
</g>
<g id="Row_4_1_">
</g>
<g id="Row_3_1_">
</g>
<g id="Row_2_1_">
	<g id="cloud_2_">
		<g>
			<path fill="#212121" d="M14.084,8.084c-0.05,0-0.097,0.011-0.146,0.015c0.086-0.326,0.146-0.662,0.146-1.015c0-2.209-1.791-4-4-4
				c-1.313,0-2.467,0.641-3.196,1.617C6.385,4.319,5.765,4.084,5.084,4.084c-1.657,0-3,1.343-3,3c0,0.359,0.073,0.699,0.189,1.02
				c-0.063-0.007-0.125-0.02-0.189-0.02c-1.104,0-2,0.896-2,2s0.896,2,2,2h12c1.104,0,2-0.896,2-2S15.188,8.084,14.084,8.084z
				 M13.584,10.084h-11c-0.276,0-0.5-0.224-0.5-0.5s0.224-0.5,0.5-0.5h0.5c0.553,0,1-0.447,1-1v-1c0-0.553,0.447-1,1-1s1,0.447,1,1
				c0,0.001-0.001,0.002-0.001,0.004c0.001,0,0.001,0,0.002,0c0.002,0.55,0.448,0.996,0.999,0.996c0.553,0,1-0.448,1-1
				c0-1.104,0.896-2,2-2s2,0.896,2,2v1c0,0.553,0.447,1,1,1h0.5c0.276,0,0.5,0.224,0.5,0.5S13.86,10.084,13.584,10.084z"/>
		</g>
	</g>
</g>
<g id="Row_1_1_">
</g>
</svg>
