<?xml version="1.0" encoding="utf-8"?>
<!-- Generator: Adobe Illustrator 16.0.0, SVG Export Plug-In . SVG Version: 6.00 Build 0)  -->
<!DOCTYPE svg PUBLIC "-//W3C//DTD SVG 1.1//EN" "http://www.w3.org/Graphics/SVG/1.1/DTD/svg11.dtd">
<svg version="1.1" xmlns="http://www.w3.org/2000/svg" xmlns:xlink="http://www.w3.org/1999/xlink" x="0px" y="0px" width="16px"
	 height="16px" viewBox="0 0 16 16" enable-background="new 0 0 16 16" xml:space="preserve">
<g id="Background_xA0_Image_1_">
</g>
<g id="Row_5_1_">
</g>
<g id="Row_4_1_">
</g>
<g id="Row_3_1_">
</g>
<g id="Row_2_1_">
	<g id="device_2_">
		<g>
			<path fill="#212121" d="M12.084,0.084h-8c-0.553,0-1,0.447-1,1v14c0,0.552,0.447,1,1,1h8c0.553,0,1-0.448,1-1v-14
				C13.084,0.531,12.637,0.084,12.084,0.084z M8.084,15.084c-0.553,0-1-0.447-1-1s0.447-1,1-1s1,0.447,1,1
				S8.637,15.084,8.084,15.084z M11.084,12.084h-6v-10h6V12.084z"/>
		</g>
	</g>
</g>
<g id="Row_1_1_">
</g>
</svg>
