<?xml version="1.0" encoding="utf-8"?>
<!-- Generator: Adobe Illustrator 16.0.0, SVG Export Plug-In . SVG Version: 6.00 Build 0)  -->
<!DOCTYPE svg PUBLIC "-//W3C//DTD SVG 1.1//EN" "http://www.w3.org/Graphics/SVG/1.1/DTD/svg11.dtd">
<svg version="1.1" xmlns="http://www.w3.org/2000/svg" xmlns:xlink="http://www.w3.org/1999/xlink" x="0px" y="0px" width="16px"
	 height="16px" viewBox="0 0 16 16" enable-background="new 0 0 16 16" xml:space="preserve">
<g id="Background_xA0_Image_1_">
</g>
<g id="Row_5_1_">
</g>
<g id="Row_4_1_">
	<g id="filter_gallery_2_">
		<g>
			<path fill="#212121" d="M10.094,14.084H2.086v-5c0-0.553-0.448-1-1.001-1s-1.001,0.447-1.001,1v6c0,0.552,0.448,1,1.001,1h9.009
				c0.553,0,1.001-0.448,1.001-1C11.095,14.531,10.647,14.084,10.094,14.084z M14.098,8.084c-0.553,0-1.001,0.447-1.001,1v1H6.09v-4
				h1.001c0.553,0,1.001-0.448,1.001-1c0-0.553-0.448-1-1.001-1H5.089c-0.553,0-1.001,0.447-1.001,1v6c0,0.552,0.448,1,1.001,1
				h9.009c0.553,0,1.001-0.448,1.001-1v-2C15.099,9.084,15.081,8.084,14.098,8.084z M12.596,1.084c0,1.752-1.783,3.499-3.495,3.499
				l0.002,0.002c1.706,0,3.493,1.877,3.493,3.499c0-1.699,1.784-3.498,3.484-3.498l0.004-0.004
				C14.375,4.582,12.596,2.834,12.596,1.084z"/>
		</g>
	</g>
</g>
<g id="Row_3_1_">
</g>
<g id="Row_2_1_">
</g>
<g id="Row_1_1_">
</g>
</svg>
