<?xml version="1.0" encoding="utf-8"?>
<!-- Generator: Adobe Illustrator 16.0.0, SVG Export Plug-In . SVG Version: 6.00 Build 0)  -->
<!DOCTYPE svg PUBLIC "-//W3C//DTD SVG 1.1//EN" "http://www.w3.org/Graphics/SVG/1.1/DTD/svg11.dtd">
<svg version="1.1" xmlns="http://www.w3.org/2000/svg" xmlns:xlink="http://www.w3.org/1999/xlink" x="0px" y="0px" width="16px"
	 height="16px" viewBox="0 0 16 16" enable-background="new 0 0 16 16" xml:space="preserve">
<g id="Background_xA0_Image_1_">
</g>
<g id="Row_5_1_">
</g>
<g id="Row_4_1_">
</g>
<g id="Row_3_1_">
</g>
<g id="Row_2_1_">
</g>
<g id="Row_1_1_">
	<g id="help_service">
		<g>
			<path fill="#212121" d="M8.084,11.084c-0.553,0-1,0.447-1,1s0.447,1,1,1s1-0.447,1-1S8.637,11.084,8.084,11.084z M8.084,3.084
				c-1.657,0-3,1.343-3,3c0,0.553,0.447,1,1,1s1-0.447,1-1s0.447-1,1-1s1,0.447,1,1s-0.447,1-1,1s-1,0.447-1,1v1
				c0,0.553,0.447,1,1,1s1-0.447,1-1V8.9c1.162-0.413,2-1.512,2-2.816C11.084,4.427,9.741,3.084,8.084,3.084z M8.084,0.084
				c-4.418,0-8,3.582-8,8s3.582,8,8,8s8-3.582,8-8S12.502,0.084,8.084,0.084z M8.084,14.084c-3.313,0-6-2.687-6-6s2.687-6,6-6
				s6,2.687,6,6S11.397,14.084,8.084,14.084z"/>
		</g>
	</g>
</g>
</svg>
