<?xml version="1.0" encoding="utf-8"?>
<!-- Generator: Adobe Illustrator 16.0.0, SVG Export Plug-In . SVG Version: 6.00 Build 0)  -->
<!DOCTYPE svg PUBLIC "-//W3C//DTD SVG 1.1//EN" "http://www.w3.org/Graphics/SVG/1.1/DTD/svg11.dtd">
<svg version="1.1" xmlns="http://www.w3.org/2000/svg" xmlns:xlink="http://www.w3.org/1999/xlink" x="0px" y="0px" width="16px"
	 height="16px" viewBox="0 0 16 16" enable-background="new 0 0 16 16" xml:space="preserve">
<g id="Background_xA0_Image_1_">
</g>
<g id="Row_5_1_">
</g>
<g id="Row_4_1_">
</g>
<g id="Row_3_1_">
</g>
<g id="Row_2_1_">
</g>
<g id="Row_1_1_">
	<g id="home">
		<g>
			<path fill="#212121" d="M15.791,7.377l-7-7c0,0-0.161-0.293-0.707-0.293c-0.276,0-0.526,0.112-0.707,0.293l-7,7
				c0,0-0.293,0.161-0.293,0.707c0,0.553,0.447,1,1,1c0.276,0,0.526-0.112,0.707-0.293l0.293-0.293v6.586c0,0.553,0.447,1,1,1h3
				c0.553,0,1-0.447,1-1v-4c0-0.553,0.447-1,1-1s1,0.447,1,1v4c0,0.553,0.447,1,1,1h3c0.553,0,1-0.447,1-1V8.498l0.293,0.293
				c0,0,0.161,0.293,0.707,0.293c0.553,0,1-0.447,1-1C16.084,7.808,15.972,7.558,15.791,7.377z M12.084,14.084h-1v-3
				c0-1.657-1.343-3-3-3s-3,1.343-3,3v3h-1V6.498l4-4l4,4V14.084z"/>
		</g>
	</g>
</g>
</svg>
