<?xml version="1.0" encoding="utf-8"?>
<!-- Generator: Adobe Illustrator 16.0.0, SVG Export Plug-In . SVG Version: 6.00 Build 0)  -->
<!DOCTYPE svg PUBLIC "-//W3C//DTD SVG 1.1//EN" "http://www.w3.org/Graphics/SVG/1.1/DTD/svg11.dtd">
<svg version="1.1" xmlns="http://www.w3.org/2000/svg" xmlns:xlink="http://www.w3.org/1999/xlink" x="0px" y="0px" width="16px"
	 height="16px" viewBox="0 0 16 16" enable-background="new 0 0 16 16" xml:space="preserve">
<g id="Background_xA0_Image_1_">
</g>
<g id="Row_5_1_">
</g>
<g id="Row_4_1_">
	<g id="instagram_2_">
		<g>
			<path fill="#212121" d="M15.084,0.084h-14c-0.553,0-1,0.447-1,1v14c0,0.552,0.447,1,1,1h14c0.553,0,1-0.448,1-1v-14
				C16.084,0.531,15.637,0.084,15.084,0.084z M8.084,6.084c1.104,0,2,0.896,2,2s-0.896,2-2,2s-2-0.896-2-2S6.979,6.084,8.084,6.084z
				 M14.084,14.084h-12v-6h2c0,2.209,1.791,4,4,4s4-1.791,4-4h2V14.084z M14.084,4.084c0,0.553-0.447,1-1,1h-1c-0.553,0-1-0.447-1-1
				v-1c0-0.553,0.447-1,1-1h1c0.553,0,1,0.447,1,1V4.084z"/>
		</g>
	</g>
</g>
<g id="Row_3_1_">
</g>
<g id="Row_2_1_">
</g>
<g id="Row_1_1_">
</g>
</svg>
