<?xml version="1.0" encoding="utf-8"?>
<!-- Generator: Adobe Illustrator 16.0.0, SVG Export Plug-In . SVG Version: 6.00 Build 0)  -->
<!DOCTYPE svg PUBLIC "-//W3C//DTD SVG 1.1//EN" "http://www.w3.org/Graphics/SVG/1.1/DTD/svg11.dtd">
<svg version="1.1" xmlns="http://www.w3.org/2000/svg" xmlns:xlink="http://www.w3.org/1999/xlink" x="0px" y="0px" width="16px"
	 height="16px" viewBox="0 0 16 16" enable-background="new 0 0 16 16" xml:space="preserve">
<g id="Background_xA0_Image_1_">
</g>
<g id="Row_5_1_">
</g>
<g id="Row_4_1_">
</g>
<g id="Row_3_1_">
	<g id="latest">
		<g>
			<path fill="#212121" d="M9.084,7.644v-3.56c0-0.553-0.447-1-1-1s-1,0.447-1,1v3.849c-0.035,0.346,0.097,0.689,0.384,0.92
				l1.897,1.927c0.391,0.391,1.023,0.391,1.414,0s0.391-1.023,0-1.414L9.084,7.644z M8.084,0.084c-4.418,0-8,3.582-8,8s3.582,8,8,8
				s8-3.582,8-8S12.502,0.084,8.084,0.084z M8.084,14.084c-3.313,0-6-2.687-6-6s2.687-6,6-6s6,2.687,6,6S11.397,14.084,8.084,14.084
				z"/>
		</g>
	</g>
</g>
<g id="Row_2_1_">
</g>
<g id="Row_1_1_">
</g>
</svg>
