<?xml version="1.0" encoding="utf-8"?>
<!-- Generator: Adobe Illustrator 16.0.0, SVG Export Plug-In . SVG Version: 6.00 Build 0)  -->
<!DOCTYPE svg PUBLIC "-//W3C//DTD SVG 1.1//EN" "http://www.w3.org/Graphics/SVG/1.1/DTD/svg11.dtd">
<svg version="1.1" xmlns="http://www.w3.org/2000/svg" xmlns:xlink="http://www.w3.org/1999/xlink" x="0px" y="0px" width="16px"
	 height="16px" viewBox="0 0 16 16" enable-background="new 0 0 16 16" xml:space="preserve">
<g id="Background_xA0_Image_1_">
</g>
<g id="Row_5_1_">
	<g id="like_1">
		<g>
			<path fill="#212121" d="M12.084,0.084c-1.746,0-3.215,1.124-3.758,2.685L8.084,3.371L7.845,2.768
				C7.298,1.209,5.829,0.084,4.084,0.084c-2.209,0-4,1.791-4,4c0,6.949,7.01,11,8,11s8-4.051,8-11
				C16.084,1.875,14.293,0.084,12.084,0.084z M8.084,13.084c-0.417,0-6-2.999-6-9c0-1.104,0.896-2,2-2
				c0.862,0,1.528,0.674,1.871,1.313L5.948,3.4l1.199,1.996c0.132,0.396,0.495,0.688,0.937,0.688s0.805-0.291,0.937-0.688L10.22,3.4
				l-0.007-0.003c0.437-0.64,1.009-1.313,1.871-1.313c1.104,0,2,0.896,2,2C14.084,10.054,8.501,13.084,8.084,13.084z"/>
		</g>
	</g>
</g>
<g id="Row_4_1_">
</g>
<g id="Row_3_1_">
</g>
<g id="Row_2_1_">
</g>
<g id="Row_1_1_">
</g>
</svg>
