<?xml version="1.0" encoding="utf-8"?>
<!-- Generator: Adobe Illustrator 16.0.0, SVG Export Plug-In . SVG Version: 6.00 Build 0)  -->
<!DOCTYPE svg PUBLIC "-//W3C//DTD SVG 1.1//EN" "http://www.w3.org/Graphics/SVG/1.1/DTD/svg11.dtd">
<svg version="1.1" xmlns="http://www.w3.org/2000/svg" xmlns:xlink="http://www.w3.org/1999/xlink" x="0px" y="0px" width="16px"
	 height="16px" viewBox="0 0 16 16" enable-background="new 0 0 16 16" xml:space="preserve">
<g id="Background_xA0_Image_1_">
</g>
<g id="Row_5_1_">
</g>
<g id="Row_4_1_">
</g>
<g id="Row_3_1_">
</g>
<g id="Row_2_1_">
</g>
<g id="Row_1_1_">
	<g id="log_out">
		<g>
			<path fill="#212121" d="M11.897,1.38c-0.214-0.084-0.509-0.296-0.813-0.296c-0.553,0-1,0.447-1,1s0.613,0.835,1,1
				c1.786,1.039,3,2.785,3,5c0,3.313-2.687,6-6,6s-6-2.687-6-6c0-2.215,1.214-3.961,3-5c0.354-0.099,1-0.447,1-1s-0.447-1-1-1
				c-0.305,0-0.6,0.175-0.813,0.296C1.748,2.665,0.084,5.026,0.084,8.084c0,4.418,3.582,8,8,8s8-3.582,8-8
				C16.084,5.026,14.42,2.665,11.897,1.38z M8.084,9.084c0.553,0,1-0.447,1-1v-7c0-0.553-0.447-1-1-1s-1,0.447-1,1v7
				C7.084,8.637,7.531,9.084,8.084,9.084z"/>
		</g>
	</g>
</g>
</svg>
