<?xml version="1.0" encoding="utf-8"?>
<!-- Generator: Adobe Illustrator 16.0.0, SVG Export Plug-In . SVG Version: 6.00 Build 0)  -->
<!DOCTYPE svg PUBLIC "-//W3C//DTD SVG 1.1//EN" "http://www.w3.org/Graphics/SVG/1.1/DTD/svg11.dtd">
<svg version="1.1" xmlns="http://www.w3.org/2000/svg" xmlns:xlink="http://www.w3.org/1999/xlink" x="0px" y="0px" width="16px"
	 height="16px" viewBox="0 0 16 16" enable-background="new 0 0 16 16" xml:space="preserve">
<g id="Background_xA0_Image_1_">
</g>
<g id="Row_5_1_">
</g>
<g id="Row_4_1_">
</g>
<g id="Row_3_1_">
	<g id="outbox">
		<g>
			<path fill="#212121" d="M5.084,5.084c0.276,0,0.526-0.112,0.707-0.293l1.293-1.293v7.586c0,0.552,0.447,1,1,1s1-0.448,1-1V3.498
				l1.293,1.293c0,0,0.161,0.293,0.707,0.293c0.553,0,1-0.447,1-1c0-0.276-0.112-0.526-0.293-0.707l-3-3
				c0,0-0.161-0.293-0.707-0.293c-0.276,0-0.526,0.112-0.707,0.293l-3,3c0,0-0.293,0.161-0.293,0.707
				C4.084,4.637,4.531,5.084,5.084,5.084z M15.084,9.084c-0.553,0-1,0.447-1,1v4h-12v-4c0-0.553-0.447-1-1-1s-1,0.447-1,1v5
				c0,0.552,0.447,1,1,1h14c0.553,0,1-0.448,1-1v-5C16.084,9.531,15.637,9.084,15.084,9.084z"/>
		</g>
	</g>
</g>
<g id="Row_2_1_">
</g>
<g id="Row_1_1_">
</g>
</svg>
