<?xml version="1.0" encoding="utf-8"?>
<!-- Generator: Adobe Illustrator 16.0.0, SVG Export Plug-In . SVG Version: 6.00 Build 0)  -->
<!DOCTYPE svg PUBLIC "-//W3C//DTD SVG 1.1//EN" "http://www.w3.org/Graphics/SVG/1.1/DTD/svg11.dtd">
<svg version="1.1" xmlns="http://www.w3.org/2000/svg" xmlns:xlink="http://www.w3.org/1999/xlink" x="0px" y="0px" width="16px"
	 height="16px" viewBox="0 0 16 16" enable-background="new 0 0 16 16" xml:space="preserve">
<g id="Background_xA0_Image_1_">
</g>
<g id="Row_5_1_">
	<g id="profile">
		<g>
			<path fill="#212121" d="M15,4h-4.719l0.688-2.758c0,0,0.03-0.069,0.03-0.242c0-0.553-0.447-1-1-1H6C5.447,0,5,0.447,5,1
				c0,0.173,0.03,0.242,0.03,0.242L5.719,4H1C0.447,4,0,4.447,0,5v10c0,0.552,0.447,1,1,1h14c0.553,0,1-0.448,1-1V5
				C16,4.447,15.553,4,15,4z M8.719,2l-0.5,2H7.781l-0.5-2H8.719z M6,14H4v-1h2V14z M14,14H7v-2c0-0.553-0.447-1-1-1H4
				c-0.553,0-1,0.447-1,1v2H2V6h12V14z M5,10c0.553,0,1-0.448,1-1V8c0-0.553-0.447-1-1-1S4,7.447,4,8v1C4,9.552,4.447,10,5,10z
				 M10,13h2c0.553,0,1-0.447,1-1s-0.447-1-1-1h-2c-0.553,0-1,0.447-1,1S9.447,13,10,13z M10,10h2c0.553,0,1-0.448,1-1
				c0-0.553-0.447-1-1-1h-2C9.447,8,9,8.447,9,9C9,9.552,9.447,10,10,10z"/>
		</g>
	</g>
</g>
<g id="Row_4_1_">
</g>
<g id="Row_3_1_">
</g>
<g id="Row_2_1_">
</g>
<g id="Row_1_1_">
</g>
</svg>
