<?xml version="1.0" encoding="utf-8"?>
<!-- Generator: Adobe Illustrator 16.0.0, SVG Export Plug-In . SVG Version: 6.00 Build 0)  -->
<!DOCTYPE svg PUBLIC "-//W3C//DTD SVG 1.1//EN" "http://www.w3.org/Graphics/SVG/1.1/DTD/svg11.dtd">
<svg version="1.1" xmlns="http://www.w3.org/2000/svg" xmlns:xlink="http://www.w3.org/1999/xlink" x="0px" y="0px" width="16px"
	 height="16px" viewBox="0 0 16 16" enable-background="new 0 0 16 16" xml:space="preserve">
<g id="Background_xA0_Image_1_">
</g>
<g id="Row_5_1_">
	<g id="repeat">
		<g>
			<path fill="#212121" d="M12.5,11.49c-0.555,0-0.729,0.301-0.729,0.301c-0.181,0.181-0.43,0.293-0.706,0.293H5.073
				c-0.552,0-0.999-0.448-0.999-1V9.438L4.431,9.8c0.375,0.379,0.982,0.379,1.355,0c0.375-0.379,0.375-0.992,0-1.371L3.753,6.371
				c-0.375-0.378-0.981-0.378-1.355,0L0.365,8.429c-0.375,0.379-0.375,0.992,0,1.371c0.374,0.379,0.981,0.379,1.355,0l0.357-0.361
				v1.646c0,1.657,1.341,3,2.996,3h5.991c0.804,0,1.529-0.321,2.067-0.836c0.219-0.184,0.367-0.449,0.367-0.758
				C13.498,11.938,13.051,11.49,12.5,11.49z M15.803,6.368c-0.374-0.379-0.981-0.379-1.355,0l-0.357,0.361V5.084
				c0-1.657-1.341-3-2.996-3H5.104c-0.804,0-1.529,0.321-2.067,0.836C2.817,3.104,2.67,3.369,2.67,3.678c0,0.552,0.447,1,0.999,1
				c0.555,0,0.729-0.301,0.729-0.301c0.181-0.181,0.43-0.293,0.706-0.293h5.991c0.552,0,0.999,0.447,0.999,1v1.646l-0.357-0.361
				c-0.375-0.379-0.982-0.379-1.355,0c-0.375,0.379-0.375,0.992,0,1.371l2.033,2.057c0.375,0.379,0.981,0.379,1.355,0l2.033-2.057
				C16.178,7.36,16.178,6.747,15.803,6.368z"/>
		</g>
	</g>
</g>
<g id="Row_4_1_">
</g>
<g id="Row_3_1_">
</g>
<g id="Row_2_1_">
</g>
<g id="Row_1_1_">
</g>
</svg>
