<?xml version="1.0" encoding="utf-8"?>
<!-- Generator: Adobe Illustrator 16.0.0, SVG Export Plug-In . SVG Version: 6.00 Build 0)  -->
<!DOCTYPE svg PUBLIC "-//W3C//DTD SVG 1.1//EN" "http://www.w3.org/Graphics/SVG/1.1/DTD/svg11.dtd">
<svg version="1.1" xmlns="http://www.w3.org/2000/svg" xmlns:xlink="http://www.w3.org/1999/xlink" x="0px" y="0px" width="16px"
	 height="16px" viewBox="0 0 16 16" enable-background="new 0 0 16 16" xml:space="preserve">
<g id="Background_xA0_Image_1_">
</g>
<g id="Row_5_1_">
</g>
<g id="Row_4_1_">
</g>
<g id="Row_3_1_">
	<g id="search">
		<g>
			<path fill="#212121" d="M15.791,14.377L9.253,7.838c0.522-0.79,0.831-1.735,0.831-2.754c0-2.762-2.238-5-5-5s-5,2.238-5,5
				s2.238,5,5,5c1.019,0,1.964-0.309,2.754-0.832l6.539,6.539c0,0,0.161,0.293,0.707,0.293c0.553,0,1-0.448,1-1
				C16.084,14.538,15.791,14.377,15.791,14.377z M5.084,8.084c-1.657,0-3-1.343-3-3s1.343-3,3-3s3,1.343,3,3
				S6.741,8.084,5.084,8.084z"/>
		</g>
	</g>
</g>
<g id="Row_2_1_">
</g>
<g id="Row_1_1_">
</g>
</svg>
