<?xml version="1.0" encoding="utf-8"?>
<!-- Generator: Adobe Illustrator 16.0.0, SVG Export Plug-In . SVG Version: 6.00 Build 0)  -->
<!DOCTYPE svg PUBLIC "-//W3C//DTD SVG 1.1//EN" "http://www.w3.org/Graphics/SVG/1.1/DTD/svg11.dtd">
<svg version="1.1" xmlns="http://www.w3.org/2000/svg" xmlns:xlink="http://www.w3.org/1999/xlink" x="0px" y="0px" width="16px"
	 height="16px" viewBox="0 0 16 16" enable-background="new 0 0 16 16" xml:space="preserve">
<g id="Background_xA0_Image_1_">
</g>
<g id="Row_5_1_">
</g>
<g id="Row_4_1_">
	<g id="share_2_">
		<g>
			<path fill="#212121" d="M13.084,10.084c-0.809,0-1.539,0.323-2.078,0.843L6.047,8.447c0.016-0.126,0.016-0.601,0-0.727
				l4.959-2.479c0.539,0.52,1.27,0.843,2.078,0.843c1.657,0,3-1.343,3-3s-1.343-3-3-3s-3,1.343-3,3c0,0.125,0.021,0.243,0.037,0.363
				L5.162,5.927c-0.539-0.52-1.27-0.843-2.078-0.843c-1.657,0-3,1.343-3,3s1.343,3,3,3c0.809,0,1.539-0.323,2.078-0.843l4.959,2.479
				c-0.016,0.12-0.037,0.238-0.037,0.363c0,1.657,1.343,3,3,3s3-1.343,3-3S14.741,10.084,13.084,10.084z M13.084,2.084
				c0.553,0,1,0.447,1,1c0,0.552-0.447,1-1,1s-1-0.448-1-1C12.084,2.531,12.531,2.084,13.084,2.084z M3.084,9.084
				c-0.553,0-1-0.447-1-1s0.447-1,1-1s1,0.447,1,1S3.637,9.084,3.084,9.084z M13.084,14.084c-0.553,0-1-0.448-1-1
				c0-0.553,0.447-1,1-1s1,0.447,1,1C14.084,13.636,13.637,14.084,13.084,14.084z"/>
		</g>
	</g>
</g>
<g id="Row_3_1_">
</g>
<g id="Row_2_1_">
</g>
<g id="Row_1_1_">
</g>
</svg>
