<?xml version="1.0" encoding="utf-8"?>
<!-- Generator: Adobe Illustrator 16.0.0, SVG Export Plug-In . SVG Version: 6.00 Build 0)  -->
<!DOCTYPE svg PUBLIC "-//W3C//DTD SVG 1.1//EN" "http://www.w3.org/Graphics/SVG/1.1/DTD/svg11.dtd">
<svg version="1.1" xmlns="http://www.w3.org/2000/svg" xmlns:xlink="http://www.w3.org/1999/xlink" x="0px" y="0px" width="16px"
	 height="16px" viewBox="0 0 16 16" enable-background="new 0 0 16 16" xml:space="preserve">
<g id="Background_xA0_Image_1_">
</g>
<g id="Row_5_1_">
</g>
<g id="Row_4_1_">
</g>
<g id="Row_3_1_">
	<g id="share_via...">
		<g>
			<path fill="#212121" d="M15.791,5.377l-5-5c0,0-0.161-0.293-0.707-0.293c-0.553,0-1,0.447-1,1v2h-2c-3.866,0-7,3.134-7,7v5
				c0,0.552,0.447,1,1,1s1-0.448,1-1v-1c0-2.762,2.238-5,5-5h2v2c0,0.552,0.447,1,1,1c0.276,0,0.526-0.112,0.707-0.293l5-5
				c0,0,0.293-0.161,0.293-0.707C16.084,5.808,15.972,5.558,15.791,5.377z M11.084,8.67V8.084c0-0.553-0.447-1-1-1h-3
				c-1.91,0-3.637,0.77-4.9,2.009c0.46-2.286,2.479-4.009,4.9-4.009h3c0.553,0,1-0.447,1-1V3.498l2.586,2.586L11.084,8.67z"/>
		</g>
	</g>
</g>
<g id="Row_2_1_">
</g>
<g id="Row_1_1_">
</g>
</svg>
