<?xml version="1.0" encoding="utf-8"?>
<!-- Generator: Adobe Illustrator 16.0.0, SVG Export Plug-In . SVG Version: 6.00 Build 0)  -->
<!DOCTYPE svg PUBLIC "-//W3C//DTD SVG 1.1//EN" "http://www.w3.org/Graphics/SVG/1.1/DTD/svg11.dtd">
<svg version="1.1" xmlns="http://www.w3.org/2000/svg" xmlns:xlink="http://www.w3.org/1999/xlink" x="0px" y="0px" width="16px"
	 height="16px" viewBox="0 0 16 16" enable-background="new 0 0 16 16" xml:space="preserve">
<g id="Background_xA0_Image_1_">
</g>
<g id="Row_5_1_">
</g>
<g id="Row_4_1_">
	<g id="swap_2_">
		<g>
			<path fill="#212121" d="M5.761,0.367c-0.375-0.378-0.982-0.378-1.357,0L2.365,2.426c-0.375,0.38-0.375,0.993,0,1.372
				c0.374,0.379,0.983,0.379,1.358,0l0.357-0.361v10.65c0,0.553,0.448,1,1.001,1s1.001-0.447,1.001-1V3.437L6.44,3.798
				c0.375,0.379,0.984,0.379,1.358,0c0.375-0.379,0.375-0.992,0-1.372L5.761,0.367z M13.803,12.37c-0.374-0.379-0.983-0.379-1.358,0
				l-0.357,0.361V2.081c0-0.553-0.448-1-1.001-1s-1.001,0.447-1.001,1v10.65L9.728,12.37c-0.375-0.379-0.984-0.379-1.358,0
				c-0.375,0.379-0.375,0.992,0,1.372l2.038,2.057c0.375,0.38,0.982,0.38,1.357,0l2.038-2.057
				C14.178,13.362,14.178,12.749,13.803,12.37z"/>
		</g>
	</g>
</g>
<g id="Row_3_1_">
</g>
<g id="Row_2_1_">
</g>
<g id="Row_1_1_">
</g>
</svg>
