<?xml version="1.0" encoding="utf-8"?>
<!-- Generator: Adobe Illustrator 16.0.0, SVG Export Plug-In . SVG Version: 6.00 Build 0)  -->
<!DOCTYPE svg PUBLIC "-//W3C//DTD SVG 1.1//EN" "http://www.w3.org/Graphics/SVG/1.1/DTD/svg11.dtd">
<svg version="1.1" xmlns="http://www.w3.org/2000/svg" xmlns:xlink="http://www.w3.org/1999/xlink" x="0px" y="0px" width="16px"
	 height="16px" viewBox="0 0 16 16" enable-background="new 0 0 16 16" xml:space="preserve">
<g id="Background_xA0_Image_1_">
</g>
<g id="Row_5_1_">
	<g id="user">
		<g>
			<path fill="#212121" d="M8,8c1.657,0,3-1.343,3-3V3c0-1.657-1.343-3-3-3S5,1.343,5,3v2C5,6.657,6.343,8,8,8z M7,3
				c0-0.553,0.447-1,1-1s1,0.447,1,1v2c0,0.552-0.447,1-1,1S7,5.552,7,5V3z M11,10H5c-1.657,0-3,1.343-3,3v2c0,0.552,0.447,1,1,1
				s1-0.448,1-1v-2c0-0.553,0.447-1,1-1h6c0.553,0,1,0.447,1,1v2c0,0.552,0.447,1,1,1s1-0.448,1-1v-2C14,11.343,12.657,10,11,10z"/>
		</g>
	</g>
</g>
<g id="Row_4_1_">
</g>
<g id="Row_3_1_">
</g>
<g id="Row_2_1_">
</g>
<g id="Row_1_1_">
</g>
</svg>
