<?xml version="1.0" encoding="utf-8"?>
<!-- Generator: Adobe Illustrator 16.0.0, SVG Export Plug-In . SVG Version: 6.00 Build 0)  -->
<!DOCTYPE svg PUBLIC "-//W3C//DTD SVG 1.1//EN" "http://www.w3.org/Graphics/SVG/1.1/DTD/svg11.dtd">
<svg version="1.1" xmlns="http://www.w3.org/2000/svg" xmlns:xlink="http://www.w3.org/1999/xlink" x="0px" y="0px" width="16px"
	 height="16px" viewBox="0 0 16 16" enable-background="new 0 0 16 16" xml:space="preserve">
<g id="Background_xA0_Image_1_">
</g>
<g id="Row_5_1_">
</g>
<g id="Row_4_1_">
</g>
<g id="Row_3_1_">
	<g id="video_calls">
		<g>
			<path fill="#212121" d="M15.084,3.084c-0.326,0-0.447,0.105-0.447,0.105l-3.553,2.132V5.084c0-0.553-0.447-1-1-1h-9
				c-0.553,0-1,0.447-1,1v6c0,0.552,0.447,1,1,1h9c0.553,0,1-0.448,1-1v-0.237l3.558,2.123c0.135,0.067,0.281,0.114,0.442,0.114
				c0.553,0,1-0.447,1-1v-8C16.084,3.531,15.637,3.084,15.084,3.084z M9.084,10.084h-7v-4h7V10.084z M14.084,10.321l-3-1.8V7.646
				l3-1.8V10.321z"/>
		</g>
	</g>
</g>
<g id="Row_2_1_">
</g>
<g id="Row_1_1_">
</g>
</svg>
